ISO-10303-21;
HEADER;
/* Generated by software containing ST-Developer
 * from STEP Tools, Inc. (www.steptools.com) 
 */
/* OPTION: using custom renumber hook */

FILE_DESCRIPTION(
/* description */ ('STEP AP242 Edition 2',
'CAx-IF Rec.Pracs.---Representation and Presentation of Product Manufa
cturing Information (PMI)---4.0---2014-10-13',
'CAx-IF Rec.Pracs.---3D Tessellated Geometry---0.4---2014-09-14','2;1',
'CAx-IF Rec.Pracs.---User Defined Attributes---1.5---2016-08-15'),
/* implementation_level */ '2;1');

FILE_NAME(
/* name */ '697bccecf9a2531b3b4881a2',
/* time_stamp */ '2026-01-29T21:11:08Z',
/* author */ (''),
/* organization */ (''),
/* preprocessor_version */ 'ST-DEVELOPER v20',
/* originating_system */ 'ONSHAPE BY PTC INC, 1.209',
/* authorisation */ '  ');

FILE_SCHEMA (('AP242_MANAGED_MODEL_BASED_3D_ENGINEERING_MIM_LF { 1 0 10303 442 3 1 4 }'));
ENDSEC;

DATA;
#10=SHAPE_REPRESENTATION_RELATIONSHIP('','',#956,#11);
#11=ADVANCED_BREP_SHAPE_REPRESENTATION('',(#954),#1528);
#12=CYLINDRICAL_SURFACE('',#977,0.075);
#13=CONICAL_SURFACE('',#971,0.00244071500867303,0.385924194997356);
#14=CONICAL_SURFACE('',#972,0.00255406592285411,0.385924194997348);
#15=SPHERICAL_SURFACE('',#968,0.0033);
#16=CIRCLE('',#959,0.075);
#17=CIRCLE('',#961,0.0033);
#18=CIRCLE('',#963,0.0033);
#19=CIRCLE('',#965,0.00255406592285411);
#20=CIRCLE('',#967,0.00255406592285411);
#21=CIRCLE('',#969,0.00244071500867303);
#22=CIRCLE('',#970,0.00244071500867303);
#23=CIRCLE('',#978,0.075);
#24=ORIENTED_EDGE('',*,*,#274,.F.);
#25=ORIENTED_EDGE('',*,*,#275,.F.);
#26=ORIENTED_EDGE('',*,*,#276,.F.);
#27=ORIENTED_EDGE('',*,*,#277,.F.);
#28=ORIENTED_EDGE('',*,*,#278,.F.);
#29=ORIENTED_EDGE('',*,*,#279,.F.);
#30=ORIENTED_EDGE('',*,*,#280,.F.);
#31=ORIENTED_EDGE('',*,*,#281,.F.);
#32=ORIENTED_EDGE('',*,*,#282,.F.);
#33=ORIENTED_EDGE('',*,*,#283,.F.);
#34=ORIENTED_EDGE('',*,*,#284,.F.);
#35=ORIENTED_EDGE('',*,*,#285,.F.);
#36=ORIENTED_EDGE('',*,*,#286,.F.);
#37=ORIENTED_EDGE('',*,*,#287,.T.);
#38=ORIENTED_EDGE('',*,*,#288,.T.);
#39=ORIENTED_EDGE('',*,*,#289,.T.);
#40=ORIENTED_EDGE('',*,*,#290,.F.);
#41=ORIENTED_EDGE('',*,*,#291,.F.);
#42=ORIENTED_EDGE('',*,*,#292,.F.);
#43=ORIENTED_EDGE('',*,*,#293,.F.);
#44=ORIENTED_EDGE('',*,*,#294,.F.);
#45=ORIENTED_EDGE('',*,*,#295,.F.);
#46=ORIENTED_EDGE('',*,*,#296,.F.);
#47=ORIENTED_EDGE('',*,*,#297,.F.);
#48=ORIENTED_EDGE('',*,*,#298,.F.);
#49=ORIENTED_EDGE('',*,*,#299,.F.);
#50=ORIENTED_EDGE('',*,*,#300,.F.);
#51=ORIENTED_EDGE('',*,*,#301,.F.);
#52=ORIENTED_EDGE('',*,*,#302,.F.);
#53=ORIENTED_EDGE('',*,*,#303,.F.);
#54=ORIENTED_EDGE('',*,*,#304,.F.);
#55=ORIENTED_EDGE('',*,*,#305,.F.);
#56=ORIENTED_EDGE('',*,*,#306,.F.);
#57=ORIENTED_EDGE('',*,*,#307,.F.);
#58=ORIENTED_EDGE('',*,*,#308,.F.);
#59=ORIENTED_EDGE('',*,*,#309,.F.);
#60=ORIENTED_EDGE('',*,*,#310,.F.);
#61=ORIENTED_EDGE('',*,*,#311,.F.);
#62=ORIENTED_EDGE('',*,*,#312,.F.);
#63=ORIENTED_EDGE('',*,*,#313,.F.);
#64=ORIENTED_EDGE('',*,*,#314,.F.);
#65=ORIENTED_EDGE('',*,*,#315,.F.);
#66=ORIENTED_EDGE('',*,*,#316,.F.);
#67=ORIENTED_EDGE('',*,*,#317,.F.);
#68=ORIENTED_EDGE('',*,*,#318,.F.);
#69=ORIENTED_EDGE('',*,*,#319,.F.);
#70=ORIENTED_EDGE('',*,*,#320,.T.);
#71=ORIENTED_EDGE('',*,*,#321,.T.);
#72=ORIENTED_EDGE('',*,*,#322,.T.);
#73=ORIENTED_EDGE('',*,*,#323,.F.);
#74=ORIENTED_EDGE('',*,*,#324,.T.);
#75=ORIENTED_EDGE('',*,*,#325,.F.);
#76=ORIENTED_EDGE('',*,*,#326,.T.);
#77=ORIENTED_EDGE('',*,*,#327,.T.);
#78=ORIENTED_EDGE('',*,*,#328,.T.);
#79=ORIENTED_EDGE('',*,*,#329,.T.);
#80=ORIENTED_EDGE('',*,*,#330,.F.);
#81=ORIENTED_EDGE('',*,*,#321,.F.);
#82=ORIENTED_EDGE('',*,*,#331,.T.);
#83=ORIENTED_EDGE('',*,*,#325,.T.);
#84=ORIENTED_EDGE('',*,*,#332,.F.);
#85=ORIENTED_EDGE('',*,*,#333,.T.);
#86=ORIENTED_EDGE('',*,*,#289,.F.);
#87=ORIENTED_EDGE('',*,*,#334,.F.);
#88=ORIENTED_EDGE('',*,*,#335,.F.);
#89=ORIENTED_EDGE('',*,*,#329,.F.);
#90=ORIENTED_EDGE('',*,*,#336,.T.);
#91=ORIENTED_EDGE('',*,*,#323,.T.);
#92=ORIENTED_EDGE('',*,*,#337,.F.);
#93=ORIENTED_EDGE('',*,*,#338,.F.);
#94=ORIENTED_EDGE('',*,*,#287,.F.);
#95=ORIENTED_EDGE('',*,*,#339,.T.);
#96=ORIENTED_EDGE('',*,*,#340,.F.);
#97=ORIENTED_EDGE('',*,*,#327,.F.);
#98=ORIENTED_EDGE('',*,*,#341,.T.);
#99=ORIENTED_EDGE('',*,*,#319,.T.);
#100=ORIENTED_EDGE('',*,*,#342,.T.);
#101=ORIENTED_EDGE('',*,*,#326,.F.);
#102=ORIENTED_EDGE('',*,*,#331,.F.);
#103=ORIENTED_EDGE('',*,*,#320,.F.);
#104=ORIENTED_EDGE('',*,*,#341,.F.);
#105=ORIENTED_EDGE('',*,*,#328,.F.);
#106=ORIENTED_EDGE('',*,*,#342,.F.);
#107=ORIENTED_EDGE('',*,*,#324,.F.);
#108=ORIENTED_EDGE('',*,*,#336,.F.);
#109=ORIENTED_EDGE('',*,*,#339,.F.);
#110=ORIENTED_EDGE('',*,*,#286,.T.);
#111=ORIENTED_EDGE('',*,*,#333,.F.);
#112=ORIENTED_EDGE('',*,*,#343,.F.);
#113=ORIENTED_EDGE('',*,*,#330,.T.);
#114=ORIENTED_EDGE('',*,*,#340,.T.);
#115=ORIENTED_EDGE('',*,*,#343,.T.);
#116=ORIENTED_EDGE('',*,*,#332,.T.);
#117=ORIENTED_EDGE('',*,*,#288,.F.);
#118=ORIENTED_EDGE('',*,*,#338,.T.);
#119=ORIENTED_EDGE('',*,*,#344,.T.);
#120=ORIENTED_EDGE('',*,*,#334,.T.);
#121=ORIENTED_EDGE('',*,*,#344,.F.);
#122=ORIENTED_EDGE('',*,*,#337,.T.);
#123=ORIENTED_EDGE('',*,*,#322,.F.);
#124=ORIENTED_EDGE('',*,*,#335,.T.);
#125=ORIENTED_EDGE('',*,*,#345,.F.);
#126=ORIENTED_EDGE('',*,*,#290,.T.);
#127=ORIENTED_EDGE('',*,*,#345,.T.);
#128=ORIENTED_EDGE('',*,*,#346,.T.);
#129=ORIENTED_EDGE('',*,*,#347,.F.);
#130=ORIENTED_EDGE('',*,*,#283,.T.);
#131=ORIENTED_EDGE('',*,*,#347,.T.);
#132=ORIENTED_EDGE('',*,*,#348,.F.);
#133=ORIENTED_EDGE('',*,*,#284,.T.);
#134=ORIENTED_EDGE('',*,*,#348,.T.);
#135=ORIENTED_EDGE('',*,*,#349,.F.);
#136=ORIENTED_EDGE('',*,*,#285,.T.);
#137=ORIENTED_EDGE('',*,*,#349,.T.);
#138=ORIENTED_EDGE('',*,*,#350,.F.);
#139=ORIENTED_EDGE('',*,*,#281,.T.);
#140=ORIENTED_EDGE('',*,*,#350,.T.);
#141=ORIENTED_EDGE('',*,*,#346,.F.);
#142=ORIENTED_EDGE('',*,*,#282,.T.);
#143=ORIENTED_EDGE('',*,*,#351,.T.);
#144=ORIENTED_EDGE('',*,*,#352,.F.);
#145=ORIENTED_EDGE('',*,*,#280,.T.);
#146=ORIENTED_EDGE('',*,*,#352,.T.);
#147=ORIENTED_EDGE('',*,*,#353,.F.);
#148=ORIENTED_EDGE('',*,*,#278,.T.);
#149=ORIENTED_EDGE('',*,*,#353,.T.);
#150=ORIENTED_EDGE('',*,*,#351,.F.);
#151=ORIENTED_EDGE('',*,*,#279,.T.);
#152=ORIENTED_EDGE('',*,*,#354,.T.);
#153=ORIENTED_EDGE('',*,*,#355,.F.);
#154=ORIENTED_EDGE('',*,*,#276,.T.);
#155=ORIENTED_EDGE('',*,*,#355,.T.);
#156=ORIENTED_EDGE('',*,*,#356,.F.);
#157=ORIENTED_EDGE('',*,*,#277,.T.);
#158=ORIENTED_EDGE('',*,*,#356,.T.);
#159=ORIENTED_EDGE('',*,*,#357,.F.);
#160=ORIENTED_EDGE('',*,*,#274,.T.);
#161=ORIENTED_EDGE('',*,*,#357,.T.);
#162=ORIENTED_EDGE('',*,*,#354,.F.);
#163=ORIENTED_EDGE('',*,*,#275,.T.);
#164=ORIENTED_EDGE('',*,*,#358,.F.);
#165=ORIENTED_EDGE('',*,*,#359,.F.);
#166=ORIENTED_EDGE('',*,*,#293,.T.);
#167=ORIENTED_EDGE('',*,*,#360,.T.);
#168=ORIENTED_EDGE('',*,*,#359,.T.);
#169=ORIENTED_EDGE('',*,*,#361,.F.);
#170=ORIENTED_EDGE('',*,*,#362,.F.);
#171=ORIENTED_EDGE('',*,*,#294,.T.);
#172=ORIENTED_EDGE('',*,*,#362,.T.);
#173=ORIENTED_EDGE('',*,*,#363,.F.);
#174=ORIENTED_EDGE('',*,*,#364,.F.);
#175=ORIENTED_EDGE('',*,*,#295,.T.);
#176=ORIENTED_EDGE('',*,*,#364,.T.);
#177=ORIENTED_EDGE('',*,*,#365,.F.);
#178=ORIENTED_EDGE('',*,*,#366,.F.);
#179=ORIENTED_EDGE('',*,*,#296,.T.);
#180=ORIENTED_EDGE('',*,*,#366,.T.);
#181=ORIENTED_EDGE('',*,*,#367,.F.);
#182=ORIENTED_EDGE('',*,*,#368,.F.);
#183=ORIENTED_EDGE('',*,*,#297,.T.);
#184=ORIENTED_EDGE('',*,*,#368,.T.);
#185=ORIENTED_EDGE('',*,*,#369,.F.);
#186=ORIENTED_EDGE('',*,*,#370,.F.);
#187=ORIENTED_EDGE('',*,*,#298,.T.);
#188=ORIENTED_EDGE('',*,*,#370,.T.);
#189=ORIENTED_EDGE('',*,*,#371,.F.);
#190=ORIENTED_EDGE('',*,*,#372,.F.);
#191=ORIENTED_EDGE('',*,*,#299,.T.);
#192=ORIENTED_EDGE('',*,*,#372,.T.);
#193=ORIENTED_EDGE('',*,*,#373,.F.);
#194=ORIENTED_EDGE('',*,*,#374,.F.);
#195=ORIENTED_EDGE('',*,*,#300,.T.);
#196=ORIENTED_EDGE('',*,*,#374,.T.);
#197=ORIENTED_EDGE('',*,*,#375,.F.);
#198=ORIENTED_EDGE('',*,*,#376,.F.);
#199=ORIENTED_EDGE('',*,*,#301,.T.);
#200=ORIENTED_EDGE('',*,*,#376,.T.);
#201=ORIENTED_EDGE('',*,*,#377,.F.);
#202=ORIENTED_EDGE('',*,*,#378,.F.);
#203=ORIENTED_EDGE('',*,*,#302,.T.);
#204=ORIENTED_EDGE('',*,*,#378,.T.);
#205=ORIENTED_EDGE('',*,*,#379,.F.);
#206=ORIENTED_EDGE('',*,*,#380,.F.);
#207=ORIENTED_EDGE('',*,*,#303,.T.);
#208=ORIENTED_EDGE('',*,*,#380,.T.);
#209=ORIENTED_EDGE('',*,*,#381,.F.);
#210=ORIENTED_EDGE('',*,*,#382,.F.);
#211=ORIENTED_EDGE('',*,*,#291,.T.);
#212=ORIENTED_EDGE('',*,*,#382,.T.);
#213=ORIENTED_EDGE('',*,*,#383,.F.);
#214=ORIENTED_EDGE('',*,*,#360,.F.);
#215=ORIENTED_EDGE('',*,*,#292,.T.);
#216=ORIENTED_EDGE('',*,*,#383,.T.);
#217=ORIENTED_EDGE('',*,*,#381,.T.);
#218=ORIENTED_EDGE('',*,*,#379,.T.);
#219=ORIENTED_EDGE('',*,*,#377,.T.);
#220=ORIENTED_EDGE('',*,*,#375,.T.);
#221=ORIENTED_EDGE('',*,*,#373,.T.);
#222=ORIENTED_EDGE('',*,*,#371,.T.);
#223=ORIENTED_EDGE('',*,*,#369,.T.);
#224=ORIENTED_EDGE('',*,*,#367,.T.);
#225=ORIENTED_EDGE('',*,*,#365,.T.);
#226=ORIENTED_EDGE('',*,*,#363,.T.);
#227=ORIENTED_EDGE('',*,*,#361,.T.);
#228=ORIENTED_EDGE('',*,*,#358,.T.);
#229=ORIENTED_EDGE('',*,*,#384,.T.);
#230=ORIENTED_EDGE('',*,*,#385,.F.);
#231=ORIENTED_EDGE('',*,*,#307,.T.);
#232=ORIENTED_EDGE('',*,*,#385,.T.);
#233=ORIENTED_EDGE('',*,*,#386,.F.);
#234=ORIENTED_EDGE('',*,*,#308,.T.);
#235=ORIENTED_EDGE('',*,*,#386,.T.);
#236=ORIENTED_EDGE('',*,*,#387,.F.);
#237=ORIENTED_EDGE('',*,*,#309,.T.);
#238=ORIENTED_EDGE('',*,*,#387,.T.);
#239=ORIENTED_EDGE('',*,*,#388,.F.);
#240=ORIENTED_EDGE('',*,*,#310,.T.);
#241=ORIENTED_EDGE('',*,*,#388,.T.);
#242=ORIENTED_EDGE('',*,*,#389,.F.);
#243=ORIENTED_EDGE('',*,*,#311,.T.);
#244=ORIENTED_EDGE('',*,*,#389,.T.);
#245=ORIENTED_EDGE('',*,*,#390,.F.);
#246=ORIENTED_EDGE('',*,*,#304,.T.);
#247=ORIENTED_EDGE('',*,*,#390,.T.);
#248=ORIENTED_EDGE('',*,*,#391,.F.);
#249=ORIENTED_EDGE('',*,*,#305,.T.);
#250=ORIENTED_EDGE('',*,*,#391,.T.);
#251=ORIENTED_EDGE('',*,*,#384,.F.);
#252=ORIENTED_EDGE('',*,*,#306,.T.);
#253=ORIENTED_EDGE('',*,*,#392,.T.);
#254=ORIENTED_EDGE('',*,*,#393,.F.);
#255=ORIENTED_EDGE('',*,*,#314,.T.);
#256=ORIENTED_EDGE('',*,*,#393,.T.);
#257=ORIENTED_EDGE('',*,*,#394,.F.);
#258=ORIENTED_EDGE('',*,*,#315,.T.);
#259=ORIENTED_EDGE('',*,*,#394,.T.);
#260=ORIENTED_EDGE('',*,*,#395,.F.);
#261=ORIENTED_EDGE('',*,*,#316,.T.);
#262=ORIENTED_EDGE('',*,*,#395,.T.);
#263=ORIENTED_EDGE('',*,*,#396,.F.);
#264=ORIENTED_EDGE('',*,*,#317,.T.);
#265=ORIENTED_EDGE('',*,*,#396,.T.);
#266=ORIENTED_EDGE('',*,*,#397,.F.);
#267=ORIENTED_EDGE('',*,*,#318,.T.);
#268=ORIENTED_EDGE('',*,*,#397,.T.);
#269=ORIENTED_EDGE('',*,*,#398,.F.);
#270=ORIENTED_EDGE('',*,*,#312,.T.);
#271=ORIENTED_EDGE('',*,*,#398,.T.);
#272=ORIENTED_EDGE('',*,*,#392,.F.);
#273=ORIENTED_EDGE('',*,*,#313,.T.);
#274=EDGE_CURVE('',#399,#400,#479,.F.);
#275=EDGE_CURVE('',#401,#399,#480,.F.);
#276=EDGE_CURVE('',#402,#401,#481,.F.);
#277=EDGE_CURVE('',#400,#402,#482,.F.);
#278=EDGE_CURVE('',#403,#404,#483,.T.);
#279=EDGE_CURVE('',#405,#403,#484,.T.);
#280=EDGE_CURVE('',#404,#405,#485,.T.);
#281=EDGE_CURVE('',#406,#407,#486,.F.);
#282=EDGE_CURVE('',#408,#406,#487,.F.);
#283=EDGE_CURVE('',#409,#408,#488,.F.);
#284=EDGE_CURVE('',#410,#409,#489,.F.);
#285=EDGE_CURVE('',#407,#410,#490,.F.);
#286=EDGE_CURVE('',#411,#412,#491,.T.);
#287=EDGE_CURVE('',#411,#413,#492,.T.);
#288=EDGE_CURVE('',#413,#414,#493,.T.);
#289=EDGE_CURVE('',#414,#412,#494,.T.);
#290=EDGE_CURVE('',#415,#415,#16,.T.);
#291=EDGE_CURVE('',#416,#417,#495,.T.);
#292=EDGE_CURVE('',#418,#416,#496,.T.);
#293=EDGE_CURVE('',#419,#418,#497,.T.);
#294=EDGE_CURVE('',#420,#419,#498,.T.);
#295=EDGE_CURVE('',#421,#420,#499,.T.);
#296=EDGE_CURVE('',#422,#421,#500,.T.);
#297=EDGE_CURVE('',#423,#422,#501,.T.);
#298=EDGE_CURVE('',#424,#423,#502,.T.);
#299=EDGE_CURVE('',#425,#424,#503,.T.);
#300=EDGE_CURVE('',#426,#425,#504,.T.);
#301=EDGE_CURVE('',#427,#426,#505,.T.);
#302=EDGE_CURVE('',#428,#427,#506,.T.);
#303=EDGE_CURVE('',#417,#428,#507,.T.);
#304=EDGE_CURVE('',#429,#430,#508,.F.);
#305=EDGE_CURVE('',#431,#429,#509,.F.);
#306=EDGE_CURVE('',#432,#431,#510,.F.);
#307=EDGE_CURVE('',#433,#432,#511,.F.);
#308=EDGE_CURVE('',#434,#433,#512,.F.);
#309=EDGE_CURVE('',#435,#434,#513,.F.);
#310=EDGE_CURVE('',#436,#435,#514,.F.);
#311=EDGE_CURVE('',#430,#436,#515,.F.);
#312=EDGE_CURVE('',#437,#438,#516,.T.);
#313=EDGE_CURVE('',#439,#437,#517,.T.);
#314=EDGE_CURVE('',#440,#439,#518,.T.);
#315=EDGE_CURVE('',#441,#440,#519,.T.);
#316=EDGE_CURVE('',#442,#441,#520,.T.);
#317=EDGE_CURVE('',#443,#442,#521,.T.);
#318=EDGE_CURVE('',#438,#443,#522,.T.);
#319=EDGE_CURVE('',#444,#445,#17,.T.);
#320=EDGE_CURVE('',#444,#446,#523,.F.);
#321=EDGE_CURVE('',#446,#447,#524,.T.);
#322=EDGE_CURVE('',#447,#448,#525,.T.);
#323=EDGE_CURVE('',#449,#448,#526,.T.);
#324=EDGE_CURVE('',#449,#445,#527,.F.);
#325=EDGE_CURVE('',#450,#451,#528,.T.);
#326=EDGE_CURVE('',#450,#452,#529,.T.);
#327=EDGE_CURVE('',#452,#453,#18,.T.);
#328=EDGE_CURVE('',#453,#454,#530,.T.);
#329=EDGE_CURVE('',#454,#455,#531,.T.);
#330=EDGE_CURVE('',#451,#455,#532,.T.);
#331=EDGE_CURVE('',#446,#450,#19,.F.);
#332=EDGE_CURVE('',#456,#451,#533,.T.);
#333=EDGE_CURVE('',#456,#412,#534,.T.);
#334=EDGE_CURVE('',#457,#414,#535,.T.);
#335=EDGE_CURVE('',#447,#457,#536,.T.);
#336=EDGE_CURVE('',#454,#449,#20,.T.);
#337=EDGE_CURVE('',#458,#448,#537,.T.);
#338=EDGE_CURVE('',#413,#458,#538,.T.);
#339=EDGE_CURVE('',#411,#459,#539,.T.);
#340=EDGE_CURVE('',#455,#459,#540,.T.);
#341=EDGE_CURVE('',#452,#444,#21,.F.);
#342=EDGE_CURVE('',#445,#453,#22,.F.);
#343=EDGE_CURVE('',#459,#456,#541,.T.);
#344=EDGE_CURVE('',#458,#457,#542,.T.);
#345=EDGE_CURVE('',#460,#460,#23,.T.);
#346=EDGE_CURVE('',#408,#461,#543,.T.);
#347=EDGE_CURVE('',#409,#461,#544,.T.);
#348=EDGE_CURVE('',#410,#461,#545,.T.);
#349=EDGE_CURVE('',#407,#461,#546,.T.);
#350=EDGE_CURVE('',#406,#461,#547,.T.);
#351=EDGE_CURVE('',#405,#462,#548,.T.);
#352=EDGE_CURVE('',#404,#462,#549,.T.);
#353=EDGE_CURVE('',#403,#462,#550,.T.);
#354=EDGE_CURVE('',#401,#463,#551,.T.);
#355=EDGE_CURVE('',#402,#463,#552,.T.);
#356=EDGE_CURVE('',#400,#463,#553,.T.);
#357=EDGE_CURVE('',#399,#463,#554,.T.);
#358=EDGE_CURVE('',#464,#465,#555,.T.);
#359=EDGE_CURVE('',#419,#464,#556,.T.);
#360=EDGE_CURVE('',#418,#465,#557,.T.);
#361=EDGE_CURVE('',#466,#464,#558,.T.);
#362=EDGE_CURVE('',#420,#466,#559,.T.);
#363=EDGE_CURVE('',#467,#466,#560,.T.);
#364=EDGE_CURVE('',#421,#467,#561,.T.);
#365=EDGE_CURVE('',#468,#467,#562,.T.);
#366=EDGE_CURVE('',#422,#468,#563,.T.);
#367=EDGE_CURVE('',#469,#468,#564,.T.);
#368=EDGE_CURVE('',#423,#469,#565,.T.);
#369=EDGE_CURVE('',#470,#469,#566,.T.);
#370=EDGE_CURVE('',#424,#470,#567,.T.);
#371=EDGE_CURVE('',#471,#470,#568,.T.);
#372=EDGE_CURVE('',#425,#471,#569,.T.);
#373=EDGE_CURVE('',#472,#471,#570,.T.);
#374=EDGE_CURVE('',#426,#472,#571,.T.);
#375=EDGE_CURVE('',#473,#472,#572,.T.);
#376=EDGE_CURVE('',#427,#473,#573,.T.);
#377=EDGE_CURVE('',#474,#473,#574,.T.);
#378=EDGE_CURVE('',#428,#474,#575,.T.);
#379=EDGE_CURVE('',#475,#474,#576,.T.);
#380=EDGE_CURVE('',#417,#475,#577,.T.);
#381=EDGE_CURVE('',#476,#475,#578,.T.);
#382=EDGE_CURVE('',#416,#476,#579,.T.);
#383=EDGE_CURVE('',#465,#476,#580,.T.);
#384=EDGE_CURVE('',#432,#477,#581,.T.);
#385=EDGE_CURVE('',#433,#477,#582,.T.);
#386=EDGE_CURVE('',#434,#477,#583,.T.);
#387=EDGE_CURVE('',#435,#477,#584,.T.);
#388=EDGE_CURVE('',#436,#477,#585,.T.);
#389=EDGE_CURVE('',#430,#477,#586,.T.);
#390=EDGE_CURVE('',#429,#477,#587,.T.);
#391=EDGE_CURVE('',#431,#477,#588,.T.);
#392=EDGE_CURVE('',#439,#478,#589,.T.);
#393=EDGE_CURVE('',#440,#478,#590,.T.);
#394=EDGE_CURVE('',#441,#478,#591,.T.);
#395=EDGE_CURVE('',#442,#478,#592,.T.);
#396=EDGE_CURVE('',#443,#478,#593,.T.);
#397=EDGE_CURVE('',#438,#478,#594,.T.);
#398=EDGE_CURVE('',#437,#478,#595,.T.);
#399=VERTEX_POINT('',#1269);
#400=VERTEX_POINT('',#1270);
#401=VERTEX_POINT('',#1272);
#402=VERTEX_POINT('',#1274);
#403=VERTEX_POINT('',#1277);
#404=VERTEX_POINT('',#1278);
#405=VERTEX_POINT('',#1280);
#406=VERTEX_POINT('',#1283);
#407=VERTEX_POINT('',#1284);
#408=VERTEX_POINT('',#1286);
#409=VERTEX_POINT('',#1288);
#410=VERTEX_POINT('',#1290);
#411=VERTEX_POINT('',#1293);
#412=VERTEX_POINT('',#1294);
#413=VERTEX_POINT('',#1296);
#414=VERTEX_POINT('',#1298);
#415=VERTEX_POINT('',#1301);
#416=VERTEX_POINT('',#1303);
#417=VERTEX_POINT('',#1304);
#418=VERTEX_POINT('',#1306);
#419=VERTEX_POINT('',#1308);
#420=VERTEX_POINT('',#1310);
#421=VERTEX_POINT('',#1312);
#422=VERTEX_POINT('',#1314);
#423=VERTEX_POINT('',#1316);
#424=VERTEX_POINT('',#1318);
#425=VERTEX_POINT('',#1320);
#426=VERTEX_POINT('',#1322);
#427=VERTEX_POINT('',#1324);
#428=VERTEX_POINT('',#1326);
#429=VERTEX_POINT('',#1329);
#430=VERTEX_POINT('',#1330);
#431=VERTEX_POINT('',#1332);
#432=VERTEX_POINT('',#1334);
#433=VERTEX_POINT('',#1336);
#434=VERTEX_POINT('',#1338);
#435=VERTEX_POINT('',#1340);
#436=VERTEX_POINT('',#1342);
#437=VERTEX_POINT('',#1345);
#438=VERTEX_POINT('',#1346);
#439=VERTEX_POINT('',#1348);
#440=VERTEX_POINT('',#1350);
#441=VERTEX_POINT('',#1352);
#442=VERTEX_POINT('',#1354);
#443=VERTEX_POINT('',#1356);
#444=VERTEX_POINT('',#1360);
#445=VERTEX_POINT('',#1361);
#446=VERTEX_POINT('',#1363);
#447=VERTEX_POINT('',#1365);
#448=VERTEX_POINT('',#1367);
#449=VERTEX_POINT('',#1369);
#450=VERTEX_POINT('',#1373);
#451=VERTEX_POINT('',#1374);
#452=VERTEX_POINT('',#1376);
#453=VERTEX_POINT('',#1378);
#454=VERTEX_POINT('',#1380);
#455=VERTEX_POINT('',#1382);
#456=VERTEX_POINT('',#1387);
#457=VERTEX_POINT('',#1390);
#458=VERTEX_POINT('',#1395);
#459=VERTEX_POINT('',#1398);
#460=VERTEX_POINT('',#1413);
#461=VERTEX_POINT('',#1417);
#462=VERTEX_POINT('',#1428);
#463=VERTEX_POINT('',#1435);
#464=VERTEX_POINT('',#1444);
#465=VERTEX_POINT('',#1445);
#466=VERTEX_POINT('',#1450);
#467=VERTEX_POINT('',#1454);
#468=VERTEX_POINT('',#1458);
#469=VERTEX_POINT('',#1462);
#470=VERTEX_POINT('',#1466);
#471=VERTEX_POINT('',#1470);
#472=VERTEX_POINT('',#1474);
#473=VERTEX_POINT('',#1478);
#474=VERTEX_POINT('',#1482);
#475=VERTEX_POINT('',#1486);
#476=VERTEX_POINT('',#1490);
#477=VERTEX_POINT('',#1497);
#478=VERTEX_POINT('',#1514);
#479=LINE('',#1268,#596);
#480=LINE('',#1271,#597);
#481=LINE('',#1273,#598);
#482=LINE('',#1275,#599);
#483=LINE('',#1276,#600);
#484=LINE('',#1279,#601);
#485=LINE('',#1281,#602);
#486=LINE('',#1282,#603);
#487=LINE('',#1285,#604);
#488=LINE('',#1287,#605);
#489=LINE('',#1289,#606);
#490=LINE('',#1291,#607);
#491=LINE('',#1292,#608);
#492=LINE('',#1295,#609);
#493=LINE('',#1297,#610);
#494=LINE('',#1299,#611);
#495=LINE('',#1302,#612);
#496=LINE('',#1305,#613);
#497=LINE('',#1307,#614);
#498=LINE('',#1309,#615);
#499=LINE('',#1311,#616);
#500=LINE('',#1313,#617);
#501=LINE('',#1315,#618);
#502=LINE('',#1317,#619);
#503=LINE('',#1319,#620);
#504=LINE('',#1321,#621);
#505=LINE('',#1323,#622);
#506=LINE('',#1325,#623);
#507=LINE('',#1327,#624);
#508=LINE('',#1328,#625);
#509=LINE('',#1331,#626);
#510=LINE('',#1333,#627);
#511=LINE('',#1335,#628);
#512=LINE('',#1337,#629);
#513=LINE('',#1339,#630);
#514=LINE('',#1341,#631);
#515=LINE('',#1343,#632);
#516=LINE('',#1344,#633);
#517=LINE('',#1347,#634);
#518=LINE('',#1349,#635);
#519=LINE('',#1351,#636);
#520=LINE('',#1353,#637);
#521=LINE('',#1355,#638);
#522=LINE('',#1357,#639);
#523=LINE('',#1362,#640);
#524=LINE('',#1364,#641);
#525=LINE('',#1366,#642);
#526=LINE('',#1368,#643);
#527=LINE('',#1370,#644);
#528=LINE('',#1372,#645);
#529=LINE('',#1375,#646);
#530=LINE('',#1379,#647);
#531=LINE('',#1381,#648);
#532=LINE('',#1383,#649);
#533=LINE('',#1386,#650);
#534=LINE('',#1388,#651);
#535=LINE('',#1389,#652);
#536=LINE('',#1391,#653);
#537=LINE('',#1394,#654);
#538=LINE('',#1396,#655);
#539=LINE('',#1397,#656);
#540=LINE('',#1399,#657);
#541=LINE('',#1406,#658);
#542=LINE('',#1409,#659);
#543=LINE('',#1416,#660);
#544=LINE('',#1418,#661);
#545=LINE('',#1420,#662);
#546=LINE('',#1422,#663);
#547=LINE('',#1424,#664);
#548=LINE('',#1427,#665);
#549=LINE('',#1429,#666);
#550=LINE('',#1431,#667);
#551=LINE('',#1434,#668);
#552=LINE('',#1436,#669);
#553=LINE('',#1438,#670);
#554=LINE('',#1440,#671);
#555=LINE('',#1443,#672);
#556=LINE('',#1446,#673);
#557=LINE('',#1447,#674);
#558=LINE('',#1449,#675);
#559=LINE('',#1451,#676);
#560=LINE('',#1453,#677);
#561=LINE('',#1455,#678);
#562=LINE('',#1457,#679);
#563=LINE('',#1459,#680);
#564=LINE('',#1461,#681);
#565=LINE('',#1463,#682);
#566=LINE('',#1465,#683);
#567=LINE('',#1467,#684);
#568=LINE('',#1469,#685);
#569=LINE('',#1471,#686);
#570=LINE('',#1473,#687);
#571=LINE('',#1475,#688);
#572=LINE('',#1477,#689);
#573=LINE('',#1479,#690);
#574=LINE('',#1481,#691);
#575=LINE('',#1483,#692);
#576=LINE('',#1485,#693);
#577=LINE('',#1487,#694);
#578=LINE('',#1489,#695);
#579=LINE('',#1491,#696);
#580=LINE('',#1493,#697);
#581=LINE('',#1496,#698);
#582=LINE('',#1498,#699);
#583=LINE('',#1500,#700);
#584=LINE('',#1502,#701);
#585=LINE('',#1504,#702);
#586=LINE('',#1506,#703);
#587=LINE('',#1508,#704);
#588=LINE('',#1510,#705);
#589=LINE('',#1513,#706);
#590=LINE('',#1515,#707);
#591=LINE('',#1517,#708);
#592=LINE('',#1519,#709);
#593=LINE('',#1521,#710);
#594=LINE('',#1523,#711);
#595=LINE('',#1525,#712);
#596=VECTOR('',#1025,1.);
#597=VECTOR('',#1026,1.);
#598=VECTOR('',#1027,1.);
#599=VECTOR('',#1028,1.);
#600=VECTOR('',#1029,1.);
#601=VECTOR('',#1030,1.);
#602=VECTOR('',#1031,1.);
#603=VECTOR('',#1032,1.);
#604=VECTOR('',#1033,1.);
#605=VECTOR('',#1034,1.);
#606=VECTOR('',#1035,1.);
#607=VECTOR('',#1036,1.);
#608=VECTOR('',#1037,1.);
#609=VECTOR('',#1038,1.);
#610=VECTOR('',#1039,1.);
#611=VECTOR('',#1040,1.);
#612=VECTOR('',#1043,1.);
#613=VECTOR('',#1044,1.);
#614=VECTOR('',#1045,1.);
#615=VECTOR('',#1046,1.);
#616=VECTOR('',#1047,1.);
#617=VECTOR('',#1048,1.);
#618=VECTOR('',#1049,1.);
#619=VECTOR('',#1050,1.);
#620=VECTOR('',#1051,1.);
#621=VECTOR('',#1052,1.);
#622=VECTOR('',#1053,1.);
#623=VECTOR('',#1054,1.);
#624=VECTOR('',#1055,1.);
#625=VECTOR('',#1056,1.);
#626=VECTOR('',#1057,1.);
#627=VECTOR('',#1058,1.);
#628=VECTOR('',#1059,1.);
#629=VECTOR('',#1060,1.);
#630=VECTOR('',#1061,1.);
#631=VECTOR('',#1062,1.);
#632=VECTOR('',#1063,1.);
#633=VECTOR('',#1064,1.);
#634=VECTOR('',#1065,1.);
#635=VECTOR('',#1066,1.);
#636=VECTOR('',#1067,1.);
#637=VECTOR('',#1068,1.);
#638=VECTOR('',#1069,1.);
#639=VECTOR('',#1070,1.);
#640=VECTOR('',#1075,1.);
#641=VECTOR('',#1076,1.);
#642=VECTOR('',#1077,1.);
#643=VECTOR('',#1078,1.);
#644=VECTOR('',#1079,1.);
#645=VECTOR('',#1082,1.);
#646=VECTOR('',#1083,1.);
#647=VECTOR('',#1086,1.);
#648=VECTOR('',#1087,1.);
#649=VECTOR('',#1088,1.);
#650=VECTOR('',#1093,1.);
#651=VECTOR('',#1094,1.);
#652=VECTOR('',#1095,1.);
#653=VECTOR('',#1096,1.);
#654=VECTOR('',#1101,1.);
#655=VECTOR('',#1102,1.);
#656=VECTOR('',#1103,1.);
#657=VECTOR('',#1104,1.);
#658=VECTOR('',#1117,1.);
#659=VECTOR('',#1122,1.);
#660=VECTOR('',#1133,1.);
#661=VECTOR('',#1134,1.);
#662=VECTOR('',#1137,1.);
#663=VECTOR('',#1140,1.);
#664=VECTOR('',#1143,1.);
#665=VECTOR('',#1148,1.);
#666=VECTOR('',#1149,1.);
#667=VECTOR('',#1152,1.);
#668=VECTOR('',#1157,1.);
#669=VECTOR('',#1158,1.);
#670=VECTOR('',#1161,1.);
#671=VECTOR('',#1164,1.);
#672=VECTOR('',#1169,1.);
#673=VECTOR('',#1170,1.);
#674=VECTOR('',#1171,1.);
#675=VECTOR('',#1174,1.);
#676=VECTOR('',#1175,1.);
#677=VECTOR('',#1178,1.);
#678=VECTOR('',#1179,1.);
#679=VECTOR('',#1182,1.);
#680=VECTOR('',#1183,1.);
#681=VECTOR('',#1186,1.);
#682=VECTOR('',#1187,1.);
#683=VECTOR('',#1190,1.);
#684=VECTOR('',#1191,1.);
#685=VECTOR('',#1194,1.);
#686=VECTOR('',#1195,1.);
#687=VECTOR('',#1198,1.);
#688=VECTOR('',#1199,1.);
#689=VECTOR('',#1202,1.);
#690=VECTOR('',#1203,1.);
#691=VECTOR('',#1206,1.);
#692=VECTOR('',#1207,1.);
#693=VECTOR('',#1210,1.);
#694=VECTOR('',#1211,1.);
#695=VECTOR('',#1214,1.);
#696=VECTOR('',#1215,1.);
#697=VECTOR('',#1218,1.);
#698=VECTOR('',#1223,1.);
#699=VECTOR('',#1224,1.);
#700=VECTOR('',#1227,1.);
#701=VECTOR('',#1230,1.);
#702=VECTOR('',#1233,1.);
#703=VECTOR('',#1236,1.);
#704=VECTOR('',#1239,1.);
#705=VECTOR('',#1242,1.);
#706=VECTOR('',#1247,1.);
#707=VECTOR('',#1248,1.);
#708=VECTOR('',#1251,1.);
#709=VECTOR('',#1254,1.);
#710=VECTOR('',#1257,1.);
#711=VECTOR('',#1260,1.);
#712=VECTOR('',#1263,1.);
#713=EDGE_LOOP('',(#24,#25,#26,#27));
#714=EDGE_LOOP('',(#28,#29,#30));
#715=EDGE_LOOP('',(#31,#32,#33,#34,#35));
#716=EDGE_LOOP('',(#36,#37,#38,#39));
#717=EDGE_LOOP('',(#40));
#718=EDGE_LOOP('',(#41,#42,#43,#44,#45,#46,#47,#48,#49,#50,#51,#52,#53));
#719=EDGE_LOOP('',(#54,#55,#56,#57,#58,#59,#60,#61));
#720=EDGE_LOOP('',(#62,#63,#64,#65,#66,#67,#68));
#721=EDGE_LOOP('',(#69,#70,#71,#72,#73,#74));
#722=EDGE_LOOP('',(#75,#76,#77,#78,#79,#80));
#723=EDGE_LOOP('',(#81,#82,#83,#84,#85,#86,#87,#88));
#724=EDGE_LOOP('',(#89,#90,#91,#92,#93,#94,#95,#96));
#725=EDGE_LOOP('',(#97,#98,#99,#100));
#726=EDGE_LOOP('',(#101,#102,#103,#104));
#727=EDGE_LOOP('',(#105,#106,#107,#108));
#728=EDGE_LOOP('',(#109,#110,#111,#112));
#729=EDGE_LOOP('',(#113,#114,#115,#116));
#730=EDGE_LOOP('',(#117,#118,#119,#120));
#731=EDGE_LOOP('',(#121,#122,#123,#124));
#732=EDGE_LOOP('',(#125));
#733=EDGE_LOOP('',(#126));
#734=EDGE_LOOP('',(#127));
#735=EDGE_LOOP('',(#128,#129,#130));
#736=EDGE_LOOP('',(#131,#132,#133));
#737=EDGE_LOOP('',(#134,#135,#136));
#738=EDGE_LOOP('',(#137,#138,#139));
#739=EDGE_LOOP('',(#140,#141,#142));
#740=EDGE_LOOP('',(#143,#144,#145));
#741=EDGE_LOOP('',(#146,#147,#148));
#742=EDGE_LOOP('',(#149,#150,#151));
#743=EDGE_LOOP('',(#152,#153,#154));
#744=EDGE_LOOP('',(#155,#156,#157));
#745=EDGE_LOOP('',(#158,#159,#160));
#746=EDGE_LOOP('',(#161,#162,#163));
#747=EDGE_LOOP('',(#164,#165,#166,#167));
#748=EDGE_LOOP('',(#168,#169,#170,#171));
#749=EDGE_LOOP('',(#172,#173,#174,#175));
#750=EDGE_LOOP('',(#176,#177,#178,#179));
#751=EDGE_LOOP('',(#180,#181,#182,#183));
#752=EDGE_LOOP('',(#184,#185,#186,#187));
#753=EDGE_LOOP('',(#188,#189,#190,#191));
#754=EDGE_LOOP('',(#192,#193,#194,#195));
#755=EDGE_LOOP('',(#196,#197,#198,#199));
#756=EDGE_LOOP('',(#200,#201,#202,#203));
#757=EDGE_LOOP('',(#204,#205,#206,#207));
#758=EDGE_LOOP('',(#208,#209,#210,#211));
#759=EDGE_LOOP('',(#212,#213,#214,#215));
#760=EDGE_LOOP('',(#216,#217,#218,#219,#220,#221,#222,#223,#224,#225,#226,
#227,#228));
#761=EDGE_LOOP('',(#229,#230,#231));
#762=EDGE_LOOP('',(#232,#233,#234));
#763=EDGE_LOOP('',(#235,#236,#237));
#764=EDGE_LOOP('',(#238,#239,#240));
#765=EDGE_LOOP('',(#241,#242,#243));
#766=EDGE_LOOP('',(#244,#245,#246));
#767=EDGE_LOOP('',(#247,#248,#249));
#768=EDGE_LOOP('',(#250,#251,#252));
#769=EDGE_LOOP('',(#253,#254,#255));
#770=EDGE_LOOP('',(#256,#257,#258));
#771=EDGE_LOOP('',(#259,#260,#261));
#772=EDGE_LOOP('',(#262,#263,#264));
#773=EDGE_LOOP('',(#265,#266,#267));
#774=EDGE_LOOP('',(#268,#269,#270));
#775=EDGE_LOOP('',(#271,#272,#273));
#776=FACE_BOUND('',#713,.T.);
#777=FACE_BOUND('',#714,.T.);
#778=FACE_BOUND('',#715,.T.);
#779=FACE_BOUND('',#716,.T.);
#780=FACE_BOUND('',#717,.T.);
#781=FACE_BOUND('',#718,.T.);
#782=FACE_BOUND('',#719,.T.);
#783=FACE_BOUND('',#720,.T.);
#784=FACE_BOUND('',#721,.T.);
#785=FACE_BOUND('',#722,.T.);
#786=FACE_BOUND('',#723,.T.);
#787=FACE_BOUND('',#724,.T.);
#788=FACE_BOUND('',#725,.T.);
#789=FACE_BOUND('',#726,.T.);
#790=FACE_BOUND('',#727,.T.);
#791=FACE_BOUND('',#728,.T.);
#792=FACE_BOUND('',#729,.T.);
#793=FACE_BOUND('',#730,.T.);
#794=FACE_BOUND('',#731,.T.);
#795=FACE_BOUND('',#732,.T.);
#796=FACE_BOUND('',#733,.T.);
#797=FACE_BOUND('',#734,.T.);
#798=FACE_BOUND('',#735,.T.);
#799=FACE_BOUND('',#736,.T.);
#800=FACE_BOUND('',#737,.T.);
#801=FACE_BOUND('',#738,.T.);
#802=FACE_BOUND('',#739,.T.);
#803=FACE_BOUND('',#740,.T.);
#804=FACE_BOUND('',#741,.T.);
#805=FACE_BOUND('',#742,.T.);
#806=FACE_BOUND('',#743,.T.);
#807=FACE_BOUND('',#744,.T.);
#808=FACE_BOUND('',#745,.T.);
#809=FACE_BOUND('',#746,.T.);
#810=FACE_BOUND('',#747,.T.);
#811=FACE_BOUND('',#748,.T.);
#812=FACE_BOUND('',#749,.T.);
#813=FACE_BOUND('',#750,.T.);
#814=FACE_BOUND('',#751,.T.);
#815=FACE_BOUND('',#752,.T.);
#816=FACE_BOUND('',#753,.T.);
#817=FACE_BOUND('',#754,.T.);
#818=FACE_BOUND('',#755,.T.);
#819=FACE_BOUND('',#756,.T.);
#820=FACE_BOUND('',#757,.T.);
#821=FACE_BOUND('',#758,.T.);
#822=FACE_BOUND('',#759,.T.);
#823=FACE_BOUND('',#760,.T.);
#824=FACE_BOUND('',#761,.T.);
#825=FACE_BOUND('',#762,.T.);
#826=FACE_BOUND('',#763,.T.);
#827=FACE_BOUND('',#764,.T.);
#828=FACE_BOUND('',#765,.T.);
#829=FACE_BOUND('',#766,.T.);
#830=FACE_BOUND('',#767,.T.);
#831=FACE_BOUND('',#768,.T.);
#832=FACE_BOUND('',#769,.T.);
#833=FACE_BOUND('',#770,.T.);
#834=FACE_BOUND('',#771,.T.);
#835=FACE_BOUND('',#772,.T.);
#836=FACE_BOUND('',#773,.T.);
#837=FACE_BOUND('',#774,.T.);
#838=FACE_BOUND('',#775,.T.);
#839=PLANE('',#958);
#840=PLANE('',#960);
#841=PLANE('',#962);
#842=PLANE('',#964);
#843=PLANE('',#966);
#844=PLANE('',#973);
#845=PLANE('',#974);
#846=PLANE('',#975);
#847=PLANE('',#976);
#848=PLANE('',#979);
#849=PLANE('',#980);
#850=PLANE('',#981);
#851=PLANE('',#982);
#852=PLANE('',#983);
#853=PLANE('',#984);
#854=PLANE('',#985);
#855=PLANE('',#986);
#856=PLANE('',#987);
#857=PLANE('',#988);
#858=PLANE('',#989);
#859=PLANE('',#990);
#860=PLANE('',#991);
#861=PLANE('',#992);
#862=PLANE('',#993);
#863=PLANE('',#994);
#864=PLANE('',#995);
#865=PLANE('',#996);
#866=PLANE('',#997);
#867=PLANE('',#998);
#868=PLANE('',#999);
#869=PLANE('',#1000);
#870=PLANE('',#1001);
#871=PLANE('',#1002);
#872=PLANE('',#1003);
#873=PLANE('',#1004);
#874=PLANE('',#1005);
#875=PLANE('',#1006);
#876=PLANE('',#1007);
#877=PLANE('',#1008);
#878=PLANE('',#1009);
#879=PLANE('',#1010);
#880=PLANE('',#1011);
#881=PLANE('',#1012);
#882=PLANE('',#1013);
#883=PLANE('',#1014);
#884=PLANE('',#1015);
#885=PLANE('',#1016);
#886=PLANE('',#1017);
#887=PLANE('',#1018);
#888=PLANE('',#1019);
#889=PLANE('',#1020);
#890=ADVANCED_FACE('',(#776,#777,#778,#779,#780,#781,#782,#783),#839,.F.);
#891=ADVANCED_FACE('',(#784),#840,.T.);
#892=ADVANCED_FACE('',(#785),#841,.F.);
#893=ADVANCED_FACE('',(#786),#842,.T.);
#894=ADVANCED_FACE('',(#787),#843,.F.);
#895=ADVANCED_FACE('',(#788),#15,.F.);
#896=ADVANCED_FACE('',(#789),#13,.F.);
#897=ADVANCED_FACE('',(#790),#14,.F.);
#898=ADVANCED_FACE('',(#791),#844,.T.);
#899=ADVANCED_FACE('',(#792),#845,.F.);
#900=ADVANCED_FACE('',(#793),#846,.F.);
#901=ADVANCED_FACE('',(#794),#847,.F.);
#902=ADVANCED_FACE('',(#795,#796),#12,.T.);
#903=ADVANCED_FACE('',(#797),#848,.T.);
#904=ADVANCED_FACE('',(#798),#849,.F.);
#905=ADVANCED_FACE('',(#799),#850,.F.);
#906=ADVANCED_FACE('',(#800),#851,.F.);
#907=ADVANCED_FACE('',(#801),#852,.F.);
#908=ADVANCED_FACE('',(#802),#853,.F.);
#909=ADVANCED_FACE('',(#803),#854,.T.);
#910=ADVANCED_FACE('',(#804),#855,.T.);
#911=ADVANCED_FACE('',(#805),#856,.T.);
#912=ADVANCED_FACE('',(#806),#857,.F.);
#913=ADVANCED_FACE('',(#807),#858,.F.);
#914=ADVANCED_FACE('',(#808),#859,.F.);
#915=ADVANCED_FACE('',(#809),#860,.F.);
#916=ADVANCED_FACE('',(#810),#861,.T.);
#917=ADVANCED_FACE('',(#811),#862,.T.);
#918=ADVANCED_FACE('',(#812),#863,.T.);
#919=ADVANCED_FACE('',(#813),#864,.T.);
#920=ADVANCED_FACE('',(#814),#865,.T.);
#921=ADVANCED_FACE('',(#815),#866,.T.);
#922=ADVANCED_FACE('',(#816),#867,.T.);
#923=ADVANCED_FACE('',(#817),#868,.T.);
#924=ADVANCED_FACE('',(#818),#869,.T.);
#925=ADVANCED_FACE('',(#819),#870,.T.);
#926=ADVANCED_FACE('',(#820),#871,.T.);
#927=ADVANCED_FACE('',(#821),#872,.T.);
#928=ADVANCED_FACE('',(#822),#873,.T.);
#929=ADVANCED_FACE('',(#823),#874,.T.);
#930=ADVANCED_FACE('',(#824),#875,.F.);
#931=ADVANCED_FACE('',(#825),#876,.F.);
#932=ADVANCED_FACE('',(#826),#877,.F.);
#933=ADVANCED_FACE('',(#827),#878,.F.);
#934=ADVANCED_FACE('',(#828),#879,.F.);
#935=ADVANCED_FACE('',(#829),#880,.F.);
#936=ADVANCED_FACE('',(#830),#881,.F.);
#937=ADVANCED_FACE('',(#831),#882,.F.);
#938=ADVANCED_FACE('',(#832),#883,.T.);
#939=ADVANCED_FACE('',(#833),#884,.T.);
#940=ADVANCED_FACE('',(#834),#885,.T.);
#941=ADVANCED_FACE('',(#835),#886,.T.);
#942=ADVANCED_FACE('',(#836),#887,.T.);
#943=ADVANCED_FACE('',(#837),#888,.T.);
#944=ADVANCED_FACE('',(#838),#889,.T.);
#945=CLOSED_SHELL('',(#890,#891,#892,#893,#894,#895,#896,#897,#898,#899,
#900,#901,#902,#903,#904,#905,#906,#907,#908,#909,#910,#911,#912,#913,#914,
#915,#916,#917,#918,#919,#920,#921,#922,#923,#924,#925,#926,#927,#928,#929,
#930,#931,#932,#933,#934,#935,#936,#937,#938,#939,#940,#941,#942,#943,#944));
#946=STYLED_ITEM('',(#947),#954);
#947=PRESENTATION_STYLE_ASSIGNMENT((#948));
#948=SURFACE_STYLE_USAGE(.BOTH.,#949);
#949=SURFACE_SIDE_STYLE('',(#950));
#950=SURFACE_STYLE_FILL_AREA(#951);
#951=FILL_AREA_STYLE('',(#952));
#952=FILL_AREA_STYLE_COLOUR('',#953);
#953=COLOUR_RGB('',0.262745098039216,0.282352941176471,0.301960784313725);
#954=MANIFOLD_SOLID_BREP('Base',#945);
#955=SHAPE_DEFINITION_REPRESENTATION(#1533,#956);
#956=SHAPE_REPRESENTATION('Base',(#957),#1528);
#957=AXIS2_PLACEMENT_3D('',#1266,#1021,#1022);
#958=AXIS2_PLACEMENT_3D('',#1267,#1023,#1024);
#959=AXIS2_PLACEMENT_3D('',#1300,#1041,#1042);
#960=AXIS2_PLACEMENT_3D('',#1358,#1071,#1072);
#961=AXIS2_PLACEMENT_3D('',#1359,#1073,#1074);
#962=AXIS2_PLACEMENT_3D('',#1371,#1080,#1081);
#963=AXIS2_PLACEMENT_3D('',#1377,#1084,#1085);
#964=AXIS2_PLACEMENT_3D('',#1384,#1089,#1090);
#965=AXIS2_PLACEMENT_3D('',#1385,#1091,#1092);
#966=AXIS2_PLACEMENT_3D('',#1392,#1097,#1098);
#967=AXIS2_PLACEMENT_3D('',#1393,#1099,#1100);
#968=AXIS2_PLACEMENT_3D('',#1400,#1105,#1106);
#969=AXIS2_PLACEMENT_3D('',#1401,#1107,#1108);
#970=AXIS2_PLACEMENT_3D('',#1402,#1109,#1110);
#971=AXIS2_PLACEMENT_3D('',#1403,#1111,#1112);
#972=AXIS2_PLACEMENT_3D('',#1404,#1113,#1114);
#973=AXIS2_PLACEMENT_3D('',#1405,#1115,#1116);
#974=AXIS2_PLACEMENT_3D('',#1407,#1118,#1119);
#975=AXIS2_PLACEMENT_3D('',#1408,#1120,#1121);
#976=AXIS2_PLACEMENT_3D('',#1410,#1123,#1124);
#977=AXIS2_PLACEMENT_3D('',#1411,#1125,#1126);
#978=AXIS2_PLACEMENT_3D('',#1412,#1127,#1128);
#979=AXIS2_PLACEMENT_3D('',#1414,#1129,#1130);
#980=AXIS2_PLACEMENT_3D('',#1415,#1131,#1132);
#981=AXIS2_PLACEMENT_3D('',#1419,#1135,#1136);
#982=AXIS2_PLACEMENT_3D('',#1421,#1138,#1139);
#983=AXIS2_PLACEMENT_3D('',#1423,#1141,#1142);
#984=AXIS2_PLACEMENT_3D('',#1425,#1144,#1145);
#985=AXIS2_PLACEMENT_3D('',#1426,#1146,#1147);
#986=AXIS2_PLACEMENT_3D('',#1430,#1150,#1151);
#987=AXIS2_PLACEMENT_3D('',#1432,#1153,#1154);
#988=AXIS2_PLACEMENT_3D('',#1433,#1155,#1156);
#989=AXIS2_PLACEMENT_3D('',#1437,#1159,#1160);
#990=AXIS2_PLACEMENT_3D('',#1439,#1162,#1163);
#991=AXIS2_PLACEMENT_3D('',#1441,#1165,#1166);
#992=AXIS2_PLACEMENT_3D('',#1442,#1167,#1168);
#993=AXIS2_PLACEMENT_3D('',#1448,#1172,#1173);
#994=AXIS2_PLACEMENT_3D('',#1452,#1176,#1177);
#995=AXIS2_PLACEMENT_3D('',#1456,#1180,#1181);
#996=AXIS2_PLACEMENT_3D('',#1460,#1184,#1185);
#997=AXIS2_PLACEMENT_3D('',#1464,#1188,#1189);
#998=AXIS2_PLACEMENT_3D('',#1468,#1192,#1193);
#999=AXIS2_PLACEMENT_3D('',#1472,#1196,#1197);
#1000=AXIS2_PLACEMENT_3D('',#1476,#1200,#1201);
#1001=AXIS2_PLACEMENT_3D('',#1480,#1204,#1205);
#1002=AXIS2_PLACEMENT_3D('',#1484,#1208,#1209);
#1003=AXIS2_PLACEMENT_3D('',#1488,#1212,#1213);
#1004=AXIS2_PLACEMENT_3D('',#1492,#1216,#1217);
#1005=AXIS2_PLACEMENT_3D('',#1494,#1219,#1220);
#1006=AXIS2_PLACEMENT_3D('',#1495,#1221,#1222);
#1007=AXIS2_PLACEMENT_3D('',#1499,#1225,#1226);
#1008=AXIS2_PLACEMENT_3D('',#1501,#1228,#1229);
#1009=AXIS2_PLACEMENT_3D('',#1503,#1231,#1232);
#1010=AXIS2_PLACEMENT_3D('',#1505,#1234,#1235);
#1011=AXIS2_PLACEMENT_3D('',#1507,#1237,#1238);
#1012=AXIS2_PLACEMENT_3D('',#1509,#1240,#1241);
#1013=AXIS2_PLACEMENT_3D('',#1511,#1243,#1244);
#1014=AXIS2_PLACEMENT_3D('',#1512,#1245,#1246);
#1015=AXIS2_PLACEMENT_3D('',#1516,#1249,#1250);
#1016=AXIS2_PLACEMENT_3D('',#1518,#1252,#1253);
#1017=AXIS2_PLACEMENT_3D('',#1520,#1255,#1256);
#1018=AXIS2_PLACEMENT_3D('',#1522,#1258,#1259);
#1019=AXIS2_PLACEMENT_3D('',#1524,#1261,#1262);
#1020=AXIS2_PLACEMENT_3D('',#1526,#1264,#1265);
#1021=DIRECTION('',(0.,0.,1.));
#1022=DIRECTION('',(1.,0.,0.));
#1023=DIRECTION('',(0.,0.,-1.));
#1024=DIRECTION('',(1.,0.,0.));
#1025=DIRECTION('',(-0.930624320408442,0.365975920334008,0.));
#1026=DIRECTION('',(0.543741376113569,0.83925283192976,0.));
#1027=DIRECTION('',(0.97230242921988,-0.233726306035758,0.));
#1028=DIRECTION('',(-0.601576593870169,-0.798815123609691,0.));
#1029=DIRECTION('',(0.715782216697297,0.698323577047133,0.));
#1030=DIRECTION('',(0.822192434873494,-0.569209627498337,0.));
#1031=DIRECTION('',(-0.972806244050629,-0.231620403971905,0.));
#1032=DIRECTION('',(-0.425797504712482,-0.904818481785504,0.));
#1033=DIRECTION('',(-0.707106781186548,0.707106781186548,0.));
#1034=DIRECTION('',(0.482605076172581,0.875838078900694,0.));
#1035=DIRECTION('',(0.995495456621937,0.0948092603340072,0.));
#1036=DIRECTION('',(-0.699624427637699,-0.714510783860274,0.));
#1037=DIRECTION('',(0.,-1.,0.));
#1038=DIRECTION('',(1.,0.,0.));
#1039=DIRECTION('',(0.,-1.,0.));
#1040=DIRECTION('',(-1.,0.,0.));
#1041=DIRECTION('',(0.,0.,-1.));
#1042=DIRECTION('',(-1.,0.,0.));
#1043=DIRECTION('',(0.624695315264499,-0.780868595274896,0.));
#1044=DIRECTION('',(-0.68965506348609,-0.724138034775137,0.));
#1045=DIRECTION('',(-0.989949467156372,-0.14142154177075,0.));
#1046=DIRECTION('',(-0.707106016624868,-0.707107545747401,0.));
#1047=DIRECTION('',(-0.184288952123097,-0.982872108733059,0.));
#1048=DIRECTION('',(-0.853281866594204,-0.521449955548479,0.));
#1049=DIRECTION('',(-0.999614426370305,-0.0277668614064787,0.));
#1050=DIRECTION('',(-0.529999832864824,0.847997745965907,0.));
#1051=DIRECTION('',(0.667544588010128,0.744569824139005,0.));
#1052=DIRECTION('',(0.616309208980522,0.787504259623911,0.));
#1053=DIRECTION('',(0.,1.,0.));
#1054=DIRECTION('',(0.974007997633913,0.226513621102962,0.));
#1055=DIRECTION('',(0.874157233188588,-0.485643008457933,0.));
#1056=DIRECTION('',(-0.752576169100885,0.658505208560598,0.));
#1057=DIRECTION('',(-0.24253615980648,0.970142366452639,0.));
#1058=DIRECTION('',(-0.944496531942896,0.328521386134665,0.));
#1059=DIRECTION('',(-0.616308443336367,0.787504858824569,0.));
#1060=DIRECTION('',(0.652939665642599,0.757409924037526,0.));
#1061=DIRECTION('',(0.91706995155664,0.398726352216533,0.));
#1062=DIRECTION('',(0.794670899290397,-0.607040494383194,0.));
#1063=DIRECTION('',(-0.791052990808772,-0.611747632388141,0.));
#1064=DIRECTION('',(0.944496890151906,0.328520356284629,0.));
#1065=DIRECTION('',(0.57463037961841,-0.818413053915688,0.));
#1066=DIRECTION('',(-0.422885434339483,-0.90618315445803,0.));
#1067=DIRECTION('',(-0.902860574676712,-0.429933463101487,0.));
#1068=DIRECTION('',(-0.718602372879829,0.695421188698964,0.));
#1069=DIRECTION('',(0.592390297873943,0.805651124857914,0.));
#1070=DIRECTION('',(-0.29827513637196,0.954479933273764,0.));
#1071=DIRECTION('',(-0.559192903470747,0.,0.829037572555042));
#1072=DIRECTION('',(0.829037572555042,0.,0.559192903470747));
#1073=DIRECTION('',(-0.559192903470747,0.,0.829037572555042));
#1074=DIRECTION('',(0.829037572555042,0.,0.559192903470747));
#1075=DIRECTION('',(-0.312062607904421,0.926450947041095,-0.21048888681959));
#1076=DIRECTION('',(0.829037572555042,0.,0.559192903470747));
#1077=DIRECTION('',(0.,1.,0.));
#1078=DIRECTION('',(0.829037572555042,0.,0.559192903470747));
#1079=DIRECTION('',(0.312062607904415,0.926450947041098,0.210488886819587));
#1080=DIRECTION('',(-0.559192903470747,0.,-0.829037572555042));
#1081=DIRECTION('',(-0.829037572555042,0.,0.559192903470747));
#1082=DIRECTION('',(-0.829037572555042,0.,0.559192903470747));
#1083=DIRECTION('',(0.312062607904421,0.926450947041095,-0.21048888681959));
#1084=DIRECTION('',(-0.559192903470747,0.,-0.829037572555042));
#1085=DIRECTION('',(-0.829037572555042,0.,0.559192903470747));
#1086=DIRECTION('',(-0.312062607904415,0.926450947041098,0.210488886819587));
#1087=DIRECTION('',(-0.829037572555042,0.,0.559192903470747));
#1088=DIRECTION('',(0.,1.,0.));
#1089=DIRECTION('',(0.,-1.,0.));
#1090=DIRECTION('',(1.,0.,0.));
#1091=DIRECTION('',(0.,-1.,0.));
#1092=DIRECTION('',(0.,0.,-1.));
#1093=DIRECTION('',(1.,0.,0.));
#1094=DIRECTION('',(0.,0.,-1.));
#1095=DIRECTION('',(0.,0.,-1.));
#1096=DIRECTION('',(1.,0.,0.));
#1097=DIRECTION('',(0.,-1.,0.));
#1098=DIRECTION('',(1.,0.,0.));
#1099=DIRECTION('',(0.,-1.,0.));
#1100=DIRECTION('',(0.,0.,-1.));
#1101=DIRECTION('',(-1.,0.,0.));
#1102=DIRECTION('',(0.,0.,1.));
#1103=DIRECTION('',(0.,0.,1.));
#1104=DIRECTION('',(-1.,0.,0.));
#1105=DIRECTION('',(-8.18265790555098E-17,0.,1.));
#1106=DIRECTION('',(1.,0.,8.18265790555098E-17));
#1107=DIRECTION('',(0.,1.,0.));
#1108=DIRECTION('',(0.,0.,1.));
#1109=DIRECTION('',(0.,-1.,0.));
#1110=DIRECTION('',(0.,0.,-1.));
#1111=DIRECTION('',(0.,-1.,0.));
#1112=DIRECTION('',(0.,0.,-1.));
#1113=DIRECTION('',(0.,1.,0.));
#1114=DIRECTION('',(0.,0.,1.));
#1115=DIRECTION('',(-1.,0.,0.));
#1116=DIRECTION('',(0.,0.,1.));
#1117=DIRECTION('',(0.,-1.,0.));
#1118=DIRECTION('',(0.,0.,-1.));
#1119=DIRECTION('',(-1.,0.,0.));
#1120=DIRECTION('',(-1.,0.,0.));
#1121=DIRECTION('',(0.,0.,1.));
#1122=DIRECTION('',(0.,-1.,0.));
#1123=DIRECTION('',(0.,0.,-1.));
#1124=DIRECTION('',(-1.,0.,0.));
#1125=DIRECTION('',(0.,0.,1.));
#1126=DIRECTION('',(1.,0.,0.));
#1127=DIRECTION('',(0.,0.,-1.));
#1128=DIRECTION('',(-1.,0.,0.));
#1129=DIRECTION('',(0.,0.,-1.));
#1130=DIRECTION('',(1.,0.,0.));
#1131=DIRECTION('',(0.728801447113367,-0.401584820724281,-0.554597225425181));
#1132=DIRECTION('',(-0.605573272870125,0.,-0.795789552071002));
#1133=DIRECTION('',(0.666437443256132,0.230077057089178,0.709172533328394));
#1134=DIRECTION('',(0.158537182805763,-0.688981136995407,0.707227653964781));
#1135=DIRECTION('',(0.0673404483505311,-0.707073445607215,-0.703926421249473));
#1136=DIRECTION('',(0.,0.705527930364517,-0.70868211454471));
#1137=DIRECTION('',(-0.691188031486603,-0.541864525542204,0.478165181802896));
#1138=DIRECTION('',(-0.694781213353876,0.680305909590286,-0.233372952475324));
#1139=DIRECTION('',(-0.699624427637699,-0.714510783860273,0.));
#1140=DIRECTION('',(-0.194205696111522,0.134971530761583,0.971631017146794));
#1141=DIRECTION('',(-0.879834002285514,0.414040086797406,-0.233372952475324));
#1142=DIRECTION('',(-0.425797504712482,-0.904818481785504,0.));
#1143=DIRECTION('',(0.153529883452197,0.712287755557726,0.684890303749215));
#1144=DIRECTION('',(0.527183561028859,0.527183561028859,-0.666449537445906));
#1145=DIRECTION('',(-0.78428763262738,0.,-0.620397380158668));
#1146=DIRECTION('',(-0.206073680283965,0.8655099441889,0.45653715599538));
#1147=DIRECTION('',(0.,-0.46655098340686,0.884494307433401));
#1148=DIRECTION('',(0.842934422798747,-0.0799427145393734,0.532043909140044));
#1149=DIRECTION('',(-0.843777323181067,-0.393441846811979,0.36502512524835));
#1150=DIRECTION('',(0.53399595107345,-0.547346270597043,0.64440700205745));
#1151=DIRECTION('',(0.,-0.762172542375132,-0.647373938036918));
#1152=DIRECTION('',(-0.0953359182414339,0.718331637096601,0.689137665375489));
#1153=DIRECTION('',(-0.449197957415453,-0.648842086474884,0.614186569270856));
#1154=DIRECTION('',(0.,-0.687446155580094,-0.726235349716708));
#1155=DIRECTION('',(-0.186084048637716,-0.774110435398922,-0.605083267533558));
#1156=DIRECTION('',(0.,0.615839627234508,-0.787871533644707));
#1157=DIRECTION('',(0.693315363259752,-0.539819827238788,0.477397487622089));
#1158=DIRECTION('',(-0.763157336889333,-0.274005607037684,0.585245082391891));
#1159=DIRECTION('',(-0.635986401511809,0.478952540908777,-0.605083267533558));
#1160=DIRECTION('',(-0.689285882041339,0.,0.724489456664825));
#1161=DIRECTION('',(0.15801680329336,0.848302261890001,0.505384964506519));
#1162=DIRECTION('',(0.187478579764199,0.476731162326103,-0.858824301587235));
#1163=DIRECTION('',(0.,0.874327268185736,0.485336819236774));
#1164=DIRECTION('',(0.905675133428295,0.254585878949863,0.339025932531665));
#1165=DIRECTION('',(0.401821204759831,-0.260334915195149,-0.877932486775431));
#1166=DIRECTION('',(-0.909286151106221,0.,-0.416171473561602));
#1167=DIRECTION('',(-0.133061748419166,0.931430992033583,0.338719468272743));
#1168=DIRECTION('',(0.,-0.341758470202229,0.939787820757979));
#1169=DIRECTION('',(-0.989949467156372,-0.14142154177075,0.));
#1170=DIRECTION('',(0.158665987560479,-0.317331471884653,0.934946972476502));
#1171=DIRECTION('',(0.163112971311987,-0.316518115038893,0.934457297816225));
#1172=DIRECTION('',(-0.665308588631119,0.665307149898976,0.338719468272743));
#1173=DIRECTION('',(-0.707106016624868,-0.707107545747401,0.));
#1174=DIRECTION('',(-0.707106016624868,-0.707107545747401,0.));
#1175=DIRECTION('',(0.311899077596486,-0.16451397375675,0.935763922062197));
#1176=DIRECTION('',(-0.924771994583806,0.173395155199101,0.338719468272743));
#1177=DIRECTION('',(0.34392919274784,0.,0.938995585919241));
#1178=DIRECTION('',(-0.184288952123096,-0.98287210873306,0.));
#1179=DIRECTION('',(0.301753624845098,-0.20812747683188,0.930391156063104));
#1180=DIRECTION('',(-0.490625699095071,0.802842167054337,0.338719468272742));
#1181=DIRECTION('',(-0.853281866594205,-0.521449955548479,0.));
#1182=DIRECTION('',(-0.853281866594204,-0.52144995554848,0.));
#1183=DIRECTION('',(0.0992151014005211,-0.334722623044157,0.93707904110407));
#1184=DIRECTION('',(-0.0261254903644594,0.940524630494198,0.338719468272743));
#1185=DIRECTION('',(0.,-0.33883512248428,0.940845768322876));
#1186=DIRECTION('',(-0.999614426370305,-0.027766861406479,0.));
#1187=DIRECTION('',(-0.181076703632008,-0.337682368592577,0.923678431784283));
#1188=DIRECTION('',(0.797870404472376,0.498670171035042,0.338719468272743));
#1189=DIRECTION('',(-0.529999832864824,0.847997745965907,0.));
#1190=DIRECTION('',(-0.529999832864824,0.847997745965907,0.));
#1191=DIRECTION('',(-0.409162471754967,0.0353379994975512,0.911776999873805));
#1192=DIRECTION('',(0.700556374789701,-0.628084299719824,0.338719468272743));
#1193=DIRECTION('',(0.667544588010128,0.744569824139005,0.));
#1194=DIRECTION('',(0.667544588010128,0.744569824139005,0.));
#1195=DIRECTION('',(-0.259745177967926,0.21766234186609,0.94082705501903));
#1196=DIRECTION('',(0.740952844673139,-0.579877576548546,0.338719468272742));
#1197=DIRECTION('',(0.616309208980522,0.787504259623911,0.));
#1198=DIRECTION('',(0.616309208980522,0.787504259623911,0.));
#1199=DIRECTION('',(-0.33643292912908,0.115997884374366,0.93453591424744));
#1200=DIRECTION('',(0.940887411868726,0.,0.338719468272743));
#1201=DIRECTION('',(0.338719468272743,0.,-0.940887411868727));
#1202=DIRECTION('',(0.,1.,0.));
#1203=DIRECTION('',(-0.327092914171265,0.259753425392615,0.90859142825351));
#1204=DIRECTION('',(0.213123814712579,-0.916431864033213,0.338719468272743));
#1205=DIRECTION('',(0.,-0.346684475075867,-0.937981809387245));
#1206=DIRECTION('',(0.974007997633913,0.226513621102961,0.));
#1207=DIRECTION('',(0.0499784114189457,0.356456530149195,0.932974222851861));
#1208=DIRECTION('',(-0.456935393320127,-0.822483536701138,0.338719468272743));
#1209=DIRECTION('',(0.874157233188588,-0.485643008457933,0.));
#1210=DIRECTION('',(0.874157233188588,-0.485643008457934,0.));
#1211=DIRECTION('',(0.22232347340548,0.263108607700559,0.938800369475213));
#1212=DIRECTION('',(-0.734709431617765,-0.587767958385732,0.338719468272742));
#1213=DIRECTION('',(0.624695315264499,-0.780868595274896,0.));
#1214=DIRECTION('',(0.624695315264498,-0.780868595274896,0.));
#1215=DIRECTION('',(0.43083210477557,-0.0185957619675532,0.902240486307004));
#1216=DIRECTION('',(-0.681332361375284,0.64888776776559,0.338719468272743));
#1217=DIRECTION('',(-0.68965506348609,-0.724138034775137,0.));
#1218=DIRECTION('',(-0.68965506348609,-0.724138034775137,0.));
#1219=DIRECTION('',(0.,0.,1.));
#1220=DIRECTION('',(1.,0.,0.));
#1221=DIRECTION('',(0.524469116954148,0.410454286631921,-0.745962079429523));
#1222=DIRECTION('',(-0.818047459814722,0.,-0.575150722411683));
#1223=DIRECTION('',(0.748099243077267,0.196189596328128,0.633922049466515));
#1224=DIRECTION('',(0.84608199121866,-0.153207042664993,0.510561324635262));
#1225=DIRECTION('',(0.429789404299109,-0.370508150254826,-0.823410455694464));
#1226=DIRECTION('',(-0.886503613815457,0.,-0.462721668708237));
#1227=DIRECTION('',(0.562066622506288,-0.60391918410704,0.565121872636213));
#1228=DIRECTION('',(0.23434113916191,-0.538984233031663,-0.809061324647006));
#1229=DIRECTION('',(0.,0.832235395876101,-0.554422443494985));
#1230=DIRECTION('',(-0.118234118149444,-0.84185886762695,0.526587447916576));
#1231=DIRECTION('',(-0.351712372166367,-0.460423299050252,-0.8150514051008));
#1232=DIRECTION('',(0.,0.870680843422463,-0.491848420651269));
#1233=DIRECTION('',(-0.90379297907444,-0.0597774079803657,0.42377460102146));
#1234=DIRECTION('',(-0.392962919571803,0.508141717836663,-0.766402073611241));
#1235=DIRECTION('',(0.,0.833449485874564,0.552595651896959));
#1236=DIRECTION('',(-0.0841481174248219,0.810081198320132,0.580247831932251));
#1237=DIRECTION('',(0.476184620357789,0.544210118181087,-0.690712353012479));
#1238=DIRECTION('',(0.,0.785484758225406,0.618881001966918));
#1239=DIRECTION('',(0.352009127301193,0.601831509094162,0.716860104175212));
#1240=DIRECTION('',(0.802236433600135,0.200559578254148,-0.562310021407279));
#1241=DIRECTION('',(-0.573972272895395,0.,-0.81887473397785));
#1242=DIRECTION('',(0.451413170593936,0.412610415832191,0.791188216647035));
#1243=DIRECTION('',(0.271663040691372,0.781029213376339,-0.56231002140728));
#1244=DIRECTION('',(0.,0.584283503244408,0.81154962130263));
#1245=DIRECTION('',(-0.659342991280643,0.307693368470494,0.685996800902435));
#1246=DIRECTION('',(0.72097446574293,0.,0.692961629346601));
#1247=DIRECTION('',(0.719384473313851,0.523385258499943,0.456676965414177));
#1248=DIRECTION('',(0.713248253810035,-0.0325901369168161,0.700153419910721));
#1249=DIRECTION('',(-0.387594930163175,0.813949625750112,0.432731067584772));
#1250=DIRECTION('',(0.,-0.46942621093965,0.882971705369341));
#1251=DIRECTION('',(-0.0815147289646872,-0.497850182711459,0.863423734058765));
#1252=DIRECTION('',(0.626938236264111,0.647836608302579,0.432731067584772));
#1253=DIRECTION('',(-0.718602372879829,0.695421188698964,0.));
#1254=DIRECTION('',(-0.666855250412378,0.159056394173919,0.72801451803507));
#1255=DIRECTION('',(0.608602326657634,-0.447501533171786,0.655244676281934));
#1256=DIRECTION('',(0.732703804004631,0.,-0.680547673272889));
#1257=DIRECTION('',(-0.166465508704541,0.735404731641141,0.656863087021611));
#1258=DIRECTION('',(0.950461605905845,0.297019408407578,-0.0916635517972895));
#1259=DIRECTION('',(-0.29827513637196,0.954479933273764,0.));
#1260=DIRECTION('',(-0.228668983431237,0.867856844512357,0.441061212814706));
#1261=DIRECTION('',(0.145245077457298,-0.417579980491179,0.896956424452944));
#1262=DIRECTION('',(0.,-0.906569956779751,-0.422055581013164));
#1263=DIRECTION('',(0.260922509455357,0.890643328316404,0.372389454449233));
#1264=DIRECTION('',(-0.373792248743206,-0.262449848235015,0.889606335375886));
#1265=DIRECTION('',(0.921923789020498,0.,0.387371304097359));
#1266=CARTESIAN_POINT('',(0.,0.,0.));
#1267=CARTESIAN_POINT('',(-0.00249999999999935,0.,-0.0591));
#1268=CARTESIAN_POINT('',(0.0105125515256077,0.0520832780748606,-0.0591));
#1269=CARTESIAN_POINT('',(0.00461570778861642,0.0544022619724274,-0.0591));
#1270=CARTESIAN_POINT('',(0.016409395262599,0.0497642941772938,-0.0591));
#1271=CARTESIAN_POINT('',(0.00766351423226297,0.0591064840555191,-0.0591));
#1272=CARTESIAN_POINT('',(0.0107113206759095,0.0638107061386108,-0.0591));
#1273=CARTESIAN_POINT('',(0.0176020138897002,0.0621542911976576,-0.0591));
#1274=CARTESIAN_POINT('',(0.0244927071034909,0.0604978762567043,-0.0591));
#1275=CARTESIAN_POINT('',(0.0204510511830449,0.0551310852169991,-0.0591));
#1276=CARTESIAN_POINT('',(-0.00558781858126167,0.0631481409072876,-0.0591));
#1277=CARTESIAN_POINT('',(-0.011020865291357,0.0578476116061211,-0.0591));
#1278=CARTESIAN_POINT('',(-0.000154771871166301,0.0684486702084541,-0.0591));
#1279=CARTESIAN_POINT('',(-0.0153275486081838,0.060829158872366,-0.0591));
#1280=CARTESIAN_POINT('',(-0.0196342319250107,0.0638107061386108,-0.0591));
#1281=CARTESIAN_POINT('',(-0.00989450189808849,0.0661296881735325,-0.0591));
#1282=CARTESIAN_POINT('',(-0.0397762563079595,0.0546672884374857,-0.0591));
#1283=CARTESIAN_POINT('',(-0.040836364030838,0.0524145625531673,-0.0591));
#1284=CARTESIAN_POINT('',(-0.0387161485850811,0.0569200143218041,-0.0591));
#1285=CARTESIAN_POINT('',(-0.0426252949982881,0.0542034935206175,-0.0591));
#1286=CARTESIAN_POINT('',(-0.0444142259657383,0.0559924244880676,-0.0591));
#1287=CARTESIAN_POINT('',(-0.0426252949982881,0.059239000082016,-0.0591));
#1288=CARTESIAN_POINT('',(-0.040836364030838,0.0624855756759644,-0.0591));
#1289=CARTESIAN_POINT('',(-0.036662194877863,0.0628831163048744,-0.0591));
#1290=CARTESIAN_POINT('',(-0.0324880257248878,0.0632806569337845,-0.0591));
#1291=CARTESIAN_POINT('',(-0.0356020871549845,0.0601003356277943,-0.0591));
#1292=CARTESIAN_POINT('',(-0.00779999999999934,0.002502,-0.0591));
#1293=CARTESIAN_POINT('',(-0.00779999999999934,0.0025,-0.0591));
#1294=CARTESIAN_POINT('',(-0.00779999999999934,-0.0025,-0.0591));
#1295=CARTESIAN_POINT('',(-0.00514999999999934,0.0025,-0.0591));
#1296=CARTESIAN_POINT('',(0.00280000000000063,0.0025,-0.0591));
#1297=CARTESIAN_POINT('',(0.00280000000000063,0.002502,-0.0591));
#1298=CARTESIAN_POINT('',(0.00280000000000063,-0.0025,-0.0591));
#1299=CARTESIAN_POINT('',(-0.00514999999999934,-0.0025,-0.0591));
#1300=CARTESIAN_POINT('',(-0.00249999999999935,-6.32714897277938E-18,-0.0591));
#1301=CARTESIAN_POINT('',(-0.0774999999999993,-6.32714897277938E-18,-0.0591));
#1302=CARTESIAN_POINT('',(0.0203847950324416,-0.0568426791578531,-0.0591));
#1303=CARTESIAN_POINT('',(0.0195897147059441,-0.0558488294482231,-0.0591));
#1304=CARTESIAN_POINT('',(0.0211798753589392,-0.0578365288674831,-0.0591));
#1305=CARTESIAN_POINT('',(0.0209148479625582,-0.054457439109683,-0.0591));
#1306=CARTESIAN_POINT('',(0.0222399812191725,-0.053066048771143,-0.0591));
#1307=CARTESIAN_POINT('',(0.0236313715577126,-0.0528672784566879,-0.0591));
#1308=CARTESIAN_POINT('',(0.0250227618962527,-0.0526685081422329,-0.0591));
#1309=CARTESIAN_POINT('',(0.0258840974420309,-0.0518071707338095,-0.0591));
#1310=CARTESIAN_POINT('',(0.0267454329878092,-0.0509458333253861,-0.0591));
#1311=CARTESIAN_POINT('',(0.0269442033022642,-0.0498857274651527,-0.0591));
#1312=CARTESIAN_POINT('',(0.0271429736167192,-0.0488256216049194,-0.0591));
#1313=CARTESIAN_POINT('',(0.0283355936408043,-0.0480967983603478,-0.0591));
#1314=CARTESIAN_POINT('',(0.0295282136648893,-0.0473679751157761,-0.0591));
#1315=CARTESIAN_POINT('',(0.0319134527817369,-0.0473017189651728,-0.0591));
#1316=CARTESIAN_POINT('',(0.0342986918985844,-0.0472354628145695,-0.0591));
#1317=CARTESIAN_POINT('',(0.0352925434708595,-0.0488256216049194,-0.0591));
#1318=CARTESIAN_POINT('',(0.0362863950431347,-0.0504157803952694,-0.0591));
#1319=CARTESIAN_POINT('',(0.034563722088933,-0.0523372255265713,-0.0591));
#1320=CARTESIAN_POINT('',(0.0328410491347313,-0.0542586706578732,-0.0591));
#1321=CARTESIAN_POINT('',(0.0316484281793237,-0.0557825714349747,-0.0591));
#1322=CARTESIAN_POINT('',(0.0304558072239161,-0.0573064722120762,-0.0591));
#1323=CARTESIAN_POINT('',(0.0304558072239161,-0.0579027831554413,-0.0591));
#1324=CARTESIAN_POINT('',(0.0304558072239161,-0.0584990940988064,-0.0591));
#1325=CARTESIAN_POINT('',(0.0276067703962326,-0.0591616611927748,-0.0591));
#1326=CARTESIAN_POINT('',(0.0247577335685491,-0.0598242282867432,-0.0591));
#1327=CARTESIAN_POINT('',(0.0229688044637441,-0.0588303785771132,-0.0591));
#1328=CARTESIAN_POINT('',(-0.00598535849712789,-0.0650585032999516,-0.0591));
#1329=CARTESIAN_POINT('',(-0.00757551845163107,-0.0636671110987663,-0.0591));
#1330=CARTESIAN_POINT('',(-0.00439519854262471,-0.0664498955011368,-0.0591));
#1331=CARTESIAN_POINT('',(-0.00777428830042481,-0.0628720335662365,-0.0591));
#1332=CARTESIAN_POINT('',(-0.00797305814921856,-0.0620769560337067,-0.0591));
#1333=CARTESIAN_POINT('',(-0.0094969617202878,-0.0615469012409449,-0.0591));
#1334=CARTESIAN_POINT('',(-0.011020865291357,-0.0610168464481831,-0.0591));
#1335=CARTESIAN_POINT('',(-0.0122134853154421,-0.0594929438084364,-0.0591));
#1336=CARTESIAN_POINT('',(-0.0134061053395271,-0.0579690411686897,-0.0591));
#1337=CARTESIAN_POINT('',(-0.0117496885359287,-0.056047597900033,-0.0591));
#1338=CARTESIAN_POINT('',(-0.0100932717323303,-0.0541261546313763,-0.0591));
#1339=CARTESIAN_POINT('',(-0.00704546528868377,-0.0528010204434395,-0.0591));
#1340=CARTESIAN_POINT('',(-0.00399765884503723,-0.0514758862555027,-0.0591));
#1341=CARTESIAN_POINT('',(0.000772821251302958,-0.0551200043410063,-0.0591));
#1342=CARTESIAN_POINT('',(0.00554330134764314,-0.0587641224265099,-0.0591));
#1343=CARTESIAN_POINT('',(0.000574051402509213,-0.0626070089638233,-0.0591));
#1344=CARTESIAN_POINT('',(-0.0338131580501795,-0.0610168501734734,-0.0591));
#1345=CARTESIAN_POINT('',(-0.0368609651923179,-0.0620769560337067,-0.0591));
#1346=CARTESIAN_POINT('',(-0.030765350908041,-0.0599567443132401,-0.0591));
#1347=CARTESIAN_POINT('',(-0.039047434926033,-0.0589628927409649,-0.0591));
#1348=CARTESIAN_POINT('',(-0.0412339046597481,-0.0558488294482231,-0.0591));
#1349=CARTESIAN_POINT('',(-0.039842514321208,-0.0528672784566879,-0.0591));
#1350=CARTESIAN_POINT('',(-0.038451123982668,-0.0498857274651527,-0.0591));
#1351=CARTESIAN_POINT('',(-0.0356683451682329,-0.0485605951398611,-0.0591));
#1352=CARTESIAN_POINT('',(-0.0328855663537979,-0.0472354628145695,-0.0591));
#1353=CARTESIAN_POINT('',(-0.0308316089212895,-0.0492231622338295,-0.0591));
#1354=CARTESIAN_POINT('',(-0.028777651488781,-0.0512108616530895,-0.0591));
#1355=CARTESIAN_POINT('',(-0.0304340682923794,-0.053463589400053,-0.0591));
#1356=CARTESIAN_POINT('',(-0.0320904850959778,-0.0557163171470165,-0.0591));
#1357=CARTESIAN_POINT('',(-0.0314279180020094,-0.0578365307301283,-0.0591));
#1358=CARTESIAN_POINT('',(-0.00113208800528352,-0.0025,-0.0528773317092733));
#1359=CARTESIAN_POINT('',(-0.00249999999999935,-1.87249624088088E-18,-0.0538));
#1360=CARTESIAN_POINT('',(-0.000476555553910402,-0.00222101558896782,-0.0524351694877555));
#1361=CARTESIAN_POINT('',(-0.0004765555539104,0.00222101558896782,-0.0524351694877555));
#1362=CARTESIAN_POINT('',(-0.00249999999999935,0.00378618288941672,-0.0538));
#1363=CARTESIAN_POINT('',(-0.000382583387170831,-0.0025,-0.0523717844609435));
#1364=CARTESIAN_POINT('',(-0.00113208800528352,-0.0025,-0.0528773317092733));
#1365=CARTESIAN_POINT('',(0.00189389913454238,-0.0025,-0.050836277611605));
#1366=CARTESIAN_POINT('',(0.00189389913454238,-0.0025,-0.050836277611605));
#1367=CARTESIAN_POINT('',(0.00189389913454238,0.0025,-0.050836277611605));
#1368=CARTESIAN_POINT('',(-0.00113208800528352,0.0025,-0.0528773317092733));
#1369=CARTESIAN_POINT('',(-0.000382583387170831,0.0025,-0.0523717844609435));
#1370=CARTESIAN_POINT('',(-0.00249999999999935,-0.00378618288941686,-0.0538));
#1371=CARTESIAN_POINT('',(-0.00386791199471516,-0.0025,-0.0528773317092733));
#1372=CARTESIAN_POINT('',(-0.00386791199471516,-0.0025,-0.0528773317092733));
#1373=CARTESIAN_POINT('',(-0.00461741661282788,-0.0025,-0.0523717844609435));
#1374=CARTESIAN_POINT('',(-0.00689389913454107,-0.0025,-0.050836277611605));
#1375=CARTESIAN_POINT('',(-0.00249999999999936,0.00378618288941672,-0.0538));
#1376=CARTESIAN_POINT('',(-0.00452344444608831,-0.00222101558896782,-0.0524351694877555));
#1377=CARTESIAN_POINT('',(-0.00249999999999936,-1.87249624088088E-18,-0.0538));
#1378=CARTESIAN_POINT('',(-0.00452344444608831,0.00222101558896782,-0.0524351694877555));
#1379=CARTESIAN_POINT('',(-0.00249999999999936,-0.00378618288941686,-0.0538));
#1380=CARTESIAN_POINT('',(-0.00461741661282788,0.0025,-0.0523717844609435));
#1381=CARTESIAN_POINT('',(-0.00386791199471516,0.0025,-0.0528773317092733));
#1382=CARTESIAN_POINT('',(-0.00689389913454107,0.0025,-0.050836277611605));
#1383=CARTESIAN_POINT('',(-0.00689389913454107,-0.0025,-0.050836277611605));
#1384=CARTESIAN_POINT('',(-0.00249999999999935,-0.0025,-0.0538));
#1385=CARTESIAN_POINT('',(-0.00249999999999937,-0.0025,-0.0538));
#1386=CARTESIAN_POINT('',(-0.00734694956727021,-0.0025,-0.050836277611605));
#1387=CARTESIAN_POINT('',(-0.00779999999999934,-0.0025,-0.050836277611605));
#1388=CARTESIAN_POINT('',(-0.00779999999999934,-0.0025,-0.0523181388058025));
#1389=CARTESIAN_POINT('',(0.00280000000000066,-0.0025,-0.0579318611941975));
#1390=CARTESIAN_POINT('',(0.00280000000000063,-0.0025,-0.050836277611605));
#1391=CARTESIAN_POINT('',(0.00234694956727151,-0.0025,-0.050836277611605));
#1392=CARTESIAN_POINT('',(-0.00249999999999935,0.0025,-0.0538));
#1393=CARTESIAN_POINT('',(-0.00249999999999937,0.0025,-0.0538));
#1394=CARTESIAN_POINT('',(0.00234694956727151,0.0025,-0.050836277611605));
#1395=CARTESIAN_POINT('',(0.00280000000000063,0.0025,-0.050836277611605));
#1396=CARTESIAN_POINT('',(0.00280000000000066,0.0025,-0.0579318611941975));
#1397=CARTESIAN_POINT('',(-0.00779999999999934,0.0025,-0.0523181388058025));
#1398=CARTESIAN_POINT('',(-0.00779999999999934,0.0025,-0.050836277611605));
#1399=CARTESIAN_POINT('',(-0.00734694956727021,0.0025,-0.050836277611605));
#1400=CARTESIAN_POINT('',(-0.00249999999999937,-1.87249624088088E-18,-0.0538));
#1401=CARTESIAN_POINT('',(-0.00249999999999937,-0.00222101558896782,-0.0538));
#1402=CARTESIAN_POINT('',(-0.00249999999999937,0.00222101558896782,-0.0538));
#1403=CARTESIAN_POINT('',(-0.00249999999999937,-0.00222101558896782,-0.0538));
#1404=CARTESIAN_POINT('',(-0.00249999999999937,0.0025,-0.0538));
#1405=CARTESIAN_POINT('',(-0.00779999999999934,0.002502,-0.0523181388058025));
#1406=CARTESIAN_POINT('',(-0.00779999999999934,0.002502,-0.050836277611605));
#1407=CARTESIAN_POINT('',(-0.00734694956727021,0.002502,-0.050836277611605));
#1408=CARTESIAN_POINT('',(0.00280000000000066,0.002502,-0.0579318611941975));
#1409=CARTESIAN_POINT('',(0.00280000000000063,0.002502,-0.050836277611605));
#1410=CARTESIAN_POINT('',(0.00234694956727151,0.002502,-0.050836277611605));
#1411=CARTESIAN_POINT('',(-0.00249999999999935,-6.32714897277938E-18,-0.0641));
#1412=CARTESIAN_POINT('',(-0.00249999999999935,-6.32714897277938E-18,-0.0641));
#1413=CARTESIAN_POINT('',(-0.0774999999999993,-6.32714897277938E-18,-0.0641));
#1414=CARTESIAN_POINT('',(-0.00249999999999935,0.,-0.0641));
#1415=CARTESIAN_POINT('',(-0.0160905977879595,0.00886625548510894,0.0122444884323161));
#1416=CARTESIAN_POINT('',(-0.0444142259657383,0.0559924244880676,-0.0591));
#1417=CARTESIAN_POINT('',(-0.0397155284560624,0.0576145759834826,-0.0541));
#1418=CARTESIAN_POINT('',(-0.040836364030838,0.0624855756759644,-0.0591));
#1419=CARTESIAN_POINT('',(-0.000358909698105745,0.0037685451035384,0.0037517721596416));
#1420=CARTESIAN_POINT('',(-0.0324880257248878,0.0632806569337845,-0.0591));
#1421=CARTESIAN_POINT('',(-0.0551757834700504,0.0540262327758576,-0.018533223475325));
#1422=CARTESIAN_POINT('',(-0.0387161485850811,0.0569200143218041,-0.0591));
#1423=CARTESIAN_POINT('',(-0.0628406418459587,0.0295721064845391,-0.0166682647919269));
#1424=CARTESIAN_POINT('',(-0.040836364030838,0.0524145625531673,-0.0591));
#1425=CARTESIAN_POINT('',(0.0239821092675393,0.0239821092675393,-0.0303174583007412));
#1426=CARTESIAN_POINT('',(-0.00665485136184022,0.0279503914465681,0.0147432069448168));
#1427=CARTESIAN_POINT('',(-0.0196342319250107,0.0638107061386108,-0.0591));
#1428=CARTESIAN_POINT('',(-0.0117125697433949,0.06305942684412,-0.0541));
#1429=CARTESIAN_POINT('',(-0.000154771871166302,0.0684486702084541,-0.0591));
#1430=CARTESIAN_POINT('',(-0.0403873023158665,0.0413970166957769,-0.0487379358480859));
#1431=CARTESIAN_POINT('',(-0.011020865291357,0.0578476116061211,-0.0591));
#1432=CARTESIAN_POINT('',(0.0309415823153358,0.0446934374853998,-0.0423063016568698));
#1433=CARTESIAN_POINT('',(0.00290836683014844,0.0120988184084988,0.00945703899746165));
#1434=CARTESIAN_POINT('',(0.0107113206759095,0.0638107061386108,-0.0591));
#1435=CARTESIAN_POINT('',(0.0179727263309031,0.0581569287179585,-0.0541));
#1436=CARTESIAN_POINT('',(0.0244927071034909,0.0604978762567043,-0.0591));
#1437=CARTESIAN_POINT('',(-0.031264458062183,0.0235448298791029,-0.0297452907750266));
#1438=CARTESIAN_POINT('',(0.016409395262599,0.0497642941772938,-0.0591));
#1439=CARTESIAN_POINT('',(0.0145402979860165,0.036973894127852,-0.0666079361088458));
#1440=CARTESIAN_POINT('',(0.00461570778861642,0.0544022619724274,-0.0591));
#1441=CARTESIAN_POINT('',(0.0159031554695295,-0.0103034548238185,-0.0347465406592601));
#1442=CARTESIAN_POINT('',(0.00963433240953024,-0.0674402365849079,-0.0245249742295502));
#1443=CARTESIAN_POINT('',(0.0244920204577772,-0.0545626030781057,-0.0541));
#1444=CARTESIAN_POINT('',(0.0258712912365863,-0.0543655641316443,-0.0541));
#1445=CARTESIAN_POINT('',(0.0231127496789682,-0.0547596420245671,-0.0541));
#1446=CARTESIAN_POINT('',(0.0250227618962527,-0.0526685081422329,-0.0591));
#1447=CARTESIAN_POINT('',(0.0222399812191725,-0.053066048771143,-0.0591));
#1448=CARTESIAN_POINT('',(0.0477072257599478,-0.0477071225929058,-0.0242885277874216));
#1449=CARTESIAN_POINT('',(0.0271416360561994,-0.0530952165649001,-0.0541));
#1450=CARTESIAN_POINT('',(0.0284119808758125,-0.051824868998156,-0.0541));
#1451=CARTESIAN_POINT('',(0.0267454329878092,-0.0509458333253861,-0.0591));
#1452=CARTESIAN_POINT('',(0.0495543777254665,-0.00929146759074293,-0.0181504550008683));
#1453=CARTESIAN_POINT('',(0.0285883018733021,-0.0508844925479124,-0.0541));
#1454=CARTESIAN_POINT('',(0.0287646228707919,-0.0499441160976689,-0.0541));
#1455=CARTESIAN_POINT('',(0.0271429736167192,-0.0488256216049194,-0.0591));
#1456=CARTESIAN_POINT('',(0.0355873529823481,-0.0582338586029502,-0.0245688909114391));
#1457=CARTESIAN_POINT('',(0.0294111107245293,-0.0495490402431455,-0.0541));
#1458=CARTESIAN_POINT('',(0.0300575985782667,-0.0491539643886222,-0.0541));
#1459=CARTESIAN_POINT('',(0.0295282136648893,-0.0473679751157761,-0.0591));
#1460=CARTESIAN_POINT('',(0.00170705278419619,-0.0614543561361946,-0.02213210176384));
#1461=CARTESIAN_POINT('',(0.0316880485299795,-0.049108674448176,-0.0541));
#1462=CARTESIAN_POINT('',(0.0333184984816924,-0.0490633845077299,-0.0541));
#1463=CARTESIAN_POINT('',(0.0342986918985844,-0.0472354628145695,-0.0591));
#1464=CARTESIAN_POINT('',(-0.0129313455257034,-0.00808210988760769,-0.00548973674918282));
#1465=CARTESIAN_POINT('',(0.0336805647895967,-0.0496426892432304,-0.0541));
#1466=CARTESIAN_POINT('',(0.0340426310975011,-0.0502219939787309,-0.0541));
#1467=CARTESIAN_POINT('',(0.0362863950431347,-0.0504157803952694,-0.0591));
#1468=CARTESIAN_POINT('',(0.0259680169770812,-0.0232816434838076,0.012555553298926));
#1469=CARTESIAN_POINT('',(0.0327516357459764,-0.0516619519966879,-0.0541));
#1470=CARTESIAN_POINT('',(0.0314606403944519,-0.0531019100146448,-0.0541));
#1471=CARTESIAN_POINT('',(0.0328410491347313,-0.0542586706578732,-0.0591));
#1472=CARTESIAN_POINT('',(0.0265103552187185,-0.0207472859415947,0.0121189539765746));
#1473=CARTESIAN_POINT('',(0.0300582238091839,-0.0548938823210339,-0.0541));
#1474=CARTESIAN_POINT('',(0.0286558072239161,-0.0566858546274231,-0.0541));
#1475=CARTESIAN_POINT('',(0.0304558072239161,-0.0573064722120762,-0.0591));
#1476=CARTESIAN_POINT('',(0.00812659987952904,0.,0.00292557595663046));
#1477=CARTESIAN_POINT('',(0.0286558072239161,-0.0568777597584109,-0.0541));
#1478=CARTESIAN_POINT('',(0.0286558072239161,-0.0570696648893986,-0.0541));
#1479=CARTESIAN_POINT('',(0.0304558072239161,-0.0584990940988064,-0.0591));
#1480=CARTESIAN_POINT('',(0.0085426357037183,-0.036733311912013,0.013576882654402));
#1481=CARTESIAN_POINT('',(0.0268406926692033,-0.0574917848016616,-0.0541));
#1482=CARTESIAN_POINT('',(0.0250255781144905,-0.0579139047139246,-0.0541));
#1483=CARTESIAN_POINT('',(0.0247577335685491,-0.0598242282867432,-0.0591));
#1484=CARTESIAN_POINT('',(-0.0081670062218807,-0.0147006081381106,0.00605408126684013));
#1485=CARTESIAN_POINT('',(0.0236947681350628,-0.0571745656825039,-0.0541));
#1486=CARTESIAN_POINT('',(0.0223639581556351,-0.0564352266510831,-0.0541));
#1487=CARTESIAN_POINT('',(0.0211798753589392,-0.0578365288674831,-0.0591));
#1488=CARTESIAN_POINT('',(0.00116445293120451,0.00093156299967908,-0.0005368419959136));
#1489=CARTESIAN_POINT('',(0.0221706204365901,-0.0561935546721273,-0.0541));
#1490=CARTESIAN_POINT('',(0.021977282717545,-0.0559518826931715,-0.0541));
#1491=CARTESIAN_POINT('',(0.0195897147059441,-0.0558488294482231,-0.0591));
#1492=CARTESIAN_POINT('',(0.0474241726898549,-0.0451658651480077,-0.0235765853310679));
#1493=CARTESIAN_POINT('',(0.0225450161982566,-0.0553557623588693,-0.0541));
#1494=CARTESIAN_POINT('',(-0.00444266439787348,-0.000136937764673911,-0.0541));
#1495=CARTESIAN_POINT('',(0.00695531496923865,0.00544329256330407,-0.00989267251363086));
#1496=CARTESIAN_POINT('',(-0.011020865291357,-0.0610168464481831,-0.0591));
#1497=CARTESIAN_POINT('',(-0.00512030351324222,-0.0594694196273836,-0.0541));
#1498=CARTESIAN_POINT('',(-0.0134061053395271,-0.0579690411686897,-0.0591));
#1499=CARTESIAN_POINT('',(0.0276697378909516,-0.0238532250945806,-0.0530109659703915));
#1500=CARTESIAN_POINT('',(-0.0100932717323303,-0.0541261546313763,-0.0591));
#1501=CARTESIAN_POINT('',(0.0174873324310194,-0.0402208357090496,-0.0603749063940831));
#1502=CARTESIAN_POINT('',(-0.00399765884503723,-0.0514758862555027,-0.0591));
#1503=CARTESIAN_POINT('',(-0.0257721677515159,-0.0337380980564896,-0.0597239198865329));
#1504=CARTESIAN_POINT('',(0.00554330134764314,-0.0587641224265099,-0.0591));
#1505=CARTESIAN_POINT('',(-0.00520893905944796,0.00673569721198781,-0.0101590798969674));
#1506=CARTESIAN_POINT('',(-0.00439519854262471,-0.0664498955011368,-0.0591));
#1507=CARTESIAN_POINT('',(0.00122163670553356,0.00139615398622753,-0.00177200087388689));
#1508=CARTESIAN_POINT('',(-0.00757551845163107,-0.0636671110987663,-0.0591));
#1509=CARTESIAN_POINT('',(0.0115410667214995,0.00288527343975087,-0.00808945742604346));
#1510=CARTESIAN_POINT('',(-0.00797305814921856,-0.0620769560337067,-0.0591));
#1511=CARTESIAN_POINT('',(-0.00473165816583809,-0.0136034818936915,0.0097939668118014));
#1512=CARTESIAN_POINT('',(0.0201359652936249,-0.00939678296506417,-0.0209499576960388));
#1513=CARTESIAN_POINT('',(-0.0412339046597481,-0.0558488294482231,-0.0591));
#1514=CARTESIAN_POINT('',(-0.0333576099504078,-0.0501184631484332,-0.0541));
#1515=CARTESIAN_POINT('',(-0.038451123982668,-0.0498857274651527,-0.0591));
#1516=CARTESIAN_POINT('',(0.0198740907332367,-0.0417356045076016,-0.0221884648920704));
#1517=CARTESIAN_POINT('',(-0.0328855663537979,-0.0472354628145695,-0.0591));
#1518=CARTESIAN_POINT('',(-0.0481441464108087,-0.0497489843756504,-0.0332304949183706));
#1519=CARTESIAN_POINT('',(-0.028777651488781,-0.0512108616530895,-0.0591));
#1520=CARTESIAN_POINT('',(-0.020279948313908,0.01491172078319,-0.0218341724734094));
#1521=CARTESIAN_POINT('',(-0.0320904850959778,-0.0557163171470165,-0.0591));
#1522=CARTESIAN_POINT('',(-0.0395698890717314,-0.01236559685295,0.00381616317166521));
#1523=CARTESIAN_POINT('',(-0.030765350908041,-0.0599567443132401,-0.0591));
#1524=CARTESIAN_POINT('',(-0.00471202690875037,0.0135470897814653,-0.0290989745194041));
#1525=CARTESIAN_POINT('',(-0.0368609651923179,-0.0620769560337067,-0.0591));
#1526=CARTESIAN_POINT('',(0.00841230806397999,0.0059065135302324,-0.0200208607161126));
#1527=MECHANICAL_DESIGN_GEOMETRIC_PRESENTATION_REPRESENTATION('',(#946),
#1528);
#1528=(
GEOMETRIC_REPRESENTATION_CONTEXT(3)
GLOBAL_UNCERTAINTY_ASSIGNED_CONTEXT((#1529))
GLOBAL_UNIT_ASSIGNED_CONTEXT((#1532,#1531,#1530))
REPRESENTATION_CONTEXT('Base','TOP_LEVEL_ASSEMBLY_PART')
);
#1529=UNCERTAINTY_MEASURE_WITH_UNIT(LENGTH_MEASURE(1.E-8),#1532,
'DISTANCE_ACCURACY_VALUE','Maximum Tolerance applied to model');
#1530=(
NAMED_UNIT(*)
SI_UNIT($,.STERADIAN.)
SOLID_ANGLE_UNIT()
);
#1531=(
NAMED_UNIT(*)
PLANE_ANGLE_UNIT()
SI_UNIT($,.RADIAN.)
);
#1532=(
LENGTH_UNIT()
NAMED_UNIT(*)
SI_UNIT($,.METRE.)
);
#1533=PRODUCT_DEFINITION_SHAPE('','',#1534);
#1534=PRODUCT_DEFINITION('','',#1536,#1535);
#1535=PRODUCT_DEFINITION_CONTEXT('',#1542,'design');
#1536=PRODUCT_DEFINITION_FORMATION_WITH_SPECIFIED_SOURCE('','',#1538,
 .NOT_KNOWN.);
#1537=PRODUCT_RELATED_PRODUCT_CATEGORY('','',(#1538));
#1538=PRODUCT('Base','Base','Base',(#1540));
#1539=PRODUCT_CATEGORY('','');
#1540=PRODUCT_CONTEXT('',#1542,'mechanical');
#1541=APPLICATION_PROTOCOL_DEFINITION('international standard',
'ap242_managed_model_based_3d_engineering',2020,#1542);
#1542=APPLICATION_CONTEXT('managed model based 3d engineering');
ENDSEC;
END-ISO-10303-21;
