ISO-10303-21;
HEADER;
/* Generated by software containing ST-Developer
 * from STEP Tools, Inc. (www.steptools.com) 
 */
/* OPTION: using custom renumber hook */

FILE_DESCRIPTION(
/* description */ ('STEP AP242 Edition 2',
'CAx-IF Rec.Pracs.---Representation and Presentation of Product Manufa
cturing Information (PMI)---4.0---2014-10-13',
'CAx-IF Rec.Pracs.---3D Tessellated Geometry---0.4---2014-09-14','2;1',
'CAx-IF Rec.Pracs.---User Defined Attributes---1.5---2016-08-15'),
/* implementation_level */ '2;1');

FILE_NAME(
/* name */ '696aaf0e48d5b5600c73cb33',
/* time_stamp */ '2026-01-16T21:35:10Z',
/* author */ (''),
/* organization */ (''),
/* preprocessor_version */ 'ST-DEVELOPER v20',
/* originating_system */ 'ONSHAPE BY PTC INC, 1.209',
/* authorisation */ '  ');

FILE_SCHEMA (('AP242_MANAGED_MODEL_BASED_3D_ENGINEERING_MIM_LF { 1 0 10303 442 3 1 4 }'));
ENDSEC;

DATA;
#10=SHAPE_REPRESENTATION_RELATIONSHIP('','',#321,#11);
#11=ADVANCED_BREP_SHAPE_REPRESENTATION('',(#319),#559);
#12=LINE('',#490,#26);
#13=LINE('',#493,#27);
#14=LINE('',#495,#28);
#15=LINE('',#497,#29);
#16=LINE('',#499,#30);
#17=LINE('',#502,#31);
#18=LINE('',#504,#32);
#19=LINE('',#506,#33);
#20=LINE('',#515,#34);
#21=LINE('',#528,#35);
#22=LINE('',#539,#36);
#23=LINE('',#540,#37);
#24=LINE('',#544,#38);
#25=LINE('',#545,#39);
#26=VECTOR('',#393,1.);
#27=VECTOR('',#394,1.);
#28=VECTOR('',#395,1.);
#29=VECTOR('',#396,1.);
#30=VECTOR('',#399,1.);
#31=VECTOR('',#400,1.);
#32=VECTOR('',#401,1.);
#33=VECTOR('',#402,1.);
#34=VECTOR('',#413,1.);
#35=VECTOR('',#428,1.);
#36=VECTOR('',#441,1.);
#37=VECTOR('',#442,1.);
#38=VECTOR('',#449,1.);
#39=VECTOR('',#450,1.);
#40=PLANE('',#334);
#41=PLANE('',#335);
#42=PLANE('',#339);
#43=PLANE('',#345);
#44=PLANE('',#353);
#45=CYLINDRICAL_SURFACE('',#327,0.003);
#46=CYLINDRICAL_SURFACE('',#329,0.003);
#47=CYLINDRICAL_SURFACE('',#331,0.00225);
#48=CYLINDRICAL_SURFACE('',#336,0.005);
#49=CYLINDRICAL_SURFACE('',#355,0.06);
#50=CYLINDRICAL_SURFACE('',#356,0.01);
#51=CYLINDRICAL_SURFACE('',#357,0.15);
#52=CYLINDRICAL_SURFACE('',#358,0.0499999999999988);
#53=CYLINDRICAL_SURFACE('',#359,0.04);
#54=CYLINDRICAL_SURFACE('',#361,0.003);
#55=CYLINDRICAL_SURFACE('',#363,0.003);
#56=ORIENTED_EDGE('',*,*,#128,.T.);
#57=ORIENTED_EDGE('',*,*,#129,.T.);
#58=ORIENTED_EDGE('',*,*,#128,.F.);
#59=ORIENTED_EDGE('',*,*,#130,.F.);
#60=ORIENTED_EDGE('',*,*,#129,.F.);
#61=ORIENTED_EDGE('',*,*,#131,.F.);
#62=ORIENTED_EDGE('',*,*,#132,.T.);
#63=ORIENTED_EDGE('',*,*,#133,.F.);
#64=ORIENTED_EDGE('',*,*,#134,.F.);
#65=ORIENTED_EDGE('',*,*,#135,.F.);
#66=ORIENTED_EDGE('',*,*,#136,.T.);
#67=ORIENTED_EDGE('',*,*,#137,.T.);
#68=ORIENTED_EDGE('',*,*,#132,.F.);
#69=ORIENTED_EDGE('',*,*,#138,.F.);
#70=ORIENTED_EDGE('',*,*,#139,.F.);
#71=ORIENTED_EDGE('',*,*,#140,.T.);
#72=ORIENTED_EDGE('',*,*,#141,.T.);
#73=ORIENTED_EDGE('',*,*,#142,.T.);
#74=ORIENTED_EDGE('',*,*,#143,.F.);
#75=ORIENTED_EDGE('',*,*,#130,.T.);
#76=ORIENTED_EDGE('',*,*,#131,.T.);
#77=ORIENTED_EDGE('',*,*,#144,.F.);
#78=ORIENTED_EDGE('',*,*,#145,.F.);
#79=ORIENTED_EDGE('',*,*,#146,.F.);
#80=ORIENTED_EDGE('',*,*,#147,.T.);
#81=ORIENTED_EDGE('',*,*,#148,.T.);
#82=ORIENTED_EDGE('',*,*,#139,.T.);
#83=ORIENTED_EDGE('',*,*,#149,.F.);
#84=ORIENTED_EDGE('',*,*,#135,.T.);
#85=ORIENTED_EDGE('',*,*,#150,.F.);
#86=ORIENTED_EDGE('',*,*,#151,.F.);
#87=ORIENTED_EDGE('',*,*,#152,.T.);
#88=ORIENTED_EDGE('',*,*,#153,.T.);
#89=ORIENTED_EDGE('',*,*,#137,.F.);
#90=ORIENTED_EDGE('',*,*,#154,.T.);
#91=ORIENTED_EDGE('',*,*,#141,.F.);
#92=ORIENTED_EDGE('',*,*,#155,.F.);
#93=ORIENTED_EDGE('',*,*,#156,.F.);
#94=ORIENTED_EDGE('',*,*,#157,.T.);
#95=ORIENTED_EDGE('',*,*,#142,.F.);
#96=ORIENTED_EDGE('',*,*,#145,.T.);
#97=ORIENTED_EDGE('',*,*,#158,.T.);
#98=ORIENTED_EDGE('',*,*,#152,.F.);
#99=ORIENTED_EDGE('',*,*,#159,.F.);
#100=ORIENTED_EDGE('',*,*,#143,.T.);
#101=ORIENTED_EDGE('',*,*,#144,.T.);
#102=ORIENTED_EDGE('',*,*,#134,.T.);
#103=ORIENTED_EDGE('',*,*,#153,.F.);
#104=ORIENTED_EDGE('',*,*,#158,.F.);
#105=ORIENTED_EDGE('',*,*,#160,.T.);
#106=ORIENTED_EDGE('',*,*,#156,.T.);
#107=ORIENTED_EDGE('',*,*,#161,.F.);
#108=ORIENTED_EDGE('',*,*,#147,.F.);
#109=ORIENTED_EDGE('',*,*,#161,.T.);
#110=ORIENTED_EDGE('',*,*,#155,.T.);
#111=ORIENTED_EDGE('',*,*,#140,.F.);
#112=ORIENTED_EDGE('',*,*,#148,.F.);
#113=ORIENTED_EDGE('',*,*,#146,.T.);
#114=ORIENTED_EDGE('',*,*,#159,.T.);
#115=ORIENTED_EDGE('',*,*,#157,.F.);
#116=ORIENTED_EDGE('',*,*,#160,.F.);
#117=ORIENTED_EDGE('',*,*,#149,.T.);
#118=ORIENTED_EDGE('',*,*,#138,.T.);
#119=ORIENTED_EDGE('',*,*,#154,.F.);
#120=ORIENTED_EDGE('',*,*,#136,.F.);
#121=ORIENTED_EDGE('',*,*,#133,.T.);
#122=ORIENTED_EDGE('',*,*,#162,.T.);
#123=ORIENTED_EDGE('',*,*,#151,.T.);
#124=ORIENTED_EDGE('',*,*,#163,.T.);
#125=ORIENTED_EDGE('',*,*,#150,.T.);
#126=ORIENTED_EDGE('',*,*,#163,.F.);
#127=ORIENTED_EDGE('',*,*,#162,.F.);
#128=EDGE_CURVE('',#164,#164,#192,.F.);
#129=EDGE_CURVE('',#165,#165,#193,.F.);
#130=EDGE_CURVE('',#166,#166,#194,.T.);
#131=EDGE_CURVE('',#167,#167,#195,.T.);
#132=EDGE_CURVE('',#168,#168,#196,.T.);
#133=EDGE_CURVE('',#169,#169,#197,.T.);
#134=EDGE_CURVE('',#170,#171,#12,.T.);
#135=EDGE_CURVE('',#172,#170,#13,.T.);
#136=EDGE_CURVE('',#172,#173,#14,.T.);
#137=EDGE_CURVE('',#173,#171,#15,.T.);
#138=EDGE_CURVE('',#174,#175,#16,.T.);
#139=EDGE_CURVE('',#176,#174,#17,.T.);
#140=EDGE_CURVE('',#176,#177,#18,.T.);
#141=EDGE_CURVE('',#177,#175,#19,.T.);
#142=EDGE_CURVE('',#178,#178,#198,.T.);
#143=EDGE_CURVE('',#179,#179,#199,.T.);
#144=EDGE_CURVE('',#180,#170,#200,.F.);
#145=EDGE_CURVE('',#181,#180,#20,.T.);
#146=EDGE_CURVE('',#182,#181,#201,.F.);
#147=EDGE_CURVE('',#182,#183,#202,.F.);
#148=EDGE_CURVE('',#183,#176,#203,.F.);
#149=EDGE_CURVE('',#172,#174,#204,.F.);
#150=EDGE_CURVE('',#184,#184,#205,.T.);
#151=EDGE_CURVE('',#185,#185,#206,.T.);
#152=EDGE_CURVE('',#186,#187,#21,.T.);
#153=EDGE_CURVE('',#187,#171,#207,.T.);
#154=EDGE_CURVE('',#173,#175,#208,.T.);
#155=EDGE_CURVE('',#188,#177,#209,.T.);
#156=EDGE_CURVE('',#189,#188,#210,.T.);
#157=EDGE_CURVE('',#189,#186,#211,.T.);
#158=EDGE_CURVE('',#180,#187,#22,.T.);
#159=EDGE_CURVE('',#181,#186,#23,.T.);
#160=EDGE_CURVE('',#182,#189,#24,.T.);
#161=EDGE_CURVE('',#183,#188,#25,.T.);
#162=EDGE_CURVE('',#190,#190,#212,.F.);
#163=EDGE_CURVE('',#191,#191,#213,.F.);
#164=VERTEX_POINT('',#474);
#165=VERTEX_POINT('',#477);
#166=VERTEX_POINT('',#480);
#167=VERTEX_POINT('',#483);
#168=VERTEX_POINT('',#486);
#169=VERTEX_POINT('',#488);
#170=VERTEX_POINT('',#491);
#171=VERTEX_POINT('',#492);
#172=VERTEX_POINT('',#494);
#173=VERTEX_POINT('',#496);
#174=VERTEX_POINT('',#500);
#175=VERTEX_POINT('',#501);
#176=VERTEX_POINT('',#503);
#177=VERTEX_POINT('',#505);
#178=VERTEX_POINT('',#509);
#179=VERTEX_POINT('',#511);
#180=VERTEX_POINT('',#514);
#181=VERTEX_POINT('',#516);
#182=VERTEX_POINT('',#518);
#183=VERTEX_POINT('',#520);
#184=VERTEX_POINT('',#525);
#185=VERTEX_POINT('',#527);
#186=VERTEX_POINT('',#529);
#187=VERTEX_POINT('',#530);
#188=VERTEX_POINT('',#534);
#189=VERTEX_POINT('',#536);
#190=VERTEX_POINT('',#552);
#191=VERTEX_POINT('',#555);
#192=CIRCLE('',#324,0.003);
#193=CIRCLE('',#326,0.003);
#194=CIRCLE('',#328,0.003);
#195=CIRCLE('',#330,0.003);
#196=CIRCLE('',#332,0.00225);
#197=CIRCLE('',#333,0.00225);
#198=CIRCLE('',#337,0.005);
#199=CIRCLE('',#338,0.005);
#200=CIRCLE('',#340,0.06);
#201=CIRCLE('',#341,0.0499999999999988);
#202=CIRCLE('',#342,0.01);
#203=CIRCLE('',#343,0.15);
#204=CIRCLE('',#344,0.04);
#205=CIRCLE('',#346,0.003);
#206=CIRCLE('',#347,0.003);
#207=CIRCLE('',#348,0.06);
#208=CIRCLE('',#349,0.04);
#209=CIRCLE('',#350,0.15);
#210=CIRCLE('',#351,0.01);
#211=CIRCLE('',#352,0.0499999999999988);
#212=CIRCLE('',#362,0.003);
#213=CIRCLE('',#364,0.003);
#214=EDGE_LOOP('',(#56));
#215=EDGE_LOOP('',(#57));
#216=EDGE_LOOP('',(#58));
#217=EDGE_LOOP('',(#59));
#218=EDGE_LOOP('',(#60));
#219=EDGE_LOOP('',(#61));
#220=EDGE_LOOP('',(#62));
#221=EDGE_LOOP('',(#63));
#222=EDGE_LOOP('',(#64,#65,#66,#67));
#223=EDGE_LOOP('',(#68));
#224=EDGE_LOOP('',(#69,#70,#71,#72));
#225=EDGE_LOOP('',(#73));
#226=EDGE_LOOP('',(#74));
#227=EDGE_LOOP('',(#75));
#228=EDGE_LOOP('',(#76));
#229=EDGE_LOOP('',(#77,#78,#79,#80,#81,#82,#83,#84));
#230=EDGE_LOOP('',(#85));
#231=EDGE_LOOP('',(#86));
#232=EDGE_LOOP('',(#87,#88,#89,#90,#91,#92,#93,#94));
#233=EDGE_LOOP('',(#95));
#234=EDGE_LOOP('',(#96,#97,#98,#99));
#235=EDGE_LOOP('',(#100));
#236=EDGE_LOOP('',(#101,#102,#103,#104));
#237=EDGE_LOOP('',(#105,#106,#107,#108));
#238=EDGE_LOOP('',(#109,#110,#111,#112));
#239=EDGE_LOOP('',(#113,#114,#115,#116));
#240=EDGE_LOOP('',(#117,#118,#119,#120));
#241=EDGE_LOOP('',(#121));
#242=EDGE_LOOP('',(#122));
#243=EDGE_LOOP('',(#123));
#244=EDGE_LOOP('',(#124));
#245=EDGE_LOOP('',(#125));
#246=EDGE_LOOP('',(#126));
#247=EDGE_LOOP('',(#127));
#248=FACE_BOUND('',#214,.T.);
#249=FACE_BOUND('',#215,.T.);
#250=FACE_BOUND('',#216,.T.);
#251=FACE_BOUND('',#217,.T.);
#252=FACE_BOUND('',#218,.T.);
#253=FACE_BOUND('',#219,.T.);
#254=FACE_BOUND('',#220,.T.);
#255=FACE_BOUND('',#221,.T.);
#256=FACE_BOUND('',#222,.T.);
#257=FACE_BOUND('',#223,.T.);
#258=FACE_BOUND('',#224,.T.);
#259=FACE_BOUND('',#225,.T.);
#260=FACE_BOUND('',#226,.T.);
#261=FACE_BOUND('',#227,.T.);
#262=FACE_BOUND('',#228,.T.);
#263=FACE_BOUND('',#229,.T.);
#264=FACE_BOUND('',#230,.T.);
#265=FACE_BOUND('',#231,.T.);
#266=FACE_BOUND('',#232,.T.);
#267=FACE_BOUND('',#233,.T.);
#268=FACE_BOUND('',#234,.T.);
#269=FACE_BOUND('',#235,.T.);
#270=FACE_BOUND('',#236,.T.);
#271=FACE_BOUND('',#237,.T.);
#272=FACE_BOUND('',#238,.T.);
#273=FACE_BOUND('',#239,.T.);
#274=FACE_BOUND('',#240,.T.);
#275=FACE_BOUND('',#241,.T.);
#276=FACE_BOUND('',#242,.T.);
#277=FACE_BOUND('',#243,.T.);
#278=FACE_BOUND('',#244,.T.);
#279=FACE_BOUND('',#245,.T.);
#280=FACE_BOUND('',#246,.T.);
#281=FACE_BOUND('',#247,.T.);
#282=SPHERICAL_SURFACE('',#323,0.0045);
#283=SPHERICAL_SURFACE('',#325,0.0045);
#284=SPHERICAL_SURFACE('',#354,0.0075);
#285=SPHERICAL_SURFACE('',#360,0.003);
#286=SPHERICAL_SURFACE('',#365,0.0045);
#287=SPHERICAL_SURFACE('',#366,0.0045);
#288=ADVANCED_FACE('',(#248),#282,.T.);
#289=ADVANCED_FACE('',(#249),#283,.T.);
#290=ADVANCED_FACE('',(#250,#251),#45,.T.);
#291=ADVANCED_FACE('',(#252,#253),#46,.T.);
#292=ADVANCED_FACE('',(#254,#255),#47,.T.);
#293=ADVANCED_FACE('',(#256),#40,.T.);
#294=ADVANCED_FACE('',(#257,#258),#41,.T.);
#295=ADVANCED_FACE('',(#259,#260),#48,.T.);
#296=ADVANCED_FACE('',(#261,#262,#263),#42,.T.);
#297=ADVANCED_FACE('',(#264,#265,#266),#43,.F.);
#298=ADVANCED_FACE('',(#267,#268),#44,.F.);
#299=ADVANCED_FACE('',(#269),#284,.T.);
#300=ADVANCED_FACE('',(#270),#49,.T.);
#301=ADVANCED_FACE('',(#271),#50,.F.);
#302=ADVANCED_FACE('',(#272),#51,.F.);
#303=ADVANCED_FACE('',(#273),#52,.T.);
#304=ADVANCED_FACE('',(#274),#53,.T.);
#305=ADVANCED_FACE('',(#275),#285,.T.);
#306=ADVANCED_FACE('',(#276,#277),#54,.T.);
#307=ADVANCED_FACE('',(#278,#279),#55,.T.);
#308=ADVANCED_FACE('',(#280),#286,.T.);
#309=ADVANCED_FACE('',(#281),#287,.T.);
#310=CLOSED_SHELL('',(#288,#289,#290,#291,#292,#293,#294,#295,#296,#297,
#298,#299,#300,#301,#302,#303,#304,#305,#306,#307,#308,#309));
#311=STYLED_ITEM('',(#312),#319);
#312=PRESENTATION_STYLE_ASSIGNMENT((#313));
#313=SURFACE_STYLE_USAGE(.BOTH.,#314);
#314=SURFACE_SIDE_STYLE('',(#315));
#315=SURFACE_STYLE_FILL_AREA(#316);
#316=FILL_AREA_STYLE('',(#317));
#317=FILL_AREA_STYLE_COLOUR('',#318);
#318=COLOUR_RGB('',0.615686274509804,0.811764705882353,0.929411764705882);
#319=MANIFOLD_SOLID_BREP('Body',#310);
#320=SHAPE_DEFINITION_REPRESENTATION(#564,#321);
#321=SHAPE_REPRESENTATION('Body',(#322),#559);
#322=AXIS2_PLACEMENT_3D('',#471,#367,#368);
#323=AXIS2_PLACEMENT_3D('',#472,#369,#370);
#324=AXIS2_PLACEMENT_3D('',#473,#371,#372);
#325=AXIS2_PLACEMENT_3D('',#475,#373,#374);
#326=AXIS2_PLACEMENT_3D('',#476,#375,#376);
#327=AXIS2_PLACEMENT_3D('',#478,#377,#378);
#328=AXIS2_PLACEMENT_3D('',#479,#379,#380);
#329=AXIS2_PLACEMENT_3D('',#481,#381,#382);
#330=AXIS2_PLACEMENT_3D('',#482,#383,#384);
#331=AXIS2_PLACEMENT_3D('',#484,#385,#386);
#332=AXIS2_PLACEMENT_3D('',#485,#387,#388);
#333=AXIS2_PLACEMENT_3D('',#487,#389,#390);
#334=AXIS2_PLACEMENT_3D('',#489,#391,#392);
#335=AXIS2_PLACEMENT_3D('',#498,#397,#398);
#336=AXIS2_PLACEMENT_3D('',#507,#403,#404);
#337=AXIS2_PLACEMENT_3D('',#508,#405,#406);
#338=AXIS2_PLACEMENT_3D('',#510,#407,#408);
#339=AXIS2_PLACEMENT_3D('',#512,#409,#410);
#340=AXIS2_PLACEMENT_3D('',#513,#411,#412);
#341=AXIS2_PLACEMENT_3D('',#517,#414,#415);
#342=AXIS2_PLACEMENT_3D('',#519,#416,#417);
#343=AXIS2_PLACEMENT_3D('',#521,#418,#419);
#344=AXIS2_PLACEMENT_3D('',#522,#420,#421);
#345=AXIS2_PLACEMENT_3D('',#523,#422,#423);
#346=AXIS2_PLACEMENT_3D('',#524,#424,#425);
#347=AXIS2_PLACEMENT_3D('',#526,#426,#427);
#348=AXIS2_PLACEMENT_3D('',#531,#429,#430);
#349=AXIS2_PLACEMENT_3D('',#532,#431,#432);
#350=AXIS2_PLACEMENT_3D('',#533,#433,#434);
#351=AXIS2_PLACEMENT_3D('',#535,#435,#436);
#352=AXIS2_PLACEMENT_3D('',#537,#437,#438);
#353=AXIS2_PLACEMENT_3D('',#538,#439,#440);
#354=AXIS2_PLACEMENT_3D('',#541,#443,#444);
#355=AXIS2_PLACEMENT_3D('',#542,#445,#446);
#356=AXIS2_PLACEMENT_3D('',#543,#447,#448);
#357=AXIS2_PLACEMENT_3D('',#546,#451,#452);
#358=AXIS2_PLACEMENT_3D('',#547,#453,#454);
#359=AXIS2_PLACEMENT_3D('',#548,#455,#456);
#360=AXIS2_PLACEMENT_3D('',#549,#457,#458);
#361=AXIS2_PLACEMENT_3D('',#550,#459,#460);
#362=AXIS2_PLACEMENT_3D('',#551,#461,#462);
#363=AXIS2_PLACEMENT_3D('',#553,#463,#464);
#364=AXIS2_PLACEMENT_3D('',#554,#465,#466);
#365=AXIS2_PLACEMENT_3D('',#556,#467,#468);
#366=AXIS2_PLACEMENT_3D('',#557,#469,#470);
#367=DIRECTION('',(0.,0.,1.));
#368=DIRECTION('',(1.,0.,0.));
#369=DIRECTION('',(0.,0.,1.));
#370=DIRECTION('',(1.,0.,0.));
#371=DIRECTION('',(0.,-1.,0.));
#372=DIRECTION('',(0.,0.,-1.));
#373=DIRECTION('',(0.,0.,1.));
#374=DIRECTION('',(1.,0.,0.));
#375=DIRECTION('',(0.,-1.,0.));
#376=DIRECTION('',(0.,0.,-1.));
#377=DIRECTION('',(0.,-1.,-5.78241158658936E-17));
#378=DIRECTION('',(0.,-5.78241158658936E-17,1.));
#379=DIRECTION('',(0.,-1.,-5.78241158658936E-17));
#380=DIRECTION('',(0.,5.78241158658936E-17,-1.));
#381=DIRECTION('',(0.,-1.,-5.78241158658936E-17));
#382=DIRECTION('',(0.,-5.78241158658936E-17,1.));
#383=DIRECTION('',(0.,-1.,-5.78241158658936E-17));
#384=DIRECTION('',(0.,5.78241158658936E-17,-1.));
#385=DIRECTION('',(-1.,0.,0.));
#386=DIRECTION('',(0.,0.,1.));
#387=DIRECTION('',(1.,0.,0.));
#388=DIRECTION('',(0.,0.,-1.));
#389=DIRECTION('',(1.,0.,0.));
#390=DIRECTION('',(0.,0.,-1.));
#391=DIRECTION('',(0.,0.,-1.));
#392=DIRECTION('',(-1.,0.,0.));
#393=DIRECTION('',(0.,-1.,5.78241158658936E-17));
#394=DIRECTION('',(-1.,0.,0.));
#395=DIRECTION('',(0.,-1.,5.78241158658936E-17));
#396=DIRECTION('',(-1.,0.,0.));
#397=DIRECTION('',(1.,0.,0.));
#398=DIRECTION('',(0.,1.,0.));
#399=DIRECTION('',(0.,-1.,5.78241158658936E-17));
#400=DIRECTION('',(0.,-5.78241158658936E-17,-1.));
#401=DIRECTION('',(0.,-1.,5.78241158658936E-17));
#402=DIRECTION('',(0.,-5.78241158658936E-17,-1.));
#403=DIRECTION('',(1.,0.,0.));
#404=DIRECTION('',(0.,0.,-1.));
#405=DIRECTION('',(-1.,0.,0.));
#406=DIRECTION('',(0.,0.,1.));
#407=DIRECTION('',(-1.,0.,0.));
#408=DIRECTION('',(0.,0.,1.));
#409=DIRECTION('',(0.,1.,-5.78241158658936E-17));
#410=DIRECTION('',(0.,5.78241158658936E-17,1.));
#411=DIRECTION('',(0.,1.,-5.78241158658936E-17));
#412=DIRECTION('',(0.,5.78241158658936E-17,1.));
#413=DIRECTION('',(0.,-5.78241158658936E-17,-1.));
#414=DIRECTION('',(0.,1.,-5.78241158658936E-17));
#415=DIRECTION('',(0.,5.78241158658936E-17,1.));
#416=DIRECTION('',(0.,1.,-5.78241158658936E-17));
#417=DIRECTION('',(0.,5.78241158658936E-17,1.));
#418=DIRECTION('',(0.,1.,-5.78241158658936E-17));
#419=DIRECTION('',(0.,5.78241158658936E-17,1.));
#420=DIRECTION('',(0.,1.,-5.78241158658936E-17));
#421=DIRECTION('',(0.,5.78241158658936E-17,1.));
#422=DIRECTION('',(0.,1.,-5.78241158658936E-17));
#423=DIRECTION('',(0.,5.78241158658936E-17,1.));
#424=DIRECTION('',(0.,-1.,5.78241158658936E-17));
#425=DIRECTION('',(0.,-5.78241158658936E-17,-1.));
#426=DIRECTION('',(0.,-1.,5.78241158658936E-17));
#427=DIRECTION('',(0.,-5.78241158658936E-17,-1.));
#428=DIRECTION('',(0.,-5.78241158658936E-17,-1.));
#429=DIRECTION('',(0.,-1.,5.78241158658936E-17));
#430=DIRECTION('',(0.,-5.78241158658936E-17,-1.));
#431=DIRECTION('',(0.,-1.,5.78241158658936E-17));
#432=DIRECTION('',(0.,-5.78241158658936E-17,-1.));
#433=DIRECTION('',(0.,-1.,5.78241158658936E-17));
#434=DIRECTION('',(0.,-5.78241158658936E-17,-1.));
#435=DIRECTION('',(0.,-1.,5.78241158658936E-17));
#436=DIRECTION('',(0.,-5.78241158658936E-17,-1.));
#437=DIRECTION('',(0.,-1.,5.78241158658936E-17));
#438=DIRECTION('',(0.,-5.78241158658936E-17,-1.));
#439=DIRECTION('',(1.,0.,0.));
#440=DIRECTION('',(0.,1.,0.));
#441=DIRECTION('',(0.,-1.,5.78241158658936E-17));
#442=DIRECTION('',(0.,-1.,0.));
#443=DIRECTION('',(0.,0.,-1.));
#444=DIRECTION('',(0.,-1.,0.));
#445=DIRECTION('',(0.,-1.,5.78241158658936E-17));
#446=DIRECTION('',(0.,-5.78241158658936E-17,-1.));
#447=DIRECTION('',(0.,-1.,5.78241158658936E-17));
#448=DIRECTION('',(0.,-5.78241158658936E-17,-1.));
#449=DIRECTION('',(0.,-1.,5.78241158658936E-17));
#450=DIRECTION('',(0.,-1.,5.78241158658936E-17));
#451=DIRECTION('',(0.,-1.,5.78241158658936E-17));
#452=DIRECTION('',(0.,-5.78241158658936E-17,-1.));
#453=DIRECTION('',(0.,-1.,5.78241158658936E-17));
#454=DIRECTION('',(0.,-5.78241158658936E-17,-1.));
#455=DIRECTION('',(0.,-1.,5.78241158658936E-17));
#456=DIRECTION('',(0.,-5.78241158658936E-17,-1.));
#457=DIRECTION('',(0.,0.,1.));
#458=DIRECTION('',(0.,-1.,0.));
#459=DIRECTION('',(0.,1.,-5.78241158658936E-17));
#460=DIRECTION('',(0.,5.78241158658936E-17,1.));
#461=DIRECTION('',(0.,-1.,0.));
#462=DIRECTION('',(0.,0.,-1.));
#463=DIRECTION('',(0.,1.,-5.78241158658936E-17));
#464=DIRECTION('',(0.,5.78241158658936E-17,1.));
#465=DIRECTION('',(0.,-1.,0.));
#466=DIRECTION('',(0.,0.,-1.));
#467=DIRECTION('',(0.,0.,1.));
#468=DIRECTION('',(1.,0.,0.));
#469=DIRECTION('',(0.,0.,1.));
#470=DIRECTION('',(1.,0.,0.));
#471=CARTESIAN_POINT('',(0.,0.,0.));
#472=CARTESIAN_POINT('',(0.015,0.02,-0.008));
#473=CARTESIAN_POINT('',(0.015,0.0166458980337503,-0.008));
#474=CARTESIAN_POINT('',(0.015,0.0166458980337503,-0.011));
#475=CARTESIAN_POINT('',(-0.02,0.02,0.0136778920894277));
#476=CARTESIAN_POINT('',(-0.02,0.0166458980337503,0.0136778920894277));
#477=CARTESIAN_POINT('',(-0.02,0.0166458980337503,0.0106778920894277));
#478=CARTESIAN_POINT('',(0.015,0.02,-0.008));
#479=CARTESIAN_POINT('',(0.015,0.015,-0.008));
#480=CARTESIAN_POINT('',(0.015,0.015,-0.011));
#481=CARTESIAN_POINT('',(-0.02,0.02,0.0136778920894277));
#482=CARTESIAN_POINT('',(-0.02,0.015,0.0136778920894277));
#483=CARTESIAN_POINT('',(-0.02,0.015,0.0106778920894277));
#484=CARTESIAN_POINT('',(0.044,0.,0.00230552686164909));
#485=CARTESIAN_POINT('',(0.04,0.,0.00230552686164909));
#486=CARTESIAN_POINT('',(0.04,0.,5.55268616490904E-5));
#487=CARTESIAN_POINT('',(0.0420156865167016,0.,0.00230552686164909));
#488=CARTESIAN_POINT('',(0.0420156865167016,0.,5.55268616490904E-5));
#489=CARTESIAN_POINT('',(0.04,1.7347234759768E-18,-0.015));
#490=CARTESIAN_POINT('',(-0.02,0.015002,-0.015));
#491=CARTESIAN_POINT('',(-0.02,0.015,-0.015));
#492=CARTESIAN_POINT('',(-0.02,-0.015,-0.015));
#493=CARTESIAN_POINT('',(0.04,0.015,-0.015));
#494=CARTESIAN_POINT('',(0.0150000000000002,0.015,-0.015));
#495=CARTESIAN_POINT('',(0.0150000000000002,0.015002,-0.015));
#496=CARTESIAN_POINT('',(0.0150000000000002,-0.015,-0.015));
#497=CARTESIAN_POINT('',(0.04,-0.015,-0.015));
#498=CARTESIAN_POINT('',(0.04,3.46944695195361E-18,0.));
#499=CARTESIAN_POINT('',(0.04,0.015002,-0.006));
#500=CARTESIAN_POINT('',(0.04,0.015,-0.006));
#501=CARTESIAN_POINT('',(0.04,-0.015,-0.006));
#502=CARTESIAN_POINT('',(0.04,0.015,3.46944695195361E-18));
#503=CARTESIAN_POINT('',(0.04,0.015,0.0106110537232982));
#504=CARTESIAN_POINT('',(0.04,0.015002,0.0106110537232982));
#505=CARTESIAN_POINT('',(0.04,-0.015,0.0106110537232982));
#506=CARTESIAN_POINT('',(0.04,-0.015,8.67361737988404E-19));
#507=CARTESIAN_POINT('',(-0.05,0.,0.003));
#508=CARTESIAN_POINT('',(-0.04,0.,0.003));
#509=CARTESIAN_POINT('',(-0.04,0.,0.008));
#510=CARTESIAN_POINT('',(-0.0444098300562505,0.,0.003));
#511=CARTESIAN_POINT('',(-0.0444098300562505,0.,0.008));
#512=CARTESIAN_POINT('',(0.04,0.015,3.46944695195361E-18));
#513=CARTESIAN_POINT('',(-0.0080785099927507,0.015,0.0438037250181233));
#514=CARTESIAN_POINT('',(-0.04,0.015,-0.007));
#515=CARTESIAN_POINT('',(-0.04,0.015,3.46944695195361E-18));
#516=CARTESIAN_POINT('',(-0.04,0.015,0.015));
#517=CARTESIAN_POINT('',(-0.0143952939548406,0.015,-0.0279464670065062));
#518=CARTESIAN_POINT('',(0.015,0.015,0.0125));
#519=CARTESIAN_POINT('',(0.0208790587909682,0.015,0.0205892934013014));
#520=CARTESIAN_POINT('',(0.0202197159906568,0.015,0.0106110537232981));
#521=CARTESIAN_POINT('',(0.0301098579953283,0.015,0.160284648893346));
#522=CARTESIAN_POINT('',(0.0147203519180241,0.015,0.0249990224499331));
#523=CARTESIAN_POINT('',(0.04,-0.015,8.67361737988404E-19));
#524=CARTESIAN_POINT('',(-0.02,-0.015,0.0136778920894277));
#525=CARTESIAN_POINT('',(-0.02,-0.015,0.0106778920894277));
#526=CARTESIAN_POINT('',(0.015,-0.015,-0.008));
#527=CARTESIAN_POINT('',(0.015,-0.015,-0.011));
#528=CARTESIAN_POINT('',(-0.04,-0.015,8.67361737988404E-19));
#529=CARTESIAN_POINT('',(-0.04,-0.015,0.015));
#530=CARTESIAN_POINT('',(-0.04,-0.015,-0.007));
#531=CARTESIAN_POINT('',(-0.0080785099927507,-0.015,0.0438037250181233));
#532=CARTESIAN_POINT('',(0.0147203519180241,-0.015,0.0249990224499331));
#533=CARTESIAN_POINT('',(0.0301098579953283,-0.015,0.160284648893346));
#534=CARTESIAN_POINT('',(0.0202197159906568,-0.015,0.0106110537232981));
#535=CARTESIAN_POINT('',(0.0208790587909682,-0.015,0.0205892934013014));
#536=CARTESIAN_POINT('',(0.015,-0.015,0.0125));
#537=CARTESIAN_POINT('',(-0.0143952939548406,-0.015,-0.0279464670065062));
#538=CARTESIAN_POINT('',(-0.04,3.46944695195361E-18,0.));
#539=CARTESIAN_POINT('',(-0.04,0.015002,-0.007));
#540=CARTESIAN_POINT('',(-0.04,-2.60208521396521E-18,0.015));
#541=CARTESIAN_POINT('',(-0.05,1.29190981814912E-18,0.003));
#542=CARTESIAN_POINT('',(-0.0080785099927507,0.015002,0.0438037250181233));
#543=CARTESIAN_POINT('',(0.0208790587909682,0.015002,0.0205892934013014));
#544=CARTESIAN_POINT('',(0.015,0.015002,0.0125));
#545=CARTESIAN_POINT('',(0.0202197159906568,0.015002,0.0106110537232981));
#546=CARTESIAN_POINT('',(0.0301098579953283,0.015002,0.160284648893346));
#547=CARTESIAN_POINT('',(-0.0143952939548406,0.015002,-0.0279464670065062));
#548=CARTESIAN_POINT('',(0.0147203519180241,0.015002,0.0249990224499331));
#549=CARTESIAN_POINT('',(0.044,-1.83697019872103E-19,0.00230552686164909));
#550=CARTESIAN_POINT('',(0.015,-0.02,-0.008));
#551=CARTESIAN_POINT('',(0.015,-0.0166458980337503,-0.008));
#552=CARTESIAN_POINT('',(0.015,-0.0166458980337503,-0.011));
#553=CARTESIAN_POINT('',(-0.02,-0.02,0.0136778920894277));
#554=CARTESIAN_POINT('',(-0.02,-0.0166458980337503,0.0136778920894277));
#555=CARTESIAN_POINT('',(-0.02,-0.0166458980337503,0.0106778920894277));
#556=CARTESIAN_POINT('',(-0.02,-0.02,0.0136778920894277));
#557=CARTESIAN_POINT('',(0.015,-0.02,-0.008));
#558=MECHANICAL_DESIGN_GEOMETRIC_PRESENTATION_REPRESENTATION('',(#311),
#559);
#559=(
GEOMETRIC_REPRESENTATION_CONTEXT(3)
GLOBAL_UNCERTAINTY_ASSIGNED_CONTEXT((#560))
GLOBAL_UNIT_ASSIGNED_CONTEXT((#563,#562,#561))
REPRESENTATION_CONTEXT('Body','TOP_LEVEL_ASSEMBLY_PART')
);
#560=UNCERTAINTY_MEASURE_WITH_UNIT(LENGTH_MEASURE(1.E-8),#563,
'DISTANCE_ACCURACY_VALUE','Maximum Tolerance applied to model');
#561=(
NAMED_UNIT(*)
SI_UNIT($,.STERADIAN.)
SOLID_ANGLE_UNIT()
);
#562=(
NAMED_UNIT(*)
PLANE_ANGLE_UNIT()
SI_UNIT($,.RADIAN.)
);
#563=(
LENGTH_UNIT()
NAMED_UNIT(*)
SI_UNIT($,.METRE.)
);
#564=PRODUCT_DEFINITION_SHAPE('','',#565);
#565=PRODUCT_DEFINITION('','',#567,#566);
#566=PRODUCT_DEFINITION_CONTEXT('',#573,'design');
#567=PRODUCT_DEFINITION_FORMATION_WITH_SPECIFIED_SOURCE('','',#569,
 .NOT_KNOWN.);
#568=PRODUCT_RELATED_PRODUCT_CATEGORY('','',(#569));
#569=PRODUCT('Body','Body','Body',(#571));
#570=PRODUCT_CATEGORY('','');
#571=PRODUCT_CONTEXT('',#573,'mechanical');
#572=APPLICATION_PROTOCOL_DEFINITION('international standard',
'ap242_managed_model_based_3d_engineering',2020,#573);
#573=APPLICATION_CONTEXT('managed model based 3d engineering');
ENDSEC;
END-ISO-10303-21;
