ISO-10303-21;
HEADER;
/* Generated by software containing ST-Developer
 * from STEP Tools, Inc. (www.steptools.com) 
 */
/* OPTION: using custom renumber hook */

FILE_DESCRIPTION(
/* description */ ('STEP AP242 Edition 2',
'CAx-IF Rec.Pracs.---Representation and Presentation of Product Manufa
cturing Information (PMI)---4.0---2014-10-13',
'CAx-IF Rec.Pracs.---3D Tessellated Geometry---0.4---2014-09-14','2;1',
'CAx-IF Rec.Pracs.---User Defined Attributes---1.5---2016-08-15'),
/* implementation_level */ '2;1');

FILE_NAME(
/* name */ '696f9a81b3ac312319afba46',
/* time_stamp */ '2026-01-20T15:08:49Z',
/* author */ (''),
/* organization */ (''),
/* preprocessor_version */ 'ST-DEVELOPER v20',
/* originating_system */ 'ONSHAPE BY PTC INC, 1.209',
/* authorisation */ '  ');

FILE_SCHEMA (('AP242_MANAGED_MODEL_BASED_3D_ENGINEERING_MIM_LF { 1 0 10303 442 3 1 4 }'));
ENDSEC;

DATA;
#10=SHAPE_REPRESENTATION_RELATIONSHIP('','',#382,#11);
#11=ADVANCED_BREP_SHAPE_REPRESENTATION('',(#380),#653);
#12=CONICAL_SURFACE('',#410,0.00369022209526952,0.457596414453763);
#13=CONICAL_SURFACE('',#411,0.00408058436015045,0.457596414453766);
#14=SPHERICAL_SURFACE('',#407,0.0043);
#15=SPHERICAL_SURFACE('',#422,0.003);
#16=ELLIPSE('',#399,0.00630298154299705,0.0063);
#17=ELLIPSE('',#418,0.0500236630396588,0.05);
#18=CYLINDRICAL_SURFACE('',#386,0.00225);
#19=CYLINDRICAL_SURFACE('',#398,0.0063);
#20=CYLINDRICAL_SURFACE('',#416,0.05);
#21=CYLINDRICAL_SURFACE('',#424,0.004);
#22=CYLINDRICAL_SURFACE('',#426,0.001);
#23=CIRCLE('',#385,0.00225);
#24=CIRCLE('',#387,0.00225);
#25=CIRCLE('',#388,0.00225);
#26=CIRCLE('',#389,0.00225);
#27=CIRCLE('',#390,0.00225);
#28=CIRCLE('',#392,0.001);
#29=CIRCLE('',#393,0.004);
#30=CIRCLE('',#395,0.0043);
#31=CIRCLE('',#397,0.0043);
#32=CIRCLE('',#400,0.0063);
#33=CIRCLE('',#401,0.0063);
#34=CIRCLE('',#402,0.0063);
#35=CIRCLE('',#404,0.00408058436015044);
#36=CIRCLE('',#406,0.00408058436015045);
#37=CIRCLE('',#408,0.00369022209526952);
#38=CIRCLE('',#409,0.00369022209526952);
#39=CIRCLE('',#413,0.001);
#40=CIRCLE('',#414,0.004);
#41=CIRCLE('',#417,0.05);
#42=ORIENTED_EDGE('',*,*,#144,.F.);
#43=ORIENTED_EDGE('',*,*,#145,.F.);
#44=ORIENTED_EDGE('',*,*,#146,.T.);
#45=ORIENTED_EDGE('',*,*,#145,.T.);
#46=ORIENTED_EDGE('',*,*,#147,.T.);
#47=ORIENTED_EDGE('',*,*,#148,.T.);
#48=ORIENTED_EDGE('',*,*,#149,.F.);
#49=ORIENTED_EDGE('',*,*,#150,.F.);
#50=ORIENTED_EDGE('',*,*,#151,.T.);
#51=ORIENTED_EDGE('',*,*,#152,.T.);
#52=ORIENTED_EDGE('',*,*,#153,.T.);
#53=ORIENTED_EDGE('',*,*,#154,.F.);
#54=ORIENTED_EDGE('',*,*,#147,.F.);
#55=ORIENTED_EDGE('',*,*,#155,.F.);
#56=ORIENTED_EDGE('',*,*,#156,.T.);
#57=ORIENTED_EDGE('',*,*,#157,.T.);
#58=ORIENTED_EDGE('',*,*,#158,.T.);
#59=ORIENTED_EDGE('',*,*,#159,.F.);
#60=ORIENTED_EDGE('',*,*,#160,.T.);
#61=ORIENTED_EDGE('',*,*,#161,.F.);
#62=ORIENTED_EDGE('',*,*,#162,.T.);
#63=ORIENTED_EDGE('',*,*,#163,.T.);
#64=ORIENTED_EDGE('',*,*,#164,.T.);
#65=ORIENTED_EDGE('',*,*,#165,.T.);
#66=ORIENTED_EDGE('',*,*,#166,.F.);
#67=ORIENTED_EDGE('',*,*,#167,.F.);
#68=ORIENTED_EDGE('',*,*,#168,.T.);
#69=ORIENTED_EDGE('',*,*,#169,.F.);
#70=ORIENTED_EDGE('',*,*,#170,.F.);
#71=ORIENTED_EDGE('',*,*,#171,.T.);
#72=ORIENTED_EDGE('',*,*,#158,.F.);
#73=ORIENTED_EDGE('',*,*,#172,.F.);
#74=ORIENTED_EDGE('',*,*,#166,.T.);
#75=ORIENTED_EDGE('',*,*,#157,.F.);
#76=ORIENTED_EDGE('',*,*,#173,.T.);
#77=ORIENTED_EDGE('',*,*,#161,.T.);
#78=ORIENTED_EDGE('',*,*,#172,.T.);
#79=ORIENTED_EDGE('',*,*,#165,.F.);
#80=ORIENTED_EDGE('',*,*,#174,.T.);
#81=ORIENTED_EDGE('',*,*,#159,.T.);
#82=ORIENTED_EDGE('',*,*,#171,.F.);
#83=ORIENTED_EDGE('',*,*,#163,.F.);
#84=ORIENTED_EDGE('',*,*,#175,.T.);
#85=ORIENTED_EDGE('',*,*,#155,.T.);
#86=ORIENTED_EDGE('',*,*,#176,.T.);
#87=ORIENTED_EDGE('',*,*,#162,.F.);
#88=ORIENTED_EDGE('',*,*,#173,.F.);
#89=ORIENTED_EDGE('',*,*,#156,.F.);
#90=ORIENTED_EDGE('',*,*,#175,.F.);
#91=ORIENTED_EDGE('',*,*,#164,.F.);
#92=ORIENTED_EDGE('',*,*,#176,.F.);
#93=ORIENTED_EDGE('',*,*,#160,.F.);
#94=ORIENTED_EDGE('',*,*,#174,.F.);
#95=ORIENTED_EDGE('',*,*,#177,.T.);
#96=ORIENTED_EDGE('',*,*,#178,.T.);
#97=ORIENTED_EDGE('',*,*,#179,.T.);
#98=ORIENTED_EDGE('',*,*,#170,.T.);
#99=ORIENTED_EDGE('',*,*,#180,.F.);
#100=ORIENTED_EDGE('',*,*,#181,.T.);
#101=ORIENTED_EDGE('',*,*,#146,.F.);
#102=ORIENTED_EDGE('',*,*,#182,.F.);
#103=ORIENTED_EDGE('',*,*,#183,.F.);
#104=ORIENTED_EDGE('',*,*,#184,.F.);
#105=ORIENTED_EDGE('',*,*,#185,.F.);
#106=ORIENTED_EDGE('',*,*,#186,.F.);
#107=ORIENTED_EDGE('',*,*,#187,.T.);
#108=ORIENTED_EDGE('',*,*,#183,.T.);
#109=ORIENTED_EDGE('',*,*,#188,.F.);
#110=ORIENTED_EDGE('',*,*,#168,.F.);
#111=ORIENTED_EDGE('',*,*,#189,.T.);
#112=ORIENTED_EDGE('',*,*,#186,.T.);
#113=ORIENTED_EDGE('',*,*,#154,.T.);
#114=ORIENTED_EDGE('',*,*,#190,.T.);
#115=ORIENTED_EDGE('',*,*,#180,.T.);
#116=ORIENTED_EDGE('',*,*,#169,.T.);
#117=ORIENTED_EDGE('',*,*,#188,.T.);
#118=ORIENTED_EDGE('',*,*,#185,.T.);
#119=ORIENTED_EDGE('',*,*,#182,.T.);
#120=ORIENTED_EDGE('',*,*,#191,.T.);
#121=ORIENTED_EDGE('',*,*,#191,.F.);
#122=ORIENTED_EDGE('',*,*,#148,.F.);
#123=ORIENTED_EDGE('',*,*,#149,.T.);
#124=ORIENTED_EDGE('',*,*,#152,.F.);
#125=ORIENTED_EDGE('',*,*,#192,.T.);
#126=ORIENTED_EDGE('',*,*,#177,.F.);
#127=ORIENTED_EDGE('',*,*,#193,.T.);
#128=ORIENTED_EDGE('',*,*,#153,.F.);
#129=ORIENTED_EDGE('',*,*,#193,.F.);
#130=ORIENTED_EDGE('',*,*,#181,.F.);
#131=ORIENTED_EDGE('',*,*,#190,.F.);
#132=ORIENTED_EDGE('',*,*,#179,.F.);
#133=ORIENTED_EDGE('',*,*,#194,.T.);
#134=ORIENTED_EDGE('',*,*,#150,.T.);
#135=ORIENTED_EDGE('',*,*,#144,.T.);
#136=ORIENTED_EDGE('',*,*,#184,.T.);
#137=ORIENTED_EDGE('',*,*,#187,.F.);
#138=ORIENTED_EDGE('',*,*,#189,.F.);
#139=ORIENTED_EDGE('',*,*,#167,.T.);
#140=ORIENTED_EDGE('',*,*,#178,.F.);
#141=ORIENTED_EDGE('',*,*,#192,.F.);
#142=ORIENTED_EDGE('',*,*,#151,.F.);
#143=ORIENTED_EDGE('',*,*,#194,.F.);
#144=EDGE_CURVE('',#195,#196,#228,.T.);
#145=EDGE_CURVE('',#196,#195,#23,.T.);
#146=EDGE_CURVE('',#197,#196,#24,.T.);
#147=EDGE_CURVE('',#195,#198,#25,.T.);
#148=EDGE_CURVE('',#198,#197,#26,.T.);
#149=EDGE_CURVE('',#199,#199,#27,.T.);
#150=EDGE_CURVE('',#200,#195,#229,.T.);
#151=EDGE_CURVE('',#200,#201,#28,.T.);
#152=EDGE_CURVE('',#201,#202,#230,.T.);
#153=EDGE_CURVE('',#202,#203,#29,.T.);
#154=EDGE_CURVE('',#198,#203,#231,.T.);
#155=EDGE_CURVE('',#204,#205,#30,.T.);
#156=EDGE_CURVE('',#204,#206,#232,.F.);
#157=EDGE_CURVE('',#206,#207,#233,.T.);
#158=EDGE_CURVE('',#207,#208,#234,.T.);
#159=EDGE_CURVE('',#209,#208,#235,.T.);
#160=EDGE_CURVE('',#209,#205,#236,.F.);
#161=EDGE_CURVE('',#210,#211,#237,.T.);
#162=EDGE_CURVE('',#210,#212,#238,.T.);
#163=EDGE_CURVE('',#212,#213,#31,.T.);
#164=EDGE_CURVE('',#213,#214,#239,.T.);
#165=EDGE_CURVE('',#214,#215,#240,.T.);
#166=EDGE_CURVE('',#211,#215,#241,.T.);
#167=EDGE_CURVE('',#216,#217,#16,.T.);
#168=EDGE_CURVE('',#216,#218,#242,.T.);
#169=EDGE_CURVE('',#219,#218,#32,.T.);
#170=EDGE_CURVE('',#217,#219,#243,.T.);
#171=EDGE_CURVE('',#215,#208,#33,.T.);
#172=EDGE_CURVE('',#211,#207,#34,.T.);
#173=EDGE_CURVE('',#206,#210,#35,.F.);
#174=EDGE_CURVE('',#214,#209,#36,.T.);
#175=EDGE_CURVE('',#212,#204,#37,.F.);
#176=EDGE_CURVE('',#205,#213,#38,.F.);
#177=EDGE_CURVE('',#220,#221,#244,.T.);
#178=EDGE_CURVE('',#221,#222,#39,.T.);
#179=EDGE_CURVE('',#222,#217,#245,.T.);
#180=EDGE_CURVE('',#223,#219,#246,.T.);
#181=EDGE_CURVE('',#223,#220,#40,.T.);
#182=EDGE_CURVE('',#224,#197,#247,.T.);
#183=EDGE_CURVE('',#225,#224,#248,.T.);
#184=EDGE_CURVE('',#196,#225,#249,.T.);
#185=EDGE_CURVE('',#226,#224,#41,.T.);
#186=EDGE_CURVE('',#227,#226,#250,.T.);
#187=EDGE_CURVE('',#227,#225,#17,.F.);
#188=EDGE_CURVE('',#218,#226,#251,.T.);
#189=EDGE_CURVE('',#216,#227,#252,.T.);
#190=EDGE_CURVE('',#203,#223,#253,.T.);
#191=EDGE_CURVE('',#197,#198,#254,.T.);
#192=EDGE_CURVE('',#201,#221,#255,.F.);
#193=EDGE_CURVE('',#220,#202,#256,.F.);
#194=EDGE_CURVE('',#222,#200,#257,.T.);
#195=VERTEX_POINT('',#548);
#196=VERTEX_POINT('',#549);
#197=VERTEX_POINT('',#553);
#198=VERTEX_POINT('',#555);
#199=VERTEX_POINT('',#558);
#200=VERTEX_POINT('',#561);
#201=VERTEX_POINT('',#563);
#202=VERTEX_POINT('',#565);
#203=VERTEX_POINT('',#567);
#204=VERTEX_POINT('',#571);
#205=VERTEX_POINT('',#572);
#206=VERTEX_POINT('',#574);
#207=VERTEX_POINT('',#576);
#208=VERTEX_POINT('',#578);
#209=VERTEX_POINT('',#580);
#210=VERTEX_POINT('',#584);
#211=VERTEX_POINT('',#585);
#212=VERTEX_POINT('',#587);
#213=VERTEX_POINT('',#589);
#214=VERTEX_POINT('',#591);
#215=VERTEX_POINT('',#593);
#216=VERTEX_POINT('',#597);
#217=VERTEX_POINT('',#598);
#218=VERTEX_POINT('',#600);
#219=VERTEX_POINT('',#602);
#220=VERTEX_POINT('',#617);
#221=VERTEX_POINT('',#618);
#222=VERTEX_POINT('',#620);
#223=VERTEX_POINT('',#623);
#224=VERTEX_POINT('',#627);
#225=VERTEX_POINT('',#629);
#226=VERTEX_POINT('',#633);
#227=VERTEX_POINT('',#635);
#228=LINE('',#547,#258);
#229=LINE('',#560,#259);
#230=LINE('',#564,#260);
#231=LINE('',#568,#261);
#232=LINE('',#573,#262);
#233=LINE('',#575,#263);
#234=LINE('',#577,#264);
#235=LINE('',#579,#265);
#236=LINE('',#581,#266);
#237=LINE('',#583,#267);
#238=LINE('',#586,#268);
#239=LINE('',#590,#269);
#240=LINE('',#592,#270);
#241=LINE('',#594,#271);
#242=LINE('',#599,#272);
#243=LINE('',#603,#273);
#244=LINE('',#616,#274);
#245=LINE('',#621,#275);
#246=LINE('',#622,#276);
#247=LINE('',#626,#277);
#248=LINE('',#628,#278);
#249=LINE('',#630,#279);
#250=LINE('',#634,#280);
#251=LINE('',#638,#281);
#252=LINE('',#639,#282);
#253=LINE('',#641,#283);
#254=LINE('',#642,#284);
#255=LINE('',#646,#285);
#256=LINE('',#647,#286);
#257=LINE('',#650,#287);
#258=VECTOR('',#431,1.);
#259=VECTOR('',#446,1.);
#260=VECTOR('',#449,1.);
#261=VECTOR('',#452,1.);
#262=VECTOR('',#457,1.);
#263=VECTOR('',#458,1.);
#264=VECTOR('',#459,1.);
#265=VECTOR('',#460,1.);
#266=VECTOR('',#461,1.);
#267=VECTOR('',#464,1.);
#268=VECTOR('',#465,1.);
#269=VECTOR('',#468,1.);
#270=VECTOR('',#469,1.);
#271=VECTOR('',#470,1.);
#272=VECTOR('',#475,1.);
#273=VECTOR('',#478,1.);
#274=VECTOR('',#503,1.);
#275=VECTOR('',#506,1.);
#276=VECTOR('',#507,1.);
#277=VECTOR('',#512,1.);
#278=VECTOR('',#513,1.);
#279=VECTOR('',#514,1.);
#280=VECTOR('',#519,1.);
#281=VECTOR('',#524,1.);
#282=VECTOR('',#525,1.);
#283=VECTOR('',#528,1.);
#284=VECTOR('',#529,1.);
#285=VECTOR('',#536,1.);
#286=VECTOR('',#537,1.);
#287=VECTOR('',#542,1.);
#288=EDGE_LOOP('',(#42,#43));
#289=EDGE_LOOP('',(#44,#45,#46,#47));
#290=EDGE_LOOP('',(#48));
#291=EDGE_LOOP('',(#49,#50,#51,#52,#53,#54));
#292=EDGE_LOOP('',(#55,#56,#57,#58,#59,#60));
#293=EDGE_LOOP('',(#61,#62,#63,#64,#65,#66));
#294=EDGE_LOOP('',(#67,#68,#69,#70));
#295=EDGE_LOOP('',(#71,#72,#73,#74));
#296=EDGE_LOOP('',(#75,#76,#77,#78));
#297=EDGE_LOOP('',(#79,#80,#81,#82));
#298=EDGE_LOOP('',(#83,#84,#85,#86));
#299=EDGE_LOOP('',(#87,#88,#89,#90));
#300=EDGE_LOOP('',(#91,#92,#93,#94));
#301=EDGE_LOOP('',(#95,#96,#97,#98,#99,#100));
#302=EDGE_LOOP('',(#101,#102,#103,#104));
#303=EDGE_LOOP('',(#105,#106,#107,#108));
#304=EDGE_LOOP('',(#109,#110,#111,#112));
#305=EDGE_LOOP('',(#113,#114,#115,#116,#117,#118,#119,#120));
#306=EDGE_LOOP('',(#121,#122));
#307=EDGE_LOOP('',(#123));
#308=EDGE_LOOP('',(#124,#125,#126,#127));
#309=EDGE_LOOP('',(#128,#129,#130,#131));
#310=EDGE_LOOP('',(#132,#133,#134,#135,#136,#137,#138,#139));
#311=EDGE_LOOP('',(#140,#141,#142,#143));
#312=FACE_BOUND('',#288,.T.);
#313=FACE_BOUND('',#289,.T.);
#314=FACE_BOUND('',#290,.T.);
#315=FACE_BOUND('',#291,.T.);
#316=FACE_BOUND('',#292,.T.);
#317=FACE_BOUND('',#293,.T.);
#318=FACE_BOUND('',#294,.T.);
#319=FACE_BOUND('',#295,.T.);
#320=FACE_BOUND('',#296,.T.);
#321=FACE_BOUND('',#297,.T.);
#322=FACE_BOUND('',#298,.T.);
#323=FACE_BOUND('',#299,.T.);
#324=FACE_BOUND('',#300,.T.);
#325=FACE_BOUND('',#301,.T.);
#326=FACE_BOUND('',#302,.T.);
#327=FACE_BOUND('',#303,.T.);
#328=FACE_BOUND('',#304,.T.);
#329=FACE_BOUND('',#305,.T.);
#330=FACE_BOUND('',#306,.T.);
#331=FACE_BOUND('',#307,.T.);
#332=FACE_BOUND('',#308,.T.);
#333=FACE_BOUND('',#309,.T.);
#334=FACE_BOUND('',#310,.T.);
#335=FACE_BOUND('',#311,.T.);
#336=PLANE('',#384);
#337=PLANE('',#391);
#338=PLANE('',#394);
#339=PLANE('',#396);
#340=PLANE('',#403);
#341=PLANE('',#405);
#342=PLANE('',#412);
#343=PLANE('',#415);
#344=PLANE('',#419);
#345=PLANE('',#420);
#346=PLANE('',#421);
#347=PLANE('',#423);
#348=PLANE('',#425);
#349=ADVANCED_FACE('',(#312),#336,.F.);
#350=ADVANCED_FACE('',(#313,#314),#18,.T.);
#351=ADVANCED_FACE('',(#315),#337,.T.);
#352=ADVANCED_FACE('',(#316),#338,.T.);
#353=ADVANCED_FACE('',(#317),#339,.F.);
#354=ADVANCED_FACE('',(#318,#319),#19,.T.);
#355=ADVANCED_FACE('',(#320),#340,.T.);
#356=ADVANCED_FACE('',(#321),#341,.F.);
#357=ADVANCED_FACE('',(#322),#14,.F.);
#358=ADVANCED_FACE('',(#323),#12,.F.);
#359=ADVANCED_FACE('',(#324),#13,.F.);
#360=ADVANCED_FACE('',(#325),#342,.T.);
#361=ADVANCED_FACE('',(#326),#343,.T.);
#362=ADVANCED_FACE('',(#327),#20,.F.);
#363=ADVANCED_FACE('',(#328),#344,.T.);
#364=ADVANCED_FACE('',(#329),#345,.F.);
#365=ADVANCED_FACE('',(#330),#346,.F.);
#366=ADVANCED_FACE('',(#331),#15,.T.);
#367=ADVANCED_FACE('',(#332),#347,.T.);
#368=ADVANCED_FACE('',(#333),#21,.T.);
#369=ADVANCED_FACE('',(#334),#348,.F.);
#370=ADVANCED_FACE('',(#335),#22,.T.);
#371=CLOSED_SHELL('',(#349,#350,#351,#352,#353,#354,#355,#356,#357,#358,
#359,#360,#361,#362,#363,#364,#365,#366,#367,#368,#369,#370));
#372=STYLED_ITEM('',(#373),#380);
#373=PRESENTATION_STYLE_ASSIGNMENT((#374));
#374=SURFACE_STYLE_USAGE(.BOTH.,#375);
#375=SURFACE_SIDE_STYLE('',(#376));
#376=SURFACE_STYLE_FILL_AREA(#377);
#377=FILL_AREA_STYLE('',(#378));
#378=FILL_AREA_STYLE_COLOUR('',#379);
#379=COLOUR_RGB('',0.768627450980392,0.886274509803922,0.952941176470588);
#380=MANIFOLD_SOLID_BREP('Left Wing One',#371);
#381=SHAPE_DEFINITION_REPRESENTATION(#658,#382);
#382=SHAPE_REPRESENTATION('Left Wing One',(#383),#653);
#383=AXIS2_PLACEMENT_3D('',#545,#427,#428);
#384=AXIS2_PLACEMENT_3D('',#546,#429,#430);
#385=AXIS2_PLACEMENT_3D('',#550,#432,#433);
#386=AXIS2_PLACEMENT_3D('',#551,#434,#435);
#387=AXIS2_PLACEMENT_3D('',#552,#436,#437);
#388=AXIS2_PLACEMENT_3D('',#554,#438,#439);
#389=AXIS2_PLACEMENT_3D('',#556,#440,#441);
#390=AXIS2_PLACEMENT_3D('',#557,#442,#443);
#391=AXIS2_PLACEMENT_3D('',#559,#444,#445);
#392=AXIS2_PLACEMENT_3D('',#562,#447,#448);
#393=AXIS2_PLACEMENT_3D('',#566,#450,#451);
#394=AXIS2_PLACEMENT_3D('',#569,#453,#454);
#395=AXIS2_PLACEMENT_3D('',#570,#455,#456);
#396=AXIS2_PLACEMENT_3D('',#582,#462,#463);
#397=AXIS2_PLACEMENT_3D('',#588,#466,#467);
#398=AXIS2_PLACEMENT_3D('',#595,#471,#472);
#399=AXIS2_PLACEMENT_3D('',#596,#473,#474);
#400=AXIS2_PLACEMENT_3D('',#601,#476,#477);
#401=AXIS2_PLACEMENT_3D('',#604,#479,#480);
#402=AXIS2_PLACEMENT_3D('',#605,#481,#482);
#403=AXIS2_PLACEMENT_3D('',#606,#483,#484);
#404=AXIS2_PLACEMENT_3D('',#607,#485,#486);
#405=AXIS2_PLACEMENT_3D('',#608,#487,#488);
#406=AXIS2_PLACEMENT_3D('',#609,#489,#490);
#407=AXIS2_PLACEMENT_3D('',#610,#491,#492);
#408=AXIS2_PLACEMENT_3D('',#611,#493,#494);
#409=AXIS2_PLACEMENT_3D('',#612,#495,#496);
#410=AXIS2_PLACEMENT_3D('',#613,#497,#498);
#411=AXIS2_PLACEMENT_3D('',#614,#499,#500);
#412=AXIS2_PLACEMENT_3D('',#615,#501,#502);
#413=AXIS2_PLACEMENT_3D('',#619,#504,#505);
#414=AXIS2_PLACEMENT_3D('',#624,#508,#509);
#415=AXIS2_PLACEMENT_3D('',#625,#510,#511);
#416=AXIS2_PLACEMENT_3D('',#631,#515,#516);
#417=AXIS2_PLACEMENT_3D('',#632,#517,#518);
#418=AXIS2_PLACEMENT_3D('',#636,#520,#521);
#419=AXIS2_PLACEMENT_3D('',#637,#522,#523);
#420=AXIS2_PLACEMENT_3D('',#640,#526,#527);
#421=AXIS2_PLACEMENT_3D('',#643,#530,#531);
#422=AXIS2_PLACEMENT_3D('',#644,#532,#533);
#423=AXIS2_PLACEMENT_3D('',#645,#534,#535);
#424=AXIS2_PLACEMENT_3D('',#648,#538,#539);
#425=AXIS2_PLACEMENT_3D('',#649,#540,#541);
#426=AXIS2_PLACEMENT_3D('',#651,#543,#544);
#427=DIRECTION('',(0.,0.,1.));
#428=DIRECTION('',(1.,0.,0.));
#429=DIRECTION('',(9.91270557701033E-17,-1.,0.));
#430=DIRECTION('',(1.,9.91270557701033E-17,0.));
#431=DIRECTION('',(0.999526963076654,9.90801650126214E-17,-0.0307546757869739));
#432=DIRECTION('',(9.91270557701033E-17,-1.,0.));
#433=DIRECTION('',(1.,9.91270557701033E-17,0.));
#434=DIRECTION('',(-9.91270557701033E-17,1.,0.));
#435=DIRECTION('',(-1.,-9.91270557701033E-17,0.));
#436=DIRECTION('',(9.91270557701033E-17,-1.,0.));
#437=DIRECTION('',(1.,9.91270557701033E-17,0.));
#438=DIRECTION('',(9.91270557701033E-17,-1.,0.));
#439=DIRECTION('',(1.,9.91270557701033E-17,0.));
#440=DIRECTION('',(9.91270557701033E-17,-1.,0.));
#441=DIRECTION('',(1.,9.91270557701033E-17,0.));
#442=DIRECTION('',(0.,-1.,0.));
#443=DIRECTION('',(0.,0.,-1.));
#444=DIRECTION('',(9.91270557701033E-17,-1.,0.));
#445=DIRECTION('',(1.,9.91270557701033E-17,0.));
#446=DIRECTION('',(0.999526963076654,9.90801650126214E-17,-0.0307546757869739));
#447=DIRECTION('',(9.91270557701033E-17,-1.,0.));
#448=DIRECTION('',(1.,9.91270557701033E-17,0.));
#449=DIRECTION('',(-1.,-9.91270557701033E-17,0.));
#450=DIRECTION('',(9.91270557701033E-17,-1.,0.));
#451=DIRECTION('',(1.,9.91270557701033E-17,0.));
#452=DIRECTION('',(-1.,-9.91270557701033E-17,0.));
#453=DIRECTION('',(-0.555570233019601,0.831469612302546,0.));
#454=DIRECTION('',(-0.831469612302546,-0.555570233019601,0.));
#455=DIRECTION('',(-0.555570233019601,0.831469612302546,0.));
#456=DIRECTION('',(-0.831469612302546,-0.555570233019601,0.));
#457=DIRECTION('',(-0.367337527443044,-0.245447088743536,-0.897116975404743));
#458=DIRECTION('',(0.831469612302546,0.555570233019601,0.));
#459=DIRECTION('',(0.,0.,-1.));
#460=DIRECTION('',(0.831469612302546,0.555570233019601,0.));
#461=DIRECTION('',(0.367337527443047,0.245447088743538,-0.897116975404742));
#462=DIRECTION('',(-0.555570233019603,-0.831469612302545,0.));
#463=DIRECTION('',(0.831469612302545,-0.555570233019603,0.));
#464=DIRECTION('',(-0.831469612302545,0.555570233019603,0.));
#465=DIRECTION('',(0.367337527443044,-0.245447088743537,-0.897116975404743));
#466=DIRECTION('',(-0.555570233019603,-0.831469612302545,0.));
#467=DIRECTION('',(0.831469612302545,-0.555570233019603,0.));
#468=DIRECTION('',(-0.367337527443046,0.245447088743538,-0.897116975404741));
#469=DIRECTION('',(-0.831469612302545,0.555570233019603,0.));
#470=DIRECTION('',(0.,0.,-1.));
#471=DIRECTION('',(0.,0.,-1.));
#472=DIRECTION('',(-1.,0.,0.));
#473=DIRECTION('',(-0.0307546757869739,-3.04862046192681E-18,-0.999526963076654));
#474=DIRECTION('',(0.999526963076654,9.90801650126214E-17,-0.030754675786974));
#475=DIRECTION('',(0.,0.,-1.));
#476=DIRECTION('',(0.,0.,1.));
#477=DIRECTION('',(1.,0.,0.));
#478=DIRECTION('',(0.,0.,-1.));
#479=DIRECTION('',(0.,0.,1.));
#480=DIRECTION('',(1.,0.,0.));
#481=DIRECTION('',(0.,0.,1.));
#482=DIRECTION('',(1.,0.,0.));
#483=DIRECTION('',(0.,0.,1.));
#484=DIRECTION('',(1.,0.,0.));
#485=DIRECTION('',(0.,0.,1.));
#486=DIRECTION('',(1.,0.,0.));
#487=DIRECTION('',(0.,0.,1.));
#488=DIRECTION('',(1.,0.,0.));
#489=DIRECTION('',(0.,0.,1.));
#490=DIRECTION('',(1.,0.,0.));
#491=DIRECTION('',(0.,1.,0.));
#492=DIRECTION('',(1.,0.,0.));
#493=DIRECTION('',(0.,0.,-1.));
#494=DIRECTION('',(-1.,0.,0.));
#495=DIRECTION('',(0.,0.,1.));
#496=DIRECTION('',(1.,0.,0.));
#497=DIRECTION('',(0.,0.,1.));
#498=DIRECTION('',(1.,0.,0.));
#499=DIRECTION('',(0.,0.,-1.));
#500=DIRECTION('',(-1.,0.,0.));
#501=DIRECTION('',(0.,1.,0.));
#502=DIRECTION('',(0.,0.,1.));
#503=DIRECTION('',(1.,0.,0.));
#504=DIRECTION('',(0.,1.,0.));
#505=DIRECTION('',(0.,0.,1.));
#506=DIRECTION('',(0.999526963076654,0.,-0.030754675786974));
#507=DIRECTION('',(1.,0.,0.));
#508=DIRECTION('',(0.,1.,0.));
#509=DIRECTION('',(0.,0.,1.));
#510=DIRECTION('',(9.91270557701033E-17,-1.,0.));
#511=DIRECTION('',(1.,9.91270557701033E-17,0.));
#512=DIRECTION('',(-1.,-9.91270557701033E-17,0.));
#513=DIRECTION('',(0.,0.,-1.));
#514=DIRECTION('',(0.999526963076654,9.90801650126214E-17,-0.0307546757869739));
#515=DIRECTION('',(0.,0.,-1.));
#516=DIRECTION('',(-1.,0.,0.));
#517=DIRECTION('',(0.,0.,1.));
#518=DIRECTION('',(1.,0.,0.));
#519=DIRECTION('',(0.,0.,-1.));
#520=DIRECTION('',(-0.0307546757869739,-3.04862046192681E-18,-0.999526963076654));
#521=DIRECTION('',(0.999526963076654,9.90801650126214E-17,-0.030754675786974));
#522=DIRECTION('',(0.,1.,0.));
#523=DIRECTION('',(0.,0.,1.));
#524=DIRECTION('',(1.,0.,0.));
#525=DIRECTION('',(0.999526963076654,0.,-0.030754675786974));
#526=DIRECTION('',(0.,0.,1.));
#527=DIRECTION('',(1.,0.,0.));
#528=DIRECTION('',(0.,1.,0.));
#529=DIRECTION('',(-1.,-9.91270557701033E-17,0.));
#530=DIRECTION('',(9.91270557701033E-17,-1.,0.));
#531=DIRECTION('',(1.,9.91270557701033E-17,0.));
#532=DIRECTION('',(0.,0.,1.));
#533=DIRECTION('',(1.,9.91270557701033E-17,0.));
#534=DIRECTION('',(0.,0.,1.));
#535=DIRECTION('',(1.,0.,0.));
#536=DIRECTION('',(9.91270557701033E-17,-1.,0.));
#537=DIRECTION('',(0.,1.,0.));
#538=DIRECTION('',(0.,1.,0.));
#539=DIRECTION('',(0.,0.,1.));
#540=DIRECTION('',(-0.0307546757869739,-3.04862046192681E-18,-0.999526963076654));
#541=DIRECTION('',(-0.999526963076654,0.,0.030754675786974));
#542=DIRECTION('',(9.91270557701033E-17,-1.,-3.85373195420613E-34));
#543=DIRECTION('',(-9.91270557701033E-17,1.,0.));
#544=DIRECTION('',(-1.,-9.91270557701033E-17,0.));
#545=CARTESIAN_POINT('',(0.,0.,0.));
#546=CARTESIAN_POINT('',(-0.008,-0.06,0.0136778920894277));
#547=CARTESIAN_POINT('',(-0.0055,-0.06,0.0151778920894277));
#548=CARTESIAN_POINT('',(-0.0210703777494642,-0.06,0.015656980635565));
#549=CARTESIAN_POINT('',(-0.0188099722150665,-0.06,0.0155874296960451));
#550=CARTESIAN_POINT('',(-0.02,-0.06,0.0136778920894277));
#551=CARTESIAN_POINT('',(-0.02,-0.0645,0.0136778920894277));
#552=CARTESIAN_POINT('',(-0.02,-0.06,0.0136778920894277));
#553=CARTESIAN_POINT('',(-0.017806258903152,-0.06,0.0131778920894277));
#554=CARTESIAN_POINT('',(-0.02,-0.06,0.0136778920894277));
#555=CARTESIAN_POINT('',(-0.022193741096848,-0.06,0.0131778920894277));
#556=CARTESIAN_POINT('',(-0.02,-0.06,0.0136778920894277));
#557=CARTESIAN_POINT('',(-0.02,-0.0625156865167016,0.0136778920894277));
#558=CARTESIAN_POINT('',(-0.02,-0.0625156865167016,0.0114278920894277));
#559=CARTESIAN_POINT('',(-0.008,-0.06,0.0141778920894277));
#560=CARTESIAN_POINT('',(-0.0055,-0.06,0.0151778920894277));
#561=CARTESIAN_POINT('',(-0.0379846262999912,-0.06,0.0161774190525043));
#562=CARTESIAN_POINT('',(-0.0380153809757782,-0.06,0.0151778920894277));
#563=CARTESIAN_POINT('',(-0.0380153809757782,-0.06,0.0161778920894277));
#564=CARTESIAN_POINT('',(-0.008,-0.06,0.0161778920894277));
#565=CARTESIAN_POINT('',(-0.039,-0.06,0.0161778920894277));
#566=CARTESIAN_POINT('',(-0.039,-0.06,0.0121778920894277));
#567=CARTESIAN_POINT('',(-0.0428729833462074,-0.06,0.0131778920894277));
#568=CARTESIAN_POINT('',(-0.008,-0.06,0.0131778920894277));
#569=CARTESIAN_POINT('',(-0.0155932110547965,-0.0170554777649961,0.0166778920894277));
#570=CARTESIAN_POINT('',(-0.02,-0.02,0.0136778920894277));
#571=CARTESIAN_POINT('',(-0.016931692465136,-0.017949822450637,0.0158852119320388));
#572=CARTESIAN_POINT('',(-0.016931692465136,-0.017949822450637,0.0114705722468166));
#573=CARTESIAN_POINT('',(-0.02,-0.02,0.00839174728537098));
#574=CARTESIAN_POINT('',(-0.0166071181040979,-0.0177329487961751,0.0166778920894277));
#575=CARTESIAN_POINT('',(-0.0155932110547965,-0.0170554777649961,0.0166778920894277));
#576=CARTESIAN_POINT('',(-0.014761741442494,-0.0164999075319765,0.0166778920894277));
#577=CARTESIAN_POINT('',(-0.014761741442494,-0.0164999075319765,0.0166778920894277));
#578=CARTESIAN_POINT('',(-0.014761741442494,-0.0164999075319765,0.0106778920894277));
#579=CARTESIAN_POINT('',(-0.0155932110547965,-0.0170554777649961,0.0106778920894277));
#580=CARTESIAN_POINT('',(-0.0166071181040979,-0.0177329487961751,0.0106778920894277));
#581=CARTESIAN_POINT('',(-0.02,-0.02,0.0189640368934844));
#582=CARTESIAN_POINT('',(-0.0244067889452035,-0.0170554777649961,0.0166778920894277));
#583=CARTESIAN_POINT('',(-0.0244067889452035,-0.0170554777649961,0.0166778920894277));
#584=CARTESIAN_POINT('',(-0.0233928818959021,-0.0177329487961751,0.0166778920894277));
#585=CARTESIAN_POINT('',(-0.025238258557506,-0.0164999075319765,0.0166778920894277));
#586=CARTESIAN_POINT('',(-0.02,-0.02,0.00839174728537098));
#587=CARTESIAN_POINT('',(-0.023068307534864,-0.017949822450637,0.0158852119320388));
#588=CARTESIAN_POINT('',(-0.02,-0.02,0.0136778920894277));
#589=CARTESIAN_POINT('',(-0.023068307534864,-0.017949822450637,0.0114705722468166));
#590=CARTESIAN_POINT('',(-0.02,-0.02,0.0189640368934844));
#591=CARTESIAN_POINT('',(-0.0233928818959021,-0.0177329487961751,0.0106778920894277));
#592=CARTESIAN_POINT('',(-0.0244067889452035,-0.0170554777649961,0.0106778920894277));
#593=CARTESIAN_POINT('',(-0.025238258557506,-0.0164999075319765,0.0106778920894277));
#594=CARTESIAN_POINT('',(-0.025238258557506,-0.0164999075319765,0.0166778920894277));
#595=CARTESIAN_POINT('',(-0.02,-0.02,0.0166778920894277));
#596=CARTESIAN_POINT('',(-0.02,-0.02,0.0156240459355816));
#597=CARTESIAN_POINT('',(-0.0137,-0.02,0.0154301997817354));
#598=CARTESIAN_POINT('',(-0.0263,-0.02,0.0158178920894277));
#599=CARTESIAN_POINT('',(-0.0137,-0.02,0.0141778920894277));
#600=CARTESIAN_POINT('',(-0.0137,-0.02,0.0131778920894277));
#601=CARTESIAN_POINT('',(-0.02,-0.02,0.0131778920894277));
#602=CARTESIAN_POINT('',(-0.0263,-0.02,0.0131778920894277));
#603=CARTESIAN_POINT('',(-0.0263,-0.02,0.0141778920894277));
#604=CARTESIAN_POINT('',(-0.02,-0.02,0.0106778920894277));
#605=CARTESIAN_POINT('',(-0.02,-0.02,0.0166778920894277));
#606=CARTESIAN_POINT('',(-0.02,-0.02,0.0166778920894277));
#607=CARTESIAN_POINT('',(-0.02,-0.02,0.0166778920894277));
#608=CARTESIAN_POINT('',(-0.02,-0.02,0.0106778920894277));
#609=CARTESIAN_POINT('',(-0.02,-0.02,0.0106778920894277));
#610=CARTESIAN_POINT('',(-0.02,-0.02,0.0136778920894277));
#611=CARTESIAN_POINT('',(-0.02,-0.02,0.0158852119320388));
#612=CARTESIAN_POINT('',(-0.02,-0.02,0.0114705722468166));
#613=CARTESIAN_POINT('',(-0.02,-0.02,0.0158852119320388));
#614=CARTESIAN_POINT('',(-0.02,-0.02,0.0106778920894277));
#615=CARTESIAN_POINT('',(-0.02765,-0.02,0.0141778920894277));
#616=CARTESIAN_POINT('',(-0.02765,-0.02,0.0161778920894277));
#617=CARTESIAN_POINT('',(-0.039,-0.02,0.0161778920894277));
#618=CARTESIAN_POINT('',(-0.0380153809757782,-0.02,0.0161778920894277));
#619=CARTESIAN_POINT('',(-0.0380153809757782,-0.02,0.0151778920894277));
#620=CARTESIAN_POINT('',(-0.0379846262999913,-0.02,0.0161774190525043));
#621=CARTESIAN_POINT('',(-0.0055,-0.02,0.0151778920894277));
#622=CARTESIAN_POINT('',(-0.02765,-0.02,0.0131778920894277));
#623=CARTESIAN_POINT('',(-0.0428729833462074,-0.02,0.0131778920894277));
#624=CARTESIAN_POINT('',(-0.039,-0.02,0.0121778920894277));
#625=CARTESIAN_POINT('',(-0.008,-0.06,0.0141778920894277));
#626=CARTESIAN_POINT('',(-0.008,-0.06,0.0131778920894277));
#627=CARTESIAN_POINT('',(0.027,-0.06,0.0131778920894277));
#628=CARTESIAN_POINT('',(0.027,-0.06,0.0141778920894277));
#629=CARTESIAN_POINT('',(0.027,-0.06,0.0141778920894277));
#630=CARTESIAN_POINT('',(-0.0055,-0.06,0.0151778920894277));
#631=CARTESIAN_POINT('',(0.0382334326000299,-0.0112782390299716,0.0141778920894277));
#632=CARTESIAN_POINT('',(0.0382334326000299,-0.0112782390299716,0.0131778920894277));
#633=CARTESIAN_POINT('',(-0.011,-0.02,0.0131778920894277));
#634=CARTESIAN_POINT('',(-0.011,-0.02,0.0141778920894277));
#635=CARTESIAN_POINT('',(-0.011,-0.02,0.0153471228586585));
#636=CARTESIAN_POINT('',(0.0382334326000299,-0.0112782390299716,0.0138322480094268));
#637=CARTESIAN_POINT('',(-0.01235,-0.02,0.0141778920894277));
#638=CARTESIAN_POINT('',(-0.01235,-0.02,0.0131778920894277));
#639=CARTESIAN_POINT('',(-0.0055,-0.02,0.0151778920894277));
#640=CARTESIAN_POINT('',(-0.008,-0.0382499537659882,0.0131778920894277));
#641=CARTESIAN_POINT('',(-0.0428729833462074,-0.04,0.0131778920894277));
#642=CARTESIAN_POINT('',(-0.008,-0.06,0.0131778920894277));
#643=CARTESIAN_POINT('',(-0.008,-0.06,0.0136778920894277));
#644=CARTESIAN_POINT('',(-0.02,-0.0645,0.0136778920894277));
#645=CARTESIAN_POINT('',(-0.008,-0.04,0.0161778920894277));
#646=CARTESIAN_POINT('',(-0.0380153809757782,-0.02,0.0161778920894277));
#647=CARTESIAN_POINT('',(-0.039,-0.04,0.0161778920894277));
#648=CARTESIAN_POINT('',(-0.039,-0.04,0.0121778920894277));
#649=CARTESIAN_POINT('',(-0.0055,-0.019998,0.0151778920894277));
#650=CARTESIAN_POINT('',(-0.0379846262999912,-0.06,0.0161774190525043));
#651=CARTESIAN_POINT('',(-0.0380153809757782,-0.019998,0.0151778920894277));
#652=MECHANICAL_DESIGN_GEOMETRIC_PRESENTATION_REPRESENTATION('',(#372),
#653);
#653=(
GEOMETRIC_REPRESENTATION_CONTEXT(3)
GLOBAL_UNCERTAINTY_ASSIGNED_CONTEXT((#654))
GLOBAL_UNIT_ASSIGNED_CONTEXT((#657,#656,#655))
REPRESENTATION_CONTEXT('Left Wing One','TOP_LEVEL_ASSEMBLY_PART')
);
#654=UNCERTAINTY_MEASURE_WITH_UNIT(LENGTH_MEASURE(1.E-8),#657,
'DISTANCE_ACCURACY_VALUE','Maximum Tolerance applied to model');
#655=(
NAMED_UNIT(*)
SI_UNIT($,.STERADIAN.)
SOLID_ANGLE_UNIT()
);
#656=(
NAMED_UNIT(*)
PLANE_ANGLE_UNIT()
SI_UNIT($,.RADIAN.)
);
#657=(
LENGTH_UNIT()
NAMED_UNIT(*)
SI_UNIT($,.METRE.)
);
#658=PRODUCT_DEFINITION_SHAPE('','',#659);
#659=PRODUCT_DEFINITION('','',#661,#660);
#660=PRODUCT_DEFINITION_CONTEXT('',#667,'design');
#661=PRODUCT_DEFINITION_FORMATION_WITH_SPECIFIED_SOURCE('','',#663,
 .NOT_KNOWN.);
#662=PRODUCT_RELATED_PRODUCT_CATEGORY('','',(#663));
#663=PRODUCT('Left Wing One','Left Wing One','Left Wing One',(#665));
#664=PRODUCT_CATEGORY('','');
#665=PRODUCT_CONTEXT('',#667,'mechanical');
#666=APPLICATION_PROTOCOL_DEFINITION('international standard',
'ap242_managed_model_based_3d_engineering',2020,#667);
#667=APPLICATION_CONTEXT('managed model based 3d engineering');
ENDSEC;
END-ISO-10303-21;
