ISO-10303-21;
HEADER;
/* Generated by software containing ST-Developer
 * from STEP Tools, Inc. (www.steptools.com) 
 */
/* OPTION: using custom renumber hook */

FILE_DESCRIPTION(
/* description */ ('STEP AP242 Edition 2',
'CAx-IF Rec.Pracs.---Representation and Presentation of Product Manufa
cturing Information (PMI)---4.0---2014-10-13',
'CAx-IF Rec.Pracs.---3D Tessellated Geometry---0.4---2014-09-14','2;1',
'CAx-IF Rec.Pracs.---User Defined Attributes---1.5---2016-08-15'),
/* implementation_level */ '2;1');

FILE_NAME(
/* name */ '6971738de022f967372ba51d',
/* time_stamp */ '2026-01-22T00:47:09Z',
/* author */ (''),
/* organization */ (''),
/* preprocessor_version */ 'ST-DEVELOPER v20',
/* originating_system */ 'ONSHAPE BY PTC INC, 1.209',
/* authorisation */ '  ');

FILE_SCHEMA (('AP242_MANAGED_MODEL_BASED_3D_ENGINEERING_MIM_LF { 1 0 10303 442 3 1 4 }'));
ENDSEC;

DATA;
#10=SHAPE_REPRESENTATION_RELATIONSHIP('','',#351,#11);
#11=ADVANCED_BREP_SHAPE_REPRESENTATION('',(#349),#591);
#12=CONICAL_SURFACE('',#375,0.0026665833312499,0.408529616762162);
#13=CONICAL_SURFACE('',#376,0.00235095171462428,0.408529616762154);
#14=SPHERICAL_SURFACE('',#372,0.0028);
#15=SPHERICAL_SURFACE('',#388,0.003);
#16=PLANE('',#359);
#17=PLANE('',#361);
#18=PLANE('',#366);
#19=PLANE('',#369);
#20=PLANE('',#379);
#21=PLANE('',#381);
#22=PLANE('',#383);
#23=PLANE('',#384);
#24=PLANE('',#385);
#25=PLANE('',#386);
#26=PLANE('',#387);
#27=LINE('',#500,#57);
#28=LINE('',#505,#58);
#29=LINE('',#512,#59);
#30=LINE('',#514,#60);
#31=LINE('',#516,#61);
#32=LINE('',#518,#62);
#33=LINE('',#520,#63);
#34=LINE('',#522,#64);
#35=LINE('',#524,#65);
#36=LINE('',#528,#66);
#37=LINE('',#530,#67);
#38=LINE('',#534,#68);
#39=LINE('',#549,#69);
#40=LINE('',#553,#70);
#41=LINE('',#558,#71);
#42=LINE('',#560,#72);
#43=LINE('',#562,#73);
#44=LINE('',#564,#74);
#45=LINE('',#566,#75);
#46=LINE('',#568,#76);
#47=LINE('',#570,#77);
#48=LINE('',#571,#78);
#49=LINE('',#573,#79);
#50=LINE('',#575,#80);
#51=LINE('',#577,#81);
#52=LINE('',#579,#82);
#53=LINE('',#581,#83);
#54=LINE('',#583,#84);
#55=LINE('',#585,#85);
#56=LINE('',#587,#86);
#57=VECTOR('',#399,1.);
#58=VECTOR('',#402,1.);
#59=VECTOR('',#409,1.);
#60=VECTOR('',#410,1.);
#61=VECTOR('',#411,1.);
#62=VECTOR('',#412,1.);
#63=VECTOR('',#413,1.);
#64=VECTOR('',#416,1.);
#65=VECTOR('',#417,1.);
#66=VECTOR('',#420,1.);
#67=VECTOR('',#421,1.);
#68=VECTOR('',#426,1.);
#69=VECTOR('',#453,1.);
#70=VECTOR('',#456,1.);
#71=VECTOR('',#461,1.);
#72=VECTOR('',#462,1.);
#73=VECTOR('',#463,1.);
#74=VECTOR('',#464,1.);
#75=VECTOR('',#465,1.);
#76=VECTOR('',#468,1.);
#77=VECTOR('',#469,1.);
#78=VECTOR('',#470,1.);
#79=VECTOR('',#473,1.);
#80=VECTOR('',#476,1.);
#81=VECTOR('',#477,1.);
#82=VECTOR('',#480,1.);
#83=VECTOR('',#481,1.);
#84=VECTOR('',#484,1.);
#85=VECTOR('',#485,1.);
#86=VECTOR('',#488,1.);
#87=ORIENTED_EDGE('',*,*,#179,.T.);
#88=ORIENTED_EDGE('',*,*,#180,.F.);
#89=ORIENTED_EDGE('',*,*,#181,.F.);
#90=ORIENTED_EDGE('',*,*,#182,.F.);
#91=ORIENTED_EDGE('',*,*,#183,.T.);
#92=ORIENTED_EDGE('',*,*,#184,.T.);
#93=ORIENTED_EDGE('',*,*,#185,.T.);
#94=ORIENTED_EDGE('',*,*,#186,.T.);
#95=ORIENTED_EDGE('',*,*,#187,.T.);
#96=ORIENTED_EDGE('',*,*,#188,.T.);
#97=ORIENTED_EDGE('',*,*,#189,.F.);
#98=ORIENTED_EDGE('',*,*,#190,.T.);
#99=ORIENTED_EDGE('',*,*,#191,.F.);
#100=ORIENTED_EDGE('',*,*,#192,.T.);
#101=ORIENTED_EDGE('',*,*,#193,.F.);
#102=ORIENTED_EDGE('',*,*,#194,.T.);
#103=ORIENTED_EDGE('',*,*,#195,.T.);
#104=ORIENTED_EDGE('',*,*,#183,.F.);
#105=ORIENTED_EDGE('',*,*,#196,.F.);
#106=ORIENTED_EDGE('',*,*,#197,.T.);
#107=ORIENTED_EDGE('',*,*,#198,.T.);
#108=ORIENTED_EDGE('',*,*,#188,.F.);
#109=ORIENTED_EDGE('',*,*,#187,.F.);
#110=ORIENTED_EDGE('',*,*,#199,.T.);
#111=ORIENTED_EDGE('',*,*,#191,.T.);
#112=ORIENTED_EDGE('',*,*,#182,.T.);
#113=ORIENTED_EDGE('',*,*,#200,.T.);
#114=ORIENTED_EDGE('',*,*,#196,.T.);
#115=ORIENTED_EDGE('',*,*,#195,.F.);
#116=ORIENTED_EDGE('',*,*,#201,.T.);
#117=ORIENTED_EDGE('',*,*,#189,.T.);
#118=ORIENTED_EDGE('',*,*,#198,.F.);
#119=ORIENTED_EDGE('',*,*,#202,.F.);
#120=ORIENTED_EDGE('',*,*,#184,.F.);
#121=ORIENTED_EDGE('',*,*,#193,.T.);
#122=ORIENTED_EDGE('',*,*,#203,.T.);
#123=ORIENTED_EDGE('',*,*,#185,.F.);
#124=ORIENTED_EDGE('',*,*,#204,.T.);
#125=ORIENTED_EDGE('',*,*,#186,.F.);
#126=ORIENTED_EDGE('',*,*,#203,.F.);
#127=ORIENTED_EDGE('',*,*,#192,.F.);
#128=ORIENTED_EDGE('',*,*,#199,.F.);
#129=ORIENTED_EDGE('',*,*,#190,.F.);
#130=ORIENTED_EDGE('',*,*,#201,.F.);
#131=ORIENTED_EDGE('',*,*,#194,.F.);
#132=ORIENTED_EDGE('',*,*,#204,.F.);
#133=ORIENTED_EDGE('',*,*,#200,.F.);
#134=ORIENTED_EDGE('',*,*,#205,.F.);
#135=ORIENTED_EDGE('',*,*,#206,.T.);
#136=ORIENTED_EDGE('',*,*,#207,.T.);
#137=ORIENTED_EDGE('',*,*,#208,.T.);
#138=ORIENTED_EDGE('',*,*,#209,.T.);
#139=ORIENTED_EDGE('',*,*,#210,.T.);
#140=ORIENTED_EDGE('',*,*,#211,.F.);
#141=ORIENTED_EDGE('',*,*,#212,.F.);
#142=ORIENTED_EDGE('',*,*,#213,.T.);
#143=ORIENTED_EDGE('',*,*,#207,.F.);
#144=ORIENTED_EDGE('',*,*,#214,.T.);
#145=ORIENTED_EDGE('',*,*,#215,.T.);
#146=ORIENTED_EDGE('',*,*,#209,.F.);
#147=ORIENTED_EDGE('',*,*,#216,.F.);
#148=ORIENTED_EDGE('',*,*,#197,.F.);
#149=ORIENTED_EDGE('',*,*,#217,.F.);
#150=ORIENTED_EDGE('',*,*,#202,.T.);
#151=ORIENTED_EDGE('',*,*,#216,.T.);
#152=ORIENTED_EDGE('',*,*,#208,.F.);
#153=ORIENTED_EDGE('',*,*,#218,.F.);
#154=ORIENTED_EDGE('',*,*,#219,.T.);
#155=ORIENTED_EDGE('',*,*,#205,.T.);
#156=ORIENTED_EDGE('',*,*,#181,.T.);
#157=ORIENTED_EDGE('',*,*,#217,.T.);
#158=ORIENTED_EDGE('',*,*,#213,.F.);
#159=ORIENTED_EDGE('',*,*,#220,.F.);
#160=ORIENTED_EDGE('',*,*,#221,.F.);
#161=ORIENTED_EDGE('',*,*,#218,.T.);
#162=ORIENTED_EDGE('',*,*,#212,.T.);
#163=ORIENTED_EDGE('',*,*,#179,.F.);
#164=ORIENTED_EDGE('',*,*,#222,.F.);
#165=ORIENTED_EDGE('',*,*,#223,.F.);
#166=ORIENTED_EDGE('',*,*,#220,.T.);
#167=ORIENTED_EDGE('',*,*,#211,.T.);
#168=ORIENTED_EDGE('',*,*,#215,.F.);
#169=ORIENTED_EDGE('',*,*,#224,.T.);
#170=ORIENTED_EDGE('',*,*,#222,.T.);
#171=ORIENTED_EDGE('',*,*,#210,.F.);
#172=ORIENTED_EDGE('',*,*,#214,.F.);
#173=ORIENTED_EDGE('',*,*,#206,.F.);
#174=ORIENTED_EDGE('',*,*,#219,.F.);
#175=ORIENTED_EDGE('',*,*,#221,.T.);
#176=ORIENTED_EDGE('',*,*,#223,.T.);
#177=ORIENTED_EDGE('',*,*,#224,.F.);
#178=ORIENTED_EDGE('',*,*,#180,.T.);
#179=EDGE_CURVE('',#225,#225,#255,.T.);
#180=EDGE_CURVE('',#226,#226,#256,.T.);
#181=EDGE_CURVE('',#227,#228,#27,.T.);
#182=EDGE_CURVE('',#229,#227,#257,.T.);
#183=EDGE_CURVE('',#229,#230,#28,.T.);
#184=EDGE_CURVE('',#230,#228,#258,.T.);
#185=EDGE_CURVE('',#231,#232,#259,.F.);
#186=EDGE_CURVE('',#232,#233,#29,.F.);
#187=EDGE_CURVE('',#233,#234,#30,.T.);
#188=EDGE_CURVE('',#234,#235,#31,.T.);
#189=EDGE_CURVE('',#236,#235,#32,.T.);
#190=EDGE_CURVE('',#236,#231,#33,.F.);
#191=EDGE_CURVE('',#237,#229,#34,.T.);
#192=EDGE_CURVE('',#237,#238,#35,.T.);
#193=EDGE_CURVE('',#239,#238,#260,.F.);
#194=EDGE_CURVE('',#239,#240,#36,.T.);
#195=EDGE_CURVE('',#240,#230,#37,.T.);
#196=EDGE_CURVE('',#241,#234,#261,.T.);
#197=EDGE_CURVE('',#241,#242,#38,.T.);
#198=EDGE_CURVE('',#242,#235,#262,.T.);
#199=EDGE_CURVE('',#233,#237,#263,.F.);
#200=EDGE_CURVE('',#227,#241,#264,.T.);
#201=EDGE_CURVE('',#240,#236,#265,.T.);
#202=EDGE_CURVE('',#228,#242,#266,.T.);
#203=EDGE_CURVE('',#238,#232,#267,.F.);
#204=EDGE_CURVE('',#231,#239,#268,.F.);
#205=EDGE_CURVE('',#243,#227,#39,.T.);
#206=EDGE_CURVE('',#243,#244,#269,.T.);
#207=EDGE_CURVE('',#244,#241,#40,.T.);
#208=EDGE_CURVE('',#245,#246,#270,.T.);
#209=EDGE_CURVE('',#246,#247,#41,.T.);
#210=EDGE_CURVE('',#247,#248,#42,.T.);
#211=EDGE_CURVE('',#249,#248,#43,.T.);
#212=EDGE_CURVE('',#250,#249,#44,.T.);
#213=EDGE_CURVE('',#250,#245,#45,.T.);
#214=EDGE_CURVE('',#244,#251,#46,.T.);
#215=EDGE_CURVE('',#251,#247,#47,.T.);
#216=EDGE_CURVE('',#242,#246,#48,.T.);
#217=EDGE_CURVE('',#228,#245,#49,.T.);
#218=EDGE_CURVE('',#252,#250,#50,.T.);
#219=EDGE_CURVE('',#252,#243,#51,.T.);
#220=EDGE_CURVE('',#253,#249,#52,.T.);
#221=EDGE_CURVE('',#252,#253,#53,.T.);
#222=EDGE_CURVE('',#254,#248,#54,.T.);
#223=EDGE_CURVE('',#253,#254,#55,.T.);
#224=EDGE_CURVE('',#251,#254,#56,.T.);
#225=VERTEX_POINT('',#496);
#226=VERTEX_POINT('',#498);
#227=VERTEX_POINT('',#501);
#228=VERTEX_POINT('',#502);
#229=VERTEX_POINT('',#504);
#230=VERTEX_POINT('',#506);
#231=VERTEX_POINT('',#510);
#232=VERTEX_POINT('',#511);
#233=VERTEX_POINT('',#513);
#234=VERTEX_POINT('',#515);
#235=VERTEX_POINT('',#517);
#236=VERTEX_POINT('',#519);
#237=VERTEX_POINT('',#523);
#238=VERTEX_POINT('',#525);
#239=VERTEX_POINT('',#527);
#240=VERTEX_POINT('',#529);
#241=VERTEX_POINT('',#533);
#242=VERTEX_POINT('',#535);
#243=VERTEX_POINT('',#550);
#244=VERTEX_POINT('',#552);
#245=VERTEX_POINT('',#556);
#246=VERTEX_POINT('',#557);
#247=VERTEX_POINT('',#559);
#248=VERTEX_POINT('',#561);
#249=VERTEX_POINT('',#563);
#250=VERTEX_POINT('',#565);
#251=VERTEX_POINT('',#569);
#252=VERTEX_POINT('',#576);
#253=VERTEX_POINT('',#580);
#254=VERTEX_POINT('',#584);
#255=CIRCLE('',#354,0.00225);
#256=CIRCLE('',#355,0.00225);
#257=CIRCLE('',#357,0.0048);
#258=CIRCLE('',#358,0.0048);
#259=CIRCLE('',#360,0.0028);
#260=CIRCLE('',#362,0.0028);
#261=CIRCLE('',#364,0.0048);
#262=CIRCLE('',#365,0.0048);
#263=CIRCLE('',#367,0.0026665833312499);
#264=CIRCLE('',#368,0.0048);
#265=CIRCLE('',#370,0.00266658333124989);
#266=CIRCLE('',#371,0.0048);
#267=CIRCLE('',#373,0.00235095171462428);
#268=CIRCLE('',#374,0.00235095171462428);
#269=CIRCLE('',#378,0.0048);
#270=CIRCLE('',#380,0.0048);
#271=EDGE_LOOP('',(#87));
#272=EDGE_LOOP('',(#88));
#273=EDGE_LOOP('',(#89,#90,#91,#92));
#274=EDGE_LOOP('',(#93,#94,#95,#96,#97,#98));
#275=EDGE_LOOP('',(#99,#100,#101,#102,#103,#104));
#276=EDGE_LOOP('',(#105,#106,#107,#108));
#277=EDGE_LOOP('',(#109,#110,#111,#112,#113,#114));
#278=EDGE_LOOP('',(#115,#116,#117,#118,#119,#120));
#279=EDGE_LOOP('',(#121,#122,#123,#124));
#280=EDGE_LOOP('',(#125,#126,#127,#128));
#281=EDGE_LOOP('',(#129,#130,#131,#132));
#282=EDGE_LOOP('',(#133,#134,#135,#136));
#283=EDGE_LOOP('',(#137,#138,#139,#140,#141,#142));
#284=EDGE_LOOP('',(#143,#144,#145,#146,#147,#148));
#285=EDGE_LOOP('',(#149,#150,#151,#152));
#286=EDGE_LOOP('',(#153,#154,#155,#156,#157,#158));
#287=EDGE_LOOP('',(#159,#160,#161,#162));
#288=EDGE_LOOP('',(#163));
#289=EDGE_LOOP('',(#164,#165,#166,#167));
#290=EDGE_LOOP('',(#168,#169,#170,#171));
#291=EDGE_LOOP('',(#172,#173,#174,#175,#176,#177));
#292=EDGE_LOOP('',(#178));
#293=FACE_BOUND('',#271,.T.);
#294=FACE_BOUND('',#272,.T.);
#295=FACE_BOUND('',#273,.T.);
#296=FACE_BOUND('',#274,.T.);
#297=FACE_BOUND('',#275,.T.);
#298=FACE_BOUND('',#276,.T.);
#299=FACE_BOUND('',#277,.T.);
#300=FACE_BOUND('',#278,.T.);
#301=FACE_BOUND('',#279,.T.);
#302=FACE_BOUND('',#280,.T.);
#303=FACE_BOUND('',#281,.T.);
#304=FACE_BOUND('',#282,.T.);
#305=FACE_BOUND('',#283,.T.);
#306=FACE_BOUND('',#284,.T.);
#307=FACE_BOUND('',#285,.T.);
#308=FACE_BOUND('',#286,.T.);
#309=FACE_BOUND('',#287,.T.);
#310=FACE_BOUND('',#288,.T.);
#311=FACE_BOUND('',#289,.T.);
#312=FACE_BOUND('',#290,.T.);
#313=FACE_BOUND('',#291,.T.);
#314=FACE_BOUND('',#292,.T.);
#315=CYLINDRICAL_SURFACE('',#353,0.00225);
#316=CYLINDRICAL_SURFACE('',#356,0.0048);
#317=CYLINDRICAL_SURFACE('',#363,0.0048);
#318=CYLINDRICAL_SURFACE('',#377,0.0048);
#319=CYLINDRICAL_SURFACE('',#382,0.0048);
#320=ADVANCED_FACE('',(#293,#294),#315,.T.);
#321=ADVANCED_FACE('',(#295),#316,.T.);
#322=ADVANCED_FACE('',(#296),#16,.T.);
#323=ADVANCED_FACE('',(#297),#17,.F.);
#324=ADVANCED_FACE('',(#298),#317,.T.);
#325=ADVANCED_FACE('',(#299),#18,.T.);
#326=ADVANCED_FACE('',(#300),#19,.F.);
#327=ADVANCED_FACE('',(#301),#14,.F.);
#328=ADVANCED_FACE('',(#302),#12,.F.);
#329=ADVANCED_FACE('',(#303),#13,.F.);
#330=ADVANCED_FACE('',(#304),#318,.F.);
#331=ADVANCED_FACE('',(#305),#20,.F.);
#332=ADVANCED_FACE('',(#306),#21,.T.);
#333=ADVANCED_FACE('',(#307),#319,.F.);
#334=ADVANCED_FACE('',(#308),#22,.T.);
#335=ADVANCED_FACE('',(#309),#23,.F.);
#336=ADVANCED_FACE('',(#310,#311),#24,.F.);
#337=ADVANCED_FACE('',(#312),#25,.T.);
#338=ADVANCED_FACE('',(#313),#26,.T.);
#339=ADVANCED_FACE('',(#314),#15,.T.);
#340=CLOSED_SHELL('',(#320,#321,#322,#323,#324,#325,#326,#327,#328,#329,
#330,#331,#332,#333,#334,#335,#336,#337,#338,#339));
#341=STYLED_ITEM('',(#342),#349);
#342=PRESENTATION_STYLE_ASSIGNMENT((#343));
#343=SURFACE_STYLE_USAGE(.BOTH.,#344);
#344=SURFACE_SIDE_STYLE('',(#345));
#345=SURFACE_STYLE_FILL_AREA(#346);
#346=FILL_AREA_STYLE('',(#347));
#347=FILL_AREA_STYLE_COLOUR('',#348);
#348=COLOUR_RGB('',0.980392156862745,0.713725490196078,0.00392156862745098);
#349=MANIFOLD_SOLID_BREP('Left Leg Two',#340);
#350=SHAPE_DEFINITION_REPRESENTATION(#596,#351);
#351=SHAPE_REPRESENTATION('Left Leg Two',(#352),#591);
#352=AXIS2_PLACEMENT_3D('',#493,#389,#390);
#353=AXIS2_PLACEMENT_3D('',#494,#391,#392);
#354=AXIS2_PLACEMENT_3D('',#495,#393,#394);
#355=AXIS2_PLACEMENT_3D('',#497,#395,#396);
#356=AXIS2_PLACEMENT_3D('',#499,#397,#398);
#357=AXIS2_PLACEMENT_3D('',#503,#400,#401);
#358=AXIS2_PLACEMENT_3D('',#507,#403,#404);
#359=AXIS2_PLACEMENT_3D('',#508,#405,#406);
#360=AXIS2_PLACEMENT_3D('',#509,#407,#408);
#361=AXIS2_PLACEMENT_3D('',#521,#414,#415);
#362=AXIS2_PLACEMENT_3D('',#526,#418,#419);
#363=AXIS2_PLACEMENT_3D('',#531,#422,#423);
#364=AXIS2_PLACEMENT_3D('',#532,#424,#425);
#365=AXIS2_PLACEMENT_3D('',#536,#427,#428);
#366=AXIS2_PLACEMENT_3D('',#537,#429,#430);
#367=AXIS2_PLACEMENT_3D('',#538,#431,#432);
#368=AXIS2_PLACEMENT_3D('',#539,#433,#434);
#369=AXIS2_PLACEMENT_3D('',#540,#435,#436);
#370=AXIS2_PLACEMENT_3D('',#541,#437,#438);
#371=AXIS2_PLACEMENT_3D('',#542,#439,#440);
#372=AXIS2_PLACEMENT_3D('',#543,#441,#442);
#373=AXIS2_PLACEMENT_3D('',#544,#443,#444);
#374=AXIS2_PLACEMENT_3D('',#545,#445,#446);
#375=AXIS2_PLACEMENT_3D('',#546,#447,#448);
#376=AXIS2_PLACEMENT_3D('',#547,#449,#450);
#377=AXIS2_PLACEMENT_3D('',#548,#451,#452);
#378=AXIS2_PLACEMENT_3D('',#551,#454,#455);
#379=AXIS2_PLACEMENT_3D('',#554,#457,#458);
#380=AXIS2_PLACEMENT_3D('',#555,#459,#460);
#381=AXIS2_PLACEMENT_3D('',#567,#466,#467);
#382=AXIS2_PLACEMENT_3D('',#572,#471,#472);
#383=AXIS2_PLACEMENT_3D('',#574,#474,#475);
#384=AXIS2_PLACEMENT_3D('',#578,#478,#479);
#385=AXIS2_PLACEMENT_3D('',#582,#482,#483);
#386=AXIS2_PLACEMENT_3D('',#586,#486,#487);
#387=AXIS2_PLACEMENT_3D('',#588,#489,#490);
#388=AXIS2_PLACEMENT_3D('',#589,#491,#492);
#389=DIRECTION('',(0.,0.,1.));
#390=DIRECTION('',(1.,0.,0.));
#391=DIRECTION('',(-1.,0.,0.));
#392=DIRECTION('',(0.,0.,1.));
#393=DIRECTION('',(1.,0.,0.));
#394=DIRECTION('',(0.,0.,-1.));
#395=DIRECTION('',(1.,0.,0.));
#396=DIRECTION('',(0.,0.,-1.));
#397=DIRECTION('',(0.,0.,-1.));
#398=DIRECTION('',(-1.,0.,0.));
#399=DIRECTION('',(0.,0.,-1.));
#400=DIRECTION('',(0.,0.,1.));
#401=DIRECTION('',(1.,0.,0.));
#402=DIRECTION('',(0.,0.,-1.));
#403=DIRECTION('',(0.,0.,1.));
#404=DIRECTION('',(1.,0.,0.));
#405=DIRECTION('',(-0.829037572555041,-0.559192903470748,0.));
#406=DIRECTION('',(0.559192903470748,-0.829037572555041,0.));
#407=DIRECTION('',(-0.829037572555041,-0.559192903470748,0.));
#408=DIRECTION('',(0.559192903470748,-0.829037572555041,0.));
#409=DIRECTION('',(0.222145184478044,-0.329343779850211,-0.917705939659972));
#410=DIRECTION('',(-0.559192903470748,0.829037572555041,0.));
#411=DIRECTION('',(0.,0.,-1.));
#412=DIRECTION('',(-0.559192903470748,0.829037572555041,0.));
#413=DIRECTION('',(-0.22214518447804,0.329343779850205,-0.917705939659975));
#414=DIRECTION('',(0.829037572555042,-0.559192903470746,0.));
#415=DIRECTION('',(0.559192903470746,0.829037572555042,0.));
#416=DIRECTION('',(-0.559192903470746,-0.829037572555042,0.));
#417=DIRECTION('',(0.222145184478044,0.329343779850211,-0.917705939659972));
#418=DIRECTION('',(0.829037572555042,-0.559192903470746,0.));
#419=DIRECTION('',(0.559192903470746,0.829037572555042,0.));
#420=DIRECTION('',(-0.22214518447804,-0.329343779850205,-0.917705939659975));
#421=DIRECTION('',(-0.559192903470746,-0.829037572555042,0.));
#422=DIRECTION('',(0.,0.,-1.));
#423=DIRECTION('',(-1.,0.,0.));
#424=DIRECTION('',(0.,0.,1.));
#425=DIRECTION('',(1.,0.,0.));
#426=DIRECTION('',(0.,0.,-1.));
#427=DIRECTION('',(0.,0.,1.));
#428=DIRECTION('',(1.,0.,0.));
#429=DIRECTION('',(0.,0.,1.));
#430=DIRECTION('',(1.,0.,0.));
#431=DIRECTION('',(0.,0.,1.));
#432=DIRECTION('',(1.,0.,0.));
#433=DIRECTION('',(0.,0.,1.));
#434=DIRECTION('',(1.,0.,0.));
#435=DIRECTION('',(0.,0.,1.));
#436=DIRECTION('',(1.,0.,0.));
#437=DIRECTION('',(0.,0.,1.));
#438=DIRECTION('',(1.,0.,0.));
#439=DIRECTION('',(0.,0.,1.));
#440=DIRECTION('',(1.,0.,0.));
#441=DIRECTION('',(1.,0.,0.));
#442=DIRECTION('',(0.,-1.,0.));
#443=DIRECTION('',(0.,0.,-1.));
#444=DIRECTION('',(-1.,0.,0.));
#445=DIRECTION('',(0.,0.,1.));
#446=DIRECTION('',(1.,0.,0.));
#447=DIRECTION('',(0.,0.,1.));
#448=DIRECTION('',(1.,0.,0.));
#449=DIRECTION('',(0.,0.,-1.));
#450=DIRECTION('',(-1.,0.,0.));
#451=DIRECTION('',(0.,0.,-1.));
#452=DIRECTION('',(-1.,0.,0.));
#453=DIRECTION('',(0.,0.,-1.));
#454=DIRECTION('',(0.,0.,1.));
#455=DIRECTION('',(1.,0.,0.));
#456=DIRECTION('',(0.,0.,-1.));
#457=DIRECTION('',(0.,0.,1.));
#458=DIRECTION('',(1.,0.,0.));
#459=DIRECTION('',(0.,0.,1.));
#460=DIRECTION('',(1.,0.,0.));
#461=DIRECTION('',(0.,1.,0.));
#462=DIRECTION('',(1.,0.,0.));
#463=DIRECTION('',(0.,1.,0.));
#464=DIRECTION('',(1.,0.,0.));
#465=DIRECTION('',(0.,1.,0.));
#466=DIRECTION('',(-1.,0.,0.));
#467=DIRECTION('',(0.,0.,1.));
#468=DIRECTION('',(0.,1.,0.));
#469=DIRECTION('',(0.,0.,-1.));
#470=DIRECTION('',(0.,0.,-1.));
#471=DIRECTION('',(0.,0.,-1.));
#472=DIRECTION('',(-1.,0.,0.));
#473=DIRECTION('',(0.,0.,-1.));
#474=DIRECTION('',(-1.,0.,0.));
#475=DIRECTION('',(0.,0.,1.));
#476=DIRECTION('',(0.,0.,-1.));
#477=DIRECTION('',(0.,1.,0.));
#478=DIRECTION('',(0.,1.,0.));
#479=DIRECTION('',(0.,0.,1.));
#480=DIRECTION('',(0.,0.,-1.));
#481=DIRECTION('',(1.,0.,0.));
#482=DIRECTION('',(-1.,0.,0.));
#483=DIRECTION('',(0.,0.,1.));
#484=DIRECTION('',(0.,0.,-1.));
#485=DIRECTION('',(0.,1.,0.));
#486=DIRECTION('',(0.,1.,0.));
#487=DIRECTION('',(0.,0.,1.));
#488=DIRECTION('',(1.,0.,0.));
#489=DIRECTION('',(0.,0.,1.));
#490=DIRECTION('',(1.,0.,0.));
#491=DIRECTION('',(0.,0.,1.));
#492=DIRECTION('',(0.,1.,0.));
#493=CARTESIAN_POINT('',(0.,0.,0.));
#494=CARTESIAN_POINT('',(0.056,-0.0319209372712298,-0.008));
#495=CARTESIAN_POINT('',(0.0515,-0.0319209372712298,-0.008));
#496=CARTESIAN_POINT('',(0.0515,-0.0319209372712298,-0.01025));
#497=CARTESIAN_POINT('',(0.0540156865167016,-0.0319209372712298,-0.008));
#498=CARTESIAN_POINT('',(0.0540156865167016,-0.0319209372712298,-0.01025));
#499=CARTESIAN_POINT('',(0.0315,-0.0319209372712298,-0.00575));
#500=CARTESIAN_POINT('',(0.0315,-0.0367209372712298,-0.004998));
#501=CARTESIAN_POINT('',(0.0315,-0.0367209372712298,-0.00575));
#502=CARTESIAN_POINT('',(0.0315,-0.0367209372712298,-0.01025));
#503=CARTESIAN_POINT('',(0.0315,-0.0319209372712298,-0.00575));
#504=CARTESIAN_POINT('',(0.0288158740633404,-0.0359003176194941,-0.00575));
#505=CARTESIAN_POINT('',(0.0288158740633404,-0.0359003176194941,-0.00575));
#506=CARTESIAN_POINT('',(0.0288158740633404,-0.0359003176194941,-0.01025));
#507=CARTESIAN_POINT('',(0.0315,-0.0319209372712298,-0.01025));
#508=CARTESIAN_POINT('',(0.030717129935141,-0.0307602846696528,-0.00575));
#509=CARTESIAN_POINT('',(0.0315,-0.0319209372712298,-0.008));
#510=CARTESIAN_POINT('',(0.0301853644847797,-0.0299719099685436,-0.00952086358214836));
#511=CARTESIAN_POINT('',(0.0301853644847797,-0.0299719099685436,-0.00647913641785165));
#512=CARTESIAN_POINT('',(0.0315,-0.0319209372712298,-0.0119100388415989));
#513=CARTESIAN_POINT('',(0.0300088655246516,-0.0297102394992747,-0.00575));
#514=CARTESIAN_POINT('',(0.030717129935141,-0.0307602846696528,-0.00575));
#515=CARTESIAN_POINT('',(0.0288158740633404,-0.0279415569229657,-0.00575));
#516=CARTESIAN_POINT('',(0.0288158740633404,-0.0279415569229657,-0.00575));
#517=CARTESIAN_POINT('',(0.0288158740633404,-0.0279415569229657,-0.01025));
#518=CARTESIAN_POINT('',(0.030717129935141,-0.0307602846696528,-0.01025));
#519=CARTESIAN_POINT('',(0.0300088655246516,-0.0297102394992747,-0.01025));
#520=CARTESIAN_POINT('',(0.0315,-0.0319209372712298,-0.00408996115840094));
#521=CARTESIAN_POINT('',(0.0293750669668112,-0.035071280046939,-0.00575));
#522=CARTESIAN_POINT('',(0.0293750669668112,-0.035071280046939,-0.00575));
#523=CARTESIAN_POINT('',(0.0300088655246516,-0.034131635043185,-0.00575));
#524=CARTESIAN_POINT('',(0.0315,-0.0319209372712298,-0.0119100388415989));
#525=CARTESIAN_POINT('',(0.0301853644847797,-0.0338699645739161,-0.00647913641785165));
#526=CARTESIAN_POINT('',(0.0315,-0.0319209372712298,-0.008));
#527=CARTESIAN_POINT('',(0.0301853644847797,-0.0338699645739161,-0.00952086358214836));
#528=CARTESIAN_POINT('',(0.0315,-0.0319209372712298,-0.00408996115840094));
#529=CARTESIAN_POINT('',(0.0300088655246516,-0.034131635043185,-0.01025));
#530=CARTESIAN_POINT('',(0.0293750669668112,-0.035071280046939,-0.01025));
#531=CARTESIAN_POINT('',(0.0315,-0.0319209372712298,-0.00575));
#532=CARTESIAN_POINT('',(0.0315,-0.0319209372712298,-0.00575));
#533=CARTESIAN_POINT('',(0.0315,-0.0271209372712298,-0.00575));
#534=CARTESIAN_POINT('',(0.0315,-0.0271209372712298,-0.004998));
#535=CARTESIAN_POINT('',(0.0315,-0.0271209372712298,-0.01025));
#536=CARTESIAN_POINT('',(0.0315,-0.0319209372712298,-0.01025));
#537=CARTESIAN_POINT('',(0.0315,-0.0319209372712298,-0.00575));
#538=CARTESIAN_POINT('',(0.0315,-0.0319209372712298,-0.00575));
#539=CARTESIAN_POINT('',(0.0315,-0.0319209372712298,-0.00575));
#540=CARTESIAN_POINT('',(0.0315,-0.0319209372712298,-0.01025));
#541=CARTESIAN_POINT('',(0.0315,-0.0319209372712298,-0.01025));
#542=CARTESIAN_POINT('',(0.0315,-0.0319209372712298,-0.01025));
#543=CARTESIAN_POINT('',(0.0315,-0.0319209372712298,-0.008));
#544=CARTESIAN_POINT('',(0.0315,-0.0319209372712298,-0.00647913641785165));
#545=CARTESIAN_POINT('',(0.0315,-0.0319209372712298,-0.00952086358214836));
#546=CARTESIAN_POINT('',(0.0315,-0.0319209372712298,-0.00575));
#547=CARTESIAN_POINT('',(0.0315,-0.0319209372712298,-0.00952086358214836));
#548=CARTESIAN_POINT('',(0.0315,-0.0319209372712298,-0.004998));
#549=CARTESIAN_POINT('',(0.0315,-0.0367209372712298,-0.004998));
#550=CARTESIAN_POINT('',(0.0315,-0.0367209372712298,-0.005));
#551=CARTESIAN_POINT('',(0.0315,-0.0319209372712298,-0.005));
#552=CARTESIAN_POINT('',(0.0315,-0.0271209372712298,-0.005));
#553=CARTESIAN_POINT('',(0.0315,-0.0271209372712298,-0.004998));
#554=CARTESIAN_POINT('',(0.015,-0.02,-0.011));
#555=CARTESIAN_POINT('',(0.0315,-0.0319209372712298,-0.011));
#556=CARTESIAN_POINT('',(0.0315,-0.0367209372712298,-0.011));
#557=CARTESIAN_POINT('',(0.0315,-0.0271209372712298,-0.011));
#558=CARTESIAN_POINT('',(0.0315,-0.0265209372712298,-0.011));
#559=CARTESIAN_POINT('',(0.0315,-0.0259209372712298,-0.011));
#560=CARTESIAN_POINT('',(0.0415,-0.0259209372712298,-0.011));
#561=CARTESIAN_POINT('',(0.0515,-0.0259209372712298,-0.011));
#562=CARTESIAN_POINT('',(0.0515,-0.0319209372712298,-0.011));
#563=CARTESIAN_POINT('',(0.0515,-0.0379209372712298,-0.011));
#564=CARTESIAN_POINT('',(0.0415,-0.0379209372712298,-0.011));
#565=CARTESIAN_POINT('',(0.0315,-0.0379209372712298,-0.011));
#566=CARTESIAN_POINT('',(0.0315,-0.0373209372712298,-0.011));
#567=CARTESIAN_POINT('',(0.0315,-0.0265209372712298,-0.004998));
#568=CARTESIAN_POINT('',(0.0315,-0.0265209372712298,-0.005));
#569=CARTESIAN_POINT('',(0.0315,-0.0259209372712298,-0.005));
#570=CARTESIAN_POINT('',(0.0315,-0.0259209372712298,-0.004998));
#571=CARTESIAN_POINT('',(0.0315,-0.0271209372712298,-0.004998));
#572=CARTESIAN_POINT('',(0.0315,-0.0319209372712298,-0.004998));
#573=CARTESIAN_POINT('',(0.0315,-0.0367209372712298,-0.004998));
#574=CARTESIAN_POINT('',(0.0315,-0.0373209372712298,-0.004998));
#575=CARTESIAN_POINT('',(0.0315,-0.0379209372712298,-0.004998));
#576=CARTESIAN_POINT('',(0.0315,-0.0379209372712298,-0.005));
#577=CARTESIAN_POINT('',(0.0315,-0.0373209372712298,-0.005));
#578=CARTESIAN_POINT('',(0.0415,-0.0379209372712298,-0.004998));
#579=CARTESIAN_POINT('',(0.0515,-0.0379209372712298,-0.004998));
#580=CARTESIAN_POINT('',(0.0515,-0.0379209372712298,-0.005));
#581=CARTESIAN_POINT('',(0.0415,-0.0379209372712298,-0.005));
#582=CARTESIAN_POINT('',(0.0515,-0.0319209372712298,-0.004998));
#583=CARTESIAN_POINT('',(0.0515,-0.0259209372712298,-0.004998));
#584=CARTESIAN_POINT('',(0.0515,-0.0259209372712298,-0.005));
#585=CARTESIAN_POINT('',(0.0515,-0.0319209372712298,-0.005));
#586=CARTESIAN_POINT('',(0.0415,-0.0259209372712298,-0.004998));
#587=CARTESIAN_POINT('',(0.0415,-0.0259209372712298,-0.005));
#588=CARTESIAN_POINT('',(0.015,-0.02,-0.005));
#589=CARTESIAN_POINT('',(0.056,-0.0319209372712298,-0.008));
#590=MECHANICAL_DESIGN_GEOMETRIC_PRESENTATION_REPRESENTATION('',(#341),
#591);
#591=(
GEOMETRIC_REPRESENTATION_CONTEXT(3)
GLOBAL_UNCERTAINTY_ASSIGNED_CONTEXT((#592))
GLOBAL_UNIT_ASSIGNED_CONTEXT((#595,#594,#593))
REPRESENTATION_CONTEXT('Left Leg Two','TOP_LEVEL_ASSEMBLY_PART')
);
#592=UNCERTAINTY_MEASURE_WITH_UNIT(LENGTH_MEASURE(1.E-8),#595,
'DISTANCE_ACCURACY_VALUE','Maximum Tolerance applied to model');
#593=(
NAMED_UNIT(*)
SI_UNIT($,.STERADIAN.)
SOLID_ANGLE_UNIT()
);
#594=(
NAMED_UNIT(*)
PLANE_ANGLE_UNIT()
SI_UNIT($,.RADIAN.)
);
#595=(
LENGTH_UNIT()
NAMED_UNIT(*)
SI_UNIT($,.METRE.)
);
#596=PRODUCT_DEFINITION_SHAPE('','',#597);
#597=PRODUCT_DEFINITION('','',#599,#598);
#598=PRODUCT_DEFINITION_CONTEXT('',#605,'design');
#599=PRODUCT_DEFINITION_FORMATION_WITH_SPECIFIED_SOURCE('','',#601,
 .NOT_KNOWN.);
#600=PRODUCT_RELATED_PRODUCT_CATEGORY('','',(#601));
#601=PRODUCT('Left Leg Two','Left Leg Two','Left Leg Two',(#603));
#602=PRODUCT_CATEGORY('','');
#603=PRODUCT_CONTEXT('',#605,'mechanical');
#604=APPLICATION_PROTOCOL_DEFINITION('international standard',
'ap242_managed_model_based_3d_engineering',2020,#605);
#605=APPLICATION_CONTEXT('managed model based 3d engineering');
ENDSEC;
END-ISO-10303-21;
