ISO-10303-21;
HEADER;
/* Generated by software containing ST-Developer
 * from STEP Tools, Inc. (www.steptools.com) 
 */
/* OPTION: using custom renumber hook */

FILE_DESCRIPTION(
/* description */ ('STEP AP242 Edition 2',
'CAx-IF Rec.Pracs.---Representation and Presentation of Product Manufa
cturing Information (PMI)---4.0---2014-10-13',
'CAx-IF Rec.Pracs.---3D Tessellated Geometry---0.4---2014-09-14','2;1',
'CAx-IF Rec.Pracs.---User Defined Attributes---1.5---2016-08-15'),
/* implementation_level */ '2;1');

FILE_NAME(
/* name */ '696aaf1948d5b5600c73cb54',
/* time_stamp */ '2026-01-16T21:35:22Z',
/* author */ (''),
/* organization */ (''),
/* preprocessor_version */ 'ST-DEVELOPER v20',
/* originating_system */ 'ONSHAPE BY PTC INC, 1.209',
/* authorisation */ '  ');

FILE_SCHEMA (('AP242_MANAGED_MODEL_BASED_3D_ENGINEERING_MIM_LF { 1 0 10303 442 3 1 4 }'));
ENDSEC;

DATA;
#10=SHAPE_REPRESENTATION_RELATIONSHIP('','',#368,#11);
#11=ADVANCED_BREP_SHAPE_REPRESENTATION('',(#366),#933);
#12=CONICAL_SURFACE('',#390,0.00369022209526952,0.457596414453763);
#13=CONICAL_SURFACE('',#391,0.00408058436015045,0.457596414453766);
#14=SPHERICAL_SURFACE('',#387,0.0043);
#15=CYLINDRICAL_SURFACE('',#378,0.0063);
#16=CYLINDRICAL_SURFACE('',#393,0.03);
#17=CYLINDRICAL_SURFACE('',#396,0.0862605846940767);
#18=CIRCLE('',#371,0.03);
#19=CIRCLE('',#372,0.0063);
#20=CIRCLE('',#373,0.0229348033062736);
#21=CIRCLE('',#375,0.0043);
#22=CIRCLE('',#377,0.0043);
#23=CIRCLE('',#379,0.0063);
#24=CIRCLE('',#380,0.0063);
#25=CIRCLE('',#381,0.0063);
#26=CIRCLE('',#382,0.0063);
#27=CIRCLE('',#384,0.00408058436015044);
#28=CIRCLE('',#386,0.00408058436015045);
#29=CIRCLE('',#388,0.00369022209526952);
#30=CIRCLE('',#389,0.00369022209526952);
#31=CIRCLE('',#394,0.03);
#32=CIRCLE('',#397,0.0862605846940767);
#33=CIRCLE('',#398,0.0862605846940767);
#34=CIRCLE('',#402,0.0225598811703742);
#35=CIRCLE('',#403,0.0005);
#36=CIRCLE('',#404,0.0005);
#37=PLANE('',#370);
#38=PLANE('',#374);
#39=PLANE('',#376);
#40=PLANE('',#383);
#41=PLANE('',#385);
#42=PLANE('',#392);
#43=PLANE('',#395);
#44=PLANE('',#399);
#45=PLANE('',#400);
#46=PLANE('',#401);
#47=B_SPLINE_CURVE_WITH_KNOTS('',3,(#520,#521,#522,#523,#524,#525,#526,
#527,#528),.UNSPECIFIED.,.F.,.F.,(4,1,1,1,1,1,4),(0.00181219804931178,0.00211425210695691,
0.00226527913577947,0.00241630616460204,0.0025673331934246,0.00271836022224716,
0.00302041427989229),.UNSPECIFIED.);
#48=B_SPLINE_CURVE_WITH_KNOTS('',3,(#532,#533,#534,#535,#536,#537,#538),
 .UNSPECIFIED.,.F.,.F.,(4,1,1,1,4),(-1.09561707984716E-5,8.21685643779839E-5,
0.000175293299554439,0.00036154276990735,0.000734041710613172),
 .UNSPECIFIED.);
#49=B_SPLINE_CURVE_WITH_KNOTS('',3,(#540,#541,#542,#543,#544,#545,#546,
#547),.UNSPECIFIED.,.F.,.F.,(4,1,1,1,1,4),(-1.12538299427228E-5,8.20569451480336E-5,
0.00017536772023879,0.000361989270420303,0.000548610820601816,0.000735232370783329),
 .UNSPECIFIED.);
#50=B_SPLINE_CURVE_WITH_KNOTS('',3,(#549,#550,#551,#552,#553,#554,#555,
#556,#557,#558,#559,#560,#561,#562,#563,#564,#565,#566,#567,#568,#569,#570,
#571,#572,#573,#574,#575,#576),.UNSPECIFIED.,.F.,.F.,(4,1,1,1,1,1,1,1,1,
1,1,1,1,1,1,1,1,1,1,1,1,1,1,1,1,4),(1.35237729211391E-13,0.00118749697950022,
0.00178124546918272,0.00237499395886521,0.0029687424485477,0.0035624909382302,
0.00415623942791269,0.00474998791759519,0.00593748489696017,0.00712498187632516,
0.00831247885569015,0.00949997583505513,0.0118749697937851,0.0142499637525151,
0.0166249577112451,0.018999951669975,0.023749939587435,0.0261249335461649,
0.0284999275048949,0.0308749214636249,0.0332499154223549,0.0344374124017199,
0.0356249093810848,0.0368124063604498,0.0374061548501323,0.0379999033398148),
 .UNSPECIFIED.);
#51=B_SPLINE_CURVE_WITH_KNOTS('',3,(#614,#615,#616,#617,#618),
 .UNSPECIFIED.,.F.,.F.,(4,1,4),(3.46944695195361E-18,0.000374648218641272,
0.000749296437282541),.UNSPECIFIED.);
#52=B_SPLINE_CURVE_WITH_KNOTS('',3,(#621,#622,#623,#624),.UNSPECIFIED.,
 .F.,.F.,(4,4),(3.46944695195361E-18,0.000825052088132052),
 .UNSPECIFIED.);
#53=B_SPLINE_CURVE_WITH_KNOTS('',3,(#668,#669,#670,#671,#672,#673,#674,
#675,#676,#677,#678,#679,#680,#681,#682,#683,#684,#685,#686,#687,#688,#689,
#690,#691),.UNSPECIFIED.,.F.,.F.,(4,1,1,1,1,1,1,1,1,1,1,1,1,1,1,1,1,1,1,
1,1,4),(0.000971271592053432,0.0021524574295665,0.00333364326707957,0.00451482910459264,
0.00569601494210571,0.00805838661713186,0.010420758292158,0.0127831299671841,
0.0151455016422103,0.0198702449922626,0.0222326166672887,0.0245949883423148,
0.026957360017341,0.0293197316923671,0.0316821033673933,0.0328632892049063,
0.0340444750424194,0.0352256608799325,0.035816253798689,0.0364068467174456,
0.0375880325549586,0.0387692183924717),.UNSPECIFIED.);
#54=ORIENTED_EDGE('',*,*,#156,.F.);
#55=ORIENTED_EDGE('',*,*,#157,.T.);
#56=ORIENTED_EDGE('',*,*,#158,.F.);
#57=ORIENTED_EDGE('',*,*,#159,.F.);
#58=ORIENTED_EDGE('',*,*,#160,.T.);
#59=ORIENTED_EDGE('',*,*,#161,.T.);
#60=ORIENTED_EDGE('',*,*,#158,.T.);
#61=ORIENTED_EDGE('',*,*,#162,.T.);
#62=ORIENTED_EDGE('',*,*,#163,.T.);
#63=ORIENTED_EDGE('',*,*,#164,.T.);
#64=ORIENTED_EDGE('',*,*,#165,.T.);
#65=ORIENTED_EDGE('',*,*,#166,.T.);
#66=ORIENTED_EDGE('',*,*,#167,.F.);
#67=ORIENTED_EDGE('',*,*,#168,.T.);
#68=ORIENTED_EDGE('',*,*,#169,.T.);
#69=ORIENTED_EDGE('',*,*,#170,.T.);
#70=ORIENTED_EDGE('',*,*,#171,.F.);
#71=ORIENTED_EDGE('',*,*,#172,.T.);
#72=ORIENTED_EDGE('',*,*,#173,.F.);
#73=ORIENTED_EDGE('',*,*,#174,.T.);
#74=ORIENTED_EDGE('',*,*,#175,.T.);
#75=ORIENTED_EDGE('',*,*,#176,.T.);
#76=ORIENTED_EDGE('',*,*,#177,.T.);
#77=ORIENTED_EDGE('',*,*,#178,.F.);
#78=ORIENTED_EDGE('',*,*,#179,.T.);
#79=ORIENTED_EDGE('',*,*,#180,.T.);
#80=ORIENTED_EDGE('',*,*,#165,.F.);
#81=ORIENTED_EDGE('',*,*,#181,.F.);
#82=ORIENTED_EDGE('',*,*,#182,.T.);
#83=ORIENTED_EDGE('',*,*,#183,.T.);
#84=ORIENTED_EDGE('',*,*,#184,.F.);
#85=ORIENTED_EDGE('',*,*,#185,.T.);
#86=ORIENTED_EDGE('',*,*,#170,.F.);
#87=ORIENTED_EDGE('',*,*,#186,.F.);
#88=ORIENTED_EDGE('',*,*,#178,.T.);
#89=ORIENTED_EDGE('',*,*,#169,.F.);
#90=ORIENTED_EDGE('',*,*,#187,.T.);
#91=ORIENTED_EDGE('',*,*,#173,.T.);
#92=ORIENTED_EDGE('',*,*,#186,.T.);
#93=ORIENTED_EDGE('',*,*,#177,.F.);
#94=ORIENTED_EDGE('',*,*,#188,.T.);
#95=ORIENTED_EDGE('',*,*,#171,.T.);
#96=ORIENTED_EDGE('',*,*,#185,.F.);
#97=ORIENTED_EDGE('',*,*,#175,.F.);
#98=ORIENTED_EDGE('',*,*,#189,.T.);
#99=ORIENTED_EDGE('',*,*,#167,.T.);
#100=ORIENTED_EDGE('',*,*,#190,.T.);
#101=ORIENTED_EDGE('',*,*,#174,.F.);
#102=ORIENTED_EDGE('',*,*,#187,.F.);
#103=ORIENTED_EDGE('',*,*,#168,.F.);
#104=ORIENTED_EDGE('',*,*,#189,.F.);
#105=ORIENTED_EDGE('',*,*,#176,.F.);
#106=ORIENTED_EDGE('',*,*,#190,.F.);
#107=ORIENTED_EDGE('',*,*,#172,.F.);
#108=ORIENTED_EDGE('',*,*,#188,.F.);
#109=ORIENTED_EDGE('',*,*,#164,.F.);
#110=ORIENTED_EDGE('',*,*,#191,.F.);
#111=ORIENTED_EDGE('',*,*,#192,.T.);
#112=ORIENTED_EDGE('',*,*,#181,.T.);
#113=ORIENTED_EDGE('',*,*,#163,.F.);
#114=ORIENTED_EDGE('',*,*,#193,.F.);
#115=ORIENTED_EDGE('',*,*,#194,.T.);
#116=ORIENTED_EDGE('',*,*,#191,.T.);
#117=ORIENTED_EDGE('',*,*,#157,.F.);
#118=ORIENTED_EDGE('',*,*,#195,.F.);
#119=ORIENTED_EDGE('',*,*,#196,.F.);
#120=ORIENTED_EDGE('',*,*,#197,.T.);
#121=ORIENTED_EDGE('',*,*,#193,.T.);
#122=ORIENTED_EDGE('',*,*,#162,.F.);
#123=ORIENTED_EDGE('',*,*,#198,.F.);
#124=ORIENTED_EDGE('',*,*,#199,.F.);
#125=ORIENTED_EDGE('',*,*,#200,.T.);
#126=ORIENTED_EDGE('',*,*,#196,.T.);
#127=ORIENTED_EDGE('',*,*,#201,.F.);
#128=ORIENTED_EDGE('',*,*,#183,.F.);
#129=ORIENTED_EDGE('',*,*,#202,.T.);
#130=ORIENTED_EDGE('',*,*,#199,.T.);
#131=ORIENTED_EDGE('',*,*,#192,.F.);
#132=ORIENTED_EDGE('',*,*,#194,.F.);
#133=ORIENTED_EDGE('',*,*,#197,.F.);
#134=ORIENTED_EDGE('',*,*,#200,.F.);
#135=ORIENTED_EDGE('',*,*,#202,.F.);
#136=ORIENTED_EDGE('',*,*,#182,.F.);
#137=ORIENTED_EDGE('',*,*,#195,.T.);
#138=ORIENTED_EDGE('',*,*,#156,.T.);
#139=ORIENTED_EDGE('',*,*,#203,.T.);
#140=ORIENTED_EDGE('',*,*,#204,.T.);
#141=ORIENTED_EDGE('',*,*,#184,.T.);
#142=ORIENTED_EDGE('',*,*,#201,.T.);
#143=ORIENTED_EDGE('',*,*,#198,.T.);
#144=ORIENTED_EDGE('',*,*,#204,.F.);
#145=ORIENTED_EDGE('',*,*,#205,.F.);
#146=ORIENTED_EDGE('',*,*,#179,.F.);
#147=ORIENTED_EDGE('',*,*,#180,.F.);
#148=ORIENTED_EDGE('',*,*,#206,.F.);
#149=ORIENTED_EDGE('',*,*,#166,.F.);
#150=ORIENTED_EDGE('',*,*,#161,.F.);
#151=ORIENTED_EDGE('',*,*,#206,.T.);
#152=ORIENTED_EDGE('',*,*,#205,.T.);
#153=ORIENTED_EDGE('',*,*,#203,.F.);
#154=ORIENTED_EDGE('',*,*,#160,.F.);
#155=ORIENTED_EDGE('',*,*,#159,.T.);
#156=EDGE_CURVE('',#207,#208,#241,.F.);
#157=EDGE_CURVE('',#207,#209,#47,.T.);
#158=EDGE_CURVE('',#210,#209,#242,.T.);
#159=EDGE_CURVE('',#211,#210,#48,.T.);
#160=EDGE_CURVE('',#211,#208,#49,.T.);
#161=EDGE_CURVE('',#212,#210,#50,.T.);
#162=EDGE_CURVE('',#209,#213,#243,.T.);
#163=EDGE_CURVE('',#213,#214,#18,.T.);
#164=EDGE_CURVE('',#214,#215,#244,.T.);
#165=EDGE_CURVE('',#215,#216,#19,.T.);
#166=EDGE_CURVE('',#216,#212,#20,.T.);
#167=EDGE_CURVE('',#217,#218,#21,.T.);
#168=EDGE_CURVE('',#217,#219,#245,.F.);
#169=EDGE_CURVE('',#219,#220,#246,.T.);
#170=EDGE_CURVE('',#220,#221,#247,.T.);
#171=EDGE_CURVE('',#222,#221,#248,.T.);
#172=EDGE_CURVE('',#222,#218,#249,.F.);
#173=EDGE_CURVE('',#223,#224,#250,.T.);
#174=EDGE_CURVE('',#223,#225,#251,.T.);
#175=EDGE_CURVE('',#225,#226,#22,.T.);
#176=EDGE_CURVE('',#226,#227,#252,.T.);
#177=EDGE_CURVE('',#227,#228,#253,.T.);
#178=EDGE_CURVE('',#224,#228,#254,.T.);
#179=EDGE_CURVE('',#229,#230,#51,.T.);
#180=EDGE_CURVE('',#230,#216,#52,.T.);
#181=EDGE_CURVE('',#231,#215,#255,.T.);
#182=EDGE_CURVE('',#231,#232,#23,.T.);
#183=EDGE_CURVE('',#232,#233,#256,.T.);
#184=EDGE_CURVE('',#229,#233,#24,.T.);
#185=EDGE_CURVE('',#228,#221,#25,.T.);
#186=EDGE_CURVE('',#224,#220,#26,.T.);
#187=EDGE_CURVE('',#219,#223,#27,.F.);
#188=EDGE_CURVE('',#227,#222,#28,.T.);
#189=EDGE_CURVE('',#225,#217,#29,.F.);
#190=EDGE_CURVE('',#218,#226,#30,.F.);
#191=EDGE_CURVE('',#234,#214,#257,.T.);
#192=EDGE_CURVE('',#234,#231,#258,.T.);
#193=EDGE_CURVE('',#235,#213,#259,.T.);
#194=EDGE_CURVE('',#235,#234,#31,.T.);
#195=EDGE_CURVE('',#236,#207,#260,.T.);
#196=EDGE_CURVE('',#237,#236,#261,.T.);
#197=EDGE_CURVE('',#237,#235,#262,.T.);
#198=EDGE_CURVE('',#238,#236,#32,.T.);
#199=EDGE_CURVE('',#239,#238,#263,.T.);
#200=EDGE_CURVE('',#239,#237,#33,.T.);
#201=EDGE_CURVE('',#233,#238,#264,.T.);
#202=EDGE_CURVE('',#232,#239,#265,.T.);
#203=EDGE_CURVE('',#208,#240,#53,.T.);
#204=EDGE_CURVE('',#240,#229,#34,.F.);
#205=EDGE_CURVE('',#230,#240,#35,.T.);
#206=EDGE_CURVE('',#212,#230,#36,.T.);
#207=VERTEX_POINT('',#518);
#208=VERTEX_POINT('',#519);
#209=VERTEX_POINT('',#529);
#210=VERTEX_POINT('',#531);
#211=VERTEX_POINT('',#539);
#212=VERTEX_POINT('',#577);
#213=VERTEX_POINT('',#579);
#214=VERTEX_POINT('',#581);
#215=VERTEX_POINT('',#583);
#216=VERTEX_POINT('',#585);
#217=VERTEX_POINT('',#589);
#218=VERTEX_POINT('',#590);
#219=VERTEX_POINT('',#592);
#220=VERTEX_POINT('',#594);
#221=VERTEX_POINT('',#596);
#222=VERTEX_POINT('',#598);
#223=VERTEX_POINT('',#602);
#224=VERTEX_POINT('',#603);
#225=VERTEX_POINT('',#605);
#226=VERTEX_POINT('',#607);
#227=VERTEX_POINT('',#609);
#228=VERTEX_POINT('',#611);
#229=VERTEX_POINT('',#619);
#230=VERTEX_POINT('',#620);
#231=VERTEX_POINT('',#626);
#232=VERTEX_POINT('',#628);
#233=VERTEX_POINT('',#630);
#234=VERTEX_POINT('',#645);
#235=VERTEX_POINT('',#649);
#236=VERTEX_POINT('',#653);
#237=VERTEX_POINT('',#655);
#238=VERTEX_POINT('',#659);
#239=VERTEX_POINT('',#661);
#240=VERTEX_POINT('',#692);
#241=LINE('',#517,#266);
#242=LINE('',#530,#267);
#243=LINE('',#578,#268);
#244=LINE('',#582,#269);
#245=LINE('',#591,#270);
#246=LINE('',#593,#271);
#247=LINE('',#595,#272);
#248=LINE('',#597,#273);
#249=LINE('',#599,#274);
#250=LINE('',#601,#275);
#251=LINE('',#604,#276);
#252=LINE('',#608,#277);
#253=LINE('',#610,#278);
#254=LINE('',#612,#279);
#255=LINE('',#625,#280);
#256=LINE('',#629,#281);
#257=LINE('',#644,#282);
#258=LINE('',#646,#283);
#259=LINE('',#648,#284);
#260=LINE('',#652,#285);
#261=LINE('',#654,#286);
#262=LINE('',#656,#287);
#263=LINE('',#660,#288);
#264=LINE('',#664,#289);
#265=LINE('',#665,#290);
#266=VECTOR('',#407,1.);
#267=VECTOR('',#408,1.);
#268=VECTOR('',#411,1.);
#269=VECTOR('',#414,1.);
#270=VECTOR('',#423,1.);
#271=VECTOR('',#424,1.);
#272=VECTOR('',#425,1.);
#273=VECTOR('',#426,1.);
#274=VECTOR('',#427,1.);
#275=VECTOR('',#430,1.);
#276=VECTOR('',#431,1.);
#277=VECTOR('',#434,1.);
#278=VECTOR('',#435,1.);
#279=VECTOR('',#436,1.);
#280=VECTOR('',#439,1.);
#281=VECTOR('',#442,1.);
#282=VECTOR('',#469,1.);
#283=VECTOR('',#470,1.);
#284=VECTOR('',#473,1.);
#285=VECTOR('',#478,1.);
#286=VECTOR('',#479,1.);
#287=VECTOR('',#480,1.);
#288=VECTOR('',#485,1.);
#289=VECTOR('',#490,1.);
#290=VECTOR('',#491,1.);
#291=EDGE_LOOP('',(#54,#55,#56,#57,#58));
#292=EDGE_LOOP('',(#59,#60,#61,#62,#63,#64,#65));
#293=EDGE_LOOP('',(#66,#67,#68,#69,#70,#71));
#294=EDGE_LOOP('',(#72,#73,#74,#75,#76,#77));
#295=EDGE_LOOP('',(#78,#79,#80,#81,#82,#83,#84));
#296=EDGE_LOOP('',(#85,#86,#87,#88));
#297=EDGE_LOOP('',(#89,#90,#91,#92));
#298=EDGE_LOOP('',(#93,#94,#95,#96));
#299=EDGE_LOOP('',(#97,#98,#99,#100));
#300=EDGE_LOOP('',(#101,#102,#103,#104));
#301=EDGE_LOOP('',(#105,#106,#107,#108));
#302=EDGE_LOOP('',(#109,#110,#111,#112));
#303=EDGE_LOOP('',(#113,#114,#115,#116));
#304=EDGE_LOOP('',(#117,#118,#119,#120,#121,#122));
#305=EDGE_LOOP('',(#123,#124,#125,#126));
#306=EDGE_LOOP('',(#127,#128,#129,#130));
#307=EDGE_LOOP('',(#131,#132,#133,#134,#135,#136));
#308=EDGE_LOOP('',(#137,#138,#139,#140,#141,#142,#143));
#309=EDGE_LOOP('',(#144,#145,#146));
#310=EDGE_LOOP('',(#147,#148,#149));
#311=EDGE_LOOP('',(#150,#151,#152,#153,#154,#155));
#312=FACE_BOUND('',#291,.T.);
#313=FACE_BOUND('',#292,.T.);
#314=FACE_BOUND('',#293,.T.);
#315=FACE_BOUND('',#294,.T.);
#316=FACE_BOUND('',#295,.T.);
#317=FACE_BOUND('',#296,.T.);
#318=FACE_BOUND('',#297,.T.);
#319=FACE_BOUND('',#298,.T.);
#320=FACE_BOUND('',#299,.T.);
#321=FACE_BOUND('',#300,.T.);
#322=FACE_BOUND('',#301,.T.);
#323=FACE_BOUND('',#302,.T.);
#324=FACE_BOUND('',#303,.T.);
#325=FACE_BOUND('',#304,.T.);
#326=FACE_BOUND('',#305,.T.);
#327=FACE_BOUND('',#306,.T.);
#328=FACE_BOUND('',#307,.T.);
#329=FACE_BOUND('',#308,.T.);
#330=FACE_BOUND('',#309,.T.);
#331=FACE_BOUND('',#310,.T.);
#332=FACE_BOUND('',#311,.T.);
#333=(
BOUNDED_SURFACE()
B_SPLINE_SURFACE(3,1,((#503,#504),(#505,#506),(#507,#508),(#509,#510),(#511,
#512),(#513,#514),(#515,#516)),.UNSPECIFIED.,.F.,.F.,.F.)
B_SPLINE_SURFACE_WITH_KNOTS((4,3,4),(2,2),(0.749999999999912,1.,1.25),(0.068506154528473,
0.593619044381395),.PIECEWISE_BEZIER_KNOTS.)
GEOMETRIC_REPRESENTATION_ITEM()
RATIONAL_B_SPLINE_SURFACE(((0.5,0.5),(0.499999999999882,0.499999999999882),
(0.666666666666549,0.666666666666549),(1.,1.),(0.666666666666669,0.666666666666669),
(0.500000000000002,0.500000000000002),(0.5,0.5)))
REPRESENTATION_ITEM('')
SURFACE()
);
#334=(
BOUNDED_SURFACE()
B_SPLINE_SURFACE(3,3,((#694,#695,#696,#697),(#698,#699,#700,#701),(#702,
#703,#704,#705),(#706,#707,#708,#709),(#710,#711,#712,#713)),
 .SURF_OF_REVOLUTION.,.F.,.F.,.F.)
B_SPLINE_SURFACE_WITH_KNOTS((4,1,4),(4,4),(0.,0.125000000000001,0.250000000000002),
(0.,1.),.UNSPECIFIED.)
GEOMETRIC_REPRESENTATION_ITEM()
RATIONAL_B_SPLINE_SURFACE(((1.,0.999999642699999,0.999999642699999,1.),
(1.,0.999999642699999,0.999999642699999,1.),(1.,0.999999642699999,0.999999642699999,
1.),(1.,0.999999642699999,0.999999642699999,1.),(1.,0.999999642699999,0.999999642699999,
1.)))
REPRESENTATION_ITEM('')
SURFACE()
);
#335=(
BOUNDED_SURFACE()
B_SPLINE_SURFACE(3,3,((#715,#716,#717,#718),(#719,#720,#721,#722),(#723,
#724,#725,#726),(#727,#728,#729,#730),(#731,#732,#733,#734)),
 .SURF_OF_REVOLUTION.,.F.,.F.,.F.)
B_SPLINE_SURFACE_WITH_KNOTS((4,1,4),(4,4),(0.749999999999945,0.875749999999967,
1.00149999999999),(0.,1.),.UNSPECIFIED.)
GEOMETRIC_REPRESENTATION_ITEM()
RATIONAL_B_SPLINE_SURFACE(((1.,0.999999371999912,0.999999371999912,1.),
(1.,0.999999371999912,0.999999371999912,1.),(1.,0.999999371999912,0.999999371999912,
1.),(1.,0.999999371999912,0.999999371999912,1.),(1.,0.999999371999912,0.999999371999912,
1.)))
REPRESENTATION_ITEM('')
SURFACE()
);
#336=(
BOUNDED_SURFACE()
B_SPLINE_SURFACE(3,3,((#736,#737,#738,#739,#740,#741,#742,#743,#744,#745,
#746,#747,#748,#749,#750,#751,#752,#753,#754,#755,#756,#757,#758,#759,#760,
#761,#762,#763),(#764,#765,#766,#767,#768,#769,#770,#771,#772,#773,#774,
#775,#776,#777,#778,#779,#780,#781,#782,#783,#784,#785,#786,#787,#788,#789,
#790,#791),(#792,#793,#794,#795,#796,#797,#798,#799,#800,#801,#802,#803,
#804,#805,#806,#807,#808,#809,#810,#811,#812,#813,#814,#815,#816,#817,#818,
#819),(#820,#821,#822,#823,#824,#825,#826,#827,#828,#829,#830,#831,#832,
#833,#834,#835,#836,#837,#838,#839,#840,#841,#842,#843,#844,#845,#846,#847),
(#848,#849,#850,#851,#852,#853,#854,#855,#856,#857,#858,#859,#860,#861,
#862,#863,#864,#865,#866,#867,#868,#869,#870,#871,#872,#873,#874,#875),
(#876,#877,#878,#879,#880,#881,#882,#883,#884,#885,#886,#887,#888,#889,
#890,#891,#892,#893,#894,#895,#896,#897,#898,#899,#900,#901,#902,#903),
(#904,#905,#906,#907,#908,#909,#910,#911,#912,#913,#914,#915,#916,#917,
#918,#919,#920,#921,#922,#923,#924,#925,#926,#927,#928,#929,#930,#931)),
 .UNSPECIFIED.,.F.,.F.,.F.)
B_SPLINE_SURFACE_WITH_KNOTS((4,3,4),(4,2,2,2,2,2,2,2,2,2,2,2,2,4),(0.749999999999962,
1.,1.25),(0.0700967977070815,0.111920390026989,0.153743982346897,0.195567574666804,
0.237391166986712,0.314613431567398,0.391835696148082,0.546280225309452,
0.700724754470822,0.777947019051507,0.855169283632192,0.927584641816096,
0.963792320908048,0.997626913854801),.UNSPECIFIED.)
GEOMETRIC_REPRESENTATION_ITEM()
RATIONAL_B_SPLINE_SURFACE(((0.5,0.5,0.5,0.5,0.5,0.5,0.5,0.5,0.5,0.5,0.5,
0.5,0.5,0.5,0.5,0.5,0.5,0.5,0.5,0.5,0.5,0.5,0.5,0.5,0.5,0.5,0.5,0.5),(0.499999999999949,
0.499999999999949,0.499999999999949,0.499999999999949,0.499999999999949,
0.499999999999949,0.499999999999949,0.499999999999949,0.499999999999949,
0.499999999999949,0.499999999999949,0.499999999999949,0.499999999999949,
0.499999999999949,0.499999999999949,0.499999999999949,0.499999999999949,
0.499999999999949,0.499999999999949,0.499999999999949,0.499999999999949,
0.499999999999949,0.499999999999949,0.499999999999949,0.499999999999949,
0.499999999999949,0.499999999999949,0.499999999999949),(0.666666666666616,
0.666666666666616,0.666666666666616,0.666666666666616,0.666666666666616,
0.666666666666616,0.666666666666616,0.666666666666616,0.666666666666616,
0.666666666666616,0.666666666666616,0.666666666666616,0.666666666666616,
0.666666666666616,0.666666666666616,0.666666666666616,0.666666666666616,
0.666666666666616,0.666666666666616,0.666666666666616,0.666666666666616,
0.666666666666616,0.666666666666616,0.666666666666616,0.666666666666616,
0.666666666666616,0.666666666666616,0.666666666666616),(1.,1.,1.,1.,1.,
1.,1.,1.,1.,1.,1.,1.,1.,1.,1.,1.,1.,1.,1.,1.,1.,1.,1.,1.,1.,1.,1.,1.),(0.666666666666664,
0.666666666666664,0.666666666666664,0.666666666666664,0.666666666666664,
0.666666666666664,0.666666666666664,0.666666666666664,0.666666666666664,
0.666666666666664,0.666666666666664,0.666666666666664,0.666666666666664,
0.666666666666664,0.666666666666664,0.666666666666664,0.666666666666664,
0.666666666666664,0.666666666666664,0.666666666666664,0.666666666666664,
0.666666666666664,0.666666666666664,0.666666666666664,0.666666666666664,
0.666666666666664,0.666666666666664,0.666666666666664),(0.499999999999997,
0.499999999999997,0.499999999999997,0.499999999999997,0.499999999999997,
0.499999999999997,0.499999999999997,0.499999999999997,0.499999999999997,
0.499999999999997,0.499999999999997,0.499999999999997,0.499999999999997,
0.499999999999997,0.499999999999997,0.499999999999997,0.499999999999997,
0.499999999999997,0.499999999999997,0.499999999999997,0.499999999999997,
0.499999999999997,0.499999999999997,0.499999999999997,0.499999999999997,
0.499999999999997,0.499999999999997,0.499999999999997),(0.5,0.5,0.5,0.5,
0.5,0.5,0.5,0.5,0.5,0.5,0.5,0.5,0.5,0.5,0.5,0.5,0.5,0.5,0.5,0.5,0.5,0.5,
0.5,0.5,0.5,0.5,0.5,0.5)))
REPRESENTATION_ITEM('')
SURFACE()
);
#337=ADVANCED_FACE('',(#312),#333,.T.);
#338=ADVANCED_FACE('',(#313),#37,.F.);
#339=ADVANCED_FACE('',(#314),#38,.T.);
#340=ADVANCED_FACE('',(#315),#39,.F.);
#341=ADVANCED_FACE('',(#316,#317),#15,.T.);
#342=ADVANCED_FACE('',(#318),#40,.T.);
#343=ADVANCED_FACE('',(#319),#41,.F.);
#344=ADVANCED_FACE('',(#320),#14,.F.);
#345=ADVANCED_FACE('',(#321),#12,.F.);
#346=ADVANCED_FACE('',(#322),#13,.F.);
#347=ADVANCED_FACE('',(#323),#42,.T.);
#348=ADVANCED_FACE('',(#324),#16,.F.);
#349=ADVANCED_FACE('',(#325),#43,.T.);
#350=ADVANCED_FACE('',(#326),#17,.F.);
#351=ADVANCED_FACE('',(#327),#44,.T.);
#352=ADVANCED_FACE('',(#328),#45,.T.);
#353=ADVANCED_FACE('',(#329),#46,.F.);
#354=ADVANCED_FACE('',(#330),#334,.T.);
#355=ADVANCED_FACE('',(#331),#335,.T.);
#356=ADVANCED_FACE('',(#332),#336,.T.);
#357=CLOSED_SHELL('',(#337,#338,#339,#340,#341,#342,#343,#344,#345,#346,
#347,#348,#349,#350,#351,#352,#353,#354,#355,#356));
#358=STYLED_ITEM('',(#359),#366);
#359=PRESENTATION_STYLE_ASSIGNMENT((#360));
#360=SURFACE_STYLE_USAGE(.BOTH.,#361);
#361=SURFACE_SIDE_STYLE('',(#362));
#362=SURFACE_STYLE_FILL_AREA(#363);
#363=FILL_AREA_STYLE('',(#364));
#364=FILL_AREA_STYLE_COLOUR('',#365);
#365=COLOUR_RGB('',0.768627450980392,0.886274509803922,0.952941176470588);
#366=MANIFOLD_SOLID_BREP('Left Wing',#357);
#367=SHAPE_DEFINITION_REPRESENTATION(#938,#368);
#368=SHAPE_REPRESENTATION('Left Wing',(#369),#933);
#369=AXIS2_PLACEMENT_3D('',#502,#405,#406);
#370=AXIS2_PLACEMENT_3D('',#548,#409,#410);
#371=AXIS2_PLACEMENT_3D('',#580,#412,#413);
#372=AXIS2_PLACEMENT_3D('',#584,#415,#416);
#373=AXIS2_PLACEMENT_3D('',#586,#417,#418);
#374=AXIS2_PLACEMENT_3D('',#587,#419,#420);
#375=AXIS2_PLACEMENT_3D('',#588,#421,#422);
#376=AXIS2_PLACEMENT_3D('',#600,#428,#429);
#377=AXIS2_PLACEMENT_3D('',#606,#432,#433);
#378=AXIS2_PLACEMENT_3D('',#613,#437,#438);
#379=AXIS2_PLACEMENT_3D('',#627,#440,#441);
#380=AXIS2_PLACEMENT_3D('',#631,#443,#444);
#381=AXIS2_PLACEMENT_3D('',#632,#445,#446);
#382=AXIS2_PLACEMENT_3D('',#633,#447,#448);
#383=AXIS2_PLACEMENT_3D('',#634,#449,#450);
#384=AXIS2_PLACEMENT_3D('',#635,#451,#452);
#385=AXIS2_PLACEMENT_3D('',#636,#453,#454);
#386=AXIS2_PLACEMENT_3D('',#637,#455,#456);
#387=AXIS2_PLACEMENT_3D('',#638,#457,#458);
#388=AXIS2_PLACEMENT_3D('',#639,#459,#460);
#389=AXIS2_PLACEMENT_3D('',#640,#461,#462);
#390=AXIS2_PLACEMENT_3D('',#641,#463,#464);
#391=AXIS2_PLACEMENT_3D('',#642,#465,#466);
#392=AXIS2_PLACEMENT_3D('',#643,#467,#468);
#393=AXIS2_PLACEMENT_3D('',#647,#471,#472);
#394=AXIS2_PLACEMENT_3D('',#650,#474,#475);
#395=AXIS2_PLACEMENT_3D('',#651,#476,#477);
#396=AXIS2_PLACEMENT_3D('',#657,#481,#482);
#397=AXIS2_PLACEMENT_3D('',#658,#483,#484);
#398=AXIS2_PLACEMENT_3D('',#662,#486,#487);
#399=AXIS2_PLACEMENT_3D('',#663,#488,#489);
#400=AXIS2_PLACEMENT_3D('',#666,#492,#493);
#401=AXIS2_PLACEMENT_3D('',#667,#494,#495);
#402=AXIS2_PLACEMENT_3D('',#693,#496,#497);
#403=AXIS2_PLACEMENT_3D('',#714,#498,#499);
#404=AXIS2_PLACEMENT_3D('',#735,#500,#501);
#405=DIRECTION('',(0.,0.,1.));
#406=DIRECTION('',(1.,0.,0.));
#407=DIRECTION('',(0.478653777793995,-0.878003736326638,0.));
#408=DIRECTION('',(0.478653777793995,-0.878003736326638,0.));
#409=DIRECTION('',(0.,0.,1.));
#410=DIRECTION('',(1.,0.,0.));
#411=DIRECTION('',(-0.984415667119312,0.175857312415608,0.));
#412=DIRECTION('',(0.,0.,1.));
#413=DIRECTION('',(1.,0.,0.));
#414=DIRECTION('',(1.,0.,0.));
#415=DIRECTION('',(0.,0.,1.));
#416=DIRECTION('',(1.,0.,0.));
#417=DIRECTION('',(1.25322647203717E-14,2.61281567332427E-14,1.));
#418=DIRECTION('',(0.,-1.,2.61281567332427E-14));
#419=DIRECTION('',(-0.555570233019601,0.831469612302546,0.));
#420=DIRECTION('',(-0.831469612302546,-0.555570233019601,0.));
#421=DIRECTION('',(-0.555570233019601,0.831469612302546,0.));
#422=DIRECTION('',(-0.831469612302546,-0.555570233019601,0.));
#423=DIRECTION('',(-0.367337527443044,-0.245447088743536,-0.897116975404743));
#424=DIRECTION('',(0.831469612302546,0.555570233019601,0.));
#425=DIRECTION('',(0.,0.,-1.));
#426=DIRECTION('',(0.831469612302546,0.555570233019601,0.));
#427=DIRECTION('',(0.367337527443047,0.245447088743538,-0.897116975404742));
#428=DIRECTION('',(-0.555570233019603,-0.831469612302545,0.));
#429=DIRECTION('',(0.831469612302545,-0.555570233019603,0.));
#430=DIRECTION('',(-0.831469612302545,0.555570233019603,0.));
#431=DIRECTION('',(0.367337527443044,-0.245447088743537,-0.897116975404743));
#432=DIRECTION('',(-0.555570233019603,-0.831469612302545,0.));
#433=DIRECTION('',(0.831469612302545,-0.555570233019603,0.));
#434=DIRECTION('',(-0.367337527443046,0.245447088743538,-0.897116975404741));
#435=DIRECTION('',(-0.831469612302545,0.555570233019603,0.));
#436=DIRECTION('',(0.,0.,-1.));
#437=DIRECTION('',(0.,0.,-1.));
#438=DIRECTION('',(-1.,0.,0.));
#439=DIRECTION('',(0.,0.,-1.));
#440=DIRECTION('',(0.,0.,1.));
#441=DIRECTION('',(1.,0.,0.));
#442=DIRECTION('',(0.,0.,-1.));
#443=DIRECTION('',(0.,0.,1.));
#444=DIRECTION('',(1.,0.,0.));
#445=DIRECTION('',(0.,0.,1.));
#446=DIRECTION('',(1.,0.,0.));
#447=DIRECTION('',(0.,0.,1.));
#448=DIRECTION('',(1.,0.,0.));
#449=DIRECTION('',(0.,0.,1.));
#450=DIRECTION('',(1.,0.,0.));
#451=DIRECTION('',(0.,0.,1.));
#452=DIRECTION('',(1.,0.,0.));
#453=DIRECTION('',(0.,0.,1.));
#454=DIRECTION('',(1.,0.,0.));
#455=DIRECTION('',(0.,0.,1.));
#456=DIRECTION('',(1.,0.,0.));
#457=DIRECTION('',(0.,1.,0.));
#458=DIRECTION('',(1.,0.,0.));
#459=DIRECTION('',(0.,0.,-1.));
#460=DIRECTION('',(-1.,0.,0.));
#461=DIRECTION('',(0.,0.,1.));
#462=DIRECTION('',(1.,0.,0.));
#463=DIRECTION('',(0.,0.,1.));
#464=DIRECTION('',(1.,0.,0.));
#465=DIRECTION('',(0.,0.,-1.));
#466=DIRECTION('',(-1.,0.,0.));
#467=DIRECTION('',(0.,1.,0.));
#468=DIRECTION('',(0.,0.,1.));
#469=DIRECTION('',(0.,0.,-1.));
#470=DIRECTION('',(1.,0.,0.));
#471=DIRECTION('',(0.,0.,-1.));
#472=DIRECTION('',(-1.,0.,0.));
#473=DIRECTION('',(0.,0.,-1.));
#474=DIRECTION('',(0.,0.,1.));
#475=DIRECTION('',(1.,0.,0.));
#476=DIRECTION('',(-0.175857312415608,-0.984415667119312,0.));
#477=DIRECTION('',(0.984415667119312,-0.175857312415608,0.));
#478=DIRECTION('',(-0.984415667119312,0.175857312415608,0.));
#479=DIRECTION('',(0.,0.,-1.));
#480=DIRECTION('',(-0.984415667119312,0.175857312415608,0.));
#481=DIRECTION('',(0.,0.,-1.));
#482=DIRECTION('',(-1.,0.,0.));
#483=DIRECTION('',(0.,0.,1.));
#484=DIRECTION('',(1.,0.,0.));
#485=DIRECTION('',(0.,0.,-1.));
#486=DIRECTION('',(0.,0.,1.));
#487=DIRECTION('',(1.,0.,0.));
#488=DIRECTION('',(0.,1.,0.));
#489=DIRECTION('',(0.,0.,1.));
#490=DIRECTION('',(1.,0.,0.));
#491=DIRECTION('',(1.,0.,0.));
#492=DIRECTION('',(0.,0.,1.));
#493=DIRECTION('',(1.,0.,0.));
#494=DIRECTION('',(0.,0.,1.));
#495=DIRECTION('',(1.,0.,0.));
#496=DIRECTION('',(1.25322647203717E-14,2.61281567332427E-14,1.));
#497=DIRECTION('',(0.,-1.,2.61281567332427E-14));
#498=DIRECTION('',(0.,-1.,5.78241158658936E-17));
#499=DIRECTION('',(0.,-5.78241158658936E-17,-1.));
#500=DIRECTION('',(0.,-1.,5.78241158658936E-17));
#501=DIRECTION('',(0.,-5.78241158658936E-17,-1.));
#502=CARTESIAN_POINT('',(0.,0.,0.));
#503=CARTESIAN_POINT('',(-0.0406305210027118,-0.0525042502045678,0.013177892089428));
#504=CARTESIAN_POINT('',(-0.040018468630183,-0.0536269495226104,0.013177892089428));
#505=CARTESIAN_POINT('',(-0.040630521002712,-0.0525042502045677,0.0128445587560945));
#506=CARTESIAN_POINT('',(-0.0400184686301832,-0.0536269495226102,0.0128445587560945));
#507=CARTESIAN_POINT('',(-0.0404372771704713,-0.0526628592248061,0.0126778920894277));
#508=CARTESIAN_POINT('',(-0.0398252247979426,-0.0537855585428487,0.0126778920894277));
#509=CARTESIAN_POINT('',(-0.0402440333382307,-0.0528214682450446,0.0126778920894277));
#510=CARTESIAN_POINT('',(-0.0396319809657019,-0.0539441675630871,0.0126778920894277));
#511=CARTESIAN_POINT('',(-0.0400507895059901,-0.0529800772652829,0.0126778920894277));
#512=CARTESIAN_POINT('',(-0.0394387371334614,-0.0541027765833255,0.0126778920894277));
#513=CARTESIAN_POINT('',(-0.0398575456737495,-0.0531386862855213,0.0128445587560943));
#514=CARTESIAN_POINT('',(-0.0392454933012208,-0.0542613856035638,0.0128445587560943));
#515=CARTESIAN_POINT('',(-0.0398575456737495,-0.0531386862855213,0.0131778920894277));
#516=CARTESIAN_POINT('',(-0.0392454933012208,-0.0542613856035638,0.0131778920894277));
#517=CARTESIAN_POINT('',(-0.0393169433111669,-0.0541303234901874,0.0131778920894277));
#518=CARTESIAN_POINT('',(-0.0395489091265381,-0.0537048241793189,0.0131778920894277));
#519=CARTESIAN_POINT('',(-0.0398539169047422,-0.0531453426055891,0.0131778920894277));
#520=CARTESIAN_POINT('',(-0.0395489091265381,-0.0537048241793189,0.0131778920894277));
#521=CARTESIAN_POINT('',(-0.0395489091265381,-0.0537048241793189,0.0130778618223583));
#522=CARTESIAN_POINT('',(-0.0395700393979967,-0.0537010494397721,0.0129282694468494));
#523=CARTESIAN_POINT('',(-0.0396493508551773,-0.0536868811365138,0.0127452973894818));
#524=CARTESIAN_POINT('',(-0.0397853032889653,-0.0536625944145319,0.0126440668524138));
#525=CARTESIAN_POINT('',(-0.0399221893170577,-0.0536381409140323,0.0127457877901955));
#526=CARTESIAN_POINT('',(-0.0400008616267751,-0.0536240867889198,0.0129285773179273));
#527=CARTESIAN_POINT('',(-0.0400220973991901,-0.0536202932025429,0.0130779748122517));
#528=CARTESIAN_POINT('',(-0.0400220973991901,-0.0536202932025429,0.0131778920894277));
#529=CARTESIAN_POINT('',(-0.0400220973991901,-0.0536202932025429,0.0131778920894277));
#530=CARTESIAN_POINT('',(-0.0400899186401293,-0.0534958874092339,0.0131778920894277));
#531=CARTESIAN_POINT('',(-0.0402049756981544,-0.0532848360574563,0.0131778920894278));
#532=CARTESIAN_POINT('',(-0.0398438355848235,-0.0535555586023387,0.0126778920894277));
#533=CARTESIAN_POINT('',(-0.039874932793825,-0.0535558403866434,0.0126778920894277));
#534=CARTESIAN_POINT('',(-0.0399227650548813,-0.0535085885473416,0.012692835392513));
#535=CARTESIAN_POINT('',(-0.0400137625429011,-0.0534425441673369,0.012736516671816));
#536=CARTESIAN_POINT('',(-0.0401499077462703,-0.0533282101623935,0.0128710677052867));
#537=CARTESIAN_POINT('',(-0.0402049756981544,-0.0532848360574564,0.0130549028375099));
#538=CARTESIAN_POINT('',(-0.0402049756981544,-0.0532848360574564,0.0131778920894278));
#539=CARTESIAN_POINT('',(-0.0398438355848235,-0.0535555586023387,0.0126778920894277));
#540=CARTESIAN_POINT('',(-0.0398438355848235,-0.0535555586023387,0.0126778920894277));
#541=CARTESIAN_POINT('',(-0.0398283600444389,-0.0535285180356701,0.0126778920894277));
#542=CARTESIAN_POINT('',(-0.0398498890053602,-0.0534635930960628,0.012689412542921));
#543=CARTESIAN_POINT('',(-0.0398690458746013,-0.0533458475401695,0.0127152061462503));
#544=CARTESIAN_POINT('',(-0.0398775862816467,-0.0532114812582305,0.0128084325614431));
#545=CARTESIAN_POINT('',(-0.0398567752393729,-0.0531565207897003,0.0129927098234921));
#546=CARTESIAN_POINT('',(-0.0398539169047422,-0.0531453426055891,0.0131157976886141));
#547=CARTESIAN_POINT('',(-0.0398539169047422,-0.0531453426055891,0.0131778920894277));
#548=CARTESIAN_POINT('',(-0.0226219545551795,-0.0384510423182308,0.0131778920894277));
#549=CARTESIAN_POINT('',(-0.0204999999998752,-0.0263000000000521,0.0131778920894277));
#550=CARTESIAN_POINT('',(-0.0201348777724483,-0.0264528801042199,0.0131778920894277));
#551=CARTESIAN_POINT('',(-0.0195767595454424,-0.0266569812773146,0.0131778920894277));
#552=CARTESIAN_POINT('',(-0.0188498344679951,-0.0269681086403393,0.0131778920894277));
#553=CARTESIAN_POINT('',(-0.018322584825856,-0.0272391340648464,0.0131778920894277));
#554=CARTESIAN_POINT('',(-0.0178282840088102,-0.0275875496593126,0.0131778920894277));
#555=CARTESIAN_POINT('',(-0.0175417628092174,-0.0281329267833484,0.0131778920894277));
#556=CARTESIAN_POINT('',(-0.0175600926649177,-0.0287417747002655,0.0131778920894277));
#557=CARTESIAN_POINT('',(-0.01780736507529,-0.0294951163386102,0.0131778920894277));
#558=CARTESIAN_POINT('',(-0.0182930127492666,-0.0303531457967937,0.0131778920894277));
#559=CARTESIAN_POINT('',(-0.0189778397233451,-0.0313192787414207,0.0131778920894277));
#560=CARTESIAN_POINT('',(-0.0197178891995082,-0.0322430166298003,0.0131778920894277));
#561=CARTESIAN_POINT('',(-0.0207524905188761,-0.0334352519532515,0.0131778920894277));
#562=CARTESIAN_POINT('',(-0.0221042739293782,-0.0348724342004,0.0131778920894277));
#563=CARTESIAN_POINT('',(-0.0237754395145688,-0.0365490302822502,0.0131778920894277));
#564=CARTESIAN_POINT('',(-0.025480476240592,-0.0381912098721132,0.0131778920894277));
#565=CARTESIAN_POINT('',(-0.0277830225332702,-0.0403499959922856,0.0131778920894277));
#566=CARTESIAN_POINT('',(-0.0301102641697283,-0.0424821290339557,0.0131778920894277));
#567=CARTESIAN_POINT('',(-0.0324406013753221,-0.0446108110074501,0.0131778920894277));
#568=CARTESIAN_POINT('',(-0.0341839944220754,-0.0462120763930653,0.0131778920894277));
#569=CARTESIAN_POINT('',(-0.0359129802091665,-0.0478290304496997,0.0131778920894277));
#570=CARTESIAN_POINT('',(-0.0373298280046653,-0.0492013399669095,0.0131778920894277));
#571=CARTESIAN_POINT('',(-0.0384275011856216,-0.0503357819868182,0.0131778920894277));
#572=CARTESIAN_POINT('',(-0.0392183392236732,-0.0512161749507436,0.0131778920894277));
#573=CARTESIAN_POINT('',(-0.039832906808018,-0.0519904007352419,0.0131778920894277));
#574=CARTESIAN_POINT('',(-0.0402121439052684,-0.052683983171131,0.0131778920894277));
#575=CARTESIAN_POINT('',(-0.0402631297532063,-0.0530932709980944,0.0131778920894277));
#576=CARTESIAN_POINT('',(-0.0402049756981544,-0.0532848360574563,0.0131778920894277));
#577=CARTESIAN_POINT('',(-0.0205,-0.0263,0.0131778920894277));
#578=CARTESIAN_POINT('',(-0.0226219545551795,-0.0567286776567945,0.0131778920894277));
#579=CARTESIAN_POINT('',(-0.0431855032628642,-0.0530551782091038,0.0131778920894277));
#580=CARTESIAN_POINT('',(-0.0611116964261729,-0.029,0.0131778920894277));
#581=CARTESIAN_POINT('',(-0.0324935203836645,-0.02,0.0131778920894277));
#582=CARTESIAN_POINT('',(-0.0293967601918323,-0.02,0.0131778920894277));
#583=CARTESIAN_POINT('',(-0.0263,-0.02,0.0131778920894277));
#584=CARTESIAN_POINT('',(-0.02,-0.02,0.0131778920894277));
#585=CARTESIAN_POINT('',(-0.0205574976371144,-0.0262752845660266,0.0131778920894279));
#586=CARTESIAN_POINT('',(-0.0114715178619716,-0.00521702789024376,0.013177892089427));
#587=CARTESIAN_POINT('',(-0.0155932110547965,-0.0170554777649961,0.0166778920894277));
#588=CARTESIAN_POINT('',(-0.02,-0.02,0.0136778920894277));
#589=CARTESIAN_POINT('',(-0.016931692465136,-0.017949822450637,0.0158852119320388));
#590=CARTESIAN_POINT('',(-0.016931692465136,-0.017949822450637,0.0114705722468166));
#591=CARTESIAN_POINT('',(-0.02,-0.02,0.00839174728537098));
#592=CARTESIAN_POINT('',(-0.0166071181040979,-0.0177329487961751,0.0166778920894277));
#593=CARTESIAN_POINT('',(-0.0155932110547965,-0.0170554777649961,0.0166778920894277));
#594=CARTESIAN_POINT('',(-0.014761741442494,-0.0164999075319765,0.0166778920894277));
#595=CARTESIAN_POINT('',(-0.014761741442494,-0.0164999075319765,0.0166778920894277));
#596=CARTESIAN_POINT('',(-0.014761741442494,-0.0164999075319765,0.0106778920894277));
#597=CARTESIAN_POINT('',(-0.0155932110547965,-0.0170554777649961,0.0106778920894277));
#598=CARTESIAN_POINT('',(-0.0166071181040979,-0.0177329487961751,0.0106778920894277));
#599=CARTESIAN_POINT('',(-0.02,-0.02,0.0189640368934844));
#600=CARTESIAN_POINT('',(-0.0244067889452035,-0.0170554777649961,0.0166778920894277));
#601=CARTESIAN_POINT('',(-0.0244067889452035,-0.0170554777649961,0.0166778920894277));
#602=CARTESIAN_POINT('',(-0.0233928818959021,-0.0177329487961751,0.0166778920894277));
#603=CARTESIAN_POINT('',(-0.025238258557506,-0.0164999075319765,0.0166778920894277));
#604=CARTESIAN_POINT('',(-0.02,-0.02,0.00839174728537098));
#605=CARTESIAN_POINT('',(-0.023068307534864,-0.017949822450637,0.0158852119320388));
#606=CARTESIAN_POINT('',(-0.02,-0.02,0.0136778920894277));
#607=CARTESIAN_POINT('',(-0.023068307534864,-0.017949822450637,0.0114705722468166));
#608=CARTESIAN_POINT('',(-0.02,-0.02,0.0189640368934844));
#609=CARTESIAN_POINT('',(-0.0233928818959021,-0.0177329487961751,0.0106778920894277));
#610=CARTESIAN_POINT('',(-0.0244067889452035,-0.0170554777649961,0.0106778920894277));
#611=CARTESIAN_POINT('',(-0.025238258557506,-0.0164999075319765,0.0106778920894277));
#612=CARTESIAN_POINT('',(-0.025238258557506,-0.0164999075319765,0.0166778920894277));
#613=CARTESIAN_POINT('',(-0.02,-0.02,0.0166778920894277));
#614=CARTESIAN_POINT('',(-0.0195433780935281,-0.0262834303079234,0.0131778920894184));
#615=CARTESIAN_POINT('',(-0.0195433780935301,-0.0262834303079235,0.0130506653922589));
#616=CARTESIAN_POINT('',(-0.0196218535453841,-0.0262904824174985,0.0127928073727266));
#617=CARTESIAN_POINT('',(-0.0198738042560532,-0.0263,0.0126778920894277));
#618=CARTESIAN_POINT('',(-0.02,-0.0263,0.0126778920894277));
#619=CARTESIAN_POINT('',(-0.0195433780935281,-0.0262834303079234,0.0131778920894184));
#620=CARTESIAN_POINT('',(-0.02,-0.0263,0.0126778920894277));
#621=CARTESIAN_POINT('',(-0.02,-0.0263,0.0126778920894277));
#622=CARTESIAN_POINT('',(-0.0202775542496853,-0.0263,0.0126778920894277));
#623=CARTESIAN_POINT('',(-0.0205574976371145,-0.0262752845660266,0.0129032972828934));
#624=CARTESIAN_POINT('',(-0.0205574976371144,-0.0262752845660266,0.0131778920894279));
#625=CARTESIAN_POINT('',(-0.0263,-0.02,0.0141778920894277));
#626=CARTESIAN_POINT('',(-0.0263,-0.02,0.0141778920894277));
#627=CARTESIAN_POINT('',(-0.02,-0.02,0.0141778920894277));
#628=CARTESIAN_POINT('',(-0.0137,-0.02,0.0141778920894277));
#629=CARTESIAN_POINT('',(-0.0137,-0.02,0.0141778920894277));
#630=CARTESIAN_POINT('',(-0.0137,-0.02,0.0131778920894277));
#631=CARTESIAN_POINT('',(-0.02,-0.02,0.0131778920894277));
#632=CARTESIAN_POINT('',(-0.02,-0.02,0.0106778920894277));
#633=CARTESIAN_POINT('',(-0.02,-0.02,0.0166778920894277));
#634=CARTESIAN_POINT('',(-0.02,-0.02,0.0166778920894277));
#635=CARTESIAN_POINT('',(-0.02,-0.02,0.0166778920894277));
#636=CARTESIAN_POINT('',(-0.02,-0.02,0.0106778920894277));
#637=CARTESIAN_POINT('',(-0.02,-0.02,0.0106778920894277));
#638=CARTESIAN_POINT('',(-0.02,-0.02,0.0136778920894277));
#639=CARTESIAN_POINT('',(-0.02,-0.02,0.0158852119320388));
#640=CARTESIAN_POINT('',(-0.02,-0.02,0.0114705722468166));
#641=CARTESIAN_POINT('',(-0.02,-0.02,0.0158852119320388));
#642=CARTESIAN_POINT('',(-0.02,-0.02,0.0106778920894277));
#643=CARTESIAN_POINT('',(-0.0293967601918323,-0.02,0.0141778920894277));
#644=CARTESIAN_POINT('',(-0.0324935203836645,-0.02,0.0141778920894277));
#645=CARTESIAN_POINT('',(-0.0324935203836645,-0.02,0.0141778920894277));
#646=CARTESIAN_POINT('',(-0.0293967601918323,-0.02,0.0141778920894277));
#647=CARTESIAN_POINT('',(-0.0611116964261729,-0.029,0.0141778920894277));
#648=CARTESIAN_POINT('',(-0.0431855032628642,-0.0530551782091038,0.0141778920894277));
#649=CARTESIAN_POINT('',(-0.0431855032628642,-0.0530551782091038,0.0141778920894277));
#650=CARTESIAN_POINT('',(-0.0611116964261729,-0.029,0.0141778920894277));
#651=CARTESIAN_POINT('',(-0.0226219545551795,-0.0567286776567945,0.0141778920894277));
#652=CARTESIAN_POINT('',(-0.0226219545551795,-0.0567286776567945,0.0131778920894277));
#653=CARTESIAN_POINT('',(-0.00205840584749485,-0.0604021771044852,0.0131778920894277));
#654=CARTESIAN_POINT('',(-0.00205840584749485,-0.0604021771044852,0.0141778920894277));
#655=CARTESIAN_POINT('',(-0.00205840584749485,-0.0604021771044852,0.0141778920894277));
#656=CARTESIAN_POINT('',(-0.0226219545551795,-0.0567286776567945,0.0141778920894277));
#657=CARTESIAN_POINT('',(0.0782833127354589,-0.029,0.0141778920894277));
#658=CARTESIAN_POINT('',(0.0782833127354589,-0.029,0.0131778920894277));
#659=CARTESIAN_POINT('',(-0.00750647961633544,-0.02,0.0131778920894277));
#660=CARTESIAN_POINT('',(-0.00750647961633544,-0.02,0.0141778920894277));
#661=CARTESIAN_POINT('',(-0.00750647961633544,-0.02,0.0141778920894277));
#662=CARTESIAN_POINT('',(0.0782833127354589,-0.029,0.0141778920894277));
#663=CARTESIAN_POINT('',(-0.0106032398081677,-0.02,0.0141778920894277));
#664=CARTESIAN_POINT('',(-0.0106032398081677,-0.02,0.0131778920894277));
#665=CARTESIAN_POINT('',(-0.0106032398081677,-0.02,0.0141778920894277));
#666=CARTESIAN_POINT('',(-0.0226219545551795,-0.0384510423182308,0.0141778920894277));
#667=CARTESIAN_POINT('',(-0.0226219545551795,-0.0384510423182308,0.0131778920894277));
#668=CARTESIAN_POINT('',(-0.0398539169047422,-0.0531453426055891,0.0131778920894277));
#669=CARTESIAN_POINT('',(-0.0398228719809819,-0.0527536631398214,0.0131778920894277));
#670=CARTESIAN_POINT('',(-0.0394077674794769,-0.0520557568475915,0.0131778920894277));
#671=CARTESIAN_POINT('',(-0.0386817385483075,-0.0511694732330999,0.0131778920894277));
#672=CARTESIAN_POINT('',(-0.0378873649111611,-0.0503128991269363,0.0131778920894277));
#673=CARTESIAN_POINT('',(-0.0368013126297857,-0.0492079686861447,0.0131778920894277));
#674=CARTESIAN_POINT('',(-0.0354029886398273,-0.0478632527383311,0.0131778920894277));
#675=CARTESIAN_POINT('',(-0.033701427152083,-0.0462768819178099,0.0131778920894277));
#676=CARTESIAN_POINT('',(-0.0319870892320239,-0.0447037195826661,0.0131778920894277));
#677=CARTESIAN_POINT('',(-0.0296964391228531,-0.0426117493142467,0.0131778920894277));
#678=CARTESIAN_POINT('',(-0.0274093352722599,-0.0405156575558829,0.0131778920894277));
#679=CARTESIAN_POINT('',(-0.0251483166572598,-0.0383918068926887,0.0131778920894277));
#680=CARTESIAN_POINT('',(-0.0234737218354672,-0.0367762397249942,0.0131778920894277));
#681=CARTESIAN_POINT('',(-0.0218309241770035,-0.0351293554906894,0.0131778920894277));
#682=CARTESIAN_POINT('',(-0.0202368495431718,-0.0334328782292454,0.0131778920894277));
#683=CARTESIAN_POINT('',(-0.0189801148068888,-0.0319578373493469,0.0131778920894277));
#684=CARTESIAN_POINT('',(-0.0180705064907027,-0.0306977183054705,0.0131778920894277));
#685=CARTESIAN_POINT('',(-0.0174751315034487,-0.0297017910143026,0.0131778920894277));
#686=CARTESIAN_POINT('',(-0.0171240862113931,-0.0287734627313077,0.0131778920894277));
#687=CARTESIAN_POINT('',(-0.0172162763788608,-0.0279878117132048,0.0131778920894277));
#688=CARTESIAN_POINT('',(-0.0176068865940824,-0.0272989205882774,0.0131778920894277));
#689=CARTESIAN_POINT('',(-0.0184273193830559,-0.0267456108697413,0.0131778920894277));
#690=CARTESIAN_POINT('',(-0.0191384481579306,-0.0264411586824249,0.0131778920894277));
#691=CARTESIAN_POINT('',(-0.0195,-0.0263,0.0131778920894277));
#692=CARTESIAN_POINT('',(-0.0194999999998752,-0.0263000000000489,0.0131778920894277));
#693=CARTESIAN_POINT('',(-0.0114715178619716,-0.00521702789024376,0.0131778920894285));
#694=CARTESIAN_POINT('',(-0.0200436371871665,-0.0262822952950039,0.0126778920894277));
#695=CARTESIAN_POINT('',(-0.0200290975707166,-0.0262882119218739,0.0126778920894277));
#696=CARTESIAN_POINT('',(-0.0200145518364221,-0.0262941134923315,0.0126778920894277));
#697=CARTESIAN_POINT('',(-0.0199999999998747,-0.0263000000000507,0.0126778920894277));
#698=CARTESIAN_POINT('',(-0.0199603040324832,-0.0262824678492271,0.0126778920894277));
#699=CARTESIAN_POINT('',(-0.0199457642969333,-0.0262883269580945,0.0126778920894277));
#700=CARTESIAN_POINT('',(-0.0199312185030888,-0.0262941710104569,0.0126778920894277));
#701=CARTESIAN_POINT('',(-0.0199166666665414,-0.0263000000000502,0.0126778920894277));
#702=CARTESIAN_POINT('',(-0.019735304514838,-0.02628293374563,0.012711225422761));
#703=CARTESIAN_POINT('',(-0.0197207644577183,-0.0262886375558902,0.012711225422761));
#704=CARTESIAN_POINT('',(-0.0197062185030888,-0.0262943263093957,0.012711225422761));
#705=CARTESIAN_POINT('',(-0.0196916666665414,-0.0263000000000488,0.012711225422761));
#706=CARTESIAN_POINT('',(-0.0195436382590662,-0.0262833306203435,0.013011225422761));
#707=CARTESIAN_POINT('',(-0.0195290979280166,-0.0262889021391976,0.013011225422761));
#708=CARTESIAN_POINT('',(-0.0195145518364221,-0.0262944586010843,0.013011225422761));
#709=CARTESIAN_POINT('',(-0.0194999999998747,-0.0263000000000477,0.013011225422761));
#710=CARTESIAN_POINT('',(-0.0195436382590663,-0.0262833306203435,0.0131778920894277));
#711=CARTESIAN_POINT('',(-0.0195290979280166,-0.0262889021391976,0.0131778920894277));
#712=CARTESIAN_POINT('',(-0.0195145518364221,-0.0262944586010843,0.0131778920894277));
#713=CARTESIAN_POINT('',(-0.0194999999998747,-0.0263000000000477,0.0131778920894277));
#714=CARTESIAN_POINT('',(-0.02,-0.0263,0.0131778920894277));
#715=CARTESIAN_POINT('',(-0.0205578424191744,-0.0262751357999927,0.0131778920894279));
#716=CARTESIAN_POINT('',(-0.0205385729949497,-0.0262834503286904,0.0131778920894279));
#717=CARTESIAN_POINT('',(-0.0205192921764499,-0.0262917384005645,0.0131778920894279));
#718=CARTESIAN_POINT('',(-0.0204999999999998,-0.0263000000000001,0.0131778920894279));
#719=CARTESIAN_POINT('',(-0.0205578424191744,-0.0262751357999927,0.0130102254227612));
#720=CARTESIAN_POINT('',(-0.0205385729949498,-0.0262834503286904,0.0130102254227612));
#721=CARTESIAN_POINT('',(-0.02051929217645,-0.0262917384005645,0.0130102254227612));
#722=CARTESIAN_POINT('',(-0.0204999999999999,-0.0263000000000001,0.0130102254227612));
#723=CARTESIAN_POINT('',(-0.020363337223561,-0.0262756697527176,0.0127091073304892));
#724=CARTESIAN_POINT('',(-0.0203440673107378,-0.0262838062975649,0.0127091073304892));
#725=CARTESIAN_POINT('',(-0.0203247862479385,-0.0262919163850855,0.0127091073304892));
#726=CARTESIAN_POINT('',(-0.0203054940714884,-0.0263000000000001,0.0127091073304892));
#727=CARTESIAN_POINT('',(-0.0201391713119846,-0.0262762851295919,0.0126773935984822));
#728=CARTESIAN_POINT('',(-0.0201199008360548,-0.0262842165492653,0.0126773935984822));
#729=CARTESIAN_POINT('',(-0.0201006194917019,-0.0262921215110323,0.0126773935984822));
#730=CARTESIAN_POINT('',(-0.0200813273152519,-0.0263000000000001,0.0126773935984822));
#731=CARTESIAN_POINT('',(-0.0200548353146746,-0.0262765166474977,0.0126779011435897));
#732=CARTESIAN_POINT('',(-0.0200355646268922,-0.0262843708947055,0.0126779011435897));
#733=CARTESIAN_POINT('',(-0.0200162831766129,-0.0262921986837888,0.0126779011435897));
#734=CARTESIAN_POINT('',(-0.0199969910001628,-0.0263000000000001,0.0126779011435897));
#735=CARTESIAN_POINT('',(-0.02,-0.0263,0.0131778920894277));
#736=CARTESIAN_POINT('',(-0.0205,-0.0263,0.0131778920894278));
#737=CARTESIAN_POINT('',(-0.0200993324976789,-0.0264677632444433,0.0131778920894278));
#738=CARTESIAN_POINT('',(-0.0197096909510797,-0.0266091347239873,0.0131778920894281));
#739=CARTESIAN_POINT('',(-0.0190103982083571,-0.0268967128475169,0.0131778920894276));
#740=CARTESIAN_POINT('',(-0.0187005697518,-0.0270379286214929,0.0131778920894278));
#741=CARTESIAN_POINT('',(-0.0181762719320636,-0.027336671190052,0.0131778920894278));
#742=CARTESIAN_POINT('',(-0.0179537087740661,-0.0274900374774718,0.0131778920894281));
#743=CARTESIAN_POINT('',(-0.0176236784714524,-0.0279324507412197,0.0131778920894276));
#744=CARTESIAN_POINT('',(-0.0175313603224195,-0.0282318384615714,0.0131778920894283));
#745=CARTESIAN_POINT('',(-0.0176398611844563,-0.0292876992866939,0.013177892089427));
#746=CARTESIAN_POINT('',(-0.018152401566052,-0.0301815809874445,0.0131778920894278));
#747=CARTESIAN_POINT('',(-0.0195792075520804,-0.0321175762869412,0.0131778920894278));
#748=CARTESIAN_POINT('',(-0.020508196461058,-0.0331753871362803,0.0131778920894278));
#749=CARTESIAN_POINT('',(-0.0236196564863051,-0.0364647842574563,0.0131778920894278));
#750=CARTESIAN_POINT('',(-0.026099421221425,-0.0387899703655671,0.0131778920894278));
#751=CARTESIAN_POINT('',(-0.030893606107497,-0.0432084739931749,0.0131778920894278));
#752=CARTESIAN_POINT('',(-0.0332284322758171,-0.0453136177701256,0.0131778920894278));
#753=CARTESIAN_POINT('',(-0.0361185223339728,-0.0480265713446669,0.0131778920894278));
#754=CARTESIAN_POINT('',(-0.0369819072902947,-0.0488584804861816,0.0131778920894278));
#755=CARTESIAN_POINT('',(-0.0384163342269309,-0.0503158124987263,0.0131778920894278));
#756=CARTESIAN_POINT('',(-0.0389780002733079,-0.0509355682975906,0.0131778920894274));
#757=CARTESIAN_POINT('',(-0.0397530029702538,-0.0518894947573766,0.0131778920894282));
#758=CARTESIAN_POINT('',(-0.0399724254767604,-0.0522219771740725,0.0131778920894278));
#759=CARTESIAN_POINT('',(-0.0401823828009563,-0.0526888686628942,0.0131778920894278));
#760=CARTESIAN_POINT('',(-0.040226872045949,-0.0528424984434113,0.0131778920894278));
#761=CARTESIAN_POINT('',(-0.0402460693852017,-0.0531171662294405,0.0131778920894278));
#762=CARTESIAN_POINT('',(-0.0402257257568049,-0.0532365813851493,0.013177892089428));
#763=CARTESIAN_POINT('',(-0.0401878609111862,-0.0533345912674487,0.0131778920894279));
#764=CARTESIAN_POINT('',(-0.0205000000000001,-0.0263,0.0128445587560944));
#765=CARTESIAN_POINT('',(-0.020099332497679,-0.0264677632444433,0.0128445587560944));
#766=CARTESIAN_POINT('',(-0.01970969095108,-0.0266091347239873,0.0128445587560947));
#767=CARTESIAN_POINT('',(-0.019010398208357,-0.0268967128475169,0.0128445587560942));
#768=CARTESIAN_POINT('',(-0.0187005697518001,-0.0270379286214929,0.0128445587560944));
#769=CARTESIAN_POINT('',(-0.0181762719320637,-0.027336671190052,0.0128445587560944));
#770=CARTESIAN_POINT('',(-0.0179537087740661,-0.0274900374774718,0.0128445587560947));
#771=CARTESIAN_POINT('',(-0.0176236784714524,-0.0279324507412196,0.0128445587560942));
#772=CARTESIAN_POINT('',(-0.0175313603224195,-0.0282318384615713,0.0128445587560948));
#773=CARTESIAN_POINT('',(-0.0176398611844563,-0.0292876992866938,0.0128445587560936));
#774=CARTESIAN_POINT('',(-0.018152401566052,-0.0301815809874444,0.0128445587560944));
#775=CARTESIAN_POINT('',(-0.0195792075520804,-0.0321175762869411,0.0128445587560944));
#776=CARTESIAN_POINT('',(-0.0205081964610579,-0.0331753871362802,0.0128445587560944));
#777=CARTESIAN_POINT('',(-0.023619656486305,-0.0364647842574562,0.0128445587560944));
#778=CARTESIAN_POINT('',(-0.026099421221425,-0.038789970365567,0.0128445587560944));
#779=CARTESIAN_POINT('',(-0.0308936061074969,-0.0432084739931748,0.0128445587560944));
#780=CARTESIAN_POINT('',(-0.033228432275817,-0.0453136177701255,0.0128445587560944));
#781=CARTESIAN_POINT('',(-0.0361185223339727,-0.0480265713446668,0.0128445587560944));
#782=CARTESIAN_POINT('',(-0.0369819072902946,-0.0488584804861815,0.0128445587560944));
#783=CARTESIAN_POINT('',(-0.0384163342269308,-0.0503158124987262,0.0128445587560944));
#784=CARTESIAN_POINT('',(-0.0389780002733078,-0.0509355682975905,0.012844558756094));
#785=CARTESIAN_POINT('',(-0.0397530029702539,-0.0518894947573765,0.0128445587560948));
#786=CARTESIAN_POINT('',(-0.0399724254767604,-0.0522219771740724,0.0128445587560944));
#787=CARTESIAN_POINT('',(-0.0401823828009564,-0.0526888686628942,0.0128445587560944));
#788=CARTESIAN_POINT('',(-0.0402268720459491,-0.0528424984434112,0.0128445587560944));
#789=CARTESIAN_POINT('',(-0.0402460693852018,-0.0531171662294404,0.0128445587560944));
#790=CARTESIAN_POINT('',(-0.0402257257568052,-0.0532365813851492,0.0128445587560946));
#791=CARTESIAN_POINT('',(-0.0401878609111863,-0.0533345912674486,0.0128445587560944));
#792=CARTESIAN_POINT('',(-0.0202500000000001,-0.0263,0.0126778920894277));
#793=CARTESIAN_POINT('',(-0.0198486644204374,-0.0264651908652598,0.0126778920894277));
#794=CARTESIAN_POINT('',(-0.0194593767717678,-0.026613615116501,0.0126778920894278));
#795=CARTESIAN_POINT('',(-0.018761975756623,-0.0269277538971566,0.0126778920894276));
#796=CARTESIAN_POINT('',(-0.0184537371608658,-0.0270910255039988,0.0126778920894277));
#797=CARTESIAN_POINT('',(-0.0179537843777726,-0.0274560231442649,0.0126778920894277));
#798=CARTESIAN_POINT('',(-0.0177584580823888,-0.0276550068467791,0.0126778920894279));
#799=CARTESIAN_POINT('',(-0.0175126382443949,-0.0281626849562845,0.0126778920894274));
#800=CARTESIAN_POINT('',(-0.0174699098315353,-0.0284767242748823,0.0126778920894281));
#801=CARTESIAN_POINT('',(-0.0176782931347071,-0.0295431755173738,0.012677892089427));
#802=CARTESIAN_POINT('',(-0.0182059670706478,-0.0304261948296417,0.0126778920894277));
#803=CARTESIAN_POINT('',(-0.0196603627816873,-0.0323544708286541,0.0126778920894277));
#804=CARTESIAN_POINT('',(-0.0205958679608698,-0.0334095729342709,0.0126778920894277));
#805=CARTESIAN_POINT('',(-0.0237224041038343,-0.0366929509652684,0.0126778920894277));
#806=CARTESIAN_POINT('',(-0.0262050369307235,-0.039016571318661,0.0126778920894277));
#807=CARTESIAN_POINT('',(-0.0310021748153791,-0.0434336750270586,0.0126778920894277));
#808=CARTESIAN_POINT('',(-0.0333366413343403,-0.0455390315130746,0.0126778920894277));
#809=CARTESIAN_POINT('',(-0.0362205480808726,-0.0482548165766698,0.0126778920894277));
#810=CARTESIAN_POINT('',(-0.0370810007571328,-0.0490880964670128,0.0126778920894277));
#811=CARTESIAN_POINT('',(-0.0385032522015647,-0.0505503082971481,0.0126778920894277));
#812=CARTESIAN_POINT('',(-0.0390588359612303,-0.0511737558790237,0.0126778920894272));
#813=CARTESIAN_POINT('',(-0.039781405316538,-0.0521392313813471,0.0126778920894281));
#814=CARTESIAN_POINT('',(-0.0399560118919362,-0.052479206099031,0.0126778920894277));
#815=CARTESIAN_POINT('',(-0.0400763357624764,-0.0529174251148614,0.0126778920894277));
#816=CARTESIAN_POINT('',(-0.0400900068719541,-0.0530535568125038,0.0126778920894277));
#817=CARTESIAN_POINT('',(-0.0400674736961561,-0.053294035409386,0.0126778920894277));
#818=CARTESIAN_POINT('',(-0.0400348254421099,-0.0533982748660774,0.0126778920894278));
#819=CARTESIAN_POINT('',(-0.039991778459249,-0.0534896830767513,0.0126778920894277));
#820=CARTESIAN_POINT('',(-0.02,-0.0263,0.0126778920894277));
#821=CARTESIAN_POINT('',(-0.0195979963431959,-0.0264626184860762,0.0126778920894277));
#822=CARTESIAN_POINT('',(-0.0192090625924554,-0.0266180955090147,0.0126778920894277));
#823=CARTESIAN_POINT('',(-0.018513553304889,-0.0269587949467964,0.0126778920894277));
#824=CARTESIAN_POINT('',(-0.0182069045699315,-0.0271441223865047,0.0126778920894277));
#825=CARTESIAN_POINT('',(-0.0177312968234814,-0.0275753750984777,0.0126778920894277));
#826=CARTESIAN_POINT('',(-0.0175632073907115,-0.0278199762160865,0.0126778920894279));
#827=CARTESIAN_POINT('',(-0.0174015980173375,-0.0283929191713495,0.0126778920894274));
#828=CARTESIAN_POINT('',(-0.0174084593406512,-0.0287216100881934,0.012677892089428));
#829=CARTESIAN_POINT('',(-0.0177167250849579,-0.0297986517480538,0.012677892089427));
#830=CARTESIAN_POINT('',(-0.0182595325752435,-0.030670808671839,0.0126778920894277));
#831=CARTESIAN_POINT('',(-0.0197415180112943,-0.0325913653703672,0.0126778920894277));
#832=CARTESIAN_POINT('',(-0.0206835394606817,-0.0336437587322616,0.0126778920894277));
#833=CARTESIAN_POINT('',(-0.0238251517213637,-0.0369211176730807,0.0126778920894277));
#834=CARTESIAN_POINT('',(-0.0263106526400221,-0.0392431722717551,0.0126778920894277));
#835=CARTESIAN_POINT('',(-0.0311107435232612,-0.0436588760609423,0.0126778920894277));
#836=CARTESIAN_POINT('',(-0.0334448503928636,-0.0457644452560238,0.0126778920894277));
#837=CARTESIAN_POINT('',(-0.0363225738277725,-0.0484830618086728,0.0126778920894277));
#838=CARTESIAN_POINT('',(-0.0371800942239709,-0.0493177124478441,0.0126778920894277));
#839=CARTESIAN_POINT('',(-0.0385901701761987,-0.0507848040955701,0.0126778920894277));
#840=CARTESIAN_POINT('',(-0.039139671649153,-0.051411943460457,0.0126778920894271));
#841=CARTESIAN_POINT('',(-0.0398098076628219,-0.0523889680053176,0.0126778920894282));
#842=CARTESIAN_POINT('',(-0.0399395983071119,-0.0527364350239896,0.0126778920894277));
#843=CARTESIAN_POINT('',(-0.0399702887239964,-0.0531459815668286,0.0126778920894277));
#844=CARTESIAN_POINT('',(-0.0399531416979591,-0.0532646151815965,0.0126778920894277));
#845=CARTESIAN_POINT('',(-0.0398888780071105,-0.0534709045893315,0.0126778920894277));
#846=CARTESIAN_POINT('',(-0.0398439251274146,-0.0535599683470057,0.0126778920894277));
#847=CARTESIAN_POINT('',(-0.0397956960073117,-0.0536447748860539,0.0126778920894277));
#848=CARTESIAN_POINT('',(-0.01975,-0.0263,0.0126778920894277));
#849=CARTESIAN_POINT('',(-0.0193473282659544,-0.0264600461068927,0.0126778920894277));
#850=CARTESIAN_POINT('',(-0.0189587484131431,-0.0266225759015283,0.0126778920894276));
#851=CARTESIAN_POINT('',(-0.0182651308531551,-0.026989835996436,0.0126778920894278));
#852=CARTESIAN_POINT('',(-0.0179600719789972,-0.0271972192690106,0.0126778920894277));
#853=CARTESIAN_POINT('',(-0.0175088092691903,-0.0276947270526906,0.0126778920894277));
#854=CARTESIAN_POINT('',(-0.0173679566990342,-0.0279849455853938,0.0126778920894279));
#855=CARTESIAN_POINT('',(-0.01729055779028,-0.0286231533864143,0.0126778920894274));
#856=CARTESIAN_POINT('',(-0.017347008849767,-0.0289664959015044,0.012677892089428));
#857=CARTESIAN_POINT('',(-0.0177551570352088,-0.0300541279787337,0.0126778920894271));
#858=CARTESIAN_POINT('',(-0.0183130980798392,-0.0309154225140363,0.0126778920894277));
#859=CARTESIAN_POINT('',(-0.0198226732409012,-0.0328282599120802,0.0126778920894277));
#860=CARTESIAN_POINT('',(-0.0207712109604936,-0.0338779445302523,0.0126778920894277));
#861=CARTESIAN_POINT('',(-0.023927899338893,-0.0371492843808928,0.0126778920894277));
#862=CARTESIAN_POINT('',(-0.0264162683493206,-0.0394697732248491,0.0126778920894277));
#863=CARTESIAN_POINT('',(-0.0312193122311433,-0.0438840770948261,0.0126778920894277));
#864=CARTESIAN_POINT('',(-0.0335530594513868,-0.0459898589989729,0.0126778920894277));
#865=CARTESIAN_POINT('',(-0.0364245995746724,-0.0487113070406758,0.0126778920894277));
#866=CARTESIAN_POINT('',(-0.0372791876908091,-0.0495473284286753,0.0126778920894277));
#867=CARTESIAN_POINT('',(-0.0386770881508325,-0.051019299893992,0.0126778920894277));
#868=CARTESIAN_POINT('',(-0.0392205073370756,-0.0516501310418902,0.0126778920894271));
#869=CARTESIAN_POINT('',(-0.0398382100091058,-0.0526387046292881,0.0126778920894282));
#870=CARTESIAN_POINT('',(-0.0399231847222877,-0.0529936639489482,0.0126778920894277));
#871=CARTESIAN_POINT('',(-0.0398642416855164,-0.0533745380187957,0.0126778920894277));
#872=CARTESIAN_POINT('',(-0.0398162765239642,-0.0534756735506891,0.0126778920894277));
#873=CARTESIAN_POINT('',(-0.0397102823180648,-0.053647773769277,0.0126778920894277));
#874=CARTESIAN_POINT('',(-0.0396530248127193,-0.0537216618279339,0.0126778920894276));
#875=CARTESIAN_POINT('',(-0.0395996135553745,-0.0537998666953565,0.0126778920894277));
#876=CARTESIAN_POINT('',(-0.0195,-0.0263,0.0128445587560943));
#877=CARTESIAN_POINT('',(-0.0190966601887129,-0.0264574737277092,0.0128445587560943));
#878=CARTESIAN_POINT('',(-0.0187084342338306,-0.026627056294042,0.0128445587560941));
#879=CARTESIAN_POINT('',(-0.0180167084014213,-0.0270208770460757,0.0128445587560946));
#880=CARTESIAN_POINT('',(-0.0177132393880629,-0.0272503161515164,0.0128445587560943));
#881=CARTESIAN_POINT('',(-0.0172863217148992,-0.0278140790069034,0.0128445587560943));
#882=CARTESIAN_POINT('',(-0.017172706007357,-0.0281499149547011,0.0128445587560946));
#883=CARTESIAN_POINT('',(-0.0171795175632225,-0.0288533876014792,0.0128445587560941));
#884=CARTESIAN_POINT('',(-0.0172855583588828,-0.0292113817148154,0.0128445587560946));
#885=CARTESIAN_POINT('',(-0.0177935889854596,-0.0303096042094137,0.0128445587560939));
#886=CARTESIAN_POINT('',(-0.0183666635844349,-0.0311600363562336,0.0128445587560943));
#887=CARTESIAN_POINT('',(-0.0199038284705082,-0.0330651544537932,0.0128445587560943));
#888=CARTESIAN_POINT('',(-0.0208588824603054,-0.0341121303282429,0.0128445587560943));
#889=CARTESIAN_POINT('',(-0.0240306469564223,-0.037377451088705,0.0128445587560943));
#890=CARTESIAN_POINT('',(-0.0265218840586191,-0.0396963741779431,0.0128445587560943));
#891=CARTESIAN_POINT('',(-0.0313278809390254,-0.0441092781287097,0.0128445587560943));
#892=CARTESIAN_POINT('',(-0.03366126850991,-0.0462152727419219,0.0128445587560943));
#893=CARTESIAN_POINT('',(-0.0365266253215723,-0.0489395522726787,0.0128445587560943));
#894=CARTESIAN_POINT('',(-0.0373782811576472,-0.0497769444095065,0.0128445587560943));
#895=CARTESIAN_POINT('',(-0.0387640061254664,-0.0512537956924138,0.0128445587560943));
#896=CARTESIAN_POINT('',(-0.039301343024998,-0.0518883186233234,0.0128445587560937));
#897=CARTESIAN_POINT('',(-0.0398666123553898,-0.0528884412532586,0.012844558756095));
#898=CARTESIAN_POINT('',(-0.0399067711374635,-0.0532508928739067,0.0128445587560943));
#899=CARTESIAN_POINT('',(-0.0397581946470365,-0.0536030944707629,0.0128445587560943));
#900=CARTESIAN_POINT('',(-0.0396794113499692,-0.0536867319197817,0.0128445587560943));
#901=CARTESIAN_POINT('',(-0.0395316866290192,-0.0538246429492225,0.0128445587560943));
#902=CARTESIAN_POINT('',(-0.039462124498024,-0.0538833553088622,0.0128445587560942));
#903=CARTESIAN_POINT('',(-0.0394035311034372,-0.0539549585046591,0.0128445587560943));
#904=CARTESIAN_POINT('',(-0.0195,-0.0263,0.0131778920894277));
#905=CARTESIAN_POINT('',(-0.0190966601887129,-0.0264574737277092,0.0131778920894277));
#906=CARTESIAN_POINT('',(-0.0187084342338304,-0.026627056294042,0.0131778920894274));
#907=CARTESIAN_POINT('',(-0.0180167084014215,-0.0270208770460757,0.0131778920894279));
#908=CARTESIAN_POINT('',(-0.017713239388063,-0.0272503161515164,0.0131778920894277));
#909=CARTESIAN_POINT('',(-0.0172863217148992,-0.0278140790069034,0.0131778920894277));
#910=CARTESIAN_POINT('',(-0.017172706007357,-0.0281499149547011,0.0131778920894279));
#911=CARTESIAN_POINT('',(-0.0171795175632225,-0.0288533876014792,0.0131778920894274));
#912=CARTESIAN_POINT('',(-0.0172855583588828,-0.0292113817148154,0.0131778920894279));
#913=CARTESIAN_POINT('',(-0.0177935889854596,-0.0303096042094136,0.0131778920894272));
#914=CARTESIAN_POINT('',(-0.0183666635844349,-0.0311600363562336,0.0131778920894277));
#915=CARTESIAN_POINT('',(-0.0199038284705082,-0.0330651544537932,0.0131778920894277));
#916=CARTESIAN_POINT('',(-0.0208588824603054,-0.0341121303282429,0.0131778920894277));
#917=CARTESIAN_POINT('',(-0.0240306469564223,-0.037377451088705,0.0131778920894277));
#918=CARTESIAN_POINT('',(-0.0265218840586191,-0.039696374177943,0.0131778920894277));
#919=CARTESIAN_POINT('',(-0.0313278809390254,-0.0441092781287097,0.0131778920894277));
#920=CARTESIAN_POINT('',(-0.03366126850991,-0.0462152727419219,0.0131778920894277));
#921=CARTESIAN_POINT('',(-0.0365266253215723,-0.0489395522726787,0.0131778920894277));
#922=CARTESIAN_POINT('',(-0.0373782811576472,-0.0497769444095065,0.0131778920894277));
#923=CARTESIAN_POINT('',(-0.0387640061254664,-0.0512537956924138,0.0131778920894277));
#924=CARTESIAN_POINT('',(-0.0393013430249979,-0.0518883186233234,0.013177892089427));
#925=CARTESIAN_POINT('',(-0.0398666123553899,-0.0528884412532586,0.0131778920894283));
#926=CARTESIAN_POINT('',(-0.0399067711374635,-0.0532508928739067,0.0131778920894277));
#927=CARTESIAN_POINT('',(-0.0397581946470365,-0.0536030944707629,0.0131778920894277));
#928=CARTESIAN_POINT('',(-0.0396794113499692,-0.0536867319197817,0.0131778920894277));
#929=CARTESIAN_POINT('',(-0.0395316866290192,-0.0538246429492225,0.0131778920894277));
#930=CARTESIAN_POINT('',(-0.0394621244980239,-0.0538833553088623,0.0131778920894275));
#931=CARTESIAN_POINT('',(-0.0394035311034372,-0.0539549585046591,0.0131778920894276));
#932=MECHANICAL_DESIGN_GEOMETRIC_PRESENTATION_REPRESENTATION('',(#358),
#933);
#933=(
GEOMETRIC_REPRESENTATION_CONTEXT(3)
GLOBAL_UNCERTAINTY_ASSIGNED_CONTEXT((#934))
GLOBAL_UNIT_ASSIGNED_CONTEXT((#937,#936,#935))
REPRESENTATION_CONTEXT('Left Wing','TOP_LEVEL_ASSEMBLY_PART')
);
#934=UNCERTAINTY_MEASURE_WITH_UNIT(LENGTH_MEASURE(2.E-5),#937,
'DISTANCE_ACCURACY_VALUE','Maximum Tolerance applied to model');
#935=(
NAMED_UNIT(*)
SI_UNIT($,.STERADIAN.)
SOLID_ANGLE_UNIT()
);
#936=(
NAMED_UNIT(*)
PLANE_ANGLE_UNIT()
SI_UNIT($,.RADIAN.)
);
#937=(
LENGTH_UNIT()
NAMED_UNIT(*)
SI_UNIT($,.METRE.)
);
#938=PRODUCT_DEFINITION_SHAPE('','',#939);
#939=PRODUCT_DEFINITION('','',#941,#940);
#940=PRODUCT_DEFINITION_CONTEXT('',#947,'design');
#941=PRODUCT_DEFINITION_FORMATION_WITH_SPECIFIED_SOURCE('','',#943,
 .NOT_KNOWN.);
#942=PRODUCT_RELATED_PRODUCT_CATEGORY('','',(#943));
#943=PRODUCT('Left Wing','Left Wing','Left Wing',(#945));
#944=PRODUCT_CATEGORY('','');
#945=PRODUCT_CONTEXT('',#947,'mechanical');
#946=APPLICATION_PROTOCOL_DEFINITION('international standard',
'ap242_managed_model_based_3d_engineering',2020,#947);
#947=APPLICATION_CONTEXT('managed model based 3d engineering');
ENDSEC;
END-ISO-10303-21;
