ISO-10303-21;
HEADER;
/* Generated by software containing ST-Developer
 * from STEP Tools, Inc. (www.steptools.com) 
 */
/* OPTION: using custom renumber hook */

FILE_DESCRIPTION(
/* description */ ('STEP AP242 Edition 2',
'CAx-IF Rec.Pracs.---Representation and Presentation of Product Manufa
cturing Information (PMI)---4.0---2014-10-13',
'CAx-IF Rec.Pracs.---3D Tessellated Geometry---0.4---2014-09-14','2;1',
'CAx-IF Rec.Pracs.---User Defined Attributes---1.5---2016-08-15'),
/* implementation_level */ '2;1');

FILE_NAME(
/* name */ '69698a9fd326d0aa26a30d4d',
/* time_stamp */ '2026-01-16T00:47:27Z',
/* author */ (''),
/* organization */ (''),
/* preprocessor_version */ 'ST-DEVELOPER v20',
/* originating_system */ 'ONSHAPE BY PTC INC, 1.209',
/* authorisation */ '  ');

FILE_SCHEMA (('AP242_MANAGED_MODEL_BASED_3D_ENGINEERING_MIM_LF { 1 0 10303 442 3 1 4 }'));
ENDSEC;

DATA;
#10=SHAPE_REPRESENTATION_RELATIONSHIP('','',#171,#11);
#11=ADVANCED_BREP_SHAPE_REPRESENTATION('',(#169),#298);
#12=CONICAL_SURFACE('',#187,0.00595225284277598,0.442416727751699);
#13=CONICAL_SURFACE('',#188,0.00631883445878897,0.442416727751698);
#14=SPHERICAL_SURFACE('',#184,0.0073);
#15=SPHERICAL_SURFACE('',#191,0.005);
#16=B_SPLINE_CURVE_WITH_KNOTS('',3,(#257,#258,#259,#260,#261,#262,#263,
#264,#265,#266,#267),.UNSPECIFIED.,.T.,.F.,(1,1,1,1,1,1,1,1,1,1,1,1,1,1,
1),(-0.00588335880891108,-0.00392223920594072,-0.00196111960297036,2.30493668353915E-19,
0.00196111960297036,0.00392223920594072,0.00588335880891107,0.00784447841188143,
0.00980559801485179,0.0117667176178221,0.0137278372207925,0.0156889568237629,
0.0176500764267332,0.0196111960297036,0.0215723156326739),.UNSPECIFIED.);
#17=CYLINDRICAL_SURFACE('',#175,0.0103);
#18=CYLINDRICAL_SURFACE('',#189,0.0025);
#19=CIRCLE('',#174,0.0073);
#20=CIRCLE('',#176,0.0103);
#21=CIRCLE('',#177,0.0103);
#22=CIRCLE('',#179,0.0073);
#23=CIRCLE('',#181,0.00631883445878897);
#24=CIRCLE('',#183,0.00631883445878897);
#25=CIRCLE('',#185,0.00595225284277598);
#26=CIRCLE('',#186,0.00595225284277599);
#27=CIRCLE('',#190,0.0025);
#28=ORIENTED_EDGE('',*,*,#68,.F.);
#29=ORIENTED_EDGE('',*,*,#69,.T.);
#30=ORIENTED_EDGE('',*,*,#70,.T.);
#31=ORIENTED_EDGE('',*,*,#71,.T.);
#32=ORIENTED_EDGE('',*,*,#72,.T.);
#33=ORIENTED_EDGE('',*,*,#73,.F.);
#34=ORIENTED_EDGE('',*,*,#74,.T.);
#35=ORIENTED_EDGE('',*,*,#75,.T.);
#36=ORIENTED_EDGE('',*,*,#76,.F.);
#37=ORIENTED_EDGE('',*,*,#77,.F.);
#38=ORIENTED_EDGE('',*,*,#73,.T.);
#39=ORIENTED_EDGE('',*,*,#78,.F.);
#40=ORIENTED_EDGE('',*,*,#79,.T.);
#41=ORIENTED_EDGE('',*,*,#80,.T.);
#42=ORIENTED_EDGE('',*,*,#76,.T.);
#43=ORIENTED_EDGE('',*,*,#81,.F.);
#44=ORIENTED_EDGE('',*,*,#82,.T.);
#45=ORIENTED_EDGE('',*,*,#80,.F.);
#46=ORIENTED_EDGE('',*,*,#83,.T.);
#47=ORIENTED_EDGE('',*,*,#68,.T.);
#48=ORIENTED_EDGE('',*,*,#77,.T.);
#49=ORIENTED_EDGE('',*,*,#72,.F.);
#50=ORIENTED_EDGE('',*,*,#84,.T.);
#51=ORIENTED_EDGE('',*,*,#81,.T.);
#52=ORIENTED_EDGE('',*,*,#75,.F.);
#53=ORIENTED_EDGE('',*,*,#70,.F.);
#54=ORIENTED_EDGE('',*,*,#85,.T.);
#55=ORIENTED_EDGE('',*,*,#78,.T.);
#56=ORIENTED_EDGE('',*,*,#86,.T.);
#57=ORIENTED_EDGE('',*,*,#69,.F.);
#58=ORIENTED_EDGE('',*,*,#83,.F.);
#59=ORIENTED_EDGE('',*,*,#79,.F.);
#60=ORIENTED_EDGE('',*,*,#85,.F.);
#61=ORIENTED_EDGE('',*,*,#71,.F.);
#62=ORIENTED_EDGE('',*,*,#86,.F.);
#63=ORIENTED_EDGE('',*,*,#82,.F.);
#64=ORIENTED_EDGE('',*,*,#84,.F.);
#65=ORIENTED_EDGE('',*,*,#87,.F.);
#66=ORIENTED_EDGE('',*,*,#74,.F.);
#67=ORIENTED_EDGE('',*,*,#87,.T.);
#68=EDGE_CURVE('',#88,#89,#102,.T.);
#69=EDGE_CURVE('',#88,#90,#103,.T.);
#70=EDGE_CURVE('',#90,#91,#19,.T.);
#71=EDGE_CURVE('',#91,#92,#104,.T.);
#72=EDGE_CURVE('',#92,#93,#105,.T.);
#73=EDGE_CURVE('',#89,#93,#106,.T.);
#74=EDGE_CURVE('',#94,#94,#16,.T.);
#75=EDGE_CURVE('',#93,#95,#20,.T.);
#76=EDGE_CURVE('',#96,#95,#107,.T.);
#77=EDGE_CURVE('',#89,#96,#21,.T.);
#78=EDGE_CURVE('',#97,#98,#22,.T.);
#79=EDGE_CURVE('',#97,#99,#108,.F.);
#80=EDGE_CURVE('',#99,#96,#109,.T.);
#81=EDGE_CURVE('',#100,#95,#110,.T.);
#82=EDGE_CURVE('',#100,#98,#111,.F.);
#83=EDGE_CURVE('',#99,#88,#23,.F.);
#84=EDGE_CURVE('',#92,#100,#24,.T.);
#85=EDGE_CURVE('',#90,#97,#25,.F.);
#86=EDGE_CURVE('',#98,#91,#26,.F.);
#87=EDGE_CURVE('',#101,#101,#27,.T.);
#88=VERTEX_POINT('',#245);
#89=VERTEX_POINT('',#246);
#90=VERTEX_POINT('',#248);
#91=VERTEX_POINT('',#250);
#92=VERTEX_POINT('',#252);
#93=VERTEX_POINT('',#254);
#94=VERTEX_POINT('',#268);
#95=VERTEX_POINT('',#270);
#96=VERTEX_POINT('',#272);
#97=VERTEX_POINT('',#276);
#98=VERTEX_POINT('',#277);
#99=VERTEX_POINT('',#279);
#100=VERTEX_POINT('',#282);
#101=VERTEX_POINT('',#295);
#102=LINE('',#244,#112);
#103=LINE('',#247,#113);
#104=LINE('',#251,#114);
#105=LINE('',#253,#115);
#106=LINE('',#255,#116);
#107=LINE('',#271,#117);
#108=LINE('',#278,#118);
#109=LINE('',#280,#119);
#110=LINE('',#281,#120);
#111=LINE('',#283,#121);
#112=VECTOR('',#196,1.);
#113=VECTOR('',#197,1.);
#114=VECTOR('',#200,1.);
#115=VECTOR('',#201,1.);
#116=VECTOR('',#202,1.);
#117=VECTOR('',#207,1.);
#118=VECTOR('',#214,1.);
#119=VECTOR('',#215,1.);
#120=VECTOR('',#216,1.);
#121=VECTOR('',#217,1.);
#122=EDGE_LOOP('',(#28,#29,#30,#31,#32,#33));
#123=EDGE_LOOP('',(#34));
#124=EDGE_LOOP('',(#35,#36,#37,#38));
#125=EDGE_LOOP('',(#39,#40,#41,#42,#43,#44));
#126=EDGE_LOOP('',(#45,#46,#47,#48));
#127=EDGE_LOOP('',(#49,#50,#51,#52));
#128=EDGE_LOOP('',(#53,#54,#55,#56));
#129=EDGE_LOOP('',(#57,#58,#59,#60));
#130=EDGE_LOOP('',(#61,#62,#63,#64));
#131=EDGE_LOOP('',(#65));
#132=EDGE_LOOP('',(#66));
#133=EDGE_LOOP('',(#67));
#134=FACE_BOUND('',#122,.T.);
#135=FACE_BOUND('',#123,.T.);
#136=FACE_BOUND('',#124,.T.);
#137=FACE_BOUND('',#125,.T.);
#138=FACE_BOUND('',#126,.T.);
#139=FACE_BOUND('',#127,.T.);
#140=FACE_BOUND('',#128,.T.);
#141=FACE_BOUND('',#129,.T.);
#142=FACE_BOUND('',#130,.T.);
#143=FACE_BOUND('',#131,.T.);
#144=FACE_BOUND('',#132,.T.);
#145=FACE_BOUND('',#133,.T.);
#146=PLANE('',#173);
#147=PLANE('',#178);
#148=PLANE('',#180);
#149=PLANE('',#182);
#150=ADVANCED_FACE('',(#134),#146,.F.);
#151=ADVANCED_FACE('',(#135,#136),#17,.T.);
#152=ADVANCED_FACE('',(#137),#147,.T.);
#153=ADVANCED_FACE('',(#138),#148,.T.);
#154=ADVANCED_FACE('',(#139),#149,.F.);
#155=ADVANCED_FACE('',(#140),#14,.F.);
#156=ADVANCED_FACE('',(#141),#12,.F.);
#157=ADVANCED_FACE('',(#142),#13,.F.);
#158=ADVANCED_FACE('',(#143,#144),#18,.T.);
#159=ADVANCED_FACE('',(#145),#15,.T.);
#160=CLOSED_SHELL('',(#150,#151,#152,#153,#154,#155,#156,#157,#158,#159));
#161=STYLED_ITEM('',(#162),#169);
#162=PRESENTATION_STYLE_ASSIGNMENT((#163));
#163=SURFACE_STYLE_USAGE(.BOTH.,#164);
#164=SURFACE_SIDE_STYLE('',(#165));
#165=SURFACE_STYLE_FILL_AREA(#166);
#166=FILL_AREA_STYLE('',(#167));
#167=FILL_AREA_STYLE_COLOUR('',#168);
#168=COLOUR_RGB('',0.647058823529412,0.647058823529412,0.647058823529412);
#169=MANIFOLD_SOLID_BREP('NeckOne',#160);
#170=SHAPE_DEFINITION_REPRESENTATION(#303,#171);
#171=SHAPE_REPRESENTATION('NeckOne',(#172),#298);
#172=AXIS2_PLACEMENT_3D('',#242,#192,#193);
#173=AXIS2_PLACEMENT_3D('',#243,#194,#195);
#174=AXIS2_PLACEMENT_3D('',#249,#198,#199);
#175=AXIS2_PLACEMENT_3D('',#256,#203,#204);
#176=AXIS2_PLACEMENT_3D('',#269,#205,#206);
#177=AXIS2_PLACEMENT_3D('',#273,#208,#209);
#178=AXIS2_PLACEMENT_3D('',#274,#210,#211);
#179=AXIS2_PLACEMENT_3D('',#275,#212,#213);
#180=AXIS2_PLACEMENT_3D('',#284,#218,#219);
#181=AXIS2_PLACEMENT_3D('',#285,#220,#221);
#182=AXIS2_PLACEMENT_3D('',#286,#222,#223);
#183=AXIS2_PLACEMENT_3D('',#287,#224,#225);
#184=AXIS2_PLACEMENT_3D('',#288,#226,#227);
#185=AXIS2_PLACEMENT_3D('',#289,#228,#229);
#186=AXIS2_PLACEMENT_3D('',#290,#230,#231);
#187=AXIS2_PLACEMENT_3D('',#291,#232,#233);
#188=AXIS2_PLACEMENT_3D('',#292,#234,#235);
#189=AXIS2_PLACEMENT_3D('',#293,#236,#237);
#190=AXIS2_PLACEMENT_3D('',#294,#238,#239);
#191=AXIS2_PLACEMENT_3D('',#296,#240,#241);
#192=DIRECTION('',(0.,0.,1.));
#193=DIRECTION('',(1.,0.,0.));
#194=DIRECTION('',(-0.831469612302545,0.555570233019603,0.));
#195=DIRECTION('',(-0.555570233019603,-0.831469612302545,0.));
#196=DIRECTION('',(0.555570233019603,0.831469612302545,0.));
#197=DIRECTION('',(-0.237853371300064,-0.35597272615709,-0.903719642363428));
#198=DIRECTION('',(-0.831469612302545,0.555570233019603,0.));
#199=DIRECTION('',(-0.555570233019603,-0.831469612302545,0.));
#200=DIRECTION('',(0.237853371300064,0.35597272615709,-0.903719642363429));
#201=DIRECTION('',(0.555570233019603,0.831469612302545,0.));
#202=DIRECTION('',(0.,0.,-1.));
#203=DIRECTION('',(0.,0.,-1.));
#204=DIRECTION('',(-1.,0.,0.));
#205=DIRECTION('',(0.,0.,1.));
#206=DIRECTION('',(1.,0.,0.));
#207=DIRECTION('',(0.,0.,-1.));
#208=DIRECTION('',(0.,0.,1.));
#209=DIRECTION('',(1.,0.,0.));
#210=DIRECTION('',(0.831469612302546,0.555570233019602,0.));
#211=DIRECTION('',(-0.555570233019602,0.831469612302546,0.));
#212=DIRECTION('',(0.831469612302546,0.555570233019602,0.));
#213=DIRECTION('',(-0.555570233019602,0.831469612302546,0.));
#214=DIRECTION('',(-0.237853371300064,0.35597272615709,-0.903719642363429));
#215=DIRECTION('',(0.555570233019602,-0.831469612302546,0.));
#216=DIRECTION('',(0.555570233019602,-0.831469612302546,0.));
#217=DIRECTION('',(0.237853371300064,-0.35597272615709,-0.903719642363429));
#218=DIRECTION('',(0.,0.,1.));
#219=DIRECTION('',(1.,0.,0.));
#220=DIRECTION('',(0.,0.,1.));
#221=DIRECTION('',(1.,0.,0.));
#222=DIRECTION('',(0.,0.,1.));
#223=DIRECTION('',(1.,0.,0.));
#224=DIRECTION('',(0.,0.,1.));
#225=DIRECTION('',(1.,0.,0.));
#226=DIRECTION('',(1.,0.,0.));
#227=DIRECTION('',(0.,1.,0.));
#228=DIRECTION('',(0.,0.,-1.));
#229=DIRECTION('',(-1.,0.,0.));
#230=DIRECTION('',(0.,0.,1.));
#231=DIRECTION('',(1.,0.,0.));
#232=DIRECTION('',(0.,0.,1.));
#233=DIRECTION('',(1.,0.,0.));
#234=DIRECTION('',(0.,0.,-1.));
#235=DIRECTION('',(-1.,0.,0.));
#236=DIRECTION('',(1.,0.,0.));
#237=DIRECTION('',(0.,0.,-1.));
#238=DIRECTION('',(-1.,0.,0.));
#239=DIRECTION('',(0.,0.,1.));
#240=DIRECTION('',(0.,0.,1.));
#241=DIRECTION('',(0.,-1.,0.));
#242=CARTESIAN_POINT('',(0.,0.,0.));
#243=CARTESIAN_POINT('',(-0.0479721686494785,0.00303486408490429,0.008));
#244=CARTESIAN_POINT('',(-0.0479721686494785,0.00303486408490429,0.008));
#245=CARTESIAN_POINT('',(-0.0464894436673183,0.00525391883765321,0.008));
#246=CARTESIAN_POINT('',(-0.0442776265998981,0.00856413700671622,0.008));
#247=CARTESIAN_POINT('',(-0.05,-1.64155258863755E-17,-0.00533829617855368));
#248=CARTESIAN_POINT('',(-0.0466931055011474,0.00494911736350965,0.00722619049448384));
#249=CARTESIAN_POINT('',(-0.05,-1.64155258863755E-17,0.003));
#250=CARTESIAN_POINT('',(-0.0466931055011474,0.00494911736350966,-0.00122619049448382));
#251=CARTESIAN_POINT('',(-0.05,-1.64155258863755E-17,0.0113382961785537));
#252=CARTESIAN_POINT('',(-0.0464894436673183,0.00525391883765321,-0.002));
#253=CARTESIAN_POINT('',(-0.0479721686494785,0.00303486408490429,-0.002));
#254=CARTESIAN_POINT('',(-0.0442776265998981,0.00856413700671622,-0.002));
#255=CARTESIAN_POINT('',(-0.0442776265998981,0.00856413700671622,0.008));
#256=CARTESIAN_POINT('',(-0.05,-6.447920095244E-18,0.008));
#257=CARTESIAN_POINT('',(-0.0601479886563571,-0.00196096685589565,0.0010426987783428));
#258=CARTESIAN_POINT('',(-0.060375950991332,3.74008771595843E-7,0.000228730529487404));
#259=CARTESIAN_POINT('',(-0.060148207378315,0.00195947082080926,0.00104237910370763));
#260=CARTESIAN_POINT('',(-0.0599138710010187,0.00277035928350984,0.00299716657842449));
#261=CARTESIAN_POINT('',(-0.0601482901365346,0.00195908911030291,0.00495957132915698));
#262=CARTESIAN_POINT('',(-0.060375751804901,1.14415870165037E-6,0.00576989150785834));
#263=CARTESIAN_POINT('',(-0.0601487023209955,-0.00195734860701367,0.00496086130920181));
#264=CARTESIAN_POINT('',(-0.0599138225961414,-0.00277042055744133,0.00300118993838807));
#265=CARTESIAN_POINT('',(-0.0601479886563571,-0.00196096685589565,0.0010426987783428));
#266=CARTESIAN_POINT('',(-0.060375950991332,3.74008771595843E-7,0.000228730529487404));
#267=CARTESIAN_POINT('',(-0.060148207378315,0.00195947082080926,0.00104237910370763));
#268=CARTESIAN_POINT('',(-0.0603,-2.37310813356487E-19,0.000500000000000007));
#269=CARTESIAN_POINT('',(-0.05,-6.447920095244E-18,-0.002));
#270=CARTESIAN_POINT('',(-0.0442776265998981,-0.00856413700671622,-0.002));
#271=CARTESIAN_POINT('',(-0.0442776265998981,-0.00856413700671622,0.008));
#272=CARTESIAN_POINT('',(-0.0442776265998981,-0.00856413700671622,0.008));
#273=CARTESIAN_POINT('',(-0.05,-6.447920095244E-18,0.008));
#274=CARTESIAN_POINT('',(-0.0479721686494785,-0.00303486408490429,0.008));
#275=CARTESIAN_POINT('',(-0.05,-8.70544008019147E-18,0.003));
#276=CARTESIAN_POINT('',(-0.0466931055011474,-0.00494911736350968,0.00722619049448384));
#277=CARTESIAN_POINT('',(-0.0466931055011474,-0.00494911736350968,-0.00122619049448381));
#278=CARTESIAN_POINT('',(-0.05,-8.70544008019147E-18,-0.00533829617855368));
#279=CARTESIAN_POINT('',(-0.0464894436673183,-0.00525391883765324,0.008));
#280=CARTESIAN_POINT('',(-0.0479721686494785,-0.00303486408490429,0.008));
#281=CARTESIAN_POINT('',(-0.0479721686494785,-0.00303486408490429,-0.002));
#282=CARTESIAN_POINT('',(-0.0464894436673183,-0.00525391883765324,-0.002));
#283=CARTESIAN_POINT('',(-0.05,-8.70544008019147E-18,0.0113382961785537));
#284=CARTESIAN_POINT('',(-0.05,0.,0.008));
#285=CARTESIAN_POINT('',(-0.05,-1.90658678822513E-17,0.008));
#286=CARTESIAN_POINT('',(-0.05,0.,-0.002));
#287=CARTESIAN_POINT('',(-0.05,-1.90658678822513E-17,-0.002));
#288=CARTESIAN_POINT('',(-0.05,-1.90658678822513E-17,0.003));
#289=CARTESIAN_POINT('',(-0.05,-1.90658678822513E-17,0.00722619049448384));
#290=CARTESIAN_POINT('',(-0.05,-1.90658678822513E-17,-0.00122619049448382));
#291=CARTESIAN_POINT('',(-0.05,-1.90658678822513E-17,0.00722619049448384));
#292=CARTESIAN_POINT('',(-0.05,-1.90658678822513E-17,-0.002));
#293=CARTESIAN_POINT('',(-0.0803,0.,0.003));
#294=CARTESIAN_POINT('',(-0.0759698729810778,0.,0.003));
#295=CARTESIAN_POINT('',(-0.0759698729810778,0.,0.0055));
#296=CARTESIAN_POINT('',(-0.0803,8.61273212099417E-19,0.003));
#297=MECHANICAL_DESIGN_GEOMETRIC_PRESENTATION_REPRESENTATION('',(#161),
#298);
#298=(
GEOMETRIC_REPRESENTATION_CONTEXT(3)
GLOBAL_UNCERTAINTY_ASSIGNED_CONTEXT((#299))
GLOBAL_UNIT_ASSIGNED_CONTEXT((#302,#301,#300))
REPRESENTATION_CONTEXT('NeckOne','TOP_LEVEL_ASSEMBLY_PART')
);
#299=UNCERTAINTY_MEASURE_WITH_UNIT(LENGTH_MEASURE(2.E-5),#302,
'DISTANCE_ACCURACY_VALUE','Maximum Tolerance applied to model');
#300=(
NAMED_UNIT(*)
SI_UNIT($,.STERADIAN.)
SOLID_ANGLE_UNIT()
);
#301=(
NAMED_UNIT(*)
PLANE_ANGLE_UNIT()
SI_UNIT($,.RADIAN.)
);
#302=(
LENGTH_UNIT()
NAMED_UNIT(*)
SI_UNIT($,.METRE.)
);
#303=PRODUCT_DEFINITION_SHAPE('','',#304);
#304=PRODUCT_DEFINITION('','',#306,#305);
#305=PRODUCT_DEFINITION_CONTEXT('',#312,'design');
#306=PRODUCT_DEFINITION_FORMATION_WITH_SPECIFIED_SOURCE('','',#308,
 .NOT_KNOWN.);
#307=PRODUCT_RELATED_PRODUCT_CATEGORY('','',(#308));
#308=PRODUCT('NeckOne','NeckOne','NeckOne',(#310));
#309=PRODUCT_CATEGORY('','');
#310=PRODUCT_CONTEXT('',#312,'mechanical');
#311=APPLICATION_PROTOCOL_DEFINITION('international standard',
'ap242_managed_model_based_3d_engineering',2020,#312);
#312=APPLICATION_CONTEXT('managed model based 3d engineering');
ENDSEC;
END-ISO-10303-21;
