ISO-10303-21;
HEADER;
/* Generated by software containing ST-Developer
 * from STEP Tools, Inc. (www.steptools.com) 
 */
/* OPTION: using custom renumber hook */

FILE_DESCRIPTION(
/* description */ ('STEP AP242 Edition 2',
'CAx-IF Rec.Pracs.---Representation and Presentation of Product Manufa
cturing Information (PMI)---4.0---2014-10-13',
'CAx-IF Rec.Pracs.---3D Tessellated Geometry---0.4---2014-09-14','2;1',
'CAx-IF Rec.Pracs.---User Defined Attributes---1.5---2016-08-15'),
/* implementation_level */ '2;1');

FILE_NAME(
/* name */ '69717377e022f967372ba4c9',
/* time_stamp */ '2026-01-22T00:46:48Z',
/* author */ (''),
/* organization */ (''),
/* preprocessor_version */ 'ST-DEVELOPER v20',
/* originating_system */ 'ONSHAPE BY PTC INC, 1.209',
/* authorisation */ '  ');

FILE_SCHEMA (('AP242_MANAGED_MODEL_BASED_3D_ENGINEERING_MIM_LF { 1 0 10303 442 3 1 4 }'));
ENDSEC;

DATA;
#10=SHAPE_REPRESENTATION_RELATIONSHIP('','',#333,#11);
#11=ADVANCED_BREP_SHAPE_REPRESENTATION('',(#331),#561);
#12=CONICAL_SURFACE('',#359,0.00369022209526952,0.457596414453766);
#13=CONICAL_SURFACE('',#360,0.00408058436015045,0.457596414453768);
#14=SPHERICAL_SURFACE('',#356,0.0043);
#15=SPHERICAL_SURFACE('',#368,0.003);
#16=PLANE('',#341);
#17=PLANE('',#343);
#18=PLANE('',#348);
#19=PLANE('',#352);
#20=PLANE('',#361);
#21=PLANE('',#362);
#22=PLANE('',#364);
#23=PLANE('',#365);
#24=PLANE('',#366);
#25=LINE('',#474,#53);
#26=LINE('',#479,#54);
#27=LINE('',#486,#55);
#28=LINE('',#488,#56);
#29=LINE('',#490,#57);
#30=LINE('',#492,#58);
#31=LINE('',#494,#59);
#32=LINE('',#496,#60);
#33=LINE('',#498,#61);
#34=LINE('',#500,#62);
#35=LINE('',#504,#63);
#36=LINE('',#510,#64);
#37=LINE('',#512,#65);
#38=LINE('',#516,#66);
#39=LINE('',#518,#67);
#40=LINE('',#520,#68);
#41=LINE('',#524,#69);
#42=LINE('',#527,#70);
#43=LINE('',#531,#71);
#44=LINE('',#533,#72);
#45=LINE('',#535,#73);
#46=LINE('',#539,#74);
#47=LINE('',#547,#75);
#48=LINE('',#549,#76);
#49=LINE('',#551,#77);
#50=LINE('',#553,#78);
#51=LINE('',#555,#79);
#52=LINE('',#557,#80);
#53=VECTOR('',#379,1.);
#54=VECTOR('',#382,1.);
#55=VECTOR('',#389,1.);
#56=VECTOR('',#390,1.);
#57=VECTOR('',#391,1.);
#58=VECTOR('',#392,1.);
#59=VECTOR('',#393,1.);
#60=VECTOR('',#396,1.);
#61=VECTOR('',#397,1.);
#62=VECTOR('',#398,1.);
#63=VECTOR('',#401,1.);
#64=VECTOR('',#408,1.);
#65=VECTOR('',#411,1.);
#66=VECTOR('',#414,1.);
#67=VECTOR('',#415,1.);
#68=VECTOR('',#416,1.);
#69=VECTOR('',#419,1.);
#70=VECTOR('',#424,1.);
#71=VECTOR('',#427,1.);
#72=VECTOR('',#428,1.);
#73=VECTOR('',#429,1.);
#74=VECTOR('',#432,1.);
#75=VECTOR('',#447,1.);
#76=VECTOR('',#450,1.);
#77=VECTOR('',#453,1.);
#78=VECTOR('',#456,1.);
#79=VECTOR('',#459,1.);
#80=VECTOR('',#462,1.);
#81=ORIENTED_EDGE('',*,*,#169,.F.);
#82=ORIENTED_EDGE('',*,*,#170,.T.);
#83=ORIENTED_EDGE('',*,*,#171,.T.);
#84=ORIENTED_EDGE('',*,*,#172,.F.);
#85=ORIENTED_EDGE('',*,*,#173,.F.);
#86=ORIENTED_EDGE('',*,*,#174,.T.);
#87=ORIENTED_EDGE('',*,*,#175,.T.);
#88=ORIENTED_EDGE('',*,*,#176,.F.);
#89=ORIENTED_EDGE('',*,*,#177,.T.);
#90=ORIENTED_EDGE('',*,*,#178,.F.);
#91=ORIENTED_EDGE('',*,*,#179,.F.);
#92=ORIENTED_EDGE('',*,*,#180,.F.);
#93=ORIENTED_EDGE('',*,*,#181,.T.);
#94=ORIENTED_EDGE('',*,*,#173,.T.);
#95=ORIENTED_EDGE('',*,*,#182,.F.);
#96=ORIENTED_EDGE('',*,*,#183,.F.);
#97=ORIENTED_EDGE('',*,*,#184,.F.);
#98=ORIENTED_EDGE('',*,*,#185,.F.);
#99=ORIENTED_EDGE('',*,*,#186,.T.);
#100=ORIENTED_EDGE('',*,*,#178,.T.);
#101=ORIENTED_EDGE('',*,*,#187,.F.);
#102=ORIENTED_EDGE('',*,*,#188,.F.);
#103=ORIENTED_EDGE('',*,*,#179,.T.);
#104=ORIENTED_EDGE('',*,*,#186,.F.);
#105=ORIENTED_EDGE('',*,*,#189,.T.);
#106=ORIENTED_EDGE('',*,*,#190,.T.);
#107=ORIENTED_EDGE('',*,*,#191,.T.);
#108=ORIENTED_EDGE('',*,*,#192,.T.);
#109=ORIENTED_EDGE('',*,*,#193,.F.);
#110=ORIENTED_EDGE('',*,*,#194,.F.);
#111=ORIENTED_EDGE('',*,*,#195,.F.);
#112=ORIENTED_EDGE('',*,*,#174,.F.);
#113=ORIENTED_EDGE('',*,*,#181,.F.);
#114=ORIENTED_EDGE('',*,*,#196,.F.);
#115=ORIENTED_EDGE('',*,*,#182,.T.);
#116=ORIENTED_EDGE('',*,*,#172,.T.);
#117=ORIENTED_EDGE('',*,*,#197,.T.);
#118=ORIENTED_EDGE('',*,*,#198,.T.);
#119=ORIENTED_EDGE('',*,*,#199,.T.);
#120=ORIENTED_EDGE('',*,*,#200,.F.);
#121=ORIENTED_EDGE('',*,*,#201,.F.);
#122=ORIENTED_EDGE('',*,*,#202,.F.);
#123=ORIENTED_EDGE('',*,*,#203,.F.);
#124=ORIENTED_EDGE('',*,*,#187,.T.);
#125=ORIENTED_EDGE('',*,*,#177,.F.);
#126=ORIENTED_EDGE('',*,*,#204,.F.);
#127=ORIENTED_EDGE('',*,*,#184,.T.);
#128=ORIENTED_EDGE('',*,*,#205,.F.);
#129=ORIENTED_EDGE('',*,*,#175,.F.);
#130=ORIENTED_EDGE('',*,*,#206,.F.);
#131=ORIENTED_EDGE('',*,*,#185,.T.);
#132=ORIENTED_EDGE('',*,*,#206,.T.);
#133=ORIENTED_EDGE('',*,*,#180,.T.);
#134=ORIENTED_EDGE('',*,*,#196,.T.);
#135=ORIENTED_EDGE('',*,*,#183,.T.);
#136=ORIENTED_EDGE('',*,*,#204,.T.);
#137=ORIENTED_EDGE('',*,*,#176,.T.);
#138=ORIENTED_EDGE('',*,*,#205,.T.);
#139=ORIENTED_EDGE('',*,*,#203,.T.);
#140=ORIENTED_EDGE('',*,*,#207,.F.);
#141=ORIENTED_EDGE('',*,*,#189,.F.);
#142=ORIENTED_EDGE('',*,*,#188,.T.);
#143=ORIENTED_EDGE('',*,*,#197,.F.);
#144=ORIENTED_EDGE('',*,*,#171,.F.);
#145=ORIENTED_EDGE('',*,*,#195,.T.);
#146=ORIENTED_EDGE('',*,*,#208,.T.);
#147=ORIENTED_EDGE('',*,*,#198,.F.);
#148=ORIENTED_EDGE('',*,*,#208,.F.);
#149=ORIENTED_EDGE('',*,*,#194,.T.);
#150=ORIENTED_EDGE('',*,*,#209,.T.);
#151=ORIENTED_EDGE('',*,*,#199,.F.);
#152=ORIENTED_EDGE('',*,*,#209,.F.);
#153=ORIENTED_EDGE('',*,*,#193,.T.);
#154=ORIENTED_EDGE('',*,*,#210,.T.);
#155=ORIENTED_EDGE('',*,*,#169,.T.);
#156=ORIENTED_EDGE('',*,*,#200,.T.);
#157=ORIENTED_EDGE('',*,*,#210,.F.);
#158=ORIENTED_EDGE('',*,*,#192,.F.);
#159=ORIENTED_EDGE('',*,*,#211,.T.);
#160=ORIENTED_EDGE('',*,*,#201,.T.);
#161=ORIENTED_EDGE('',*,*,#211,.F.);
#162=ORIENTED_EDGE('',*,*,#191,.F.);
#163=ORIENTED_EDGE('',*,*,#212,.T.);
#164=ORIENTED_EDGE('',*,*,#202,.T.);
#165=ORIENTED_EDGE('',*,*,#212,.F.);
#166=ORIENTED_EDGE('',*,*,#190,.F.);
#167=ORIENTED_EDGE('',*,*,#207,.T.);
#168=ORIENTED_EDGE('',*,*,#170,.F.);
#169=EDGE_CURVE('',#213,#213,#243,.T.);
#170=EDGE_CURVE('',#214,#214,#244,.T.);
#171=EDGE_CURVE('',#215,#216,#25,.T.);
#172=EDGE_CURVE('',#217,#216,#245,.T.);
#173=EDGE_CURVE('',#218,#217,#26,.T.);
#174=EDGE_CURVE('',#218,#215,#246,.T.);
#175=EDGE_CURVE('',#219,#220,#247,.T.);
#176=EDGE_CURVE('',#221,#220,#27,.F.);
#177=EDGE_CURVE('',#221,#222,#28,.T.);
#178=EDGE_CURVE('',#223,#222,#29,.T.);
#179=EDGE_CURVE('',#224,#223,#30,.T.);
#180=EDGE_CURVE('',#219,#224,#31,.F.);
#181=EDGE_CURVE('',#225,#218,#32,.T.);
#182=EDGE_CURVE('',#226,#217,#33,.T.);
#183=EDGE_CURVE('',#227,#226,#34,.T.);
#184=EDGE_CURVE('',#228,#227,#248,.T.);
#185=EDGE_CURVE('',#225,#228,#35,.T.);
#186=EDGE_CURVE('',#229,#223,#249,.T.);
#187=EDGE_CURVE('',#230,#222,#250,.T.);
#188=EDGE_CURVE('',#229,#230,#36,.T.);
#189=EDGE_CURVE('',#229,#231,#37,.T.);
#190=EDGE_CURVE('',#231,#232,#251,.T.);
#191=EDGE_CURVE('',#232,#233,#38,.T.);
#192=EDGE_CURVE('',#233,#234,#39,.T.);
#193=EDGE_CURVE('',#235,#234,#40,.T.);
#194=EDGE_CURVE('',#236,#235,#252,.T.);
#195=EDGE_CURVE('',#215,#236,#41,.T.);
#196=EDGE_CURVE('',#224,#225,#253,.F.);
#197=EDGE_CURVE('',#216,#237,#42,.T.);
#198=EDGE_CURVE('',#237,#238,#254,.T.);
#199=EDGE_CURVE('',#238,#239,#43,.T.);
#200=EDGE_CURVE('',#240,#239,#44,.T.);
#201=EDGE_CURVE('',#241,#240,#45,.T.);
#202=EDGE_CURVE('',#242,#241,#255,.T.);
#203=EDGE_CURVE('',#230,#242,#46,.T.);
#204=EDGE_CURVE('',#226,#221,#256,.T.);
#205=EDGE_CURVE('',#220,#227,#257,.F.);
#206=EDGE_CURVE('',#228,#219,#258,.F.);
#207=EDGE_CURVE('',#231,#242,#47,.T.);
#208=EDGE_CURVE('',#236,#237,#48,.T.);
#209=EDGE_CURVE('',#235,#238,#49,.T.);
#210=EDGE_CURVE('',#234,#239,#50,.T.);
#211=EDGE_CURVE('',#233,#240,#51,.T.);
#212=EDGE_CURVE('',#232,#241,#52,.T.);
#213=VERTEX_POINT('',#470);
#214=VERTEX_POINT('',#472);
#215=VERTEX_POINT('',#475);
#216=VERTEX_POINT('',#476);
#217=VERTEX_POINT('',#478);
#218=VERTEX_POINT('',#480);
#219=VERTEX_POINT('',#484);
#220=VERTEX_POINT('',#485);
#221=VERTEX_POINT('',#487);
#222=VERTEX_POINT('',#489);
#223=VERTEX_POINT('',#491);
#224=VERTEX_POINT('',#493);
#225=VERTEX_POINT('',#497);
#226=VERTEX_POINT('',#499);
#227=VERTEX_POINT('',#501);
#228=VERTEX_POINT('',#503);
#229=VERTEX_POINT('',#507);
#230=VERTEX_POINT('',#509);
#231=VERTEX_POINT('',#513);
#232=VERTEX_POINT('',#515);
#233=VERTEX_POINT('',#517);
#234=VERTEX_POINT('',#519);
#235=VERTEX_POINT('',#521);
#236=VERTEX_POINT('',#523);
#237=VERTEX_POINT('',#528);
#238=VERTEX_POINT('',#530);
#239=VERTEX_POINT('',#532);
#240=VERTEX_POINT('',#534);
#241=VERTEX_POINT('',#536);
#242=VERTEX_POINT('',#538);
#243=CIRCLE('',#336,0.00225);
#244=CIRCLE('',#337,0.00225);
#245=CIRCLE('',#339,0.0063);
#246=CIRCLE('',#340,0.0063);
#247=CIRCLE('',#342,0.0043);
#248=CIRCLE('',#344,0.0043);
#249=CIRCLE('',#346,0.0063);
#250=CIRCLE('',#347,0.0063);
#251=CIRCLE('',#349,0.002);
#252=CIRCLE('',#350,0.014);
#253=CIRCLE('',#351,0.00408058436015044);
#254=CIRCLE('',#353,0.014);
#255=CIRCLE('',#354,0.002);
#256=CIRCLE('',#355,0.00408058436015045);
#257=CIRCLE('',#357,0.00369022209526952);
#258=CIRCLE('',#358,0.00369022209526952);
#259=EDGE_LOOP('',(#81));
#260=EDGE_LOOP('',(#82));
#261=EDGE_LOOP('',(#83,#84,#85,#86));
#262=EDGE_LOOP('',(#87,#88,#89,#90,#91,#92));
#263=EDGE_LOOP('',(#93,#94,#95,#96,#97,#98));
#264=EDGE_LOOP('',(#99,#100,#101,#102));
#265=EDGE_LOOP('',(#103,#104,#105,#106,#107,#108,#109,#110,#111,#112,#113,
#114));
#266=EDGE_LOOP('',(#115,#116,#117,#118,#119,#120,#121,#122,#123,#124,#125,
#126));
#267=EDGE_LOOP('',(#127,#128,#129,#130));
#268=EDGE_LOOP('',(#131,#132,#133,#134));
#269=EDGE_LOOP('',(#135,#136,#137,#138));
#270=EDGE_LOOP('',(#139,#140,#141,#142));
#271=EDGE_LOOP('',(#143,#144,#145,#146));
#272=EDGE_LOOP('',(#147,#148,#149,#150));
#273=EDGE_LOOP('',(#151,#152,#153,#154));
#274=EDGE_LOOP('',(#155));
#275=EDGE_LOOP('',(#156,#157,#158,#159));
#276=EDGE_LOOP('',(#160,#161,#162,#163));
#277=EDGE_LOOP('',(#164,#165,#166,#167));
#278=EDGE_LOOP('',(#168));
#279=FACE_BOUND('',#259,.T.);
#280=FACE_BOUND('',#260,.T.);
#281=FACE_BOUND('',#261,.T.);
#282=FACE_BOUND('',#262,.T.);
#283=FACE_BOUND('',#263,.T.);
#284=FACE_BOUND('',#264,.T.);
#285=FACE_BOUND('',#265,.T.);
#286=FACE_BOUND('',#266,.T.);
#287=FACE_BOUND('',#267,.T.);
#288=FACE_BOUND('',#268,.T.);
#289=FACE_BOUND('',#269,.T.);
#290=FACE_BOUND('',#270,.T.);
#291=FACE_BOUND('',#271,.T.);
#292=FACE_BOUND('',#272,.T.);
#293=FACE_BOUND('',#273,.T.);
#294=FACE_BOUND('',#274,.T.);
#295=FACE_BOUND('',#275,.T.);
#296=FACE_BOUND('',#276,.T.);
#297=FACE_BOUND('',#277,.T.);
#298=FACE_BOUND('',#278,.T.);
#299=CYLINDRICAL_SURFACE('',#335,0.00225);
#300=CYLINDRICAL_SURFACE('',#338,0.0063);
#301=CYLINDRICAL_SURFACE('',#345,0.0063);
#302=CYLINDRICAL_SURFACE('',#363,0.014);
#303=CYLINDRICAL_SURFACE('',#367,0.002);
#304=ADVANCED_FACE('',(#279,#280),#299,.T.);
#305=ADVANCED_FACE('',(#281),#300,.T.);
#306=ADVANCED_FACE('',(#282),#16,.T.);
#307=ADVANCED_FACE('',(#283),#17,.F.);
#308=ADVANCED_FACE('',(#284),#301,.T.);
#309=ADVANCED_FACE('',(#285),#18,.T.);
#310=ADVANCED_FACE('',(#286),#19,.F.);
#311=ADVANCED_FACE('',(#287),#14,.F.);
#312=ADVANCED_FACE('',(#288),#12,.F.);
#313=ADVANCED_FACE('',(#289),#13,.F.);
#314=ADVANCED_FACE('',(#290),#20,.T.);
#315=ADVANCED_FACE('',(#291),#21,.F.);
#316=ADVANCED_FACE('',(#292),#302,.T.);
#317=ADVANCED_FACE('',(#293),#22,.F.);
#318=ADVANCED_FACE('',(#294,#295),#23,.T.);
#319=ADVANCED_FACE('',(#296),#24,.T.);
#320=ADVANCED_FACE('',(#297),#303,.F.);
#321=ADVANCED_FACE('',(#298),#15,.T.);
#322=CLOSED_SHELL('',(#304,#305,#306,#307,#308,#309,#310,#311,#312,#313,
#314,#315,#316,#317,#318,#319,#320,#321));
#323=STYLED_ITEM('',(#324),#331);
#324=PRESENTATION_STYLE_ASSIGNMENT((#325));
#325=SURFACE_STYLE_USAGE(.BOTH.,#326);
#326=SURFACE_SIDE_STYLE('',(#327));
#327=SURFACE_STYLE_FILL_AREA(#328);
#328=FILL_AREA_STYLE('',(#329));
#329=FILL_AREA_STYLE_COLOUR('',#330);
#330=COLOUR_RGB('',0.498039215686275,0.498039215686275,0.498039215686275);
#331=MANIFOLD_SOLID_BREP('Right Leg One',#322);
#332=SHAPE_DEFINITION_REPRESENTATION(#566,#333);
#333=SHAPE_REPRESENTATION('Right Leg One',(#334),#561);
#334=AXIS2_PLACEMENT_3D('',#467,#369,#370);
#335=AXIS2_PLACEMENT_3D('',#468,#371,#372);
#336=AXIS2_PLACEMENT_3D('',#469,#373,#374);
#337=AXIS2_PLACEMENT_3D('',#471,#375,#376);
#338=AXIS2_PLACEMENT_3D('',#473,#377,#378);
#339=AXIS2_PLACEMENT_3D('',#477,#380,#381);
#340=AXIS2_PLACEMENT_3D('',#481,#383,#384);
#341=AXIS2_PLACEMENT_3D('',#482,#385,#386);
#342=AXIS2_PLACEMENT_3D('',#483,#387,#388);
#343=AXIS2_PLACEMENT_3D('',#495,#394,#395);
#344=AXIS2_PLACEMENT_3D('',#502,#399,#400);
#345=AXIS2_PLACEMENT_3D('',#505,#402,#403);
#346=AXIS2_PLACEMENT_3D('',#506,#404,#405);
#347=AXIS2_PLACEMENT_3D('',#508,#406,#407);
#348=AXIS2_PLACEMENT_3D('',#511,#409,#410);
#349=AXIS2_PLACEMENT_3D('',#514,#412,#413);
#350=AXIS2_PLACEMENT_3D('',#522,#417,#418);
#351=AXIS2_PLACEMENT_3D('',#525,#420,#421);
#352=AXIS2_PLACEMENT_3D('',#526,#422,#423);
#353=AXIS2_PLACEMENT_3D('',#529,#425,#426);
#354=AXIS2_PLACEMENT_3D('',#537,#430,#431);
#355=AXIS2_PLACEMENT_3D('',#540,#433,#434);
#356=AXIS2_PLACEMENT_3D('',#541,#435,#436);
#357=AXIS2_PLACEMENT_3D('',#542,#437,#438);
#358=AXIS2_PLACEMENT_3D('',#543,#439,#440);
#359=AXIS2_PLACEMENT_3D('',#544,#441,#442);
#360=AXIS2_PLACEMENT_3D('',#545,#443,#444);
#361=AXIS2_PLACEMENT_3D('',#546,#445,#446);
#362=AXIS2_PLACEMENT_3D('',#548,#448,#449);
#363=AXIS2_PLACEMENT_3D('',#550,#451,#452);
#364=AXIS2_PLACEMENT_3D('',#552,#454,#455);
#365=AXIS2_PLACEMENT_3D('',#554,#457,#458);
#366=AXIS2_PLACEMENT_3D('',#556,#460,#461);
#367=AXIS2_PLACEMENT_3D('',#558,#463,#464);
#368=AXIS2_PLACEMENT_3D('',#559,#465,#466);
#369=DIRECTION('',(0.,0.,1.));
#370=DIRECTION('',(1.,0.,0.));
#371=DIRECTION('',(-1.,0.,0.));
#372=DIRECTION('',(0.,0.,1.));
#373=DIRECTION('',(-1.,0.,0.));
#374=DIRECTION('',(0.,0.,-1.));
#375=DIRECTION('',(-1.,0.,0.));
#376=DIRECTION('',(0.,0.,-1.));
#377=DIRECTION('',(0.,0.,-1.));
#378=DIRECTION('',(-1.,0.,0.));
#379=DIRECTION('',(0.,0.,-1.));
#380=DIRECTION('',(0.,0.,-1.));
#381=DIRECTION('',(1.,0.,0.));
#382=DIRECTION('',(0.,0.,-1.));
#383=DIRECTION('',(0.,0.,-1.));
#384=DIRECTION('',(1.,0.,0.));
#385=DIRECTION('',(-0.559192903470747,-0.829037572555042,0.));
#386=DIRECTION('',(-0.829037572555042,0.559192903470747,0.));
#387=DIRECTION('',(0.559192903470747,0.829037572555042,0.));
#388=DIRECTION('',(-0.829037572555042,0.559192903470747,0.));
#389=DIRECTION('',(0.366263069093311,-0.247047559508284,-0.89711697540474));
#390=DIRECTION('',(0.829037572555042,-0.559192903470747,0.));
#391=DIRECTION('',(0.,0.,-1.));
#392=DIRECTION('',(0.829037572555042,-0.559192903470747,0.));
#393=DIRECTION('',(-0.36626306909331,0.247047559508283,-0.897116975404741));
#394=DIRECTION('',(-0.559192903470747,0.829037572555042,0.));
#395=DIRECTION('',(0.829037572555042,0.559192903470747,0.));
#396=DIRECTION('',(-0.829037572555042,-0.559192903470747,0.));
#397=DIRECTION('',(-0.829037572555042,-0.559192903470747,0.));
#398=DIRECTION('',(-0.366263069093311,-0.247047559508284,-0.897116975404741));
#399=DIRECTION('',(0.559192903470747,-0.829037572555042,0.));
#400=DIRECTION('',(0.829037572555042,0.559192903470747,0.));
#401=DIRECTION('',(0.36626306909331,0.247047559508283,-0.897116975404742));
#402=DIRECTION('',(0.,0.,-1.));
#403=DIRECTION('',(-1.,0.,0.));
#404=DIRECTION('',(0.,0.,-1.));
#405=DIRECTION('',(1.,0.,0.));
#406=DIRECTION('',(0.,0.,-1.));
#407=DIRECTION('',(1.,0.,0.));
#408=DIRECTION('',(0.,0.,-1.));
#409=DIRECTION('',(0.,0.,1.));
#410=DIRECTION('',(1.,0.,0.));
#411=DIRECTION('',(0.,1.,0.));
#412=DIRECTION('',(0.,0.,-1.));
#413=DIRECTION('',(1.,0.,0.));
#414=DIRECTION('',(1.,0.,0.));
#415=DIRECTION('',(0.,1.,0.));
#416=DIRECTION('',(1.,0.,0.));
#417=DIRECTION('',(0.,0.,-1.));
#418=DIRECTION('',(1.,0.,0.));
#419=DIRECTION('',(0.,1.,0.));
#420=DIRECTION('',(0.,0.,-1.));
#421=DIRECTION('',(1.,0.,0.));
#422=DIRECTION('',(0.,0.,1.));
#423=DIRECTION('',(1.,0.,0.));
#424=DIRECTION('',(0.,1.,0.));
#425=DIRECTION('',(0.,0.,-1.));
#426=DIRECTION('',(1.,0.,0.));
#427=DIRECTION('',(1.,0.,0.));
#428=DIRECTION('',(0.,1.,0.));
#429=DIRECTION('',(1.,0.,0.));
#430=DIRECTION('',(0.,0.,-1.));
#431=DIRECTION('',(1.,0.,0.));
#432=DIRECTION('',(0.,1.,0.));
#433=DIRECTION('',(0.,0.,-1.));
#434=DIRECTION('',(1.,0.,0.));
#435=DIRECTION('',(0.,-1.,0.));
#436=DIRECTION('',(1.,0.,0.));
#437=DIRECTION('',(0.,0.,-1.));
#438=DIRECTION('',(1.,0.,0.));
#439=DIRECTION('',(0.,0.,1.));
#440=DIRECTION('',(-1.,0.,0.));
#441=DIRECTION('',(0.,0.,1.));
#442=DIRECTION('',(1.,0.,0.));
#443=DIRECTION('',(0.,0.,-1.));
#444=DIRECTION('',(-1.,0.,0.));
#445=DIRECTION('',(1.,0.,0.));
#446=DIRECTION('',(0.,0.,-1.));
#447=DIRECTION('',(0.,0.,-1.));
#448=DIRECTION('',(1.,0.,0.));
#449=DIRECTION('',(0.,0.,-1.));
#450=DIRECTION('',(0.,0.,-1.));
#451=DIRECTION('',(0.,0.,-1.));
#452=DIRECTION('',(-1.,0.,0.));
#453=DIRECTION('',(0.,0.,-1.));
#454=DIRECTION('',(0.,-1.,0.));
#455=DIRECTION('',(0.,0.,1.));
#456=DIRECTION('',(0.,0.,-1.));
#457=DIRECTION('',(1.,0.,0.));
#458=DIRECTION('',(0.,0.,-1.));
#459=DIRECTION('',(0.,0.,-1.));
#460=DIRECTION('',(0.,-1.,0.));
#461=DIRECTION('',(0.,0.,1.));
#462=DIRECTION('',(0.,0.,-1.));
#463=DIRECTION('',(0.,0.,-1.));
#464=DIRECTION('',(-1.,0.,0.));
#465=DIRECTION('',(0.,0.,1.));
#466=DIRECTION('',(0.,-1.,0.));
#467=CARTESIAN_POINT('',(0.,0.,0.));
#468=CARTESIAN_POINT('',(0.0315,0.0319209372712298,-0.008));
#469=CARTESIAN_POINT('',(0.027,0.0319209372712298,-0.008));
#470=CARTESIAN_POINT('',(0.027,0.0319209372712298,-0.01025));
#471=CARTESIAN_POINT('',(0.0295156865167015,0.0319209372712298,-0.008));
#472=CARTESIAN_POINT('',(0.0295156865167015,0.0319209372712298,-0.01025));
#473=CARTESIAN_POINT('',(0.015,0.02,-0.005));
#474=CARTESIAN_POINT('',(0.009,0.0219209372712298,-0.005));
#475=CARTESIAN_POINT('',(0.009,0.0219209372712298,-0.005));
#476=CARTESIAN_POINT('',(0.009,0.0219209372712298,-0.011));
#477=CARTESIAN_POINT('',(0.015,0.02,-0.011));
#478=CARTESIAN_POINT('',(0.00977706329290322,0.0164770847081343,-0.011));
#479=CARTESIAN_POINT('',(0.00977706329290322,0.0164770847081343,-0.005));
#480=CARTESIAN_POINT('',(0.00977706329290322,0.0164770847081343,-0.005));
#481=CARTESIAN_POINT('',(0.015,0.02,-0.005));
#482=CARTESIAN_POINT('',(0.0167824307809934,0.0187977352575379,-0.005));
#483=CARTESIAN_POINT('',(0.015,0.02,-0.008));
#484=CARTESIAN_POINT('',(0.0180593327680512,0.0179364539920943,-0.00579268015738892));
#485=CARTESIAN_POINT('',(0.0180593327680512,0.0179364539920943,-0.0102073198426111));
#486=CARTESIAN_POINT('',(0.015,0.02,-0.0027138551959434));
#487=CARTESIAN_POINT('',(0.0183829577525452,0.0177181661837902,-0.011));
#488=CARTESIAN_POINT('',(0.0167824307809934,0.0187977352575379,-0.011));
#489=CARTESIAN_POINT('',(0.0202229367070967,0.0164770847081343,-0.011));
#490=CARTESIAN_POINT('',(0.0202229367070967,0.0164770847081343,-0.005));
#491=CARTESIAN_POINT('',(0.0202229367070967,0.0164770847081343,-0.005));
#492=CARTESIAN_POINT('',(0.0167824307809934,0.0187977352575379,-0.005));
#493=CARTESIAN_POINT('',(0.0183829577525452,0.0177181661837902,-0.005));
#494=CARTESIAN_POINT('',(0.015,0.02,-0.0132861448040566));
#495=CARTESIAN_POINT('',(0.0132175692190066,0.0187977352575379,-0.005));
#496=CARTESIAN_POINT('',(0.0132175692190066,0.0187977352575379,-0.005));
#497=CARTESIAN_POINT('',(0.0116170422474548,0.0177181661837902,-0.005));
#498=CARTESIAN_POINT('',(0.0132175692190066,0.0187977352575379,-0.011));
#499=CARTESIAN_POINT('',(0.0116170422474548,0.0177181661837902,-0.011));
#500=CARTESIAN_POINT('',(0.015,0.02,-0.0027138551959434));
#501=CARTESIAN_POINT('',(0.0119406672319488,0.0179364539920943,-0.0102073198426111));
#502=CARTESIAN_POINT('',(0.015,0.02,-0.008));
#503=CARTESIAN_POINT('',(0.0119406672319488,0.0179364539920943,-0.00579268015738892));
#504=CARTESIAN_POINT('',(0.015,0.02,-0.0132861448040566));
#505=CARTESIAN_POINT('',(0.015,0.02,-0.005));
#506=CARTESIAN_POINT('',(0.015,0.02,-0.005));
#507=CARTESIAN_POINT('',(0.021,0.0219209372712298,-0.005));
#508=CARTESIAN_POINT('',(0.015,0.02,-0.011));
#509=CARTESIAN_POINT('',(0.021,0.0219209372712298,-0.011));
#510=CARTESIAN_POINT('',(0.021,0.0219209372712298,-0.005));
#511=CARTESIAN_POINT('',(0.015,0.02,-0.005));
#512=CARTESIAN_POINT('',(0.021,0.0229209372712298,-0.005));
#513=CARTESIAN_POINT('',(0.021,0.0239209372712298,-0.005));
#514=CARTESIAN_POINT('',(0.023,0.0239209372712298,-0.005));
#515=CARTESIAN_POINT('',(0.023,0.0259209372712298,-0.005));
#516=CARTESIAN_POINT('',(0.025,0.0259209372712298,-0.005));
#517=CARTESIAN_POINT('',(0.027,0.0259209372712298,-0.005));
#518=CARTESIAN_POINT('',(0.027,0.0319209372712298,-0.005));
#519=CARTESIAN_POINT('',(0.027,0.0379209372712298,-0.005));
#520=CARTESIAN_POINT('',(0.025,0.0379209372712298,-0.005));
#521=CARTESIAN_POINT('',(0.023,0.0379209372712298,-0.005));
#522=CARTESIAN_POINT('',(0.023,0.0239209372712298,-0.005));
#523=CARTESIAN_POINT('',(0.009,0.0239209372712298,-0.005));
#524=CARTESIAN_POINT('',(0.009,0.0229209372712298,-0.005));
#525=CARTESIAN_POINT('',(0.015,0.02,-0.005));
#526=CARTESIAN_POINT('',(0.015,0.02,-0.011));
#527=CARTESIAN_POINT('',(0.009,0.0229209372712298,-0.011));
#528=CARTESIAN_POINT('',(0.009,0.0239209372712298,-0.011));
#529=CARTESIAN_POINT('',(0.023,0.0239209372712298,-0.011));
#530=CARTESIAN_POINT('',(0.023,0.0379209372712298,-0.011));
#531=CARTESIAN_POINT('',(0.025,0.0379209372712298,-0.011));
#532=CARTESIAN_POINT('',(0.027,0.0379209372712298,-0.011));
#533=CARTESIAN_POINT('',(0.027,0.0319209372712298,-0.011));
#534=CARTESIAN_POINT('',(0.027,0.0259209372712298,-0.011));
#535=CARTESIAN_POINT('',(0.025,0.0259209372712298,-0.011));
#536=CARTESIAN_POINT('',(0.023,0.0259209372712298,-0.011));
#537=CARTESIAN_POINT('',(0.023,0.0239209372712298,-0.011));
#538=CARTESIAN_POINT('',(0.021,0.0239209372712298,-0.011));
#539=CARTESIAN_POINT('',(0.021,0.0229209372712298,-0.011));
#540=CARTESIAN_POINT('',(0.015,0.02,-0.011));
#541=CARTESIAN_POINT('',(0.015,0.02,-0.008));
#542=CARTESIAN_POINT('',(0.015,0.02,-0.0102073198426111));
#543=CARTESIAN_POINT('',(0.015,0.02,-0.00579268015738892));
#544=CARTESIAN_POINT('',(0.015,0.02,-0.00579268015738892));
#545=CARTESIAN_POINT('',(0.015,0.02,-0.011));
#546=CARTESIAN_POINT('',(0.021,0.0229209372712298,-0.005));
#547=CARTESIAN_POINT('',(0.021,0.0239209372712298,-0.005));
#548=CARTESIAN_POINT('',(0.009,0.0229209372712298,-0.005));
#549=CARTESIAN_POINT('',(0.009,0.0239209372712298,-0.005));
#550=CARTESIAN_POINT('',(0.023,0.0239209372712298,-0.005));
#551=CARTESIAN_POINT('',(0.023,0.0379209372712298,-0.005));
#552=CARTESIAN_POINT('',(0.025,0.0379209372712298,-0.005));
#553=CARTESIAN_POINT('',(0.027,0.0379209372712298,-0.005));
#554=CARTESIAN_POINT('',(0.027,0.0319209372712298,-0.005));
#555=CARTESIAN_POINT('',(0.027,0.0259209372712298,-0.005));
#556=CARTESIAN_POINT('',(0.025,0.0259209372712298,-0.005));
#557=CARTESIAN_POINT('',(0.023,0.0259209372712298,-0.005));
#558=CARTESIAN_POINT('',(0.023,0.0239209372712298,-0.005));
#559=CARTESIAN_POINT('',(0.0315,0.0319209372712298,-0.008));
#560=MECHANICAL_DESIGN_GEOMETRIC_PRESENTATION_REPRESENTATION('',(#323),
#561);
#561=(
GEOMETRIC_REPRESENTATION_CONTEXT(3)
GLOBAL_UNCERTAINTY_ASSIGNED_CONTEXT((#562))
GLOBAL_UNIT_ASSIGNED_CONTEXT((#565,#564,#563))
REPRESENTATION_CONTEXT('Right Leg One','TOP_LEVEL_ASSEMBLY_PART')
);
#562=UNCERTAINTY_MEASURE_WITH_UNIT(LENGTH_MEASURE(1.E-8),#565,
'DISTANCE_ACCURACY_VALUE','Maximum Tolerance applied to model');
#563=(
NAMED_UNIT(*)
SI_UNIT($,.STERADIAN.)
SOLID_ANGLE_UNIT()
);
#564=(
NAMED_UNIT(*)
PLANE_ANGLE_UNIT()
SI_UNIT($,.RADIAN.)
);
#565=(
LENGTH_UNIT()
NAMED_UNIT(*)
SI_UNIT($,.METRE.)
);
#566=PRODUCT_DEFINITION_SHAPE('','',#567);
#567=PRODUCT_DEFINITION('','',#569,#568);
#568=PRODUCT_DEFINITION_CONTEXT('',#575,'design');
#569=PRODUCT_DEFINITION_FORMATION_WITH_SPECIFIED_SOURCE('','',#571,
 .NOT_KNOWN.);
#570=PRODUCT_RELATED_PRODUCT_CATEGORY('','',(#571));
#571=PRODUCT('Right Leg One','Right Leg One','Right Leg One',(#573));
#572=PRODUCT_CATEGORY('','');
#573=PRODUCT_CONTEXT('',#575,'mechanical');
#574=APPLICATION_PROTOCOL_DEFINITION('international standard',
'ap242_managed_model_based_3d_engineering',2020,#575);
#575=APPLICATION_CONTEXT('managed model based 3d engineering');
ENDSEC;
END-ISO-10303-21;
