ISO-10303-21;
HEADER;
/* Generated by software containing ST-Developer
 * from STEP Tools, Inc. (www.steptools.com) 
 */
/* OPTION: using custom renumber hook */

FILE_DESCRIPTION(
/* description */ ('STEP AP242 Edition 2',
'CAx-IF Rec.Pracs.---Representation and Presentation of Product Manufa
cturing Information (PMI)---4.0---2014-10-13',
'CAx-IF Rec.Pracs.---3D Tessellated Geometry---0.4---2014-09-14','2;1',
'CAx-IF Rec.Pracs.---User Defined Attributes---1.5---2016-08-15'),
/* implementation_level */ '2;1');

FILE_NAME(
/* name */ '697bcce5f9a2531b3b48813c',
/* time_stamp */ '2026-01-29T21:11:01Z',
/* author */ (''),
/* organization */ (''),
/* preprocessor_version */ 'ST-DEVELOPER v20',
/* originating_system */ 'ONSHAPE BY PTC INC, 1.209',
/* authorisation */ '  ');

FILE_SCHEMA (('AP242_MANAGED_MODEL_BASED_3D_ENGINEERING_MIM_LF { 1 0 10303 442 3 1 4 }'));
ENDSEC;

DATA;
#10=SHAPE_REPRESENTATION_RELATIONSHIP('','',#253,#11);
#11=ADVANCED_BREP_SHAPE_REPRESENTATION('',(#251),#425);
#12=CONICAL_SURFACE('',#275,0.00255406592285415,0.38592419499737);
#13=CONICAL_SURFACE('',#276,0.00244071500867307,0.385924194997369);
#14=SPHERICAL_SURFACE('',#272,0.0033);
#15=SPHERICAL_SURFACE('',#280,0.0035);
#16=PLANE('',#261);
#17=PLANE('',#263);
#18=PLANE('',#268);
#19=PLANE('',#270);
#20=PLANE('',#277);
#21=PLANE('',#278);
#22=PLANE('',#279);
#23=LINE('',#362,#43);
#24=LINE('',#367,#44);
#25=LINE('',#374,#45);
#26=LINE('',#376,#46);
#27=LINE('',#377,#47);
#28=LINE('',#379,#48);
#29=LINE('',#381,#49);
#30=LINE('',#384,#50);
#31=LINE('',#388,#51);
#32=LINE('',#390,#52);
#33=LINE('',#392,#53);
#34=LINE('',#396,#54);
#35=LINE('',#401,#55);
#36=LINE('',#403,#56);
#37=LINE('',#405,#57);
#38=LINE('',#408,#58);
#39=LINE('',#410,#59);
#40=LINE('',#412,#60);
#41=LINE('',#419,#61);
#42=LINE('',#420,#62);
#43=VECTOR('',#291,1.);
#44=VECTOR('',#294,1.);
#45=VECTOR('',#301,1.);
#46=VECTOR('',#302,1.);
#47=VECTOR('',#303,1.);
#48=VECTOR('',#304,1.);
#49=VECTOR('',#307,1.);
#50=VECTOR('',#308,1.);
#51=VECTOR('',#311,1.);
#52=VECTOR('',#312,1.);
#53=VECTOR('',#313,1.);
#54=VECTOR('',#318,1.);
#55=VECTOR('',#325,1.);
#56=VECTOR('',#326,1.);
#57=VECTOR('',#327,1.);
#58=VECTOR('',#332,1.);
#59=VECTOR('',#333,1.);
#60=VECTOR('',#334,1.);
#61=VECTOR('',#347,1.);
#62=VECTOR('',#348,1.);
#63=ORIENTED_EDGE('',*,*,#127,.T.);
#64=ORIENTED_EDGE('',*,*,#128,.F.);
#65=ORIENTED_EDGE('',*,*,#129,.F.);
#66=ORIENTED_EDGE('',*,*,#130,.T.);
#67=ORIENTED_EDGE('',*,*,#131,.F.);
#68=ORIENTED_EDGE('',*,*,#132,.F.);
#69=ORIENTED_EDGE('',*,*,#133,.T.);
#70=ORIENTED_EDGE('',*,*,#134,.T.);
#71=ORIENTED_EDGE('',*,*,#135,.T.);
#72=ORIENTED_EDGE('',*,*,#131,.T.);
#73=ORIENTED_EDGE('',*,*,#136,.F.);
#74=ORIENTED_EDGE('',*,*,#137,.T.);
#75=ORIENTED_EDGE('',*,*,#138,.F.);
#76=ORIENTED_EDGE('',*,*,#139,.T.);
#77=ORIENTED_EDGE('',*,*,#140,.F.);
#78=ORIENTED_EDGE('',*,*,#141,.T.);
#79=ORIENTED_EDGE('',*,*,#142,.T.);
#80=ORIENTED_EDGE('',*,*,#143,.F.);
#81=ORIENTED_EDGE('',*,*,#144,.T.);
#82=ORIENTED_EDGE('',*,*,#145,.T.);
#83=ORIENTED_EDGE('',*,*,#146,.F.);
#84=ORIENTED_EDGE('',*,*,#143,.T.);
#85=ORIENTED_EDGE('',*,*,#135,.F.);
#86=ORIENTED_EDGE('',*,*,#147,.T.);
#87=ORIENTED_EDGE('',*,*,#138,.T.);
#88=ORIENTED_EDGE('',*,*,#146,.T.);
#89=ORIENTED_EDGE('',*,*,#148,.F.);
#90=ORIENTED_EDGE('',*,*,#149,.F.);
#91=ORIENTED_EDGE('',*,*,#150,.F.);
#92=ORIENTED_EDGE('',*,*,#132,.T.);
#93=ORIENTED_EDGE('',*,*,#142,.F.);
#94=ORIENTED_EDGE('',*,*,#151,.T.);
#95=ORIENTED_EDGE('',*,*,#136,.T.);
#96=ORIENTED_EDGE('',*,*,#130,.F.);
#97=ORIENTED_EDGE('',*,*,#152,.F.);
#98=ORIENTED_EDGE('',*,*,#153,.F.);
#99=ORIENTED_EDGE('',*,*,#154,.F.);
#100=ORIENTED_EDGE('',*,*,#144,.F.);
#101=ORIENTED_EDGE('',*,*,#140,.T.);
#102=ORIENTED_EDGE('',*,*,#155,.T.);
#103=ORIENTED_EDGE('',*,*,#133,.F.);
#104=ORIENTED_EDGE('',*,*,#156,.T.);
#105=ORIENTED_EDGE('',*,*,#134,.F.);
#106=ORIENTED_EDGE('',*,*,#155,.F.);
#107=ORIENTED_EDGE('',*,*,#139,.F.);
#108=ORIENTED_EDGE('',*,*,#147,.F.);
#109=ORIENTED_EDGE('',*,*,#137,.F.);
#110=ORIENTED_EDGE('',*,*,#151,.F.);
#111=ORIENTED_EDGE('',*,*,#141,.F.);
#112=ORIENTED_EDGE('',*,*,#156,.F.);
#113=ORIENTED_EDGE('',*,*,#127,.F.);
#114=ORIENTED_EDGE('',*,*,#157,.F.);
#115=ORIENTED_EDGE('',*,*,#153,.T.);
#116=ORIENTED_EDGE('',*,*,#158,.T.);
#117=ORIENTED_EDGE('',*,*,#149,.T.);
#118=ORIENTED_EDGE('',*,*,#145,.F.);
#119=ORIENTED_EDGE('',*,*,#154,.T.);
#120=ORIENTED_EDGE('',*,*,#157,.T.);
#121=ORIENTED_EDGE('',*,*,#148,.T.);
#122=ORIENTED_EDGE('',*,*,#158,.F.);
#123=ORIENTED_EDGE('',*,*,#152,.T.);
#124=ORIENTED_EDGE('',*,*,#129,.T.);
#125=ORIENTED_EDGE('',*,*,#150,.T.);
#126=ORIENTED_EDGE('',*,*,#128,.T.);
#127=EDGE_CURVE('',#159,#159,#181,.T.);
#128=EDGE_CURVE('',#160,#160,#182,.T.);
#129=EDGE_CURVE('',#161,#162,#23,.T.);
#130=EDGE_CURVE('',#161,#163,#183,.T.);
#131=EDGE_CURVE('',#164,#163,#24,.T.);
#132=EDGE_CURVE('',#162,#164,#184,.T.);
#133=EDGE_CURVE('',#165,#166,#185,.F.);
#134=EDGE_CURVE('',#166,#167,#25,.F.);
#135=EDGE_CURVE('',#167,#164,#26,.T.);
#136=EDGE_CURVE('',#168,#163,#27,.T.);
#137=EDGE_CURVE('',#168,#165,#28,.F.);
#138=EDGE_CURVE('',#169,#170,#29,.T.);
#139=EDGE_CURVE('',#169,#171,#30,.T.);
#140=EDGE_CURVE('',#172,#171,#186,.F.);
#141=EDGE_CURVE('',#172,#173,#31,.T.);
#142=EDGE_CURVE('',#173,#174,#32,.T.);
#143=EDGE_CURVE('',#170,#174,#33,.T.);
#144=EDGE_CURVE('',#174,#175,#187,.T.);
#145=EDGE_CURVE('',#175,#176,#34,.T.);
#146=EDGE_CURVE('',#170,#176,#188,.T.);
#147=EDGE_CURVE('',#167,#169,#189,.F.);
#148=EDGE_CURVE('',#177,#176,#35,.T.);
#149=EDGE_CURVE('',#178,#177,#36,.T.);
#150=EDGE_CURVE('',#162,#178,#37,.T.);
#151=EDGE_CURVE('',#173,#168,#190,.T.);
#152=EDGE_CURVE('',#179,#161,#38,.T.);
#153=EDGE_CURVE('',#180,#179,#39,.T.);
#154=EDGE_CURVE('',#175,#180,#40,.T.);
#155=EDGE_CURVE('',#171,#166,#191,.F.);
#156=EDGE_CURVE('',#165,#172,#192,.F.);
#157=EDGE_CURVE('',#180,#177,#41,.T.);
#158=EDGE_CURVE('',#179,#178,#42,.T.);
#159=VERTEX_POINT('',#358);
#160=VERTEX_POINT('',#360);
#161=VERTEX_POINT('',#363);
#162=VERTEX_POINT('',#364);
#163=VERTEX_POINT('',#366);
#164=VERTEX_POINT('',#368);
#165=VERTEX_POINT('',#372);
#166=VERTEX_POINT('',#373);
#167=VERTEX_POINT('',#375);
#168=VERTEX_POINT('',#378);
#169=VERTEX_POINT('',#382);
#170=VERTEX_POINT('',#383);
#171=VERTEX_POINT('',#385);
#172=VERTEX_POINT('',#387);
#173=VERTEX_POINT('',#389);
#174=VERTEX_POINT('',#391);
#175=VERTEX_POINT('',#395);
#176=VERTEX_POINT('',#397);
#177=VERTEX_POINT('',#402);
#178=VERTEX_POINT('',#404);
#179=VERTEX_POINT('',#409);
#180=VERTEX_POINT('',#411);
#181=CIRCLE('',#256,0.00225);
#182=CIRCLE('',#257,0.00225);
#183=CIRCLE('',#259,0.0053);
#184=CIRCLE('',#260,0.0053);
#185=CIRCLE('',#262,0.0033);
#186=CIRCLE('',#264,0.0033);
#187=CIRCLE('',#266,0.0053);
#188=CIRCLE('',#267,0.0053);
#189=CIRCLE('',#269,0.00255406592285414);
#190=CIRCLE('',#271,0.00255406592285415);
#191=CIRCLE('',#273,0.00244071500867306);
#192=CIRCLE('',#274,0.00244071500867306);
#193=EDGE_LOOP('',(#63));
#194=EDGE_LOOP('',(#64));
#195=EDGE_LOOP('',(#65,#66,#67,#68));
#196=EDGE_LOOP('',(#69,#70,#71,#72,#73,#74));
#197=EDGE_LOOP('',(#75,#76,#77,#78,#79,#80));
#198=EDGE_LOOP('',(#81,#82,#83,#84));
#199=EDGE_LOOP('',(#85,#86,#87,#88,#89,#90,#91,#92));
#200=EDGE_LOOP('',(#93,#94,#95,#96,#97,#98,#99,#100));
#201=EDGE_LOOP('',(#101,#102,#103,#104));
#202=EDGE_LOOP('',(#105,#106,#107,#108));
#203=EDGE_LOOP('',(#109,#110,#111,#112));
#204=EDGE_LOOP('',(#113));
#205=EDGE_LOOP('',(#114,#115,#116,#117));
#206=EDGE_LOOP('',(#118,#119,#120,#121));
#207=EDGE_LOOP('',(#122,#123,#124,#125));
#208=EDGE_LOOP('',(#126));
#209=FACE_BOUND('',#193,.T.);
#210=FACE_BOUND('',#194,.T.);
#211=FACE_BOUND('',#195,.T.);
#212=FACE_BOUND('',#196,.T.);
#213=FACE_BOUND('',#197,.T.);
#214=FACE_BOUND('',#198,.T.);
#215=FACE_BOUND('',#199,.T.);
#216=FACE_BOUND('',#200,.T.);
#217=FACE_BOUND('',#201,.T.);
#218=FACE_BOUND('',#202,.T.);
#219=FACE_BOUND('',#203,.T.);
#220=FACE_BOUND('',#204,.T.);
#221=FACE_BOUND('',#205,.T.);
#222=FACE_BOUND('',#206,.T.);
#223=FACE_BOUND('',#207,.T.);
#224=FACE_BOUND('',#208,.T.);
#225=CYLINDRICAL_SURFACE('',#255,0.00225);
#226=CYLINDRICAL_SURFACE('',#258,0.0053);
#227=CYLINDRICAL_SURFACE('',#265,0.0053);
#228=ADVANCED_FACE('',(#209,#210),#225,.T.);
#229=ADVANCED_FACE('',(#211),#226,.T.);
#230=ADVANCED_FACE('',(#212),#16,.T.);
#231=ADVANCED_FACE('',(#213),#17,.F.);
#232=ADVANCED_FACE('',(#214),#227,.T.);
#233=ADVANCED_FACE('',(#215),#18,.T.);
#234=ADVANCED_FACE('',(#216),#19,.F.);
#235=ADVANCED_FACE('',(#217),#14,.F.);
#236=ADVANCED_FACE('',(#218),#12,.F.);
#237=ADVANCED_FACE('',(#219),#13,.F.);
#238=ADVANCED_FACE('',(#220,#221),#20,.F.);
#239=ADVANCED_FACE('',(#222),#21,.F.);
#240=ADVANCED_FACE('',(#223),#22,.F.);
#241=ADVANCED_FACE('',(#224),#15,.T.);
#242=CLOSED_SHELL('',(#228,#229,#230,#231,#232,#233,#234,#235,#236,#237,
#238,#239,#240,#241));
#243=STYLED_ITEM('',(#244),#251);
#244=PRESENTATION_STYLE_ASSIGNMENT((#245));
#245=SURFACE_STYLE_USAGE(.BOTH.,#246);
#246=SURFACE_SIDE_STYLE('',(#247));
#247=SURFACE_STYLE_FILL_AREA(#248);
#248=FILL_AREA_STYLE('',(#249));
#249=FILL_AREA_STYLE_COLOUR('',#250);
#250=COLOUR_RGB('',0.207843137254902,0.207843137254902,0.207843137254902);
#251=MANIFOLD_SOLID_BREP('Stand',#242);
#252=SHAPE_DEFINITION_REPRESENTATION(#430,#253);
#253=SHAPE_REPRESENTATION('Stand',(#254),#425);
#254=AXIS2_PLACEMENT_3D('',#355,#281,#282);
#255=AXIS2_PLACEMENT_3D('',#356,#283,#284);
#256=AXIS2_PLACEMENT_3D('',#357,#285,#286);
#257=AXIS2_PLACEMENT_3D('',#359,#287,#288);
#258=AXIS2_PLACEMENT_3D('',#361,#289,#290);
#259=AXIS2_PLACEMENT_3D('',#365,#292,#293);
#260=AXIS2_PLACEMENT_3D('',#369,#295,#296);
#261=AXIS2_PLACEMENT_3D('',#370,#297,#298);
#262=AXIS2_PLACEMENT_3D('',#371,#299,#300);
#263=AXIS2_PLACEMENT_3D('',#380,#305,#306);
#264=AXIS2_PLACEMENT_3D('',#386,#309,#310);
#265=AXIS2_PLACEMENT_3D('',#393,#314,#315);
#266=AXIS2_PLACEMENT_3D('',#394,#316,#317);
#267=AXIS2_PLACEMENT_3D('',#398,#319,#320);
#268=AXIS2_PLACEMENT_3D('',#399,#321,#322);
#269=AXIS2_PLACEMENT_3D('',#400,#323,#324);
#270=AXIS2_PLACEMENT_3D('',#406,#328,#329);
#271=AXIS2_PLACEMENT_3D('',#407,#330,#331);
#272=AXIS2_PLACEMENT_3D('',#413,#335,#336);
#273=AXIS2_PLACEMENT_3D('',#414,#337,#338);
#274=AXIS2_PLACEMENT_3D('',#415,#339,#340);
#275=AXIS2_PLACEMENT_3D('',#416,#341,#342);
#276=AXIS2_PLACEMENT_3D('',#417,#343,#344);
#277=AXIS2_PLACEMENT_3D('',#418,#345,#346);
#278=AXIS2_PLACEMENT_3D('',#421,#349,#350);
#279=AXIS2_PLACEMENT_3D('',#422,#351,#352);
#280=AXIS2_PLACEMENT_3D('',#423,#353,#354);
#281=DIRECTION('',(0.,0.,1.));
#282=DIRECTION('',(1.,0.,0.));
#283=DIRECTION('',(0.,0.,1.));
#284=DIRECTION('',(1.,0.,0.));
#285=DIRECTION('',(0.,0.,-1.));
#286=DIRECTION('',(-1.,0.,0.));
#287=DIRECTION('',(0.,0.,-1.));
#288=DIRECTION('',(-1.,0.,0.));
#289=DIRECTION('',(0.,1.,0.));
#290=DIRECTION('',(0.,0.,1.));
#291=DIRECTION('',(0.,-1.,0.));
#292=DIRECTION('',(0.,-1.,0.));
#293=DIRECTION('',(0.,0.,-1.));
#294=DIRECTION('',(0.,1.,0.));
#295=DIRECTION('',(0.,-1.,0.));
#296=DIRECTION('',(0.,0.,-1.));
#297=DIRECTION('',(-0.559192903470747,0.,0.829037572555041));
#298=DIRECTION('',(0.829037572555041,0.,0.559192903470747));
#299=DIRECTION('',(-0.559192903470747,0.,0.829037572555041));
#300=DIRECTION('',(0.829037572555041,0.,0.559192903470747));
#301=DIRECTION('',(-0.312062607904432,0.926450947041089,-0.210488886819598));
#302=DIRECTION('',(0.829037572555041,0.,0.559192903470747));
#303=DIRECTION('',(0.829037572555041,0.,0.559192903470747));
#304=DIRECTION('',(0.31206260790443,0.92645094704109,0.210488886819597));
#305=DIRECTION('',(-0.559192903470747,0.,-0.829037572555042));
#306=DIRECTION('',(-0.829037572555042,0.,0.559192903470747));
#307=DIRECTION('',(-0.829037572555042,0.,0.559192903470747));
#308=DIRECTION('',(0.312062607904432,0.926450947041089,-0.210488886819598));
#309=DIRECTION('',(-0.559192903470747,0.,-0.829037572555042));
#310=DIRECTION('',(-0.829037572555042,0.,0.559192903470747));
#311=DIRECTION('',(-0.31206260790443,0.92645094704109,0.210488886819597));
#312=DIRECTION('',(-0.829037572555042,0.,0.559192903470747));
#313=DIRECTION('',(0.,1.,0.));
#314=DIRECTION('',(0.,1.,0.));
#315=DIRECTION('',(0.,0.,1.));
#316=DIRECTION('',(0.,-1.,0.));
#317=DIRECTION('',(0.,0.,-1.));
#318=DIRECTION('',(0.,-1.,0.));
#319=DIRECTION('',(0.,-1.,0.));
#320=DIRECTION('',(0.,0.,-1.));
#321=DIRECTION('',(0.,-1.,0.));
#322=DIRECTION('',(1.,0.,0.));
#323=DIRECTION('',(0.,-1.,0.));
#324=DIRECTION('',(0.,0.,-1.));
#325=DIRECTION('',(3.21245088143853E-16,0.,1.));
#326=DIRECTION('',(-1.,0.,0.));
#327=DIRECTION('',(-1.92747052886312E-16,0.,-1.));
#328=DIRECTION('',(0.,-1.,0.));
#329=DIRECTION('',(1.,0.,0.));
#330=DIRECTION('',(0.,-1.,0.));
#331=DIRECTION('',(0.,0.,-1.));
#332=DIRECTION('',(1.92747052886312E-16,0.,1.));
#333=DIRECTION('',(1.,0.,0.));
#334=DIRECTION('',(-3.21245088143853E-16,0.,-1.));
#335=DIRECTION('',(0.,0.,1.));
#336=DIRECTION('',(1.,0.,0.));
#337=DIRECTION('',(0.,1.,0.));
#338=DIRECTION('',(0.,0.,1.));
#339=DIRECTION('',(0.,-1.,0.));
#340=DIRECTION('',(0.,0.,-1.));
#341=DIRECTION('',(0.,-1.,0.));
#342=DIRECTION('',(0.,0.,-1.));
#343=DIRECTION('',(0.,1.,0.));
#344=DIRECTION('',(0.,0.,1.));
#345=DIRECTION('',(0.,0.,1.));
#346=DIRECTION('',(1.,0.,0.));
#347=DIRECTION('',(0.,-1.,0.));
#348=DIRECTION('',(0.,-1.,0.));
#349=DIRECTION('',(1.,0.,-3.21245088143853E-16));
#350=DIRECTION('',(-3.21245088143853E-16,0.,-1.));
#351=DIRECTION('',(-1.,0.,1.92747052886312E-16));
#352=DIRECTION('',(1.92747052886312E-16,0.,1.));
#353=DIRECTION('',(0.,-1.,0.));
#354=DIRECTION('',(-1.,0.,0.));
#355=CARTESIAN_POINT('',(0.,0.,0.));
#356=CARTESIAN_POINT('',(-0.00249999999999935,-1.87249624088088E-18,-0.0538));
#357=CARTESIAN_POINT('',(-0.00249999999999935,-1.87249624088088E-18,-0.0493));
#358=CARTESIAN_POINT('',(-0.00474999999999935,-1.87249624088088E-18,-0.0493));
#359=CARTESIAN_POINT('',(-0.00249999999999935,-1.87249624088088E-18,-0.0511190486763091));
#360=CARTESIAN_POINT('',(-0.00474999999999935,-1.87249624088088E-18,-0.0511190486763091));
#361=CARTESIAN_POINT('',(-0.00249999999999934,-0.0025,-0.0195));
#362=CARTESIAN_POINT('',(0.00200000000000066,0.002502,-0.0223));
#363=CARTESIAN_POINT('',(0.00200000000000066,0.0025,-0.0223));
#364=CARTESIAN_POINT('',(0.00200000000000066,-0.0025,-0.0223));
#365=CARTESIAN_POINT('',(-0.00249999999999934,0.0025,-0.0195));
#366=CARTESIAN_POINT('',(0.00189389913454239,0.0025,-0.016536277611605));
#367=CARTESIAN_POINT('',(0.00189389913454239,-0.0025,-0.016536277611605));
#368=CARTESIAN_POINT('',(0.00189389913454239,-0.0025,-0.016536277611605));
#369=CARTESIAN_POINT('',(-0.00249999999999934,-0.0025,-0.0195));
#370=CARTESIAN_POINT('',(-0.00113208800528351,-0.0025,-0.0185773317092733));
#371=CARTESIAN_POINT('',(-0.00249999999999934,-1.87249624088088E-18,-0.0195));
#372=CARTESIAN_POINT('',(-0.000476555553910357,0.00222101558896782,-0.0181351694877555));
#373=CARTESIAN_POINT('',(-0.000476555553910356,-0.00222101558896782,-0.0181351694877555));
#374=CARTESIAN_POINT('',(-0.00249999999999934,0.00378618288941657,-0.0195));
#375=CARTESIAN_POINT('',(-0.00038258338717078,-0.0025,-0.0180717844609435));
#376=CARTESIAN_POINT('',(-0.00113208800528351,-0.0025,-0.0185773317092733));
#377=CARTESIAN_POINT('',(-0.00113208800528351,0.0025,-0.0185773317092733));
#378=CARTESIAN_POINT('',(-0.00038258338717078,0.0025,-0.0180717844609435));
#379=CARTESIAN_POINT('',(-0.00249999999999934,-0.0037861828894166,-0.0195));
#380=CARTESIAN_POINT('',(-0.00386791199471515,-0.0025,-0.0185773317092733));
#381=CARTESIAN_POINT('',(-0.00386791199471515,-0.0025,-0.0185773317092733));
#382=CARTESIAN_POINT('',(-0.00461741661282789,-0.0025,-0.0180717844609435));
#383=CARTESIAN_POINT('',(-0.00689389913454106,-0.0025,-0.016536277611605));
#384=CARTESIAN_POINT('',(-0.00249999999999933,0.00378618288941657,-0.0195));
#385=CARTESIAN_POINT('',(-0.00452344444608831,-0.00222101558896782,-0.0181351694877555));
#386=CARTESIAN_POINT('',(-0.00249999999999933,-1.87249624088088E-18,-0.0195));
#387=CARTESIAN_POINT('',(-0.00452344444608831,0.00222101558896782,-0.0181351694877555));
#388=CARTESIAN_POINT('',(-0.00249999999999933,-0.0037861828894166,-0.0195));
#389=CARTESIAN_POINT('',(-0.00461741661282789,0.0025,-0.0180717844609435));
#390=CARTESIAN_POINT('',(-0.00386791199471515,0.0025,-0.0185773317092733));
#391=CARTESIAN_POINT('',(-0.00689389913454106,0.0025,-0.016536277611605));
#392=CARTESIAN_POINT('',(-0.00689389913454106,-0.0025,-0.016536277611605));
#393=CARTESIAN_POINT('',(-0.00249999999999934,-0.0025,-0.0195));
#394=CARTESIAN_POINT('',(-0.00249999999999934,0.0025,-0.0195));
#395=CARTESIAN_POINT('',(-0.00699999999999934,0.0025,-0.0223));
#396=CARTESIAN_POINT('',(-0.00699999999999934,0.002502,-0.0223));
#397=CARTESIAN_POINT('',(-0.00699999999999934,-0.0025,-0.0223));
#398=CARTESIAN_POINT('',(-0.00249999999999934,-0.0025,-0.0195));
#399=CARTESIAN_POINT('',(-0.00249999999999933,-0.0025,-0.0195));
#400=CARTESIAN_POINT('',(-0.00249999999999934,-0.0025,-0.0195));
#401=CARTESIAN_POINT('',(-0.00699999999999934,-0.0025,-0.0358));
#402=CARTESIAN_POINT('',(-0.00699999999999935,-0.0025,-0.0493));
#403=CARTESIAN_POINT('',(-0.00249999999999934,-0.0025,-0.0493));
#404=CARTESIAN_POINT('',(0.00200000000000066,-0.0025,-0.0493));
#405=CARTESIAN_POINT('',(0.00200000000000066,-0.0025,-0.0358));
#406=CARTESIAN_POINT('',(-0.00249999999999933,0.0025,-0.0195));
#407=CARTESIAN_POINT('',(-0.00249999999999934,0.0025,-0.0195));
#408=CARTESIAN_POINT('',(0.00200000000000066,0.0025,-0.0358));
#409=CARTESIAN_POINT('',(0.00200000000000066,0.0025,-0.0493));
#410=CARTESIAN_POINT('',(-0.00249999999999934,0.0025,-0.0493));
#411=CARTESIAN_POINT('',(-0.00699999999999935,0.0025,-0.0493));
#412=CARTESIAN_POINT('',(-0.00699999999999934,0.0025,-0.0358));
#413=CARTESIAN_POINT('',(-0.00249999999999934,-1.87249624088088E-18,-0.0195));
#414=CARTESIAN_POINT('',(-0.00249999999999934,-0.00222101558896782,-0.0195));
#415=CARTESIAN_POINT('',(-0.00249999999999934,0.00222101558896782,-0.0195));
#416=CARTESIAN_POINT('',(-0.00249999999999934,-0.0025,-0.0195));
#417=CARTESIAN_POINT('',(-0.00249999999999934,0.00222101558896782,-0.0195));
#418=CARTESIAN_POINT('',(-0.00249999999999934,0.002502,-0.0493));
#419=CARTESIAN_POINT('',(-0.00699999999999935,0.002502,-0.0493));
#420=CARTESIAN_POINT('',(0.00200000000000066,0.002502,-0.0493));
#421=CARTESIAN_POINT('',(-0.00699999999999934,0.002502,-0.0358));
#422=CARTESIAN_POINT('',(0.00200000000000066,0.002502,-0.0358));
#423=CARTESIAN_POINT('',(-0.00249999999999935,-1.7347234759768E-18,-0.0538));
#424=MECHANICAL_DESIGN_GEOMETRIC_PRESENTATION_REPRESENTATION('',(#243),
#425);
#425=(
GEOMETRIC_REPRESENTATION_CONTEXT(3)
GLOBAL_UNCERTAINTY_ASSIGNED_CONTEXT((#426))
GLOBAL_UNIT_ASSIGNED_CONTEXT((#429,#428,#427))
REPRESENTATION_CONTEXT('Stand','TOP_LEVEL_ASSEMBLY_PART')
);
#426=UNCERTAINTY_MEASURE_WITH_UNIT(LENGTH_MEASURE(1.E-8),#429,
'DISTANCE_ACCURACY_VALUE','Maximum Tolerance applied to model');
#427=(
NAMED_UNIT(*)
SI_UNIT($,.STERADIAN.)
SOLID_ANGLE_UNIT()
);
#428=(
NAMED_UNIT(*)
PLANE_ANGLE_UNIT()
SI_UNIT($,.RADIAN.)
);
#429=(
LENGTH_UNIT()
NAMED_UNIT(*)
SI_UNIT($,.METRE.)
);
#430=PRODUCT_DEFINITION_SHAPE('','',#431);
#431=PRODUCT_DEFINITION('','',#433,#432);
#432=PRODUCT_DEFINITION_CONTEXT('',#439,'design');
#433=PRODUCT_DEFINITION_FORMATION_WITH_SPECIFIED_SOURCE('','',#435,
 .NOT_KNOWN.);
#434=PRODUCT_RELATED_PRODUCT_CATEGORY('','',(#435));
#435=PRODUCT('Stand','Stand','Stand',(#437));
#436=PRODUCT_CATEGORY('','');
#437=PRODUCT_CONTEXT('',#439,'mechanical');
#438=APPLICATION_PROTOCOL_DEFINITION('international standard',
'ap242_managed_model_based_3d_engineering',2020,#439);
#439=APPLICATION_CONTEXT('managed model based 3d engineering');
ENDSEC;
END-ISO-10303-21;
