ISO-10303-21;
HEADER;
/* Generated by software containing ST-Developer
 * from STEP Tools, Inc. (www.steptools.com) 
 */
/* OPTION: using custom renumber hook */

FILE_DESCRIPTION(
/* description */ ('STEP AP242 Edition 2',
'CAx-IF Rec.Pracs.---Representation and Presentation of Product Manufa
cturing Information (PMI)---4.0---2014-10-13',
'CAx-IF Rec.Pracs.---3D Tessellated Geometry---0.4---2014-09-14','2;1',
'CAx-IF Rec.Pracs.---User Defined Attributes---1.5---2016-08-15'),
/* implementation_level */ '2;1');

FILE_NAME(
/* name */ '69698aa7d326d0aa26a30d69',
/* time_stamp */ '2026-01-16T00:47:35Z',
/* author */ (''),
/* organization */ (''),
/* preprocessor_version */ 'ST-DEVELOPER v20',
/* originating_system */ 'ONSHAPE BY PTC INC, 1.209',
/* authorisation */ '  ');

FILE_SCHEMA (('AP242_MANAGED_MODEL_BASED_3D_ENGINEERING_MIM_LF { 1 0 10303 442 3 1 4 }'));
ENDSEC;

DATA;
#10=SHAPE_REPRESENTATION_RELATIONSHIP('','',#149,#11);
#11=ADVANCED_BREP_SHAPE_REPRESENTATION('',(#147),#251);
#12=CONICAL_SURFACE('',#165,0.00226095202129182,0.323340231192515);
#13=CONICAL_SURFACE('',#166,0.00205904036903826,0.323340231192512);
#14=SPHERICAL_SURFACE('',#162,0.0028);
#15=CYLINDRICAL_SURFACE('',#155,0.0048);
#16=LINE('',#216,#26);
#17=LINE('',#218,#27);
#18=LINE('',#220,#28);
#19=LINE('',#222,#29);
#20=LINE('',#224,#30);
#21=LINE('',#226,#31);
#22=LINE('',#229,#32);
#23=LINE('',#233,#33);
#24=LINE('',#235,#34);
#25=LINE('',#237,#35);
#26=VECTOR('',#173,1.);
#27=VECTOR('',#174,1.);
#28=VECTOR('',#175,1.);
#29=VECTOR('',#176,1.);
#30=VECTOR('',#177,1.);
#31=VECTOR('',#180,1.);
#32=VECTOR('',#181,1.);
#33=VECTOR('',#184,1.);
#34=VECTOR('',#185,1.);
#35=VECTOR('',#186,1.);
#36=ORIENTED_EDGE('',*,*,#72,.T.);
#37=ORIENTED_EDGE('',*,*,#73,.T.);
#38=ORIENTED_EDGE('',*,*,#74,.T.);
#39=ORIENTED_EDGE('',*,*,#75,.T.);
#40=ORIENTED_EDGE('',*,*,#76,.F.);
#41=ORIENTED_EDGE('',*,*,#77,.T.);
#42=ORIENTED_EDGE('',*,*,#78,.F.);
#43=ORIENTED_EDGE('',*,*,#79,.T.);
#44=ORIENTED_EDGE('',*,*,#80,.F.);
#45=ORIENTED_EDGE('',*,*,#81,.T.);
#46=ORIENTED_EDGE('',*,*,#82,.T.);
#47=ORIENTED_EDGE('',*,*,#83,.F.);
#48=ORIENTED_EDGE('',*,*,#84,.T.);
#49=ORIENTED_EDGE('',*,*,#75,.F.);
#50=ORIENTED_EDGE('',*,*,#85,.F.);
#51=ORIENTED_EDGE('',*,*,#83,.T.);
#52=ORIENTED_EDGE('',*,*,#74,.F.);
#53=ORIENTED_EDGE('',*,*,#86,.T.);
#54=ORIENTED_EDGE('',*,*,#78,.T.);
#55=ORIENTED_EDGE('',*,*,#85,.T.);
#56=ORIENTED_EDGE('',*,*,#82,.F.);
#57=ORIENTED_EDGE('',*,*,#87,.T.);
#58=ORIENTED_EDGE('',*,*,#76,.T.);
#59=ORIENTED_EDGE('',*,*,#84,.F.);
#60=ORIENTED_EDGE('',*,*,#80,.T.);
#61=ORIENTED_EDGE('',*,*,#88,.T.);
#62=ORIENTED_EDGE('',*,*,#72,.F.);
#63=ORIENTED_EDGE('',*,*,#89,.T.);
#64=ORIENTED_EDGE('',*,*,#73,.F.);
#65=ORIENTED_EDGE('',*,*,#88,.F.);
#66=ORIENTED_EDGE('',*,*,#79,.F.);
#67=ORIENTED_EDGE('',*,*,#86,.F.);
#68=ORIENTED_EDGE('',*,*,#77,.F.);
#69=ORIENTED_EDGE('',*,*,#87,.F.);
#70=ORIENTED_EDGE('',*,*,#81,.F.);
#71=ORIENTED_EDGE('',*,*,#89,.F.);
#72=EDGE_CURVE('',#90,#91,#102,.F.);
#73=EDGE_CURVE('',#91,#92,#16,.F.);
#74=EDGE_CURVE('',#92,#93,#17,.T.);
#75=EDGE_CURVE('',#93,#94,#18,.T.);
#76=EDGE_CURVE('',#95,#94,#19,.T.);
#77=EDGE_CURVE('',#95,#90,#20,.F.);
#78=EDGE_CURVE('',#96,#97,#21,.T.);
#79=EDGE_CURVE('',#96,#98,#22,.T.);
#80=EDGE_CURVE('',#99,#98,#103,.F.);
#81=EDGE_CURVE('',#99,#100,#23,.T.);
#82=EDGE_CURVE('',#100,#101,#24,.T.);
#83=EDGE_CURVE('',#97,#101,#25,.T.);
#84=EDGE_CURVE('',#101,#94,#104,.T.);
#85=EDGE_CURVE('',#97,#93,#105,.T.);
#86=EDGE_CURVE('',#92,#96,#106,.F.);
#87=EDGE_CURVE('',#100,#95,#107,.T.);
#88=EDGE_CURVE('',#98,#91,#108,.F.);
#89=EDGE_CURVE('',#90,#99,#109,.F.);
#90=VERTEX_POINT('',#214);
#91=VERTEX_POINT('',#215);
#92=VERTEX_POINT('',#217);
#93=VERTEX_POINT('',#219);
#94=VERTEX_POINT('',#221);
#95=VERTEX_POINT('',#223);
#96=VERTEX_POINT('',#227);
#97=VERTEX_POINT('',#228);
#98=VERTEX_POINT('',#230);
#99=VERTEX_POINT('',#232);
#100=VERTEX_POINT('',#234);
#101=VERTEX_POINT('',#236);
#102=CIRCLE('',#152,0.0028);
#103=CIRCLE('',#154,0.0028);
#104=CIRCLE('',#156,0.0048);
#105=CIRCLE('',#157,0.0048);
#106=CIRCLE('',#159,0.00226095202129182);
#107=CIRCLE('',#161,0.00226095202129182);
#108=CIRCLE('',#163,0.00205904036903826);
#109=CIRCLE('',#164,0.00205904036903826);
#110=EDGE_LOOP('',(#36,#37,#38,#39,#40,#41));
#111=EDGE_LOOP('',(#42,#43,#44,#45,#46,#47));
#112=EDGE_LOOP('',(#48,#49,#50,#51));
#113=EDGE_LOOP('',(#52,#53,#54,#55));
#114=EDGE_LOOP('',(#56,#57,#58,#59));
#115=EDGE_LOOP('',(#60,#61,#62,#63));
#116=EDGE_LOOP('',(#64,#65,#66,#67));
#117=EDGE_LOOP('',(#68,#69,#70,#71));
#118=FACE_BOUND('',#110,.T.);
#119=FACE_BOUND('',#111,.T.);
#120=FACE_BOUND('',#112,.T.);
#121=FACE_BOUND('',#113,.T.);
#122=FACE_BOUND('',#114,.T.);
#123=FACE_BOUND('',#115,.T.);
#124=FACE_BOUND('',#116,.T.);
#125=FACE_BOUND('',#117,.T.);
#126=PLANE('',#151);
#127=PLANE('',#153);
#128=PLANE('',#158);
#129=PLANE('',#160);
#130=ADVANCED_FACE('',(#118),#126,.T.);
#131=ADVANCED_FACE('',(#119),#127,.F.);
#132=ADVANCED_FACE('',(#120),#15,.T.);
#133=ADVANCED_FACE('',(#121),#128,.T.);
#134=ADVANCED_FACE('',(#122),#129,.F.);
#135=ADVANCED_FACE('',(#123),#14,.F.);
#136=ADVANCED_FACE('',(#124),#12,.F.);
#137=ADVANCED_FACE('',(#125),#13,.F.);
#138=CLOSED_SHELL('',(#130,#131,#132,#133,#134,#135,#136,#137));
#139=STYLED_ITEM('',(#140),#147);
#140=PRESENTATION_STYLE_ASSIGNMENT((#141));
#141=SURFACE_STYLE_USAGE(.BOTH.,#142);
#142=SURFACE_SIDE_STYLE('',(#143));
#143=SURFACE_STYLE_FILL_AREA(#144);
#144=FILL_AREA_STYLE('',(#145));
#145=FILL_AREA_STYLE_COLOUR('',#146);
#146=COLOUR_RGB('',0.231372549019608,0.380392156862745,0.705882352941177);
#147=MANIFOLD_SOLID_BREP('TailOne',#138);
#148=SHAPE_DEFINITION_REPRESENTATION(#256,#149);
#149=SHAPE_REPRESENTATION('TailOne',(#150),#251);
#150=AXIS2_PLACEMENT_3D('',#211,#167,#168);
#151=AXIS2_PLACEMENT_3D('',#212,#169,#170);
#152=AXIS2_PLACEMENT_3D('',#213,#171,#172);
#153=AXIS2_PLACEMENT_3D('',#225,#178,#179);
#154=AXIS2_PLACEMENT_3D('',#231,#182,#183);
#155=AXIS2_PLACEMENT_3D('',#238,#187,#188);
#156=AXIS2_PLACEMENT_3D('',#239,#189,#190);
#157=AXIS2_PLACEMENT_3D('',#240,#191,#192);
#158=AXIS2_PLACEMENT_3D('',#241,#193,#194);
#159=AXIS2_PLACEMENT_3D('',#242,#195,#196);
#160=AXIS2_PLACEMENT_3D('',#243,#197,#198);
#161=AXIS2_PLACEMENT_3D('',#244,#199,#200);
#162=AXIS2_PLACEMENT_3D('',#245,#201,#202);
#163=AXIS2_PLACEMENT_3D('',#246,#203,#204);
#164=AXIS2_PLACEMENT_3D('',#247,#205,#206);
#165=AXIS2_PLACEMENT_3D('',#248,#207,#208);
#166=AXIS2_PLACEMENT_3D('',#249,#209,#210);
#167=DIRECTION('',(0.,0.,1.));
#168=DIRECTION('',(1.,0.,0.));
#169=DIRECTION('',(-0.831469612302546,-0.555570233019602,0.));
#170=DIRECTION('',(0.555570233019602,-0.831469612302546,0.));
#171=DIRECTION('',(-0.831469612302546,-0.555570233019602,0.));
#172=DIRECTION('',(0.555570233019602,-0.831469612302546,0.));
#173=DIRECTION('',(0.176524366685356,-0.26418738443218,-0.948179399624996));
#174=DIRECTION('',(-0.555570233019602,0.831469612302546,0.));
#175=DIRECTION('',(0.,0.,-1.));
#176=DIRECTION('',(-0.555570233019602,0.831469612302546,0.));
#177=DIRECTION('',(-0.176524366685354,0.264187384432178,-0.948179399624997));
#178=DIRECTION('',(0.831469612302545,-0.555570233019603,0.));
#179=DIRECTION('',(0.555570233019603,0.831469612302545,0.));
#180=DIRECTION('',(-0.555570233019603,-0.831469612302545,0.));
#181=DIRECTION('',(0.176524366685356,0.26418738443218,-0.948179399624996));
#182=DIRECTION('',(0.831469612302545,-0.555570233019603,0.));
#183=DIRECTION('',(0.555570233019603,0.831469612302545,0.));
#184=DIRECTION('',(-0.176524366685355,-0.264187384432178,-0.948179399624997));
#185=DIRECTION('',(-0.555570233019603,-0.831469612302545,0.));
#186=DIRECTION('',(0.,0.,-1.));
#187=DIRECTION('',(0.,0.,-1.));
#188=DIRECTION('',(-1.,0.,0.));
#189=DIRECTION('',(0.,0.,1.));
#190=DIRECTION('',(1.,0.,0.));
#191=DIRECTION('',(0.,0.,1.));
#192=DIRECTION('',(1.,0.,0.));
#193=DIRECTION('',(0.,0.,1.));
#194=DIRECTION('',(1.,0.,0.));
#195=DIRECTION('',(0.,0.,1.));
#196=DIRECTION('',(1.,0.,0.));
#197=DIRECTION('',(0.,0.,1.));
#198=DIRECTION('',(1.,0.,0.));
#199=DIRECTION('',(0.,0.,1.));
#200=DIRECTION('',(1.,0.,0.));
#201=DIRECTION('',(-1.,0.,0.));
#202=DIRECTION('',(0.,-1.,0.));
#203=DIRECTION('',(0.,0.,-1.));
#204=DIRECTION('',(-1.,0.,0.));
#205=DIRECTION('',(0.,0.,1.));
#206=DIRECTION('',(1.,0.,0.));
#207=DIRECTION('',(0.,0.,1.));
#208=DIRECTION('',(1.,0.,0.));
#209=DIRECTION('',(0.,0.,-1.));
#210=DIRECTION('',(-1.,0.,0.));
#211=CARTESIAN_POINT('',(0.,0.,0.));
#212=CARTESIAN_POINT('',(0.0432222016737726,0.00116405745722356,0.00480552686164909));
#213=CARTESIAN_POINT('',(0.044,1.53822023264534E-17,0.00230552686164909));
#214=CARTESIAN_POINT('',(0.0428560584623767,0.00171202949735955,0.000408067307753219));
#215=CARTESIAN_POINT('',(0.0428560584623767,0.00171202949735955,0.00420298641554496));
#216=CARTESIAN_POINT('',(0.044,1.53822023264534E-17,-0.0019415579366982));
#217=CARTESIAN_POINT('',(0.0427438823586848,0.00187991290057818,0.00480552686164909));
#218=CARTESIAN_POINT('',(0.0432222016737726,0.00116405745722356,0.00480552686164909));
#219=CARTESIAN_POINT('',(0.0413332628815059,0.00399105413905222,0.00480552686164909));
#220=CARTESIAN_POINT('',(0.0413332628815059,0.00399105413905222,0.00480552686164909));
#221=CARTESIAN_POINT('',(0.0413332628815059,0.00399105413905222,-0.000194473138350912));
#222=CARTESIAN_POINT('',(0.0432222016737726,0.00116405745722356,-0.000194473138350912));
#223=CARTESIAN_POINT('',(0.0427438823586848,0.00187991290057818,-0.000194473138350912));
#224=CARTESIAN_POINT('',(0.044,1.53822023264534E-17,0.00655261165999644));
#225=CARTESIAN_POINT('',(0.0432222016737726,-0.00116405745722356,0.00480552686164909));
#226=CARTESIAN_POINT('',(0.0432222016737726,-0.00116405745722356,0.00480552686164909));
#227=CARTESIAN_POINT('',(0.0427438823586848,-0.00187991290057815,0.00480552686164909));
#228=CARTESIAN_POINT('',(0.0413332628815059,-0.00399105413905222,0.00480552686164909));
#229=CARTESIAN_POINT('',(0.044,1.05633986975884E-17,-0.0019415579366982));
#230=CARTESIAN_POINT('',(0.0428560584623767,-0.00171202949735952,0.00420298641554496));
#231=CARTESIAN_POINT('',(0.044,1.05633986975884E-17,0.00230552686164909));
#232=CARTESIAN_POINT('',(0.0428560584623767,-0.00171202949735952,0.000408067307753218));
#233=CARTESIAN_POINT('',(0.044,1.05633986975884E-17,0.00655261165999644));
#234=CARTESIAN_POINT('',(0.0427438823586848,-0.00187991290057815,-0.000194473138350912));
#235=CARTESIAN_POINT('',(0.0432222016737726,-0.00116405745722356,-0.000194473138350912));
#236=CARTESIAN_POINT('',(0.0413332628815059,-0.00399105413905222,-0.000194473138350912));
#237=CARTESIAN_POINT('',(0.0413332628815059,-0.00399105413905222,0.00480552686164909));
#238=CARTESIAN_POINT('',(0.044,3.41832359058151E-19,0.00480552686164909));
#239=CARTESIAN_POINT('',(0.044,3.41832359058151E-19,-0.000194473138350912));
#240=CARTESIAN_POINT('',(0.044,3.41832359058151E-19,0.00480552686164909));
#241=CARTESIAN_POINT('',(0.044,0.,0.00480552686164909));
#242=CARTESIAN_POINT('',(0.044,2.04419461367617E-17,0.00480552686164909));
#243=CARTESIAN_POINT('',(0.044,0.,-0.000194473138350912));
#244=CARTESIAN_POINT('',(0.044,2.04419461367617E-17,-0.000194473138350912));
#245=CARTESIAN_POINT('',(0.044,2.04419461367617E-17,0.00230552686164909));
#246=CARTESIAN_POINT('',(0.044,2.04419461367617E-17,0.00420298641554496));
#247=CARTESIAN_POINT('',(0.044,2.04419461367617E-17,0.000408067307753218));
#248=CARTESIAN_POINT('',(0.044,2.04419461367617E-17,0.00480552686164909));
#249=CARTESIAN_POINT('',(0.044,2.04419461367617E-17,0.000408067307753218));
#250=MECHANICAL_DESIGN_GEOMETRIC_PRESENTATION_REPRESENTATION('',(#139),
#251);
#251=(
GEOMETRIC_REPRESENTATION_CONTEXT(3)
GLOBAL_UNCERTAINTY_ASSIGNED_CONTEXT((#252))
GLOBAL_UNIT_ASSIGNED_CONTEXT((#255,#254,#253))
REPRESENTATION_CONTEXT('TailOne','TOP_LEVEL_ASSEMBLY_PART')
);
#252=UNCERTAINTY_MEASURE_WITH_UNIT(LENGTH_MEASURE(1.E-8),#255,
'DISTANCE_ACCURACY_VALUE','Maximum Tolerance applied to model');
#253=(
NAMED_UNIT(*)
SI_UNIT($,.STERADIAN.)
SOLID_ANGLE_UNIT()
);
#254=(
NAMED_UNIT(*)
PLANE_ANGLE_UNIT()
SI_UNIT($,.RADIAN.)
);
#255=(
LENGTH_UNIT()
NAMED_UNIT(*)
SI_UNIT($,.METRE.)
);
#256=PRODUCT_DEFINITION_SHAPE('','',#257);
#257=PRODUCT_DEFINITION('','',#259,#258);
#258=PRODUCT_DEFINITION_CONTEXT('',#265,'design');
#259=PRODUCT_DEFINITION_FORMATION_WITH_SPECIFIED_SOURCE('','',#261,
 .NOT_KNOWN.);
#260=PRODUCT_RELATED_PRODUCT_CATEGORY('','',(#261));
#261=PRODUCT('TailOne','TailOne','TailOne',(#263));
#262=PRODUCT_CATEGORY('','');
#263=PRODUCT_CONTEXT('',#265,'mechanical');
#264=APPLICATION_PROTOCOL_DEFINITION('international standard',
'ap242_managed_model_based_3d_engineering',2020,#265);
#265=APPLICATION_CONTEXT('managed model based 3d engineering');
ENDSEC;
END-ISO-10303-21;
