ISO-10303-21;
HEADER;
/* Generated by software containing ST-Developer
 * from STEP Tools, Inc. (www.steptools.com) 
 */
/* OPTION: using custom renumber hook */

FILE_DESCRIPTION(
/* description */ ('STEP AP242 Edition 2',
'CAx-IF Rec.Pracs.---Representation and Presentation of Product Manufa
cturing Information (PMI)---4.0---2014-10-13',
'CAx-IF Rec.Pracs.---3D Tessellated Geometry---0.4---2014-09-14','2;1',
'CAx-IF Rec.Pracs.---User Defined Attributes---1.5---2016-08-15'),
/* implementation_level */ '2;1');

FILE_NAME(
/* name */ '6977fa0e3cb6d4ce0c39ea58',
/* time_stamp */ '2026-01-26T23:34:38Z',
/* author */ (''),
/* organization */ (''),
/* preprocessor_version */ 'ST-DEVELOPER v20',
/* originating_system */ 'ONSHAPE BY PTC INC, 1.209',
/* authorisation */ '  ');

FILE_SCHEMA (('AP242_MANAGED_MODEL_BASED_3D_ENGINEERING_MIM_LF { 1 0 10303 442 3 1 4 }'));
ENDSEC;

DATA;
#10=SHAPE_REPRESENTATION_RELATIONSHIP('','',#561,#11);
#11=ADVANCED_BREP_SHAPE_REPRESENTATION('',(#559),#935);
#12=CONICAL_SURFACE('',#593,0.00226095202129195,0.323340231192535);
#13=CONICAL_SURFACE('',#594,0.00205904036903837,0.323340231192533);
#14=SPHERICAL_SURFACE('',#590,0.00280000000000005);
#15=CYLINDRICAL_SURFACE('',#574,0.0048);
#16=CYLINDRICAL_SURFACE('',#576,0.0048);
#17=CYLINDRICAL_SURFACE('',#605,0.01);
#18=CYLINDRICAL_SURFACE('',#606,0.01);
#19=CYLINDRICAL_SURFACE('',#607,0.01);
#20=CYLINDRICAL_SURFACE('',#608,0.01);
#21=CYLINDRICAL_SURFACE('',#609,0.001);
#22=CYLINDRICAL_SURFACE('',#610,0.001);
#23=CIRCLE('',#565,0.0048);
#24=CIRCLE('',#566,0.00226095202129195);
#25=CIRCLE('',#567,0.0048);
#26=CIRCLE('',#568,0.01);
#27=CIRCLE('',#569,0.01);
#28=CIRCLE('',#570,0.001);
#29=CIRCLE('',#571,0.001);
#30=CIRCLE('',#572,0.01);
#31=CIRCLE('',#573,0.01);
#32=CIRCLE('',#575,0.0048);
#33=CIRCLE('',#577,0.0048);
#34=CIRCLE('',#579,0.00280000000000005);
#35=CIRCLE('',#581,0.00280000000000005);
#36=CIRCLE('',#583,0.01);
#37=CIRCLE('',#584,0.001);
#38=CIRCLE('',#585,0.001);
#39=CIRCLE('',#586,0.01);
#40=CIRCLE('',#587,0.01);
#41=CIRCLE('',#588,0.00226095202129195);
#42=CIRCLE('',#589,0.01);
#43=CIRCLE('',#591,0.00205904036903837);
#44=CIRCLE('',#592,0.00205904036903837);
#45=ORIENTED_EDGE('',*,*,#201,.F.);
#46=ORIENTED_EDGE('',*,*,#202,.T.);
#47=ORIENTED_EDGE('',*,*,#203,.F.);
#48=ORIENTED_EDGE('',*,*,#204,.T.);
#49=ORIENTED_EDGE('',*,*,#205,.T.);
#50=ORIENTED_EDGE('',*,*,#206,.F.);
#51=ORIENTED_EDGE('',*,*,#207,.T.);
#52=ORIENTED_EDGE('',*,*,#208,.T.);
#53=ORIENTED_EDGE('',*,*,#209,.T.);
#54=ORIENTED_EDGE('',*,*,#210,.T.);
#55=ORIENTED_EDGE('',*,*,#211,.T.);
#56=ORIENTED_EDGE('',*,*,#212,.T.);
#57=ORIENTED_EDGE('',*,*,#213,.T.);
#58=ORIENTED_EDGE('',*,*,#214,.T.);
#59=ORIENTED_EDGE('',*,*,#215,.T.);
#60=ORIENTED_EDGE('',*,*,#216,.T.);
#61=ORIENTED_EDGE('',*,*,#217,.T.);
#62=ORIENTED_EDGE('',*,*,#218,.F.);
#63=ORIENTED_EDGE('',*,*,#219,.T.);
#64=ORIENTED_EDGE('',*,*,#220,.F.);
#65=ORIENTED_EDGE('',*,*,#221,.F.);
#66=ORIENTED_EDGE('',*,*,#222,.T.);
#67=ORIENTED_EDGE('',*,*,#223,.F.);
#68=ORIENTED_EDGE('',*,*,#224,.T.);
#69=ORIENTED_EDGE('',*,*,#225,.T.);
#70=ORIENTED_EDGE('',*,*,#226,.T.);
#71=ORIENTED_EDGE('',*,*,#202,.F.);
#72=ORIENTED_EDGE('',*,*,#227,.F.);
#73=ORIENTED_EDGE('',*,*,#228,.F.);
#74=ORIENTED_EDGE('',*,*,#209,.F.);
#75=ORIENTED_EDGE('',*,*,#229,.T.);
#76=ORIENTED_EDGE('',*,*,#230,.T.);
#77=ORIENTED_EDGE('',*,*,#231,.T.);
#78=ORIENTED_EDGE('',*,*,#232,.T.);
#79=ORIENTED_EDGE('',*,*,#233,.F.);
#80=ORIENTED_EDGE('',*,*,#205,.F.);
#81=ORIENTED_EDGE('',*,*,#234,.T.);
#82=ORIENTED_EDGE('',*,*,#235,.T.);
#83=ORIENTED_EDGE('',*,*,#206,.T.);
#84=ORIENTED_EDGE('',*,*,#233,.T.);
#85=ORIENTED_EDGE('',*,*,#236,.F.);
#86=ORIENTED_EDGE('',*,*,#237,.T.);
#87=ORIENTED_EDGE('',*,*,#208,.F.);
#88=ORIENTED_EDGE('',*,*,#238,.T.);
#89=ORIENTED_EDGE('',*,*,#239,.F.);
#90=ORIENTED_EDGE('',*,*,#240,.T.);
#91=ORIENTED_EDGE('',*,*,#241,.T.);
#92=ORIENTED_EDGE('',*,*,#229,.F.);
#93=ORIENTED_EDGE('',*,*,#242,.T.);
#94=ORIENTED_EDGE('',*,*,#243,.T.);
#95=ORIENTED_EDGE('',*,*,#244,.T.);
#96=ORIENTED_EDGE('',*,*,#245,.T.);
#97=ORIENTED_EDGE('',*,*,#246,.T.);
#98=ORIENTED_EDGE('',*,*,#247,.T.);
#99=ORIENTED_EDGE('',*,*,#248,.F.);
#100=ORIENTED_EDGE('',*,*,#249,.T.);
#101=ORIENTED_EDGE('',*,*,#250,.F.);
#102=ORIENTED_EDGE('',*,*,#251,.F.);
#103=ORIENTED_EDGE('',*,*,#252,.T.);
#104=ORIENTED_EDGE('',*,*,#253,.F.);
#105=ORIENTED_EDGE('',*,*,#254,.T.);
#106=ORIENTED_EDGE('',*,*,#255,.F.);
#107=ORIENTED_EDGE('',*,*,#230,.F.);
#108=ORIENTED_EDGE('',*,*,#241,.F.);
#109=ORIENTED_EDGE('',*,*,#256,.T.);
#110=ORIENTED_EDGE('',*,*,#236,.T.);
#111=ORIENTED_EDGE('',*,*,#232,.F.);
#112=ORIENTED_EDGE('',*,*,#257,.F.);
#113=ORIENTED_EDGE('',*,*,#258,.T.);
#114=ORIENTED_EDGE('',*,*,#239,.T.);
#115=ORIENTED_EDGE('',*,*,#259,.T.);
#116=ORIENTED_EDGE('',*,*,#234,.F.);
#117=ORIENTED_EDGE('',*,*,#260,.T.);
#118=ORIENTED_EDGE('',*,*,#235,.F.);
#119=ORIENTED_EDGE('',*,*,#259,.F.);
#120=ORIENTED_EDGE('',*,*,#238,.F.);
#121=ORIENTED_EDGE('',*,*,#207,.F.);
#122=ORIENTED_EDGE('',*,*,#237,.F.);
#123=ORIENTED_EDGE('',*,*,#256,.F.);
#124=ORIENTED_EDGE('',*,*,#240,.F.);
#125=ORIENTED_EDGE('',*,*,#260,.F.);
#126=ORIENTED_EDGE('',*,*,#255,.T.);
#127=ORIENTED_EDGE('',*,*,#261,.T.);
#128=ORIENTED_EDGE('',*,*,#210,.F.);
#129=ORIENTED_EDGE('',*,*,#228,.T.);
#130=ORIENTED_EDGE('',*,*,#253,.T.);
#131=ORIENTED_EDGE('',*,*,#262,.T.);
#132=ORIENTED_EDGE('',*,*,#212,.F.);
#133=ORIENTED_EDGE('',*,*,#263,.T.);
#134=ORIENTED_EDGE('',*,*,#214,.F.);
#135=ORIENTED_EDGE('',*,*,#264,.T.);
#136=ORIENTED_EDGE('',*,*,#251,.T.);
#137=ORIENTED_EDGE('',*,*,#265,.F.);
#138=ORIENTED_EDGE('',*,*,#250,.T.);
#139=ORIENTED_EDGE('',*,*,#266,.T.);
#140=ORIENTED_EDGE('',*,*,#215,.F.);
#141=ORIENTED_EDGE('',*,*,#265,.T.);
#142=ORIENTED_EDGE('',*,*,#217,.F.);
#143=ORIENTED_EDGE('',*,*,#267,.T.);
#144=ORIENTED_EDGE('',*,*,#248,.T.);
#145=ORIENTED_EDGE('',*,*,#268,.F.);
#146=ORIENTED_EDGE('',*,*,#247,.F.);
#147=ORIENTED_EDGE('',*,*,#269,.T.);
#148=ORIENTED_EDGE('',*,*,#218,.T.);
#149=ORIENTED_EDGE('',*,*,#268,.T.);
#150=ORIENTED_EDGE('',*,*,#220,.T.);
#151=ORIENTED_EDGE('',*,*,#270,.T.);
#152=ORIENTED_EDGE('',*,*,#245,.F.);
#153=ORIENTED_EDGE('',*,*,#271,.F.);
#154=ORIENTED_EDGE('',*,*,#244,.F.);
#155=ORIENTED_EDGE('',*,*,#272,.T.);
#156=ORIENTED_EDGE('',*,*,#221,.T.);
#157=ORIENTED_EDGE('',*,*,#271,.T.);
#158=ORIENTED_EDGE('',*,*,#223,.T.);
#159=ORIENTED_EDGE('',*,*,#273,.T.);
#160=ORIENTED_EDGE('',*,*,#242,.F.);
#161=ORIENTED_EDGE('',*,*,#274,.T.);
#162=ORIENTED_EDGE('',*,*,#204,.F.);
#163=ORIENTED_EDGE('',*,*,#275,.T.);
#164=ORIENTED_EDGE('',*,*,#257,.T.);
#165=ORIENTED_EDGE('',*,*,#231,.F.);
#166=ORIENTED_EDGE('',*,*,#222,.F.);
#167=ORIENTED_EDGE('',*,*,#272,.F.);
#168=ORIENTED_EDGE('',*,*,#243,.F.);
#169=ORIENTED_EDGE('',*,*,#273,.F.);
#170=ORIENTED_EDGE('',*,*,#213,.F.);
#171=ORIENTED_EDGE('',*,*,#262,.F.);
#172=ORIENTED_EDGE('',*,*,#252,.F.);
#173=ORIENTED_EDGE('',*,*,#264,.F.);
#174=ORIENTED_EDGE('',*,*,#224,.F.);
#175=ORIENTED_EDGE('',*,*,#274,.F.);
#176=ORIENTED_EDGE('',*,*,#258,.F.);
#177=ORIENTED_EDGE('',*,*,#275,.F.);
#178=ORIENTED_EDGE('',*,*,#211,.F.);
#179=ORIENTED_EDGE('',*,*,#261,.F.);
#180=ORIENTED_EDGE('',*,*,#254,.F.);
#181=ORIENTED_EDGE('',*,*,#263,.F.);
#182=ORIENTED_EDGE('',*,*,#219,.F.);
#183=ORIENTED_EDGE('',*,*,#269,.F.);
#184=ORIENTED_EDGE('',*,*,#246,.F.);
#185=ORIENTED_EDGE('',*,*,#270,.F.);
#186=ORIENTED_EDGE('',*,*,#216,.F.);
#187=ORIENTED_EDGE('',*,*,#266,.F.);
#188=ORIENTED_EDGE('',*,*,#249,.F.);
#189=ORIENTED_EDGE('',*,*,#267,.F.);
#190=ORIENTED_EDGE('',*,*,#276,.F.);
#191=ORIENTED_EDGE('',*,*,#277,.F.);
#192=ORIENTED_EDGE('',*,*,#225,.F.);
#193=ORIENTED_EDGE('',*,*,#277,.T.);
#194=ORIENTED_EDGE('',*,*,#278,.T.);
#195=ORIENTED_EDGE('',*,*,#203,.T.);
#196=ORIENTED_EDGE('',*,*,#226,.F.);
#197=ORIENTED_EDGE('',*,*,#276,.T.);
#198=ORIENTED_EDGE('',*,*,#227,.T.);
#199=ORIENTED_EDGE('',*,*,#201,.T.);
#200=ORIENTED_EDGE('',*,*,#278,.F.);
#201=EDGE_CURVE('',#279,#280,#331,.T.);
#202=EDGE_CURVE('',#279,#281,#332,.T.);
#203=EDGE_CURVE('',#280,#281,#333,.T.);
#204=EDGE_CURVE('',#282,#283,#334,.T.);
#205=EDGE_CURVE('',#283,#284,#23,.T.);
#206=EDGE_CURVE('',#285,#284,#335,.T.);
#207=EDGE_CURVE('',#285,#286,#24,.F.);
#208=EDGE_CURVE('',#286,#287,#336,.T.);
#209=EDGE_CURVE('',#287,#288,#25,.T.);
#210=EDGE_CURVE('',#288,#289,#337,.T.);
#211=EDGE_CURVE('',#289,#290,#26,.F.);
#212=EDGE_CURVE('',#290,#291,#338,.T.);
#213=EDGE_CURVE('',#291,#292,#27,.T.);
#214=EDGE_CURVE('',#292,#293,#339,.T.);
#215=EDGE_CURVE('',#293,#294,#340,.T.);
#216=EDGE_CURVE('',#294,#295,#28,.F.);
#217=EDGE_CURVE('',#295,#296,#341,.T.);
#218=EDGE_CURVE('',#297,#296,#342,.T.);
#219=EDGE_CURVE('',#297,#298,#29,.F.);
#220=EDGE_CURVE('',#299,#298,#343,.T.);
#221=EDGE_CURVE('',#300,#299,#344,.T.);
#222=EDGE_CURVE('',#300,#301,#30,.T.);
#223=EDGE_CURVE('',#302,#301,#345,.T.);
#224=EDGE_CURVE('',#302,#282,#31,.F.);
#225=EDGE_CURVE('',#303,#304,#346,.T.);
#226=EDGE_CURVE('',#304,#281,#347,.T.);
#227=EDGE_CURVE('',#303,#279,#348,.T.);
#228=EDGE_CURVE('',#288,#305,#349,.T.);
#229=EDGE_CURVE('',#287,#306,#350,.T.);
#230=EDGE_CURVE('',#306,#305,#32,.T.);
#231=EDGE_CURVE('',#283,#307,#351,.T.);
#232=EDGE_CURVE('',#307,#308,#33,.T.);
#233=EDGE_CURVE('',#284,#308,#352,.T.);
#234=EDGE_CURVE('',#309,#310,#34,.F.);
#235=EDGE_CURVE('',#310,#285,#353,.F.);
#236=EDGE_CURVE('',#311,#308,#354,.T.);
#237=EDGE_CURVE('',#311,#309,#355,.F.);
#238=EDGE_CURVE('',#286,#312,#356,.T.);
#239=EDGE_CURVE('',#313,#312,#35,.F.);
#240=EDGE_CURVE('',#313,#314,#357,.T.);
#241=EDGE_CURVE('',#314,#306,#358,.T.);
#242=EDGE_CURVE('',#315,#316,#359,.T.);
#243=EDGE_CURVE('',#316,#317,#36,.F.);
#244=EDGE_CURVE('',#317,#318,#360,.T.);
#245=EDGE_CURVE('',#318,#319,#361,.T.);
#246=EDGE_CURVE('',#319,#320,#37,.T.);
#247=EDGE_CURVE('',#320,#321,#362,.T.);
#248=EDGE_CURVE('',#322,#321,#363,.T.);
#249=EDGE_CURVE('',#322,#323,#38,.T.);
#250=EDGE_CURVE('',#324,#323,#364,.T.);
#251=EDGE_CURVE('',#325,#324,#365,.T.);
#252=EDGE_CURVE('',#325,#326,#39,.F.);
#253=EDGE_CURVE('',#327,#326,#366,.T.);
#254=EDGE_CURVE('',#327,#328,#40,.T.);
#255=EDGE_CURVE('',#305,#328,#367,.T.);
#256=EDGE_CURVE('',#314,#311,#41,.T.);
#257=EDGE_CURVE('',#329,#307,#368,.T.);
#258=EDGE_CURVE('',#329,#315,#42,.T.);
#259=EDGE_CURVE('',#312,#310,#43,.F.);
#260=EDGE_CURVE('',#309,#313,#44,.F.);
#261=EDGE_CURVE('',#328,#289,#369,.F.);
#262=EDGE_CURVE('',#326,#291,#370,.F.);
#263=EDGE_CURVE('',#290,#327,#371,.T.);
#264=EDGE_CURVE('',#292,#325,#372,.T.);
#265=EDGE_CURVE('',#293,#324,#373,.T.);
#266=EDGE_CURVE('',#323,#294,#374,.F.);
#267=EDGE_CURVE('',#295,#322,#375,.T.);
#268=EDGE_CURVE('',#296,#321,#376,.T.);
#269=EDGE_CURVE('',#320,#297,#377,.F.);
#270=EDGE_CURVE('',#298,#319,#378,.T.);
#271=EDGE_CURVE('',#299,#318,#379,.T.);
#272=EDGE_CURVE('',#317,#300,#380,.F.);
#273=EDGE_CURVE('',#301,#316,#381,.T.);
#274=EDGE_CURVE('',#315,#302,#382,.F.);
#275=EDGE_CURVE('',#282,#329,#383,.T.);
#276=EDGE_CURVE('',#330,#303,#384,.T.);
#277=EDGE_CURVE('',#304,#330,#385,.T.);
#278=EDGE_CURVE('',#330,#280,#386,.T.);
#279=VERTEX_POINT('',#777);
#280=VERTEX_POINT('',#778);
#281=VERTEX_POINT('',#780);
#282=VERTEX_POINT('',#784);
#283=VERTEX_POINT('',#785);
#284=VERTEX_POINT('',#787);
#285=VERTEX_POINT('',#789);
#286=VERTEX_POINT('',#791);
#287=VERTEX_POINT('',#793);
#288=VERTEX_POINT('',#795);
#289=VERTEX_POINT('',#797);
#290=VERTEX_POINT('',#799);
#291=VERTEX_POINT('',#801);
#292=VERTEX_POINT('',#803);
#293=VERTEX_POINT('',#805);
#294=VERTEX_POINT('',#807);
#295=VERTEX_POINT('',#809);
#296=VERTEX_POINT('',#811);
#297=VERTEX_POINT('',#813);
#298=VERTEX_POINT('',#815);
#299=VERTEX_POINT('',#817);
#300=VERTEX_POINT('',#819);
#301=VERTEX_POINT('',#821);
#302=VERTEX_POINT('',#823);
#303=VERTEX_POINT('',#826);
#304=VERTEX_POINT('',#827);
#305=VERTEX_POINT('',#832);
#306=VERTEX_POINT('',#834);
#307=VERTEX_POINT('',#838);
#308=VERTEX_POINT('',#840);
#309=VERTEX_POINT('',#844);
#310=VERTEX_POINT('',#845);
#311=VERTEX_POINT('',#848);
#312=VERTEX_POINT('',#852);
#313=VERTEX_POINT('',#854);
#314=VERTEX_POINT('',#856);
#315=VERTEX_POINT('',#860);
#316=VERTEX_POINT('',#861);
#317=VERTEX_POINT('',#863);
#318=VERTEX_POINT('',#865);
#319=VERTEX_POINT('',#867);
#320=VERTEX_POINT('',#869);
#321=VERTEX_POINT('',#871);
#322=VERTEX_POINT('',#873);
#323=VERTEX_POINT('',#875);
#324=VERTEX_POINT('',#877);
#325=VERTEX_POINT('',#879);
#326=VERTEX_POINT('',#881);
#327=VERTEX_POINT('',#883);
#328=VERTEX_POINT('',#885);
#329=VERTEX_POINT('',#889);
#330=VERTEX_POINT('',#929);
#331=LINE('',#776,#387);
#332=LINE('',#779,#388);
#333=LINE('',#781,#389);
#334=LINE('',#783,#390);
#335=LINE('',#788,#391);
#336=LINE('',#792,#392);
#337=LINE('',#796,#393);
#338=LINE('',#800,#394);
#339=LINE('',#804,#395);
#340=LINE('',#806,#396);
#341=LINE('',#810,#397);
#342=LINE('',#812,#398);
#343=LINE('',#816,#399);
#344=LINE('',#818,#400);
#345=LINE('',#822,#401);
#346=LINE('',#825,#402);
#347=LINE('',#828,#403);
#348=LINE('',#829,#404);
#349=LINE('',#831,#405);
#350=LINE('',#833,#406);
#351=LINE('',#837,#407);
#352=LINE('',#841,#408);
#353=LINE('',#846,#409);
#354=LINE('',#847,#410);
#355=LINE('',#849,#411);
#356=LINE('',#851,#412);
#357=LINE('',#855,#413);
#358=LINE('',#857,#414);
#359=LINE('',#859,#415);
#360=LINE('',#864,#416);
#361=LINE('',#866,#417);
#362=LINE('',#870,#418);
#363=LINE('',#872,#419);
#364=LINE('',#876,#420);
#365=LINE('',#878,#421);
#366=LINE('',#882,#422);
#367=LINE('',#886,#423);
#368=LINE('',#888,#424);
#369=LINE('',#897,#425);
#370=LINE('',#899,#426);
#371=LINE('',#900,#427);
#372=LINE('',#902,#428);
#373=LINE('',#903,#429);
#374=LINE('',#905,#430);
#375=LINE('',#907,#431);
#376=LINE('',#908,#432);
#377=LINE('',#910,#433);
#378=LINE('',#912,#434);
#379=LINE('',#913,#435);
#380=LINE('',#915,#436);
#381=LINE('',#917,#437);
#382=LINE('',#918,#438);
#383=LINE('',#920,#439);
#384=LINE('',#928,#440);
#385=LINE('',#930,#441);
#386=LINE('',#932,#442);
#387=VECTOR('',#618,1.);
#388=VECTOR('',#619,1.);
#389=VECTOR('',#620,1.);
#390=VECTOR('',#623,1.);
#391=VECTOR('',#626,1.);
#392=VECTOR('',#629,1.);
#393=VECTOR('',#632,1.);
#394=VECTOR('',#635,1.);
#395=VECTOR('',#638,1.);
#396=VECTOR('',#639,1.);
#397=VECTOR('',#642,1.);
#398=VECTOR('',#643,1.);
#399=VECTOR('',#646,1.);
#400=VECTOR('',#647,1.);
#401=VECTOR('',#650,1.);
#402=VECTOR('',#653,1.);
#403=VECTOR('',#654,1.);
#404=VECTOR('',#655,1.);
#405=VECTOR('',#658,1.);
#406=VECTOR('',#659,1.);
#407=VECTOR('',#664,1.);
#408=VECTOR('',#667,1.);
#409=VECTOR('',#672,1.);
#410=VECTOR('',#673,1.);
#411=VECTOR('',#674,1.);
#412=VECTOR('',#677,1.);
#413=VECTOR('',#680,1.);
#414=VECTOR('',#681,1.);
#415=VECTOR('',#684,1.);
#416=VECTOR('',#687,1.);
#417=VECTOR('',#688,1.);
#418=VECTOR('',#691,1.);
#419=VECTOR('',#692,1.);
#420=VECTOR('',#695,1.);
#421=VECTOR('',#696,1.);
#422=VECTOR('',#699,1.);
#423=VECTOR('',#702,1.);
#424=VECTOR('',#705,1.);
#425=VECTOR('',#720,1.);
#426=VECTOR('',#723,1.);
#427=VECTOR('',#724,1.);
#428=VECTOR('',#727,1.);
#429=VECTOR('',#728,1.);
#430=VECTOR('',#731,1.);
#431=VECTOR('',#734,1.);
#432=VECTOR('',#735,1.);
#433=VECTOR('',#738,1.);
#434=VECTOR('',#741,1.);
#435=VECTOR('',#742,1.);
#436=VECTOR('',#745,1.);
#437=VECTOR('',#748,1.);
#438=VECTOR('',#749,1.);
#439=VECTOR('',#752,1.);
#440=VECTOR('',#767,1.);
#441=VECTOR('',#768,1.);
#442=VECTOR('',#771,1.);
#443=EDGE_LOOP('',(#45,#46,#47));
#444=EDGE_LOOP('',(#48,#49,#50,#51,#52,#53,#54,#55,#56,#57,#58,#59,#60,
#61,#62,#63,#64,#65,#66,#67,#68));
#445=EDGE_LOOP('',(#69,#70,#71,#72));
#446=EDGE_LOOP('',(#73,#74,#75,#76));
#447=EDGE_LOOP('',(#77,#78,#79,#80));
#448=EDGE_LOOP('',(#81,#82,#83,#84,#85,#86));
#449=EDGE_LOOP('',(#87,#88,#89,#90,#91,#92));
#450=EDGE_LOOP('',(#93,#94,#95,#96,#97,#98,#99,#100,#101,#102,#103,#104,
#105,#106,#107,#108,#109,#110,#111,#112,#113));
#451=EDGE_LOOP('',(#114,#115,#116,#117));
#452=EDGE_LOOP('',(#118,#119,#120,#121));
#453=EDGE_LOOP('',(#122,#123,#124,#125));
#454=EDGE_LOOP('',(#126,#127,#128,#129));
#455=EDGE_LOOP('',(#130,#131,#132,#133));
#456=EDGE_LOOP('',(#134,#135,#136,#137));
#457=EDGE_LOOP('',(#138,#139,#140,#141));
#458=EDGE_LOOP('',(#142,#143,#144,#145));
#459=EDGE_LOOP('',(#146,#147,#148,#149));
#460=EDGE_LOOP('',(#150,#151,#152,#153));
#461=EDGE_LOOP('',(#154,#155,#156,#157));
#462=EDGE_LOOP('',(#158,#159,#160,#161));
#463=EDGE_LOOP('',(#162,#163,#164,#165));
#464=EDGE_LOOP('',(#166,#167,#168,#169));
#465=EDGE_LOOP('',(#170,#171,#172,#173));
#466=EDGE_LOOP('',(#174,#175,#176,#177));
#467=EDGE_LOOP('',(#178,#179,#180,#181));
#468=EDGE_LOOP('',(#182,#183,#184,#185));
#469=EDGE_LOOP('',(#186,#187,#188,#189));
#470=EDGE_LOOP('',(#190,#191,#192));
#471=EDGE_LOOP('',(#193,#194,#195,#196));
#472=EDGE_LOOP('',(#197,#198,#199,#200));
#473=FACE_BOUND('',#443,.T.);
#474=FACE_BOUND('',#444,.T.);
#475=FACE_BOUND('',#445,.T.);
#476=FACE_BOUND('',#446,.T.);
#477=FACE_BOUND('',#447,.T.);
#478=FACE_BOUND('',#448,.T.);
#479=FACE_BOUND('',#449,.T.);
#480=FACE_BOUND('',#450,.T.);
#481=FACE_BOUND('',#451,.T.);
#482=FACE_BOUND('',#452,.T.);
#483=FACE_BOUND('',#453,.T.);
#484=FACE_BOUND('',#454,.T.);
#485=FACE_BOUND('',#455,.T.);
#486=FACE_BOUND('',#456,.T.);
#487=FACE_BOUND('',#457,.T.);
#488=FACE_BOUND('',#458,.T.);
#489=FACE_BOUND('',#459,.T.);
#490=FACE_BOUND('',#460,.T.);
#491=FACE_BOUND('',#461,.T.);
#492=FACE_BOUND('',#462,.T.);
#493=FACE_BOUND('',#463,.T.);
#494=FACE_BOUND('',#464,.T.);
#495=FACE_BOUND('',#465,.T.);
#496=FACE_BOUND('',#466,.T.);
#497=FACE_BOUND('',#467,.T.);
#498=FACE_BOUND('',#468,.T.);
#499=FACE_BOUND('',#469,.T.);
#500=FACE_BOUND('',#470,.T.);
#501=FACE_BOUND('',#471,.T.);
#502=FACE_BOUND('',#472,.T.);
#503=PLANE('',#563);
#504=PLANE('',#564);
#505=PLANE('',#578);
#506=PLANE('',#580);
#507=PLANE('',#582);
#508=PLANE('',#595);
#509=PLANE('',#596);
#510=PLANE('',#597);
#511=PLANE('',#598);
#512=PLANE('',#599);
#513=PLANE('',#600);
#514=PLANE('',#601);
#515=PLANE('',#602);
#516=PLANE('',#603);
#517=PLANE('',#604);
#518=PLANE('',#611);
#519=PLANE('',#612);
#520=PLANE('',#613);
#521=ADVANCED_FACE('',(#473),#503,.F.);
#522=ADVANCED_FACE('',(#474,#475),#504,.T.);
#523=ADVANCED_FACE('',(#476),#15,.T.);
#524=ADVANCED_FACE('',(#477),#16,.T.);
#525=ADVANCED_FACE('',(#478),#505,.T.);
#526=ADVANCED_FACE('',(#479),#506,.F.);
#527=ADVANCED_FACE('',(#480),#507,.F.);
#528=ADVANCED_FACE('',(#481),#14,.F.);
#529=ADVANCED_FACE('',(#482),#12,.F.);
#530=ADVANCED_FACE('',(#483),#13,.F.);
#531=ADVANCED_FACE('',(#484),#508,.F.);
#532=ADVANCED_FACE('',(#485),#509,.F.);
#533=ADVANCED_FACE('',(#486),#510,.F.);
#534=ADVANCED_FACE('',(#487),#511,.F.);
#535=ADVANCED_FACE('',(#488),#512,.F.);
#536=ADVANCED_FACE('',(#489),#513,.T.);
#537=ADVANCED_FACE('',(#490),#514,.T.);
#538=ADVANCED_FACE('',(#491),#515,.T.);
#539=ADVANCED_FACE('',(#492),#516,.T.);
#540=ADVANCED_FACE('',(#493),#517,.F.);
#541=ADVANCED_FACE('',(#494),#17,.T.);
#542=ADVANCED_FACE('',(#495),#18,.T.);
#543=ADVANCED_FACE('',(#496),#19,.F.);
#544=ADVANCED_FACE('',(#497),#20,.F.);
#545=ADVANCED_FACE('',(#498),#21,.F.);
#546=ADVANCED_FACE('',(#499),#22,.F.);
#547=ADVANCED_FACE('',(#500),#518,.T.);
#548=ADVANCED_FACE('',(#501),#519,.F.);
#549=ADVANCED_FACE('',(#502),#520,.F.);
#550=CLOSED_SHELL('',(#521,#522,#523,#524,#525,#526,#527,#528,#529,#530,
#531,#532,#533,#534,#535,#536,#537,#538,#539,#540,#541,#542,#543,#544,#545,
#546,#547,#548,#549));
#551=STYLED_ITEM('',(#552),#559);
#552=PRESENTATION_STYLE_ASSIGNMENT((#553));
#553=SURFACE_STYLE_USAGE(.BOTH.,#554);
#554=SURFACE_SIDE_STYLE('',(#555));
#555=SURFACE_STYLE_FILL_AREA(#556);
#556=FILL_AREA_STYLE('',(#557));
#557=FILL_AREA_STYLE_COLOUR('',#558);
#558=COLOUR_RGB('',0.207843137254902,0.207843137254902,0.207843137254902);
#559=MANIFOLD_SOLID_BREP('TailFour',#550);
#560=SHAPE_DEFINITION_REPRESENTATION(#940,#561);
#561=SHAPE_REPRESENTATION('TailFour',(#562),#935);
#562=AXIS2_PLACEMENT_3D('',#774,#614,#615);
#563=AXIS2_PLACEMENT_3D('',#775,#616,#617);
#564=AXIS2_PLACEMENT_3D('',#782,#621,#622);
#565=AXIS2_PLACEMENT_3D('',#786,#624,#625);
#566=AXIS2_PLACEMENT_3D('',#790,#627,#628);
#567=AXIS2_PLACEMENT_3D('',#794,#630,#631);
#568=AXIS2_PLACEMENT_3D('',#798,#633,#634);
#569=AXIS2_PLACEMENT_3D('',#802,#636,#637);
#570=AXIS2_PLACEMENT_3D('',#808,#640,#641);
#571=AXIS2_PLACEMENT_3D('',#814,#644,#645);
#572=AXIS2_PLACEMENT_3D('',#820,#648,#649);
#573=AXIS2_PLACEMENT_3D('',#824,#651,#652);
#574=AXIS2_PLACEMENT_3D('',#830,#656,#657);
#575=AXIS2_PLACEMENT_3D('',#835,#660,#661);
#576=AXIS2_PLACEMENT_3D('',#836,#662,#663);
#577=AXIS2_PLACEMENT_3D('',#839,#665,#666);
#578=AXIS2_PLACEMENT_3D('',#842,#668,#669);
#579=AXIS2_PLACEMENT_3D('',#843,#670,#671);
#580=AXIS2_PLACEMENT_3D('',#850,#675,#676);
#581=AXIS2_PLACEMENT_3D('',#853,#678,#679);
#582=AXIS2_PLACEMENT_3D('',#858,#682,#683);
#583=AXIS2_PLACEMENT_3D('',#862,#685,#686);
#584=AXIS2_PLACEMENT_3D('',#868,#689,#690);
#585=AXIS2_PLACEMENT_3D('',#874,#693,#694);
#586=AXIS2_PLACEMENT_3D('',#880,#697,#698);
#587=AXIS2_PLACEMENT_3D('',#884,#700,#701);
#588=AXIS2_PLACEMENT_3D('',#887,#703,#704);
#589=AXIS2_PLACEMENT_3D('',#890,#706,#707);
#590=AXIS2_PLACEMENT_3D('',#891,#708,#709);
#591=AXIS2_PLACEMENT_3D('',#892,#710,#711);
#592=AXIS2_PLACEMENT_3D('',#893,#712,#713);
#593=AXIS2_PLACEMENT_3D('',#894,#714,#715);
#594=AXIS2_PLACEMENT_3D('',#895,#716,#717);
#595=AXIS2_PLACEMENT_3D('',#896,#718,#719);
#596=AXIS2_PLACEMENT_3D('',#898,#721,#722);
#597=AXIS2_PLACEMENT_3D('',#901,#725,#726);
#598=AXIS2_PLACEMENT_3D('',#904,#729,#730);
#599=AXIS2_PLACEMENT_3D('',#906,#732,#733);
#600=AXIS2_PLACEMENT_3D('',#909,#736,#737);
#601=AXIS2_PLACEMENT_3D('',#911,#739,#740);
#602=AXIS2_PLACEMENT_3D('',#914,#743,#744);
#603=AXIS2_PLACEMENT_3D('',#916,#746,#747);
#604=AXIS2_PLACEMENT_3D('',#919,#750,#751);
#605=AXIS2_PLACEMENT_3D('',#921,#753,#754);
#606=AXIS2_PLACEMENT_3D('',#922,#755,#756);
#607=AXIS2_PLACEMENT_3D('',#923,#757,#758);
#608=AXIS2_PLACEMENT_3D('',#924,#759,#760);
#609=AXIS2_PLACEMENT_3D('',#925,#761,#762);
#610=AXIS2_PLACEMENT_3D('',#926,#763,#764);
#611=AXIS2_PLACEMENT_3D('',#927,#765,#766);
#612=AXIS2_PLACEMENT_3D('',#931,#769,#770);
#613=AXIS2_PLACEMENT_3D('',#933,#772,#773);
#614=DIRECTION('',(0.,0.,1.));
#615=DIRECTION('',(1.,0.,0.));
#616=DIRECTION('',(0.,1.,0.));
#617=DIRECTION('',(0.,0.,1.));
#618=DIRECTION('',(0.447213595499958,0.,0.894427190999916));
#619=DIRECTION('',(1.,0.,0.));
#620=DIRECTION('',(0.447213595499958,0.,-0.894427190999916));
#621=DIRECTION('',(0.,0.,1.));
#622=DIRECTION('',(1.,0.,0.));
#623=DIRECTION('',(-1.,-3.46944695195361E-16,0.));
#624=DIRECTION('',(0.,0.,1.));
#625=DIRECTION('',(1.,0.,0.));
#626=DIRECTION('',(-0.559192903470752,0.829037572555039,0.));
#627=DIRECTION('',(0.,0.,1.));
#628=DIRECTION('',(1.,0.,0.));
#629=DIRECTION('',(-0.559192903470744,-0.829037572555044,0.));
#630=DIRECTION('',(0.,0.,1.));
#631=DIRECTION('',(1.,0.,0.));
#632=DIRECTION('',(1.,3.46944695195361E-16,0.));
#633=DIRECTION('',(0.,0.,1.));
#634=DIRECTION('',(1.,0.,0.));
#635=DIRECTION('',(0.866025403784439,-0.5,0.));
#636=DIRECTION('',(0.,0.,1.));
#637=DIRECTION('',(1.,0.,0.));
#638=DIRECTION('',(1.,0.,0.));
#639=DIRECTION('',(-0.866025403784439,0.5,0.));
#640=DIRECTION('',(0.,0.,1.));
#641=DIRECTION('',(1.,0.,0.));
#642=DIRECTION('',(0.965925826289068,0.258819045102521,0.));
#643=DIRECTION('',(0.965925826289068,-0.258819045102521,0.));
#644=DIRECTION('',(0.,0.,1.));
#645=DIRECTION('',(1.,0.,0.));
#646=DIRECTION('',(-0.866025403784439,-0.5,0.));
#647=DIRECTION('',(1.,0.,0.));
#648=DIRECTION('',(0.,0.,1.));
#649=DIRECTION('',(1.,0.,0.));
#650=DIRECTION('',(0.866025403784439,0.5,0.));
#651=DIRECTION('',(0.,0.,1.));
#652=DIRECTION('',(1.,0.,0.));
#653=DIRECTION('',(1.,0.,0.));
#654=DIRECTION('',(0.,-1.,0.));
#655=DIRECTION('',(0.,-1.,0.));
#656=DIRECTION('',(0.,0.,-1.));
#657=DIRECTION('',(-1.,0.,0.));
#658=DIRECTION('',(0.,0.,-1.));
#659=DIRECTION('',(0.,0.,-1.));
#660=DIRECTION('',(0.,0.,1.));
#661=DIRECTION('',(1.,0.,0.));
#662=DIRECTION('',(0.,0.,-1.));
#663=DIRECTION('',(-1.,0.,0.));
#664=DIRECTION('',(0.,0.,-1.));
#665=DIRECTION('',(0.,0.,1.));
#666=DIRECTION('',(1.,0.,0.));
#667=DIRECTION('',(0.,0.,-1.));
#668=DIRECTION('',(-0.829037572555039,-0.559192903470751,0.));
#669=DIRECTION('',(0.559192903470751,-0.829037572555039,0.));
#670=DIRECTION('',(-0.829037572555039,-0.559192903470751,0.));
#671=DIRECTION('',(0.559192903470751,-0.829037572555039,0.));
#672=DIRECTION('',(0.17767541756803,-0.263414639150562,-0.94817939962499));
#673=DIRECTION('',(-0.559192903470752,0.829037572555039,0.));
#674=DIRECTION('',(-0.177675417568029,0.263414639150561,-0.94817939962499));
#675=DIRECTION('',(0.829037572555044,-0.559192903470744,0.));
#676=DIRECTION('',(0.559192903470744,0.829037572555044,0.));
#677=DIRECTION('',(0.177675417568028,0.263414639150563,-0.94817939962499));
#678=DIRECTION('',(0.829037572555044,-0.559192903470744,0.));
#679=DIRECTION('',(0.559192903470744,0.829037572555044,0.));
#680=DIRECTION('',(-0.177675417568027,-0.263414639150562,-0.94817939962499));
#681=DIRECTION('',(-0.559192903470744,-0.829037572555044,0.));
#682=DIRECTION('',(0.,0.,1.));
#683=DIRECTION('',(1.,0.,0.));
#684=DIRECTION('',(0.866025403784439,0.5,0.));
#685=DIRECTION('',(0.,0.,1.));
#686=DIRECTION('',(1.,0.,0.));
#687=DIRECTION('',(1.,0.,0.));
#688=DIRECTION('',(-0.866025403784439,-0.5,0.));
#689=DIRECTION('',(0.,0.,1.));
#690=DIRECTION('',(1.,0.,0.));
#691=DIRECTION('',(0.965925826289068,-0.258819045102521,0.));
#692=DIRECTION('',(0.965925826289068,0.258819045102521,0.));
#693=DIRECTION('',(0.,0.,1.));
#694=DIRECTION('',(1.,0.,0.));
#695=DIRECTION('',(-0.866025403784439,0.5,0.));
#696=DIRECTION('',(1.,0.,0.));
#697=DIRECTION('',(0.,0.,1.));
#698=DIRECTION('',(1.,0.,0.));
#699=DIRECTION('',(0.866025403784439,-0.5,0.));
#700=DIRECTION('',(0.,0.,1.));
#701=DIRECTION('',(1.,0.,0.));
#702=DIRECTION('',(1.,3.46944695195361E-16,0.));
#703=DIRECTION('',(0.,0.,1.));
#704=DIRECTION('',(1.,0.,0.));
#705=DIRECTION('',(-1.,-3.46944695195361E-16,0.));
#706=DIRECTION('',(0.,0.,1.));
#707=DIRECTION('',(1.,0.,0.));
#708=DIRECTION('',(-1.,0.,0.));
#709=DIRECTION('',(0.,1.,0.));
#710=DIRECTION('',(0.,0.,-1.));
#711=DIRECTION('',(-1.,0.,0.));
#712=DIRECTION('',(0.,0.,1.));
#713=DIRECTION('',(1.,0.,0.));
#714=DIRECTION('',(0.,0.,1.));
#715=DIRECTION('',(1.,0.,0.));
#716=DIRECTION('',(0.,0.,-1.));
#717=DIRECTION('',(-1.,0.,0.));
#718=DIRECTION('',(-3.46944695195361E-16,1.,0.));
#719=DIRECTION('',(-1.,-3.46944695195361E-16,0.));
#720=DIRECTION('',(0.,0.,-1.));
#721=DIRECTION('',(0.5,0.866025403784439,0.));
#722=DIRECTION('',(-0.866025403784439,0.5,0.));
#723=DIRECTION('',(0.,0.,-1.));
#724=DIRECTION('',(0.,0.,-1.));
#725=DIRECTION('',(0.,1.,0.));
#726=DIRECTION('',(0.,0.,1.));
#727=DIRECTION('',(0.,0.,-1.));
#728=DIRECTION('',(0.,0.,-1.));
#729=DIRECTION('',(-0.5,-0.866025403784439,0.));
#730=DIRECTION('',(0.866025403784439,-0.5,0.));
#731=DIRECTION('',(0.,0.,-1.));
#732=DIRECTION('',(-0.258819045102521,0.965925826289068,0.));
#733=DIRECTION('',(-0.965925826289068,-0.258819045102521,0.));
#734=DIRECTION('',(0.,0.,-1.));
#735=DIRECTION('',(0.,0.,-1.));
#736=DIRECTION('',(0.258819045102521,0.965925826289068,0.));
#737=DIRECTION('',(-0.965925826289068,0.258819045102521,0.));
#738=DIRECTION('',(0.,0.,-1.));
#739=DIRECTION('',(0.5,-0.866025403784439,0.));
#740=DIRECTION('',(0.866025403784439,0.5,0.));
#741=DIRECTION('',(0.,0.,-1.));
#742=DIRECTION('',(0.,0.,-1.));
#743=DIRECTION('',(0.,1.,0.));
#744=DIRECTION('',(0.,0.,1.));
#745=DIRECTION('',(0.,0.,-1.));
#746=DIRECTION('',(-0.5,0.866025403784439,0.));
#747=DIRECTION('',(-0.866025403784439,-0.5,0.));
#748=DIRECTION('',(0.,0.,-1.));
#749=DIRECTION('',(0.,0.,-1.));
#750=DIRECTION('',(3.46944695195361E-16,-1.,0.));
#751=DIRECTION('',(1.,3.46944695195361E-16,0.));
#752=DIRECTION('',(0.,0.,-1.));
#753=DIRECTION('',(0.,0.,-1.));
#754=DIRECTION('',(-1.,0.,0.));
#755=DIRECTION('',(0.,0.,-1.));
#756=DIRECTION('',(-1.,0.,0.));
#757=DIRECTION('',(0.,0.,-1.));
#758=DIRECTION('',(-1.,0.,0.));
#759=DIRECTION('',(0.,0.,1.));
#760=DIRECTION('',(1.,0.,0.));
#761=DIRECTION('',(0.,0.,1.));
#762=DIRECTION('',(1.,0.,0.));
#763=DIRECTION('',(0.,0.,1.));
#764=DIRECTION('',(1.,0.,0.));
#765=DIRECTION('',(0.,1.,0.));
#766=DIRECTION('',(0.,0.,1.));
#767=DIRECTION('',(-0.447213595499958,0.,-0.894427190999916));
#768=DIRECTION('',(-0.447213595499958,0.,0.894427190999916));
#769=DIRECTION('',(-0.894427190999916,0.,-0.447213595499958));
#770=DIRECTION('',(-0.447213595499958,0.,0.894427190999916));
#771=DIRECTION('',(0.,-1.,0.));
#772=DIRECTION('',(0.894427190999916,0.,-0.447213595499958));
#773=DIRECTION('',(-0.447213595499958,0.,-0.894427190999916));
#774=CARTESIAN_POINT('',(0.,0.,0.));
#775=CARTESIAN_POINT('',(0.100487995196156,-0.002,0.00909585226422653));
#776=CARTESIAN_POINT('',(0.0994879951961561,-0.002,0.00709585226422651));
#777=CARTESIAN_POINT('',(0.0984879951961561,-0.002,0.00509585226422653));
#778=CARTESIAN_POINT('',(0.100487995196156,-0.002,0.00909585226422653));
#779=CARTESIAN_POINT('',(0.100487995196156,-0.002,0.00509585226422653));
#780=CARTESIAN_POINT('',(0.102487995196156,-0.002,0.00509585226422654));
#781=CARTESIAN_POINT('',(0.101487995196156,-0.002,0.00709585226422654));
#782=CARTESIAN_POINT('',(0.0932070229729754,5.20417042793042E-18,0.00509585226422653));
#783=CARTESIAN_POINT('',(0.0999200483478728,0.00230009069179262,0.00509585226422653));
#784=CARTESIAN_POINT('',(0.0997405564235615,0.00230009069179262,0.00509585226422653));
#785=CARTESIAN_POINT('',(0.0974200483478728,0.00230009069179262,0.00509585226422653));
#786=CARTESIAN_POINT('',(0.0932070229729754,5.97968365598277E-18,0.00509585226422653));
#787=CARTESIAN_POINT('',(0.0905228970363158,0.00397938034826419,0.00509585226422653));
#788=CARTESIAN_POINT('',(0.0910820899397866,0.00315034277570916,0.00509585226422653));
#789=CARTESIAN_POINT('',(0.0919427146475812,0.00187441417539525,0.00509585226422653));
#790=CARTESIAN_POINT('',(0.0932070229729755,-3.57563411948138E-17,0.00509585226422653));
#791=CARTESIAN_POINT('',(0.0919427146475811,-0.0018744141753953,0.00509585226422653));
#792=CARTESIAN_POINT('',(0.0910820899397866,-0.00315034277570916,0.00509585226422653));
#793=CARTESIAN_POINT('',(0.0905228970363159,-0.00397938034826421,0.00509585226422653));
#794=CARTESIAN_POINT('',(0.0932070229729754,5.97968365598277E-18,0.00509585226422653));
#795=CARTESIAN_POINT('',(0.0974200483478728,-0.00230009069179261,0.00509585226422653));
#796=CARTESIAN_POINT('',(0.0999200483478728,-0.00230009069179261,0.00509585226422653));
#797=CARTESIAN_POINT('',(0.0997405564235615,-0.00230009069179261,0.00509585226422653));
#798=CARTESIAN_POINT('',(0.0997405564235615,-0.0123000906917926,0.00509585226422653));
#799=CARTESIAN_POINT('',(0.104740556423561,-0.00363983665394822,0.00509585226422653));
#800=CARTESIAN_POINT('',(0.106268175075393,-0.00452180769380219,0.00509585226422653));
#801=CARTESIAN_POINT('',(0.107795793727224,-0.00540377873365615,0.00509585226422653));
#802=CARTESIAN_POINT('',(0.112795793727224,0.00325647530418823,0.00509585226422653));
#803=CARTESIAN_POINT('',(0.112795793727224,-0.00674352469581177,0.00509585226422653));
#804=CARTESIAN_POINT('',(0.112616301802913,-0.00674352469581177,0.00509585226422653));
#805=CARTESIAN_POINT('',(0.115116301802913,-0.00674352469581177,0.00509585226422653));
#806=CARTESIAN_POINT('',(0.111268175075393,-0.00452180769380219,0.00509585226422653));
#807=CARTESIAN_POINT('',(0.109510818623049,-0.00350719747297916,0.00509585226422653));
#808=CARTESIAN_POINT('',(0.110010818623049,-0.00264117206919472,0.00509585226422653));
#809=CARTESIAN_POINT('',(0.109751999577946,-0.00167524624290566,0.00509585226422653));
#810=CARTESIAN_POINT('',(0.111712076009766,-0.0011500453458963,0.00509585226422653));
#811=CARTESIAN_POINT('',(0.116004103671659,6.28837260041593E-18,0.00509585226422653));
#812=CARTESIAN_POINT('',(0.111712076009766,0.00115004534589632,0.00509585226422653));
#813=CARTESIAN_POINT('',(0.109751999577946,0.00167524624290567,0.00509585226422653));
#814=CARTESIAN_POINT('',(0.110010818623049,0.00264117206919473,0.00509585226422653));
#815=CARTESIAN_POINT('',(0.109510818623049,0.00350719747297918,0.00509585226422653));
#816=CARTESIAN_POINT('',(0.111268175075393,0.0045218076938022,0.00509585226422653));
#817=CARTESIAN_POINT('',(0.115116301802913,0.00674352469581178,0.00509585226422653));
#818=CARTESIAN_POINT('',(0.112616301802913,0.00674352469581178,0.00509585226422653));
#819=CARTESIAN_POINT('',(0.112795793727224,0.00674352469581178,0.00509585226422653));
#820=CARTESIAN_POINT('',(0.112795793727224,-0.00325647530418822,0.00509585226422653));
#821=CARTESIAN_POINT('',(0.107795793727224,0.00540377873365617,0.00509585226422653));
#822=CARTESIAN_POINT('',(0.106268175075393,0.0045218076938022,0.00509585226422653));
#823=CARTESIAN_POINT('',(0.104740556423561,0.00363983665394823,0.00509585226422653));
#824=CARTESIAN_POINT('',(0.0997405564235615,0.0123000906917926,0.00509585226422653));
#825=CARTESIAN_POINT('',(0.100487995196156,0.002,0.00509585226422653));
#826=CARTESIAN_POINT('',(0.0984879951961561,0.002,0.00509585226422653));
#827=CARTESIAN_POINT('',(0.102487995196156,0.002,0.00509585226422653));
#828=CARTESIAN_POINT('',(0.102487995196156,0.,0.00509585226422653));
#829=CARTESIAN_POINT('',(0.0984879951961561,0.,0.00509585226422653));
#830=CARTESIAN_POINT('',(0.0932070229729754,5.97968365598277E-18,0.00509585226422653));
#831=CARTESIAN_POINT('',(0.0974200483478728,-0.00230009069179261,0.00509785226422653));
#832=CARTESIAN_POINT('',(0.0974200483478728,-0.00230009069179261,9.58522642265269E-5));
#833=CARTESIAN_POINT('',(0.0905228970363159,-0.00397938034826421,0.00509585226422653));
#834=CARTESIAN_POINT('',(0.0905228970363159,-0.00397938034826421,9.58522642265269E-5));
#835=CARTESIAN_POINT('',(0.0932070229729754,5.97968365598277E-18,9.58522642265269E-5));
#836=CARTESIAN_POINT('',(0.0932070229729754,5.97968365598277E-18,0.00509585226422653));
#837=CARTESIAN_POINT('',(0.0974200483478728,0.00230009069179262,0.00509785226422653));
#838=CARTESIAN_POINT('',(0.0974200483478728,0.00230009069179262,9.58522642265269E-5));
#839=CARTESIAN_POINT('',(0.0932070229729754,5.97968365598277E-18,9.58522642265269E-5));
#840=CARTESIAN_POINT('',(0.0905228970363158,0.00397938034826419,9.58522642265269E-5));
#841=CARTESIAN_POINT('',(0.0905228970363158,0.00397938034826419,0.00509585226422653));
#842=CARTESIAN_POINT('',(0.0910820899397866,0.00315034277570916,0.00509585226422653));
#843=CARTESIAN_POINT('',(0.0932070229729755,-3.72114087806893E-17,0.00259585226422652));
#844=CARTESIAN_POINT('',(0.0920556222106494,0.00170702182934036,0.00069839271033068));
#845=CARTESIAN_POINT('',(0.0920556222106494,0.00170702182934036,0.00449331181812238));
#846=CARTESIAN_POINT('',(0.0932070229729755,-3.72114087806893E-17,-0.0016512325341207));
#847=CARTESIAN_POINT('',(0.0910820899397866,0.00315034277570916,9.58522642265269E-5));
#848=CARTESIAN_POINT('',(0.0919427146475812,0.00187441417539525,9.58522642265269E-5));
#849=CARTESIAN_POINT('',(0.0932070229729755,-3.72114087806893E-17,0.00684293706257378));
#850=CARTESIAN_POINT('',(0.0910820899397866,-0.00315034277570916,0.00509585226422653));
#851=CARTESIAN_POINT('',(0.0932070229729754,-4.59364373064693E-18,-0.0016512325341207));
#852=CARTESIAN_POINT('',(0.0920556222106494,-0.00170702182934041,0.00449331181812237));
#853=CARTESIAN_POINT('',(0.0932070229729754,-4.59364373064693E-18,0.00259585226422652));
#854=CARTESIAN_POINT('',(0.0920556222106494,-0.00170702182934041,0.000698392710330681));
#855=CARTESIAN_POINT('',(0.0932070229729754,-4.59364373064693E-18,0.00684293706257378));
#856=CARTESIAN_POINT('',(0.0919427146475811,-0.0018744141753953,9.58522642265269E-5));
#857=CARTESIAN_POINT('',(0.0910820899397866,-0.00315034277570916,9.58522642265269E-5));
#858=CARTESIAN_POINT('',(0.0932070229729754,5.20417042793042E-18,9.58522642265269E-5));
#859=CARTESIAN_POINT('',(0.106268175075393,0.0045218076938022,9.58522642265274E-5));
#860=CARTESIAN_POINT('',(0.104740556423561,0.00363983665394823,9.58522642265274E-5));
#861=CARTESIAN_POINT('',(0.107795793727224,0.00540377873365617,9.58522642265274E-5));
#862=CARTESIAN_POINT('',(0.112795793727224,-0.00325647530418822,9.58522642265274E-5));
#863=CARTESIAN_POINT('',(0.112795793727224,0.00674352469581178,9.58522642265274E-5));
#864=CARTESIAN_POINT('',(0.112616301802913,0.00674352469581178,9.58522642265274E-5));
#865=CARTESIAN_POINT('',(0.115116301802913,0.00674352469581178,9.58522642265274E-5));
#866=CARTESIAN_POINT('',(0.111268175075393,0.0045218076938022,9.58522642265274E-5));
#867=CARTESIAN_POINT('',(0.109510818623049,0.00350719747297918,9.58522642265274E-5));
#868=CARTESIAN_POINT('',(0.110010818623049,0.00264117206919473,9.58522642265274E-5));
#869=CARTESIAN_POINT('',(0.109751999577946,0.00167524624290567,9.58522642265274E-5));
#870=CARTESIAN_POINT('',(0.111712076009766,0.00115004534589632,9.58522642265274E-5));
#871=CARTESIAN_POINT('',(0.116004103671659,6.28837260041593E-18,9.58522642265274E-5));
#872=CARTESIAN_POINT('',(0.111712076009766,-0.0011500453458963,9.58522642265274E-5));
#873=CARTESIAN_POINT('',(0.109751999577946,-0.00167524624290566,9.58522642265274E-5));
#874=CARTESIAN_POINT('',(0.110010818623049,-0.00264117206919472,9.58522642265274E-5));
#875=CARTESIAN_POINT('',(0.109510818623049,-0.00350719747297916,9.58522642265274E-5));
#876=CARTESIAN_POINT('',(0.111268175075393,-0.00452180769380219,9.58522642265274E-5));
#877=CARTESIAN_POINT('',(0.115116301802913,-0.00674352469581177,9.58522642265274E-5));
#878=CARTESIAN_POINT('',(0.112616301802913,-0.00674352469581177,9.58522642265274E-5));
#879=CARTESIAN_POINT('',(0.112795793727224,-0.00674352469581177,9.58522642265274E-5));
#880=CARTESIAN_POINT('',(0.112795793727224,0.00325647530418823,9.58522642265274E-5));
#881=CARTESIAN_POINT('',(0.107795793727224,-0.00540377873365615,9.58522642265274E-5));
#882=CARTESIAN_POINT('',(0.106268175075393,-0.00452180769380219,9.58522642265274E-5));
#883=CARTESIAN_POINT('',(0.104740556423561,-0.00363983665394822,9.58522642265274E-5));
#884=CARTESIAN_POINT('',(0.0997405564235615,-0.0123000906917926,9.58522642265274E-5));
#885=CARTESIAN_POINT('',(0.0997405564235615,-0.00230009069179261,9.58522642265274E-5));
#886=CARTESIAN_POINT('',(0.0999200483478728,-0.00230009069179261,9.58522642265274E-5));
#887=CARTESIAN_POINT('',(0.0932070229729755,-3.57563411948138E-17,9.58522642265269E-5));
#888=CARTESIAN_POINT('',(0.0999200483478728,0.00230009069179262,9.58522642265274E-5));
#889=CARTESIAN_POINT('',(0.0997405564235615,0.00230009069179262,9.58522642265274E-5));
#890=CARTESIAN_POINT('',(0.0997405564235615,0.0123000906917926,9.58522642265274E-5));
#891=CARTESIAN_POINT('',(0.0932070229729755,-3.57563411948138E-17,0.00259585226422652));
#892=CARTESIAN_POINT('',(0.0932070229729755,-3.57563411948138E-17,0.00449331181812237));
#893=CARTESIAN_POINT('',(0.0932070229729755,-3.57563411948138E-17,0.000698392710330681));
#894=CARTESIAN_POINT('',(0.0932070229729755,-3.57563411948138E-17,0.00509585226422653));
#895=CARTESIAN_POINT('',(0.0932070229729755,-3.57563411948138E-17,0.000698392710330682));
#896=CARTESIAN_POINT('',(0.0999200483478728,-0.00230009069179261,0.00509785226422653));
#897=CARTESIAN_POINT('',(0.0997405564235615,-0.00230009069179261,0.00509585226422653));
#898=CARTESIAN_POINT('',(0.106268175075393,-0.00452180769380219,0.00509785226422653));
#899=CARTESIAN_POINT('',(0.107795793727224,-0.00540377873365615,0.00509785226422653));
#900=CARTESIAN_POINT('',(0.104740556423561,-0.00363983665394822,9.58522642265274E-5));
#901=CARTESIAN_POINT('',(0.112616301802913,-0.00674352469581177,0.00509785226422653));
#902=CARTESIAN_POINT('',(0.112795793727224,-0.00674352469581177,0.00509785226422653));
#903=CARTESIAN_POINT('',(0.115116301802913,-0.00674352469581177,0.00509785226422653));
#904=CARTESIAN_POINT('',(0.111268175075393,-0.00452180769380219,0.00509785226422653));
#905=CARTESIAN_POINT('',(0.109510818623049,-0.00350719747297916,0.00509585226422653));
#906=CARTESIAN_POINT('',(0.111712076009766,-0.0011500453458963,0.00509785226422653));
#907=CARTESIAN_POINT('',(0.109751999577946,-0.00167524624290566,9.58522642265274E-5));
#908=CARTESIAN_POINT('',(0.116004103671659,6.28837260041593E-18,0.00509785226422653));
#909=CARTESIAN_POINT('',(0.111712076009766,0.00115004534589632,0.00509785226422653));
#910=CARTESIAN_POINT('',(0.109751999577946,0.00167524624290567,0.00509585226422653));
#911=CARTESIAN_POINT('',(0.111268175075393,0.0045218076938022,0.00509785226422653));
#912=CARTESIAN_POINT('',(0.109510818623049,0.00350719747297918,9.58522642265274E-5));
#913=CARTESIAN_POINT('',(0.115116301802913,0.00674352469581178,0.00509785226422653));
#914=CARTESIAN_POINT('',(0.112616301802913,0.00674352469581178,0.00509785226422653));
#915=CARTESIAN_POINT('',(0.112795793727224,0.00674352469581178,0.00509785226422653));
#916=CARTESIAN_POINT('',(0.106268175075393,0.0045218076938022,0.00509785226422653));
#917=CARTESIAN_POINT('',(0.107795793727224,0.00540377873365617,0.00509785226422653));
#918=CARTESIAN_POINT('',(0.104740556423561,0.00363983665394823,0.00509785226422653));
#919=CARTESIAN_POINT('',(0.0999200483478728,0.00230009069179262,0.00509785226422653));
#920=CARTESIAN_POINT('',(0.0997405564235615,0.00230009069179262,0.00509785226422653));
#921=CARTESIAN_POINT('',(0.112795793727224,-0.00325647530418822,0.00509785226422653));
#922=CARTESIAN_POINT('',(0.112795793727224,0.00325647530418823,0.00509785226422653));
#923=CARTESIAN_POINT('',(0.0997405564235615,0.0123000906917926,0.00509785226422653));
#924=CARTESIAN_POINT('',(0.0997405564235615,-0.0123000906917926,0.00509785226422653));
#925=CARTESIAN_POINT('',(0.110010818623049,0.00264117206919473,0.00509785226422653));
#926=CARTESIAN_POINT('',(0.110010818623049,-0.00264117206919472,0.00509785226422653));
#927=CARTESIAN_POINT('',(0.100487995196156,0.002,0.00909585226422653));
#928=CARTESIAN_POINT('',(0.100487995196156,0.002,0.00909585226422652));
#929=CARTESIAN_POINT('',(0.100487995196156,0.002,0.00909585226422653));
#930=CARTESIAN_POINT('',(0.100487995196156,0.002,0.00909585226422653));
#931=CARTESIAN_POINT('',(0.101487995196156,0.023,0.00709585226422654));
#932=CARTESIAN_POINT('',(0.100487995196156,0.023,0.00909585226422653));
#933=CARTESIAN_POINT('',(0.0994879951961561,0.023,0.00709585226422651));
#934=MECHANICAL_DESIGN_GEOMETRIC_PRESENTATION_REPRESENTATION('',(#551),
#935);
#935=(
GEOMETRIC_REPRESENTATION_CONTEXT(3)
GLOBAL_UNCERTAINTY_ASSIGNED_CONTEXT((#936))
GLOBAL_UNIT_ASSIGNED_CONTEXT((#939,#938,#937))
REPRESENTATION_CONTEXT('TailFour','TOP_LEVEL_ASSEMBLY_PART')
);
#936=UNCERTAINTY_MEASURE_WITH_UNIT(LENGTH_MEASURE(1.E-8),#939,
'DISTANCE_ACCURACY_VALUE','Maximum Tolerance applied to model');
#937=(
NAMED_UNIT(*)
SI_UNIT($,.STERADIAN.)
SOLID_ANGLE_UNIT()
);
#938=(
NAMED_UNIT(*)
PLANE_ANGLE_UNIT()
SI_UNIT($,.RADIAN.)
);
#939=(
LENGTH_UNIT()
NAMED_UNIT(*)
SI_UNIT($,.METRE.)
);
#940=PRODUCT_DEFINITION_SHAPE('','',#941);
#941=PRODUCT_DEFINITION('','',#943,#942);
#942=PRODUCT_DEFINITION_CONTEXT('',#949,'design');
#943=PRODUCT_DEFINITION_FORMATION_WITH_SPECIFIED_SOURCE('','',#945,
 .NOT_KNOWN.);
#944=PRODUCT_RELATED_PRODUCT_CATEGORY('','',(#945));
#945=PRODUCT('TailFour','TailFour','TailFour',(#947));
#946=PRODUCT_CATEGORY('','');
#947=PRODUCT_CONTEXT('',#949,'mechanical');
#948=APPLICATION_PROTOCOL_DEFINITION('international standard',
'ap242_managed_model_based_3d_engineering',2020,#949);
#949=APPLICATION_CONTEXT('managed model based 3d engineering');
ENDSEC;
END-ISO-10303-21;
