ISO-10303-21;
HEADER;
/* Generated by software containing ST-Developer
 * from STEP Tools, Inc. (www.steptools.com) 
 */
/* OPTION: using custom renumber hook */

FILE_DESCRIPTION(
/* description */ ('STEP AP242 Edition 2',
'CAx-IF Rec.Pracs.---Representation and Presentation of Product Manufa
cturing Information (PMI)---4.0---2014-10-13',
'CAx-IF Rec.Pracs.---3D Tessellated Geometry---0.4---2014-09-14','2;1',
'CAx-IF Rec.Pracs.---User Defined Attributes---1.5---2016-08-15'),
/* implementation_level */ '2;1');

FILE_NAME(
/* name */ '6977fa043cb6d4ce0c39ea1f',
/* time_stamp */ '2026-01-26T23:34:28Z',
/* author */ (''),
/* organization */ (''),
/* preprocessor_version */ 'ST-DEVELOPER v20',
/* originating_system */ 'ONSHAPE BY PTC INC, 1.209',
/* authorisation */ '  ');

FILE_SCHEMA (('AP242_MANAGED_MODEL_BASED_3D_ENGINEERING_MIM_LF { 1 0 10303 442 3 1 4 }'));
ENDSEC;

DATA;
#10=SHAPE_REPRESENTATION_RELATIONSHIP('','',#322,#11);
#11=ADVANCED_BREP_SHAPE_REPRESENTATION('',(#320),#534);
#12=CONICAL_SURFACE('',#342,0.00226095202129181,0.323340231192503);
#13=CONICAL_SURFACE('',#343,0.00205904036903825,0.323340231192505);
#14=SPHERICAL_SURFACE('',#339,0.0028);
#15=SPHERICAL_SURFACE('',#350,0.003);
#16=CYLINDRICAL_SURFACE('',#329,0.0048);
#17=CYLINDRICAL_SURFACE('',#335,0.0048);
#18=CYLINDRICAL_SURFACE('',#348,0.00225);
#19=CIRCLE('',#326,0.0048);
#20=CIRCLE('',#327,0.00226095202129181);
#21=CIRCLE('',#328,0.0048);
#22=CIRCLE('',#330,0.0048);
#23=CIRCLE('',#332,0.0028);
#24=CIRCLE('',#334,0.0028);
#25=CIRCLE('',#336,0.0048);
#26=CIRCLE('',#338,0.00226095202129181);
#27=CIRCLE('',#340,0.00205904036903825);
#28=CIRCLE('',#341,0.00205904036903825);
#29=CIRCLE('',#346,0.00225);
#30=CIRCLE('',#349,0.00225);
#31=ORIENTED_EDGE('',*,*,#113,.F.);
#32=ORIENTED_EDGE('',*,*,#114,.T.);
#33=ORIENTED_EDGE('',*,*,#115,.F.);
#34=ORIENTED_EDGE('',*,*,#116,.T.);
#35=ORIENTED_EDGE('',*,*,#117,.T.);
#36=ORIENTED_EDGE('',*,*,#118,.F.);
#37=ORIENTED_EDGE('',*,*,#119,.T.);
#38=ORIENTED_EDGE('',*,*,#120,.T.);
#39=ORIENTED_EDGE('',*,*,#121,.T.);
#40=ORIENTED_EDGE('',*,*,#122,.T.);
#41=ORIENTED_EDGE('',*,*,#123,.T.);
#42=ORIENTED_EDGE('',*,*,#124,.T.);
#43=ORIENTED_EDGE('',*,*,#125,.T.);
#44=ORIENTED_EDGE('',*,*,#114,.F.);
#45=ORIENTED_EDGE('',*,*,#126,.F.);
#46=ORIENTED_EDGE('',*,*,#127,.F.);
#47=ORIENTED_EDGE('',*,*,#128,.T.);
#48=ORIENTED_EDGE('',*,*,#129,.F.);
#49=ORIENTED_EDGE('',*,*,#117,.F.);
#50=ORIENTED_EDGE('',*,*,#130,.T.);
#51=ORIENTED_EDGE('',*,*,#131,.T.);
#52=ORIENTED_EDGE('',*,*,#118,.T.);
#53=ORIENTED_EDGE('',*,*,#129,.T.);
#54=ORIENTED_EDGE('',*,*,#132,.F.);
#55=ORIENTED_EDGE('',*,*,#133,.T.);
#56=ORIENTED_EDGE('',*,*,#120,.F.);
#57=ORIENTED_EDGE('',*,*,#134,.T.);
#58=ORIENTED_EDGE('',*,*,#135,.F.);
#59=ORIENTED_EDGE('',*,*,#136,.T.);
#60=ORIENTED_EDGE('',*,*,#137,.T.);
#61=ORIENTED_EDGE('',*,*,#138,.F.);
#62=ORIENTED_EDGE('',*,*,#139,.T.);
#63=ORIENTED_EDGE('',*,*,#140,.T.);
#64=ORIENTED_EDGE('',*,*,#121,.F.);
#65=ORIENTED_EDGE('',*,*,#138,.T.);
#66=ORIENTED_EDGE('',*,*,#128,.F.);
#67=ORIENTED_EDGE('',*,*,#141,.F.);
#68=ORIENTED_EDGE('',*,*,#142,.F.);
#69=ORIENTED_EDGE('',*,*,#143,.F.);
#70=ORIENTED_EDGE('',*,*,#139,.F.);
#71=ORIENTED_EDGE('',*,*,#137,.F.);
#72=ORIENTED_EDGE('',*,*,#144,.T.);
#73=ORIENTED_EDGE('',*,*,#132,.T.);
#74=ORIENTED_EDGE('',*,*,#135,.T.);
#75=ORIENTED_EDGE('',*,*,#145,.T.);
#76=ORIENTED_EDGE('',*,*,#130,.F.);
#77=ORIENTED_EDGE('',*,*,#146,.T.);
#78=ORIENTED_EDGE('',*,*,#131,.F.);
#79=ORIENTED_EDGE('',*,*,#145,.F.);
#80=ORIENTED_EDGE('',*,*,#134,.F.);
#81=ORIENTED_EDGE('',*,*,#119,.F.);
#82=ORIENTED_EDGE('',*,*,#133,.F.);
#83=ORIENTED_EDGE('',*,*,#144,.F.);
#84=ORIENTED_EDGE('',*,*,#136,.F.);
#85=ORIENTED_EDGE('',*,*,#146,.F.);
#86=ORIENTED_EDGE('',*,*,#147,.F.);
#87=ORIENTED_EDGE('',*,*,#141,.T.);
#88=ORIENTED_EDGE('',*,*,#127,.T.);
#89=ORIENTED_EDGE('',*,*,#116,.F.);
#90=ORIENTED_EDGE('',*,*,#148,.F.);
#91=ORIENTED_EDGE('',*,*,#149,.F.);
#92=ORIENTED_EDGE('',*,*,#142,.T.);
#93=ORIENTED_EDGE('',*,*,#147,.T.);
#94=ORIENTED_EDGE('',*,*,#123,.F.);
#95=ORIENTED_EDGE('',*,*,#140,.F.);
#96=ORIENTED_EDGE('',*,*,#143,.T.);
#97=ORIENTED_EDGE('',*,*,#149,.T.);
#98=ORIENTED_EDGE('',*,*,#122,.F.);
#99=ORIENTED_EDGE('',*,*,#150,.T.);
#100=ORIENTED_EDGE('',*,*,#148,.T.);
#101=ORIENTED_EDGE('',*,*,#150,.F.);
#102=ORIENTED_EDGE('',*,*,#151,.F.);
#103=ORIENTED_EDGE('',*,*,#152,.F.);
#104=ORIENTED_EDGE('',*,*,#124,.F.);
#105=ORIENTED_EDGE('',*,*,#152,.T.);
#106=ORIENTED_EDGE('',*,*,#153,.T.);
#107=ORIENTED_EDGE('',*,*,#115,.T.);
#108=ORIENTED_EDGE('',*,*,#125,.F.);
#109=ORIENTED_EDGE('',*,*,#151,.T.);
#110=ORIENTED_EDGE('',*,*,#126,.T.);
#111=ORIENTED_EDGE('',*,*,#113,.T.);
#112=ORIENTED_EDGE('',*,*,#153,.F.);
#113=EDGE_CURVE('',#154,#155,#182,.T.);
#114=EDGE_CURVE('',#154,#156,#183,.T.);
#115=EDGE_CURVE('',#155,#156,#184,.T.);
#116=EDGE_CURVE('',#157,#158,#185,.T.);
#117=EDGE_CURVE('',#158,#159,#19,.T.);
#118=EDGE_CURVE('',#160,#159,#186,.T.);
#119=EDGE_CURVE('',#160,#161,#20,.F.);
#120=EDGE_CURVE('',#161,#162,#187,.T.);
#121=EDGE_CURVE('',#162,#163,#21,.T.);
#122=EDGE_CURVE('',#163,#164,#188,.T.);
#123=EDGE_CURVE('',#164,#157,#189,.T.);
#124=EDGE_CURVE('',#165,#166,#190,.T.);
#125=EDGE_CURVE('',#166,#156,#191,.T.);
#126=EDGE_CURVE('',#165,#154,#192,.T.);
#127=EDGE_CURVE('',#167,#158,#193,.T.);
#128=EDGE_CURVE('',#167,#168,#22,.T.);
#129=EDGE_CURVE('',#159,#168,#194,.T.);
#130=EDGE_CURVE('',#169,#170,#23,.F.);
#131=EDGE_CURVE('',#170,#160,#195,.F.);
#132=EDGE_CURVE('',#171,#168,#196,.T.);
#133=EDGE_CURVE('',#171,#169,#197,.F.);
#134=EDGE_CURVE('',#161,#172,#198,.T.);
#135=EDGE_CURVE('',#173,#172,#24,.F.);
#136=EDGE_CURVE('',#173,#174,#199,.T.);
#137=EDGE_CURVE('',#174,#175,#200,.T.);
#138=EDGE_CURVE('',#162,#175,#201,.T.);
#139=EDGE_CURVE('',#175,#176,#25,.T.);
#140=EDGE_CURVE('',#176,#163,#202,.T.);
#141=EDGE_CURVE('',#177,#167,#203,.T.);
#142=EDGE_CURVE('',#178,#177,#204,.T.);
#143=EDGE_CURVE('',#176,#178,#205,.T.);
#144=EDGE_CURVE('',#174,#171,#26,.T.);
#145=EDGE_CURVE('',#172,#170,#27,.F.);
#146=EDGE_CURVE('',#169,#173,#28,.F.);
#147=EDGE_CURVE('',#177,#157,#206,.T.);
#148=EDGE_CURVE('',#179,#179,#29,.T.);
#149=EDGE_CURVE('',#178,#164,#207,.T.);
#150=EDGE_CURVE('',#180,#180,#30,.F.);
#151=EDGE_CURVE('',#181,#165,#208,.T.);
#152=EDGE_CURVE('',#166,#181,#209,.T.);
#153=EDGE_CURVE('',#181,#155,#210,.T.);
#154=VERTEX_POINT('',#448);
#155=VERTEX_POINT('',#449);
#156=VERTEX_POINT('',#451);
#157=VERTEX_POINT('',#455);
#158=VERTEX_POINT('',#456);
#159=VERTEX_POINT('',#458);
#160=VERTEX_POINT('',#460);
#161=VERTEX_POINT('',#462);
#162=VERTEX_POINT('',#464);
#163=VERTEX_POINT('',#466);
#164=VERTEX_POINT('',#468);
#165=VERTEX_POINT('',#471);
#166=VERTEX_POINT('',#472);
#167=VERTEX_POINT('',#477);
#168=VERTEX_POINT('',#479);
#169=VERTEX_POINT('',#483);
#170=VERTEX_POINT('',#484);
#171=VERTEX_POINT('',#487);
#172=VERTEX_POINT('',#491);
#173=VERTEX_POINT('',#493);
#174=VERTEX_POINT('',#495);
#175=VERTEX_POINT('',#497);
#176=VERTEX_POINT('',#501);
#177=VERTEX_POINT('',#505);
#178=VERTEX_POINT('',#507);
#179=VERTEX_POINT('',#519);
#180=VERTEX_POINT('',#524);
#181=VERTEX_POINT('',#528);
#182=LINE('',#447,#211);
#183=LINE('',#450,#212);
#184=LINE('',#452,#213);
#185=LINE('',#454,#214);
#186=LINE('',#459,#215);
#187=LINE('',#463,#216);
#188=LINE('',#467,#217);
#189=LINE('',#469,#218);
#190=LINE('',#470,#219);
#191=LINE('',#473,#220);
#192=LINE('',#474,#221);
#193=LINE('',#476,#222);
#194=LINE('',#480,#223);
#195=LINE('',#485,#224);
#196=LINE('',#486,#225);
#197=LINE('',#488,#226);
#198=LINE('',#490,#227);
#199=LINE('',#494,#228);
#200=LINE('',#496,#229);
#201=LINE('',#498,#230);
#202=LINE('',#502,#231);
#203=LINE('',#504,#232);
#204=LINE('',#506,#233);
#205=LINE('',#508,#234);
#206=LINE('',#516,#235);
#207=LINE('',#520,#236);
#208=LINE('',#527,#237);
#209=LINE('',#529,#238);
#210=LINE('',#531,#239);
#211=VECTOR('',#358,1.);
#212=VECTOR('',#359,1.);
#213=VECTOR('',#360,1.);
#214=VECTOR('',#363,1.);
#215=VECTOR('',#366,1.);
#216=VECTOR('',#369,1.);
#217=VECTOR('',#372,1.);
#218=VECTOR('',#373,1.);
#219=VECTOR('',#374,1.);
#220=VECTOR('',#375,1.);
#221=VECTOR('',#376,1.);
#222=VECTOR('',#379,1.);
#223=VECTOR('',#382,1.);
#224=VECTOR('',#387,1.);
#225=VECTOR('',#388,1.);
#226=VECTOR('',#389,1.);
#227=VECTOR('',#392,1.);
#228=VECTOR('',#395,1.);
#229=VECTOR('',#396,1.);
#230=VECTOR('',#397,1.);
#231=VECTOR('',#402,1.);
#232=VECTOR('',#405,1.);
#233=VECTOR('',#406,1.);
#234=VECTOR('',#407,1.);
#235=VECTOR('',#422,1.);
#236=VECTOR('',#427,1.);
#237=VECTOR('',#438,1.);
#238=VECTOR('',#439,1.);
#239=VECTOR('',#442,1.);
#240=EDGE_LOOP('',(#31,#32,#33));
#241=EDGE_LOOP('',(#34,#35,#36,#37,#38,#39,#40,#41));
#242=EDGE_LOOP('',(#42,#43,#44,#45));
#243=EDGE_LOOP('',(#46,#47,#48,#49));
#244=EDGE_LOOP('',(#50,#51,#52,#53,#54,#55));
#245=EDGE_LOOP('',(#56,#57,#58,#59,#60,#61));
#246=EDGE_LOOP('',(#62,#63,#64,#65));
#247=EDGE_LOOP('',(#66,#67,#68,#69,#70,#71,#72,#73));
#248=EDGE_LOOP('',(#74,#75,#76,#77));
#249=EDGE_LOOP('',(#78,#79,#80,#81));
#250=EDGE_LOOP('',(#82,#83,#84,#85));
#251=EDGE_LOOP('',(#86,#87,#88,#89));
#252=EDGE_LOOP('',(#90));
#253=EDGE_LOOP('',(#91,#92,#93,#94));
#254=EDGE_LOOP('',(#95,#96,#97,#98));
#255=EDGE_LOOP('',(#99));
#256=EDGE_LOOP('',(#100));
#257=EDGE_LOOP('',(#101));
#258=EDGE_LOOP('',(#102,#103,#104));
#259=EDGE_LOOP('',(#105,#106,#107,#108));
#260=EDGE_LOOP('',(#109,#110,#111,#112));
#261=FACE_BOUND('',#240,.T.);
#262=FACE_BOUND('',#241,.T.);
#263=FACE_BOUND('',#242,.T.);
#264=FACE_BOUND('',#243,.T.);
#265=FACE_BOUND('',#244,.T.);
#266=FACE_BOUND('',#245,.T.);
#267=FACE_BOUND('',#246,.T.);
#268=FACE_BOUND('',#247,.T.);
#269=FACE_BOUND('',#248,.T.);
#270=FACE_BOUND('',#249,.T.);
#271=FACE_BOUND('',#250,.T.);
#272=FACE_BOUND('',#251,.T.);
#273=FACE_BOUND('',#252,.T.);
#274=FACE_BOUND('',#253,.T.);
#275=FACE_BOUND('',#254,.T.);
#276=FACE_BOUND('',#255,.T.);
#277=FACE_BOUND('',#256,.T.);
#278=FACE_BOUND('',#257,.T.);
#279=FACE_BOUND('',#258,.T.);
#280=FACE_BOUND('',#259,.T.);
#281=FACE_BOUND('',#260,.T.);
#282=PLANE('',#324);
#283=PLANE('',#325);
#284=PLANE('',#331);
#285=PLANE('',#333);
#286=PLANE('',#337);
#287=PLANE('',#344);
#288=PLANE('',#345);
#289=PLANE('',#347);
#290=PLANE('',#351);
#291=PLANE('',#352);
#292=PLANE('',#353);
#293=ADVANCED_FACE('',(#261),#282,.F.);
#294=ADVANCED_FACE('',(#262,#263),#283,.T.);
#295=ADVANCED_FACE('',(#264),#16,.T.);
#296=ADVANCED_FACE('',(#265),#284,.T.);
#297=ADVANCED_FACE('',(#266),#285,.F.);
#298=ADVANCED_FACE('',(#267),#17,.T.);
#299=ADVANCED_FACE('',(#268),#286,.F.);
#300=ADVANCED_FACE('',(#269),#14,.F.);
#301=ADVANCED_FACE('',(#270),#12,.F.);
#302=ADVANCED_FACE('',(#271),#13,.F.);
#303=ADVANCED_FACE('',(#272),#287,.F.);
#304=ADVANCED_FACE('',(#273,#274),#288,.F.);
#305=ADVANCED_FACE('',(#275),#289,.F.);
#306=ADVANCED_FACE('',(#276,#277),#18,.T.);
#307=ADVANCED_FACE('',(#278),#15,.T.);
#308=ADVANCED_FACE('',(#279),#290,.T.);
#309=ADVANCED_FACE('',(#280),#291,.F.);
#310=ADVANCED_FACE('',(#281),#292,.F.);
#311=CLOSED_SHELL('',(#293,#294,#295,#296,#297,#298,#299,#300,#301,#302,
#303,#304,#305,#306,#307,#308,#309,#310));
#312=STYLED_ITEM('',(#313),#320);
#313=PRESENTATION_STYLE_ASSIGNMENT((#314));
#314=SURFACE_STYLE_USAGE(.BOTH.,#315);
#315=SURFACE_SIDE_STYLE('',(#316));
#316=SURFACE_STYLE_FILL_AREA(#317);
#317=FILL_AREA_STYLE('',(#318));
#318=FILL_AREA_STYLE_COLOUR('',#319);
#319=COLOUR_RGB('',0.207843137254902,0.207843137254902,0.207843137254902);
#320=MANIFOLD_SOLID_BREP('TailTwo',#311);
#321=SHAPE_DEFINITION_REPRESENTATION(#539,#322);
#322=SHAPE_REPRESENTATION('TailTwo',(#323),#534);
#323=AXIS2_PLACEMENT_3D('',#445,#354,#355);
#324=AXIS2_PLACEMENT_3D('',#446,#356,#357);
#325=AXIS2_PLACEMENT_3D('',#453,#361,#362);
#326=AXIS2_PLACEMENT_3D('',#457,#364,#365);
#327=AXIS2_PLACEMENT_3D('',#461,#367,#368);
#328=AXIS2_PLACEMENT_3D('',#465,#370,#371);
#329=AXIS2_PLACEMENT_3D('',#475,#377,#378);
#330=AXIS2_PLACEMENT_3D('',#478,#380,#381);
#331=AXIS2_PLACEMENT_3D('',#481,#383,#384);
#332=AXIS2_PLACEMENT_3D('',#482,#385,#386);
#333=AXIS2_PLACEMENT_3D('',#489,#390,#391);
#334=AXIS2_PLACEMENT_3D('',#492,#393,#394);
#335=AXIS2_PLACEMENT_3D('',#499,#398,#399);
#336=AXIS2_PLACEMENT_3D('',#500,#400,#401);
#337=AXIS2_PLACEMENT_3D('',#503,#403,#404);
#338=AXIS2_PLACEMENT_3D('',#509,#408,#409);
#339=AXIS2_PLACEMENT_3D('',#510,#410,#411);
#340=AXIS2_PLACEMENT_3D('',#511,#412,#413);
#341=AXIS2_PLACEMENT_3D('',#512,#414,#415);
#342=AXIS2_PLACEMENT_3D('',#513,#416,#417);
#343=AXIS2_PLACEMENT_3D('',#514,#418,#419);
#344=AXIS2_PLACEMENT_3D('',#515,#420,#421);
#345=AXIS2_PLACEMENT_3D('',#517,#423,#424);
#346=AXIS2_PLACEMENT_3D('',#518,#425,#426);
#347=AXIS2_PLACEMENT_3D('',#521,#428,#429);
#348=AXIS2_PLACEMENT_3D('',#522,#430,#431);
#349=AXIS2_PLACEMENT_3D('',#523,#432,#433);
#350=AXIS2_PLACEMENT_3D('',#525,#434,#435);
#351=AXIS2_PLACEMENT_3D('',#526,#436,#437);
#352=AXIS2_PLACEMENT_3D('',#530,#440,#441);
#353=AXIS2_PLACEMENT_3D('',#532,#443,#444);
#354=DIRECTION('',(0.,0.,1.));
#355=DIRECTION('',(1.,0.,0.));
#356=DIRECTION('',(0.,1.,0.));
#357=DIRECTION('',(0.,0.,1.));
#358=DIRECTION('',(0.447213595499958,0.,0.894427190999916));
#359=DIRECTION('',(1.,0.,0.));
#360=DIRECTION('',(0.447213595499958,0.,-0.894427190999916));
#361=DIRECTION('',(0.,0.,1.));
#362=DIRECTION('',(1.,0.,0.));
#363=DIRECTION('',(-0.996194698091746,0.0871557427476579,0.));
#364=DIRECTION('',(0.,0.,1.));
#365=DIRECTION('',(1.,0.,0.));
#366=DIRECTION('',(-0.559192903470746,0.829037572555043,0.));
#367=DIRECTION('',(0.,0.,1.));
#368=DIRECTION('',(1.,0.,0.));
#369=DIRECTION('',(-0.559192903470748,-0.829037572555041,0.));
#370=DIRECTION('',(0.,0.,1.));
#371=DIRECTION('',(1.,0.,0.));
#372=DIRECTION('',(0.996194698091746,0.0871557427476582,0.));
#373=DIRECTION('',(0.,1.,0.));
#374=DIRECTION('',(1.,0.,0.));
#375=DIRECTION('',(0.,-1.,0.));
#376=DIRECTION('',(0.,-1.,0.));
#377=DIRECTION('',(0.,0.,-1.));
#378=DIRECTION('',(-1.,0.,0.));
#379=DIRECTION('',(0.,0.,1.));
#380=DIRECTION('',(0.,0.,1.));
#381=DIRECTION('',(1.,0.,0.));
#382=DIRECTION('',(0.,0.,-1.));
#383=DIRECTION('',(-0.829037572555043,-0.559192903470745,0.));
#384=DIRECTION('',(0.559192903470746,-0.829037572555043,0.));
#385=DIRECTION('',(-0.829037572555043,-0.559192903470745,0.));
#386=DIRECTION('',(0.559192903470746,-0.829037572555043,0.));
#387=DIRECTION('',(0.177675417568012,-0.263414639150538,-0.948179399625));
#388=DIRECTION('',(-0.559192903470746,0.829037572555043,0.));
#389=DIRECTION('',(-0.177675417568013,0.26341463915054,-0.948179399624999));
#390=DIRECTION('',(0.829037572555041,-0.559192903470748,0.));
#391=DIRECTION('',(0.559192903470748,0.829037572555041,0.));
#392=DIRECTION('',(0.177675417568013,0.263414639150537,-0.948179399625));
#393=DIRECTION('',(0.829037572555041,-0.559192903470748,0.));
#394=DIRECTION('',(0.559192903470748,0.829037572555041,0.));
#395=DIRECTION('',(-0.177675417568013,-0.263414639150539,-0.948179399624999));
#396=DIRECTION('',(-0.559192903470748,-0.829037572555041,0.));
#397=DIRECTION('',(0.,0.,-1.));
#398=DIRECTION('',(0.,0.,-1.));
#399=DIRECTION('',(-1.,0.,0.));
#400=DIRECTION('',(0.,0.,1.));
#401=DIRECTION('',(1.,0.,0.));
#402=DIRECTION('',(0.,0.,1.));
#403=DIRECTION('',(0.,0.,1.));
#404=DIRECTION('',(1.,0.,0.));
#405=DIRECTION('',(-0.996194698091746,0.0871557427476579,0.));
#406=DIRECTION('',(0.,1.,0.));
#407=DIRECTION('',(0.996194698091746,0.0871557427476582,0.));
#408=DIRECTION('',(0.,0.,1.));
#409=DIRECTION('',(1.,0.,0.));
#410=DIRECTION('',(-1.,0.,0.));
#411=DIRECTION('',(0.,-1.,0.));
#412=DIRECTION('',(0.,0.,-1.));
#413=DIRECTION('',(-1.,0.,0.));
#414=DIRECTION('',(0.,0.,1.));
#415=DIRECTION('',(1.,0.,0.));
#416=DIRECTION('',(0.,0.,1.));
#417=DIRECTION('',(1.,0.,0.));
#418=DIRECTION('',(0.,0.,-1.));
#419=DIRECTION('',(-1.,0.,0.));
#420=DIRECTION('',(-0.0871557427476579,-0.996194698091746,0.));
#421=DIRECTION('',(0.996194698091746,-0.0871557427476579,0.));
#422=DIRECTION('',(0.,0.,1.));
#423=DIRECTION('',(-1.,0.,0.));
#424=DIRECTION('',(0.,0.,1.));
#425=DIRECTION('',(1.,0.,0.));
#426=DIRECTION('',(0.,0.,-1.));
#427=DIRECTION('',(0.,0.,1.));
#428=DIRECTION('',(-0.0871557427476582,0.996194698091746,0.));
#429=DIRECTION('',(-0.996194698091746,-0.0871557427476582,0.));
#430=DIRECTION('',(-1.,0.,0.));
#431=DIRECTION('',(0.,0.,1.));
#432=DIRECTION('',(1.,0.,0.));
#433=DIRECTION('',(0.,0.,-1.));
#434=DIRECTION('',(0.,0.,1.));
#435=DIRECTION('',(0.,1.,0.));
#436=DIRECTION('',(0.,1.,0.));
#437=DIRECTION('',(0.,0.,1.));
#438=DIRECTION('',(-0.447213595499958,0.,-0.894427190999916));
#439=DIRECTION('',(-0.447213595499958,0.,0.894427190999916));
#440=DIRECTION('',(-0.894427190999916,0.,-0.447213595499958));
#441=DIRECTION('',(-0.447213595499958,0.,0.894427190999916));
#442=DIRECTION('',(0.,-1.,0.));
#443=DIRECTION('',(0.894427190999916,0.,-0.447213595499958));
#444=DIRECTION('',(-0.447213595499958,0.,-0.894427190999916));
#445=CARTESIAN_POINT('',(0.,0.,0.));
#446=CARTESIAN_POINT('',(0.0679939975980781,-0.002,0.00909585226422653));
#447=CARTESIAN_POINT('',(0.0669939975980781,-0.002,0.00709585226422652));
#448=CARTESIAN_POINT('',(0.0659939975980781,-0.002,0.00509585226422653));
#449=CARTESIAN_POINT('',(0.0679939975980781,-0.002,0.00909585226422653));
#450=CARTESIAN_POINT('',(0.0679939975980781,-0.002,0.00509585226422653));
#451=CARTESIAN_POINT('',(0.0699939975980781,-0.002,0.00509585226422654));
#452=CARTESIAN_POINT('',(0.0689939975980781,-0.002,0.00709585226422654));
#453=CARTESIAN_POINT('',(0.060246998799039,3.46944695195361E-18,0.00509585226422653));
#454=CARTESIAN_POINT('',(0.0679939975980781,0.00265004534589631,0.00509585226422653));
#455=CARTESIAN_POINT('',(0.0719939975980781,0.00230009069179262,0.00509585226422653));
#456=CARTESIAN_POINT('',(0.0639939975980781,0.003,0.00509585226422653));
#457=CARTESIAN_POINT('',(0.060246998799039,3.81127931101176E-18,0.00509585226422653));
#458=CARTESIAN_POINT('',(0.0575628728623795,0.00397938034826421,0.00509585226422653));
#459=CARTESIAN_POINT('',(0.05946412873418,0.00116065260157706,0.00509585226422653));
#460=CARTESIAN_POINT('',(0.0589826904736448,0.00187441417539519,0.00509585226422653));
#461=CARTESIAN_POINT('',(0.060246998799039,2.46484682141269E-18,0.00509585226422653));
#462=CARTESIAN_POINT('',(0.0589826904736448,-0.00187441417539517,0.00509585226422653));
#463=CARTESIAN_POINT('',(0.05946412873418,-0.00116065260157705,0.00509585226422653));
#464=CARTESIAN_POINT('',(0.0575628728623794,-0.00397938034826419,0.00509585226422653));
#465=CARTESIAN_POINT('',(0.060246998799039,3.81127931101176E-18,0.00509585226422653));
#466=CARTESIAN_POINT('',(0.0639939975980781,-0.003,0.00509585226422653));
#467=CARTESIAN_POINT('',(0.0679939975980781,-0.00265004534589631,0.00509585226422653));
#468=CARTESIAN_POINT('',(0.0719939975980781,-0.00230009069179261,0.00509585226422653));
#469=CARTESIAN_POINT('',(0.0719939975980781,5.20417042793042E-18,0.00509585226422653));
#470=CARTESIAN_POINT('',(0.0679939975980781,0.002,0.00509585226422653));
#471=CARTESIAN_POINT('',(0.0659939975980781,0.002,0.00509585226422653));
#472=CARTESIAN_POINT('',(0.0699939975980781,0.002,0.00509585226422653));
#473=CARTESIAN_POINT('',(0.0699939975980781,0.,0.00509585226422653));
#474=CARTESIAN_POINT('',(0.0659939975980781,0.,0.00509585226422653));
#475=CARTESIAN_POINT('',(0.060246998799039,3.81127931101176E-18,0.00509585226422653));
#476=CARTESIAN_POINT('',(0.0639939975980781,0.003,9.3852264226528E-5));
#477=CARTESIAN_POINT('',(0.0639939975980781,0.003,9.58522642265269E-5));
#478=CARTESIAN_POINT('',(0.060246998799039,3.81127931101176E-18,9.58522642265269E-5));
#479=CARTESIAN_POINT('',(0.0575628728623795,0.00397938034826421,9.58522642265269E-5));
#480=CARTESIAN_POINT('',(0.0575628728623795,0.00397938034826421,0.00509585226422653));
#481=CARTESIAN_POINT('',(0.05946412873418,0.00116065260157706,0.00509585226422653));
#482=CARTESIAN_POINT('',(0.060246998799039,1.47116656691982E-17,0.00259585226422652));
#483=CARTESIAN_POINT('',(0.0590955980367131,0.00170702182934032,0.000698392710330655));
#484=CARTESIAN_POINT('',(0.0590955980367131,0.00170702182934032,0.0044933118181224));
#485=CARTESIAN_POINT('',(0.060246998799039,1.47116656691982E-17,-0.00165123253412098));
#486=CARTESIAN_POINT('',(0.05946412873418,0.00116065260157706,9.58522642265269E-5));
#487=CARTESIAN_POINT('',(0.0589826904736448,0.00187441417539519,9.58522642265269E-5));
#488=CARTESIAN_POINT('',(0.060246998799039,1.47116656691982E-17,0.00684293706257398));
#489=CARTESIAN_POINT('',(0.05946412873418,-0.00116065260157705,0.00509585226422653));
#490=CARTESIAN_POINT('',(0.060246998799039,-3.90107386679266E-18,-0.00165123253412098));
#491=CARTESIAN_POINT('',(0.0590955980367131,-0.00170702182934031,0.0044933118181224));
#492=CARTESIAN_POINT('',(0.060246998799039,-3.90107386679266E-18,0.00259585226422652));
#493=CARTESIAN_POINT('',(0.0590955980367131,-0.00170702182934031,0.000698392710330652));
#494=CARTESIAN_POINT('',(0.060246998799039,-3.90107386679266E-18,0.00684293706257398));
#495=CARTESIAN_POINT('',(0.0589826904736448,-0.00187441417539517,9.58522642265269E-5));
#496=CARTESIAN_POINT('',(0.05946412873418,-0.00116065260157705,9.58522642265269E-5));
#497=CARTESIAN_POINT('',(0.0575628728623794,-0.00397938034826419,9.58522642265269E-5));
#498=CARTESIAN_POINT('',(0.0575628728623794,-0.00397938034826419,0.00509585226422653));
#499=CARTESIAN_POINT('',(0.060246998799039,3.81127931101176E-18,0.00509585226422653));
#500=CARTESIAN_POINT('',(0.060246998799039,3.81127931101176E-18,9.58522642265269E-5));
#501=CARTESIAN_POINT('',(0.0639939975980781,-0.003,9.58522642265269E-5));
#502=CARTESIAN_POINT('',(0.0639939975980781,-0.003,9.3852264226528E-5));
#503=CARTESIAN_POINT('',(0.060246998799039,3.46944695195361E-18,9.58522642265269E-5));
#504=CARTESIAN_POINT('',(0.0679939975980781,0.00265004534589631,9.58522642265269E-5));
#505=CARTESIAN_POINT('',(0.0719939975980781,0.00230009069179262,9.58522642265269E-5));
#506=CARTESIAN_POINT('',(0.0719939975980781,5.20417042793042E-18,9.58522642265269E-5));
#507=CARTESIAN_POINT('',(0.0719939975980781,-0.00230009069179261,9.58522642265269E-5));
#508=CARTESIAN_POINT('',(0.0679939975980781,-0.00265004534589631,9.58522642265269E-5));
#509=CARTESIAN_POINT('',(0.060246998799039,2.46484682141269E-18,9.58522642265269E-5));
#510=CARTESIAN_POINT('',(0.060246998799039,2.46484682141269E-18,0.00259585226422652));
#511=CARTESIAN_POINT('',(0.060246998799039,2.46484682141269E-18,0.0044933118181224));
#512=CARTESIAN_POINT('',(0.060246998799039,2.46484682141269E-18,0.000698392710330653));
#513=CARTESIAN_POINT('',(0.060246998799039,2.46484682141269E-18,0.00509585226422653));
#514=CARTESIAN_POINT('',(0.060246998799039,2.46484682141269E-18,0.000698392710330653));
#515=CARTESIAN_POINT('',(0.0679939975980781,0.00265004534589631,9.3852264226528E-5));
#516=CARTESIAN_POINT('',(0.0719939975980781,0.00230009069179262,9.3852264226528E-5));
#517=CARTESIAN_POINT('',(0.0719939975980781,5.20417042793042E-18,9.3852264226528E-5));
#518=CARTESIAN_POINT('',(0.0719939975980781,5.20417042793042E-18,0.00259585226422652));
#519=CARTESIAN_POINT('',(0.0719939975980781,5.20417042793042E-18,0.000345852264226525));
#520=CARTESIAN_POINT('',(0.0719939975980781,-0.00230009069179261,9.3852264226528E-5));
#521=CARTESIAN_POINT('',(0.0679939975980781,-0.00265004534589631,9.3852264226528E-5));
#522=CARTESIAN_POINT('',(0.0764939975980781,5.20417042793042E-18,0.00259585226422652));
#523=CARTESIAN_POINT('',(0.0745096841147796,5.20417042793042E-18,0.00259585226422652));
#524=CARTESIAN_POINT('',(0.0745096841147796,5.20417042793042E-18,0.000345852264226525));
#525=CARTESIAN_POINT('',(0.0764939975980781,5.02047340805832E-18,0.00259585226422652));
#526=CARTESIAN_POINT('',(0.0679939975980781,0.002,0.00909585226422653));
#527=CARTESIAN_POINT('',(0.0679939975980781,0.002,0.00909585226422653));
#528=CARTESIAN_POINT('',(0.0679939975980781,0.002,0.00909585226422653));
#529=CARTESIAN_POINT('',(0.0679939975980781,0.002,0.00909585226422653));
#530=CARTESIAN_POINT('',(0.0689939975980781,0.023,0.00709585226422654));
#531=CARTESIAN_POINT('',(0.0679939975980781,0.023,0.00909585226422653));
#532=CARTESIAN_POINT('',(0.0669939975980781,0.023,0.00709585226422652));
#533=MECHANICAL_DESIGN_GEOMETRIC_PRESENTATION_REPRESENTATION('',(#312),
#534);
#534=(
GEOMETRIC_REPRESENTATION_CONTEXT(3)
GLOBAL_UNCERTAINTY_ASSIGNED_CONTEXT((#535))
GLOBAL_UNIT_ASSIGNED_CONTEXT((#538,#537,#536))
REPRESENTATION_CONTEXT('TailTwo','TOP_LEVEL_ASSEMBLY_PART')
);
#535=UNCERTAINTY_MEASURE_WITH_UNIT(LENGTH_MEASURE(1.E-8),#538,
'DISTANCE_ACCURACY_VALUE','Maximum Tolerance applied to model');
#536=(
NAMED_UNIT(*)
SI_UNIT($,.STERADIAN.)
SOLID_ANGLE_UNIT()
);
#537=(
NAMED_UNIT(*)
PLANE_ANGLE_UNIT()
SI_UNIT($,.RADIAN.)
);
#538=(
LENGTH_UNIT()
NAMED_UNIT(*)
SI_UNIT($,.METRE.)
);
#539=PRODUCT_DEFINITION_SHAPE('','',#540);
#540=PRODUCT_DEFINITION('','',#542,#541);
#541=PRODUCT_DEFINITION_CONTEXT('',#548,'design');
#542=PRODUCT_DEFINITION_FORMATION_WITH_SPECIFIED_SOURCE('','',#544,
 .NOT_KNOWN.);
#543=PRODUCT_RELATED_PRODUCT_CATEGORY('','',(#544));
#544=PRODUCT('TailTwo','TailTwo','TailTwo',(#546));
#545=PRODUCT_CATEGORY('','');
#546=PRODUCT_CONTEXT('',#548,'mechanical');
#547=APPLICATION_PROTOCOL_DEFINITION('international standard',
'ap242_managed_model_based_3d_engineering',2020,#548);
#548=APPLICATION_CONTEXT('managed model based 3d engineering');
ENDSEC;
END-ISO-10303-21;
