ISO-10303-21;
HEADER;
/* Generated by software containing ST-Developer
 * from STEP Tools, Inc. (www.steptools.com) 
 */
/* OPTION: using custom renumber hook */

FILE_DESCRIPTION(
/* description */ ('STEP AP242 Edition 2',
'CAx-IF Rec.Pracs.---Representation and Presentation of Product Manufa
cturing Information (PMI)---4.0---2014-10-13',
'CAx-IF Rec.Pracs.---3D Tessellated Geometry---0.4---2014-09-14','2;1',
'CAx-IF Rec.Pracs.---User Defined Attributes---1.5---2016-08-15'),
/* implementation_level */ '2;1');

FILE_NAME(
/* name */ '69840737e5e25d2aa247ca11',
/* time_stamp */ '2026-02-05T02:58:00Z',
/* author */ (''),
/* organization */ (''),
/* preprocessor_version */ 'ST-DEVELOPER v20',
/* originating_system */ 'ONSHAPE BY PTC INC, 1.210',
/* authorisation */ '  ');

FILE_SCHEMA (('AP242_MANAGED_MODEL_BASED_3D_ENGINEERING_MIM_LF { 1 0 10303 442 3 1 4 }'));
ENDSEC;

DATA;
#10=SHAPE_REPRESENTATION_RELATIONSHIP('','',#287,#11);
#11=ADVANCED_BREP_SHAPE_REPRESENTATION('',(#285),#445);
#12=ORIENTED_EDGE('',*,*,#84,.F.);
#13=ORIENTED_EDGE('',*,*,#85,.T.);
#14=ORIENTED_EDGE('',*,*,#86,.T.);
#15=ORIENTED_EDGE('',*,*,#87,.F.);
#16=ORIENTED_EDGE('',*,*,#88,.F.);
#17=ORIENTED_EDGE('',*,*,#87,.T.);
#18=ORIENTED_EDGE('',*,*,#89,.T.);
#19=ORIENTED_EDGE('',*,*,#90,.F.);
#20=ORIENTED_EDGE('',*,*,#91,.F.);
#21=ORIENTED_EDGE('',*,*,#90,.T.);
#22=ORIENTED_EDGE('',*,*,#92,.T.);
#23=ORIENTED_EDGE('',*,*,#93,.F.);
#24=ORIENTED_EDGE('',*,*,#94,.F.);
#25=ORIENTED_EDGE('',*,*,#93,.T.);
#26=ORIENTED_EDGE('',*,*,#95,.T.);
#27=ORIENTED_EDGE('',*,*,#96,.F.);
#28=ORIENTED_EDGE('',*,*,#97,.F.);
#29=ORIENTED_EDGE('',*,*,#96,.T.);
#30=ORIENTED_EDGE('',*,*,#98,.T.);
#31=ORIENTED_EDGE('',*,*,#99,.F.);
#32=ORIENTED_EDGE('',*,*,#100,.F.);
#33=ORIENTED_EDGE('',*,*,#101,.T.);
#34=ORIENTED_EDGE('',*,*,#102,.T.);
#35=ORIENTED_EDGE('',*,*,#103,.F.);
#36=ORIENTED_EDGE('',*,*,#104,.F.);
#37=ORIENTED_EDGE('',*,*,#105,.T.);
#38=ORIENTED_EDGE('',*,*,#100,.T.);
#39=ORIENTED_EDGE('',*,*,#106,.F.);
#40=ORIENTED_EDGE('',*,*,#107,.F.);
#41=ORIENTED_EDGE('',*,*,#108,.T.);
#42=ORIENTED_EDGE('',*,*,#104,.T.);
#43=ORIENTED_EDGE('',*,*,#109,.F.);
#44=ORIENTED_EDGE('',*,*,#110,.F.);
#45=ORIENTED_EDGE('',*,*,#111,.T.);
#46=ORIENTED_EDGE('',*,*,#107,.T.);
#47=ORIENTED_EDGE('',*,*,#112,.F.);
#48=ORIENTED_EDGE('',*,*,#113,.F.);
#49=ORIENTED_EDGE('',*,*,#114,.T.);
#50=ORIENTED_EDGE('',*,*,#110,.T.);
#51=ORIENTED_EDGE('',*,*,#115,.F.);
#52=ORIENTED_EDGE('',*,*,#102,.F.);
#53=ORIENTED_EDGE('',*,*,#116,.T.);
#54=ORIENTED_EDGE('',*,*,#113,.T.);
#55=ORIENTED_EDGE('',*,*,#117,.F.);
#56=ORIENTED_EDGE('',*,*,#118,.F.);
#57=ORIENTED_EDGE('',*,*,#99,.T.);
#58=ORIENTED_EDGE('',*,*,#119,.T.);
#59=ORIENTED_EDGE('',*,*,#85,.F.);
#60=ORIENTED_EDGE('',*,*,#103,.T.);
#61=ORIENTED_EDGE('',*,*,#117,.T.);
#62=ORIENTED_EDGE('',*,*,#115,.T.);
#63=ORIENTED_EDGE('',*,*,#112,.T.);
#64=ORIENTED_EDGE('',*,*,#109,.T.);
#65=ORIENTED_EDGE('',*,*,#106,.T.);
#66=ORIENTED_EDGE('',*,*,#86,.F.);
#67=ORIENTED_EDGE('',*,*,#119,.F.);
#68=ORIENTED_EDGE('',*,*,#98,.F.);
#69=ORIENTED_EDGE('',*,*,#95,.F.);
#70=ORIENTED_EDGE('',*,*,#92,.F.);
#71=ORIENTED_EDGE('',*,*,#89,.F.);
#72=ORIENTED_EDGE('',*,*,#118,.T.);
#73=ORIENTED_EDGE('',*,*,#84,.T.);
#74=ORIENTED_EDGE('',*,*,#88,.T.);
#75=ORIENTED_EDGE('',*,*,#91,.T.);
#76=ORIENTED_EDGE('',*,*,#94,.T.);
#77=ORIENTED_EDGE('',*,*,#97,.T.);
#78=ORIENTED_EDGE('',*,*,#101,.F.);
#79=ORIENTED_EDGE('',*,*,#105,.F.);
#80=ORIENTED_EDGE('',*,*,#108,.F.);
#81=ORIENTED_EDGE('',*,*,#111,.F.);
#82=ORIENTED_EDGE('',*,*,#114,.F.);
#83=ORIENTED_EDGE('',*,*,#116,.F.);
#84=EDGE_CURVE('',#120,#121,#144,.T.);
#85=EDGE_CURVE('',#120,#122,#145,.T.);
#86=EDGE_CURVE('',#122,#123,#146,.T.);
#87=EDGE_CURVE('',#121,#123,#147,.T.);
#88=EDGE_CURVE('',#121,#124,#148,.T.);
#89=EDGE_CURVE('',#123,#125,#149,.T.);
#90=EDGE_CURVE('',#124,#125,#150,.T.);
#91=EDGE_CURVE('',#124,#126,#151,.T.);
#92=EDGE_CURVE('',#125,#127,#152,.T.);
#93=EDGE_CURVE('',#126,#127,#153,.T.);
#94=EDGE_CURVE('',#126,#128,#154,.T.);
#95=EDGE_CURVE('',#127,#129,#155,.T.);
#96=EDGE_CURVE('',#128,#129,#156,.T.);
#97=EDGE_CURVE('',#128,#130,#157,.T.);
#98=EDGE_CURVE('',#129,#131,#158,.T.);
#99=EDGE_CURVE('',#130,#131,#159,.T.);
#100=EDGE_CURVE('',#132,#133,#160,.T.);
#101=EDGE_CURVE('',#132,#134,#161,.T.);
#102=EDGE_CURVE('',#134,#135,#162,.T.);
#103=EDGE_CURVE('',#133,#135,#163,.T.);
#104=EDGE_CURVE('',#136,#137,#164,.T.);
#105=EDGE_CURVE('',#136,#132,#165,.T.);
#106=EDGE_CURVE('',#137,#133,#166,.T.);
#107=EDGE_CURVE('',#138,#139,#167,.T.);
#108=EDGE_CURVE('',#138,#136,#168,.T.);
#109=EDGE_CURVE('',#139,#137,#169,.T.);
#110=EDGE_CURVE('',#140,#141,#170,.T.);
#111=EDGE_CURVE('',#140,#138,#171,.T.);
#112=EDGE_CURVE('',#141,#139,#172,.T.);
#113=EDGE_CURVE('',#142,#143,#173,.T.);
#114=EDGE_CURVE('',#142,#140,#174,.T.);
#115=EDGE_CURVE('',#143,#141,#175,.T.);
#116=EDGE_CURVE('',#134,#142,#176,.T.);
#117=EDGE_CURVE('',#135,#143,#177,.T.);
#118=EDGE_CURVE('',#130,#120,#178,.T.);
#119=EDGE_CURVE('',#131,#122,#179,.T.);
#120=VERTEX_POINT('',#372);
#121=VERTEX_POINT('',#373);
#122=VERTEX_POINT('',#375);
#123=VERTEX_POINT('',#377);
#124=VERTEX_POINT('',#381);
#125=VERTEX_POINT('',#383);
#126=VERTEX_POINT('',#387);
#127=VERTEX_POINT('',#389);
#128=VERTEX_POINT('',#393);
#129=VERTEX_POINT('',#395);
#130=VERTEX_POINT('',#399);
#131=VERTEX_POINT('',#401);
#132=VERTEX_POINT('',#405);
#133=VERTEX_POINT('',#406);
#134=VERTEX_POINT('',#408);
#135=VERTEX_POINT('',#410);
#136=VERTEX_POINT('',#414);
#137=VERTEX_POINT('',#415);
#138=VERTEX_POINT('',#420);
#139=VERTEX_POINT('',#421);
#140=VERTEX_POINT('',#426);
#141=VERTEX_POINT('',#427);
#142=VERTEX_POINT('',#432);
#143=VERTEX_POINT('',#433);
#144=LINE('',#371,#180);
#145=LINE('',#374,#181);
#146=LINE('',#376,#182);
#147=LINE('',#378,#183);
#148=LINE('',#380,#184);
#149=LINE('',#382,#185);
#150=LINE('',#384,#186);
#151=LINE('',#386,#187);
#152=LINE('',#388,#188);
#153=LINE('',#390,#189);
#154=LINE('',#392,#190);
#155=LINE('',#394,#191);
#156=LINE('',#396,#192);
#157=LINE('',#398,#193);
#158=LINE('',#400,#194);
#159=LINE('',#402,#195);
#160=LINE('',#404,#196);
#161=LINE('',#407,#197);
#162=LINE('',#409,#198);
#163=LINE('',#411,#199);
#164=LINE('',#413,#200);
#165=LINE('',#416,#201);
#166=LINE('',#417,#202);
#167=LINE('',#419,#203);
#168=LINE('',#422,#204);
#169=LINE('',#423,#205);
#170=LINE('',#425,#206);
#171=LINE('',#428,#207);
#172=LINE('',#429,#208);
#173=LINE('',#431,#209);
#174=LINE('',#434,#210);
#175=LINE('',#435,#211);
#176=LINE('',#437,#212);
#177=LINE('',#438,#213);
#178=LINE('',#440,#214);
#179=LINE('',#441,#215);
#180=VECTOR('',#307,1.);
#181=VECTOR('',#308,1.);
#182=VECTOR('',#309,1.);
#183=VECTOR('',#310,1.);
#184=VECTOR('',#313,1.);
#185=VECTOR('',#314,1.);
#186=VECTOR('',#315,1.);
#187=VECTOR('',#318,1.);
#188=VECTOR('',#319,1.);
#189=VECTOR('',#320,1.);
#190=VECTOR('',#323,1.);
#191=VECTOR('',#324,1.);
#192=VECTOR('',#325,1.);
#193=VECTOR('',#328,1.);
#194=VECTOR('',#329,1.);
#195=VECTOR('',#330,1.);
#196=VECTOR('',#333,1.);
#197=VECTOR('',#334,1.);
#198=VECTOR('',#335,1.);
#199=VECTOR('',#336,1.);
#200=VECTOR('',#339,1.);
#201=VECTOR('',#340,1.);
#202=VECTOR('',#341,1.);
#203=VECTOR('',#344,1.);
#204=VECTOR('',#345,1.);
#205=VECTOR('',#346,1.);
#206=VECTOR('',#349,1.);
#207=VECTOR('',#350,1.);
#208=VECTOR('',#351,1.);
#209=VECTOR('',#354,1.);
#210=VECTOR('',#355,1.);
#211=VECTOR('',#356,1.);
#212=VECTOR('',#359,1.);
#213=VECTOR('',#360,1.);
#214=VECTOR('',#363,1.);
#215=VECTOR('',#364,1.);
#216=EDGE_LOOP('',(#12,#13,#14,#15));
#217=EDGE_LOOP('',(#16,#17,#18,#19));
#218=EDGE_LOOP('',(#20,#21,#22,#23));
#219=EDGE_LOOP('',(#24,#25,#26,#27));
#220=EDGE_LOOP('',(#28,#29,#30,#31));
#221=EDGE_LOOP('',(#32,#33,#34,#35));
#222=EDGE_LOOP('',(#36,#37,#38,#39));
#223=EDGE_LOOP('',(#40,#41,#42,#43));
#224=EDGE_LOOP('',(#44,#45,#46,#47));
#225=EDGE_LOOP('',(#48,#49,#50,#51));
#226=EDGE_LOOP('',(#52,#53,#54,#55));
#227=EDGE_LOOP('',(#56,#57,#58,#59));
#228=EDGE_LOOP('',(#60,#61,#62,#63,#64,#65));
#229=EDGE_LOOP('',(#66,#67,#68,#69,#70,#71));
#230=EDGE_LOOP('',(#72,#73,#74,#75,#76,#77));
#231=EDGE_LOOP('',(#78,#79,#80,#81,#82,#83));
#232=FACE_BOUND('',#216,.T.);
#233=FACE_BOUND('',#217,.T.);
#234=FACE_BOUND('',#218,.T.);
#235=FACE_BOUND('',#219,.T.);
#236=FACE_BOUND('',#220,.T.);
#237=FACE_BOUND('',#221,.T.);
#238=FACE_BOUND('',#222,.T.);
#239=FACE_BOUND('',#223,.T.);
#240=FACE_BOUND('',#224,.T.);
#241=FACE_BOUND('',#225,.T.);
#242=FACE_BOUND('',#226,.T.);
#243=FACE_BOUND('',#227,.T.);
#244=FACE_BOUND('',#228,.T.);
#245=FACE_BOUND('',#229,.T.);
#246=FACE_BOUND('',#230,.T.);
#247=FACE_BOUND('',#231,.T.);
#248=PLANE('',#289);
#249=PLANE('',#290);
#250=PLANE('',#291);
#251=PLANE('',#292);
#252=PLANE('',#293);
#253=PLANE('',#294);
#254=PLANE('',#295);
#255=PLANE('',#296);
#256=PLANE('',#297);
#257=PLANE('',#298);
#258=PLANE('',#299);
#259=PLANE('',#300);
#260=PLANE('',#301);
#261=PLANE('',#302);
#262=ADVANCED_FACE('',(#232),#248,.F.);
#263=ADVANCED_FACE('',(#233),#249,.F.);
#264=ADVANCED_FACE('',(#234),#250,.F.);
#265=ADVANCED_FACE('',(#235),#251,.F.);
#266=ADVANCED_FACE('',(#236),#252,.F.);
#267=ADVANCED_FACE('',(#237),#253,.T.);
#268=ADVANCED_FACE('',(#238),#254,.T.);
#269=ADVANCED_FACE('',(#239),#255,.T.);
#270=ADVANCED_FACE('',(#240),#256,.T.);
#271=ADVANCED_FACE('',(#241),#257,.T.);
#272=ADVANCED_FACE('',(#242),#258,.T.);
#273=ADVANCED_FACE('',(#243),#259,.F.);
#274=ADVANCED_FACE('',(#244,#245),#260,.F.);
#275=ADVANCED_FACE('',(#246,#247),#261,.T.);
#276=CLOSED_SHELL('',(#262,#263,#264,#265,#266,#267,#268,#269,#270,#271,
#272,#273,#274,#275));
#277=STYLED_ITEM('',(#278),#285);
#278=PRESENTATION_STYLE_ASSIGNMENT((#279));
#279=SURFACE_STYLE_USAGE(.BOTH.,#280);
#280=SURFACE_SIDE_STYLE('',(#281));
#281=SURFACE_STYLE_FILL_AREA(#282);
#282=FILL_AREA_STYLE('',(#283));
#283=FILL_AREA_STYLE_COLOUR('',#284);
#284=COLOUR_RGB('',0.262745098039216,0.282352941176471,0.301960784313725);
#285=MANIFOLD_SOLID_BREP('EarthArm',#276);
#286=SHAPE_DEFINITION_REPRESENTATION(#450,#287);
#287=SHAPE_REPRESENTATION('EarthArm',(#288),#445);
#288=AXIS2_PLACEMENT_3D('',#369,#303,#304);
#289=AXIS2_PLACEMENT_3D('',#370,#305,#306);
#290=AXIS2_PLACEMENT_3D('',#379,#311,#312);
#291=AXIS2_PLACEMENT_3D('',#385,#316,#317);
#292=AXIS2_PLACEMENT_3D('',#391,#321,#322);
#293=AXIS2_PLACEMENT_3D('',#397,#326,#327);
#294=AXIS2_PLACEMENT_3D('',#403,#331,#332);
#295=AXIS2_PLACEMENT_3D('',#412,#337,#338);
#296=AXIS2_PLACEMENT_3D('',#418,#342,#343);
#297=AXIS2_PLACEMENT_3D('',#424,#347,#348);
#298=AXIS2_PLACEMENT_3D('',#430,#352,#353);
#299=AXIS2_PLACEMENT_3D('',#436,#357,#358);
#300=AXIS2_PLACEMENT_3D('',#439,#361,#362);
#301=AXIS2_PLACEMENT_3D('',#442,#365,#366);
#302=AXIS2_PLACEMENT_3D('',#443,#367,#368);
#303=DIRECTION('',(0.,0.,1.));
#304=DIRECTION('',(1.,0.,0.));
#305=DIRECTION('',(0.5,-0.866025403784439,0.));
#306=DIRECTION('',(0.866025403784439,0.5,0.));
#307=DIRECTION('',(-0.866025403784439,-0.5,0.));
#308=DIRECTION('',(0.,0.,-1.));
#309=DIRECTION('',(-0.866025403784439,-0.5,0.));
#310=DIRECTION('',(0.,0.,-1.));
#311=DIRECTION('',(1.,0.,0.));
#312=DIRECTION('',(0.,0.,-1.));
#313=DIRECTION('',(0.,-1.,0.));
#314=DIRECTION('',(0.,-1.,0.));
#315=DIRECTION('',(0.,0.,-1.));
#316=DIRECTION('',(0.5,0.866025403784439,0.));
#317=DIRECTION('',(-0.866025403784439,0.5,0.));
#318=DIRECTION('',(0.866025403784439,-0.5,0.));
#319=DIRECTION('',(0.866025403784439,-0.5,0.));
#320=DIRECTION('',(0.,0.,-1.));
#321=DIRECTION('',(-0.5,0.866025403784439,0.));
#322=DIRECTION('',(-0.866025403784439,-0.5,0.));
#323=DIRECTION('',(0.866025403784439,0.5,0.));
#324=DIRECTION('',(0.866025403784439,0.5,0.));
#325=DIRECTION('',(0.,0.,-1.));
#326=DIRECTION('',(-1.,-3.80332809806876E-16,0.));
#327=DIRECTION('',(3.80332809806876E-16,-1.,0.));
#328=DIRECTION('',(-3.80332809806876E-16,1.,0.));
#329=DIRECTION('',(-3.80332809806876E-16,1.,0.));
#330=DIRECTION('',(0.,0.,-1.));
#331=DIRECTION('',(1.,-4.5524684810217E-16,0.));
#332=DIRECTION('',(4.5524684810217E-16,1.,0.));
#333=DIRECTION('',(0.,0.,-1.));
#334=DIRECTION('',(-4.5524684810217E-16,-1.,0.));
#335=DIRECTION('',(0.,0.,-1.));
#336=DIRECTION('',(-4.5524684810217E-16,-1.,0.));
#337=DIRECTION('',(0.5,-0.866025403784439,0.));
#338=DIRECTION('',(0.866025403784439,0.5,0.));
#339=DIRECTION('',(0.,0.,-1.));
#340=DIRECTION('',(-0.866025403784439,-0.5,0.));
#341=DIRECTION('',(-0.866025403784439,-0.5,0.));
#342=DIRECTION('',(-0.5,-0.866025403784438,0.));
#343=DIRECTION('',(0.866025403784439,-0.5,0.));
#344=DIRECTION('',(0.,0.,-1.));
#345=DIRECTION('',(-0.866025403784439,0.5,0.));
#346=DIRECTION('',(-0.866025403784439,0.5,0.));
#347=DIRECTION('',(-1.,9.10493696204339E-16,0.));
#348=DIRECTION('',(-9.10493696204339E-16,-1.,0.));
#349=DIRECTION('',(0.,0.,-1.));
#350=DIRECTION('',(9.10493696204339E-16,1.,0.));
#351=DIRECTION('',(9.10493696204339E-16,1.,0.));
#352=DIRECTION('',(-0.5,0.866025403784439,0.));
#353=DIRECTION('',(-0.866025403784439,-0.5,0.));
#354=DIRECTION('',(0.,0.,-1.));
#355=DIRECTION('',(0.866025403784439,0.5,0.));
#356=DIRECTION('',(0.866025403784439,0.5,0.));
#357=DIRECTION('',(0.5,0.866025403784438,0.));
#358=DIRECTION('',(-0.866025403784438,0.5,0.));
#359=DIRECTION('',(0.866025403784438,-0.5,0.));
#360=DIRECTION('',(0.866025403784438,-0.5,0.));
#361=DIRECTION('',(-0.5,-0.866025403784439,0.));
#362=DIRECTION('',(0.866025403784439,-0.5,0.));
#363=DIRECTION('',(-0.866025403784439,0.5,0.));
#364=DIRECTION('',(-0.866025403784439,0.5,0.));
#365=DIRECTION('',(0.,0.,1.));
#366=DIRECTION('',(1.,0.,0.));
#367=DIRECTION('',(0.,0.,1.));
#368=DIRECTION('',(1.,0.,0.));
#369=CARTESIAN_POINT('',(0.,0.,0.));
#370=CARTESIAN_POINT('',(-0.00790000000010451,0.0136832013796678,0.005002));
#371=CARTESIAN_POINT('',(-0.00790000000010451,0.0136832013796678,0.005));
#372=CARTESIAN_POINT('',(-1.04503211639795E-13,0.0182442685062658,0.005));
#373=CARTESIAN_POINT('',(-0.0158000000001045,0.00912213425306974,0.005));
#374=CARTESIAN_POINT('',(-1.04503211639795E-13,0.0182442685062658,0.005002));
#375=CARTESIAN_POINT('',(-1.04503211639795E-13,0.0182442685062658,0.003));
#376=CARTESIAN_POINT('',(-0.00790000000010451,0.0136832013796678,0.003));
#377=CARTESIAN_POINT('',(-0.0158000000001045,0.00912213425306974,0.003));
#378=CARTESIAN_POINT('',(-0.0158000000001045,0.00912213425306974,0.005002));
#379=CARTESIAN_POINT('',(-0.0158000000001045,-1.26348584372771E-13,0.005002));
#380=CARTESIAN_POINT('',(-0.0158000000001045,-1.26348584372771E-13,0.005));
#381=CARTESIAN_POINT('',(-0.0158000000001045,-0.00912213425332244,0.005));
#382=CARTESIAN_POINT('',(-0.0158000000001045,-1.26348584372771E-13,0.003));
#383=CARTESIAN_POINT('',(-0.0158000000001045,-0.00912213425332244,0.003));
#384=CARTESIAN_POINT('',(-0.0158000000001045,-0.00912213425332244,0.005002));
#385=CARTESIAN_POINT('',(-0.00790000000010451,-0.0136832013799205,0.005002));
#386=CARTESIAN_POINT('',(-0.00790000000010451,-0.0136832013799205,0.005));
#387=CARTESIAN_POINT('',(-1.04513619980651E-13,-0.0182442685065185,0.005));
#388=CARTESIAN_POINT('',(-0.00790000000010451,-0.0136832013799205,0.003));
#389=CARTESIAN_POINT('',(-1.04513619980651E-13,-0.0182442685065185,0.003));
#390=CARTESIAN_POINT('',(-1.04513619980651E-13,-0.0182442685065185,0.005002));
#391=CARTESIAN_POINT('',(0.0078999999998955,-0.0136832013799205,0.005002));
#392=CARTESIAN_POINT('',(0.0078999999998955,-0.0136832013799205,0.005));
#393=CARTESIAN_POINT('',(0.0157999999998955,-0.00912213425332243,0.005));
#394=CARTESIAN_POINT('',(0.0078999999998955,-0.0136832013799205,0.003));
#395=CARTESIAN_POINT('',(0.0157999999998955,-0.00912213425332243,0.003));
#396=CARTESIAN_POINT('',(0.0157999999998955,-0.00912213425332243,0.005002));
#397=CARTESIAN_POINT('',(0.0157999999998955,-1.26345114925819E-13,0.005002));
#398=CARTESIAN_POINT('',(0.0157999999998955,-1.26345114925819E-13,0.005));
#399=CARTESIAN_POINT('',(0.0157999999998955,0.00912213425306974,0.005));
#400=CARTESIAN_POINT('',(0.0157999999998955,-1.26345114925819E-13,0.003));
#401=CARTESIAN_POINT('',(0.0157999999998955,0.00912213425306974,0.003));
#402=CARTESIAN_POINT('',(0.0157999999998955,0.00912213425306974,0.005002));
#403=CARTESIAN_POINT('',(-0.0132000000001045,-1.26344247564081E-13,0.005002));
#404=CARTESIAN_POINT('',(-0.0132000000001045,0.00762102355317671,0.005002));
#405=CARTESIAN_POINT('',(-0.0132000000001045,0.00762102355317671,0.005));
#406=CARTESIAN_POINT('',(-0.0132000000001045,0.00762102355317671,0.003));
#407=CARTESIAN_POINT('',(-0.0132000000001045,-1.26344247564081E-13,0.005));
#408=CARTESIAN_POINT('',(-0.0132000000001045,-0.0076210235534294,0.005));
#409=CARTESIAN_POINT('',(-0.0132000000001045,-0.0076210235534294,0.005002));
#410=CARTESIAN_POINT('',(-0.0132000000001045,-0.0076210235534294,0.003));
#411=CARTESIAN_POINT('',(-0.0132000000001045,-1.26344247564081E-13,0.003));
#412=CARTESIAN_POINT('',(-0.0066000000001045,0.0114315353298282,0.005002));
#413=CARTESIAN_POINT('',(-1.04491935937201E-13,0.0152420471064798,0.005002));
#414=CARTESIAN_POINT('',(-1.04491935937201E-13,0.0152420471064798,0.005));
#415=CARTESIAN_POINT('',(-1.04491935937201E-13,0.0152420471064798,0.003));
#416=CARTESIAN_POINT('',(-0.0066000000001045,0.0114315353298282,0.005));
#417=CARTESIAN_POINT('',(-0.0066000000001045,0.0114315353298282,0.003));
#418=CARTESIAN_POINT('',(0.0065999999998955,0.0114315353298282,0.005002));
#419=CARTESIAN_POINT('',(0.0131999999998955,0.0076210235531767,0.005002));
#420=CARTESIAN_POINT('',(0.0131999999998955,0.0076210235531767,0.005));
#421=CARTESIAN_POINT('',(0.0131999999998955,0.0076210235531767,0.003));
#422=CARTESIAN_POINT('',(0.0065999999998955,0.0114315353298282,0.005));
#423=CARTESIAN_POINT('',(0.0065999999998955,0.0114315353298282,0.003));
#424=CARTESIAN_POINT('',(0.0131999999998955,-1.26356390628413E-13,0.005002));
#425=CARTESIAN_POINT('',(0.0131999999998955,-0.00762102355342942,0.005002));
#426=CARTESIAN_POINT('',(0.0131999999998955,-0.00762102355342942,0.005));
#427=CARTESIAN_POINT('',(0.0131999999998955,-0.00762102355342942,0.003));
#428=CARTESIAN_POINT('',(0.0131999999998955,-1.26356390628413E-13,0.005));
#429=CARTESIAN_POINT('',(0.0131999999998955,-1.26356390628413E-13,0.003));
#430=CARTESIAN_POINT('',(0.00659999999989549,-0.0114315353300809,0.005002));
#431=CARTESIAN_POINT('',(-1.04515354704127E-13,-0.0152420471067324,0.005002));
#432=CARTESIAN_POINT('',(-1.04515354704127E-13,-0.0152420471067324,0.005));
#433=CARTESIAN_POINT('',(-1.04515354704127E-13,-0.0152420471067324,0.003));
#434=CARTESIAN_POINT('',(0.00659999999989549,-0.0114315353300809,0.005));
#435=CARTESIAN_POINT('',(0.00659999999989549,-0.0114315353300809,0.003));
#436=CARTESIAN_POINT('',(-0.00660000000010451,-0.0114315353300809,0.005002));
#437=CARTESIAN_POINT('',(-0.00660000000010451,-0.0114315353300809,0.005));
#438=CARTESIAN_POINT('',(-0.00660000000010451,-0.0114315353300809,0.003));
#439=CARTESIAN_POINT('',(0.00789999999989549,0.0136832013796678,0.005002));
#440=CARTESIAN_POINT('',(0.00789999999989549,0.0136832013796678,0.005));
#441=CARTESIAN_POINT('',(0.00789999999989549,0.0136832013796678,0.003));
#442=CARTESIAN_POINT('',(-1.04499742192843E-13,-1.26346849649295E-13,0.003));
#443=CARTESIAN_POINT('',(0.,0.,0.005));
#444=MECHANICAL_DESIGN_GEOMETRIC_PRESENTATION_REPRESENTATION('',(#277),
#445);
#445=(
GEOMETRIC_REPRESENTATION_CONTEXT(3)
GLOBAL_UNCERTAINTY_ASSIGNED_CONTEXT((#446))
GLOBAL_UNIT_ASSIGNED_CONTEXT((#449,#448,#447))
REPRESENTATION_CONTEXT('EarthArm','TOP_LEVEL_ASSEMBLY_PART')
);
#446=UNCERTAINTY_MEASURE_WITH_UNIT(LENGTH_MEASURE(1.E-8),#449,
'DISTANCE_ACCURACY_VALUE','Maximum Tolerance applied to model');
#447=(
NAMED_UNIT(*)
SI_UNIT($,.STERADIAN.)
SOLID_ANGLE_UNIT()
);
#448=(
NAMED_UNIT(*)
PLANE_ANGLE_UNIT()
SI_UNIT($,.RADIAN.)
);
#449=(
LENGTH_UNIT()
NAMED_UNIT(*)
SI_UNIT($,.METRE.)
);
#450=PRODUCT_DEFINITION_SHAPE('','',#451);
#451=PRODUCT_DEFINITION('','',#453,#452);
#452=PRODUCT_DEFINITION_CONTEXT('',#459,'design');
#453=PRODUCT_DEFINITION_FORMATION_WITH_SPECIFIED_SOURCE('','',#455,
 .NOT_KNOWN.);
#454=PRODUCT_RELATED_PRODUCT_CATEGORY('','',(#455));
#455=PRODUCT('EarthArm','EarthArm','EarthArm',(#457));
#456=PRODUCT_CATEGORY('','');
#457=PRODUCT_CONTEXT('',#459,'mechanical');
#458=APPLICATION_PROTOCOL_DEFINITION('international standard',
'ap242_managed_model_based_3d_engineering',2020,#459);
#459=APPLICATION_CONTEXT('managed model based 3d engineering');
ENDSEC;
END-ISO-10303-21;
