ISO-10303-21;
HEADER;
/* Generated by software containing ST-Developer
 * from STEP Tools, Inc. (www.steptools.com) 
 */
/* OPTION: using custom renumber hook */

FILE_DESCRIPTION(
/* description */ ('STEP AP242 Edition 2',
'CAx-IF Rec.Pracs.---Representation and Presentation of Product Manufa
cturing Information (PMI)---4.0---2014-10-13',
'CAx-IF Rec.Pracs.---3D Tessellated Geometry---0.4---2014-09-14','2;1',
'CAx-IF Rec.Pracs.---User Defined Attributes---1.5---2016-08-15'),
/* implementation_level */ '2;1');

FILE_NAME(
/* name */ '6984070ce5e25d2aa247c9c3',
/* time_stamp */ '2026-02-05T02:57:16Z',
/* author */ (''),
/* organization */ (''),
/* preprocessor_version */ 'ST-DEVELOPER v20',
/* originating_system */ 'ONSHAPE BY PTC INC, 1.210',
/* authorisation */ '  ');

FILE_SCHEMA (('AP242_MANAGED_MODEL_BASED_3D_ENGINEERING_MIM_LF { 1 0 10303 442 3 1 4 }'));
ENDSEC;

DATA;
#10=SHAPE_REPRESENTATION_RELATIONSHIP('','',#591,#11);
#11=ADVANCED_BREP_SHAPE_REPRESENTATION('',(#589),#967);
#12=CYLINDRICAL_SURFACE('',#631,0.154242013633122);
#13=CYLINDRICAL_SURFACE('',#633,0.154242013633122);
#14=CYLINDRICAL_SURFACE('',#635,0.154242013633122);
#15=CYLINDRICAL_SURFACE('',#637,0.154242013633122);
#16=ELLIPSE('',#597,0.154242540362792,0.154242013633122);
#17=ELLIPSE('',#599,0.154242540362792,0.154242013633122);
#18=ELLIPSE('',#606,0.154242540362792,0.154242013633122);
#19=ELLIPSE('',#608,0.154242540362792,0.154242013633122);
#20=ELLIPSE('',#615,0.154242540362792,0.154242013633122);
#21=ELLIPSE('',#617,0.154242540362792,0.154242013633122);
#22=ELLIPSE('',#624,0.154242540362792,0.154242013633122);
#23=ELLIPSE('',#626,0.154242540362792,0.154242013633122);
#24=CIRCLE('',#595,0.154242013633122);
#25=CIRCLE('',#601,0.154242013633122);
#26=CIRCLE('',#604,0.154242013633122);
#27=CIRCLE('',#610,0.154242013633122);
#28=CIRCLE('',#613,0.154242013633122);
#29=CIRCLE('',#619,0.154242013633122);
#30=CIRCLE('',#622,0.154242013633122);
#31=CIRCLE('',#628,0.154242013633122);
#32=ORIENTED_EDGE('',*,*,#196,.T.);
#33=ORIENTED_EDGE('',*,*,#197,.T.);
#34=ORIENTED_EDGE('',*,*,#198,.T.);
#35=ORIENTED_EDGE('',*,*,#199,.T.);
#36=ORIENTED_EDGE('',*,*,#200,.F.);
#37=ORIENTED_EDGE('',*,*,#201,.F.);
#38=ORIENTED_EDGE('',*,*,#202,.F.);
#39=ORIENTED_EDGE('',*,*,#203,.T.);
#40=ORIENTED_EDGE('',*,*,#204,.T.);
#41=ORIENTED_EDGE('',*,*,#205,.F.);
#42=ORIENTED_EDGE('',*,*,#206,.T.);
#43=ORIENTED_EDGE('',*,*,#200,.T.);
#44=ORIENTED_EDGE('',*,*,#207,.F.);
#45=ORIENTED_EDGE('',*,*,#208,.F.);
#46=ORIENTED_EDGE('',*,*,#209,.T.);
#47=ORIENTED_EDGE('',*,*,#210,.T.);
#48=ORIENTED_EDGE('',*,*,#205,.T.);
#49=ORIENTED_EDGE('',*,*,#211,.T.);
#50=ORIENTED_EDGE('',*,*,#212,.F.);
#51=ORIENTED_EDGE('',*,*,#213,.F.);
#52=ORIENTED_EDGE('',*,*,#214,.F.);
#53=ORIENTED_EDGE('',*,*,#209,.F.);
#54=ORIENTED_EDGE('',*,*,#208,.T.);
#55=ORIENTED_EDGE('',*,*,#215,.T.);
#56=ORIENTED_EDGE('',*,*,#216,.F.);
#57=ORIENTED_EDGE('',*,*,#217,.F.);
#58=ORIENTED_EDGE('',*,*,#212,.T.);
#59=ORIENTED_EDGE('',*,*,#218,.T.);
#60=ORIENTED_EDGE('',*,*,#219,.T.);
#61=ORIENTED_EDGE('',*,*,#220,.F.);
#62=ORIENTED_EDGE('',*,*,#221,.F.);
#63=ORIENTED_EDGE('',*,*,#222,.F.);
#64=ORIENTED_EDGE('',*,*,#216,.T.);
#65=ORIENTED_EDGE('',*,*,#223,.T.);
#66=ORIENTED_EDGE('',*,*,#224,.F.);
#67=ORIENTED_EDGE('',*,*,#225,.F.);
#68=ORIENTED_EDGE('',*,*,#226,.T.);
#69=ORIENTED_EDGE('',*,*,#220,.T.);
#70=ORIENTED_EDGE('',*,*,#219,.F.);
#71=ORIENTED_EDGE('',*,*,#224,.T.);
#72=ORIENTED_EDGE('',*,*,#227,.F.);
#73=ORIENTED_EDGE('',*,*,#228,.F.);
#74=ORIENTED_EDGE('',*,*,#229,.T.);
#75=ORIENTED_EDGE('',*,*,#225,.T.);
#76=ORIENTED_EDGE('',*,*,#230,.T.);
#77=ORIENTED_EDGE('',*,*,#231,.F.);
#78=ORIENTED_EDGE('',*,*,#232,.F.);
#79=ORIENTED_EDGE('',*,*,#233,.F.);
#80=ORIENTED_EDGE('',*,*,#228,.T.);
#81=ORIENTED_EDGE('',*,*,#234,.T.);
#82=ORIENTED_EDGE('',*,*,#235,.F.);
#83=ORIENTED_EDGE('',*,*,#236,.F.);
#84=ORIENTED_EDGE('',*,*,#231,.T.);
#85=ORIENTED_EDGE('',*,*,#237,.T.);
#86=ORIENTED_EDGE('',*,*,#238,.F.);
#87=ORIENTED_EDGE('',*,*,#239,.F.);
#88=ORIENTED_EDGE('',*,*,#240,.F.);
#89=ORIENTED_EDGE('',*,*,#235,.T.);
#90=ORIENTED_EDGE('',*,*,#241,.T.);
#91=ORIENTED_EDGE('',*,*,#242,.F.);
#92=ORIENTED_EDGE('',*,*,#243,.T.);
#93=ORIENTED_EDGE('',*,*,#238,.T.);
#94=ORIENTED_EDGE('',*,*,#244,.F.);
#95=ORIENTED_EDGE('',*,*,#245,.F.);
#96=ORIENTED_EDGE('',*,*,#246,.T.);
#97=ORIENTED_EDGE('',*,*,#247,.T.);
#98=ORIENTED_EDGE('',*,*,#242,.T.);
#99=ORIENTED_EDGE('',*,*,#248,.T.);
#100=ORIENTED_EDGE('',*,*,#249,.F.);
#101=ORIENTED_EDGE('',*,*,#250,.F.);
#102=ORIENTED_EDGE('',*,*,#251,.F.);
#103=ORIENTED_EDGE('',*,*,#246,.F.);
#104=ORIENTED_EDGE('',*,*,#245,.T.);
#105=ORIENTED_EDGE('',*,*,#252,.T.);
#106=ORIENTED_EDGE('',*,*,#253,.F.);
#107=ORIENTED_EDGE('',*,*,#254,.F.);
#108=ORIENTED_EDGE('',*,*,#249,.T.);
#109=ORIENTED_EDGE('',*,*,#255,.T.);
#110=ORIENTED_EDGE('',*,*,#256,.T.);
#111=ORIENTED_EDGE('',*,*,#257,.F.);
#112=ORIENTED_EDGE('',*,*,#258,.F.);
#113=ORIENTED_EDGE('',*,*,#259,.F.);
#114=ORIENTED_EDGE('',*,*,#253,.T.);
#115=ORIENTED_EDGE('',*,*,#260,.T.);
#116=ORIENTED_EDGE('',*,*,#261,.F.);
#117=ORIENTED_EDGE('',*,*,#262,.F.);
#118=ORIENTED_EDGE('',*,*,#263,.T.);
#119=ORIENTED_EDGE('',*,*,#257,.T.);
#120=ORIENTED_EDGE('',*,*,#256,.F.);
#121=ORIENTED_EDGE('',*,*,#261,.T.);
#122=ORIENTED_EDGE('',*,*,#264,.F.);
#123=ORIENTED_EDGE('',*,*,#265,.F.);
#124=ORIENTED_EDGE('',*,*,#266,.T.);
#125=ORIENTED_EDGE('',*,*,#262,.T.);
#126=ORIENTED_EDGE('',*,*,#267,.T.);
#127=ORIENTED_EDGE('',*,*,#268,.F.);
#128=ORIENTED_EDGE('',*,*,#269,.F.);
#129=ORIENTED_EDGE('',*,*,#270,.F.);
#130=ORIENTED_EDGE('',*,*,#265,.T.);
#131=ORIENTED_EDGE('',*,*,#271,.T.);
#132=ORIENTED_EDGE('',*,*,#203,.F.);
#133=ORIENTED_EDGE('',*,*,#272,.F.);
#134=ORIENTED_EDGE('',*,*,#268,.T.);
#135=ORIENTED_EDGE('',*,*,#273,.T.);
#136=ORIENTED_EDGE('',*,*,#204,.F.);
#137=ORIENTED_EDGE('',*,*,#273,.F.);
#138=ORIENTED_EDGE('',*,*,#271,.F.);
#139=ORIENTED_EDGE('',*,*,#267,.F.);
#140=ORIENTED_EDGE('',*,*,#264,.T.);
#141=ORIENTED_EDGE('',*,*,#260,.F.);
#142=ORIENTED_EDGE('',*,*,#255,.F.);
#143=ORIENTED_EDGE('',*,*,#252,.F.);
#144=ORIENTED_EDGE('',*,*,#248,.F.);
#145=ORIENTED_EDGE('',*,*,#244,.T.);
#146=ORIENTED_EDGE('',*,*,#241,.F.);
#147=ORIENTED_EDGE('',*,*,#237,.F.);
#148=ORIENTED_EDGE('',*,*,#234,.F.);
#149=ORIENTED_EDGE('',*,*,#230,.F.);
#150=ORIENTED_EDGE('',*,*,#227,.T.);
#151=ORIENTED_EDGE('',*,*,#223,.F.);
#152=ORIENTED_EDGE('',*,*,#218,.F.);
#153=ORIENTED_EDGE('',*,*,#215,.F.);
#154=ORIENTED_EDGE('',*,*,#211,.F.);
#155=ORIENTED_EDGE('',*,*,#207,.T.);
#156=ORIENTED_EDGE('',*,*,#226,.F.);
#157=ORIENTED_EDGE('',*,*,#196,.F.);
#158=ORIENTED_EDGE('',*,*,#210,.F.);
#159=ORIENTED_EDGE('',*,*,#214,.T.);
#160=ORIENTED_EDGE('',*,*,#274,.T.);
#161=ORIENTED_EDGE('',*,*,#221,.T.);
#162=ORIENTED_EDGE('',*,*,#274,.F.);
#163=ORIENTED_EDGE('',*,*,#213,.T.);
#164=ORIENTED_EDGE('',*,*,#217,.T.);
#165=ORIENTED_EDGE('',*,*,#222,.T.);
#166=ORIENTED_EDGE('',*,*,#206,.F.);
#167=ORIENTED_EDGE('',*,*,#199,.F.);
#168=ORIENTED_EDGE('',*,*,#266,.F.);
#169=ORIENTED_EDGE('',*,*,#270,.T.);
#170=ORIENTED_EDGE('',*,*,#275,.T.);
#171=ORIENTED_EDGE('',*,*,#201,.T.);
#172=ORIENTED_EDGE('',*,*,#275,.F.);
#173=ORIENTED_EDGE('',*,*,#269,.T.);
#174=ORIENTED_EDGE('',*,*,#272,.T.);
#175=ORIENTED_EDGE('',*,*,#202,.T.);
#176=ORIENTED_EDGE('',*,*,#263,.F.);
#177=ORIENTED_EDGE('',*,*,#198,.F.);
#178=ORIENTED_EDGE('',*,*,#247,.F.);
#179=ORIENTED_EDGE('',*,*,#251,.T.);
#180=ORIENTED_EDGE('',*,*,#276,.T.);
#181=ORIENTED_EDGE('',*,*,#258,.T.);
#182=ORIENTED_EDGE('',*,*,#276,.F.);
#183=ORIENTED_EDGE('',*,*,#250,.T.);
#184=ORIENTED_EDGE('',*,*,#254,.T.);
#185=ORIENTED_EDGE('',*,*,#259,.T.);
#186=ORIENTED_EDGE('',*,*,#243,.F.);
#187=ORIENTED_EDGE('',*,*,#197,.F.);
#188=ORIENTED_EDGE('',*,*,#229,.F.);
#189=ORIENTED_EDGE('',*,*,#233,.T.);
#190=ORIENTED_EDGE('',*,*,#277,.T.);
#191=ORIENTED_EDGE('',*,*,#239,.T.);
#192=ORIENTED_EDGE('',*,*,#277,.F.);
#193=ORIENTED_EDGE('',*,*,#232,.T.);
#194=ORIENTED_EDGE('',*,*,#236,.T.);
#195=ORIENTED_EDGE('',*,*,#240,.T.);
#196=EDGE_CURVE('',#278,#279,#332,.T.);
#197=EDGE_CURVE('',#279,#280,#333,.T.);
#198=EDGE_CURVE('',#280,#281,#334,.T.);
#199=EDGE_CURVE('',#281,#278,#335,.T.);
#200=EDGE_CURVE('',#282,#283,#336,.T.);
#201=EDGE_CURVE('',#284,#282,#24,.T.);
#202=EDGE_CURVE('',#285,#284,#337,.T.);
#203=EDGE_CURVE('',#285,#286,#338,.T.);
#204=EDGE_CURVE('',#286,#283,#339,.T.);
#205=EDGE_CURVE('',#278,#287,#340,.T.);
#206=EDGE_CURVE('',#278,#282,#16,.F.);
#207=EDGE_CURVE('',#287,#283,#341,.T.);
#208=EDGE_CURVE('',#288,#289,#342,.T.);
#209=EDGE_CURVE('',#288,#290,#343,.T.);
#210=EDGE_CURVE('',#290,#278,#17,.T.);
#211=EDGE_CURVE('',#287,#289,#344,.T.);
#212=EDGE_CURVE('',#291,#292,#345,.T.);
#213=EDGE_CURVE('',#293,#291,#346,.T.);
#214=EDGE_CURVE('',#290,#293,#25,.F.);
#215=EDGE_CURVE('',#289,#292,#347,.T.);
#216=EDGE_CURVE('',#294,#295,#348,.T.);
#217=EDGE_CURVE('',#291,#294,#349,.T.);
#218=EDGE_CURVE('',#292,#295,#350,.T.);
#219=EDGE_CURVE('',#296,#297,#351,.T.);
#220=EDGE_CURVE('',#298,#297,#352,.T.);
#221=EDGE_CURVE('',#299,#298,#26,.T.);
#222=EDGE_CURVE('',#294,#299,#353,.T.);
#223=EDGE_CURVE('',#295,#300,#354,.T.);
#224=EDGE_CURVE('',#296,#300,#355,.T.);
#225=EDGE_CURVE('',#279,#301,#356,.T.);
#226=EDGE_CURVE('',#279,#298,#18,.F.);
#227=EDGE_CURVE('',#301,#300,#357,.T.);
#228=EDGE_CURVE('',#302,#303,#358,.T.);
#229=EDGE_CURVE('',#302,#279,#19,.T.);
#230=EDGE_CURVE('',#301,#303,#359,.T.);
#231=EDGE_CURVE('',#304,#305,#360,.T.);
#232=EDGE_CURVE('',#306,#304,#361,.T.);
#233=EDGE_CURVE('',#302,#306,#27,.F.);
#234=EDGE_CURVE('',#303,#305,#362,.T.);
#235=EDGE_CURVE('',#307,#308,#363,.T.);
#236=EDGE_CURVE('',#304,#307,#364,.T.);
#237=EDGE_CURVE('',#305,#308,#365,.T.);
#238=EDGE_CURVE('',#309,#310,#366,.T.);
#239=EDGE_CURVE('',#311,#309,#28,.T.);
#240=EDGE_CURVE('',#307,#311,#367,.T.);
#241=EDGE_CURVE('',#308,#310,#368,.T.);
#242=EDGE_CURVE('',#280,#312,#369,.T.);
#243=EDGE_CURVE('',#280,#309,#20,.F.);
#244=EDGE_CURVE('',#312,#310,#370,.T.);
#245=EDGE_CURVE('',#313,#314,#371,.T.);
#246=EDGE_CURVE('',#313,#315,#372,.T.);
#247=EDGE_CURVE('',#315,#280,#21,.T.);
#248=EDGE_CURVE('',#312,#314,#373,.T.);
#249=EDGE_CURVE('',#316,#317,#374,.T.);
#250=EDGE_CURVE('',#318,#316,#375,.T.);
#251=EDGE_CURVE('',#315,#318,#29,.F.);
#252=EDGE_CURVE('',#314,#317,#376,.T.);
#253=EDGE_CURVE('',#319,#320,#377,.T.);
#254=EDGE_CURVE('',#316,#319,#378,.T.);
#255=EDGE_CURVE('',#317,#320,#379,.T.);
#256=EDGE_CURVE('',#321,#322,#380,.T.);
#257=EDGE_CURVE('',#323,#322,#381,.T.);
#258=EDGE_CURVE('',#324,#323,#30,.T.);
#259=EDGE_CURVE('',#319,#324,#382,.T.);
#260=EDGE_CURVE('',#320,#325,#383,.T.);
#261=EDGE_CURVE('',#321,#325,#384,.T.);
#262=EDGE_CURVE('',#281,#326,#385,.T.);
#263=EDGE_CURVE('',#281,#323,#22,.F.);
#264=EDGE_CURVE('',#326,#325,#386,.T.);
#265=EDGE_CURVE('',#327,#328,#387,.T.);
#266=EDGE_CURVE('',#327,#281,#23,.T.);
#267=EDGE_CURVE('',#326,#328,#388,.T.);
#268=EDGE_CURVE('',#329,#330,#389,.T.);
#269=EDGE_CURVE('',#331,#329,#390,.T.);
#270=EDGE_CURVE('',#327,#331,#31,.F.);
#271=EDGE_CURVE('',#328,#330,#391,.T.);
#272=EDGE_CURVE('',#329,#285,#392,.T.);
#273=EDGE_CURVE('',#330,#286,#393,.T.);
#274=EDGE_CURVE('',#293,#299,#394,.T.);
#275=EDGE_CURVE('',#331,#284,#395,.T.);
#276=EDGE_CURVE('',#318,#324,#396,.T.);
#277=EDGE_CURVE('',#306,#311,#397,.T.);
#278=VERTEX_POINT('',#802);
#279=VERTEX_POINT('',#803);
#280=VERTEX_POINT('',#805);
#281=VERTEX_POINT('',#807);
#282=VERTEX_POINT('',#811);
#283=VERTEX_POINT('',#812);
#284=VERTEX_POINT('',#814);
#285=VERTEX_POINT('',#816);
#286=VERTEX_POINT('',#818);
#287=VERTEX_POINT('',#822);
#288=VERTEX_POINT('',#827);
#289=VERTEX_POINT('',#828);
#290=VERTEX_POINT('',#830);
#291=VERTEX_POINT('',#835);
#292=VERTEX_POINT('',#836);
#293=VERTEX_POINT('',#838);
#294=VERTEX_POINT('',#843);
#295=VERTEX_POINT('',#844);
#296=VERTEX_POINT('',#849);
#297=VERTEX_POINT('',#850);
#298=VERTEX_POINT('',#852);
#299=VERTEX_POINT('',#854);
#300=VERTEX_POINT('',#857);
#301=VERTEX_POINT('',#861);
#302=VERTEX_POINT('',#866);
#303=VERTEX_POINT('',#867);
#304=VERTEX_POINT('',#872);
#305=VERTEX_POINT('',#873);
#306=VERTEX_POINT('',#875);
#307=VERTEX_POINT('',#880);
#308=VERTEX_POINT('',#881);
#309=VERTEX_POINT('',#886);
#310=VERTEX_POINT('',#887);
#311=VERTEX_POINT('',#889);
#312=VERTEX_POINT('',#894);
#313=VERTEX_POINT('',#899);
#314=VERTEX_POINT('',#900);
#315=VERTEX_POINT('',#902);
#316=VERTEX_POINT('',#907);
#317=VERTEX_POINT('',#908);
#318=VERTEX_POINT('',#910);
#319=VERTEX_POINT('',#915);
#320=VERTEX_POINT('',#916);
#321=VERTEX_POINT('',#921);
#322=VERTEX_POINT('',#922);
#323=VERTEX_POINT('',#924);
#324=VERTEX_POINT('',#926);
#325=VERTEX_POINT('',#929);
#326=VERTEX_POINT('',#933);
#327=VERTEX_POINT('',#938);
#328=VERTEX_POINT('',#939);
#329=VERTEX_POINT('',#944);
#330=VERTEX_POINT('',#945);
#331=VERTEX_POINT('',#947);
#332=LINE('',#801,#398);
#333=LINE('',#804,#399);
#334=LINE('',#806,#400);
#335=LINE('',#808,#401);
#336=LINE('',#810,#402);
#337=LINE('',#815,#403);
#338=LINE('',#817,#404);
#339=LINE('',#819,#405);
#340=LINE('',#821,#406);
#341=LINE('',#824,#407);
#342=LINE('',#826,#408);
#343=LINE('',#829,#409);
#344=LINE('',#832,#410);
#345=LINE('',#834,#411);
#346=LINE('',#837,#412);
#347=LINE('',#840,#413);
#348=LINE('',#842,#414);
#349=LINE('',#845,#415);
#350=LINE('',#846,#416);
#351=LINE('',#848,#417);
#352=LINE('',#851,#418);
#353=LINE('',#855,#419);
#354=LINE('',#856,#420);
#355=LINE('',#858,#421);
#356=LINE('',#860,#422);
#357=LINE('',#863,#423);
#358=LINE('',#865,#424);
#359=LINE('',#869,#425);
#360=LINE('',#871,#426);
#361=LINE('',#874,#427);
#362=LINE('',#877,#428);
#363=LINE('',#879,#429);
#364=LINE('',#882,#430);
#365=LINE('',#883,#431);
#366=LINE('',#885,#432);
#367=LINE('',#890,#433);
#368=LINE('',#891,#434);
#369=LINE('',#893,#435);
#370=LINE('',#896,#436);
#371=LINE('',#898,#437);
#372=LINE('',#901,#438);
#373=LINE('',#904,#439);
#374=LINE('',#906,#440);
#375=LINE('',#909,#441);
#376=LINE('',#912,#442);
#377=LINE('',#914,#443);
#378=LINE('',#917,#444);
#379=LINE('',#918,#445);
#380=LINE('',#920,#446);
#381=LINE('',#923,#447);
#382=LINE('',#927,#448);
#383=LINE('',#928,#449);
#384=LINE('',#930,#450);
#385=LINE('',#932,#451);
#386=LINE('',#935,#452);
#387=LINE('',#937,#453);
#388=LINE('',#941,#454);
#389=LINE('',#943,#455);
#390=LINE('',#946,#456);
#391=LINE('',#949,#457);
#392=LINE('',#951,#458);
#393=LINE('',#952,#459);
#394=LINE('',#955,#460);
#395=LINE('',#958,#461);
#396=LINE('',#961,#462);
#397=LINE('',#964,#463);
#398=VECTOR('',#643,1.);
#399=VECTOR('',#644,1.);
#400=VECTOR('',#645,1.);
#401=VECTOR('',#646,1.);
#402=VECTOR('',#649,1.);
#403=VECTOR('',#652,1.);
#404=VECTOR('',#653,1.);
#405=VECTOR('',#654,1.);
#406=VECTOR('',#657,1.);
#407=VECTOR('',#660,1.);
#408=VECTOR('',#663,1.);
#409=VECTOR('',#664,1.);
#410=VECTOR('',#667,1.);
#411=VECTOR('',#670,1.);
#412=VECTOR('',#671,1.);
#413=VECTOR('',#674,1.);
#414=VECTOR('',#677,1.);
#415=VECTOR('',#678,1.);
#416=VECTOR('',#679,1.);
#417=VECTOR('',#682,1.);
#418=VECTOR('',#683,1.);
#419=VECTOR('',#686,1.);
#420=VECTOR('',#687,1.);
#421=VECTOR('',#688,1.);
#422=VECTOR('',#691,1.);
#423=VECTOR('',#694,1.);
#424=VECTOR('',#697,1.);
#425=VECTOR('',#700,1.);
#426=VECTOR('',#703,1.);
#427=VECTOR('',#704,1.);
#428=VECTOR('',#707,1.);
#429=VECTOR('',#710,1.);
#430=VECTOR('',#711,1.);
#431=VECTOR('',#712,1.);
#432=VECTOR('',#715,1.);
#433=VECTOR('',#718,1.);
#434=VECTOR('',#719,1.);
#435=VECTOR('',#722,1.);
#436=VECTOR('',#725,1.);
#437=VECTOR('',#728,1.);
#438=VECTOR('',#729,1.);
#439=VECTOR('',#732,1.);
#440=VECTOR('',#735,1.);
#441=VECTOR('',#736,1.);
#442=VECTOR('',#739,1.);
#443=VECTOR('',#742,1.);
#444=VECTOR('',#743,1.);
#445=VECTOR('',#744,1.);
#446=VECTOR('',#747,1.);
#447=VECTOR('',#748,1.);
#448=VECTOR('',#751,1.);
#449=VECTOR('',#752,1.);
#450=VECTOR('',#753,1.);
#451=VECTOR('',#756,1.);
#452=VECTOR('',#759,1.);
#453=VECTOR('',#762,1.);
#454=VECTOR('',#765,1.);
#455=VECTOR('',#768,1.);
#456=VECTOR('',#769,1.);
#457=VECTOR('',#772,1.);
#458=VECTOR('',#775,1.);
#459=VECTOR('',#776,1.);
#460=VECTOR('',#781,1.);
#461=VECTOR('',#786,1.);
#462=VECTOR('',#791,1.);
#463=VECTOR('',#796,1.);
#464=EDGE_LOOP('',(#32,#33,#34,#35));
#465=EDGE_LOOP('',(#36,#37,#38,#39,#40));
#466=EDGE_LOOP('',(#41,#42,#43,#44));
#467=EDGE_LOOP('',(#45,#46,#47,#48,#49));
#468=EDGE_LOOP('',(#50,#51,#52,#53,#54,#55));
#469=EDGE_LOOP('',(#56,#57,#58,#59));
#470=EDGE_LOOP('',(#60,#61,#62,#63,#64,#65,#66));
#471=EDGE_LOOP('',(#67,#68,#69,#70,#71,#72));
#472=EDGE_LOOP('',(#73,#74,#75,#76));
#473=EDGE_LOOP('',(#77,#78,#79,#80,#81));
#474=EDGE_LOOP('',(#82,#83,#84,#85));
#475=EDGE_LOOP('',(#86,#87,#88,#89,#90));
#476=EDGE_LOOP('',(#91,#92,#93,#94));
#477=EDGE_LOOP('',(#95,#96,#97,#98,#99));
#478=EDGE_LOOP('',(#100,#101,#102,#103,#104,#105));
#479=EDGE_LOOP('',(#106,#107,#108,#109));
#480=EDGE_LOOP('',(#110,#111,#112,#113,#114,#115,#116));
#481=EDGE_LOOP('',(#117,#118,#119,#120,#121,#122));
#482=EDGE_LOOP('',(#123,#124,#125,#126));
#483=EDGE_LOOP('',(#127,#128,#129,#130,#131));
#484=EDGE_LOOP('',(#132,#133,#134,#135));
#485=EDGE_LOOP('',(#136,#137,#138,#139,#140,#141,#142,#143,#144,#145,#146,
#147,#148,#149,#150,#151,#152,#153,#154,#155));
#486=EDGE_LOOP('',(#156,#157,#158,#159,#160,#161));
#487=EDGE_LOOP('',(#162,#163,#164,#165));
#488=EDGE_LOOP('',(#166,#167,#168,#169,#170,#171));
#489=EDGE_LOOP('',(#172,#173,#174,#175));
#490=EDGE_LOOP('',(#176,#177,#178,#179,#180,#181));
#491=EDGE_LOOP('',(#182,#183,#184,#185));
#492=EDGE_LOOP('',(#186,#187,#188,#189,#190,#191));
#493=EDGE_LOOP('',(#192,#193,#194,#195));
#494=FACE_BOUND('',#464,.T.);
#495=FACE_BOUND('',#465,.T.);
#496=FACE_BOUND('',#466,.T.);
#497=FACE_BOUND('',#467,.T.);
#498=FACE_BOUND('',#468,.T.);
#499=FACE_BOUND('',#469,.T.);
#500=FACE_BOUND('',#470,.T.);
#501=FACE_BOUND('',#471,.T.);
#502=FACE_BOUND('',#472,.T.);
#503=FACE_BOUND('',#473,.T.);
#504=FACE_BOUND('',#474,.T.);
#505=FACE_BOUND('',#475,.T.);
#506=FACE_BOUND('',#476,.T.);
#507=FACE_BOUND('',#477,.T.);
#508=FACE_BOUND('',#478,.T.);
#509=FACE_BOUND('',#479,.T.);
#510=FACE_BOUND('',#480,.T.);
#511=FACE_BOUND('',#481,.T.);
#512=FACE_BOUND('',#482,.T.);
#513=FACE_BOUND('',#483,.T.);
#514=FACE_BOUND('',#484,.T.);
#515=FACE_BOUND('',#485,.T.);
#516=FACE_BOUND('',#486,.T.);
#517=FACE_BOUND('',#487,.T.);
#518=FACE_BOUND('',#488,.T.);
#519=FACE_BOUND('',#489,.T.);
#520=FACE_BOUND('',#490,.T.);
#521=FACE_BOUND('',#491,.T.);
#522=FACE_BOUND('',#492,.T.);
#523=FACE_BOUND('',#493,.T.);
#524=PLANE('',#593);
#525=PLANE('',#594);
#526=PLANE('',#596);
#527=PLANE('',#598);
#528=PLANE('',#600);
#529=PLANE('',#602);
#530=PLANE('',#603);
#531=PLANE('',#605);
#532=PLANE('',#607);
#533=PLANE('',#609);
#534=PLANE('',#611);
#535=PLANE('',#612);
#536=PLANE('',#614);
#537=PLANE('',#616);
#538=PLANE('',#618);
#539=PLANE('',#620);
#540=PLANE('',#621);
#541=PLANE('',#623);
#542=PLANE('',#625);
#543=PLANE('',#627);
#544=PLANE('',#629);
#545=PLANE('',#630);
#546=PLANE('',#632);
#547=PLANE('',#634);
#548=PLANE('',#636);
#549=PLANE('',#638);
#550=ADVANCED_FACE('',(#494),#524,.T.);
#551=ADVANCED_FACE('',(#495),#525,.F.);
#552=ADVANCED_FACE('',(#496),#526,.T.);
#553=ADVANCED_FACE('',(#497),#527,.F.);
#554=ADVANCED_FACE('',(#498),#528,.F.);
#555=ADVANCED_FACE('',(#499),#529,.F.);
#556=ADVANCED_FACE('',(#500),#530,.F.);
#557=ADVANCED_FACE('',(#501),#531,.T.);
#558=ADVANCED_FACE('',(#502),#532,.F.);
#559=ADVANCED_FACE('',(#503),#533,.F.);
#560=ADVANCED_FACE('',(#504),#534,.F.);
#561=ADVANCED_FACE('',(#505),#535,.F.);
#562=ADVANCED_FACE('',(#506),#536,.T.);
#563=ADVANCED_FACE('',(#507),#537,.F.);
#564=ADVANCED_FACE('',(#508),#538,.F.);
#565=ADVANCED_FACE('',(#509),#539,.F.);
#566=ADVANCED_FACE('',(#510),#540,.F.);
#567=ADVANCED_FACE('',(#511),#541,.T.);
#568=ADVANCED_FACE('',(#512),#542,.F.);
#569=ADVANCED_FACE('',(#513),#543,.F.);
#570=ADVANCED_FACE('',(#514),#544,.F.);
#571=ADVANCED_FACE('',(#515),#545,.F.);
#572=ADVANCED_FACE('',(#516),#12,.F.);
#573=ADVANCED_FACE('',(#517),#546,.F.);
#574=ADVANCED_FACE('',(#518),#13,.F.);
#575=ADVANCED_FACE('',(#519),#547,.F.);
#576=ADVANCED_FACE('',(#520),#14,.F.);
#577=ADVANCED_FACE('',(#521),#548,.F.);
#578=ADVANCED_FACE('',(#522),#15,.F.);
#579=ADVANCED_FACE('',(#523),#549,.F.);
#580=CLOSED_SHELL('',(#550,#551,#552,#553,#554,#555,#556,#557,#558,#559,
#560,#561,#562,#563,#564,#565,#566,#567,#568,#569,#570,#571,#572,#573,#574,
#575,#576,#577,#578,#579));
#581=STYLED_ITEM('',(#582),#589);
#582=PRESENTATION_STYLE_ASSIGNMENT((#583));
#583=SURFACE_STYLE_USAGE(.BOTH.,#584);
#584=SURFACE_SIDE_STYLE('',(#585));
#585=SURFACE_STYLE_FILL_AREA(#586);
#586=FILL_AREA_STYLE('',(#587));
#587=FILL_AREA_STYLE_COLOUR('',#588);
#588=COLOUR_RGB('',0.498039215686275,0.498039215686275,0.498039215686275);
#589=MANIFOLD_SOLID_BREP('feet',#580);
#590=SHAPE_DEFINITION_REPRESENTATION(#972,#591);
#591=SHAPE_REPRESENTATION('feet',(#592),#967);
#592=AXIS2_PLACEMENT_3D('',#799,#639,#640);
#593=AXIS2_PLACEMENT_3D('',#800,#641,#642);
#594=AXIS2_PLACEMENT_3D('',#809,#647,#648);
#595=AXIS2_PLACEMENT_3D('',#813,#650,#651);
#596=AXIS2_PLACEMENT_3D('',#820,#655,#656);
#597=AXIS2_PLACEMENT_3D('',#823,#658,#659);
#598=AXIS2_PLACEMENT_3D('',#825,#661,#662);
#599=AXIS2_PLACEMENT_3D('',#831,#665,#666);
#600=AXIS2_PLACEMENT_3D('',#833,#668,#669);
#601=AXIS2_PLACEMENT_3D('',#839,#672,#673);
#602=AXIS2_PLACEMENT_3D('',#841,#675,#676);
#603=AXIS2_PLACEMENT_3D('',#847,#680,#681);
#604=AXIS2_PLACEMENT_3D('',#853,#684,#685);
#605=AXIS2_PLACEMENT_3D('',#859,#689,#690);
#606=AXIS2_PLACEMENT_3D('',#862,#692,#693);
#607=AXIS2_PLACEMENT_3D('',#864,#695,#696);
#608=AXIS2_PLACEMENT_3D('',#868,#698,#699);
#609=AXIS2_PLACEMENT_3D('',#870,#701,#702);
#610=AXIS2_PLACEMENT_3D('',#876,#705,#706);
#611=AXIS2_PLACEMENT_3D('',#878,#708,#709);
#612=AXIS2_PLACEMENT_3D('',#884,#713,#714);
#613=AXIS2_PLACEMENT_3D('',#888,#716,#717);
#614=AXIS2_PLACEMENT_3D('',#892,#720,#721);
#615=AXIS2_PLACEMENT_3D('',#895,#723,#724);
#616=AXIS2_PLACEMENT_3D('',#897,#726,#727);
#617=AXIS2_PLACEMENT_3D('',#903,#730,#731);
#618=AXIS2_PLACEMENT_3D('',#905,#733,#734);
#619=AXIS2_PLACEMENT_3D('',#911,#737,#738);
#620=AXIS2_PLACEMENT_3D('',#913,#740,#741);
#621=AXIS2_PLACEMENT_3D('',#919,#745,#746);
#622=AXIS2_PLACEMENT_3D('',#925,#749,#750);
#623=AXIS2_PLACEMENT_3D('',#931,#754,#755);
#624=AXIS2_PLACEMENT_3D('',#934,#757,#758);
#625=AXIS2_PLACEMENT_3D('',#936,#760,#761);
#626=AXIS2_PLACEMENT_3D('',#940,#763,#764);
#627=AXIS2_PLACEMENT_3D('',#942,#766,#767);
#628=AXIS2_PLACEMENT_3D('',#948,#770,#771);
#629=AXIS2_PLACEMENT_3D('',#950,#773,#774);
#630=AXIS2_PLACEMENT_3D('',#953,#777,#778);
#631=AXIS2_PLACEMENT_3D('',#954,#779,#780);
#632=AXIS2_PLACEMENT_3D('',#956,#782,#783);
#633=AXIS2_PLACEMENT_3D('',#957,#784,#785);
#634=AXIS2_PLACEMENT_3D('',#959,#787,#788);
#635=AXIS2_PLACEMENT_3D('',#960,#789,#790);
#636=AXIS2_PLACEMENT_3D('',#962,#792,#793);
#637=AXIS2_PLACEMENT_3D('',#963,#794,#795);
#638=AXIS2_PLACEMENT_3D('',#965,#797,#798);
#639=DIRECTION('',(0.,0.,1.));
#640=DIRECTION('',(1.,0.,0.));
#641=DIRECTION('',(0.,0.,-1.));
#642=DIRECTION('',(1.,0.,0.));
#643=DIRECTION('',(-0.708952321644619,0.705256411268061,0.));
#644=DIRECTION('',(0.705256411268061,0.708952321644619,0.));
#645=DIRECTION('',(0.708952321644619,-0.705256411268061,0.));
#646=DIRECTION('',(-0.705256411268061,-0.708952321644619,0.));
#647=DIRECTION('',(0.705256411268061,0.70895232164462,0.));
#648=DIRECTION('',(-0.70895232164462,0.705256411268061,0.));
#649=DIRECTION('',(0.,0.,1.));
#650=DIRECTION('',(-0.705256411268061,-0.708952321644619,0.));
#651=DIRECTION('',(0.708952321644619,-0.705256411268061,0.));
#652=DIRECTION('',(-0.708952321644619,0.705256411268061,0.));
#653=DIRECTION('',(0.,0.,1.));
#654=DIRECTION('',(-0.70895232164462,0.705256411268061,0.));
#655=DIRECTION('',(-0.707106781186548,-0.707106781186548,0.));
#656=DIRECTION('',(0.707106781186548,-0.707106781186548,0.));
#657=DIRECTION('',(0.,0.,1.));
#658=DIRECTION('',(-0.707106781186548,-0.707106781186548,0.));
#659=DIRECTION('',(0.707106781186548,-0.707106781186548,0.));
#660=DIRECTION('',(0.707106781186548,-0.707106781186548,0.));
#661=DIRECTION('',(-0.707106781186547,0.707106781186548,0.));
#662=DIRECTION('',(-0.707106781186548,-0.707106781186547,0.));
#663=DIRECTION('',(0.,0.,1.));
#664=DIRECTION('',(0.,0.,-1.));
#665=DIRECTION('',(-0.707106781186547,0.707106781186548,0.));
#666=DIRECTION('',(-0.707106781186548,-0.707106781186547,0.));
#667=DIRECTION('',(-0.707106781186548,-0.707106781186547,0.));
#668=DIRECTION('',(-0.708952321644619,0.705256411268061,0.));
#669=DIRECTION('',(-0.705256411268061,-0.708952321644619,0.));
#670=DIRECTION('',(0.,0.,1.));
#671=DIRECTION('',(-0.705256411268061,-0.708952321644619,0.));
#672=DIRECTION('',(-0.708952321644619,0.705256411268061,0.));
#673=DIRECTION('',(-0.705256411268061,-0.708952321644619,0.));
#674=DIRECTION('',(-0.705256411268061,-0.708952321644619,0.));
#675=DIRECTION('',(0.705256411268061,0.708952321644619,0.));
#676=DIRECTION('',(-0.708952321644619,0.705256411268061,0.));
#677=DIRECTION('',(0.,0.,1.));
#678=DIRECTION('',(-0.708952321644619,0.705256411268061,0.));
#679=DIRECTION('',(-0.708952321644619,0.705256411268061,0.));
#680=DIRECTION('',(0.708952321644619,-0.705256411268061,0.));
#681=DIRECTION('',(0.705256411268061,0.708952321644619,0.));
#682=DIRECTION('',(-0.707106781186548,-0.707106781186548,0.));
#683=DIRECTION('',(0.,0.,1.));
#684=DIRECTION('',(-0.708952321644619,0.705256411268061,0.));
#685=DIRECTION('',(-0.705256411268061,-0.708952321644619,0.));
#686=DIRECTION('',(0.705256411268061,0.708952321644619,0.));
#687=DIRECTION('',(0.705256411268061,0.708952321644619,0.));
#688=DIRECTION('',(0.,0.,1.));
#689=DIRECTION('',(-0.707106781186548,0.707106781186548,0.));
#690=DIRECTION('',(-0.707106781186548,-0.707106781186548,0.));
#691=DIRECTION('',(0.,0.,1.));
#692=DIRECTION('',(-0.707106781186548,0.707106781186548,0.));
#693=DIRECTION('',(-0.707106781186548,-0.707106781186548,0.));
#694=DIRECTION('',(-0.707106781186548,-0.707106781186548,0.));
#695=DIRECTION('',(0.707106781186548,0.707106781186547,0.));
#696=DIRECTION('',(-0.707106781186547,0.707106781186548,0.));
#697=DIRECTION('',(0.,0.,1.));
#698=DIRECTION('',(0.707106781186548,0.707106781186547,0.));
#699=DIRECTION('',(-0.707106781186547,0.707106781186548,0.));
#700=DIRECTION('',(-0.707106781186547,0.707106781186548,0.));
#701=DIRECTION('',(0.705256411268061,0.708952321644619,0.));
#702=DIRECTION('',(-0.708952321644619,0.705256411268061,0.));
#703=DIRECTION('',(0.,0.,1.));
#704=DIRECTION('',(-0.708952321644619,0.705256411268061,0.));
#705=DIRECTION('',(0.705256411268061,0.708952321644619,0.));
#706=DIRECTION('',(-0.708952321644619,0.705256411268061,0.));
#707=DIRECTION('',(-0.708952321644619,0.705256411268061,0.));
#708=DIRECTION('',(0.708952321644619,-0.705256411268061,0.));
#709=DIRECTION('',(0.705256411268061,0.708952321644619,0.));
#710=DIRECTION('',(0.,0.,1.));
#711=DIRECTION('',(0.705256411268061,0.708952321644619,0.));
#712=DIRECTION('',(0.705256411268061,0.708952321644619,0.));
#713=DIRECTION('',(-0.705256411268061,-0.708952321644619,0.));
#714=DIRECTION('',(0.708952321644619,-0.705256411268061,0.));
#715=DIRECTION('',(0.,0.,1.));
#716=DIRECTION('',(0.705256411268061,0.708952321644619,0.));
#717=DIRECTION('',(-0.708952321644619,0.705256411268061,0.));
#718=DIRECTION('',(0.708952321644619,-0.705256411268061,0.));
#719=DIRECTION('',(0.708952321644619,-0.705256411268061,0.));
#720=DIRECTION('',(0.707106781186548,0.707106781186548,0.));
#721=DIRECTION('',(-0.707106781186548,0.707106781186548,0.));
#722=DIRECTION('',(0.,0.,1.));
#723=DIRECTION('',(0.707106781186548,0.707106781186548,0.));
#724=DIRECTION('',(-0.707106781186548,0.707106781186548,0.));
#725=DIRECTION('',(-0.707106781186548,0.707106781186548,0.));
#726=DIRECTION('',(0.707106781186548,-0.707106781186548,0.));
#727=DIRECTION('',(0.707106781186548,0.707106781186548,0.));
#728=DIRECTION('',(0.,0.,1.));
#729=DIRECTION('',(0.,0.,-1.));
#730=DIRECTION('',(0.707106781186547,-0.707106781186548,0.));
#731=DIRECTION('',(0.707106781186548,0.707106781186547,0.));
#732=DIRECTION('',(0.707106781186548,0.707106781186548,0.));
#733=DIRECTION('',(0.708952321644619,-0.705256411268061,0.));
#734=DIRECTION('',(0.705256411268061,0.708952321644619,0.));
#735=DIRECTION('',(0.,0.,1.));
#736=DIRECTION('',(0.705256411268061,0.708952321644619,0.));
#737=DIRECTION('',(0.708952321644619,-0.705256411268061,0.));
#738=DIRECTION('',(0.705256411268061,0.708952321644619,0.));
#739=DIRECTION('',(0.705256411268061,0.708952321644619,0.));
#740=DIRECTION('',(-0.705256411268061,-0.708952321644619,0.));
#741=DIRECTION('',(0.708952321644619,-0.705256411268061,0.));
#742=DIRECTION('',(0.,0.,1.));
#743=DIRECTION('',(0.708952321644619,-0.705256411268061,0.));
#744=DIRECTION('',(0.708952321644619,-0.705256411268061,0.));
#745=DIRECTION('',(-0.708952321644619,0.705256411268061,0.));
#746=DIRECTION('',(-0.705256411268061,-0.708952321644619,0.));
#747=DIRECTION('',(0.707106781186548,0.707106781186548,0.));
#748=DIRECTION('',(0.,0.,1.));
#749=DIRECTION('',(0.708952321644619,-0.705256411268061,0.));
#750=DIRECTION('',(0.705256411268061,0.708952321644619,0.));
#751=DIRECTION('',(-0.705256411268061,-0.708952321644619,0.));
#752=DIRECTION('',(-0.705256411268061,-0.708952321644619,0.));
#753=DIRECTION('',(0.,0.,1.));
#754=DIRECTION('',(0.707106781186548,-0.707106781186548,0.));
#755=DIRECTION('',(0.707106781186548,0.707106781186548,0.));
#756=DIRECTION('',(0.,0.,1.));
#757=DIRECTION('',(0.707106781186548,-0.707106781186548,0.));
#758=DIRECTION('',(0.707106781186548,0.707106781186548,0.));
#759=DIRECTION('',(0.707106781186548,0.707106781186548,0.));
#760=DIRECTION('',(-0.707106781186548,-0.707106781186547,0.));
#761=DIRECTION('',(0.707106781186547,-0.707106781186548,0.));
#762=DIRECTION('',(0.,0.,1.));
#763=DIRECTION('',(-0.707106781186548,-0.707106781186547,0.));
#764=DIRECTION('',(0.707106781186547,-0.707106781186548,0.));
#765=DIRECTION('',(0.707106781186547,-0.707106781186548,0.));
#766=DIRECTION('',(-0.705256411268061,-0.70895232164462,0.));
#767=DIRECTION('',(0.70895232164462,-0.705256411268061,0.));
#768=DIRECTION('',(0.,0.,1.));
#769=DIRECTION('',(0.708952321644619,-0.705256411268061,0.));
#770=DIRECTION('',(-0.705256411268061,-0.708952321644619,0.));
#771=DIRECTION('',(0.708952321644619,-0.705256411268061,0.));
#772=DIRECTION('',(0.70895232164462,-0.705256411268061,0.));
#773=DIRECTION('',(-0.70895232164462,0.70525641126806,0.));
#774=DIRECTION('',(-0.70525641126806,-0.70895232164462,0.));
#775=DIRECTION('',(-0.705256411268061,-0.708952321644619,0.));
#776=DIRECTION('',(-0.70525641126806,-0.70895232164462,0.));
#777=DIRECTION('',(0.,0.,-1.));
#778=DIRECTION('',(1.,0.,0.));
#779=DIRECTION('',(-0.708952321644619,0.705256411268061,0.));
#780=DIRECTION('',(-0.705256411268061,-0.708952321644619,0.));
#781=DIRECTION('',(-0.708952321644619,0.705256411268061,0.));
#782=DIRECTION('',(0.,0.,1.));
#783=DIRECTION('',(6.12323399573677E-17,1.,0.));
#784=DIRECTION('',(-0.705256411268061,-0.708952321644619,0.));
#785=DIRECTION('',(0.708952321644619,-0.705256411268061,0.));
#786=DIRECTION('',(-0.705256411268061,-0.708952321644619,0.));
#787=DIRECTION('',(0.,0.,1.));
#788=DIRECTION('',(-1.,1.22464679914735E-16,0.));
#789=DIRECTION('',(0.708952321644619,-0.705256411268061,0.));
#790=DIRECTION('',(0.705256411268061,0.708952321644619,0.));
#791=DIRECTION('',(0.708952321644619,-0.705256411268061,0.));
#792=DIRECTION('',(0.,0.,1.));
#793=DIRECTION('',(-1.83697019872103E-16,-1.,0.));
#794=DIRECTION('',(0.705256411268061,0.708952321644619,0.));
#795=DIRECTION('',(-0.708952321644619,0.705256411268061,0.));
#796=DIRECTION('',(0.705256411268061,0.708952321644619,0.));
#797=DIRECTION('',(0.,0.,1.));
#798=DIRECTION('',(1.,0.,0.));
#799=CARTESIAN_POINT('',(0.,0.,0.));
#800=CARTESIAN_POINT('',(-1.04506681086747E-13,-1.26350319096247E-13,-0.005));
#801=CARTESIAN_POINT('',(-5.98085990929046E-5,-0.00317623745824484,-0.005));
#802=CARTESIAN_POINT('',(8.50622038690756E-6,-0.00325270786993586,-0.00500000023547254));
#803=CARTESIAN_POINT('',(-0.0032463078720387,-6.3721944716644E-6,-0.0050000000000008));
#804=CARTESIAN_POINT('',(-0.00317623745824484,5.98085990929044E-5,-0.005));
#805=CARTESIAN_POINT('',(-8.50622038479193E-6,0.00325270786993797,-0.00500000023547255));
#806=CARTESIAN_POINT('',(5.98085990929049E-5,0.00317623745824484,-0.005));
#807=CARTESIAN_POINT('',(0.00325270786993602,8.50622038674059E-6,-0.00500000023547254));
#808=CARTESIAN_POINT('',(0.00317623745824484,-5.98085990929048E-5,-0.005));
#809=CARTESIAN_POINT('',(0.0337006527192033,-0.0369163848091267,-0.00500320556268042));
#810=CARTESIAN_POINT('',(0.0266111295027571,-0.029863820696446,-0.00500320556268042));
#811=CARTESIAN_POINT('',(0.026611129503069,-0.0298638206967564,-0.00966158705291861));
#812=CARTESIAN_POINT('',(0.0266111295027571,-0.029863820696446,-0.004));
#813=CARTESIAN_POINT('',(-6.93636252666139E-5,-0.00332241832021622,-0.159242013633122));
#814=CARTESIAN_POINT('',(0.0386633189707156,-0.041853179688003,-0.015));
#815=CARTESIAN_POINT('',(0.0397267474531825,-0.0429110643049052,-0.015));
#816=CARTESIAN_POINT('',(0.0407901759356495,-0.0439689489218072,-0.015));
#817=CARTESIAN_POINT('',(0.0407901759356495,-0.0439689489218072,-0.00500320556268042));
#818=CARTESIAN_POINT('',(0.0407901759356495,-0.0439689489218072,-0.004));
#819=CARTESIAN_POINT('',(0.0337006527192033,-0.0369163848091267,-0.004));
#820=CARTESIAN_POINT('',(0.0133055647513263,-0.0165582559450152,-0.00500320556268042));
#821=CARTESIAN_POINT('',(-1.04515354704127E-13,-0.00325269119358447,-0.00500320556268042));
#822=CARTESIAN_POINT('',(-1.04515354704127E-13,-0.00325269119358447,-0.004));
#823=CARTESIAN_POINT('',(-1.04525727703899E-13,-0.00325269119358446,-0.159242013633122));
#824=CARTESIAN_POINT('',(0.0133055647513263,-0.0165582559450152,-0.004));
#825=CARTESIAN_POINT('',(-0.0133013144400353,-0.0165540056335152,-0.00500320556268042));
#826=CARTESIAN_POINT('',(-0.0266026288803024,-0.0298553200737833,-0.00500320556268042));
#827=CARTESIAN_POINT('',(-0.0266026288799661,-0.0298553200734461,-0.005));
#828=CARTESIAN_POINT('',(-0.0266026288803024,-0.0298553200737833,-0.004));
#829=CARTESIAN_POINT('',(-0.0266026288799654,-0.0298553200734453,-0.00500320556268042));
#830=CARTESIAN_POINT('',(-0.0266026288799654,-0.0298553200734453,-0.00966158705280767));
#831=CARTESIAN_POINT('',(8.50062289558748E-6,-0.00324419057058439,-0.159242013633122));
#832=CARTESIAN_POINT('',(-0.0133013144400353,-0.0165540056335152,-0.004));
#833=CARTESIAN_POINT('',(-0.0336551929926466,-0.0369448432898921,-0.00500320556268042));
#834=CARTESIAN_POINT('',(-0.0407077571053272,-0.0440343665063384,-0.00500320556268042));
#835=CARTESIAN_POINT('',(-0.0407077571053272,-0.0440343665063384,-0.015));
#836=CARTESIAN_POINT('',(-0.0407077571053272,-0.0440343665063384,-0.004));
#837=CARTESIAN_POINT('',(-0.0396498724884251,-0.0429709380238714,-0.015));
#838=CARTESIAN_POINT('',(-0.038591987871523,-0.0419075095414045,-0.015));
#839=CARTESIAN_POINT('',(-6.12265037361915E-5,-0.00317482694542229,-0.159242013633122));
#840=CARTESIAN_POINT('',(-0.0336551929926466,-0.0369448432898921,-0.004));
#841=CARTESIAN_POINT('',(-0.0423383530135673,-0.0424122712209939,-0.00500320556268042));
#842=CARTESIAN_POINT('',(-0.0439689489218072,-0.0407901759356495,-0.00500320556268042));
#843=CARTESIAN_POINT('',(-0.0439689489218072,-0.0407901759356495,-0.015));
#844=CARTESIAN_POINT('',(-0.0439689489218072,-0.0407901759356495,-0.004));
#845=CARTESIAN_POINT('',(-0.0407063392006839,-0.0440357770191609,-0.015));
#846=CARTESIAN_POINT('',(-0.0423383530135673,-0.0424122712209939,-0.004));
#847=CARTESIAN_POINT('',(-0.0369163848091267,-0.0337006527192033,-0.00500320556268042));
#848=CARTESIAN_POINT('',(-0.0165582559449977,-0.0133055647513087,-0.005));
#849=CARTESIAN_POINT('',(-0.0298563871853985,-0.0266036869636834,-0.00500079795438266));
#850=CARTESIAN_POINT('',(-0.0298638206964471,-0.0266111295027582,-0.005));
#851=CARTESIAN_POINT('',(-0.0298638206967564,-0.026611129503069,-0.03));
#852=CARTESIAN_POINT('',(-0.0298638206967564,-0.026611129503069,-0.00966158705291861));
#853=CARTESIAN_POINT('',(-0.00332241832021622,6.93636252666137E-5,-0.159242013633122));
#854=CARTESIAN_POINT('',(-0.041853179688003,-0.0386633189707156,-0.015));
#855=CARTESIAN_POINT('',(-0.0429110643049052,-0.0397267474531825,-0.015));
#856=CARTESIAN_POINT('',(-0.0369163848091267,-0.0337006527192033,-0.004));
#857=CARTESIAN_POINT('',(-0.0298563909985605,-0.026603683143233,-0.004));
#858=CARTESIAN_POINT('',(-0.0298563909985605,-0.026603683143233,-0.00500320556268042));
#859=CARTESIAN_POINT('',(-0.0165582559450152,-0.0133055647513263,-0.00500320556268042));
#860=CARTESIAN_POINT('',(-0.00325269119358448,1.04504946363271E-13,-0.00500320556268042));
#861=CARTESIAN_POINT('',(-0.00325269119358448,1.04504946363271E-13,-0.004));
#862=CARTESIAN_POINT('',(-0.00325269119358446,1.04525528534006E-13,-0.159242013633122));
#863=CARTESIAN_POINT('',(-0.0165582559450152,-0.0133055647513263,-0.004));
#864=CARTESIAN_POINT('',(-0.0165540056335152,0.0133013144400352,-0.00500320556268042));
#865=CARTESIAN_POINT('',(-0.029855320073446,0.026602628879966,-0.00500320556268042));
#866=CARTESIAN_POINT('',(-0.0298553200734453,0.0266026288799654,-0.00966158705280767));
#867=CARTESIAN_POINT('',(-0.029855320073446,0.026602628879966,-0.004));
#868=CARTESIAN_POINT('',(-0.00324419057058439,-8.50062289558768E-6,-0.159242013633122));
#869=CARTESIAN_POINT('',(-0.0165540056335152,0.0133013144400352,-0.004));
#870=CARTESIAN_POINT('',(-0.0369448432898921,0.0336551929926466,-0.00500320556268042));
#871=CARTESIAN_POINT('',(-0.0440343665063384,0.0407077571053272,-0.00500320556268042));
#872=CARTESIAN_POINT('',(-0.0440343665063384,0.0407077571053272,-0.015));
#873=CARTESIAN_POINT('',(-0.0440343665063384,0.0407077571053272,-0.004));
#874=CARTESIAN_POINT('',(-0.0429709380238714,0.0396498724884251,-0.015));
#875=CARTESIAN_POINT('',(-0.0419075095414045,0.038591987871523,-0.015));
#876=CARTESIAN_POINT('',(-0.00317482694542229,6.12265037361913E-5,-0.159242013633122));
#877=CARTESIAN_POINT('',(-0.0369448432898921,0.0336551929926466,-0.004));
#878=CARTESIAN_POINT('',(-0.0424122712209939,0.0423383530135673,-0.00500320556268042));
#879=CARTESIAN_POINT('',(-0.0407901759356495,0.0439689489218072,-0.00500320556268042));
#880=CARTESIAN_POINT('',(-0.0407901759356495,0.0439689489218072,-0.015));
#881=CARTESIAN_POINT('',(-0.0407901759356495,0.0439689489218072,-0.004));
#882=CARTESIAN_POINT('',(-0.0440357770191609,0.0407063392006839,-0.015));
#883=CARTESIAN_POINT('',(-0.0424122712209939,0.0423383530135673,-0.004));
#884=CARTESIAN_POINT('',(-0.0337006527192033,0.0369163848091267,-0.00500320556268042));
#885=CARTESIAN_POINT('',(-0.0266111295027218,0.0298638206964109,-0.00500320556268042));
#886=CARTESIAN_POINT('',(-0.026611129503069,0.0298638206967564,-0.00966158705291861));
#887=CARTESIAN_POINT('',(-0.0266111295027218,0.0298638206964109,-0.004));
#888=CARTESIAN_POINT('',(6.93636252666135E-5,0.00332241832021622,-0.159242013633122));
#889=CARTESIAN_POINT('',(-0.0386633189707156,0.041853179688003,-0.015));
#890=CARTESIAN_POINT('',(-0.0397267474531825,0.0429110643049052,-0.015));
#891=CARTESIAN_POINT('',(-0.0337006527192033,0.0369163848091267,-0.004));
#892=CARTESIAN_POINT('',(-0.0133055647513263,0.0165582559450152,-0.00500320556268042));
#893=CARTESIAN_POINT('',(1.04513619980651E-13,0.00325269119358447,-0.00500320556268042));
#894=CARTESIAN_POINT('',(1.04513619980651E-13,0.00325269119358447,-0.004));
#895=CARTESIAN_POINT('',(1.04525329364113E-13,0.00325269119358446,-0.159242013633122));
#896=CARTESIAN_POINT('',(-0.0133055647513263,0.0165582559450152,-0.004));
#897=CARTESIAN_POINT('',(0.0133013144400352,0.0165540056335152,-0.00500320556268042));
#898=CARTESIAN_POINT('',(0.0266026288800073,0.0298553200734871,-0.00500320556268042));
#899=CARTESIAN_POINT('',(0.0266026288799661,0.0298553200734461,-0.005));
#900=CARTESIAN_POINT('',(0.0266026288800073,0.0298553200734871,-0.004));
#901=CARTESIAN_POINT('',(0.0266026288799654,0.0298553200734453,-0.00500320556268042));
#902=CARTESIAN_POINT('',(0.0266026288799654,0.0298553200734453,-0.00966158705280767));
#903=CARTESIAN_POINT('',(-8.50062289558709E-6,0.00324419057058439,-0.159242013633122));
#904=CARTESIAN_POINT('',(0.0133013144400352,0.0165540056335152,-0.004));
#905=CARTESIAN_POINT('',(0.0336551929926466,0.0369448432898921,-0.00500320556268042));
#906=CARTESIAN_POINT('',(0.0407077571053272,0.0440343665063384,-0.00500320556268042));
#907=CARTESIAN_POINT('',(0.0407077571053273,0.0440343665063384,-0.015));
#908=CARTESIAN_POINT('',(0.0407077571053272,0.0440343665063384,-0.004));
#909=CARTESIAN_POINT('',(0.0396498724884252,0.0429709380238714,-0.015));
#910=CARTESIAN_POINT('',(0.038591987871523,0.0419075095414045,-0.015));
#911=CARTESIAN_POINT('',(6.12265037361919E-5,0.00317482694542229,-0.159242013633122));
#912=CARTESIAN_POINT('',(0.0336551929926466,0.0369448432898921,-0.004));
#913=CARTESIAN_POINT('',(0.0423383530135673,0.0424122712209939,-0.00500320556268042));
#914=CARTESIAN_POINT('',(0.0439689489218072,0.0407901759356495,-0.00500320556268042));
#915=CARTESIAN_POINT('',(0.0439689489218072,0.0407901759356495,-0.015));
#916=CARTESIAN_POINT('',(0.0439689489218072,0.0407901759356495,-0.004));
#917=CARTESIAN_POINT('',(0.0407063392006839,0.0440357770191609,-0.015));
#918=CARTESIAN_POINT('',(0.0423383530135673,0.0424122712209939,-0.004));
#919=CARTESIAN_POINT('',(0.0369163848091267,0.0337006527192033,-0.00500320556268042));
#920=CARTESIAN_POINT('',(0.0165582559449977,0.0133055647513087,-0.005));
#921=CARTESIAN_POINT('',(0.0298563871851967,0.0266036869634813,-0.00500079795438257));
#922=CARTESIAN_POINT('',(0.0298638206964457,0.0266111295027566,-0.005));
#923=CARTESIAN_POINT('',(0.0298638206967564,0.026611129503069,-0.03));
#924=CARTESIAN_POINT('',(0.0298638206967564,0.026611129503069,-0.00966158705291861));
#925=CARTESIAN_POINT('',(0.00332241832021622,-6.93636252666141E-5,-0.159242013633122));
#926=CARTESIAN_POINT('',(0.041853179688003,0.0386633189707156,-0.015));
#927=CARTESIAN_POINT('',(0.0429110643049052,0.0397267474531825,-0.015));
#928=CARTESIAN_POINT('',(0.0369163848091267,0.0337006527192033,-0.004));
#929=CARTESIAN_POINT('',(0.0298563909983587,0.0266036831430309,-0.004));
#930=CARTESIAN_POINT('',(0.0298563909983587,0.0266036831430309,-0.00500320556268042));
#931=CARTESIAN_POINT('',(0.0165582559450152,0.0133055647513263,-0.00500320556268042));
#932=CARTESIAN_POINT('',(0.00325269119358447,-1.04511885257175E-13,-0.00500320556268042));
#933=CARTESIAN_POINT('',(0.00325269119358447,-1.04511885257175E-13,-0.004));
#934=CARTESIAN_POINT('',(0.00325269119358446,-1.04525926873792E-13,-0.159242013633122));
#935=CARTESIAN_POINT('',(0.0165582559450152,0.0133055647513263,-0.004));
#936=CARTESIAN_POINT('',(0.0165540056335152,-0.0133013144400352,-0.00500320556268042));
#937=CARTESIAN_POINT('',(0.029855320073446,-0.026602628879966,-0.00500320556268042));
#938=CARTESIAN_POINT('',(0.0298553200734453,-0.0266026288799654,-0.00966158705280767));
#939=CARTESIAN_POINT('',(0.029855320073446,-0.026602628879966,-0.004));
#940=CARTESIAN_POINT('',(0.00324419057058439,8.50062289558728E-6,-0.159242013633122));
#941=CARTESIAN_POINT('',(0.0165540056335152,-0.0133013144400352,-0.004));
#942=CARTESIAN_POINT('',(0.0369448432898921,-0.0336551929926466,-0.00500320556268042));
#943=CARTESIAN_POINT('',(0.0440343665063384,-0.0407077571053272,-0.00500320556268042));
#944=CARTESIAN_POINT('',(0.0440343665063384,-0.0407077571053273,-0.015));
#945=CARTESIAN_POINT('',(0.0440343665063384,-0.0407077571053272,-0.004));
#946=CARTESIAN_POINT('',(0.0429709380238714,-0.0396498724884252,-0.015));
#947=CARTESIAN_POINT('',(0.0419075095414045,-0.038591987871523,-0.015));
#948=CARTESIAN_POINT('',(0.00317482694542229,-6.12265037361917E-5,-0.159242013633122));
#949=CARTESIAN_POINT('',(0.0369448432898921,-0.0336551929926466,-0.004));
#950=CARTESIAN_POINT('',(0.0424122712209939,-0.0423383530135673,-0.00500320556268042));
#951=CARTESIAN_POINT('',(0.0440357770191609,-0.0407063392006839,-0.015));
#952=CARTESIAN_POINT('',(0.0424122712209939,-0.0423383530135673,-0.004));
#953=CARTESIAN_POINT('',(-6.93889390390723E-18,-6.93889390390723E-18,-0.004));
#954=CARTESIAN_POINT('',(-5.98085990928959E-5,-0.00317623745824483,-0.159242013633122));
#955=CARTESIAN_POINT('',(-0.0385905699668798,-0.041908920054227,-0.015));
#956=CARTESIAN_POINT('',(-0.0396484545837818,-0.042972348536694,-0.015));
#957=CARTESIAN_POINT('',(0.00317623745824483,-5.98085990928961E-5,-0.159242013633122));
#958=CARTESIAN_POINT('',(0.041908920054227,-0.0385905699668798,-0.015));
#959=CARTESIAN_POINT('',(0.042972348536694,-0.0396484545837818,-0.015));
#960=CARTESIAN_POINT('',(5.98085990928963E-5,0.00317623745824483,-0.159242013633122));
#961=CARTESIAN_POINT('',(0.0385905699668798,0.041908920054227,-0.015));
#962=CARTESIAN_POINT('',(0.0396484545837818,0.042972348536694,-0.015));
#963=CARTESIAN_POINT('',(-0.00317623745824483,5.98085990928957E-5,-0.159242013633122));
#964=CARTESIAN_POINT('',(-0.041908920054227,0.0385905699668798,-0.015));
#965=CARTESIAN_POINT('',(-0.042972348536694,0.0396484545837818,-0.015));
#966=MECHANICAL_DESIGN_GEOMETRIC_PRESENTATION_REPRESENTATION('',(#581),
#967);
#967=(
GEOMETRIC_REPRESENTATION_CONTEXT(3)
GLOBAL_UNCERTAINTY_ASSIGNED_CONTEXT((#968))
GLOBAL_UNIT_ASSIGNED_CONTEXT((#971,#970,#969))
REPRESENTATION_CONTEXT('feet','TOP_LEVEL_ASSEMBLY_PART')
);
#968=UNCERTAINTY_MEASURE_WITH_UNIT(LENGTH_MEASURE(5.90983492926303E-5),
#971,'DISTANCE_ACCURACY_VALUE','Maximum Tolerance applied to model');
#969=(
NAMED_UNIT(*)
SI_UNIT($,.STERADIAN.)
SOLID_ANGLE_UNIT()
);
#970=(
NAMED_UNIT(*)
PLANE_ANGLE_UNIT()
SI_UNIT($,.RADIAN.)
);
#971=(
LENGTH_UNIT()
NAMED_UNIT(*)
SI_UNIT($,.METRE.)
);
#972=PRODUCT_DEFINITION_SHAPE('','',#973);
#973=PRODUCT_DEFINITION('','',#975,#974);
#974=PRODUCT_DEFINITION_CONTEXT('',#981,'design');
#975=PRODUCT_DEFINITION_FORMATION_WITH_SPECIFIED_SOURCE('','',#977,
 .NOT_KNOWN.);
#976=PRODUCT_RELATED_PRODUCT_CATEGORY('','',(#977));
#977=PRODUCT('feet','feet','feet',(#979));
#978=PRODUCT_CATEGORY('','');
#979=PRODUCT_CONTEXT('',#981,'mechanical');
#980=APPLICATION_PROTOCOL_DEFINITION('international standard',
'ap242_managed_model_based_3d_engineering',2020,#981);
#981=APPLICATION_CONTEXT('managed model based 3d engineering');
ENDSEC;
END-ISO-10303-21;
