ISO-10303-21;
HEADER;
/* Generated by software containing ST-Developer
 * from STEP Tools, Inc. (www.steptools.com) 
 */
/* OPTION: using custom renumber hook */

FILE_DESCRIPTION(
/* description */ ('STEP AP242 Edition 2',
'CAx-IF Rec.Pracs.---Representation and Presentation of Product Manufa
cturing Information (PMI)---4.0---2014-10-13',
'CAx-IF Rec.Pracs.---3D Tessellated Geometry---0.4---2014-09-14','2;1',
'CAx-IF Rec.Pracs.---User Defined Attributes---1.5---2016-08-15'),
/* implementation_level */ '2;1');

FILE_NAME(
/* name */ '6984074ee5e25d2aa247cb20',
/* time_stamp */ '2026-02-05T02:58:22Z',
/* author */ (''),
/* organization */ (''),
/* preprocessor_version */ 'ST-DEVELOPER v20',
/* originating_system */ 'ONSHAPE BY PTC INC, 1.210',
/* authorisation */ '  ');

FILE_SCHEMA (('AP242_MANAGED_MODEL_BASED_3D_ENGINEERING_MIM_LF { 1 0 10303 442 3 1 4 }'));
ENDSEC;

DATA;
#10=SHAPE_REPRESENTATION_RELATIONSHIP('','',#489,#11);
#11=ADVANCED_BREP_SHAPE_REPRESENTATION('',(#487),#829);
#12=CYLINDRICAL_SURFACE('',#503,0.0599678824220139);
#13=CYLINDRICAL_SURFACE('',#511,0.0549678824220139);
#14=CYLINDRICAL_SURFACE('',#525,0.00825);
#15=CYLINDRICAL_SURFACE('',#527,0.00825);
#16=LINE('',#693,#58);
#17=LINE('',#697,#59);
#18=LINE('',#702,#60);
#19=LINE('',#706,#61);
#20=LINE('',#711,#62);
#21=LINE('',#715,#63);
#22=LINE('',#720,#64);
#23=LINE('',#724,#65);
#24=LINE('',#731,#66);
#25=LINE('',#735,#67);
#26=LINE('',#736,#68);
#27=LINE('',#740,#69);
#28=LINE('',#741,#70);
#29=LINE('',#745,#71);
#30=LINE('',#746,#72);
#31=LINE('',#750,#73);
#32=LINE('',#751,#74);
#33=LINE('',#755,#75);
#34=LINE('',#762,#76);
#35=LINE('',#766,#77);
#36=LINE('',#767,#78);
#37=LINE('',#771,#79);
#38=LINE('',#772,#80);
#39=LINE('',#776,#81);
#40=LINE('',#777,#82);
#41=LINE('',#781,#83);
#42=LINE('',#782,#84);
#43=LINE('',#786,#85);
#44=LINE('',#791,#86);
#45=LINE('',#792,#87);
#46=LINE('',#796,#88);
#47=LINE('',#798,#89);
#48=LINE('',#800,#90);
#49=LINE('',#802,#91);
#50=LINE('',#808,#92);
#51=LINE('',#811,#93);
#52=LINE('',#813,#94);
#53=LINE('',#816,#95);
#54=LINE('',#819,#96);
#55=LINE('',#821,#97);
#56=LINE('',#824,#98);
#57=LINE('',#826,#99);
#58=VECTOR('',#548,1.);
#59=VECTOR('',#551,1.);
#60=VECTOR('',#556,1.);
#61=VECTOR('',#559,1.);
#62=VECTOR('',#564,1.);
#63=VECTOR('',#567,1.);
#64=VECTOR('',#572,1.);
#65=VECTOR('',#575,1.);
#66=VECTOR('',#582,1.);
#67=VECTOR('',#585,1.);
#68=VECTOR('',#586,1.);
#69=VECTOR('',#589,1.);
#70=VECTOR('',#590,1.);
#71=VECTOR('',#593,1.);
#72=VECTOR('',#594,1.);
#73=VECTOR('',#597,1.);
#74=VECTOR('',#598,1.);
#75=VECTOR('',#601,1.);
#76=VECTOR('',#608,1.);
#77=VECTOR('',#611,1.);
#78=VECTOR('',#612,1.);
#79=VECTOR('',#615,1.);
#80=VECTOR('',#616,1.);
#81=VECTOR('',#619,1.);
#82=VECTOR('',#620,1.);
#83=VECTOR('',#623,1.);
#84=VECTOR('',#624,1.);
#85=VECTOR('',#627,1.);
#86=VECTOR('',#634,1.);
#87=VECTOR('',#635,1.);
#88=VECTOR('',#640,1.);
#89=VECTOR('',#641,1.);
#90=VECTOR('',#644,1.);
#91=VECTOR('',#645,1.);
#92=VECTOR('',#656,1.);
#93=VECTOR('',#661,1.);
#94=VECTOR('',#664,1.);
#95=VECTOR('',#669,1.);
#96=VECTOR('',#674,1.);
#97=VECTOR('',#677,1.);
#98=VECTOR('',#682,1.);
#99=VECTOR('',#685,1.);
#100=ORIENTED_EDGE('',*,*,#236,.T.);
#101=ORIENTED_EDGE('',*,*,#237,.T.);
#102=ORIENTED_EDGE('',*,*,#238,.F.);
#103=ORIENTED_EDGE('',*,*,#239,.T.);
#104=ORIENTED_EDGE('',*,*,#240,.F.);
#105=ORIENTED_EDGE('',*,*,#241,.T.);
#106=ORIENTED_EDGE('',*,*,#242,.T.);
#107=ORIENTED_EDGE('',*,*,#243,.T.);
#108=ORIENTED_EDGE('',*,*,#244,.F.);
#109=ORIENTED_EDGE('',*,*,#245,.T.);
#110=ORIENTED_EDGE('',*,*,#246,.T.);
#111=ORIENTED_EDGE('',*,*,#247,.T.);
#112=ORIENTED_EDGE('',*,*,#248,.F.);
#113=ORIENTED_EDGE('',*,*,#249,.T.);
#114=ORIENTED_EDGE('',*,*,#250,.T.);
#115=ORIENTED_EDGE('',*,*,#251,.T.);
#116=ORIENTED_EDGE('',*,*,#252,.F.);
#117=ORIENTED_EDGE('',*,*,#253,.T.);
#118=ORIENTED_EDGE('',*,*,#254,.F.);
#119=ORIENTED_EDGE('',*,*,#255,.T.);
#120=ORIENTED_EDGE('',*,*,#256,.T.);
#121=ORIENTED_EDGE('',*,*,#248,.T.);
#122=ORIENTED_EDGE('',*,*,#257,.F.);
#123=ORIENTED_EDGE('',*,*,#258,.T.);
#124=ORIENTED_EDGE('',*,*,#259,.T.);
#125=ORIENTED_EDGE('',*,*,#238,.T.);
#126=ORIENTED_EDGE('',*,*,#260,.F.);
#127=ORIENTED_EDGE('',*,*,#261,.T.);
#128=ORIENTED_EDGE('',*,*,#262,.T.);
#129=ORIENTED_EDGE('',*,*,#240,.T.);
#130=ORIENTED_EDGE('',*,*,#263,.F.);
#131=ORIENTED_EDGE('',*,*,#264,.T.);
#132=ORIENTED_EDGE('',*,*,#265,.T.);
#133=ORIENTED_EDGE('',*,*,#244,.T.);
#134=ORIENTED_EDGE('',*,*,#266,.F.);
#135=ORIENTED_EDGE('',*,*,#267,.T.);
#136=ORIENTED_EDGE('',*,*,#268,.T.);
#137=ORIENTED_EDGE('',*,*,#269,.T.);
#138=ORIENTED_EDGE('',*,*,#270,.F.);
#139=ORIENTED_EDGE('',*,*,#271,.F.);
#140=ORIENTED_EDGE('',*,*,#272,.F.);
#141=ORIENTED_EDGE('',*,*,#273,.T.);
#142=ORIENTED_EDGE('',*,*,#246,.F.);
#143=ORIENTED_EDGE('',*,*,#274,.F.);
#144=ORIENTED_EDGE('',*,*,#275,.F.);
#145=ORIENTED_EDGE('',*,*,#276,.T.);
#146=ORIENTED_EDGE('',*,*,#242,.F.);
#147=ORIENTED_EDGE('',*,*,#277,.F.);
#148=ORIENTED_EDGE('',*,*,#278,.F.);
#149=ORIENTED_EDGE('',*,*,#279,.T.);
#150=ORIENTED_EDGE('',*,*,#236,.F.);
#151=ORIENTED_EDGE('',*,*,#280,.F.);
#152=ORIENTED_EDGE('',*,*,#281,.F.);
#153=ORIENTED_EDGE('',*,*,#282,.T.);
#154=ORIENTED_EDGE('',*,*,#250,.F.);
#155=ORIENTED_EDGE('',*,*,#283,.F.);
#156=ORIENTED_EDGE('',*,*,#284,.F.);
#157=ORIENTED_EDGE('',*,*,#285,.T.);
#158=ORIENTED_EDGE('',*,*,#252,.T.);
#159=ORIENTED_EDGE('',*,*,#269,.F.);
#160=ORIENTED_EDGE('',*,*,#253,.F.);
#161=ORIENTED_EDGE('',*,*,#286,.T.);
#162=ORIENTED_EDGE('',*,*,#287,.T.);
#163=ORIENTED_EDGE('',*,*,#270,.T.);
#164=ORIENTED_EDGE('',*,*,#288,.F.);
#165=ORIENTED_EDGE('',*,*,#289,.T.);
#166=ORIENTED_EDGE('',*,*,#285,.F.);
#167=ORIENTED_EDGE('',*,*,#290,.F.);
#168=ORIENTED_EDGE('',*,*,#291,.T.);
#169=ORIENTED_EDGE('',*,*,#288,.T.);
#170=ORIENTED_EDGE('',*,*,#292,.F.);
#171=ORIENTED_EDGE('',*,*,#293,.T.);
#172=ORIENTED_EDGE('',*,*,#271,.T.);
#173=ORIENTED_EDGE('',*,*,#287,.F.);
#174=ORIENTED_EDGE('',*,*,#268,.F.);
#175=ORIENTED_EDGE('',*,*,#294,.T.);
#176=ORIENTED_EDGE('',*,*,#292,.T.);
#177=ORIENTED_EDGE('',*,*,#286,.F.);
#178=ORIENTED_EDGE('',*,*,#291,.F.);
#179=ORIENTED_EDGE('',*,*,#295,.T.);
#180=ORIENTED_EDGE('',*,*,#254,.T.);
#181=ORIENTED_EDGE('',*,*,#289,.F.);
#182=ORIENTED_EDGE('',*,*,#247,.F.);
#183=ORIENTED_EDGE('',*,*,#273,.F.);
#184=ORIENTED_EDGE('',*,*,#296,.T.);
#185=ORIENTED_EDGE('',*,*,#266,.T.);
#186=ORIENTED_EDGE('',*,*,#296,.F.);
#187=ORIENTED_EDGE('',*,*,#272,.T.);
#188=ORIENTED_EDGE('',*,*,#293,.F.);
#189=ORIENTED_EDGE('',*,*,#294,.F.);
#190=ORIENTED_EDGE('',*,*,#267,.F.);
#191=ORIENTED_EDGE('',*,*,#251,.F.);
#192=ORIENTED_EDGE('',*,*,#282,.F.);
#193=ORIENTED_EDGE('',*,*,#297,.T.);
#194=ORIENTED_EDGE('',*,*,#257,.T.);
#195=ORIENTED_EDGE('',*,*,#239,.F.);
#196=ORIENTED_EDGE('',*,*,#259,.F.);
#197=ORIENTED_EDGE('',*,*,#298,.T.);
#198=ORIENTED_EDGE('',*,*,#280,.T.);
#199=ORIENTED_EDGE('',*,*,#297,.F.);
#200=ORIENTED_EDGE('',*,*,#281,.T.);
#201=ORIENTED_EDGE('',*,*,#298,.F.);
#202=ORIENTED_EDGE('',*,*,#258,.F.);
#203=ORIENTED_EDGE('',*,*,#249,.F.);
#204=ORIENTED_EDGE('',*,*,#256,.F.);
#205=ORIENTED_EDGE('',*,*,#299,.T.);
#206=ORIENTED_EDGE('',*,*,#283,.T.);
#207=ORIENTED_EDGE('',*,*,#299,.F.);
#208=ORIENTED_EDGE('',*,*,#255,.F.);
#209=ORIENTED_EDGE('',*,*,#295,.F.);
#210=ORIENTED_EDGE('',*,*,#290,.T.);
#211=ORIENTED_EDGE('',*,*,#284,.T.);
#212=ORIENTED_EDGE('',*,*,#243,.F.);
#213=ORIENTED_EDGE('',*,*,#276,.F.);
#214=ORIENTED_EDGE('',*,*,#300,.T.);
#215=ORIENTED_EDGE('',*,*,#263,.T.);
#216=ORIENTED_EDGE('',*,*,#245,.F.);
#217=ORIENTED_EDGE('',*,*,#265,.F.);
#218=ORIENTED_EDGE('',*,*,#301,.T.);
#219=ORIENTED_EDGE('',*,*,#274,.T.);
#220=ORIENTED_EDGE('',*,*,#300,.F.);
#221=ORIENTED_EDGE('',*,*,#275,.T.);
#222=ORIENTED_EDGE('',*,*,#301,.F.);
#223=ORIENTED_EDGE('',*,*,#264,.F.);
#224=ORIENTED_EDGE('',*,*,#237,.F.);
#225=ORIENTED_EDGE('',*,*,#279,.F.);
#226=ORIENTED_EDGE('',*,*,#302,.T.);
#227=ORIENTED_EDGE('',*,*,#260,.T.);
#228=ORIENTED_EDGE('',*,*,#241,.F.);
#229=ORIENTED_EDGE('',*,*,#262,.F.);
#230=ORIENTED_EDGE('',*,*,#303,.T.);
#231=ORIENTED_EDGE('',*,*,#277,.T.);
#232=ORIENTED_EDGE('',*,*,#302,.F.);
#233=ORIENTED_EDGE('',*,*,#278,.T.);
#234=ORIENTED_EDGE('',*,*,#303,.F.);
#235=ORIENTED_EDGE('',*,*,#261,.F.);
#236=EDGE_CURVE('',#304,#305,#350,.F.);
#237=EDGE_CURVE('',#305,#306,#16,.T.);
#238=EDGE_CURVE('',#307,#306,#351,.F.);
#239=EDGE_CURVE('',#307,#304,#17,.T.);
#240=EDGE_CURVE('',#308,#309,#352,.F.);
#241=EDGE_CURVE('',#308,#310,#18,.T.);
#242=EDGE_CURVE('',#310,#311,#353,.F.);
#243=EDGE_CURVE('',#311,#309,#19,.T.);
#244=EDGE_CURVE('',#312,#313,#354,.F.);
#245=EDGE_CURVE('',#312,#314,#20,.T.);
#246=EDGE_CURVE('',#314,#315,#355,.F.);
#247=EDGE_CURVE('',#315,#313,#21,.T.);
#248=EDGE_CURVE('',#316,#317,#356,.F.);
#249=EDGE_CURVE('',#316,#318,#22,.T.);
#250=EDGE_CURVE('',#318,#319,#357,.F.);
#251=EDGE_CURVE('',#319,#317,#23,.T.);
#252=EDGE_CURVE('',#320,#320,#358,.T.);
#253=EDGE_CURVE('',#321,#322,#359,.T.);
#254=EDGE_CURVE('',#323,#322,#24,.T.);
#255=EDGE_CURVE('',#323,#324,#360,.F.);
#256=EDGE_CURVE('',#324,#316,#25,.T.);
#257=EDGE_CURVE('',#325,#317,#26,.T.);
#258=EDGE_CURVE('',#325,#326,#361,.F.);
#259=EDGE_CURVE('',#326,#307,#27,.T.);
#260=EDGE_CURVE('',#327,#306,#28,.T.);
#261=EDGE_CURVE('',#327,#328,#362,.F.);
#262=EDGE_CURVE('',#328,#308,#29,.T.);
#263=EDGE_CURVE('',#329,#309,#30,.T.);
#264=EDGE_CURVE('',#329,#330,#363,.F.);
#265=EDGE_CURVE('',#330,#312,#31,.T.);
#266=EDGE_CURVE('',#331,#313,#32,.T.);
#267=EDGE_CURVE('',#331,#332,#364,.F.);
#268=EDGE_CURVE('',#332,#321,#33,.T.);
#269=EDGE_CURVE('',#333,#333,#365,.T.);
#270=EDGE_CURVE('',#334,#335,#366,.T.);
#271=EDGE_CURVE('',#336,#334,#34,.T.);
#272=EDGE_CURVE('',#337,#336,#367,.F.);
#273=EDGE_CURVE('',#337,#315,#35,.T.);
#274=EDGE_CURVE('',#338,#314,#36,.T.);
#275=EDGE_CURVE('',#339,#338,#368,.F.);
#276=EDGE_CURVE('',#339,#311,#37,.T.);
#277=EDGE_CURVE('',#340,#310,#38,.T.);
#278=EDGE_CURVE('',#341,#340,#369,.F.);
#279=EDGE_CURVE('',#341,#305,#39,.T.);
#280=EDGE_CURVE('',#342,#304,#40,.T.);
#281=EDGE_CURVE('',#343,#342,#370,.F.);
#282=EDGE_CURVE('',#343,#319,#41,.T.);
#283=EDGE_CURVE('',#344,#318,#42,.T.);
#284=EDGE_CURVE('',#345,#344,#371,.F.);
#285=EDGE_CURVE('',#345,#335,#43,.T.);
#286=EDGE_CURVE('',#321,#346,#372,.T.);
#287=EDGE_CURVE('',#346,#334,#44,.T.);
#288=EDGE_CURVE('',#347,#335,#45,.T.);
#289=EDGE_CURVE('',#347,#322,#373,.T.);
#290=EDGE_CURVE('',#348,#345,#46,.T.);
#291=EDGE_CURVE('',#348,#347,#47,.T.);
#292=EDGE_CURVE('',#349,#346,#48,.T.);
#293=EDGE_CURVE('',#349,#336,#49,.T.);
#294=EDGE_CURVE('',#332,#349,#374,.T.);
#295=EDGE_CURVE('',#348,#323,#375,.T.);
#296=EDGE_CURVE('',#337,#331,#50,.T.);
#297=EDGE_CURVE('',#343,#325,#51,.T.);
#298=EDGE_CURVE('',#326,#342,#52,.T.);
#299=EDGE_CURVE('',#324,#344,#53,.T.);
#300=EDGE_CURVE('',#339,#329,#54,.T.);
#301=EDGE_CURVE('',#330,#338,#55,.T.);
#302=EDGE_CURVE('',#341,#327,#56,.T.);
#303=EDGE_CURVE('',#328,#340,#57,.T.);
#304=VERTEX_POINT('',#691);
#305=VERTEX_POINT('',#692);
#306=VERTEX_POINT('',#694);
#307=VERTEX_POINT('',#696);
#308=VERTEX_POINT('',#700);
#309=VERTEX_POINT('',#701);
#310=VERTEX_POINT('',#703);
#311=VERTEX_POINT('',#705);
#312=VERTEX_POINT('',#709);
#313=VERTEX_POINT('',#710);
#314=VERTEX_POINT('',#712);
#315=VERTEX_POINT('',#714);
#316=VERTEX_POINT('',#718);
#317=VERTEX_POINT('',#719);
#318=VERTEX_POINT('',#721);
#319=VERTEX_POINT('',#723);
#320=VERTEX_POINT('',#727);
#321=VERTEX_POINT('',#729);
#322=VERTEX_POINT('',#730);
#323=VERTEX_POINT('',#732);
#324=VERTEX_POINT('',#734);
#325=VERTEX_POINT('',#737);
#326=VERTEX_POINT('',#739);
#327=VERTEX_POINT('',#742);
#328=VERTEX_POINT('',#744);
#329=VERTEX_POINT('',#747);
#330=VERTEX_POINT('',#749);
#331=VERTEX_POINT('',#752);
#332=VERTEX_POINT('',#754);
#333=VERTEX_POINT('',#758);
#334=VERTEX_POINT('',#760);
#335=VERTEX_POINT('',#761);
#336=VERTEX_POINT('',#763);
#337=VERTEX_POINT('',#765);
#338=VERTEX_POINT('',#768);
#339=VERTEX_POINT('',#770);
#340=VERTEX_POINT('',#773);
#341=VERTEX_POINT('',#775);
#342=VERTEX_POINT('',#778);
#343=VERTEX_POINT('',#780);
#344=VERTEX_POINT('',#783);
#345=VERTEX_POINT('',#785);
#346=VERTEX_POINT('',#790);
#347=VERTEX_POINT('',#793);
#348=VERTEX_POINT('',#797);
#349=VERTEX_POINT('',#801);
#350=CIRCLE('',#492,0.0549678824220139);
#351=CIRCLE('',#493,0.0599678824220139);
#352=CIRCLE('',#495,0.0599678824220139);
#353=CIRCLE('',#496,0.0549678824220139);
#354=CIRCLE('',#498,0.0599678824220139);
#355=CIRCLE('',#499,0.0549678824220139);
#356=CIRCLE('',#501,0.0599678824220139);
#357=CIRCLE('',#502,0.0549678824220139);
#358=CIRCLE('',#504,0.0599678824220139);
#359=CIRCLE('',#505,0.0599678824220139);
#360=CIRCLE('',#506,0.0599678824220139);
#361=CIRCLE('',#507,0.0599678824220139);
#362=CIRCLE('',#508,0.0599678824220139);
#363=CIRCLE('',#509,0.0599678824220139);
#364=CIRCLE('',#510,0.0599678824220139);
#365=CIRCLE('',#512,0.0549678824220139);
#366=CIRCLE('',#513,0.0549678824220139);
#367=CIRCLE('',#514,0.0549678824220139);
#368=CIRCLE('',#515,0.0549678824220139);
#369=CIRCLE('',#516,0.0549678824220139);
#370=CIRCLE('',#517,0.0549678824220139);
#371=CIRCLE('',#518,0.0549678824220139);
#372=CIRCLE('',#521,0.00825);
#373=CIRCLE('',#522,0.00825);
#374=CIRCLE('',#526,0.00825);
#375=CIRCLE('',#528,0.00825);
#376=EDGE_LOOP('',(#100,#101,#102,#103));
#377=EDGE_LOOP('',(#104,#105,#106,#107));
#378=EDGE_LOOP('',(#108,#109,#110,#111));
#379=EDGE_LOOP('',(#112,#113,#114,#115));
#380=EDGE_LOOP('',(#116));
#381=EDGE_LOOP('',(#117,#118,#119,#120,#121,#122,#123,#124,#125,#126,#127,
#128,#129,#130,#131,#132,#133,#134,#135,#136));
#382=EDGE_LOOP('',(#137));
#383=EDGE_LOOP('',(#138,#139,#140,#141,#142,#143,#144,#145,#146,#147,#148,
#149,#150,#151,#152,#153,#154,#155,#156,#157));
#384=EDGE_LOOP('',(#158));
#385=EDGE_LOOP('',(#159));
#386=EDGE_LOOP('',(#160,#161,#162,#163,#164,#165));
#387=EDGE_LOOP('',(#166,#167,#168,#169));
#388=EDGE_LOOP('',(#170,#171,#172,#173));
#389=EDGE_LOOP('',(#174,#175,#176,#177));
#390=EDGE_LOOP('',(#178,#179,#180,#181));
#391=EDGE_LOOP('',(#182,#183,#184,#185));
#392=EDGE_LOOP('',(#186,#187,#188,#189,#190));
#393=EDGE_LOOP('',(#191,#192,#193,#194));
#394=EDGE_LOOP('',(#195,#196,#197,#198));
#395=EDGE_LOOP('',(#199,#200,#201,#202));
#396=EDGE_LOOP('',(#203,#204,#205,#206));
#397=EDGE_LOOP('',(#207,#208,#209,#210,#211));
#398=EDGE_LOOP('',(#212,#213,#214,#215));
#399=EDGE_LOOP('',(#216,#217,#218,#219));
#400=EDGE_LOOP('',(#220,#221,#222,#223));
#401=EDGE_LOOP('',(#224,#225,#226,#227));
#402=EDGE_LOOP('',(#228,#229,#230,#231));
#403=EDGE_LOOP('',(#232,#233,#234,#235));
#404=FACE_BOUND('',#376,.T.);
#405=FACE_BOUND('',#377,.T.);
#406=FACE_BOUND('',#378,.T.);
#407=FACE_BOUND('',#379,.T.);
#408=FACE_BOUND('',#380,.T.);
#409=FACE_BOUND('',#381,.T.);
#410=FACE_BOUND('',#382,.T.);
#411=FACE_BOUND('',#383,.T.);
#412=FACE_BOUND('',#384,.T.);
#413=FACE_BOUND('',#385,.T.);
#414=FACE_BOUND('',#386,.T.);
#415=FACE_BOUND('',#387,.T.);
#416=FACE_BOUND('',#388,.T.);
#417=FACE_BOUND('',#389,.T.);
#418=FACE_BOUND('',#390,.T.);
#419=FACE_BOUND('',#391,.T.);
#420=FACE_BOUND('',#392,.T.);
#421=FACE_BOUND('',#393,.T.);
#422=FACE_BOUND('',#394,.T.);
#423=FACE_BOUND('',#395,.T.);
#424=FACE_BOUND('',#396,.T.);
#425=FACE_BOUND('',#397,.T.);
#426=FACE_BOUND('',#398,.T.);
#427=FACE_BOUND('',#399,.T.);
#428=FACE_BOUND('',#400,.T.);
#429=FACE_BOUND('',#401,.T.);
#430=FACE_BOUND('',#402,.T.);
#431=FACE_BOUND('',#403,.T.);
#432=PLANE('',#491);
#433=PLANE('',#494);
#434=PLANE('',#497);
#435=PLANE('',#500);
#436=PLANE('',#519);
#437=PLANE('',#520);
#438=PLANE('',#523);
#439=PLANE('',#524);
#440=PLANE('',#529);
#441=PLANE('',#530);
#442=PLANE('',#531);
#443=PLANE('',#532);
#444=PLANE('',#533);
#445=PLANE('',#534);
#446=PLANE('',#535);
#447=PLANE('',#536);
#448=PLANE('',#537);
#449=PLANE('',#538);
#450=PLANE('',#539);
#451=PLANE('',#540);
#452=PLANE('',#541);
#453=ADVANCED_FACE('',(#404),#432,.T.);
#454=ADVANCED_FACE('',(#405),#433,.T.);
#455=ADVANCED_FACE('',(#406),#434,.T.);
#456=ADVANCED_FACE('',(#407),#435,.T.);
#457=ADVANCED_FACE('',(#408,#409),#12,.T.);
#458=ADVANCED_FACE('',(#410,#411),#13,.F.);
#459=ADVANCED_FACE('',(#412,#413),#436,.T.);
#460=ADVANCED_FACE('',(#414),#437,.F.);
#461=ADVANCED_FACE('',(#415),#438,.F.);
#462=ADVANCED_FACE('',(#416),#439,.T.);
#463=ADVANCED_FACE('',(#417),#14,.F.);
#464=ADVANCED_FACE('',(#418),#15,.F.);
#465=ADVANCED_FACE('',(#419),#440,.T.);
#466=ADVANCED_FACE('',(#420),#441,.T.);
#467=ADVANCED_FACE('',(#421),#442,.T.);
#468=ADVANCED_FACE('',(#422),#443,.T.);
#469=ADVANCED_FACE('',(#423),#444,.T.);
#470=ADVANCED_FACE('',(#424),#445,.T.);
#471=ADVANCED_FACE('',(#425),#446,.T.);
#472=ADVANCED_FACE('',(#426),#447,.T.);
#473=ADVANCED_FACE('',(#427),#448,.T.);
#474=ADVANCED_FACE('',(#428),#449,.T.);
#475=ADVANCED_FACE('',(#429),#450,.T.);
#476=ADVANCED_FACE('',(#430),#451,.T.);
#477=ADVANCED_FACE('',(#431),#452,.T.);
#478=CLOSED_SHELL('',(#453,#454,#455,#456,#457,#458,#459,#460,#461,#462,
#463,#464,#465,#466,#467,#468,#469,#470,#471,#472,#473,#474,#475,#476,#477));
#479=STYLED_ITEM('',(#480),#487);
#480=PRESENTATION_STYLE_ASSIGNMENT((#481));
#481=SURFACE_STYLE_USAGE(.BOTH.,#482);
#482=SURFACE_SIDE_STYLE('',(#483));
#483=SURFACE_STYLE_FILL_AREA(#484);
#484=FILL_AREA_STYLE('',(#485));
#485=FILL_AREA_STYLE_COLOUR('',#486);
#486=COLOUR_RGB('',0.262745098039216,0.282352941176471,0.301960784313725);
#487=MANIFOLD_SOLID_BREP('OuterRing',#478);
#488=SHAPE_DEFINITION_REPRESENTATION(#834,#489);
#489=SHAPE_REPRESENTATION('OuterRing',(#490),#829);
#490=AXIS2_PLACEMENT_3D('',#688,#542,#543);
#491=AXIS2_PLACEMENT_3D('',#689,#544,#545);
#492=AXIS2_PLACEMENT_3D('',#690,#546,#547);
#493=AXIS2_PLACEMENT_3D('',#695,#549,#550);
#494=AXIS2_PLACEMENT_3D('',#698,#552,#553);
#495=AXIS2_PLACEMENT_3D('',#699,#554,#555);
#496=AXIS2_PLACEMENT_3D('',#704,#557,#558);
#497=AXIS2_PLACEMENT_3D('',#707,#560,#561);
#498=AXIS2_PLACEMENT_3D('',#708,#562,#563);
#499=AXIS2_PLACEMENT_3D('',#713,#565,#566);
#500=AXIS2_PLACEMENT_3D('',#716,#568,#569);
#501=AXIS2_PLACEMENT_3D('',#717,#570,#571);
#502=AXIS2_PLACEMENT_3D('',#722,#573,#574);
#503=AXIS2_PLACEMENT_3D('',#725,#576,#577);
#504=AXIS2_PLACEMENT_3D('',#726,#578,#579);
#505=AXIS2_PLACEMENT_3D('',#728,#580,#581);
#506=AXIS2_PLACEMENT_3D('',#733,#583,#584);
#507=AXIS2_PLACEMENT_3D('',#738,#587,#588);
#508=AXIS2_PLACEMENT_3D('',#743,#591,#592);
#509=AXIS2_PLACEMENT_3D('',#748,#595,#596);
#510=AXIS2_PLACEMENT_3D('',#753,#599,#600);
#511=AXIS2_PLACEMENT_3D('',#756,#602,#603);
#512=AXIS2_PLACEMENT_3D('',#757,#604,#605);
#513=AXIS2_PLACEMENT_3D('',#759,#606,#607);
#514=AXIS2_PLACEMENT_3D('',#764,#609,#610);
#515=AXIS2_PLACEMENT_3D('',#769,#613,#614);
#516=AXIS2_PLACEMENT_3D('',#774,#617,#618);
#517=AXIS2_PLACEMENT_3D('',#779,#621,#622);
#518=AXIS2_PLACEMENT_3D('',#784,#625,#626);
#519=AXIS2_PLACEMENT_3D('',#787,#628,#629);
#520=AXIS2_PLACEMENT_3D('',#788,#630,#631);
#521=AXIS2_PLACEMENT_3D('',#789,#632,#633);
#522=AXIS2_PLACEMENT_3D('',#794,#636,#637);
#523=AXIS2_PLACEMENT_3D('',#795,#638,#639);
#524=AXIS2_PLACEMENT_3D('',#799,#642,#643);
#525=AXIS2_PLACEMENT_3D('',#803,#646,#647);
#526=AXIS2_PLACEMENT_3D('',#804,#648,#649);
#527=AXIS2_PLACEMENT_3D('',#805,#650,#651);
#528=AXIS2_PLACEMENT_3D('',#806,#652,#653);
#529=AXIS2_PLACEMENT_3D('',#807,#654,#655);
#530=AXIS2_PLACEMENT_3D('',#809,#657,#658);
#531=AXIS2_PLACEMENT_3D('',#810,#659,#660);
#532=AXIS2_PLACEMENT_3D('',#812,#662,#663);
#533=AXIS2_PLACEMENT_3D('',#814,#665,#666);
#534=AXIS2_PLACEMENT_3D('',#815,#667,#668);
#535=AXIS2_PLACEMENT_3D('',#817,#670,#671);
#536=AXIS2_PLACEMENT_3D('',#818,#672,#673);
#537=AXIS2_PLACEMENT_3D('',#820,#675,#676);
#538=AXIS2_PLACEMENT_3D('',#822,#678,#679);
#539=AXIS2_PLACEMENT_3D('',#823,#680,#681);
#540=AXIS2_PLACEMENT_3D('',#825,#683,#684);
#541=AXIS2_PLACEMENT_3D('',#827,#686,#687);
#542=DIRECTION('',(0.,0.,1.));
#543=DIRECTION('',(1.,0.,0.));
#544=DIRECTION('',(0.,0.,-1.));
#545=DIRECTION('',(1.,0.,0.));
#546=DIRECTION('',(0.,0.,-1.));
#547=DIRECTION('',(-1.,0.,0.));
#548=DIRECTION('',(-0.708952321644619,0.705256411268061,0.));
#549=DIRECTION('',(0.,0.,-1.));
#550=DIRECTION('',(-1.,0.,0.));
#551=DIRECTION('',(0.70895232164462,-0.705256411268061,0.));
#552=DIRECTION('',(0.,0.,-1.));
#553=DIRECTION('',(1.,0.,0.));
#554=DIRECTION('',(0.,0.,-1.));
#555=DIRECTION('',(-1.,0.,0.));
#556=DIRECTION('',(0.705256411268061,0.708952321644619,0.));
#557=DIRECTION('',(0.,0.,-1.));
#558=DIRECTION('',(-1.,0.,0.));
#559=DIRECTION('',(-0.705256411268061,-0.708952321644619,0.));
#560=DIRECTION('',(0.,0.,-1.));
#561=DIRECTION('',(1.,0.,0.));
#562=DIRECTION('',(0.,0.,-1.));
#563=DIRECTION('',(-1.,0.,0.));
#564=DIRECTION('',(-0.70895232164462,0.70525641126806,0.));
#565=DIRECTION('',(0.,0.,-1.));
#566=DIRECTION('',(-1.,0.,0.));
#567=DIRECTION('',(0.708952321644619,-0.705256411268061,0.));
#568=DIRECTION('',(0.,0.,-1.));
#569=DIRECTION('',(1.,0.,0.));
#570=DIRECTION('',(0.,0.,-1.));
#571=DIRECTION('',(-1.,0.,0.));
#572=DIRECTION('',(-0.705256411268061,-0.708952321644619,0.));
#573=DIRECTION('',(0.,0.,-1.));
#574=DIRECTION('',(-1.,0.,0.));
#575=DIRECTION('',(0.705256411268061,0.708952321644619,0.));
#576=DIRECTION('',(0.,0.,-1.));
#577=DIRECTION('',(-1.,0.,0.));
#578=DIRECTION('',(0.,0.,1.));
#579=DIRECTION('',(1.,0.,0.));
#580=DIRECTION('',(0.,0.,1.));
#581=DIRECTION('',(1.,0.,0.));
#582=DIRECTION('',(0.,0.,1.));
#583=DIRECTION('',(0.,0.,-1.));
#584=DIRECTION('',(-1.,0.,0.));
#585=DIRECTION('',(0.,0.,1.));
#586=DIRECTION('',(0.,0.,1.));
#587=DIRECTION('',(0.,0.,-1.));
#588=DIRECTION('',(-1.,0.,0.));
#589=DIRECTION('',(0.,0.,1.));
#590=DIRECTION('',(0.,0.,1.));
#591=DIRECTION('',(0.,0.,-1.));
#592=DIRECTION('',(-1.,0.,0.));
#593=DIRECTION('',(0.,0.,1.));
#594=DIRECTION('',(0.,0.,1.));
#595=DIRECTION('',(0.,0.,-1.));
#596=DIRECTION('',(-1.,0.,0.));
#597=DIRECTION('',(0.,0.,1.));
#598=DIRECTION('',(0.,0.,1.));
#599=DIRECTION('',(0.,0.,-1.));
#600=DIRECTION('',(-1.,0.,0.));
#601=DIRECTION('',(0.,0.,1.));
#602=DIRECTION('',(0.,0.,-1.));
#603=DIRECTION('',(-1.,0.,0.));
#604=DIRECTION('',(0.,0.,1.));
#605=DIRECTION('',(1.,0.,0.));
#606=DIRECTION('',(0.,0.,1.));
#607=DIRECTION('',(1.,0.,0.));
#608=DIRECTION('',(0.,0.,1.));
#609=DIRECTION('',(0.,0.,-1.));
#610=DIRECTION('',(-1.,0.,0.));
#611=DIRECTION('',(0.,0.,1.));
#612=DIRECTION('',(0.,0.,1.));
#613=DIRECTION('',(0.,0.,-1.));
#614=DIRECTION('',(-1.,0.,0.));
#615=DIRECTION('',(0.,0.,1.));
#616=DIRECTION('',(0.,0.,1.));
#617=DIRECTION('',(0.,0.,-1.));
#618=DIRECTION('',(-1.,0.,0.));
#619=DIRECTION('',(0.,0.,1.));
#620=DIRECTION('',(0.,0.,1.));
#621=DIRECTION('',(0.,0.,-1.));
#622=DIRECTION('',(-1.,0.,0.));
#623=DIRECTION('',(0.,0.,1.));
#624=DIRECTION('',(0.,0.,1.));
#625=DIRECTION('',(0.,0.,-1.));
#626=DIRECTION('',(-1.,0.,0.));
#627=DIRECTION('',(0.,0.,1.));
#628=DIRECTION('',(0.,0.,1.));
#629=DIRECTION('',(1.,0.,0.));
#630=DIRECTION('',(0.,0.,1.));
#631=DIRECTION('',(1.,0.,0.));
#632=DIRECTION('',(0.,0.,-1.));
#633=DIRECTION('',(-1.,0.,0.));
#634=DIRECTION('',(-0.979178156274295,-0.203002803614317,0.));
#635=DIRECTION('',(-0.979178064576629,0.203003245914853,0.));
#636=DIRECTION('',(0.,0.,-1.));
#637=DIRECTION('',(-1.,0.,0.));
#638=DIRECTION('',(0.203003245914853,0.979178064576629,0.));
#639=DIRECTION('',(-0.979178064576629,0.203003245914853,0.));
#640=DIRECTION('',(-0.979178064576629,0.203003245914853,0.));
#641=DIRECTION('',(0.,0.,1.));
#642=DIRECTION('',(-0.203002803614317,0.979178156274295,0.));
#643=DIRECTION('',(-0.979178156274295,-0.203002803614317,0.));
#644=DIRECTION('',(0.,0.,1.));
#645=DIRECTION('',(-0.979178156274295,-0.203002803614317,0.));
#646=DIRECTION('',(0.,0.,1.));
#647=DIRECTION('',(1.,0.,0.));
#648=DIRECTION('',(0.,0.,-1.));
#649=DIRECTION('',(-1.,0.,0.));
#650=DIRECTION('',(0.,0.,1.));
#651=DIRECTION('',(1.,0.,0.));
#652=DIRECTION('',(0.,0.,-1.));
#653=DIRECTION('',(-1.,0.,0.));
#654=DIRECTION('',(-0.705256411268061,-0.708952321644619,0.));
#655=DIRECTION('',(0.708952321644619,-0.705256411268061,0.));
#656=DIRECTION('',(0.708952321644619,-0.705256411268061,0.));
#657=DIRECTION('',(0.,0.,-1.));
#658=DIRECTION('',(1.,0.,0.));
#659=DIRECTION('',(0.708952321644619,-0.705256411268061,0.));
#660=DIRECTION('',(0.705256411268061,0.708952321644619,0.));
#661=DIRECTION('',(0.705256411268061,0.708952321644619,0.));
#662=DIRECTION('',(-0.705256411268061,-0.708952321644619,0.));
#663=DIRECTION('',(0.70895232164462,-0.705256411268061,0.));
#664=DIRECTION('',(0.70895232164462,-0.705256411268061,0.));
#665=DIRECTION('',(0.,0.,-1.));
#666=DIRECTION('',(1.,0.,0.));
#667=DIRECTION('',(-0.708952321644619,0.705256411268061,0.));
#668=DIRECTION('',(-0.705256411268061,-0.708952321644619,0.));
#669=DIRECTION('',(-0.705256411268061,-0.708952321644619,0.));
#670=DIRECTION('',(0.,0.,-1.));
#671=DIRECTION('',(1.,0.,0.));
#672=DIRECTION('',(-0.708952321644619,0.705256411268061,0.));
#673=DIRECTION('',(-0.705256411268061,-0.708952321644619,0.));
#674=DIRECTION('',(-0.705256411268061,-0.708952321644619,0.));
#675=DIRECTION('',(0.70525641126806,0.70895232164462,0.));
#676=DIRECTION('',(-0.70895232164462,0.70525641126806,0.));
#677=DIRECTION('',(-0.70895232164462,0.70525641126806,0.));
#678=DIRECTION('',(0.,0.,-1.));
#679=DIRECTION('',(1.,0.,0.));
#680=DIRECTION('',(0.705256411268061,0.708952321644619,0.));
#681=DIRECTION('',(-0.708952321644619,0.705256411268061,0.));
#682=DIRECTION('',(-0.708952321644619,0.705256411268061,0.));
#683=DIRECTION('',(0.708952321644619,-0.705256411268061,0.));
#684=DIRECTION('',(0.705256411268061,0.708952321644619,0.));
#685=DIRECTION('',(0.705256411268061,0.708952321644619,0.));
#686=DIRECTION('',(0.,0.,-1.));
#687=DIRECTION('',(1.,0.,0.));
#688=CARTESIAN_POINT('',(0.,0.,0.));
#689=CARTESIAN_POINT('',(-6.93889390390723E-18,-6.93889390390723E-18,-0.004));
#690=CARTESIAN_POINT('',(-1.04499742192843E-13,-1.26344572767814E-13,-0.004));
#691=CARTESIAN_POINT('',(-0.0370891050235232,0.0405692788512676,-0.004));
#692=CARTESIAN_POINT('',(-0.0406221343085592,0.037031207139072,-0.004));
#693=CARTESIAN_POINT('',(-0.0423960600783198,0.0387958850786759,-0.004));
#694=CARTESIAN_POINT('',(-0.0441699858480803,0.0405605630182799,-0.004));
#695=CARTESIAN_POINT('',(-1.04506681086747E-13,-1.26344266606115E-13,-0.004));
#696=CARTESIAN_POINT('',(-0.0406375192336893,0.0440991944678059,-0.004));
#697=CARTESIAN_POINT('',(-0.0388633121286063,0.0423342366595368,-0.004));
#698=CARTESIAN_POINT('',(-6.93889390390723E-18,-6.93889390390723E-18,-0.004));
#699=CARTESIAN_POINT('',(-1.04506681086747E-13,-1.26344266606115E-13,-0.004));
#700=CARTESIAN_POINT('',(-0.0440991944679362,-0.0406375192338203,-0.004));
#701=CARTESIAN_POINT('',(-0.0405605630184015,-0.0441699858482025,-0.004));
#702=CARTESIAN_POINT('',(-0.0423342366596673,-0.0388633121287374,-0.004));
#703=CARTESIAN_POINT('',(-0.0405692788513984,-0.0370891050236546,-0.004));
#704=CARTESIAN_POINT('',(-1.04499742192843E-13,-1.26344572767814E-13,-0.004));
#705=CARTESIAN_POINT('',(-0.0370312071391932,-0.040622134308681,-0.004));
#706=CARTESIAN_POINT('',(-0.0387958850787974,-0.0423960600784418,-0.004));
#707=CARTESIAN_POINT('',(-6.93889390390723E-18,-6.93889390390723E-18,-0.004));
#708=CARTESIAN_POINT('',(-1.04506681086747E-13,-1.26344266606115E-13,-0.004));
#709=CARTESIAN_POINT('',(0.0406375192337207,-0.0440991944678371,-0.004));
#710=CARTESIAN_POINT('',(0.0441699858480923,-0.0405605630182919,-0.004));
#711=CARTESIAN_POINT('',(0.0388633121286381,-0.0423342366595684,-0.004));
#712=CARTESIAN_POINT('',(0.0370891050235555,-0.0405692788512997,-0.004));
#713=CARTESIAN_POINT('',(-1.04499742192843E-13,-1.26344572767814E-13,-0.004));
#714=CARTESIAN_POINT('',(0.0406221343085704,-0.0370312071390832,-0.004));
#715=CARTESIAN_POINT('',(0.0423960600783313,-0.0387958850786876,-0.004));
#716=CARTESIAN_POINT('',(-6.93889390390723E-18,-6.93889390390723E-18,-0.004));
#717=CARTESIAN_POINT('',(-1.04506681086747E-13,-1.26344266606115E-13,-0.004));
#718=CARTESIAN_POINT('',(0.0440991944677068,0.0406375192335897,-0.004));
#719=CARTESIAN_POINT('',(0.0405605630181703,0.0441699858479701,-0.004));
#720=CARTESIAN_POINT('',(0.0423342366594379,0.0388633121285069,-0.004));
#721=CARTESIAN_POINT('',(0.0405692788511691,0.037089105023424,-0.004));
#722=CARTESIAN_POINT('',(-1.04499742192843E-13,-1.26344572767814E-13,-0.004));
#723=CARTESIAN_POINT('',(0.037031207138962,0.0406221343084485,-0.004));
#724=CARTESIAN_POINT('',(0.0387958850785661,0.0423960600782093,-0.004));
#725=CARTESIAN_POINT('',(-1.04506681086747E-13,-1.26344266606115E-13,0.006));
#726=CARTESIAN_POINT('',(-1.04506681086747E-13,-1.26344266606115E-13,0.006));
#727=CARTESIAN_POINT('',(0.0599678824219094,-1.26344266606115E-13,0.006));
#728=CARTESIAN_POINT('',(-1.04506681086747E-13,-1.26344266606115E-13,0.005));
#729=CARTESIAN_POINT('',(0.0595572841688343,-0.0070054853224115,0.005));
#730=CARTESIAN_POINT('',(0.0595572873332474,0.0070054584197811,0.005));
#731=CARTESIAN_POINT('',(0.0595572873332474,0.00700545841978112,-0.004002));
#732=CARTESIAN_POINT('',(0.0595572873332474,0.00700545841978112,-0.006));
#733=CARTESIAN_POINT('',(-1.04506681086747E-13,-1.26344266606115E-13,-0.006));
#734=CARTESIAN_POINT('',(0.0440991944677068,0.0406375192335897,-0.006));
#735=CARTESIAN_POINT('',(0.0440991944677068,0.0406375192335897,-0.006));
#736=CARTESIAN_POINT('',(0.0405605630181703,0.0441699858479701,-0.006));
#737=CARTESIAN_POINT('',(0.0405605630181703,0.0441699858479701,-0.006));
#738=CARTESIAN_POINT('',(-1.04506681086747E-13,-1.26344266606115E-13,-0.006));
#739=CARTESIAN_POINT('',(-0.0406375192336893,0.0440991944678059,-0.006));
#740=CARTESIAN_POINT('',(-0.0406375192336893,0.0440991944678059,-0.006));
#741=CARTESIAN_POINT('',(-0.0441699858480803,0.0405605630182799,-0.006));
#742=CARTESIAN_POINT('',(-0.0441699858480803,0.0405605630182799,-0.006));
#743=CARTESIAN_POINT('',(-1.04506681086747E-13,-1.26344266606115E-13,-0.006));
#744=CARTESIAN_POINT('',(-0.0440991944679362,-0.0406375192338203,-0.006));
#745=CARTESIAN_POINT('',(-0.0440991944679362,-0.0406375192338203,-0.006));
#746=CARTESIAN_POINT('',(-0.0405605630184015,-0.0441699858482025,-0.006));
#747=CARTESIAN_POINT('',(-0.0405605630184015,-0.0441699858482025,-0.006));
#748=CARTESIAN_POINT('',(-1.04506681086747E-13,-1.26344266606115E-13,-0.006));
#749=CARTESIAN_POINT('',(0.0406375192337207,-0.0440991944678371,-0.006));
#750=CARTESIAN_POINT('',(0.0406375192337207,-0.0440991944678371,-0.006));
#751=CARTESIAN_POINT('',(0.0441699858480923,-0.0405605630182919,-0.006));
#752=CARTESIAN_POINT('',(0.0441699858480923,-0.0405605630182919,-0.006));
#753=CARTESIAN_POINT('',(-1.04506681086747E-13,-1.26344266606115E-13,-0.006));
#754=CARTESIAN_POINT('',(0.0595572841688343,-0.0070054853224115,-0.006));
#755=CARTESIAN_POINT('',(0.0595572841688343,-0.0070054853224115,-0.004002));
#756=CARTESIAN_POINT('',(-1.04499742192843E-13,-1.26344572767814E-13,0.006));
#757=CARTESIAN_POINT('',(-1.04499742192843E-13,-1.26344572767814E-13,0.006));
#758=CARTESIAN_POINT('',(0.0549678824219094,-1.26344572767814E-13,0.006));
#759=CARTESIAN_POINT('',(-1.04499742192843E-13,-1.26344572767814E-13,0.005));
#760=CARTESIAN_POINT('',(0.0542886776023845,-0.00861438228403723,0.005));
#761=CARTESIAN_POINT('',(0.0542886814935463,0.00861435776126735,0.005));
#762=CARTESIAN_POINT('',(0.0542886776023845,-0.00861438228403724,-0.004002));
#763=CARTESIAN_POINT('',(0.0542886776023845,-0.00861438228403724,-0.006));
#764=CARTESIAN_POINT('',(-1.04499742192843E-13,-1.26344572767814E-13,-0.006));
#765=CARTESIAN_POINT('',(0.0406221343085704,-0.0370312071390832,-0.006));
#766=CARTESIAN_POINT('',(0.0406221343085704,-0.0370312071390832,-0.006));
#767=CARTESIAN_POINT('',(0.0370891050235555,-0.0405692788512997,-0.006));
#768=CARTESIAN_POINT('',(0.0370891050235555,-0.0405692788512997,-0.006));
#769=CARTESIAN_POINT('',(-1.04499742192843E-13,-1.26344572767814E-13,-0.006));
#770=CARTESIAN_POINT('',(-0.0370312071391932,-0.040622134308681,-0.006));
#771=CARTESIAN_POINT('',(-0.0370312071391932,-0.040622134308681,-0.006));
#772=CARTESIAN_POINT('',(-0.0405692788513984,-0.0370891050236546,-0.006));
#773=CARTESIAN_POINT('',(-0.0405692788513984,-0.0370891050236546,-0.006));
#774=CARTESIAN_POINT('',(-1.04499742192843E-13,-1.26344572767814E-13,-0.006));
#775=CARTESIAN_POINT('',(-0.0406221343085592,0.037031207139072,-0.006));
#776=CARTESIAN_POINT('',(-0.0406221343085592,0.037031207139072,-0.006));
#777=CARTESIAN_POINT('',(-0.0370891050235232,0.0405692788512676,-0.006));
#778=CARTESIAN_POINT('',(-0.0370891050235232,0.0405692788512676,-0.006));
#779=CARTESIAN_POINT('',(-1.04499742192843E-13,-1.26344572767814E-13,-0.006));
#780=CARTESIAN_POINT('',(0.037031207138962,0.0406221343084485,-0.006));
#781=CARTESIAN_POINT('',(0.037031207138962,0.0406221343084485,-0.006));
#782=CARTESIAN_POINT('',(0.0405692788511691,0.037089105023424,-0.006));
#783=CARTESIAN_POINT('',(0.0405692788511691,0.037089105023424,-0.006));
#784=CARTESIAN_POINT('',(-1.04499742192843E-13,-1.26344572767814E-13,-0.006));
#785=CARTESIAN_POINT('',(0.0542886814935463,0.00861435776126735,-0.006));
#786=CARTESIAN_POINT('',(0.0542886814935463,0.00861435776126735,-0.004002));
#787=CARTESIAN_POINT('',(0.000616063106595732,-1.26357257990151E-13,0.006));
#788=CARTESIAN_POINT('',(0.000616063106595732,-1.26357257990151E-13,0.005));
#789=CARTESIAN_POINT('',(0.0552000086353097,-1.24672113552965E-8,0.005));
#790=CARTESIAN_POINT('',(0.0568747817651278,-0.00807823225647424,0.005));
#791=CARTESIAN_POINT('',(0.0555817296837561,-0.00834630727025574,0.005));
#792=CARTESIAN_POINT('',(0.0555817334538267,0.00834628216340662,0.005));
#793=CARTESIAN_POINT('',(0.0568747854141072,0.00807820656554589,0.005));
#794=CARTESIAN_POINT('',(0.0552000086353097,-1.24672112885096E-8,0.005));
#795=CARTESIAN_POINT('',(0.0555817334538267,0.00834628216340662,-0.004002));
#796=CARTESIAN_POINT('',(0.0555817334538267,0.00834628216340662,-0.006));
#797=CARTESIAN_POINT('',(0.0568747854141072,0.00807820656554589,-0.006));
#798=CARTESIAN_POINT('',(0.0568747854141072,0.00807820656554589,-0.004002));
#799=CARTESIAN_POINT('',(0.0555817296837561,-0.00834630727025574,-0.004002));
#800=CARTESIAN_POINT('',(0.0568747817651278,-0.00807823225647424,-0.004002));
#801=CARTESIAN_POINT('',(0.0568747817651278,-0.00807823225647424,-0.006));
#802=CARTESIAN_POINT('',(0.0555817296837561,-0.00834630727025574,-0.006));
#803=CARTESIAN_POINT('',(0.0552000086353097,-1.24672113552965E-8,-0.004002));
#804=CARTESIAN_POINT('',(0.0552000086353097,-1.24672113552965E-8,-0.006));
#805=CARTESIAN_POINT('',(0.0552000086353097,-1.24672112885096E-8,-0.004002));
#806=CARTESIAN_POINT('',(0.0552000086353097,-1.24672112885096E-8,-0.006));
#807=CARTESIAN_POINT('',(0.0423960600783313,-0.0387958850786876,-0.006));
#808=CARTESIAN_POINT('',(0.0423960600783313,-0.0387958850786876,-0.006));
#809=CARTESIAN_POINT('',(-0.000205297544435531,-1.26343380202343E-13,-0.006));
#810=CARTESIAN_POINT('',(0.0387958850785661,0.0423960600782093,-0.006));
#811=CARTESIAN_POINT('',(0.0387958850785661,0.0423960600782093,-0.006));
#812=CARTESIAN_POINT('',(-0.0388633121286063,0.0423342366595368,-0.006));
#813=CARTESIAN_POINT('',(-0.0388633121286063,0.0423342366595368,-0.006));
#814=CARTESIAN_POINT('',(-0.000205297544435531,-1.26343380202343E-13,-0.006));
#815=CARTESIAN_POINT('',(0.0423342366594379,0.0388633121285069,-0.006));
#816=CARTESIAN_POINT('',(0.0423342366594379,0.0388633121285069,-0.006));
#817=CARTESIAN_POINT('',(-0.000205297544435531,-1.26343380202343E-13,-0.006));
#818=CARTESIAN_POINT('',(-0.0387958850787974,-0.0423960600784418,-0.006));
#819=CARTESIAN_POINT('',(-0.0387958850787974,-0.0423960600784418,-0.006));
#820=CARTESIAN_POINT('',(0.0388633121286381,-0.0423342366595684,-0.006));
#821=CARTESIAN_POINT('',(0.0388633121286381,-0.0423342366595684,-0.006));
#822=CARTESIAN_POINT('',(-0.000205297544435531,-1.26343380202343E-13,-0.006));
#823=CARTESIAN_POINT('',(-0.0423960600783198,0.0387958850786759,-0.006));
#824=CARTESIAN_POINT('',(-0.0423960600783198,0.0387958850786759,-0.006));
#825=CARTESIAN_POINT('',(-0.0423342366596673,-0.0388633121287374,-0.006));
#826=CARTESIAN_POINT('',(-0.0423342366596673,-0.0388633121287374,-0.006));
#827=CARTESIAN_POINT('',(-0.000205297544435531,-1.26343380202343E-13,-0.006));
#828=MECHANICAL_DESIGN_GEOMETRIC_PRESENTATION_REPRESENTATION('',(#479),
#829);
#829=(
GEOMETRIC_REPRESENTATION_CONTEXT(3)
GLOBAL_UNCERTAINTY_ASSIGNED_CONTEXT((#830))
GLOBAL_UNIT_ASSIGNED_CONTEXT((#833,#832,#831))
REPRESENTATION_CONTEXT('OuterRing','TOP_LEVEL_ASSEMBLY_PART')
);
#830=UNCERTAINTY_MEASURE_WITH_UNIT(LENGTH_MEASURE(2.2E-7),#833,
'DISTANCE_ACCURACY_VALUE','Maximum Tolerance applied to model');
#831=(
NAMED_UNIT(*)
SI_UNIT($,.STERADIAN.)
SOLID_ANGLE_UNIT()
);
#832=(
NAMED_UNIT(*)
PLANE_ANGLE_UNIT()
SI_UNIT($,.RADIAN.)
);
#833=(
LENGTH_UNIT()
NAMED_UNIT(*)
SI_UNIT($,.METRE.)
);
#834=PRODUCT_DEFINITION_SHAPE('','',#835);
#835=PRODUCT_DEFINITION('','',#837,#836);
#836=PRODUCT_DEFINITION_CONTEXT('',#843,'design');
#837=PRODUCT_DEFINITION_FORMATION_WITH_SPECIFIED_SOURCE('','',#839,
 .NOT_KNOWN.);
#838=PRODUCT_RELATED_PRODUCT_CATEGORY('','',(#839));
#839=PRODUCT('OuterRing','OuterRing','OuterRing',(#841));
#840=PRODUCT_CATEGORY('','');
#841=PRODUCT_CONTEXT('',#843,'mechanical');
#842=APPLICATION_PROTOCOL_DEFINITION('international standard',
'ap242_managed_model_based_3d_engineering',2020,#843);
#843=APPLICATION_CONTEXT('managed model based 3d engineering');
ENDSEC;
END-ISO-10303-21;
