ISO-10303-21;
HEADER;
/* Generated by software containing ST-Developer
 * from STEP Tools, Inc. (www.steptools.com) 
 */
/* OPTION: using custom renumber hook */

FILE_DESCRIPTION(
/* description */ ('STEP AP242 Edition 2',
'CAx-IF Rec.Pracs.---Representation and Presentation of Product Manufa
cturing Information (PMI)---4.0---2014-10-13',
'CAx-IF Rec.Pracs.---3D Tessellated Geometry---0.4---2014-09-14','2;1',
'CAx-IF Rec.Pracs.---User Defined Attributes---1.5---2016-08-15'),
/* implementation_level */ '2;1');

FILE_NAME(
/* name */ 'Orrery - Stand',
/* time_stamp */ '2026-02-03T02:10:20Z',
/* author */ (''),
/* organization */ (''),
/* preprocessor_version */ 'ST-DEVELOPER v20',
/* originating_system */ 'ONSHAPE BY PTC INC, 1.210',
/* authorisation */ '  ');

FILE_SCHEMA (('AP242_MANAGED_MODEL_BASED_3D_ENGINEERING_MIM_LF { 1 0 10303 442 3 1 4 }'));
ENDSEC;

DATA;
#10=SHAPE_REPRESENTATION_RELATIONSHIP('','',#263,#11);
#11=ADVANCED_BREP_SHAPE_REPRESENTATION('',(#261),#455);
#12=CONICAL_SURFACE('',#287,0.0095,0.174532925199433);
#13=CONICAL_SURFACE('',#301,0.0025,0.785398163397448);
#14=PLANE('',#271);
#15=PLANE('',#273);
#16=PLANE('',#275);
#17=PLANE('',#278);
#18=PLANE('',#283);
#19=PLANE('',#284);
#20=PLANE('',#289);
#21=PLANE('',#296);
#22=PLANE('',#298);
#23=LINE('',#391,#31);
#24=LINE('',#395,#32);
#25=LINE('',#405,#33);
#26=LINE('',#406,#34);
#27=LINE('',#411,#35);
#28=LINE('',#415,#36);
#29=LINE('',#419,#37);
#30=LINE('',#424,#38);
#31=VECTOR('',#308,1.);
#32=VECTOR('',#311,1.);
#33=VECTOR('',#322,1.);
#34=VECTOR('',#323,1.);
#35=VECTOR('',#330,1.);
#36=VECTOR('',#333,1.);
#37=VECTOR('',#338,1.);
#38=VECTOR('',#345,1.);
#39=ORIENTED_EDGE('',*,*,#91,.T.);
#40=ORIENTED_EDGE('',*,*,#92,.T.);
#41=ORIENTED_EDGE('',*,*,#93,.F.);
#42=ORIENTED_EDGE('',*,*,#94,.F.);
#43=ORIENTED_EDGE('',*,*,#95,.F.);
#44=ORIENTED_EDGE('',*,*,#96,.T.);
#45=ORIENTED_EDGE('',*,*,#97,.F.);
#46=ORIENTED_EDGE('',*,*,#98,.F.);
#47=ORIENTED_EDGE('',*,*,#91,.F.);
#48=ORIENTED_EDGE('',*,*,#99,.T.);
#49=ORIENTED_EDGE('',*,*,#95,.T.);
#50=ORIENTED_EDGE('',*,*,#100,.F.);
#51=ORIENTED_EDGE('',*,*,#96,.F.);
#52=ORIENTED_EDGE('',*,*,#93,.T.);
#53=ORIENTED_EDGE('',*,*,#101,.F.);
#54=ORIENTED_EDGE('',*,*,#102,.T.);
#55=ORIENTED_EDGE('',*,*,#103,.T.);
#56=ORIENTED_EDGE('',*,*,#104,.F.);
#57=ORIENTED_EDGE('',*,*,#99,.F.);
#58=ORIENTED_EDGE('',*,*,#94,.T.);
#59=ORIENTED_EDGE('',*,*,#103,.F.);
#60=ORIENTED_EDGE('',*,*,#105,.F.);
#61=ORIENTED_EDGE('',*,*,#104,.T.);
#62=ORIENTED_EDGE('',*,*,#106,.T.);
#63=ORIENTED_EDGE('',*,*,#107,.F.);
#64=ORIENTED_EDGE('',*,*,#97,.T.);
#65=ORIENTED_EDGE('',*,*,#105,.T.);
#66=ORIENTED_EDGE('',*,*,#102,.F.);
#67=ORIENTED_EDGE('',*,*,#108,.F.);
#68=ORIENTED_EDGE('',*,*,#92,.F.);
#69=ORIENTED_EDGE('',*,*,#98,.T.);
#70=ORIENTED_EDGE('',*,*,#107,.T.);
#71=ORIENTED_EDGE('',*,*,#101,.T.);
#72=ORIENTED_EDGE('',*,*,#106,.F.);
#73=ORIENTED_EDGE('',*,*,#108,.T.);
#74=ORIENTED_EDGE('',*,*,#100,.T.);
#75=ORIENTED_EDGE('',*,*,#109,.F.);
#76=ORIENTED_EDGE('',*,*,#110,.F.);
#77=ORIENTED_EDGE('',*,*,#109,.T.);
#78=ORIENTED_EDGE('',*,*,#111,.F.);
#79=ORIENTED_EDGE('',*,*,#110,.T.);
#80=ORIENTED_EDGE('',*,*,#112,.T.);
#81=ORIENTED_EDGE('',*,*,#111,.T.);
#82=ORIENTED_EDGE('',*,*,#113,.T.);
#83=ORIENTED_EDGE('',*,*,#114,.F.);
#84=ORIENTED_EDGE('',*,*,#115,.T.);
#85=ORIENTED_EDGE('',*,*,#114,.T.);
#86=ORIENTED_EDGE('',*,*,#116,.T.);
#87=ORIENTED_EDGE('',*,*,#116,.F.);
#88=ORIENTED_EDGE('',*,*,#115,.F.);
#89=ORIENTED_EDGE('',*,*,#113,.F.);
#90=ORIENTED_EDGE('',*,*,#112,.F.);
#91=EDGE_CURVE('',#117,#118,#139,.T.);
#92=EDGE_CURVE('',#118,#119,#23,.T.);
#93=EDGE_CURVE('',#120,#119,#140,.T.);
#94=EDGE_CURVE('',#117,#120,#24,.T.);
#95=EDGE_CURVE('',#121,#121,#141,.T.);
#96=EDGE_CURVE('',#122,#122,#142,.T.);
#97=EDGE_CURVE('',#123,#124,#143,.F.);
#98=EDGE_CURVE('',#118,#123,#25,.T.);
#99=EDGE_CURVE('',#117,#124,#26,.T.);
#100=EDGE_CURVE('',#125,#125,#144,.F.);
#101=EDGE_CURVE('',#126,#119,#27,.T.);
#102=EDGE_CURVE('',#126,#127,#145,.T.);
#103=EDGE_CURVE('',#127,#120,#28,.T.);
#104=EDGE_CURVE('',#128,#128,#146,.T.);
#105=EDGE_CURVE('',#124,#127,#29,.T.);
#106=EDGE_CURVE('',#129,#129,#147,.F.);
#107=EDGE_CURVE('',#123,#126,#30,.T.);
#108=EDGE_CURVE('',#130,#130,#148,.F.);
#109=EDGE_CURVE('',#131,#131,#149,.T.);
#110=EDGE_CURVE('',#132,#132,#150,.T.);
#111=EDGE_CURVE('',#133,#133,#151,.T.);
#112=EDGE_CURVE('',#134,#134,#152,.T.);
#113=EDGE_CURVE('',#135,#135,#153,.T.);
#114=EDGE_CURVE('',#136,#136,#154,.T.);
#115=EDGE_CURVE('',#137,#137,#155,.T.);
#116=EDGE_CURVE('',#138,#138,#156,.T.);
#117=VERTEX_POINT('',#389);
#118=VERTEX_POINT('',#390);
#119=VERTEX_POINT('',#392);
#120=VERTEX_POINT('',#394);
#121=VERTEX_POINT('',#398);
#122=VERTEX_POINT('',#400);
#123=VERTEX_POINT('',#403);
#124=VERTEX_POINT('',#404);
#125=VERTEX_POINT('',#409);
#126=VERTEX_POINT('',#412);
#127=VERTEX_POINT('',#414);
#128=VERTEX_POINT('',#417);
#129=VERTEX_POINT('',#422);
#130=VERTEX_POINT('',#426);
#131=VERTEX_POINT('',#431);
#132=VERTEX_POINT('',#434);
#133=VERTEX_POINT('',#437);
#134=VERTEX_POINT('',#440);
#135=VERTEX_POINT('',#443);
#136=VERTEX_POINT('',#445);
#137=VERTEX_POINT('',#448);
#138=VERTEX_POINT('',#451);
#139=CIRCLE('',#266,0.04);
#140=CIRCLE('',#267,0.04);
#141=CIRCLE('',#269,0.0155);
#142=CIRCLE('',#270,0.0155);
#143=CIRCLE('',#272,0.00775);
#144=CIRCLE('',#274,0.0095);
#145=CIRCLE('',#276,0.00775);
#146=CIRCLE('',#277,0.00275);
#147=CIRCLE('',#280,0.00275);
#148=CIRCLE('',#282,0.00775);
#149=CIRCLE('',#286,0.0095);
#150=CIRCLE('',#288,0.00773673019291535);
#151=CIRCLE('',#290,0.0025);
#152=CIRCLE('',#292,0.0025);
#153=CIRCLE('',#294,0.0027);
#154=CIRCLE('',#295,0.0027);
#155=CIRCLE('',#297,0.0025);
#156=CIRCLE('',#299,0.0025);
#157=EDGE_LOOP('',(#39,#40,#41,#42));
#158=EDGE_LOOP('',(#43));
#159=EDGE_LOOP('',(#44));
#160=EDGE_LOOP('',(#45,#46,#47,#48));
#161=EDGE_LOOP('',(#49));
#162=EDGE_LOOP('',(#50));
#163=EDGE_LOOP('',(#51));
#164=EDGE_LOOP('',(#52,#53,#54,#55));
#165=EDGE_LOOP('',(#56));
#166=EDGE_LOOP('',(#57,#58,#59,#60));
#167=EDGE_LOOP('',(#61));
#168=EDGE_LOOP('',(#62));
#169=EDGE_LOOP('',(#63,#64,#65,#66));
#170=EDGE_LOOP('',(#67));
#171=EDGE_LOOP('',(#68,#69,#70,#71));
#172=EDGE_LOOP('',(#72));
#173=EDGE_LOOP('',(#73));
#174=EDGE_LOOP('',(#74));
#175=EDGE_LOOP('',(#75));
#176=EDGE_LOOP('',(#76));
#177=EDGE_LOOP('',(#77));
#178=EDGE_LOOP('',(#78));
#179=EDGE_LOOP('',(#79));
#180=EDGE_LOOP('',(#80));
#181=EDGE_LOOP('',(#81));
#182=EDGE_LOOP('',(#82));
#183=EDGE_LOOP('',(#83));
#184=EDGE_LOOP('',(#84));
#185=EDGE_LOOP('',(#85));
#186=EDGE_LOOP('',(#86));
#187=EDGE_LOOP('',(#87));
#188=EDGE_LOOP('',(#88));
#189=EDGE_LOOP('',(#89));
#190=EDGE_LOOP('',(#90));
#191=FACE_BOUND('',#157,.T.);
#192=FACE_BOUND('',#158,.T.);
#193=FACE_BOUND('',#159,.T.);
#194=FACE_BOUND('',#160,.T.);
#195=FACE_BOUND('',#161,.T.);
#196=FACE_BOUND('',#162,.T.);
#197=FACE_BOUND('',#163,.T.);
#198=FACE_BOUND('',#164,.T.);
#199=FACE_BOUND('',#165,.T.);
#200=FACE_BOUND('',#166,.T.);
#201=FACE_BOUND('',#167,.T.);
#202=FACE_BOUND('',#168,.T.);
#203=FACE_BOUND('',#169,.T.);
#204=FACE_BOUND('',#170,.T.);
#205=FACE_BOUND('',#171,.T.);
#206=FACE_BOUND('',#172,.T.);
#207=FACE_BOUND('',#173,.T.);
#208=FACE_BOUND('',#174,.T.);
#209=FACE_BOUND('',#175,.T.);
#210=FACE_BOUND('',#176,.T.);
#211=FACE_BOUND('',#177,.T.);
#212=FACE_BOUND('',#178,.T.);
#213=FACE_BOUND('',#179,.T.);
#214=FACE_BOUND('',#180,.T.);
#215=FACE_BOUND('',#181,.T.);
#216=FACE_BOUND('',#182,.T.);
#217=FACE_BOUND('',#183,.T.);
#218=FACE_BOUND('',#184,.T.);
#219=FACE_BOUND('',#185,.T.);
#220=FACE_BOUND('',#186,.T.);
#221=FACE_BOUND('',#187,.T.);
#222=FACE_BOUND('',#188,.T.);
#223=FACE_BOUND('',#189,.T.);
#224=FACE_BOUND('',#190,.T.);
#225=CYLINDRICAL_SURFACE('',#265,0.04);
#226=CYLINDRICAL_SURFACE('',#268,0.0155);
#227=CYLINDRICAL_SURFACE('',#279,0.00275);
#228=CYLINDRICAL_SURFACE('',#281,0.00775);
#229=CYLINDRICAL_SURFACE('',#285,0.0095);
#230=CYLINDRICAL_SURFACE('',#291,0.0025);
#231=CYLINDRICAL_SURFACE('',#293,0.0027);
#232=CYLINDRICAL_SURFACE('',#300,0.0025);
#233=ADVANCED_FACE('',(#191),#225,.T.);
#234=ADVANCED_FACE('',(#192,#193),#226,.F.);
#235=ADVANCED_FACE('',(#194,#195),#14,.F.);
#236=ADVANCED_FACE('',(#196,#197),#15,.F.);
#237=ADVANCED_FACE('',(#198,#199),#16,.T.);
#238=ADVANCED_FACE('',(#200),#17,.T.);
#239=ADVANCED_FACE('',(#201,#202),#227,.F.);
#240=ADVANCED_FACE('',(#203,#204),#228,.T.);
#241=ADVANCED_FACE('',(#205),#18,.F.);
#242=ADVANCED_FACE('',(#206,#207),#19,.T.);
#243=ADVANCED_FACE('',(#208,#209),#229,.T.);
#244=ADVANCED_FACE('',(#210,#211),#12,.T.);
#245=ADVANCED_FACE('',(#212,#213),#20,.T.);
#246=ADVANCED_FACE('',(#214,#215),#230,.T.);
#247=ADVANCED_FACE('',(#216,#217),#231,.T.);
#248=ADVANCED_FACE('',(#218,#219),#21,.F.);
#249=ADVANCED_FACE('',(#220),#22,.T.);
#250=ADVANCED_FACE('',(#221,#222),#232,.T.);
#251=ADVANCED_FACE('',(#223,#224),#13,.T.);
#252=CLOSED_SHELL('',(#233,#234,#235,#236,#237,#238,#239,#240,#241,#242,
#243,#244,#245,#246,#247,#248,#249,#250,#251));
#253=STYLED_ITEM('',(#254),#261);
#254=PRESENTATION_STYLE_ASSIGNMENT((#255));
#255=SURFACE_STYLE_USAGE(.BOTH.,#256);
#256=SURFACE_SIDE_STYLE('',(#257));
#257=SURFACE_STYLE_FILL_AREA(#258);
#258=FILL_AREA_STYLE('',(#259));
#259=FILL_AREA_STYLE_COLOUR('',#260);
#260=COLOUR_RGB('',0.207843137254902,0.207843137254902,0.207843137254902);
#261=MANIFOLD_SOLID_BREP('Stand',#252);
#262=SHAPE_DEFINITION_REPRESENTATION(#460,#263);
#263=SHAPE_REPRESENTATION('Stand',(#264),#455);
#264=AXIS2_PLACEMENT_3D('',#386,#302,#303);
#265=AXIS2_PLACEMENT_3D('',#387,#304,#305);
#266=AXIS2_PLACEMENT_3D('',#388,#306,#307);
#267=AXIS2_PLACEMENT_3D('',#393,#309,#310);
#268=AXIS2_PLACEMENT_3D('',#396,#312,#313);
#269=AXIS2_PLACEMENT_3D('',#397,#314,#315);
#270=AXIS2_PLACEMENT_3D('',#399,#316,#317);
#271=AXIS2_PLACEMENT_3D('',#401,#318,#319);
#272=AXIS2_PLACEMENT_3D('',#402,#320,#321);
#273=AXIS2_PLACEMENT_3D('',#407,#324,#325);
#274=AXIS2_PLACEMENT_3D('',#408,#326,#327);
#275=AXIS2_PLACEMENT_3D('',#410,#328,#329);
#276=AXIS2_PLACEMENT_3D('',#413,#331,#332);
#277=AXIS2_PLACEMENT_3D('',#416,#334,#335);
#278=AXIS2_PLACEMENT_3D('',#418,#336,#337);
#279=AXIS2_PLACEMENT_3D('',#420,#339,#340);
#280=AXIS2_PLACEMENT_3D('',#421,#341,#342);
#281=AXIS2_PLACEMENT_3D('',#423,#343,#344);
#282=AXIS2_PLACEMENT_3D('',#425,#346,#347);
#283=AXIS2_PLACEMENT_3D('',#427,#348,#349);
#284=AXIS2_PLACEMENT_3D('',#428,#350,#351);
#285=AXIS2_PLACEMENT_3D('',#429,#352,#353);
#286=AXIS2_PLACEMENT_3D('',#430,#354,#355);
#287=AXIS2_PLACEMENT_3D('',#432,#356,#357);
#288=AXIS2_PLACEMENT_3D('',#433,#358,#359);
#289=AXIS2_PLACEMENT_3D('',#435,#360,#361);
#290=AXIS2_PLACEMENT_3D('',#436,#362,#363);
#291=AXIS2_PLACEMENT_3D('',#438,#364,#365);
#292=AXIS2_PLACEMENT_3D('',#439,#366,#367);
#293=AXIS2_PLACEMENT_3D('',#441,#368,#369);
#294=AXIS2_PLACEMENT_3D('',#442,#370,#371);
#295=AXIS2_PLACEMENT_3D('',#444,#372,#373);
#296=AXIS2_PLACEMENT_3D('',#446,#374,#375);
#297=AXIS2_PLACEMENT_3D('',#447,#376,#377);
#298=AXIS2_PLACEMENT_3D('',#449,#378,#379);
#299=AXIS2_PLACEMENT_3D('',#450,#380,#381);
#300=AXIS2_PLACEMENT_3D('',#452,#382,#383);
#301=AXIS2_PLACEMENT_3D('',#453,#384,#385);
#302=DIRECTION('',(0.,0.,1.));
#303=DIRECTION('',(1.,0.,0.));
#304=DIRECTION('',(0.,0.,-1.));
#305=DIRECTION('',(-1.,0.,0.));
#306=DIRECTION('',(0.,0.,-1.));
#307=DIRECTION('',(-1.,0.,0.));
#308=DIRECTION('',(0.,0.,-1.));
#309=DIRECTION('',(0.,0.,-1.));
#310=DIRECTION('',(-1.,0.,0.));
#311=DIRECTION('',(0.,0.,-1.));
#312=DIRECTION('',(0.,0.,-1.));
#313=DIRECTION('',(-1.,0.,0.));
#314=DIRECTION('',(0.,0.,-1.));
#315=DIRECTION('',(-1.,0.,0.));
#316=DIRECTION('',(0.,0.,-1.));
#317=DIRECTION('',(-1.,0.,0.));
#318=DIRECTION('',(0.,0.,-1.));
#319=DIRECTION('',(1.,0.,0.));
#320=DIRECTION('',(0.,0.,-1.));
#321=DIRECTION('',(-1.,0.,0.));
#322=DIRECTION('',(0.979178064576629,-0.203003245914853,0.));
#323=DIRECTION('',(0.979178156274294,0.203002803614318,0.));
#324=DIRECTION('',(0.,0.,-1.));
#325=DIRECTION('',(1.,0.,0.));
#326=DIRECTION('',(0.,0.,-1.));
#327=DIRECTION('',(-1.,0.,0.));
#328=DIRECTION('',(0.,0.,-1.));
#329=DIRECTION('',(1.,0.,0.));
#330=DIRECTION('',(-0.979178064576629,0.203003245914853,0.));
#331=DIRECTION('',(0.,0.,-1.));
#332=DIRECTION('',(-1.,0.,0.));
#333=DIRECTION('',(-0.979178156274294,-0.203002803614318,0.));
#334=DIRECTION('',(0.,0.,-1.));
#335=DIRECTION('',(-1.,0.,0.));
#336=DIRECTION('',(0.203002803614318,-0.979178156274294,0.));
#337=DIRECTION('',(0.979178156274294,0.203002803614318,0.));
#338=DIRECTION('',(0.,0.,-1.));
#339=DIRECTION('',(0.,0.,-1.));
#340=DIRECTION('',(-1.,0.,0.));
#341=DIRECTION('',(0.,0.,-1.));
#342=DIRECTION('',(-1.,0.,0.));
#343=DIRECTION('',(0.,0.,-1.));
#344=DIRECTION('',(-1.,0.,0.));
#345=DIRECTION('',(0.,0.,-1.));
#346=DIRECTION('',(0.,0.,-1.));
#347=DIRECTION('',(-1.,0.,0.));
#348=DIRECTION('',(-0.203003245914853,-0.979178064576629,0.));
#349=DIRECTION('',(0.979178064576629,-0.203003245914853,0.));
#350=DIRECTION('',(0.,0.,1.));
#351=DIRECTION('',(1.,0.,0.));
#352=DIRECTION('',(0.,0.,-1.));
#353=DIRECTION('',(-1.,0.,0.));
#354=DIRECTION('',(0.,0.,1.));
#355=DIRECTION('',(1.,0.,0.));
#356=DIRECTION('',(0.,0.,-1.));
#357=DIRECTION('',(1.,0.,0.));
#358=DIRECTION('',(0.,0.,1.));
#359=DIRECTION('',(1.,0.,0.));
#360=DIRECTION('',(0.,0.,1.));
#361=DIRECTION('',(1.,0.,0.));
#362=DIRECTION('',(0.,0.,1.));
#363=DIRECTION('',(1.,0.,0.));
#364=DIRECTION('',(0.,0.,-1.));
#365=DIRECTION('',(-1.,0.,0.));
#366=DIRECTION('',(0.,0.,-1.));
#367=DIRECTION('',(-1.,0.,0.));
#368=DIRECTION('',(0.,0.,1.));
#369=DIRECTION('',(1.,0.,0.));
#370=DIRECTION('',(0.,0.,1.));
#371=DIRECTION('',(1.,0.,0.));
#372=DIRECTION('',(0.,0.,1.));
#373=DIRECTION('',(1.,0.,0.));
#374=DIRECTION('',(0.,0.,-1.));
#375=DIRECTION('',(1.,0.,0.));
#376=DIRECTION('',(0.,0.,-1.));
#377=DIRECTION('',(-1.,0.,0.));
#378=DIRECTION('',(0.,0.,1.));
#379=DIRECTION('',(1.,0.,0.));
#380=DIRECTION('',(0.,0.,1.));
#381=DIRECTION('',(1.,0.,0.));
#382=DIRECTION('',(0.,0.,-1.));
#383=DIRECTION('',(-1.,0.,0.));
#384=DIRECTION('',(0.,0.,1.));
#385=DIRECTION('',(1.,0.,0.));
#386=CARTESIAN_POINT('',(0.,0.,0.));
#387=CARTESIAN_POINT('',(-1.04506681086747E-13,-1.26352041146655E-13,-0.002));
#388=CARTESIAN_POINT('',(-1.04506681086747E-13,-1.26352041146655E-13,-0.002));
#389=CARTESIAN_POINT('',(0.0383379319213306,-0.0114106518652654,-0.002));
#390=CARTESIAN_POINT('',(0.0383379370755856,0.0114106345475413,-0.002));
#391=CARTESIAN_POINT('',(0.0383379370755857,0.0114106345475412,-0.001998));
#392=CARTESIAN_POINT('',(0.0383379370755856,0.0114106345475413,-0.005));
#393=CARTESIAN_POINT('',(-1.04506681086747E-13,-1.26352041146655E-13,-0.005));
#394=CARTESIAN_POINT('',(0.0383379319213307,-0.0114106518652654,-0.005));
#395=CARTESIAN_POINT('',(0.0383379319213307,-0.0114106518652654,-0.001998));
#396=CARTESIAN_POINT('',(-1.04503211639795E-13,-1.26350540954326E-13,-0.002));
#397=CARTESIAN_POINT('',(-1.04503211639795E-13,-1.26350540954326E-13,-0.002));
#398=CARTESIAN_POINT('',(-0.0155000000001045,-1.26350540954326E-13,-0.002));
#399=CARTESIAN_POINT('',(-1.04503211639795E-13,-1.26350540954326E-13,-0.003));
#400=CARTESIAN_POINT('',(-0.0155000000001045,-1.26350540954326E-13,-0.003));
#401=CARTESIAN_POINT('',(-1.04506681086747E-13,-1.26350319096247E-13,-0.002));
#402=CARTESIAN_POINT('',(0.0552000086353096,-1.24672113050584E-8,-0.002));
#403=CARTESIAN_POINT('',(0.0567732837911498,0.00758861753325757,-0.002));
#404=CARTESIAN_POINT('',(0.0567732803633206,-0.00758864317833709,-0.002));
#405=CARTESIAN_POINT('',(0.0475556104333677,0.00949962604039941,-0.002));
#406=CARTESIAN_POINT('',(0.0475556061423256,-0.00949964752180125,-0.002));
#407=CARTESIAN_POINT('',(-1.04506681086747E-13,-1.26350319096247E-13,-0.003));
#408=CARTESIAN_POINT('',(-1.04503211639795E-13,-1.26348091660728E-13,-0.003));
#409=CARTESIAN_POINT('',(-0.0095000000001045,-1.26348091660728E-13,-0.003));
#410=CARTESIAN_POINT('',(-1.04506681086747E-13,-1.26350319096247E-13,-0.005));
#411=CARTESIAN_POINT('',(0.0475556104333677,0.00949962604039941,-0.005));
#412=CARTESIAN_POINT('',(0.0567732837911498,0.00758861753325757,-0.005));
#413=CARTESIAN_POINT('',(0.0552000086353096,-1.24672113050584E-8,-0.005));
#414=CARTESIAN_POINT('',(0.0567732803633206,-0.00758864317833709,-0.005));
#415=CARTESIAN_POINT('',(0.0475556061423256,-0.00949964752180125,-0.005));
#416=CARTESIAN_POINT('',(0.0552000086353096,-1.24672113052957E-8,-0.005));
#417=CARTESIAN_POINT('',(0.0524500086353096,-1.24672113052957E-8,-0.005));
#418=CARTESIAN_POINT('',(0.0475556061423256,-0.00949964752180125,-0.001998));
#419=CARTESIAN_POINT('',(0.0567732803633206,-0.00758864317833709,-0.001998));
#420=CARTESIAN_POINT('',(0.0552000086353096,-1.24672113052957E-8,-0.001998));
#421=CARTESIAN_POINT('',(0.0552000086353096,-1.24672113052957E-8,-0.00025));
#422=CARTESIAN_POINT('',(0.0524500086353096,-1.24672113052957E-8,-0.00025));
#423=CARTESIAN_POINT('',(0.0552000086353096,-1.24672113050584E-8,-0.001998));
#424=CARTESIAN_POINT('',(0.0567732837911498,0.00758861753325757,-0.001998));
#425=CARTESIAN_POINT('',(0.0552000086353096,-1.24672113050584E-8,-0.00025));
#426=CARTESIAN_POINT('',(0.0474500086353096,-1.24672113050584E-8,-0.00025));
#427=CARTESIAN_POINT('',(0.0475556104333677,0.00949962604039941,-0.001998));
#428=CARTESIAN_POINT('',(0.0114750043176026,-1.26350319096247E-13,-0.00025));
#429=CARTESIAN_POINT('',(-1.04503211639795E-13,-1.26348091660728E-13,0.005002));
#430=CARTESIAN_POINT('',(-1.04503211639795E-13,-1.26348091660728E-13,0.005));
#431=CARTESIAN_POINT('',(0.0094999999998955,-1.26348091660728E-13,0.005));
#432=CARTESIAN_POINT('',(-1.04503211639795E-13,-1.26348091660728E-13,0.005));
#433=CARTESIAN_POINT('',(-1.04503211639795E-13,-1.26348091660728E-13,0.015));
#434=CARTESIAN_POINT('',(0.00773673019281085,-1.26348091660728E-13,0.015));
#435=CARTESIAN_POINT('',(0.,0.,0.015));
#436=CARTESIAN_POINT('',(-1.04503211639795E-13,-1.26347938579878E-13,0.015));
#437=CARTESIAN_POINT('',(0.0024999999998955,-1.26347938579878E-13,0.015));
#438=CARTESIAN_POINT('',(-1.04503211639795E-13,-1.26347938579878E-13,0.041));
#439=CARTESIAN_POINT('',(-1.04503211639795E-13,-1.26347938579878E-13,0.0255));
#440=CARTESIAN_POINT('',(-0.0025000000001045,-1.26347938579878E-13,0.0255));
#441=CARTESIAN_POINT('',(-1.04503211639795E-13,-1.2634777325256E-13,0.026));
#442=CARTESIAN_POINT('',(-1.04503211639795E-13,-1.26347938579878E-13,0.0257));
#443=CARTESIAN_POINT('',(0.0026999999998955,-1.26347938579878E-13,0.0257));
#444=CARTESIAN_POINT('',(-1.04503211639795E-13,-1.2634777325256E-13,0.027));
#445=CARTESIAN_POINT('',(0.0026999999998955,-1.2634777325256E-13,0.027));
#446=CARTESIAN_POINT('',(-1.04503211639795E-13,-1.26346849649295E-13,0.027));
#447=CARTESIAN_POINT('',(-1.04503211639795E-13,-1.26347938579878E-13,0.027));
#448=CARTESIAN_POINT('',(-0.0025000000001045,-1.26347938579878E-13,0.027));
#449=CARTESIAN_POINT('',(-1.04503211639795E-13,-1.26346849649295E-13,0.041));
#450=CARTESIAN_POINT('',(-1.04503211639795E-13,-1.26347938579878E-13,0.041));
#451=CARTESIAN_POINT('',(0.0024999999998955,-1.26347938579878E-13,0.041));
#452=CARTESIAN_POINT('',(-1.04503211639795E-13,-1.26347938579878E-13,0.041));
#453=CARTESIAN_POINT('',(-1.04503211639795E-13,-1.26347938579878E-13,0.0255));
#454=MECHANICAL_DESIGN_GEOMETRIC_PRESENTATION_REPRESENTATION('',(#253),
#455);
#455=(
GEOMETRIC_REPRESENTATION_CONTEXT(3)
GLOBAL_UNCERTAINTY_ASSIGNED_CONTEXT((#456))
GLOBAL_UNIT_ASSIGNED_CONTEXT((#459,#458,#457))
REPRESENTATION_CONTEXT('Stand','TOP_LEVEL_ASSEMBLY_PART')
);
#456=UNCERTAINTY_MEASURE_WITH_UNIT(LENGTH_MEASURE(1.E-8),#459,
'DISTANCE_ACCURACY_VALUE','Maximum Tolerance applied to model');
#457=(
NAMED_UNIT(*)
SI_UNIT($,.STERADIAN.)
SOLID_ANGLE_UNIT()
);
#458=(
NAMED_UNIT(*)
PLANE_ANGLE_UNIT()
SI_UNIT($,.RADIAN.)
);
#459=(
LENGTH_UNIT()
NAMED_UNIT(*)
SI_UNIT($,.METRE.)
);
#460=PRODUCT_DEFINITION_SHAPE('','',#461);
#461=PRODUCT_DEFINITION('','',#463,#462);
#462=PRODUCT_DEFINITION_CONTEXT('',#469,'design');
#463=PRODUCT_DEFINITION_FORMATION_WITH_SPECIFIED_SOURCE('','',#465,
 .NOT_KNOWN.);
#464=PRODUCT_RELATED_PRODUCT_CATEGORY('','',(#465));
#465=PRODUCT('Stand','Stand','Stand',(#467));
#466=PRODUCT_CATEGORY('','');
#467=PRODUCT_CONTEXT('',#469,'mechanical');
#468=APPLICATION_PROTOCOL_DEFINITION('international standard',
'ap242_managed_model_based_3d_engineering',2020,#469);
#469=APPLICATION_CONTEXT('managed model based 3d engineering');
ENDSEC;
END-ISO-10303-21;
