ISO-10303-21;
HEADER;
/* Generated by software containing ST-Developer
 * from STEP Tools, Inc. (www.steptools.com) 
 */
/* OPTION: using custom renumber hook */

FILE_DESCRIPTION(
/* description */ ('STEP AP242 Edition 2',
'CAx-IF Rec.Pracs.---Representation and Presentation of Product Manufa
cturing Information (PMI)---4.0---2014-10-13',
'CAx-IF Rec.Pracs.---3D Tessellated Geometry---0.4---2014-09-14','2;1',
'CAx-IF Rec.Pracs.---User Defined Attributes---1.5---2016-08-15'),
/* implementation_level */ '2;1');

FILE_NAME(
/* name */ 'Orrery - SunPiece1',
/* time_stamp */ '2026-02-03T02:10:20Z',
/* author */ (''),
/* organization */ (''),
/* preprocessor_version */ 'ST-DEVELOPER v20',
/* originating_system */ 'ONSHAPE BY PTC INC, 1.210',
/* authorisation */ '  ');

FILE_SCHEMA (('AP242_MANAGED_MODEL_BASED_3D_ENGINEERING_MIM_LF { 1 0 10303 442 3 1 4 }'));
ENDSEC;

DATA;
#10=SHAPE_REPRESENTATION_RELATIONSHIP('','',#155,#11);
#11=ADVANCED_BREP_SHAPE_REPRESENTATION('',(#153),#245);
#12=CIRCLE('',#159,0.0125);
#13=CIRCLE('',#160,0.0125);
#14=CYLINDRICAL_SURFACE('',#158,0.0125);
#15=ORIENTED_EDGE('',*,*,#51,.F.);
#16=ORIENTED_EDGE('',*,*,#52,.T.);
#17=ORIENTED_EDGE('',*,*,#53,.T.);
#18=ORIENTED_EDGE('',*,*,#54,.F.);
#19=ORIENTED_EDGE('',*,*,#55,.F.);
#20=ORIENTED_EDGE('',*,*,#56,.T.);
#21=ORIENTED_EDGE('',*,*,#57,.T.);
#22=ORIENTED_EDGE('',*,*,#53,.F.);
#23=ORIENTED_EDGE('',*,*,#56,.F.);
#24=ORIENTED_EDGE('',*,*,#58,.T.);
#25=ORIENTED_EDGE('',*,*,#59,.T.);
#26=ORIENTED_EDGE('',*,*,#60,.F.);
#27=ORIENTED_EDGE('',*,*,#61,.F.);
#28=ORIENTED_EDGE('',*,*,#62,.T.);
#29=ORIENTED_EDGE('',*,*,#63,.T.);
#30=ORIENTED_EDGE('',*,*,#59,.F.);
#31=ORIENTED_EDGE('',*,*,#64,.F.);
#32=ORIENTED_EDGE('',*,*,#65,.T.);
#33=ORIENTED_EDGE('',*,*,#51,.T.);
#34=ORIENTED_EDGE('',*,*,#66,.F.);
#35=ORIENTED_EDGE('',*,*,#67,.F.);
#36=ORIENTED_EDGE('',*,*,#66,.T.);
#37=ORIENTED_EDGE('',*,*,#54,.T.);
#38=ORIENTED_EDGE('',*,*,#57,.F.);
#39=ORIENTED_EDGE('',*,*,#60,.T.);
#40=ORIENTED_EDGE('',*,*,#63,.F.);
#41=ORIENTED_EDGE('',*,*,#68,.F.);
#42=ORIENTED_EDGE('',*,*,#64,.T.);
#43=ORIENTED_EDGE('',*,*,#67,.T.);
#44=ORIENTED_EDGE('',*,*,#62,.F.);
#45=ORIENTED_EDGE('',*,*,#68,.T.);
#46=ORIENTED_EDGE('',*,*,#61,.T.);
#47=ORIENTED_EDGE('',*,*,#58,.F.);
#48=ORIENTED_EDGE('',*,*,#55,.T.);
#49=ORIENTED_EDGE('',*,*,#52,.F.);
#50=ORIENTED_EDGE('',*,*,#65,.F.);
#51=EDGE_CURVE('',#69,#70,#81,.T.);
#52=EDGE_CURVE('',#69,#71,#82,.T.);
#53=EDGE_CURVE('',#71,#72,#83,.T.);
#54=EDGE_CURVE('',#70,#72,#84,.T.);
#55=EDGE_CURVE('',#73,#71,#12,.T.);
#56=EDGE_CURVE('',#73,#74,#85,.T.);
#57=EDGE_CURVE('',#74,#72,#13,.T.);
#58=EDGE_CURVE('',#73,#75,#86,.T.);
#59=EDGE_CURVE('',#75,#76,#87,.T.);
#60=EDGE_CURVE('',#74,#76,#88,.T.);
#61=EDGE_CURVE('',#77,#75,#89,.T.);
#62=EDGE_CURVE('',#77,#78,#90,.T.);
#63=EDGE_CURVE('',#78,#76,#91,.T.);
#64=EDGE_CURVE('',#79,#80,#92,.T.);
#65=EDGE_CURVE('',#79,#69,#93,.T.);
#66=EDGE_CURVE('',#80,#70,#94,.T.);
#67=EDGE_CURVE('',#80,#78,#95,.T.);
#68=EDGE_CURVE('',#79,#77,#96,.T.);
#69=VERTEX_POINT('',#208);
#70=VERTEX_POINT('',#209);
#71=VERTEX_POINT('',#211);
#72=VERTEX_POINT('',#213);
#73=VERTEX_POINT('',#217);
#74=VERTEX_POINT('',#219);
#75=VERTEX_POINT('',#223);
#76=VERTEX_POINT('',#225);
#77=VERTEX_POINT('',#229);
#78=VERTEX_POINT('',#231);
#79=VERTEX_POINT('',#235);
#80=VERTEX_POINT('',#236);
#81=LINE('',#207,#97);
#82=LINE('',#210,#98);
#83=LINE('',#212,#99);
#84=LINE('',#214,#100);
#85=LINE('',#218,#101);
#86=LINE('',#222,#102);
#87=LINE('',#224,#103);
#88=LINE('',#226,#104);
#89=LINE('',#228,#105);
#90=LINE('',#230,#106);
#91=LINE('',#232,#107);
#92=LINE('',#234,#108);
#93=LINE('',#237,#109);
#94=LINE('',#238,#110);
#95=LINE('',#240,#111);
#96=LINE('',#242,#112);
#97=VECTOR('',#171,1.);
#98=VECTOR('',#172,1.);
#99=VECTOR('',#173,1.);
#100=VECTOR('',#174,1.);
#101=VECTOR('',#179,1.);
#102=VECTOR('',#184,1.);
#103=VECTOR('',#185,1.);
#104=VECTOR('',#186,1.);
#105=VECTOR('',#189,1.);
#106=VECTOR('',#190,1.);
#107=VECTOR('',#191,1.);
#108=VECTOR('',#194,1.);
#109=VECTOR('',#195,1.);
#110=VECTOR('',#196,1.);
#111=VECTOR('',#199,1.);
#112=VECTOR('',#202,1.);
#113=EDGE_LOOP('',(#15,#16,#17,#18));
#114=EDGE_LOOP('',(#19,#20,#21,#22));
#115=EDGE_LOOP('',(#23,#24,#25,#26));
#116=EDGE_LOOP('',(#27,#28,#29,#30));
#117=EDGE_LOOP('',(#31,#32,#33,#34));
#118=EDGE_LOOP('',(#35,#36,#37,#38,#39,#40));
#119=EDGE_LOOP('',(#41,#42,#43,#44));
#120=EDGE_LOOP('',(#45,#46,#47,#48,#49,#50));
#121=FACE_BOUND('',#113,.T.);
#122=FACE_BOUND('',#114,.T.);
#123=FACE_BOUND('',#115,.T.);
#124=FACE_BOUND('',#116,.T.);
#125=FACE_BOUND('',#117,.T.);
#126=FACE_BOUND('',#118,.T.);
#127=FACE_BOUND('',#119,.T.);
#128=FACE_BOUND('',#120,.T.);
#129=PLANE('',#157);
#130=PLANE('',#161);
#131=PLANE('',#162);
#132=PLANE('',#163);
#133=PLANE('',#164);
#134=PLANE('',#165);
#135=PLANE('',#166);
#136=ADVANCED_FACE('',(#121),#129,.T.);
#137=ADVANCED_FACE('',(#122),#14,.T.);
#138=ADVANCED_FACE('',(#123),#130,.T.);
#139=ADVANCED_FACE('',(#124),#131,.F.);
#140=ADVANCED_FACE('',(#125),#132,.T.);
#141=ADVANCED_FACE('',(#126),#133,.T.);
#142=ADVANCED_FACE('',(#127),#134,.T.);
#143=ADVANCED_FACE('',(#128),#135,.T.);
#144=CLOSED_SHELL('',(#136,#137,#138,#139,#140,#141,#142,#143));
#145=STYLED_ITEM('',(#146),#153);
#146=PRESENTATION_STYLE_ASSIGNMENT((#147));
#147=SURFACE_STYLE_USAGE(.BOTH.,#148);
#148=SURFACE_SIDE_STYLE('',(#149));
#149=SURFACE_STYLE_FILL_AREA(#150);
#150=FILL_AREA_STYLE('',(#151));
#151=FILL_AREA_STYLE_COLOUR('',#152);
#152=COLOUR_RGB('',1.,0.756862745098039,0.0549019607843137);
#153=MANIFOLD_SOLID_BREP('SunPiece1',#144);
#154=SHAPE_DEFINITION_REPRESENTATION(#250,#155);
#155=SHAPE_REPRESENTATION('SunPiece1',(#156),#245);
#156=AXIS2_PLACEMENT_3D('',#205,#167,#168);
#157=AXIS2_PLACEMENT_3D('',#206,#169,#170);
#158=AXIS2_PLACEMENT_3D('',#215,#175,#176);
#159=AXIS2_PLACEMENT_3D('',#216,#177,#178);
#160=AXIS2_PLACEMENT_3D('',#220,#180,#181);
#161=AXIS2_PLACEMENT_3D('',#221,#182,#183);
#162=AXIS2_PLACEMENT_3D('',#227,#187,#188);
#163=AXIS2_PLACEMENT_3D('',#233,#192,#193);
#164=AXIS2_PLACEMENT_3D('',#239,#197,#198);
#165=AXIS2_PLACEMENT_3D('',#241,#200,#201);
#166=AXIS2_PLACEMENT_3D('',#243,#203,#204);
#167=DIRECTION('',(0.,0.,1.));
#168=DIRECTION('',(1.,0.,0.));
#169=DIRECTION('',(0.,-1.,-1.53515351856354E-16));
#170=DIRECTION('',(0.,1.53515351856354E-16,-1.));
#171=DIRECTION('',(1.,0.,0.));
#172=DIRECTION('',(0.,1.53515351856354E-16,-1.));
#173=DIRECTION('',(1.,0.,0.));
#174=DIRECTION('',(0.,1.53515351856354E-16,-1.));
#175=DIRECTION('',(1.,0.,0.));
#176=DIRECTION('',(0.,0.,-1.));
#177=DIRECTION('',(-1.,0.,0.));
#178=DIRECTION('',(0.,0.,1.));
#179=DIRECTION('',(1.,0.,0.));
#180=DIRECTION('',(-1.,0.,0.));
#181=DIRECTION('',(0.,0.,-1.));
#182=DIRECTION('',(0.,-1.,-1.53515351856354E-16));
#183=DIRECTION('',(0.,1.53515351856354E-16,-1.));
#184=DIRECTION('',(0.,1.53515351856354E-16,-1.));
#185=DIRECTION('',(1.,0.,0.));
#186=DIRECTION('',(0.,1.53515351856354E-16,-1.));
#187=DIRECTION('',(0.,0.,1.));
#188=DIRECTION('',(1.,0.,0.));
#189=DIRECTION('',(0.,-1.,0.));
#190=DIRECTION('',(1.,0.,0.));
#191=DIRECTION('',(0.,-1.,0.));
#192=DIRECTION('',(0.,0.,1.));
#193=DIRECTION('',(1.,0.,0.));
#194=DIRECTION('',(1.,0.,0.));
#195=DIRECTION('',(0.,-1.,0.));
#196=DIRECTION('',(0.,-1.,0.));
#197=DIRECTION('',(1.,0.,0.));
#198=DIRECTION('',(0.,0.,-1.));
#199=DIRECTION('',(0.,0.,1.));
#200=DIRECTION('',(0.,-1.,0.));
#201=DIRECTION('',(0.,0.,-1.));
#202=DIRECTION('',(0.,0.,1.));
#203=DIRECTION('',(-1.,0.,0.));
#204=DIRECTION('',(0.,0.,1.));
#205=CARTESIAN_POINT('',(0.,0.,0.));
#206=CARTESIAN_POINT('',(-0.0010020000001045,0.00369999999987366,0.02115));
#207=CARTESIAN_POINT('',(-0.0010020000001045,0.00369999999987366,0.0268));
#208=CARTESIAN_POINT('',(-0.0010000000001045,0.00369999999987366,0.0268));
#209=CARTESIAN_POINT('',(0.000999999999895497,0.00369999999987366,0.0268));
#210=CARTESIAN_POINT('',(-0.0010000000001045,0.00369999999987366,0.02115));
#211=CARTESIAN_POINT('',(-0.0010000000001045,0.00369999999987366,0.0155));
#212=CARTESIAN_POINT('',(-0.0010020000001045,0.00369999999987366,0.0155));
#213=CARTESIAN_POINT('',(0.000999999999895497,0.00369999999987366,0.0155));
#214=CARTESIAN_POINT('',(0.000999999999895497,0.00369999999987366,0.02115));
#215=CARTESIAN_POINT('',(-0.0010020000001045,0.00369999999987366,0.028));
#216=CARTESIAN_POINT('',(-0.0010000000001045,0.00369999999987366,0.028));
#217=CARTESIAN_POINT('',(-0.0010000000001045,0.00369999999987365,0.0405));
#218=CARTESIAN_POINT('',(-0.0010020000001045,0.00369999999987365,0.0405));
#219=CARTESIAN_POINT('',(0.000999999999895497,0.00369999999987365,0.0405));
#220=CARTESIAN_POINT('',(0.000999999999895497,0.00369999999987366,0.028));
#221=CARTESIAN_POINT('',(-0.0010020000001045,0.00369999999987365,0.03485));
#222=CARTESIAN_POINT('',(-0.0010000000001045,0.00369999999987365,0.03485));
#223=CARTESIAN_POINT('',(-0.0010000000001045,0.00369999999987365,0.0292));
#224=CARTESIAN_POINT('',(-0.0010020000001045,0.00369999999987365,0.0292));
#225=CARTESIAN_POINT('',(0.000999999999895497,0.00369999999987365,0.0292));
#226=CARTESIAN_POINT('',(0.000999999999895497,0.00369999999987365,0.03485));
#227=CARTESIAN_POINT('',(-0.0010020000001045,0.00557113333713626,0.0292));
#228=CARTESIAN_POINT('',(-0.0010000000001045,0.00557113333713626,0.0292));
#229=CARTESIAN_POINT('',(-0.0010000000001045,0.00744226667439886,0.0292));
#230=CARTESIAN_POINT('',(-0.0010020000001045,0.00744226667439886,0.0292));
#231=CARTESIAN_POINT('',(0.000999999999895497,0.00744226667439886,0.0292));
#232=CARTESIAN_POINT('',(0.000999999999895497,0.00557113333713626,0.0292));
#233=CARTESIAN_POINT('',(-0.0010020000001045,0.00557113333713626,0.0268));
#234=CARTESIAN_POINT('',(-0.0010020000001045,0.00744226667439886,0.0268));
#235=CARTESIAN_POINT('',(-0.0010000000001045,0.00744226667439886,0.0268));
#236=CARTESIAN_POINT('',(0.000999999999895497,0.00744226667439886,0.0268));
#237=CARTESIAN_POINT('',(-0.0010000000001045,0.00557113333713626,0.0268));
#238=CARTESIAN_POINT('',(0.000999999999895497,0.00557113333713626,0.0268));
#239=CARTESIAN_POINT('',(0.000999999999895497,0.0099511012343248,0.026998));
#240=CARTESIAN_POINT('',(0.000999999999895496,0.00744226667439886,0.026998));
#241=CARTESIAN_POINT('',(-1.04503428480229E-13,0.00744226667439886,0.026998));
#242=CARTESIAN_POINT('',(-0.0010000000001045,0.00744226667439886,0.026998));
#243=CARTESIAN_POINT('',(-0.0010000000001045,0.00995110123432481,0.026998));
#244=MECHANICAL_DESIGN_GEOMETRIC_PRESENTATION_REPRESENTATION('',(#145),
#245);
#245=(
GEOMETRIC_REPRESENTATION_CONTEXT(3)
GLOBAL_UNCERTAINTY_ASSIGNED_CONTEXT((#246))
GLOBAL_UNIT_ASSIGNED_CONTEXT((#249,#248,#247))
REPRESENTATION_CONTEXT('SunPiece1','TOP_LEVEL_ASSEMBLY_PART')
);
#246=UNCERTAINTY_MEASURE_WITH_UNIT(LENGTH_MEASURE(1.E-8),#249,
'DISTANCE_ACCURACY_VALUE','Maximum Tolerance applied to model');
#247=(
NAMED_UNIT(*)
SI_UNIT($,.STERADIAN.)
SOLID_ANGLE_UNIT()
);
#248=(
NAMED_UNIT(*)
PLANE_ANGLE_UNIT()
SI_UNIT($,.RADIAN.)
);
#249=(
LENGTH_UNIT()
NAMED_UNIT(*)
SI_UNIT($,.METRE.)
);
#250=PRODUCT_DEFINITION_SHAPE('','',#251);
#251=PRODUCT_DEFINITION('','',#253,#252);
#252=PRODUCT_DEFINITION_CONTEXT('',#259,'design');
#253=PRODUCT_DEFINITION_FORMATION_WITH_SPECIFIED_SOURCE('','',#255,
 .NOT_KNOWN.);
#254=PRODUCT_RELATED_PRODUCT_CATEGORY('','',(#255));
#255=PRODUCT('SunPiece1','SunPiece1','SunPiece1',(#257));
#256=PRODUCT_CATEGORY('','');
#257=PRODUCT_CONTEXT('',#259,'mechanical');
#258=APPLICATION_PROTOCOL_DEFINITION('international standard',
'ap242_managed_model_based_3d_engineering',2020,#259);
#259=APPLICATION_CONTEXT('managed model based 3d engineering');
ENDSEC;
END-ISO-10303-21;
