ISO-10303-21;
HEADER;
/* Generated by software containing ST-Developer
 * from STEP Tools, Inc. (www.steptools.com) 
 */
/* OPTION: using custom renumber hook */

FILE_DESCRIPTION(
/* description */ ('STEP AP242 Edition 2',
'CAx-IF Rec.Pracs.---Representation and Presentation of Product Manufa
cturing Information (PMI)---4.0---2014-10-13',
'CAx-IF Rec.Pracs.---3D Tessellated Geometry---0.4---2014-09-14','2;1',
'CAx-IF Rec.Pracs.---User Defined Attributes---1.5---2016-08-15'),
/* implementation_level */ '2;1');

FILE_NAME(
/* name */ 'Orrery - SunShell',
/* time_stamp */ '2026-02-03T02:10:21Z',
/* author */ (''),
/* organization */ (''),
/* preprocessor_version */ 'ST-DEVELOPER v20',
/* originating_system */ 'ONSHAPE BY PTC INC, 1.210',
/* authorisation */ '  ');

FILE_SCHEMA (('AP242_MANAGED_MODEL_BASED_3D_ENGINEERING_MIM_LF { 1 0 10303 442 3 1 4 }'));
ENDSEC;

DATA;
#10=SHAPE_REPRESENTATION_RELATIONSHIP('','',#1035,#11);
#11=ADVANCED_BREP_SHAPE_REPRESENTATION('',(#1033),#1687);
#12=CIRCLE('',#1039,0.0125);
#13=CIRCLE('',#1040,0.0125);
#14=CIRCLE('',#1045,0.0125);
#15=CIRCLE('',#1046,0.0125);
#16=CIRCLE('',#1051,0.0125);
#17=CIRCLE('',#1052,0.0125);
#18=CIRCLE('',#1057,0.0125);
#19=CIRCLE('',#1058,0.0125);
#20=CIRCLE('',#1063,0.0125);
#21=CIRCLE('',#1064,0.0125);
#22=CIRCLE('',#1069,0.0125);
#23=CIRCLE('',#1070,0.0125);
#24=CIRCLE('',#1075,0.0125);
#25=CIRCLE('',#1076,0.0125);
#26=CIRCLE('',#1081,0.0125);
#27=CIRCLE('',#1082,0.0125);
#28=CIRCLE('',#1087,0.0125);
#29=CIRCLE('',#1088,0.0125);
#30=CIRCLE('',#1093,0.0125);
#31=CIRCLE('',#1094,0.0125);
#32=CIRCLE('',#1099,0.0125);
#33=CIRCLE('',#1100,0.0125);
#34=CIRCLE('',#1105,0.0125);
#35=CIRCLE('',#1106,0.0125);
#36=CIRCLE('',#1110,0.0027);
#37=CIRCLE('',#1111,0.0027);
#38=CYLINDRICAL_SURFACE('',#1038,0.0125);
#39=CYLINDRICAL_SURFACE('',#1044,0.0125);
#40=CYLINDRICAL_SURFACE('',#1050,0.0125);
#41=CYLINDRICAL_SURFACE('',#1056,0.0125);
#42=CYLINDRICAL_SURFACE('',#1062,0.0125);
#43=CYLINDRICAL_SURFACE('',#1068,0.0125);
#44=CYLINDRICAL_SURFACE('',#1074,0.0125);
#45=CYLINDRICAL_SURFACE('',#1080,0.0125);
#46=CYLINDRICAL_SURFACE('',#1086,0.0125);
#47=CYLINDRICAL_SURFACE('',#1092,0.0125);
#48=CYLINDRICAL_SURFACE('',#1098,0.0125);
#49=CYLINDRICAL_SURFACE('',#1104,0.0125);
#50=CYLINDRICAL_SURFACE('',#1109,0.0027);
#51=ORIENTED_EDGE('',*,*,#343,.F.);
#52=ORIENTED_EDGE('',*,*,#344,.F.);
#53=ORIENTED_EDGE('',*,*,#345,.T.);
#54=ORIENTED_EDGE('',*,*,#346,.T.);
#55=ORIENTED_EDGE('',*,*,#347,.T.);
#56=ORIENTED_EDGE('',*,*,#348,.F.);
#57=ORIENTED_EDGE('',*,*,#349,.F.);
#58=ORIENTED_EDGE('',*,*,#344,.T.);
#59=ORIENTED_EDGE('',*,*,#350,.F.);
#60=ORIENTED_EDGE('',*,*,#351,.F.);
#61=ORIENTED_EDGE('',*,*,#352,.T.);
#62=ORIENTED_EDGE('',*,*,#348,.T.);
#63=ORIENTED_EDGE('',*,*,#353,.F.);
#64=ORIENTED_EDGE('',*,*,#354,.F.);
#65=ORIENTED_EDGE('',*,*,#355,.T.);
#66=ORIENTED_EDGE('',*,*,#351,.T.);
#67=ORIENTED_EDGE('',*,*,#356,.F.);
#68=ORIENTED_EDGE('',*,*,#357,.F.);
#69=ORIENTED_EDGE('',*,*,#358,.T.);
#70=ORIENTED_EDGE('',*,*,#354,.T.);
#71=ORIENTED_EDGE('',*,*,#359,.T.);
#72=ORIENTED_EDGE('',*,*,#360,.F.);
#73=ORIENTED_EDGE('',*,*,#361,.F.);
#74=ORIENTED_EDGE('',*,*,#357,.T.);
#75=ORIENTED_EDGE('',*,*,#362,.F.);
#76=ORIENTED_EDGE('',*,*,#363,.F.);
#77=ORIENTED_EDGE('',*,*,#364,.T.);
#78=ORIENTED_EDGE('',*,*,#360,.T.);
#79=ORIENTED_EDGE('',*,*,#365,.F.);
#80=ORIENTED_EDGE('',*,*,#366,.F.);
#81=ORIENTED_EDGE('',*,*,#367,.T.);
#82=ORIENTED_EDGE('',*,*,#363,.T.);
#83=ORIENTED_EDGE('',*,*,#368,.F.);
#84=ORIENTED_EDGE('',*,*,#369,.F.);
#85=ORIENTED_EDGE('',*,*,#370,.T.);
#86=ORIENTED_EDGE('',*,*,#366,.T.);
#87=ORIENTED_EDGE('',*,*,#371,.T.);
#88=ORIENTED_EDGE('',*,*,#372,.F.);
#89=ORIENTED_EDGE('',*,*,#373,.F.);
#90=ORIENTED_EDGE('',*,*,#369,.T.);
#91=ORIENTED_EDGE('',*,*,#374,.F.);
#92=ORIENTED_EDGE('',*,*,#375,.F.);
#93=ORIENTED_EDGE('',*,*,#376,.T.);
#94=ORIENTED_EDGE('',*,*,#372,.T.);
#95=ORIENTED_EDGE('',*,*,#377,.F.);
#96=ORIENTED_EDGE('',*,*,#378,.F.);
#97=ORIENTED_EDGE('',*,*,#379,.T.);
#98=ORIENTED_EDGE('',*,*,#375,.T.);
#99=ORIENTED_EDGE('',*,*,#380,.F.);
#100=ORIENTED_EDGE('',*,*,#381,.F.);
#101=ORIENTED_EDGE('',*,*,#382,.T.);
#102=ORIENTED_EDGE('',*,*,#378,.T.);
#103=ORIENTED_EDGE('',*,*,#383,.T.);
#104=ORIENTED_EDGE('',*,*,#384,.F.);
#105=ORIENTED_EDGE('',*,*,#385,.F.);
#106=ORIENTED_EDGE('',*,*,#381,.T.);
#107=ORIENTED_EDGE('',*,*,#386,.F.);
#108=ORIENTED_EDGE('',*,*,#387,.F.);
#109=ORIENTED_EDGE('',*,*,#388,.T.);
#110=ORIENTED_EDGE('',*,*,#384,.T.);
#111=ORIENTED_EDGE('',*,*,#389,.F.);
#112=ORIENTED_EDGE('',*,*,#390,.F.);
#113=ORIENTED_EDGE('',*,*,#391,.T.);
#114=ORIENTED_EDGE('',*,*,#387,.T.);
#115=ORIENTED_EDGE('',*,*,#392,.F.);
#116=ORIENTED_EDGE('',*,*,#393,.F.);
#117=ORIENTED_EDGE('',*,*,#394,.T.);
#118=ORIENTED_EDGE('',*,*,#390,.T.);
#119=ORIENTED_EDGE('',*,*,#395,.T.);
#120=ORIENTED_EDGE('',*,*,#396,.F.);
#121=ORIENTED_EDGE('',*,*,#397,.F.);
#122=ORIENTED_EDGE('',*,*,#393,.T.);
#123=ORIENTED_EDGE('',*,*,#398,.F.);
#124=ORIENTED_EDGE('',*,*,#399,.F.);
#125=ORIENTED_EDGE('',*,*,#400,.T.);
#126=ORIENTED_EDGE('',*,*,#396,.T.);
#127=ORIENTED_EDGE('',*,*,#401,.F.);
#128=ORIENTED_EDGE('',*,*,#402,.F.);
#129=ORIENTED_EDGE('',*,*,#403,.T.);
#130=ORIENTED_EDGE('',*,*,#399,.T.);
#131=ORIENTED_EDGE('',*,*,#404,.F.);
#132=ORIENTED_EDGE('',*,*,#405,.F.);
#133=ORIENTED_EDGE('',*,*,#406,.T.);
#134=ORIENTED_EDGE('',*,*,#402,.T.);
#135=ORIENTED_EDGE('',*,*,#407,.T.);
#136=ORIENTED_EDGE('',*,*,#408,.F.);
#137=ORIENTED_EDGE('',*,*,#409,.F.);
#138=ORIENTED_EDGE('',*,*,#405,.T.);
#139=ORIENTED_EDGE('',*,*,#410,.F.);
#140=ORIENTED_EDGE('',*,*,#411,.F.);
#141=ORIENTED_EDGE('',*,*,#412,.T.);
#142=ORIENTED_EDGE('',*,*,#408,.T.);
#143=ORIENTED_EDGE('',*,*,#413,.F.);
#144=ORIENTED_EDGE('',*,*,#414,.F.);
#145=ORIENTED_EDGE('',*,*,#415,.T.);
#146=ORIENTED_EDGE('',*,*,#411,.T.);
#147=ORIENTED_EDGE('',*,*,#416,.F.);
#148=ORIENTED_EDGE('',*,*,#417,.F.);
#149=ORIENTED_EDGE('',*,*,#418,.T.);
#150=ORIENTED_EDGE('',*,*,#414,.T.);
#151=ORIENTED_EDGE('',*,*,#419,.T.);
#152=ORIENTED_EDGE('',*,*,#420,.F.);
#153=ORIENTED_EDGE('',*,*,#421,.F.);
#154=ORIENTED_EDGE('',*,*,#417,.T.);
#155=ORIENTED_EDGE('',*,*,#422,.F.);
#156=ORIENTED_EDGE('',*,*,#423,.F.);
#157=ORIENTED_EDGE('',*,*,#424,.T.);
#158=ORIENTED_EDGE('',*,*,#420,.T.);
#159=ORIENTED_EDGE('',*,*,#425,.F.);
#160=ORIENTED_EDGE('',*,*,#426,.F.);
#161=ORIENTED_EDGE('',*,*,#427,.T.);
#162=ORIENTED_EDGE('',*,*,#423,.T.);
#163=ORIENTED_EDGE('',*,*,#428,.F.);
#164=ORIENTED_EDGE('',*,*,#429,.F.);
#165=ORIENTED_EDGE('',*,*,#430,.T.);
#166=ORIENTED_EDGE('',*,*,#426,.T.);
#167=ORIENTED_EDGE('',*,*,#431,.T.);
#168=ORIENTED_EDGE('',*,*,#432,.F.);
#169=ORIENTED_EDGE('',*,*,#433,.F.);
#170=ORIENTED_EDGE('',*,*,#429,.T.);
#171=ORIENTED_EDGE('',*,*,#434,.F.);
#172=ORIENTED_EDGE('',*,*,#435,.F.);
#173=ORIENTED_EDGE('',*,*,#436,.T.);
#174=ORIENTED_EDGE('',*,*,#432,.T.);
#175=ORIENTED_EDGE('',*,*,#437,.F.);
#176=ORIENTED_EDGE('',*,*,#438,.F.);
#177=ORIENTED_EDGE('',*,*,#439,.T.);
#178=ORIENTED_EDGE('',*,*,#435,.T.);
#179=ORIENTED_EDGE('',*,*,#440,.F.);
#180=ORIENTED_EDGE('',*,*,#441,.F.);
#181=ORIENTED_EDGE('',*,*,#442,.T.);
#182=ORIENTED_EDGE('',*,*,#438,.T.);
#183=ORIENTED_EDGE('',*,*,#443,.T.);
#184=ORIENTED_EDGE('',*,*,#444,.F.);
#185=ORIENTED_EDGE('',*,*,#445,.F.);
#186=ORIENTED_EDGE('',*,*,#441,.T.);
#187=ORIENTED_EDGE('',*,*,#446,.F.);
#188=ORIENTED_EDGE('',*,*,#447,.F.);
#189=ORIENTED_EDGE('',*,*,#448,.T.);
#190=ORIENTED_EDGE('',*,*,#444,.T.);
#191=ORIENTED_EDGE('',*,*,#449,.F.);
#192=ORIENTED_EDGE('',*,*,#450,.F.);
#193=ORIENTED_EDGE('',*,*,#451,.T.);
#194=ORIENTED_EDGE('',*,*,#447,.T.);
#195=ORIENTED_EDGE('',*,*,#452,.F.);
#196=ORIENTED_EDGE('',*,*,#453,.F.);
#197=ORIENTED_EDGE('',*,*,#454,.T.);
#198=ORIENTED_EDGE('',*,*,#450,.T.);
#199=ORIENTED_EDGE('',*,*,#455,.T.);
#200=ORIENTED_EDGE('',*,*,#456,.F.);
#201=ORIENTED_EDGE('',*,*,#457,.F.);
#202=ORIENTED_EDGE('',*,*,#453,.T.);
#203=ORIENTED_EDGE('',*,*,#458,.F.);
#204=ORIENTED_EDGE('',*,*,#459,.F.);
#205=ORIENTED_EDGE('',*,*,#460,.T.);
#206=ORIENTED_EDGE('',*,*,#456,.T.);
#207=ORIENTED_EDGE('',*,*,#461,.F.);
#208=ORIENTED_EDGE('',*,*,#462,.F.);
#209=ORIENTED_EDGE('',*,*,#463,.T.);
#210=ORIENTED_EDGE('',*,*,#459,.T.);
#211=ORIENTED_EDGE('',*,*,#464,.F.);
#212=ORIENTED_EDGE('',*,*,#465,.F.);
#213=ORIENTED_EDGE('',*,*,#466,.T.);
#214=ORIENTED_EDGE('',*,*,#462,.T.);
#215=ORIENTED_EDGE('',*,*,#467,.T.);
#216=ORIENTED_EDGE('',*,*,#468,.F.);
#217=ORIENTED_EDGE('',*,*,#469,.F.);
#218=ORIENTED_EDGE('',*,*,#465,.T.);
#219=ORIENTED_EDGE('',*,*,#470,.F.);
#220=ORIENTED_EDGE('',*,*,#471,.F.);
#221=ORIENTED_EDGE('',*,*,#472,.T.);
#222=ORIENTED_EDGE('',*,*,#468,.T.);
#223=ORIENTED_EDGE('',*,*,#473,.F.);
#224=ORIENTED_EDGE('',*,*,#474,.F.);
#225=ORIENTED_EDGE('',*,*,#475,.T.);
#226=ORIENTED_EDGE('',*,*,#471,.T.);
#227=ORIENTED_EDGE('',*,*,#476,.F.);
#228=ORIENTED_EDGE('',*,*,#477,.F.);
#229=ORIENTED_EDGE('',*,*,#478,.T.);
#230=ORIENTED_EDGE('',*,*,#474,.T.);
#231=ORIENTED_EDGE('',*,*,#479,.T.);
#232=ORIENTED_EDGE('',*,*,#480,.F.);
#233=ORIENTED_EDGE('',*,*,#481,.F.);
#234=ORIENTED_EDGE('',*,*,#477,.T.);
#235=ORIENTED_EDGE('',*,*,#482,.F.);
#236=ORIENTED_EDGE('',*,*,#483,.F.);
#237=ORIENTED_EDGE('',*,*,#484,.T.);
#238=ORIENTED_EDGE('',*,*,#480,.T.);
#239=ORIENTED_EDGE('',*,*,#485,.F.);
#240=ORIENTED_EDGE('',*,*,#346,.F.);
#241=ORIENTED_EDGE('',*,*,#486,.T.);
#242=ORIENTED_EDGE('',*,*,#483,.T.);
#243=ORIENTED_EDGE('',*,*,#487,.T.);
#244=ORIENTED_EDGE('',*,*,#488,.F.);
#245=ORIENTED_EDGE('',*,*,#345,.F.);
#246=ORIENTED_EDGE('',*,*,#349,.T.);
#247=ORIENTED_EDGE('',*,*,#352,.F.);
#248=ORIENTED_EDGE('',*,*,#355,.F.);
#249=ORIENTED_EDGE('',*,*,#358,.F.);
#250=ORIENTED_EDGE('',*,*,#361,.T.);
#251=ORIENTED_EDGE('',*,*,#364,.F.);
#252=ORIENTED_EDGE('',*,*,#367,.F.);
#253=ORIENTED_EDGE('',*,*,#370,.F.);
#254=ORIENTED_EDGE('',*,*,#373,.T.);
#255=ORIENTED_EDGE('',*,*,#376,.F.);
#256=ORIENTED_EDGE('',*,*,#379,.F.);
#257=ORIENTED_EDGE('',*,*,#382,.F.);
#258=ORIENTED_EDGE('',*,*,#385,.T.);
#259=ORIENTED_EDGE('',*,*,#388,.F.);
#260=ORIENTED_EDGE('',*,*,#391,.F.);
#261=ORIENTED_EDGE('',*,*,#394,.F.);
#262=ORIENTED_EDGE('',*,*,#397,.T.);
#263=ORIENTED_EDGE('',*,*,#400,.F.);
#264=ORIENTED_EDGE('',*,*,#403,.F.);
#265=ORIENTED_EDGE('',*,*,#406,.F.);
#266=ORIENTED_EDGE('',*,*,#409,.T.);
#267=ORIENTED_EDGE('',*,*,#412,.F.);
#268=ORIENTED_EDGE('',*,*,#415,.F.);
#269=ORIENTED_EDGE('',*,*,#418,.F.);
#270=ORIENTED_EDGE('',*,*,#421,.T.);
#271=ORIENTED_EDGE('',*,*,#424,.F.);
#272=ORIENTED_EDGE('',*,*,#427,.F.);
#273=ORIENTED_EDGE('',*,*,#430,.F.);
#274=ORIENTED_EDGE('',*,*,#433,.T.);
#275=ORIENTED_EDGE('',*,*,#436,.F.);
#276=ORIENTED_EDGE('',*,*,#439,.F.);
#277=ORIENTED_EDGE('',*,*,#442,.F.);
#278=ORIENTED_EDGE('',*,*,#445,.T.);
#279=ORIENTED_EDGE('',*,*,#448,.F.);
#280=ORIENTED_EDGE('',*,*,#451,.F.);
#281=ORIENTED_EDGE('',*,*,#454,.F.);
#282=ORIENTED_EDGE('',*,*,#457,.T.);
#283=ORIENTED_EDGE('',*,*,#460,.F.);
#284=ORIENTED_EDGE('',*,*,#463,.F.);
#285=ORIENTED_EDGE('',*,*,#466,.F.);
#286=ORIENTED_EDGE('',*,*,#469,.T.);
#287=ORIENTED_EDGE('',*,*,#472,.F.);
#288=ORIENTED_EDGE('',*,*,#475,.F.);
#289=ORIENTED_EDGE('',*,*,#478,.F.);
#290=ORIENTED_EDGE('',*,*,#481,.T.);
#291=ORIENTED_EDGE('',*,*,#484,.F.);
#292=ORIENTED_EDGE('',*,*,#486,.F.);
#293=ORIENTED_EDGE('',*,*,#487,.F.);
#294=ORIENTED_EDGE('',*,*,#343,.T.);
#295=ORIENTED_EDGE('',*,*,#485,.T.);
#296=ORIENTED_EDGE('',*,*,#482,.T.);
#297=ORIENTED_EDGE('',*,*,#479,.F.);
#298=ORIENTED_EDGE('',*,*,#476,.T.);
#299=ORIENTED_EDGE('',*,*,#473,.T.);
#300=ORIENTED_EDGE('',*,*,#470,.T.);
#301=ORIENTED_EDGE('',*,*,#467,.F.);
#302=ORIENTED_EDGE('',*,*,#464,.T.);
#303=ORIENTED_EDGE('',*,*,#461,.T.);
#304=ORIENTED_EDGE('',*,*,#458,.T.);
#305=ORIENTED_EDGE('',*,*,#455,.F.);
#306=ORIENTED_EDGE('',*,*,#452,.T.);
#307=ORIENTED_EDGE('',*,*,#449,.T.);
#308=ORIENTED_EDGE('',*,*,#446,.T.);
#309=ORIENTED_EDGE('',*,*,#443,.F.);
#310=ORIENTED_EDGE('',*,*,#440,.T.);
#311=ORIENTED_EDGE('',*,*,#437,.T.);
#312=ORIENTED_EDGE('',*,*,#434,.T.);
#313=ORIENTED_EDGE('',*,*,#431,.F.);
#314=ORIENTED_EDGE('',*,*,#428,.T.);
#315=ORIENTED_EDGE('',*,*,#425,.T.);
#316=ORIENTED_EDGE('',*,*,#422,.T.);
#317=ORIENTED_EDGE('',*,*,#419,.F.);
#318=ORIENTED_EDGE('',*,*,#416,.T.);
#319=ORIENTED_EDGE('',*,*,#413,.T.);
#320=ORIENTED_EDGE('',*,*,#410,.T.);
#321=ORIENTED_EDGE('',*,*,#407,.F.);
#322=ORIENTED_EDGE('',*,*,#404,.T.);
#323=ORIENTED_EDGE('',*,*,#401,.T.);
#324=ORIENTED_EDGE('',*,*,#398,.T.);
#325=ORIENTED_EDGE('',*,*,#395,.F.);
#326=ORIENTED_EDGE('',*,*,#392,.T.);
#327=ORIENTED_EDGE('',*,*,#389,.T.);
#328=ORIENTED_EDGE('',*,*,#386,.T.);
#329=ORIENTED_EDGE('',*,*,#383,.F.);
#330=ORIENTED_EDGE('',*,*,#380,.T.);
#331=ORIENTED_EDGE('',*,*,#377,.T.);
#332=ORIENTED_EDGE('',*,*,#374,.T.);
#333=ORIENTED_EDGE('',*,*,#371,.F.);
#334=ORIENTED_EDGE('',*,*,#368,.T.);
#335=ORIENTED_EDGE('',*,*,#365,.T.);
#336=ORIENTED_EDGE('',*,*,#362,.T.);
#337=ORIENTED_EDGE('',*,*,#359,.F.);
#338=ORIENTED_EDGE('',*,*,#356,.T.);
#339=ORIENTED_EDGE('',*,*,#353,.T.);
#340=ORIENTED_EDGE('',*,*,#350,.T.);
#341=ORIENTED_EDGE('',*,*,#347,.F.);
#342=ORIENTED_EDGE('',*,*,#488,.T.);
#343=EDGE_CURVE('',#489,#490,#587,.T.);
#344=EDGE_CURVE('',#491,#489,#588,.T.);
#345=EDGE_CURVE('',#491,#492,#589,.T.);
#346=EDGE_CURVE('',#492,#490,#590,.T.);
#347=EDGE_CURVE('',#489,#493,#12,.T.);
#348=EDGE_CURVE('',#494,#493,#591,.T.);
#349=EDGE_CURVE('',#491,#494,#13,.T.);
#350=EDGE_CURVE('',#495,#493,#592,.T.);
#351=EDGE_CURVE('',#496,#495,#593,.T.);
#352=EDGE_CURVE('',#496,#494,#594,.T.);
#353=EDGE_CURVE('',#497,#495,#595,.T.);
#354=EDGE_CURVE('',#498,#497,#596,.T.);
#355=EDGE_CURVE('',#498,#496,#597,.T.);
#356=EDGE_CURVE('',#499,#497,#598,.T.);
#357=EDGE_CURVE('',#500,#499,#599,.T.);
#358=EDGE_CURVE('',#500,#498,#600,.T.);
#359=EDGE_CURVE('',#499,#501,#14,.T.);
#360=EDGE_CURVE('',#502,#501,#601,.T.);
#361=EDGE_CURVE('',#500,#502,#15,.T.);
#362=EDGE_CURVE('',#503,#501,#602,.T.);
#363=EDGE_CURVE('',#504,#503,#603,.T.);
#364=EDGE_CURVE('',#504,#502,#604,.T.);
#365=EDGE_CURVE('',#505,#503,#605,.T.);
#366=EDGE_CURVE('',#506,#505,#606,.T.);
#367=EDGE_CURVE('',#506,#504,#607,.T.);
#368=EDGE_CURVE('',#507,#505,#608,.T.);
#369=EDGE_CURVE('',#508,#507,#609,.T.);
#370=EDGE_CURVE('',#508,#506,#610,.T.);
#371=EDGE_CURVE('',#507,#509,#16,.T.);
#372=EDGE_CURVE('',#510,#509,#611,.T.);
#373=EDGE_CURVE('',#508,#510,#17,.T.);
#374=EDGE_CURVE('',#511,#509,#612,.T.);
#375=EDGE_CURVE('',#512,#511,#613,.T.);
#376=EDGE_CURVE('',#512,#510,#614,.T.);
#377=EDGE_CURVE('',#513,#511,#615,.T.);
#378=EDGE_CURVE('',#514,#513,#616,.T.);
#379=EDGE_CURVE('',#514,#512,#617,.T.);
#380=EDGE_CURVE('',#515,#513,#618,.T.);
#381=EDGE_CURVE('',#516,#515,#619,.T.);
#382=EDGE_CURVE('',#516,#514,#620,.T.);
#383=EDGE_CURVE('',#515,#517,#18,.T.);
#384=EDGE_CURVE('',#518,#517,#621,.T.);
#385=EDGE_CURVE('',#516,#518,#19,.T.);
#386=EDGE_CURVE('',#519,#517,#622,.T.);
#387=EDGE_CURVE('',#520,#519,#623,.T.);
#388=EDGE_CURVE('',#520,#518,#624,.T.);
#389=EDGE_CURVE('',#521,#519,#625,.T.);
#390=EDGE_CURVE('',#522,#521,#626,.T.);
#391=EDGE_CURVE('',#522,#520,#627,.T.);
#392=EDGE_CURVE('',#523,#521,#628,.T.);
#393=EDGE_CURVE('',#524,#523,#629,.T.);
#394=EDGE_CURVE('',#524,#522,#630,.T.);
#395=EDGE_CURVE('',#523,#525,#20,.T.);
#396=EDGE_CURVE('',#526,#525,#631,.T.);
#397=EDGE_CURVE('',#524,#526,#21,.T.);
#398=EDGE_CURVE('',#527,#525,#632,.T.);
#399=EDGE_CURVE('',#528,#527,#633,.T.);
#400=EDGE_CURVE('',#528,#526,#634,.T.);
#401=EDGE_CURVE('',#529,#527,#635,.T.);
#402=EDGE_CURVE('',#530,#529,#636,.T.);
#403=EDGE_CURVE('',#530,#528,#637,.T.);
#404=EDGE_CURVE('',#531,#529,#638,.T.);
#405=EDGE_CURVE('',#532,#531,#639,.T.);
#406=EDGE_CURVE('',#532,#530,#640,.T.);
#407=EDGE_CURVE('',#531,#533,#22,.T.);
#408=EDGE_CURVE('',#534,#533,#641,.T.);
#409=EDGE_CURVE('',#532,#534,#23,.T.);
#410=EDGE_CURVE('',#535,#533,#642,.T.);
#411=EDGE_CURVE('',#536,#535,#643,.T.);
#412=EDGE_CURVE('',#536,#534,#644,.T.);
#413=EDGE_CURVE('',#537,#535,#645,.T.);
#414=EDGE_CURVE('',#538,#537,#646,.T.);
#415=EDGE_CURVE('',#538,#536,#647,.T.);
#416=EDGE_CURVE('',#539,#537,#648,.T.);
#417=EDGE_CURVE('',#540,#539,#649,.T.);
#418=EDGE_CURVE('',#540,#538,#650,.T.);
#419=EDGE_CURVE('',#539,#541,#24,.T.);
#420=EDGE_CURVE('',#542,#541,#651,.T.);
#421=EDGE_CURVE('',#540,#542,#25,.T.);
#422=EDGE_CURVE('',#543,#541,#652,.T.);
#423=EDGE_CURVE('',#544,#543,#653,.T.);
#424=EDGE_CURVE('',#544,#542,#654,.T.);
#425=EDGE_CURVE('',#545,#543,#655,.T.);
#426=EDGE_CURVE('',#546,#545,#656,.T.);
#427=EDGE_CURVE('',#546,#544,#657,.T.);
#428=EDGE_CURVE('',#547,#545,#658,.T.);
#429=EDGE_CURVE('',#548,#547,#659,.T.);
#430=EDGE_CURVE('',#548,#546,#660,.T.);
#431=EDGE_CURVE('',#547,#549,#26,.T.);
#432=EDGE_CURVE('',#550,#549,#661,.T.);
#433=EDGE_CURVE('',#548,#550,#27,.T.);
#434=EDGE_CURVE('',#551,#549,#662,.T.);
#435=EDGE_CURVE('',#552,#551,#663,.T.);
#436=EDGE_CURVE('',#552,#550,#664,.T.);
#437=EDGE_CURVE('',#553,#551,#665,.T.);
#438=EDGE_CURVE('',#554,#553,#666,.T.);
#439=EDGE_CURVE('',#554,#552,#667,.T.);
#440=EDGE_CURVE('',#555,#553,#668,.T.);
#441=EDGE_CURVE('',#556,#555,#669,.T.);
#442=EDGE_CURVE('',#556,#554,#670,.T.);
#443=EDGE_CURVE('',#555,#557,#28,.T.);
#444=EDGE_CURVE('',#558,#557,#671,.T.);
#445=EDGE_CURVE('',#556,#558,#29,.T.);
#446=EDGE_CURVE('',#559,#557,#672,.T.);
#447=EDGE_CURVE('',#560,#559,#673,.T.);
#448=EDGE_CURVE('',#560,#558,#674,.T.);
#449=EDGE_CURVE('',#561,#559,#675,.T.);
#450=EDGE_CURVE('',#562,#561,#676,.T.);
#451=EDGE_CURVE('',#562,#560,#677,.T.);
#452=EDGE_CURVE('',#563,#561,#678,.T.);
#453=EDGE_CURVE('',#564,#563,#679,.T.);
#454=EDGE_CURVE('',#564,#562,#680,.T.);
#455=EDGE_CURVE('',#563,#565,#30,.T.);
#456=EDGE_CURVE('',#566,#565,#681,.T.);
#457=EDGE_CURVE('',#564,#566,#31,.T.);
#458=EDGE_CURVE('',#567,#565,#682,.T.);
#459=EDGE_CURVE('',#568,#567,#683,.T.);
#460=EDGE_CURVE('',#568,#566,#684,.T.);
#461=EDGE_CURVE('',#569,#567,#685,.T.);
#462=EDGE_CURVE('',#570,#569,#686,.T.);
#463=EDGE_CURVE('',#570,#568,#687,.T.);
#464=EDGE_CURVE('',#571,#569,#688,.T.);
#465=EDGE_CURVE('',#572,#571,#689,.T.);
#466=EDGE_CURVE('',#572,#570,#690,.T.);
#467=EDGE_CURVE('',#571,#573,#32,.T.);
#468=EDGE_CURVE('',#574,#573,#691,.T.);
#469=EDGE_CURVE('',#572,#574,#33,.T.);
#470=EDGE_CURVE('',#575,#573,#692,.T.);
#471=EDGE_CURVE('',#576,#575,#693,.T.);
#472=EDGE_CURVE('',#576,#574,#694,.T.);
#473=EDGE_CURVE('',#577,#575,#695,.T.);
#474=EDGE_CURVE('',#578,#577,#696,.T.);
#475=EDGE_CURVE('',#578,#576,#697,.T.);
#476=EDGE_CURVE('',#579,#577,#698,.T.);
#477=EDGE_CURVE('',#580,#579,#699,.T.);
#478=EDGE_CURVE('',#580,#578,#700,.T.);
#479=EDGE_CURVE('',#579,#581,#34,.T.);
#480=EDGE_CURVE('',#582,#581,#701,.T.);
#481=EDGE_CURVE('',#580,#582,#35,.T.);
#482=EDGE_CURVE('',#583,#581,#702,.T.);
#483=EDGE_CURVE('',#584,#583,#703,.T.);
#484=EDGE_CURVE('',#584,#582,#704,.T.);
#485=EDGE_CURVE('',#490,#583,#705,.T.);
#486=EDGE_CURVE('',#492,#584,#706,.T.);
#487=EDGE_CURVE('',#585,#585,#36,.T.);
#488=EDGE_CURVE('',#586,#586,#37,.T.);
#489=VERTEX_POINT('',#1393);
#490=VERTEX_POINT('',#1394);
#491=VERTEX_POINT('',#1396);
#492=VERTEX_POINT('',#1398);
#493=VERTEX_POINT('',#1402);
#494=VERTEX_POINT('',#1404);
#495=VERTEX_POINT('',#1408);
#496=VERTEX_POINT('',#1410);
#497=VERTEX_POINT('',#1414);
#498=VERTEX_POINT('',#1416);
#499=VERTEX_POINT('',#1420);
#500=VERTEX_POINT('',#1422);
#501=VERTEX_POINT('',#1426);
#502=VERTEX_POINT('',#1428);
#503=VERTEX_POINT('',#1432);
#504=VERTEX_POINT('',#1434);
#505=VERTEX_POINT('',#1438);
#506=VERTEX_POINT('',#1440);
#507=VERTEX_POINT('',#1444);
#508=VERTEX_POINT('',#1446);
#509=VERTEX_POINT('',#1450);
#510=VERTEX_POINT('',#1452);
#511=VERTEX_POINT('',#1456);
#512=VERTEX_POINT('',#1458);
#513=VERTEX_POINT('',#1462);
#514=VERTEX_POINT('',#1464);
#515=VERTEX_POINT('',#1468);
#516=VERTEX_POINT('',#1470);
#517=VERTEX_POINT('',#1474);
#518=VERTEX_POINT('',#1476);
#519=VERTEX_POINT('',#1480);
#520=VERTEX_POINT('',#1482);
#521=VERTEX_POINT('',#1486);
#522=VERTEX_POINT('',#1488);
#523=VERTEX_POINT('',#1492);
#524=VERTEX_POINT('',#1494);
#525=VERTEX_POINT('',#1498);
#526=VERTEX_POINT('',#1500);
#527=VERTEX_POINT('',#1504);
#528=VERTEX_POINT('',#1506);
#529=VERTEX_POINT('',#1510);
#530=VERTEX_POINT('',#1512);
#531=VERTEX_POINT('',#1516);
#532=VERTEX_POINT('',#1518);
#533=VERTEX_POINT('',#1522);
#534=VERTEX_POINT('',#1524);
#535=VERTEX_POINT('',#1528);
#536=VERTEX_POINT('',#1530);
#537=VERTEX_POINT('',#1534);
#538=VERTEX_POINT('',#1536);
#539=VERTEX_POINT('',#1540);
#540=VERTEX_POINT('',#1542);
#541=VERTEX_POINT('',#1546);
#542=VERTEX_POINT('',#1548);
#543=VERTEX_POINT('',#1552);
#544=VERTEX_POINT('',#1554);
#545=VERTEX_POINT('',#1558);
#546=VERTEX_POINT('',#1560);
#547=VERTEX_POINT('',#1564);
#548=VERTEX_POINT('',#1566);
#549=VERTEX_POINT('',#1570);
#550=VERTEX_POINT('',#1572);
#551=VERTEX_POINT('',#1576);
#552=VERTEX_POINT('',#1578);
#553=VERTEX_POINT('',#1582);
#554=VERTEX_POINT('',#1584);
#555=VERTEX_POINT('',#1588);
#556=VERTEX_POINT('',#1590);
#557=VERTEX_POINT('',#1594);
#558=VERTEX_POINT('',#1596);
#559=VERTEX_POINT('',#1600);
#560=VERTEX_POINT('',#1602);
#561=VERTEX_POINT('',#1606);
#562=VERTEX_POINT('',#1608);
#563=VERTEX_POINT('',#1612);
#564=VERTEX_POINT('',#1614);
#565=VERTEX_POINT('',#1618);
#566=VERTEX_POINT('',#1620);
#567=VERTEX_POINT('',#1624);
#568=VERTEX_POINT('',#1626);
#569=VERTEX_POINT('',#1630);
#570=VERTEX_POINT('',#1632);
#571=VERTEX_POINT('',#1636);
#572=VERTEX_POINT('',#1638);
#573=VERTEX_POINT('',#1642);
#574=VERTEX_POINT('',#1644);
#575=VERTEX_POINT('',#1648);
#576=VERTEX_POINT('',#1650);
#577=VERTEX_POINT('',#1654);
#578=VERTEX_POINT('',#1656);
#579=VERTEX_POINT('',#1660);
#580=VERTEX_POINT('',#1662);
#581=VERTEX_POINT('',#1666);
#582=VERTEX_POINT('',#1668);
#583=VERTEX_POINT('',#1672);
#584=VERTEX_POINT('',#1674);
#585=VERTEX_POINT('',#1681);
#586=VERTEX_POINT('',#1683);
#587=LINE('',#1392,#707);
#588=LINE('',#1395,#708);
#589=LINE('',#1397,#709);
#590=LINE('',#1399,#710);
#591=LINE('',#1403,#711);
#592=LINE('',#1407,#712);
#593=LINE('',#1409,#713);
#594=LINE('',#1411,#714);
#595=LINE('',#1413,#715);
#596=LINE('',#1415,#716);
#597=LINE('',#1417,#717);
#598=LINE('',#1419,#718);
#599=LINE('',#1421,#719);
#600=LINE('',#1423,#720);
#601=LINE('',#1427,#721);
#602=LINE('',#1431,#722);
#603=LINE('',#1433,#723);
#604=LINE('',#1435,#724);
#605=LINE('',#1437,#725);
#606=LINE('',#1439,#726);
#607=LINE('',#1441,#727);
#608=LINE('',#1443,#728);
#609=LINE('',#1445,#729);
#610=LINE('',#1447,#730);
#611=LINE('',#1451,#731);
#612=LINE('',#1455,#732);
#613=LINE('',#1457,#733);
#614=LINE('',#1459,#734);
#615=LINE('',#1461,#735);
#616=LINE('',#1463,#736);
#617=LINE('',#1465,#737);
#618=LINE('',#1467,#738);
#619=LINE('',#1469,#739);
#620=LINE('',#1471,#740);
#621=LINE('',#1475,#741);
#622=LINE('',#1479,#742);
#623=LINE('',#1481,#743);
#624=LINE('',#1483,#744);
#625=LINE('',#1485,#745);
#626=LINE('',#1487,#746);
#627=LINE('',#1489,#747);
#628=LINE('',#1491,#748);
#629=LINE('',#1493,#749);
#630=LINE('',#1495,#750);
#631=LINE('',#1499,#751);
#632=LINE('',#1503,#752);
#633=LINE('',#1505,#753);
#634=LINE('',#1507,#754);
#635=LINE('',#1509,#755);
#636=LINE('',#1511,#756);
#637=LINE('',#1513,#757);
#638=LINE('',#1515,#758);
#639=LINE('',#1517,#759);
#640=LINE('',#1519,#760);
#641=LINE('',#1523,#761);
#642=LINE('',#1527,#762);
#643=LINE('',#1529,#763);
#644=LINE('',#1531,#764);
#645=LINE('',#1533,#765);
#646=LINE('',#1535,#766);
#647=LINE('',#1537,#767);
#648=LINE('',#1539,#768);
#649=LINE('',#1541,#769);
#650=LINE('',#1543,#770);
#651=LINE('',#1547,#771);
#652=LINE('',#1551,#772);
#653=LINE('',#1553,#773);
#654=LINE('',#1555,#774);
#655=LINE('',#1557,#775);
#656=LINE('',#1559,#776);
#657=LINE('',#1561,#777);
#658=LINE('',#1563,#778);
#659=LINE('',#1565,#779);
#660=LINE('',#1567,#780);
#661=LINE('',#1571,#781);
#662=LINE('',#1575,#782);
#663=LINE('',#1577,#783);
#664=LINE('',#1579,#784);
#665=LINE('',#1581,#785);
#666=LINE('',#1583,#786);
#667=LINE('',#1585,#787);
#668=LINE('',#1587,#788);
#669=LINE('',#1589,#789);
#670=LINE('',#1591,#790);
#671=LINE('',#1595,#791);
#672=LINE('',#1599,#792);
#673=LINE('',#1601,#793);
#674=LINE('',#1603,#794);
#675=LINE('',#1605,#795);
#676=LINE('',#1607,#796);
#677=LINE('',#1609,#797);
#678=LINE('',#1611,#798);
#679=LINE('',#1613,#799);
#680=LINE('',#1615,#800);
#681=LINE('',#1619,#801);
#682=LINE('',#1623,#802);
#683=LINE('',#1625,#803);
#684=LINE('',#1627,#804);
#685=LINE('',#1629,#805);
#686=LINE('',#1631,#806);
#687=LINE('',#1633,#807);
#688=LINE('',#1635,#808);
#689=LINE('',#1637,#809);
#690=LINE('',#1639,#810);
#691=LINE('',#1643,#811);
#692=LINE('',#1647,#812);
#693=LINE('',#1649,#813);
#694=LINE('',#1651,#814);
#695=LINE('',#1653,#815);
#696=LINE('',#1655,#816);
#697=LINE('',#1657,#817);
#698=LINE('',#1659,#818);
#699=LINE('',#1661,#819);
#700=LINE('',#1663,#820);
#701=LINE('',#1667,#821);
#702=LINE('',#1671,#822);
#703=LINE('',#1673,#823);
#704=LINE('',#1675,#824);
#705=LINE('',#1677,#825);
#706=LINE('',#1678,#826);
#707=VECTOR('',#1118,1.);
#708=VECTOR('',#1119,1.);
#709=VECTOR('',#1120,1.);
#710=VECTOR('',#1121,1.);
#711=VECTOR('',#1126,1.);
#712=VECTOR('',#1131,1.);
#713=VECTOR('',#1132,1.);
#714=VECTOR('',#1133,1.);
#715=VECTOR('',#1136,1.);
#716=VECTOR('',#1137,1.);
#717=VECTOR('',#1138,1.);
#718=VECTOR('',#1141,1.);
#719=VECTOR('',#1142,1.);
#720=VECTOR('',#1143,1.);
#721=VECTOR('',#1148,1.);
#722=VECTOR('',#1153,1.);
#723=VECTOR('',#1154,1.);
#724=VECTOR('',#1155,1.);
#725=VECTOR('',#1158,1.);
#726=VECTOR('',#1159,1.);
#727=VECTOR('',#1160,1.);
#728=VECTOR('',#1163,1.);
#729=VECTOR('',#1164,1.);
#730=VECTOR('',#1165,1.);
#731=VECTOR('',#1170,1.);
#732=VECTOR('',#1175,1.);
#733=VECTOR('',#1176,1.);
#734=VECTOR('',#1177,1.);
#735=VECTOR('',#1180,1.);
#736=VECTOR('',#1181,1.);
#737=VECTOR('',#1182,1.);
#738=VECTOR('',#1185,1.);
#739=VECTOR('',#1186,1.);
#740=VECTOR('',#1187,1.);
#741=VECTOR('',#1192,1.);
#742=VECTOR('',#1197,1.);
#743=VECTOR('',#1198,1.);
#744=VECTOR('',#1199,1.);
#745=VECTOR('',#1202,1.);
#746=VECTOR('',#1203,1.);
#747=VECTOR('',#1204,1.);
#748=VECTOR('',#1207,1.);
#749=VECTOR('',#1208,1.);
#750=VECTOR('',#1209,1.);
#751=VECTOR('',#1214,1.);
#752=VECTOR('',#1219,1.);
#753=VECTOR('',#1220,1.);
#754=VECTOR('',#1221,1.);
#755=VECTOR('',#1224,1.);
#756=VECTOR('',#1225,1.);
#757=VECTOR('',#1226,1.);
#758=VECTOR('',#1229,1.);
#759=VECTOR('',#1230,1.);
#760=VECTOR('',#1231,1.);
#761=VECTOR('',#1236,1.);
#762=VECTOR('',#1241,1.);
#763=VECTOR('',#1242,1.);
#764=VECTOR('',#1243,1.);
#765=VECTOR('',#1246,1.);
#766=VECTOR('',#1247,1.);
#767=VECTOR('',#1248,1.);
#768=VECTOR('',#1251,1.);
#769=VECTOR('',#1252,1.);
#770=VECTOR('',#1253,1.);
#771=VECTOR('',#1258,1.);
#772=VECTOR('',#1263,1.);
#773=VECTOR('',#1264,1.);
#774=VECTOR('',#1265,1.);
#775=VECTOR('',#1268,1.);
#776=VECTOR('',#1269,1.);
#777=VECTOR('',#1270,1.);
#778=VECTOR('',#1273,1.);
#779=VECTOR('',#1274,1.);
#780=VECTOR('',#1275,1.);
#781=VECTOR('',#1280,1.);
#782=VECTOR('',#1285,1.);
#783=VECTOR('',#1286,1.);
#784=VECTOR('',#1287,1.);
#785=VECTOR('',#1290,1.);
#786=VECTOR('',#1291,1.);
#787=VECTOR('',#1292,1.);
#788=VECTOR('',#1295,1.);
#789=VECTOR('',#1296,1.);
#790=VECTOR('',#1297,1.);
#791=VECTOR('',#1302,1.);
#792=VECTOR('',#1307,1.);
#793=VECTOR('',#1308,1.);
#794=VECTOR('',#1309,1.);
#795=VECTOR('',#1312,1.);
#796=VECTOR('',#1313,1.);
#797=VECTOR('',#1314,1.);
#798=VECTOR('',#1317,1.);
#799=VECTOR('',#1318,1.);
#800=VECTOR('',#1319,1.);
#801=VECTOR('',#1324,1.);
#802=VECTOR('',#1329,1.);
#803=VECTOR('',#1330,1.);
#804=VECTOR('',#1331,1.);
#805=VECTOR('',#1334,1.);
#806=VECTOR('',#1335,1.);
#807=VECTOR('',#1336,1.);
#808=VECTOR('',#1339,1.);
#809=VECTOR('',#1340,1.);
#810=VECTOR('',#1341,1.);
#811=VECTOR('',#1346,1.);
#812=VECTOR('',#1351,1.);
#813=VECTOR('',#1352,1.);
#814=VECTOR('',#1353,1.);
#815=VECTOR('',#1356,1.);
#816=VECTOR('',#1357,1.);
#817=VECTOR('',#1358,1.);
#818=VECTOR('',#1361,1.);
#819=VECTOR('',#1362,1.);
#820=VECTOR('',#1363,1.);
#821=VECTOR('',#1368,1.);
#822=VECTOR('',#1373,1.);
#823=VECTOR('',#1374,1.);
#824=VECTOR('',#1375,1.);
#825=VECTOR('',#1378,1.);
#826=VECTOR('',#1379,1.);
#827=EDGE_LOOP('',(#51,#52,#53,#54));
#828=EDGE_LOOP('',(#55,#56,#57,#58));
#829=EDGE_LOOP('',(#59,#60,#61,#62));
#830=EDGE_LOOP('',(#63,#64,#65,#66));
#831=EDGE_LOOP('',(#67,#68,#69,#70));
#832=EDGE_LOOP('',(#71,#72,#73,#74));
#833=EDGE_LOOP('',(#75,#76,#77,#78));
#834=EDGE_LOOP('',(#79,#80,#81,#82));
#835=EDGE_LOOP('',(#83,#84,#85,#86));
#836=EDGE_LOOP('',(#87,#88,#89,#90));
#837=EDGE_LOOP('',(#91,#92,#93,#94));
#838=EDGE_LOOP('',(#95,#96,#97,#98));
#839=EDGE_LOOP('',(#99,#100,#101,#102));
#840=EDGE_LOOP('',(#103,#104,#105,#106));
#841=EDGE_LOOP('',(#107,#108,#109,#110));
#842=EDGE_LOOP('',(#111,#112,#113,#114));
#843=EDGE_LOOP('',(#115,#116,#117,#118));
#844=EDGE_LOOP('',(#119,#120,#121,#122));
#845=EDGE_LOOP('',(#123,#124,#125,#126));
#846=EDGE_LOOP('',(#127,#128,#129,#130));
#847=EDGE_LOOP('',(#131,#132,#133,#134));
#848=EDGE_LOOP('',(#135,#136,#137,#138));
#849=EDGE_LOOP('',(#139,#140,#141,#142));
#850=EDGE_LOOP('',(#143,#144,#145,#146));
#851=EDGE_LOOP('',(#147,#148,#149,#150));
#852=EDGE_LOOP('',(#151,#152,#153,#154));
#853=EDGE_LOOP('',(#155,#156,#157,#158));
#854=EDGE_LOOP('',(#159,#160,#161,#162));
#855=EDGE_LOOP('',(#163,#164,#165,#166));
#856=EDGE_LOOP('',(#167,#168,#169,#170));
#857=EDGE_LOOP('',(#171,#172,#173,#174));
#858=EDGE_LOOP('',(#175,#176,#177,#178));
#859=EDGE_LOOP('',(#179,#180,#181,#182));
#860=EDGE_LOOP('',(#183,#184,#185,#186));
#861=EDGE_LOOP('',(#187,#188,#189,#190));
#862=EDGE_LOOP('',(#191,#192,#193,#194));
#863=EDGE_LOOP('',(#195,#196,#197,#198));
#864=EDGE_LOOP('',(#199,#200,#201,#202));
#865=EDGE_LOOP('',(#203,#204,#205,#206));
#866=EDGE_LOOP('',(#207,#208,#209,#210));
#867=EDGE_LOOP('',(#211,#212,#213,#214));
#868=EDGE_LOOP('',(#215,#216,#217,#218));
#869=EDGE_LOOP('',(#219,#220,#221,#222));
#870=EDGE_LOOP('',(#223,#224,#225,#226));
#871=EDGE_LOOP('',(#227,#228,#229,#230));
#872=EDGE_LOOP('',(#231,#232,#233,#234));
#873=EDGE_LOOP('',(#235,#236,#237,#238));
#874=EDGE_LOOP('',(#239,#240,#241,#242));
#875=EDGE_LOOP('',(#243));
#876=EDGE_LOOP('',(#244));
#877=EDGE_LOOP('',(#245,#246,#247,#248,#249,#250,#251,#252,#253,#254,#255,
#256,#257,#258,#259,#260,#261,#262,#263,#264,#265,#266,#267,#268,#269,#270,
#271,#272,#273,#274,#275,#276,#277,#278,#279,#280,#281,#282,#283,#284,#285,
#286,#287,#288,#289,#290,#291,#292));
#878=EDGE_LOOP('',(#293));
#879=EDGE_LOOP('',(#294,#295,#296,#297,#298,#299,#300,#301,#302,#303,#304,
#305,#306,#307,#308,#309,#310,#311,#312,#313,#314,#315,#316,#317,#318,#319,
#320,#321,#322,#323,#324,#325,#326,#327,#328,#329,#330,#331,#332,#333,#334,
#335,#336,#337,#338,#339,#340,#341));
#880=EDGE_LOOP('',(#342));
#881=FACE_BOUND('',#827,.T.);
#882=FACE_BOUND('',#828,.T.);
#883=FACE_BOUND('',#829,.T.);
#884=FACE_BOUND('',#830,.T.);
#885=FACE_BOUND('',#831,.T.);
#886=FACE_BOUND('',#832,.T.);
#887=FACE_BOUND('',#833,.T.);
#888=FACE_BOUND('',#834,.T.);
#889=FACE_BOUND('',#835,.T.);
#890=FACE_BOUND('',#836,.T.);
#891=FACE_BOUND('',#837,.T.);
#892=FACE_BOUND('',#838,.T.);
#893=FACE_BOUND('',#839,.T.);
#894=FACE_BOUND('',#840,.T.);
#895=FACE_BOUND('',#841,.T.);
#896=FACE_BOUND('',#842,.T.);
#897=FACE_BOUND('',#843,.T.);
#898=FACE_BOUND('',#844,.T.);
#899=FACE_BOUND('',#845,.T.);
#900=FACE_BOUND('',#846,.T.);
#901=FACE_BOUND('',#847,.T.);
#902=FACE_BOUND('',#848,.T.);
#903=FACE_BOUND('',#849,.T.);
#904=FACE_BOUND('',#850,.T.);
#905=FACE_BOUND('',#851,.T.);
#906=FACE_BOUND('',#852,.T.);
#907=FACE_BOUND('',#853,.T.);
#908=FACE_BOUND('',#854,.T.);
#909=FACE_BOUND('',#855,.T.);
#910=FACE_BOUND('',#856,.T.);
#911=FACE_BOUND('',#857,.T.);
#912=FACE_BOUND('',#858,.T.);
#913=FACE_BOUND('',#859,.T.);
#914=FACE_BOUND('',#860,.T.);
#915=FACE_BOUND('',#861,.T.);
#916=FACE_BOUND('',#862,.T.);
#917=FACE_BOUND('',#863,.T.);
#918=FACE_BOUND('',#864,.T.);
#919=FACE_BOUND('',#865,.T.);
#920=FACE_BOUND('',#866,.T.);
#921=FACE_BOUND('',#867,.T.);
#922=FACE_BOUND('',#868,.T.);
#923=FACE_BOUND('',#869,.T.);
#924=FACE_BOUND('',#870,.T.);
#925=FACE_BOUND('',#871,.T.);
#926=FACE_BOUND('',#872,.T.);
#927=FACE_BOUND('',#873,.T.);
#928=FACE_BOUND('',#874,.T.);
#929=FACE_BOUND('',#875,.T.);
#930=FACE_BOUND('',#876,.T.);
#931=FACE_BOUND('',#877,.T.);
#932=FACE_BOUND('',#878,.T.);
#933=FACE_BOUND('',#879,.T.);
#934=FACE_BOUND('',#880,.T.);
#935=PLANE('',#1037);
#936=PLANE('',#1041);
#937=PLANE('',#1042);
#938=PLANE('',#1043);
#939=PLANE('',#1047);
#940=PLANE('',#1048);
#941=PLANE('',#1049);
#942=PLANE('',#1053);
#943=PLANE('',#1054);
#944=PLANE('',#1055);
#945=PLANE('',#1059);
#946=PLANE('',#1060);
#947=PLANE('',#1061);
#948=PLANE('',#1065);
#949=PLANE('',#1066);
#950=PLANE('',#1067);
#951=PLANE('',#1071);
#952=PLANE('',#1072);
#953=PLANE('',#1073);
#954=PLANE('',#1077);
#955=PLANE('',#1078);
#956=PLANE('',#1079);
#957=PLANE('',#1083);
#958=PLANE('',#1084);
#959=PLANE('',#1085);
#960=PLANE('',#1089);
#961=PLANE('',#1090);
#962=PLANE('',#1091);
#963=PLANE('',#1095);
#964=PLANE('',#1096);
#965=PLANE('',#1097);
#966=PLANE('',#1101);
#967=PLANE('',#1102);
#968=PLANE('',#1103);
#969=PLANE('',#1107);
#970=PLANE('',#1108);
#971=PLANE('',#1112);
#972=PLANE('',#1113);
#973=ADVANCED_FACE('',(#881),#935,.T.);
#974=ADVANCED_FACE('',(#882),#38,.T.);
#975=ADVANCED_FACE('',(#883),#936,.T.);
#976=ADVANCED_FACE('',(#884),#937,.T.);
#977=ADVANCED_FACE('',(#885),#938,.T.);
#978=ADVANCED_FACE('',(#886),#39,.T.);
#979=ADVANCED_FACE('',(#887),#939,.T.);
#980=ADVANCED_FACE('',(#888),#940,.T.);
#981=ADVANCED_FACE('',(#889),#941,.T.);
#982=ADVANCED_FACE('',(#890),#40,.T.);
#983=ADVANCED_FACE('',(#891),#942,.T.);
#984=ADVANCED_FACE('',(#892),#943,.T.);
#985=ADVANCED_FACE('',(#893),#944,.T.);
#986=ADVANCED_FACE('',(#894),#41,.T.);
#987=ADVANCED_FACE('',(#895),#945,.T.);
#988=ADVANCED_FACE('',(#896),#946,.T.);
#989=ADVANCED_FACE('',(#897),#947,.T.);
#990=ADVANCED_FACE('',(#898),#42,.T.);
#991=ADVANCED_FACE('',(#899),#948,.T.);
#992=ADVANCED_FACE('',(#900),#949,.T.);
#993=ADVANCED_FACE('',(#901),#950,.T.);
#994=ADVANCED_FACE('',(#902),#43,.T.);
#995=ADVANCED_FACE('',(#903),#951,.T.);
#996=ADVANCED_FACE('',(#904),#952,.T.);
#997=ADVANCED_FACE('',(#905),#953,.T.);
#998=ADVANCED_FACE('',(#906),#44,.T.);
#999=ADVANCED_FACE('',(#907),#954,.T.);
#1000=ADVANCED_FACE('',(#908),#955,.T.);
#1001=ADVANCED_FACE('',(#909),#956,.T.);
#1002=ADVANCED_FACE('',(#910),#45,.T.);
#1003=ADVANCED_FACE('',(#911),#957,.T.);
#1004=ADVANCED_FACE('',(#912),#958,.T.);
#1005=ADVANCED_FACE('',(#913),#959,.T.);
#1006=ADVANCED_FACE('',(#914),#46,.T.);
#1007=ADVANCED_FACE('',(#915),#960,.T.);
#1008=ADVANCED_FACE('',(#916),#961,.T.);
#1009=ADVANCED_FACE('',(#917),#962,.T.);
#1010=ADVANCED_FACE('',(#918),#47,.T.);
#1011=ADVANCED_FACE('',(#919),#963,.T.);
#1012=ADVANCED_FACE('',(#920),#964,.T.);
#1013=ADVANCED_FACE('',(#921),#965,.T.);
#1014=ADVANCED_FACE('',(#922),#48,.T.);
#1015=ADVANCED_FACE('',(#923),#966,.T.);
#1016=ADVANCED_FACE('',(#924),#967,.T.);
#1017=ADVANCED_FACE('',(#925),#968,.T.);
#1018=ADVANCED_FACE('',(#926),#49,.T.);
#1019=ADVANCED_FACE('',(#927),#969,.T.);
#1020=ADVANCED_FACE('',(#928),#970,.T.);
#1021=ADVANCED_FACE('',(#929,#930),#50,.F.);
#1022=ADVANCED_FACE('',(#931,#932),#971,.T.);
#1023=ADVANCED_FACE('',(#933,#934),#972,.F.);
#1024=CLOSED_SHELL('',(#973,#974,#975,#976,#977,#978,#979,#980,#981,#982,
#983,#984,#985,#986,#987,#988,#989,#990,#991,#992,#993,#994,#995,#996,#997,
#998,#999,#1000,#1001,#1002,#1003,#1004,#1005,#1006,#1007,#1008,#1009,#1010,
#1011,#1012,#1013,#1014,#1015,#1016,#1017,#1018,#1019,#1020,#1021,#1022,
#1023));
#1025=STYLED_ITEM('',(#1026),#1033);
#1026=PRESENTATION_STYLE_ASSIGNMENT((#1027));
#1027=SURFACE_STYLE_USAGE(.BOTH.,#1028);
#1028=SURFACE_SIDE_STYLE('',(#1029));
#1029=SURFACE_STYLE_FILL_AREA(#1030);
#1030=FILL_AREA_STYLE('',(#1031));
#1031=FILL_AREA_STYLE_COLOUR('',#1032);
#1032=COLOUR_RGB('',1.,0.756862745098039,0.0549019607843137);
#1033=MANIFOLD_SOLID_BREP('SunShell',#1024);
#1034=SHAPE_DEFINITION_REPRESENTATION(#1692,#1035);
#1035=SHAPE_REPRESENTATION('SunShell',(#1036),#1687);
#1036=AXIS2_PLACEMENT_3D('',#1390,#1114,#1115);
#1037=AXIS2_PLACEMENT_3D('',#1391,#1116,#1117);
#1038=AXIS2_PLACEMENT_3D('',#1400,#1122,#1123);
#1039=AXIS2_PLACEMENT_3D('',#1401,#1124,#1125);
#1040=AXIS2_PLACEMENT_3D('',#1405,#1127,#1128);
#1041=AXIS2_PLACEMENT_3D('',#1406,#1129,#1130);
#1042=AXIS2_PLACEMENT_3D('',#1412,#1134,#1135);
#1043=AXIS2_PLACEMENT_3D('',#1418,#1139,#1140);
#1044=AXIS2_PLACEMENT_3D('',#1424,#1144,#1145);
#1045=AXIS2_PLACEMENT_3D('',#1425,#1146,#1147);
#1046=AXIS2_PLACEMENT_3D('',#1429,#1149,#1150);
#1047=AXIS2_PLACEMENT_3D('',#1430,#1151,#1152);
#1048=AXIS2_PLACEMENT_3D('',#1436,#1156,#1157);
#1049=AXIS2_PLACEMENT_3D('',#1442,#1161,#1162);
#1050=AXIS2_PLACEMENT_3D('',#1448,#1166,#1167);
#1051=AXIS2_PLACEMENT_3D('',#1449,#1168,#1169);
#1052=AXIS2_PLACEMENT_3D('',#1453,#1171,#1172);
#1053=AXIS2_PLACEMENT_3D('',#1454,#1173,#1174);
#1054=AXIS2_PLACEMENT_3D('',#1460,#1178,#1179);
#1055=AXIS2_PLACEMENT_3D('',#1466,#1183,#1184);
#1056=AXIS2_PLACEMENT_3D('',#1472,#1188,#1189);
#1057=AXIS2_PLACEMENT_3D('',#1473,#1190,#1191);
#1058=AXIS2_PLACEMENT_3D('',#1477,#1193,#1194);
#1059=AXIS2_PLACEMENT_3D('',#1478,#1195,#1196);
#1060=AXIS2_PLACEMENT_3D('',#1484,#1200,#1201);
#1061=AXIS2_PLACEMENT_3D('',#1490,#1205,#1206);
#1062=AXIS2_PLACEMENT_3D('',#1496,#1210,#1211);
#1063=AXIS2_PLACEMENT_3D('',#1497,#1212,#1213);
#1064=AXIS2_PLACEMENT_3D('',#1501,#1215,#1216);
#1065=AXIS2_PLACEMENT_3D('',#1502,#1217,#1218);
#1066=AXIS2_PLACEMENT_3D('',#1508,#1222,#1223);
#1067=AXIS2_PLACEMENT_3D('',#1514,#1227,#1228);
#1068=AXIS2_PLACEMENT_3D('',#1520,#1232,#1233);
#1069=AXIS2_PLACEMENT_3D('',#1521,#1234,#1235);
#1070=AXIS2_PLACEMENT_3D('',#1525,#1237,#1238);
#1071=AXIS2_PLACEMENT_3D('',#1526,#1239,#1240);
#1072=AXIS2_PLACEMENT_3D('',#1532,#1244,#1245);
#1073=AXIS2_PLACEMENT_3D('',#1538,#1249,#1250);
#1074=AXIS2_PLACEMENT_3D('',#1544,#1254,#1255);
#1075=AXIS2_PLACEMENT_3D('',#1545,#1256,#1257);
#1076=AXIS2_PLACEMENT_3D('',#1549,#1259,#1260);
#1077=AXIS2_PLACEMENT_3D('',#1550,#1261,#1262);
#1078=AXIS2_PLACEMENT_3D('',#1556,#1266,#1267);
#1079=AXIS2_PLACEMENT_3D('',#1562,#1271,#1272);
#1080=AXIS2_PLACEMENT_3D('',#1568,#1276,#1277);
#1081=AXIS2_PLACEMENT_3D('',#1569,#1278,#1279);
#1082=AXIS2_PLACEMENT_3D('',#1573,#1281,#1282);
#1083=AXIS2_PLACEMENT_3D('',#1574,#1283,#1284);
#1084=AXIS2_PLACEMENT_3D('',#1580,#1288,#1289);
#1085=AXIS2_PLACEMENT_3D('',#1586,#1293,#1294);
#1086=AXIS2_PLACEMENT_3D('',#1592,#1298,#1299);
#1087=AXIS2_PLACEMENT_3D('',#1593,#1300,#1301);
#1088=AXIS2_PLACEMENT_3D('',#1597,#1303,#1304);
#1089=AXIS2_PLACEMENT_3D('',#1598,#1305,#1306);
#1090=AXIS2_PLACEMENT_3D('',#1604,#1310,#1311);
#1091=AXIS2_PLACEMENT_3D('',#1610,#1315,#1316);
#1092=AXIS2_PLACEMENT_3D('',#1616,#1320,#1321);
#1093=AXIS2_PLACEMENT_3D('',#1617,#1322,#1323);
#1094=AXIS2_PLACEMENT_3D('',#1621,#1325,#1326);
#1095=AXIS2_PLACEMENT_3D('',#1622,#1327,#1328);
#1096=AXIS2_PLACEMENT_3D('',#1628,#1332,#1333);
#1097=AXIS2_PLACEMENT_3D('',#1634,#1337,#1338);
#1098=AXIS2_PLACEMENT_3D('',#1640,#1342,#1343);
#1099=AXIS2_PLACEMENT_3D('',#1641,#1344,#1345);
#1100=AXIS2_PLACEMENT_3D('',#1645,#1347,#1348);
#1101=AXIS2_PLACEMENT_3D('',#1646,#1349,#1350);
#1102=AXIS2_PLACEMENT_3D('',#1652,#1354,#1355);
#1103=AXIS2_PLACEMENT_3D('',#1658,#1359,#1360);
#1104=AXIS2_PLACEMENT_3D('',#1664,#1364,#1365);
#1105=AXIS2_PLACEMENT_3D('',#1665,#1366,#1367);
#1106=AXIS2_PLACEMENT_3D('',#1669,#1369,#1370);
#1107=AXIS2_PLACEMENT_3D('',#1670,#1371,#1372);
#1108=AXIS2_PLACEMENT_3D('',#1676,#1376,#1377);
#1109=AXIS2_PLACEMENT_3D('',#1679,#1380,#1381);
#1110=AXIS2_PLACEMENT_3D('',#1680,#1382,#1383);
#1111=AXIS2_PLACEMENT_3D('',#1682,#1384,#1385);
#1112=AXIS2_PLACEMENT_3D('',#1684,#1386,#1387);
#1113=AXIS2_PLACEMENT_3D('',#1685,#1388,#1389);
#1114=DIRECTION('',(0.,0.,1.));
#1115=DIRECTION('',(1.,0.,0.));
#1116=DIRECTION('',(1.,0.,0.));
#1117=DIRECTION('',(0.,0.,-1.));
#1118=DIRECTION('',(0.,-1.,0.));
#1119=DIRECTION('',(0.,0.,-1.));
#1120=DIRECTION('',(0.,-1.,0.));
#1121=DIRECTION('',(0.,0.,-1.));
#1122=DIRECTION('',(0.,0.,-1.));
#1123=DIRECTION('',(-1.,0.,0.));
#1124=DIRECTION('',(0.,0.,1.));
#1125=DIRECTION('',(1.,0.,0.));
#1126=DIRECTION('',(0.,0.,-1.));
#1127=DIRECTION('',(0.,0.,1.));
#1128=DIRECTION('',(1.,0.,0.));
#1129=DIRECTION('',(-0.866025403784439,-0.5,0.));
#1130=DIRECTION('',(0.5,-0.866025403784439,0.));
#1131=DIRECTION('',(-0.5,0.866025403784439,0.));
#1132=DIRECTION('',(0.,0.,-1.));
#1133=DIRECTION('',(-0.5,0.866025403784439,0.));
#1134=DIRECTION('',(-0.5,0.866025403784439,0.));
#1135=DIRECTION('',(-0.866025403784439,-0.5,0.));
#1136=DIRECTION('',(0.866025403784439,0.5,0.));
#1137=DIRECTION('',(0.,0.,-1.));
#1138=DIRECTION('',(0.866025403784439,0.5,0.));
#1139=DIRECTION('',(0.866025403784439,0.5,0.));
#1140=DIRECTION('',(-0.5,0.866025403784439,0.));
#1141=DIRECTION('',(0.5,-0.866025403784439,0.));
#1142=DIRECTION('',(0.,0.,-1.));
#1143=DIRECTION('',(0.5,-0.866025403784439,0.));
#1144=DIRECTION('',(0.,0.,-1.));
#1145=DIRECTION('',(-1.,0.,0.));
#1146=DIRECTION('',(0.,0.,1.));
#1147=DIRECTION('',(1.,0.,0.));
#1148=DIRECTION('',(0.,0.,-1.));
#1149=DIRECTION('',(0.,0.,1.));
#1150=DIRECTION('',(1.,0.,0.));
#1151=DIRECTION('',(-0.5,-0.866025403784439,0.));
#1152=DIRECTION('',(0.866025403784439,-0.5,0.));
#1153=DIRECTION('',(-0.866025403784439,0.5,0.));
#1154=DIRECTION('',(0.,0.,-1.));
#1155=DIRECTION('',(-0.866025403784439,0.5,0.));
#1156=DIRECTION('',(-0.866025403784439,0.5,0.));
#1157=DIRECTION('',(-0.5,-0.866025403784439,0.));
#1158=DIRECTION('',(0.5,0.866025403784439,0.));
#1159=DIRECTION('',(0.,0.,-1.));
#1160=DIRECTION('',(0.5,0.866025403784439,0.));
#1161=DIRECTION('',(0.5,0.866025403784439,0.));
#1162=DIRECTION('',(-0.866025403784439,0.5,0.));
#1163=DIRECTION('',(0.866025403784439,-0.5,0.));
#1164=DIRECTION('',(0.,0.,-1.));
#1165=DIRECTION('',(0.866025403784439,-0.5,0.));
#1166=DIRECTION('',(0.,0.,-1.));
#1167=DIRECTION('',(-1.,0.,0.));
#1168=DIRECTION('',(0.,0.,1.));
#1169=DIRECTION('',(1.,0.,0.));
#1170=DIRECTION('',(0.,0.,-1.));
#1171=DIRECTION('',(0.,0.,1.));
#1172=DIRECTION('',(1.,0.,0.));
#1173=DIRECTION('',(-4.33680868994202E-17,-1.,0.));
#1174=DIRECTION('',(1.,-4.33680868994202E-17,0.));
#1175=DIRECTION('',(-1.,4.33680868994202E-17,0.));
#1176=DIRECTION('',(0.,0.,-1.));
#1177=DIRECTION('',(-1.,4.33680868994202E-17,0.));
#1178=DIRECTION('',(-1.,0.,0.));
#1179=DIRECTION('',(0.,0.,1.));
#1180=DIRECTION('',(0.,1.,0.));
#1181=DIRECTION('',(0.,0.,-1.));
#1182=DIRECTION('',(0.,1.,0.));
#1183=DIRECTION('',(4.33680868994202E-17,1.,0.));
#1184=DIRECTION('',(-1.,4.33680868994202E-17,0.));
#1185=DIRECTION('',(1.,-4.33680868994202E-17,0.));
#1186=DIRECTION('',(0.,0.,-1.));
#1187=DIRECTION('',(1.,-4.33680868994202E-17,0.));
#1188=DIRECTION('',(0.,0.,-1.));
#1189=DIRECTION('',(-1.,0.,0.));
#1190=DIRECTION('',(0.,0.,1.));
#1191=DIRECTION('',(1.,0.,0.));
#1192=DIRECTION('',(0.,0.,-1.));
#1193=DIRECTION('',(0.,0.,1.));
#1194=DIRECTION('',(1.,0.,0.));
#1195=DIRECTION('',(0.5,-0.866025403784439,0.));
#1196=DIRECTION('',(0.866025403784439,0.5,0.));
#1197=DIRECTION('',(-0.866025403784439,-0.5,0.));
#1198=DIRECTION('',(0.,0.,-1.));
#1199=DIRECTION('',(-0.866025403784439,-0.5,0.));
#1200=DIRECTION('',(-0.866025403784439,-0.5,0.));
#1201=DIRECTION('',(0.5,-0.866025403784439,0.));
#1202=DIRECTION('',(-0.5,0.866025403784439,0.));
#1203=DIRECTION('',(0.,0.,-1.));
#1204=DIRECTION('',(-0.5,0.866025403784439,0.));
#1205=DIRECTION('',(-0.5,0.866025403784439,0.));
#1206=DIRECTION('',(-0.866025403784439,-0.5,0.));
#1207=DIRECTION('',(0.866025403784439,0.5,0.));
#1208=DIRECTION('',(0.,0.,-1.));
#1209=DIRECTION('',(0.866025403784439,0.5,0.));
#1210=DIRECTION('',(0.,0.,-1.));
#1211=DIRECTION('',(-1.,0.,0.));
#1212=DIRECTION('',(0.,0.,1.));
#1213=DIRECTION('',(1.,0.,0.));
#1214=DIRECTION('',(0.,0.,-1.));
#1215=DIRECTION('',(0.,0.,1.));
#1216=DIRECTION('',(1.,0.,0.));
#1217=DIRECTION('',(0.866025403784439,-0.5,0.));
#1218=DIRECTION('',(0.5,0.866025403784439,0.));
#1219=DIRECTION('',(-0.5,-0.866025403784439,0.));
#1220=DIRECTION('',(0.,0.,-1.));
#1221=DIRECTION('',(-0.5,-0.866025403784439,0.));
#1222=DIRECTION('',(-0.5,-0.866025403784439,0.));
#1223=DIRECTION('',(0.866025403784439,-0.5,0.));
#1224=DIRECTION('',(-0.866025403784439,0.5,0.));
#1225=DIRECTION('',(0.,0.,-1.));
#1226=DIRECTION('',(-0.866025403784439,0.5,0.));
#1227=DIRECTION('',(-0.866025403784439,0.5,0.));
#1228=DIRECTION('',(-0.5,-0.866025403784439,0.));
#1229=DIRECTION('',(0.5,0.866025403784439,0.));
#1230=DIRECTION('',(0.,0.,-1.));
#1231=DIRECTION('',(0.5,0.866025403784439,0.));
#1232=DIRECTION('',(0.,0.,-1.));
#1233=DIRECTION('',(-1.,0.,0.));
#1234=DIRECTION('',(0.,0.,1.));
#1235=DIRECTION('',(1.,0.,0.));
#1236=DIRECTION('',(0.,0.,-1.));
#1237=DIRECTION('',(0.,0.,1.));
#1238=DIRECTION('',(1.,0.,0.));
#1239=DIRECTION('',(1.,-1.30104260698261E-16,0.));
#1240=DIRECTION('',(1.30104260698261E-16,1.,0.));
#1241=DIRECTION('',(-1.30104260698261E-16,-1.,0.));
#1242=DIRECTION('',(0.,0.,-1.));
#1243=DIRECTION('',(-1.30104260698261E-16,-1.,0.));
#1244=DIRECTION('',(-3.61400724161835E-16,-1.,0.));
#1245=DIRECTION('',(1.,-3.61400724161835E-16,0.));
#1246=DIRECTION('',(-1.,3.61400724161835E-16,0.));
#1247=DIRECTION('',(0.,0.,-1.));
#1248=DIRECTION('',(-1.,3.61400724161835E-16,0.));
#1249=DIRECTION('',(-1.,1.30104260698261E-16,0.));
#1250=DIRECTION('',(-1.30104260698261E-16,-1.,0.));
#1251=DIRECTION('',(1.30104260698261E-16,1.,0.));
#1252=DIRECTION('',(0.,0.,-1.));
#1253=DIRECTION('',(1.30104260698261E-16,1.,0.));
#1254=DIRECTION('',(0.,0.,-1.));
#1255=DIRECTION('',(-1.,0.,0.));
#1256=DIRECTION('',(0.,0.,1.));
#1257=DIRECTION('',(1.,0.,0.));
#1258=DIRECTION('',(0.,0.,-1.));
#1259=DIRECTION('',(0.,0.,1.));
#1260=DIRECTION('',(1.,0.,0.));
#1261=DIRECTION('',(0.866025403784439,0.5,0.));
#1262=DIRECTION('',(-0.5,0.866025403784439,0.));
#1263=DIRECTION('',(0.5,-0.866025403784439,0.));
#1264=DIRECTION('',(0.,0.,-1.));
#1265=DIRECTION('',(0.5,-0.866025403784439,0.));
#1266=DIRECTION('',(0.5,-0.866025403784439,0.));
#1267=DIRECTION('',(0.866025403784439,0.5,0.));
#1268=DIRECTION('',(-0.866025403784439,-0.5,0.));
#1269=DIRECTION('',(0.,0.,-1.));
#1270=DIRECTION('',(-0.866025403784439,-0.5,0.));
#1271=DIRECTION('',(-0.866025403784439,-0.5,0.));
#1272=DIRECTION('',(0.5,-0.866025403784439,0.));
#1273=DIRECTION('',(-0.5,0.866025403784439,0.));
#1274=DIRECTION('',(0.,0.,-1.));
#1275=DIRECTION('',(-0.5,0.866025403784439,0.));
#1276=DIRECTION('',(0.,0.,-1.));
#1277=DIRECTION('',(-1.,0.,0.));
#1278=DIRECTION('',(0.,0.,1.));
#1279=DIRECTION('',(1.,0.,0.));
#1280=DIRECTION('',(0.,0.,-1.));
#1281=DIRECTION('',(0.,0.,1.));
#1282=DIRECTION('',(1.,0.,0.));
#1283=DIRECTION('',(0.5,0.866025403784438,0.));
#1284=DIRECTION('',(-0.866025403784438,0.5,0.));
#1285=DIRECTION('',(0.866025403784438,-0.5,0.));
#1286=DIRECTION('',(0.,0.,-1.));
#1287=DIRECTION('',(0.866025403784438,-0.5,0.));
#1288=DIRECTION('',(0.866025403784438,-0.5,0.));
#1289=DIRECTION('',(0.5,0.866025403784438,0.));
#1290=DIRECTION('',(-0.5,-0.866025403784438,0.));
#1291=DIRECTION('',(0.,0.,-1.));
#1292=DIRECTION('',(-0.5,-0.866025403784438,0.));
#1293=DIRECTION('',(-0.5,-0.866025403784438,0.));
#1294=DIRECTION('',(0.866025403784438,-0.5,0.));
#1295=DIRECTION('',(-0.866025403784438,0.5,0.));
#1296=DIRECTION('',(0.,0.,-1.));
#1297=DIRECTION('',(-0.866025403784438,0.5,0.));
#1298=DIRECTION('',(0.,0.,-1.));
#1299=DIRECTION('',(-1.,0.,0.));
#1300=DIRECTION('',(0.,0.,1.));
#1301=DIRECTION('',(1.,0.,0.));
#1302=DIRECTION('',(0.,0.,-1.));
#1303=DIRECTION('',(0.,0.,1.));
#1304=DIRECTION('',(1.,0.,0.));
#1305=DIRECTION('',(1.7347234759768E-16,1.,0.));
#1306=DIRECTION('',(-1.,1.7347234759768E-16,0.));
#1307=DIRECTION('',(1.,-1.7347234759768E-16,0.));
#1308=DIRECTION('',(0.,0.,-1.));
#1309=DIRECTION('',(1.,-1.7347234759768E-16,0.));
#1310=DIRECTION('',(1.,0.,0.));
#1311=DIRECTION('',(0.,0.,-1.));
#1312=DIRECTION('',(0.,-1.,0.));
#1313=DIRECTION('',(0.,0.,-1.));
#1314=DIRECTION('',(0.,-1.,0.));
#1315=DIRECTION('',(-1.7347234759768E-16,-1.,0.));
#1316=DIRECTION('',(1.,-1.7347234759768E-16,0.));
#1317=DIRECTION('',(-1.,1.7347234759768E-16,0.));
#1318=DIRECTION('',(0.,0.,-1.));
#1319=DIRECTION('',(-1.,1.7347234759768E-16,0.));
#1320=DIRECTION('',(0.,0.,-1.));
#1321=DIRECTION('',(-1.,0.,0.));
#1322=DIRECTION('',(0.,0.,1.));
#1323=DIRECTION('',(1.,0.,0.));
#1324=DIRECTION('',(0.,0.,-1.));
#1325=DIRECTION('',(0.,0.,1.));
#1326=DIRECTION('',(1.,0.,0.));
#1327=DIRECTION('',(-0.5,0.866025403784439,0.));
#1328=DIRECTION('',(-0.866025403784439,-0.5,0.));
#1329=DIRECTION('',(0.866025403784439,0.5,0.));
#1330=DIRECTION('',(0.,0.,-1.));
#1331=DIRECTION('',(0.866025403784439,0.5,0.));
#1332=DIRECTION('',(0.866025403784439,0.5,0.));
#1333=DIRECTION('',(-0.5,0.866025403784439,0.));
#1334=DIRECTION('',(0.5,-0.866025403784439,0.));
#1335=DIRECTION('',(0.,0.,-1.));
#1336=DIRECTION('',(0.5,-0.866025403784439,0.));
#1337=DIRECTION('',(0.5,-0.866025403784439,0.));
#1338=DIRECTION('',(0.866025403784439,0.5,0.));
#1339=DIRECTION('',(-0.866025403784439,-0.5,0.));
#1340=DIRECTION('',(0.,0.,-1.));
#1341=DIRECTION('',(-0.866025403784439,-0.5,0.));
#1342=DIRECTION('',(0.,0.,-1.));
#1343=DIRECTION('',(-1.,0.,0.));
#1344=DIRECTION('',(0.,0.,1.));
#1345=DIRECTION('',(1.,0.,0.));
#1346=DIRECTION('',(0.,0.,-1.));
#1347=DIRECTION('',(0.,0.,1.));
#1348=DIRECTION('',(1.,0.,0.));
#1349=DIRECTION('',(-0.866025403784439,0.5,0.));
#1350=DIRECTION('',(-0.5,-0.866025403784439,0.));
#1351=DIRECTION('',(0.5,0.866025403784439,0.));
#1352=DIRECTION('',(0.,0.,-1.));
#1353=DIRECTION('',(0.5,0.866025403784439,0.));
#1354=DIRECTION('',(0.5,0.866025403784439,0.));
#1355=DIRECTION('',(-0.866025403784439,0.5,0.));
#1356=DIRECTION('',(0.866025403784439,-0.5,0.));
#1357=DIRECTION('',(0.,0.,-1.));
#1358=DIRECTION('',(0.866025403784439,-0.5,0.));
#1359=DIRECTION('',(0.866025403784439,-0.5,0.));
#1360=DIRECTION('',(0.5,0.866025403784439,0.));
#1361=DIRECTION('',(-0.5,-0.866025403784439,0.));
#1362=DIRECTION('',(0.,0.,-1.));
#1363=DIRECTION('',(-0.5,-0.866025403784439,0.));
#1364=DIRECTION('',(0.,0.,-1.));
#1365=DIRECTION('',(-1.,0.,0.));
#1366=DIRECTION('',(0.,0.,1.));
#1367=DIRECTION('',(1.,0.,0.));
#1368=DIRECTION('',(0.,0.,-1.));
#1369=DIRECTION('',(0.,0.,1.));
#1370=DIRECTION('',(1.,0.,0.));
#1371=DIRECTION('',(-1.,0.,0.));
#1372=DIRECTION('',(0.,0.,1.));
#1373=DIRECTION('',(0.,1.,0.));
#1374=DIRECTION('',(0.,0.,-1.));
#1375=DIRECTION('',(0.,1.,0.));
#1376=DIRECTION('',(0.,1.,0.));
#1377=DIRECTION('',(0.,0.,1.));
#1378=DIRECTION('',(1.,0.,0.));
#1379=DIRECTION('',(1.,0.,0.));
#1380=DIRECTION('',(0.,0.,-1.));
#1381=DIRECTION('',(-1.,0.,0.));
#1382=DIRECTION('',(0.,0.,1.));
#1383=DIRECTION('',(1.,0.,0.));
#1384=DIRECTION('',(0.,0.,1.));
#1385=DIRECTION('',(1.,0.,0.));
#1386=DIRECTION('',(0.,0.,1.));
#1387=DIRECTION('',(1.,0.,0.));
#1388=DIRECTION('',(0.,0.,1.));
#1389=DIRECTION('',(1.,0.,0.));
#1390=CARTESIAN_POINT('',(0.,0.,0.));
#1391=CARTESIAN_POINT('',(-0.0012000000001045,0.00994226667439884,0.029));
#1392=CARTESIAN_POINT('',(-0.0012000000001045,0.00994226667439884,0.027));
#1393=CARTESIAN_POINT('',(-0.0012000000001045,0.0124422666743988,0.027));
#1394=CARTESIAN_POINT('',(-0.0012000000001045,0.00744226667439886,0.027));
#1395=CARTESIAN_POINT('',(-0.0012000000001045,0.0124422666743988,0.029));
#1396=CARTESIAN_POINT('',(-0.0012000000001045,0.0124422666743988,0.029));
#1397=CARTESIAN_POINT('',(-0.0012000000001045,0.00994226667439884,0.029));
#1398=CARTESIAN_POINT('',(-0.0012000000001045,0.00744226667439886,0.029));
#1399=CARTESIAN_POINT('',(-0.0012000000001045,0.00744226667439886,0.029));
#1400=CARTESIAN_POINT('',(-1.04508307390005E-13,-1.26316491988465E-13,0.029));
#1401=CARTESIAN_POINT('',(-1.04508307390005E-13,-1.26316491988465E-13,0.027));
#1402=CARTESIAN_POINT('',(-0.00518190285282577,0.011375319020673,0.027));
#1403=CARTESIAN_POINT('',(-0.00518190285282577,0.011375319020673,0.029));
#1404=CARTESIAN_POINT('',(-0.00518190285282577,0.011375319020673,0.029));
#1405=CARTESIAN_POINT('',(-1.04508307390005E-13,-1.26316491988465E-13,0.029));
#1406=CARTESIAN_POINT('',(-0.00393190285282578,0.00921025551121191,0.029));
#1407=CARTESIAN_POINT('',(-0.00393190285282578,0.00921025551121191,0.027));
#1408=CARTESIAN_POINT('',(-0.00268190285282577,0.00704519200175082,0.027));
#1409=CARTESIAN_POINT('',(-0.00268190285282577,0.00704519200175082,0.029));
#1410=CARTESIAN_POINT('',(-0.00268190285282577,0.00704519200175082,0.029));
#1411=CARTESIAN_POINT('',(-0.00393190285282578,0.00921025551121191,0.029));
#1412=CARTESIAN_POINT('',(-0.0037211333373671,0.00644519200175082,0.029));
#1413=CARTESIAN_POINT('',(-0.0037211333373671,0.00644519200175082,0.027));
#1414=CARTESIAN_POINT('',(-0.00476036382190843,0.00584519200175081,0.027));
#1415=CARTESIAN_POINT('',(-0.00476036382190843,0.00584519200175081,0.029));
#1416=CARTESIAN_POINT('',(-0.00476036382190843,0.00584519200175081,0.029));
#1417=CARTESIAN_POINT('',(-0.0037211333373671,0.00644519200175082,0.029));
#1418=CARTESIAN_POINT('',(-0.00601036382190843,0.00801025551121191,0.029));
#1419=CARTESIAN_POINT('',(-0.00601036382190843,0.00801025551121191,0.027));
#1420=CARTESIAN_POINT('',(-0.00726036382190842,0.010175319020673,0.027));
#1421=CARTESIAN_POINT('',(-0.00726036382190842,0.010175319020673,0.029));
#1422=CARTESIAN_POINT('',(-0.00726036382190842,0.010175319020673,0.029));
#1423=CARTESIAN_POINT('',(-0.00601036382190843,0.00801025551121191,0.029));
#1424=CARTESIAN_POINT('',(-1.04460277233764E-13,-1.26402360800526E-13,0.029));
#1425=CARTESIAN_POINT('',(-1.04460277233764E-13,-1.26402360800526E-13,0.027));
#1426=CARTESIAN_POINT('',(-0.0101753190209038,0.00726036382167757,0.027));
#1427=CARTESIAN_POINT('',(-0.0101753190209038,0.00726036382167757,0.029));
#1428=CARTESIAN_POINT('',(-0.0101753190209038,0.00726036382167757,0.029));
#1429=CARTESIAN_POINT('',(-1.04460277233764E-13,-1.26402360800526E-13,0.029));
#1430=CARTESIAN_POINT('',(-0.00801025551144276,0.00601036382167758,0.029));
#1431=CARTESIAN_POINT('',(-0.00801025551144276,0.00601036382167758,0.027));
#1432=CARTESIAN_POINT('',(-0.00584519200198167,0.00476036382167759,0.027));
#1433=CARTESIAN_POINT('',(-0.00584519200198167,0.00476036382167759,0.029));
#1434=CARTESIAN_POINT('',(-0.00584519200198167,0.00476036382167759,0.029));
#1435=CARTESIAN_POINT('',(-0.00801025551144276,0.00601036382167758,0.029));
#1436=CARTESIAN_POINT('',(-0.00644519200198167,0.00372113333713627,0.029));
#1437=CARTESIAN_POINT('',(-0.00644519200198167,0.00372113333713627,0.027));
#1438=CARTESIAN_POINT('',(-0.00704519200198167,0.00268190285259493,0.027));
#1439=CARTESIAN_POINT('',(-0.00704519200198167,0.00268190285259493,0.029));
#1440=CARTESIAN_POINT('',(-0.00704519200198167,0.00268190285259493,0.029));
#1441=CARTESIAN_POINT('',(-0.00644519200198167,0.00372113333713627,0.029));
#1442=CARTESIAN_POINT('',(-0.00921025551144276,0.00393190285259493,0.029));
#1443=CARTESIAN_POINT('',(-0.00921025551144276,0.00393190285259493,0.027));
#1444=CARTESIAN_POINT('',(-0.0113753190209038,0.00518190285259492,0.027));
#1445=CARTESIAN_POINT('',(-0.0113753190209038,0.00518190285259492,0.029));
#1446=CARTESIAN_POINT('',(-0.0113753190209038,0.00518190285259492,0.029));
#1447=CARTESIAN_POINT('',(-0.00921025551144276,0.00393190285259493,0.029));
#1448=CARTESIAN_POINT('',(-1.04470251893751E-13,-1.26349126473857E-13,0.029));
#1449=CARTESIAN_POINT('',(-1.04470251893751E-13,-1.26349126473857E-13,0.027));
#1450=CARTESIAN_POINT('',(-0.0124422666746297,0.00119999999987365,0.027));
#1451=CARTESIAN_POINT('',(-0.0124422666746297,0.00119999999987365,0.029));
#1452=CARTESIAN_POINT('',(-0.0124422666746297,0.00119999999987365,0.029));
#1453=CARTESIAN_POINT('',(-1.04470251893751E-13,-1.26349126473857E-13,0.029));
#1454=CARTESIAN_POINT('',(-0.00994226667462971,0.00119999999987365,0.029));
#1455=CARTESIAN_POINT('',(-0.00994226667462971,0.00119999999987365,0.027));
#1456=CARTESIAN_POINT('',(-0.00744226667462971,0.00119999999987365,0.027));
#1457=CARTESIAN_POINT('',(-0.00744226667462971,0.00119999999987365,0.029));
#1458=CARTESIAN_POINT('',(-0.00744226667462971,0.00119999999987365,0.029));
#1459=CARTESIAN_POINT('',(-0.00994226667462971,0.00119999999987365,0.029));
#1460=CARTESIAN_POINT('',(-0.00744226667462971,-1.26347717011033E-13,0.029));
#1461=CARTESIAN_POINT('',(-0.00744226667462971,-1.26347717011033E-13,0.027));
#1462=CARTESIAN_POINT('',(-0.00744226667462971,-0.00120000000012635,0.027));
#1463=CARTESIAN_POINT('',(-0.00744226667462971,-0.00120000000012635,0.029));
#1464=CARTESIAN_POINT('',(-0.00744226667462971,-0.00120000000012635,0.029));
#1465=CARTESIAN_POINT('',(-0.00744226667462971,-1.26347717011033E-13,0.029));
#1466=CARTESIAN_POINT('',(-0.00994226667462971,-0.00120000000012635,0.029));
#1467=CARTESIAN_POINT('',(-0.00994226667462971,-0.00120000000012635,0.027));
#1468=CARTESIAN_POINT('',(-0.0124422666746297,-0.00120000000012635,0.027));
#1469=CARTESIAN_POINT('',(-0.0124422666746297,-0.00120000000012635,0.029));
#1470=CARTESIAN_POINT('',(-0.0124422666746297,-0.00120000000012635,0.029));
#1471=CARTESIAN_POINT('',(-0.00994226667462971,-0.00120000000012635,0.029));
#1472=CARTESIAN_POINT('',(-1.04457241467681E-13,-1.26347391750381E-13,0.029));
#1473=CARTESIAN_POINT('',(-1.04457241467681E-13,-1.26347391750381E-13,0.027));
#1474=CARTESIAN_POINT('',(-0.0113753190209038,-0.00518190285284761,0.027));
#1475=CARTESIAN_POINT('',(-0.0113753190209038,-0.00518190285284761,0.029));
#1476=CARTESIAN_POINT('',(-0.0113753190209038,-0.00518190285284761,0.029));
#1477=CARTESIAN_POINT('',(-1.04457241467681E-13,-1.26347391750381E-13,0.029));
#1478=CARTESIAN_POINT('',(-0.00921025551144276,-0.00393190285284763,0.029));
#1479=CARTESIAN_POINT('',(-0.00921025551144276,-0.00393190285284763,0.027));
#1480=CARTESIAN_POINT('',(-0.00704519200198167,-0.00268190285284762,0.027));
#1481=CARTESIAN_POINT('',(-0.00704519200198167,-0.00268190285284762,0.029));
#1482=CARTESIAN_POINT('',(-0.00704519200198167,-0.00268190285284762,0.029));
#1483=CARTESIAN_POINT('',(-0.00921025551144276,-0.00393190285284763,0.029));
#1484=CARTESIAN_POINT('',(-0.00644519200198167,-0.00372113333738895,0.029));
#1485=CARTESIAN_POINT('',(-0.00644519200198167,-0.00372113333738895,0.027));
#1486=CARTESIAN_POINT('',(-0.00584519200198167,-0.00476036382193028,0.027));
#1487=CARTESIAN_POINT('',(-0.00584519200198167,-0.00476036382193028,0.029));
#1488=CARTESIAN_POINT('',(-0.00584519200198167,-0.00476036382193028,0.029));
#1489=CARTESIAN_POINT('',(-0.00644519200198167,-0.00372113333738895,0.029));
#1490=CARTESIAN_POINT('',(-0.00801025551144276,-0.00601036382193028,0.029));
#1491=CARTESIAN_POINT('',(-0.00801025551144276,-0.00601036382193028,0.027));
#1492=CARTESIAN_POINT('',(-0.0101753190209038,-0.00726036382193026,0.027));
#1493=CARTESIAN_POINT('',(-0.0101753190209038,-0.00726036382193026,0.029));
#1494=CARTESIAN_POINT('',(-0.0101753190209038,-0.00726036382193026,0.029));
#1495=CARTESIAN_POINT('',(-0.00801025551144276,-0.00601036382193028,0.029));
#1496=CARTESIAN_POINT('',(-1.04441628956398E-13,-1.26281797518946E-13,0.029));
#1497=CARTESIAN_POINT('',(-1.04441628956398E-13,-1.26281797518946E-13,0.027));
#1498=CARTESIAN_POINT('',(-0.00726036382190843,-0.0101753190209257,0.027));
#1499=CARTESIAN_POINT('',(-0.00726036382190843,-0.0101753190209257,0.029));
#1500=CARTESIAN_POINT('',(-0.00726036382190843,-0.0101753190209257,0.029));
#1501=CARTESIAN_POINT('',(-1.04441628956398E-13,-1.26281797518946E-13,0.029));
#1502=CARTESIAN_POINT('',(-0.00601036382190844,-0.00801025551146461,0.029));
#1503=CARTESIAN_POINT('',(-0.00601036382190844,-0.00801025551146461,0.027));
#1504=CARTESIAN_POINT('',(-0.00476036382190844,-0.00584519200200351,0.027));
#1505=CARTESIAN_POINT('',(-0.00476036382190844,-0.00584519200200351,0.029));
#1506=CARTESIAN_POINT('',(-0.00476036382190844,-0.00584519200200351,0.029));
#1507=CARTESIAN_POINT('',(-0.00601036382190844,-0.00801025551146461,0.029));
#1508=CARTESIAN_POINT('',(-0.00372113333736712,-0.00644519200200351,0.029));
#1509=CARTESIAN_POINT('',(-0.00372113333736712,-0.00644519200200351,0.027));
#1510=CARTESIAN_POINT('',(-0.00268190285282579,-0.00704519200200351,0.027));
#1511=CARTESIAN_POINT('',(-0.00268190285282579,-0.00704519200200351,0.029));
#1512=CARTESIAN_POINT('',(-0.00268190285282579,-0.00704519200200351,0.029));
#1513=CARTESIAN_POINT('',(-0.00372113333736712,-0.00644519200200351,0.029));
#1514=CARTESIAN_POINT('',(-0.00393190285282578,-0.0092102555114646,0.029));
#1515=CARTESIAN_POINT('',(-0.00393190285282578,-0.0092102555114646,0.027));
#1516=CARTESIAN_POINT('',(-0.00518190285282578,-0.0113753190209257,0.027));
#1517=CARTESIAN_POINT('',(-0.00518190285282578,-0.0113753190209257,0.029));
#1518=CARTESIAN_POINT('',(-0.00518190285282578,-0.0113753190209257,0.029));
#1519=CARTESIAN_POINT('',(-0.00393190285282578,-0.0092102555114646,0.029));
#1520=CARTESIAN_POINT('',(-1.04493020139373E-13,-1.2628873641285E-13,0.029));
#1521=CARTESIAN_POINT('',(-1.04493020139373E-13,-1.2628873641285E-13,0.027));
#1522=CARTESIAN_POINT('',(-0.00120000000010451,-0.0124422666746515,0.027));
#1523=CARTESIAN_POINT('',(-0.00120000000010451,-0.0124422666746515,0.029));
#1524=CARTESIAN_POINT('',(-0.00120000000010451,-0.0124422666746515,0.029));
#1525=CARTESIAN_POINT('',(-1.04493020139373E-13,-1.2628873641285E-13,0.029));
#1526=CARTESIAN_POINT('',(-0.0012000000001045,-0.00994226667465156,0.029));
#1527=CARTESIAN_POINT('',(-0.0012000000001045,-0.00994226667465156,0.027));
#1528=CARTESIAN_POINT('',(-0.0012000000001045,-0.00744226667465155,0.027));
#1529=CARTESIAN_POINT('',(-0.0012000000001045,-0.00744226667465155,0.029));
#1530=CARTESIAN_POINT('',(-0.0012000000001045,-0.00744226667465155,0.029));
#1531=CARTESIAN_POINT('',(-0.0012000000001045,-0.00994226667465156,0.029));
#1532=CARTESIAN_POINT('',(-1.04504079001533E-13,-0.00744226667465155,0.029));
#1533=CARTESIAN_POINT('',(-1.04504079001533E-13,-0.00744226667465155,0.027));
#1534=CARTESIAN_POINT('',(0.0011999999998955,-0.00744226667465156,0.027));
#1535=CARTESIAN_POINT('',(0.0011999999998955,-0.00744226667465156,0.029));
#1536=CARTESIAN_POINT('',(0.0011999999998955,-0.00744226667465156,0.029));
#1537=CARTESIAN_POINT('',(-1.04504079001533E-13,-0.00744226667465155,0.029));
#1538=CARTESIAN_POINT('',(0.0011999999998955,-0.00994226667465156,0.029));
#1539=CARTESIAN_POINT('',(0.0011999999998955,-0.00994226667465156,0.027));
#1540=CARTESIAN_POINT('',(0.0011999999998955,-0.0124422666746515,0.027));
#1541=CARTESIAN_POINT('',(0.0011999999998955,-0.0124422666746515,0.029));
#1542=CARTESIAN_POINT('',(0.0011999999998955,-0.0124422666746515,0.029));
#1543=CARTESIAN_POINT('',(0.0011999999998955,-0.00994226667465156,0.029));
#1544=CARTESIAN_POINT('',(-1.0450538004414E-13,-1.26300879477181E-13,0.029));
#1545=CARTESIAN_POINT('',(-1.0450538004414E-13,-1.26300879477181E-13,0.027));
#1546=CARTESIAN_POINT('',(0.00518190285261676,-0.0113753190209257,0.027));
#1547=CARTESIAN_POINT('',(0.00518190285261676,-0.0113753190209257,0.029));
#1548=CARTESIAN_POINT('',(0.00518190285261676,-0.0113753190209257,0.029));
#1549=CARTESIAN_POINT('',(-1.0450538004414E-13,-1.26300879477181E-13,0.029));
#1550=CARTESIAN_POINT('',(0.00393190285261677,-0.00921025551146461,0.029));
#1551=CARTESIAN_POINT('',(0.00393190285261677,-0.00921025551146461,0.027));
#1552=CARTESIAN_POINT('',(0.00268190285261677,-0.00704519200200351,0.027));
#1553=CARTESIAN_POINT('',(0.00268190285261677,-0.00704519200200351,0.029));
#1554=CARTESIAN_POINT('',(0.00268190285261677,-0.00704519200200351,0.029));
#1555=CARTESIAN_POINT('',(0.00393190285261677,-0.00921025551146461,0.029));
#1556=CARTESIAN_POINT('',(0.0037211333371581,-0.00644519200200351,0.029));
#1557=CARTESIAN_POINT('',(0.0037211333371581,-0.00644519200200351,0.027));
#1558=CARTESIAN_POINT('',(0.00476036382169943,-0.00584519200200351,0.027));
#1559=CARTESIAN_POINT('',(0.00476036382169943,-0.00584519200200351,0.029));
#1560=CARTESIAN_POINT('',(0.00476036382169943,-0.00584519200200351,0.029));
#1561=CARTESIAN_POINT('',(0.0037211333371581,-0.00644519200200351,0.029));
#1562=CARTESIAN_POINT('',(0.00601036382169943,-0.00801025551146461,0.029));
#1563=CARTESIAN_POINT('',(0.00601036382169943,-0.00801025551146461,0.027));
#1564=CARTESIAN_POINT('',(0.00726036382169941,-0.0101753190209257,0.027));
#1565=CARTESIAN_POINT('',(0.00726036382169941,-0.0101753190209257,0.029));
#1566=CARTESIAN_POINT('',(0.00726036382169941,-0.0101753190209257,0.029));
#1567=CARTESIAN_POINT('',(0.00601036382169943,-0.00801025551146461,0.029));
#1568=CARTESIAN_POINT('',(-1.04567396408406E-13,-1.26296542668491E-13,0.029));
#1569=CARTESIAN_POINT('',(-1.04567396408406E-13,-1.26296542668491E-13,0.027));
#1570=CARTESIAN_POINT('',(0.0101753190206948,-0.00726036382193027,0.027));
#1571=CARTESIAN_POINT('',(0.0101753190206948,-0.00726036382193027,0.029));
#1572=CARTESIAN_POINT('',(0.0101753190206948,-0.00726036382193027,0.029));
#1573=CARTESIAN_POINT('',(-1.04567396408406E-13,-1.26296542668491E-13,0.029));
#1574=CARTESIAN_POINT('',(0.00801025551123375,-0.00601036382193028,0.029));
#1575=CARTESIAN_POINT('',(0.00801025551123375,-0.00601036382193028,0.027));
#1576=CARTESIAN_POINT('',(0.00584519200177266,-0.00476036382193028,0.027));
#1577=CARTESIAN_POINT('',(0.00584519200177266,-0.00476036382193028,0.029));
#1578=CARTESIAN_POINT('',(0.00584519200177266,-0.00476036382193028,0.029));
#1579=CARTESIAN_POINT('',(0.00801025551123375,-0.00601036382193028,0.029));
#1580=CARTESIAN_POINT('',(0.00644519200177266,-0.00372113333738895,0.029));
#1581=CARTESIAN_POINT('',(0.00644519200177266,-0.00372113333738895,0.027));
#1582=CARTESIAN_POINT('',(0.00704519200177266,-0.00268190285284763,0.027));
#1583=CARTESIAN_POINT('',(0.00704519200177266,-0.00268190285284763,0.029));
#1584=CARTESIAN_POINT('',(0.00704519200177266,-0.00268190285284763,0.029));
#1585=CARTESIAN_POINT('',(0.00644519200177266,-0.00372113333738895,0.029));
#1586=CARTESIAN_POINT('',(0.00921025551123375,-0.00393190285284763,0.029));
#1587=CARTESIAN_POINT('',(0.00921025551123375,-0.00393190285284763,0.027));
#1588=CARTESIAN_POINT('',(0.0113753190206948,-0.00518190285284762,0.027));
#1589=CARTESIAN_POINT('',(0.0113753190206948,-0.00518190285284762,0.029));
#1590=CARTESIAN_POINT('',(0.0113753190206948,-0.00518190285284762,0.029));
#1591=CARTESIAN_POINT('',(0.00921025551123375,-0.00393190285284763,0.029));
#1592=CARTESIAN_POINT('',(-1.04563059599716E-13,-1.26326791909104E-13,0.029));
#1593=CARTESIAN_POINT('',(-1.04563059599716E-13,-1.26326791909104E-13,0.027));
#1594=CARTESIAN_POINT('',(0.0124422666744207,-0.00120000000012634,0.027));
#1595=CARTESIAN_POINT('',(0.0124422666744207,-0.00120000000012634,0.029));
#1596=CARTESIAN_POINT('',(0.0124422666744207,-0.00120000000012634,0.029));
#1597=CARTESIAN_POINT('',(-1.04563059599716E-13,-1.26326791909104E-13,0.029));
#1598=CARTESIAN_POINT('',(0.0099422666744207,-0.00120000000012635,0.029));
#1599=CARTESIAN_POINT('',(0.0099422666744207,-0.00120000000012635,0.027));
#1600=CARTESIAN_POINT('',(0.0074422666744207,-0.00120000000012635,0.027));
#1601=CARTESIAN_POINT('',(0.0074422666744207,-0.00120000000012635,0.029));
#1602=CARTESIAN_POINT('',(0.0074422666744207,-0.00120000000012635,0.029));
#1603=CARTESIAN_POINT('',(0.0099422666744207,-0.00120000000012635,0.029));
#1604=CARTESIAN_POINT('',(0.00744226667442071,-1.26349451734509E-13,0.029));
#1605=CARTESIAN_POINT('',(0.00744226667442071,-1.26349451734509E-13,0.027));
#1606=CARTESIAN_POINT('',(0.00744226667442071,0.00119999999987365,0.027));
#1607=CARTESIAN_POINT('',(0.00744226667442071,0.00119999999987365,0.029));
#1608=CARTESIAN_POINT('',(0.00744226667442071,0.00119999999987365,0.029));
#1609=CARTESIAN_POINT('',(0.00744226667442071,-1.26349451734509E-13,0.029));
#1610=CARTESIAN_POINT('',(0.0099422666744207,0.00119999999987365,0.029));
#1611=CARTESIAN_POINT('',(0.0099422666744207,0.00119999999987365,0.027));
#1612=CARTESIAN_POINT('',(0.0124422666744207,0.00119999999987365,0.027));
#1613=CARTESIAN_POINT('',(0.0124422666744207,0.00119999999987365,0.029));
#1614=CARTESIAN_POINT('',(0.0124422666744207,0.00119999999987365,0.029));
#1615=CARTESIAN_POINT('',(0.0099422666744207,0.00119999999987365,0.029));
#1616=CARTESIAN_POINT('',(-1.04551783897122E-13,-1.26372545240783E-13,0.029));
#1617=CARTESIAN_POINT('',(-1.04551783897122E-13,-1.26372545240783E-13,0.027));
#1618=CARTESIAN_POINT('',(0.0113753190206948,0.00518190285259491,0.027));
#1619=CARTESIAN_POINT('',(0.0113753190206948,0.00518190285259491,0.029));
#1620=CARTESIAN_POINT('',(0.0113753190206948,0.00518190285259491,0.029));
#1621=CARTESIAN_POINT('',(-1.04551783897122E-13,-1.26372545240783E-13,0.029));
#1622=CARTESIAN_POINT('',(0.00921025551123376,0.00393190285259492,0.029));
#1623=CARTESIAN_POINT('',(0.00921025551123376,0.00393190285259492,0.027));
#1624=CARTESIAN_POINT('',(0.00704519200177266,0.00268190285259492,0.027));
#1625=CARTESIAN_POINT('',(0.00704519200177266,0.00268190285259492,0.029));
#1626=CARTESIAN_POINT('',(0.00704519200177266,0.00268190285259492,0.029));
#1627=CARTESIAN_POINT('',(0.00921025551123376,0.00393190285259492,0.029));
#1628=CARTESIAN_POINT('',(0.00644519200177267,0.00372113333713625,0.029));
#1629=CARTESIAN_POINT('',(0.00644519200177267,0.00372113333713625,0.027));
#1630=CARTESIAN_POINT('',(0.00584519200177266,0.00476036382167758,0.027));
#1631=CARTESIAN_POINT('',(0.00584519200177266,0.00476036382167758,0.029));
#1632=CARTESIAN_POINT('',(0.00584519200177266,0.00476036382167758,0.029));
#1633=CARTESIAN_POINT('',(0.00644519200177267,0.00372113333713625,0.029));
#1634=CARTESIAN_POINT('',(0.00801025551123376,0.00601036382167757,0.029));
#1635=CARTESIAN_POINT('',(0.00801025551123376,0.00601036382167757,0.027));
#1636=CARTESIAN_POINT('',(0.0101753190206948,0.00726036382167756,0.027));
#1637=CARTESIAN_POINT('',(0.0101753190206948,0.00726036382167756,0.029));
#1638=CARTESIAN_POINT('',(0.0101753190206948,0.00726036382167756,0.029));
#1639=CARTESIAN_POINT('',(0.00801025551123376,0.00601036382167757,0.029));
#1640=CARTESIAN_POINT('',(-1.04544845003218E-13,-1.26386314608373E-13,0.029));
#1641=CARTESIAN_POINT('',(-1.04544845003218E-13,-1.26386314608373E-13,0.027));
#1642=CARTESIAN_POINT('',(0.00726036382169941,0.010175319020673,0.027));
#1643=CARTESIAN_POINT('',(0.00726036382169941,0.010175319020673,0.029));
#1644=CARTESIAN_POINT('',(0.00726036382169941,0.010175319020673,0.029));
#1645=CARTESIAN_POINT('',(-1.04544845003218E-13,-1.26386314608373E-13,0.029));
#1646=CARTESIAN_POINT('',(0.00601036382169943,0.00801025551121191,0.029));
#1647=CARTESIAN_POINT('',(0.00601036382169943,0.00801025551121191,0.027));
#1648=CARTESIAN_POINT('',(0.00476036382169943,0.00584519200175082,0.027));
#1649=CARTESIAN_POINT('',(0.00476036382169943,0.00584519200175082,0.029));
#1650=CARTESIAN_POINT('',(0.00476036382169943,0.00584519200175082,0.029));
#1651=CARTESIAN_POINT('',(0.00601036382169943,0.00801025551121191,0.029));
#1652=CARTESIAN_POINT('',(0.0037211333371581,0.00644519200175082,0.029));
#1653=CARTESIAN_POINT('',(0.0037211333371581,0.00644519200175082,0.027));
#1654=CARTESIAN_POINT('',(0.00268190285261677,0.00704519200175081,0.027));
#1655=CARTESIAN_POINT('',(0.00268190285261677,0.00704519200175081,0.029));
#1656=CARTESIAN_POINT('',(0.00268190285261677,0.00704519200175081,0.029));
#1657=CARTESIAN_POINT('',(0.0037211333371581,0.00644519200175082,0.029));
#1658=CARTESIAN_POINT('',(0.00393190285261678,0.00921025551121191,0.029));
#1659=CARTESIAN_POINT('',(0.00393190285261678,0.00921025551121191,0.027));
#1660=CARTESIAN_POINT('',(0.00518190285261676,0.011375319020673,0.027));
#1661=CARTESIAN_POINT('',(0.00518190285261676,0.011375319020673,0.029));
#1662=CARTESIAN_POINT('',(0.00518190285261676,0.011375319020673,0.029));
#1663=CARTESIAN_POINT('',(0.00393190285261678,0.00921025551121191,0.029));
#1664=CARTESIAN_POINT('',(-1.04505488464357E-13,-1.2637460522491E-13,0.029));
#1665=CARTESIAN_POINT('',(-1.04505488464357E-13,-1.2637460522491E-13,0.027));
#1666=CARTESIAN_POINT('',(0.0011999999998955,0.0124422666743988,0.027));
#1667=CARTESIAN_POINT('',(0.0011999999998955,0.0124422666743988,0.029));
#1668=CARTESIAN_POINT('',(0.0011999999998955,0.0124422666743988,0.029));
#1669=CARTESIAN_POINT('',(-1.04505488464357E-13,-1.2637460522491E-13,0.029));
#1670=CARTESIAN_POINT('',(0.0011999999998955,0.00994226667439884,0.029));
#1671=CARTESIAN_POINT('',(0.0011999999998955,0.00994226667439884,0.027));
#1672=CARTESIAN_POINT('',(0.0011999999998955,0.00744226667439884,0.027));
#1673=CARTESIAN_POINT('',(0.0011999999998955,0.00744226667439884,0.029));
#1674=CARTESIAN_POINT('',(0.0011999999998955,0.00744226667439884,0.029));
#1675=CARTESIAN_POINT('',(0.0011999999998955,0.00994226667439884,0.029));
#1676=CARTESIAN_POINT('',(-1.04503428480229E-13,0.00744226667439886,0.029));
#1677=CARTESIAN_POINT('',(-1.04503428480229E-13,0.00744226667439886,0.027));
#1678=CARTESIAN_POINT('',(-1.04503428480229E-13,0.00744226667439886,0.029));
#1679=CARTESIAN_POINT('',(-1.04503211639795E-13,-1.2634777325256E-13,0.029));
#1680=CARTESIAN_POINT('',(-1.04503211639795E-13,-1.2634777325256E-13,0.029));
#1681=CARTESIAN_POINT('',(0.0026999999998955,-1.2634777325256E-13,0.029));
#1682=CARTESIAN_POINT('',(-1.04503211639795E-13,-1.2634777325256E-13,0.027));
#1683=CARTESIAN_POINT('',(0.0026999999998955,-1.2634777325256E-13,0.027));
#1684=CARTESIAN_POINT('',(-1.04503211639795E-13,-1.26348584372771E-13,0.029));
#1685=CARTESIAN_POINT('',(-1.04503211639795E-13,-1.26348584372771E-13,0.027));
#1686=MECHANICAL_DESIGN_GEOMETRIC_PRESENTATION_REPRESENTATION('',(#1025),
#1687);
#1687=(
GEOMETRIC_REPRESENTATION_CONTEXT(3)
GLOBAL_UNCERTAINTY_ASSIGNED_CONTEXT((#1688))
GLOBAL_UNIT_ASSIGNED_CONTEXT((#1691,#1690,#1689))
REPRESENTATION_CONTEXT('SunShell','TOP_LEVEL_ASSEMBLY_PART')
);
#1688=UNCERTAINTY_MEASURE_WITH_UNIT(LENGTH_MEASURE(1.E-8),#1691,
'DISTANCE_ACCURACY_VALUE','Maximum Tolerance applied to model');
#1689=(
NAMED_UNIT(*)
SI_UNIT($,.STERADIAN.)
SOLID_ANGLE_UNIT()
);
#1690=(
NAMED_UNIT(*)
PLANE_ANGLE_UNIT()
SI_UNIT($,.RADIAN.)
);
#1691=(
LENGTH_UNIT()
NAMED_UNIT(*)
SI_UNIT($,.METRE.)
);
#1692=PRODUCT_DEFINITION_SHAPE('','',#1693);
#1693=PRODUCT_DEFINITION('','',#1695,#1694);
#1694=PRODUCT_DEFINITION_CONTEXT('',#1701,'design');
#1695=PRODUCT_DEFINITION_FORMATION_WITH_SPECIFIED_SOURCE('','',#1697,
 .NOT_KNOWN.);
#1696=PRODUCT_RELATED_PRODUCT_CATEGORY('','',(#1697));
#1697=PRODUCT('SunShell','SunShell','SunShell',(#1699));
#1698=PRODUCT_CATEGORY('','');
#1699=PRODUCT_CONTEXT('',#1701,'mechanical');
#1700=APPLICATION_PROTOCOL_DEFINITION('international standard',
'ap242_managed_model_based_3d_engineering',2020,#1701);
#1701=APPLICATION_CONTEXT('managed model based 3d engineering');
ENDSEC;
END-ISO-10303-21;
