ISO-10303-21;
HEADER;
/* Generated by software containing ST-Developer
 * from STEP Tools, Inc. (www.steptools.com) 
 */
/* OPTION: using custom renumber hook */

FILE_DESCRIPTION(
/* description */ ('STEP AP242 Edition 2',
'CAx-IF Rec.Pracs.---Representation and Presentation of Product Manufa
cturing Information (PMI)---4.0---2014-10-13',
'CAx-IF Rec.Pracs.---3D Tessellated Geometry---0.4---2014-09-14','2;1',
'CAx-IF Rec.Pracs.---User Defined Attributes---1.5---2016-08-15'),
/* implementation_level */ '2;1');

FILE_NAME(
/* name */ 'Dice_Tower - stage_2',
/* time_stamp */ '2026-01-12T20:29:20Z',
/* author */ (''),
/* organization */ (''),
/* preprocessor_version */ 'ST-DEVELOPER v20',
/* originating_system */ 'ONSHAPE BY PTC INC, 1.209',
/* authorisation */ '  ');

FILE_SCHEMA (('AP242_MANAGED_MODEL_BASED_3D_ENGINEERING_MIM_LF { 1 0 10303 442 3 1 4 }'));
ENDSEC;

DATA;
#10=SHAPE_REPRESENTATION_RELATIONSHIP('','',#1040,#11);
#11=ADVANCED_BREP_SHAPE_REPRESENTATION('',(#1038),#1786);
#12=CYLINDRICAL_SURFACE('',#1078,0.00228934414583449);
#13=CYLINDRICAL_SURFACE('',#1080,0.00217477059295697);
#14=CYLINDRICAL_SURFACE('',#1082,0.00331442051423476);
#15=CYLINDRICAL_SURFACE('',#1084,0.00523746250113484);
#16=CYLINDRICAL_SURFACE('',#1086,0.00332356853605295);
#17=CYLINDRICAL_SURFACE('',#1088,0.00198578133411022);
#18=CYLINDRICAL_SURFACE('',#1091,0.00831514195129495);
#19=CYLINDRICAL_SURFACE('',#1093,0.00142340733601238);
#20=CYLINDRICAL_SURFACE('',#1095,0.0034914751181524);
#21=CYLINDRICAL_SURFACE('',#1097,0.007118899451243);
#22=CYLINDRICAL_SURFACE('',#1099,0.00169126089043374);
#23=CYLINDRICAL_SURFACE('',#1101,0.00115516651632144);
#24=CYLINDRICAL_SURFACE('',#1103,0.00121664356357131);
#25=CYLINDRICAL_SURFACE('',#1105,0.00509532425835385);
#26=CYLINDRICAL_SURFACE('',#1107,0.0098160450437051);
#27=CYLINDRICAL_SURFACE('',#1109,0.0167644685259006);
#28=CYLINDRICAL_SURFACE('',#1111,0.0293322694737492);
#29=CYLINDRICAL_SURFACE('',#1113,0.0397589157459654);
#30=CYLINDRICAL_SURFACE('',#1119,0.0204856427656885);
#31=CYLINDRICAL_SURFACE('',#1121,0.0208249641365143);
#32=CYLINDRICAL_SURFACE('',#1123,0.0184541392840611);
#33=CYLINDRICAL_SURFACE('',#1125,0.00861718465647332);
#34=CYLINDRICAL_SURFACE('',#1127,0.00441848997829934);
#35=B_SPLINE_SURFACE_WITH_KNOTS('',3,1,((#1593,#1594),(#1595,#1596),(#1597,
#1598),(#1599,#1600)),.SURF_OF_LINEAR_EXTRUSION.,.F.,.F.,.F.,(4,4),(2,2),
(0.,1.),(0.,1.),.PIECEWISE_BEZIER_KNOTS.);
#36=B_SPLINE_SURFACE_WITH_KNOTS('',3,1,((#1616,#1617),(#1618,#1619),(#1620,
#1621),(#1622,#1623)),.SURF_OF_LINEAR_EXTRUSION.,.F.,.F.,.F.,(4,4),(2,2),
(0.,1.),(0.,1.),.PIECEWISE_BEZIER_KNOTS.);
#37=B_SPLINE_SURFACE_WITH_KNOTS('',3,1,((#1629,#1630),(#1631,#1632),(#1633,
#1634),(#1635,#1636)),.SURF_OF_LINEAR_EXTRUSION.,.F.,.F.,.F.,(4,4),(2,2),
(0.,1.),(0.,1.),.PIECEWISE_BEZIER_KNOTS.);
#38=B_SPLINE_SURFACE_WITH_KNOTS('',3,1,((#1690,#1691),(#1692,#1693),(#1694,
#1695),(#1696,#1697)),.SURF_OF_LINEAR_EXTRUSION.,.F.,.F.,.F.,(4,4),(2,2),
(0.,1.),(0.,1.),.PIECEWISE_BEZIER_KNOTS.);
#39=B_SPLINE_SURFACE_WITH_KNOTS('',3,1,((#1703,#1704),(#1705,#1706),(#1707,
#1708),(#1709,#1710)),.SURF_OF_LINEAR_EXTRUSION.,.F.,.F.,.F.,(4,4),(2,2),
(0.,1.),(0.,1.),.PIECEWISE_BEZIER_KNOTS.);
#40=CONICAL_SURFACE('',#1076,0.0718555332430175,0.0523598775598298);
#41=B_SPLINE_CURVE_WITH_KNOTS('',2,(#1481,#1482,#1483),.UNSPECIFIED.,.F.,
 .F.,(3,3),(0.,1.),.PIECEWISE_BEZIER_KNOTS.);
#42=B_SPLINE_CURVE_WITH_KNOTS('',2,(#1513,#1514,#1515),.UNSPECIFIED.,.F.,
 .F.,(3,3),(0.,1.),.PIECEWISE_BEZIER_KNOTS.);
#43=B_SPLINE_CURVE_WITH_KNOTS('',2,(#1517,#1518,#1519),.UNSPECIFIED.,.F.,
 .F.,(3,3),(0.,1.),.PIECEWISE_BEZIER_KNOTS.);
#44=B_SPLINE_CURVE_WITH_KNOTS('',2,(#1545,#1546,#1547),.UNSPECIFIED.,.F.,
 .F.,(3,3),(0.,1.),.PIECEWISE_BEZIER_KNOTS.);
#45=B_SPLINE_CURVE_WITH_KNOTS('',2,(#1549,#1550,#1551),.UNSPECIFIED.,.F.,
 .F.,(3,3),(0.,1.),.PIECEWISE_BEZIER_KNOTS.);
#46=B_SPLINE_CURVE_WITH_KNOTS('',2,(#1603,#1604,#1605),.UNSPECIFIED.,.F.,
 .F.,(3,3),(0.,1.),.PIECEWISE_BEZIER_KNOTS.);
#47=B_SPLINE_CURVE_WITH_KNOTS('',2,(#1626,#1627,#1628),.UNSPECIFIED.,.F.,
 .F.,(3,3),(0.,1.),.PIECEWISE_BEZIER_KNOTS.);
#48=B_SPLINE_CURVE_WITH_KNOTS('',2,(#1639,#1640,#1641),.UNSPECIFIED.,.F.,
 .F.,(3,3),(0.,1.),.PIECEWISE_BEZIER_KNOTS.);
#49=B_SPLINE_CURVE_WITH_KNOTS('',2,(#1700,#1701,#1702),.UNSPECIFIED.,.F.,
 .F.,(3,3),(0.,1.),.PIECEWISE_BEZIER_KNOTS.);
#50=B_SPLINE_CURVE_WITH_KNOTS('',2,(#1713,#1714,#1715),.UNSPECIFIED.,.F.,
 .F.,(3,3),(0.,1.),.PIECEWISE_BEZIER_KNOTS.);
#51=CIRCLE('',#1047,0.0702832998645263);
#52=CIRCLE('',#1048,0.00228934414583449);
#53=CIRCLE('',#1049,0.00441848997829934);
#54=CIRCLE('',#1050,0.00861718465647332);
#55=CIRCLE('',#1051,0.0184541392840611);
#56=CIRCLE('',#1052,0.0208249641365143);
#57=CIRCLE('',#1053,0.0204856427656885);
#58=CIRCLE('',#1054,0.0397589157459654);
#59=CIRCLE('',#1055,0.0293322694737492);
#60=CIRCLE('',#1056,0.0167644685259006);
#61=CIRCLE('',#1057,0.0098160450437051);
#62=CIRCLE('',#1058,0.00509532425835385);
#63=CIRCLE('',#1059,0.00121664356357131);
#64=CIRCLE('',#1060,0.00115516651632144);
#65=CIRCLE('',#1061,0.00169126089043374);
#66=CIRCLE('',#1062,0.007118899451243);
#67=CIRCLE('',#1063,0.0034914751181524);
#68=CIRCLE('',#1064,0.00142340733601238);
#69=CIRCLE('',#1065,0.00831514195129495);
#70=CIRCLE('',#1066,0.00198578133411022);
#71=CIRCLE('',#1067,0.00332586141866664);
#72=CIRCLE('',#1068,0.00523746250113484);
#73=CIRCLE('',#1069,0.00331442051423476);
#74=CIRCLE('',#1070,0.00217477059295697);
#75=CIRCLE('',#1075,0.0718555332430175);
#76=CIRCLE('',#1079,0.00228934414583449);
#77=CIRCLE('',#1081,0.00217477059295697);
#78=CIRCLE('',#1083,0.00331442051423476);
#79=CIRCLE('',#1085,0.00523746250113484);
#80=CIRCLE('',#1087,0.00332586141866664);
#81=CIRCLE('',#1089,0.00198578133411022);
#82=CIRCLE('',#1092,0.00831514195129495);
#83=CIRCLE('',#1094,0.00142340733601238);
#84=CIRCLE('',#1096,0.0034914751181524);
#85=CIRCLE('',#1098,0.007118899451243);
#86=CIRCLE('',#1100,0.00169126089043374);
#87=CIRCLE('',#1102,0.00115516651632144);
#88=CIRCLE('',#1104,0.00121664356357131);
#89=CIRCLE('',#1106,0.00509532425835385);
#90=CIRCLE('',#1108,0.0098160450437051);
#91=CIRCLE('',#1110,0.0167644685259006);
#92=CIRCLE('',#1112,0.0293322694737492);
#93=CIRCLE('',#1114,0.0397589157459654);
#94=CIRCLE('',#1120,0.0204856427656885);
#95=CIRCLE('',#1122,0.0208249641365143);
#96=CIRCLE('',#1124,0.0184541392840611);
#97=CIRCLE('',#1126,0.00861718465647332);
#98=CIRCLE('',#1128,0.00441848997829934);
#99=ORIENTED_EDGE('',*,*,#397,.F.);
#100=ORIENTED_EDGE('',*,*,#398,.T.);
#101=ORIENTED_EDGE('',*,*,#399,.T.);
#102=ORIENTED_EDGE('',*,*,#400,.F.);
#103=ORIENTED_EDGE('',*,*,#401,.F.);
#104=ORIENTED_EDGE('',*,*,#400,.T.);
#105=ORIENTED_EDGE('',*,*,#402,.T.);
#106=ORIENTED_EDGE('',*,*,#403,.F.);
#107=ORIENTED_EDGE('',*,*,#398,.F.);
#108=ORIENTED_EDGE('',*,*,#404,.T.);
#109=ORIENTED_EDGE('',*,*,#405,.T.);
#110=ORIENTED_EDGE('',*,*,#406,.F.);
#111=ORIENTED_EDGE('',*,*,#405,.F.);
#112=ORIENTED_EDGE('',*,*,#407,.T.);
#113=ORIENTED_EDGE('',*,*,#403,.T.);
#114=ORIENTED_EDGE('',*,*,#408,.F.);
#115=ORIENTED_EDGE('',*,*,#409,.F.);
#116=ORIENTED_EDGE('',*,*,#410,.F.);
#117=ORIENTED_EDGE('',*,*,#411,.F.);
#118=ORIENTED_EDGE('',*,*,#412,.F.);
#119=ORIENTED_EDGE('',*,*,#413,.F.);
#120=ORIENTED_EDGE('',*,*,#414,.T.);
#121=ORIENTED_EDGE('',*,*,#415,.F.);
#122=ORIENTED_EDGE('',*,*,#416,.T.);
#123=ORIENTED_EDGE('',*,*,#417,.T.);
#124=ORIENTED_EDGE('',*,*,#418,.F.);
#125=ORIENTED_EDGE('',*,*,#419,.T.);
#126=ORIENTED_EDGE('',*,*,#420,.T.);
#127=ORIENTED_EDGE('',*,*,#421,.T.);
#128=ORIENTED_EDGE('',*,*,#422,.T.);
#129=ORIENTED_EDGE('',*,*,#423,.T.);
#130=ORIENTED_EDGE('',*,*,#424,.T.);
#131=ORIENTED_EDGE('',*,*,#425,.T.);
#132=ORIENTED_EDGE('',*,*,#426,.T.);
#133=ORIENTED_EDGE('',*,*,#427,.T.);
#134=ORIENTED_EDGE('',*,*,#428,.T.);
#135=ORIENTED_EDGE('',*,*,#429,.T.);
#136=ORIENTED_EDGE('',*,*,#430,.T.);
#137=ORIENTED_EDGE('',*,*,#431,.T.);
#138=ORIENTED_EDGE('',*,*,#432,.T.);
#139=ORIENTED_EDGE('',*,*,#433,.T.);
#140=ORIENTED_EDGE('',*,*,#434,.T.);
#141=ORIENTED_EDGE('',*,*,#435,.T.);
#142=ORIENTED_EDGE('',*,*,#436,.T.);
#143=ORIENTED_EDGE('',*,*,#437,.T.);
#144=ORIENTED_EDGE('',*,*,#438,.T.);
#145=ORIENTED_EDGE('',*,*,#439,.T.);
#146=ORIENTED_EDGE('',*,*,#440,.T.);
#147=ORIENTED_EDGE('',*,*,#441,.T.);
#148=ORIENTED_EDGE('',*,*,#442,.T.);
#149=ORIENTED_EDGE('',*,*,#443,.T.);
#150=ORIENTED_EDGE('',*,*,#444,.T.);
#151=ORIENTED_EDGE('',*,*,#445,.T.);
#152=ORIENTED_EDGE('',*,*,#446,.T.);
#153=ORIENTED_EDGE('',*,*,#447,.T.);
#154=ORIENTED_EDGE('',*,*,#448,.T.);
#155=ORIENTED_EDGE('',*,*,#449,.T.);
#156=ORIENTED_EDGE('',*,*,#450,.T.);
#157=ORIENTED_EDGE('',*,*,#451,.T.);
#158=ORIENTED_EDGE('',*,*,#452,.T.);
#159=ORIENTED_EDGE('',*,*,#453,.T.);
#160=ORIENTED_EDGE('',*,*,#454,.T.);
#161=ORIENTED_EDGE('',*,*,#402,.F.);
#162=ORIENTED_EDGE('',*,*,#399,.F.);
#163=ORIENTED_EDGE('',*,*,#406,.T.);
#164=ORIENTED_EDGE('',*,*,#408,.T.);
#165=ORIENTED_EDGE('',*,*,#455,.T.);
#166=ORIENTED_EDGE('',*,*,#456,.T.);
#167=ORIENTED_EDGE('',*,*,#457,.T.);
#168=ORIENTED_EDGE('',*,*,#458,.F.);
#169=ORIENTED_EDGE('',*,*,#413,.T.);
#170=ORIENTED_EDGE('',*,*,#459,.T.);
#171=ORIENTED_EDGE('',*,*,#420,.F.);
#172=ORIENTED_EDGE('',*,*,#460,.T.);
#173=ORIENTED_EDGE('',*,*,#461,.F.);
#174=ORIENTED_EDGE('',*,*,#459,.F.);
#175=ORIENTED_EDGE('',*,*,#462,.F.);
#176=ORIENTED_EDGE('',*,*,#418,.T.);
#177=ORIENTED_EDGE('',*,*,#463,.T.);
#178=ORIENTED_EDGE('',*,*,#464,.T.);
#179=ORIENTED_EDGE('',*,*,#465,.F.);
#180=ORIENTED_EDGE('',*,*,#466,.F.);
#181=ORIENTED_EDGE('',*,*,#467,.F.);
#182=ORIENTED_EDGE('',*,*,#468,.F.);
#183=ORIENTED_EDGE('',*,*,#469,.T.);
#184=ORIENTED_EDGE('',*,*,#455,.F.);
#185=ORIENTED_EDGE('',*,*,#461,.T.);
#186=ORIENTED_EDGE('',*,*,#470,.F.);
#187=ORIENTED_EDGE('',*,*,#464,.F.);
#188=ORIENTED_EDGE('',*,*,#471,.F.);
#189=ORIENTED_EDGE('',*,*,#472,.F.);
#190=ORIENTED_EDGE('',*,*,#421,.F.);
#191=ORIENTED_EDGE('',*,*,#472,.T.);
#192=ORIENTED_EDGE('',*,*,#473,.F.);
#193=ORIENTED_EDGE('',*,*,#416,.F.);
#194=ORIENTED_EDGE('',*,*,#474,.F.);
#195=ORIENTED_EDGE('',*,*,#456,.F.);
#196=ORIENTED_EDGE('',*,*,#469,.F.);
#197=ORIENTED_EDGE('',*,*,#423,.F.);
#198=ORIENTED_EDGE('',*,*,#475,.F.);
#199=ORIENTED_EDGE('',*,*,#476,.T.);
#200=ORIENTED_EDGE('',*,*,#477,.T.);
#201=ORIENTED_EDGE('',*,*,#422,.F.);
#202=ORIENTED_EDGE('',*,*,#478,.F.);
#203=ORIENTED_EDGE('',*,*,#479,.T.);
#204=ORIENTED_EDGE('',*,*,#475,.T.);
#205=ORIENTED_EDGE('',*,*,#454,.F.);
#206=ORIENTED_EDGE('',*,*,#480,.F.);
#207=ORIENTED_EDGE('',*,*,#481,.T.);
#208=ORIENTED_EDGE('',*,*,#478,.T.);
#209=ORIENTED_EDGE('',*,*,#453,.F.);
#210=ORIENTED_EDGE('',*,*,#482,.F.);
#211=ORIENTED_EDGE('',*,*,#483,.T.);
#212=ORIENTED_EDGE('',*,*,#480,.T.);
#213=ORIENTED_EDGE('',*,*,#452,.F.);
#214=ORIENTED_EDGE('',*,*,#484,.F.);
#215=ORIENTED_EDGE('',*,*,#485,.T.);
#216=ORIENTED_EDGE('',*,*,#482,.T.);
#217=ORIENTED_EDGE('',*,*,#451,.F.);
#218=ORIENTED_EDGE('',*,*,#486,.F.);
#219=ORIENTED_EDGE('',*,*,#487,.T.);
#220=ORIENTED_EDGE('',*,*,#484,.T.);
#221=ORIENTED_EDGE('',*,*,#450,.F.);
#222=ORIENTED_EDGE('',*,*,#488,.F.);
#223=ORIENTED_EDGE('',*,*,#489,.T.);
#224=ORIENTED_EDGE('',*,*,#486,.T.);
#225=ORIENTED_EDGE('',*,*,#449,.F.);
#226=ORIENTED_EDGE('',*,*,#490,.F.);
#227=ORIENTED_EDGE('',*,*,#491,.T.);
#228=ORIENTED_EDGE('',*,*,#488,.T.);
#229=ORIENTED_EDGE('',*,*,#448,.F.);
#230=ORIENTED_EDGE('',*,*,#492,.F.);
#231=ORIENTED_EDGE('',*,*,#493,.T.);
#232=ORIENTED_EDGE('',*,*,#490,.T.);
#233=ORIENTED_EDGE('',*,*,#447,.F.);
#234=ORIENTED_EDGE('',*,*,#494,.F.);
#235=ORIENTED_EDGE('',*,*,#495,.T.);
#236=ORIENTED_EDGE('',*,*,#492,.T.);
#237=ORIENTED_EDGE('',*,*,#446,.F.);
#238=ORIENTED_EDGE('',*,*,#496,.F.);
#239=ORIENTED_EDGE('',*,*,#497,.T.);
#240=ORIENTED_EDGE('',*,*,#494,.T.);
#241=ORIENTED_EDGE('',*,*,#445,.F.);
#242=ORIENTED_EDGE('',*,*,#498,.F.);
#243=ORIENTED_EDGE('',*,*,#499,.T.);
#244=ORIENTED_EDGE('',*,*,#496,.T.);
#245=ORIENTED_EDGE('',*,*,#444,.F.);
#246=ORIENTED_EDGE('',*,*,#500,.F.);
#247=ORIENTED_EDGE('',*,*,#501,.T.);
#248=ORIENTED_EDGE('',*,*,#498,.T.);
#249=ORIENTED_EDGE('',*,*,#443,.F.);
#250=ORIENTED_EDGE('',*,*,#502,.F.);
#251=ORIENTED_EDGE('',*,*,#503,.T.);
#252=ORIENTED_EDGE('',*,*,#500,.T.);
#253=ORIENTED_EDGE('',*,*,#442,.F.);
#254=ORIENTED_EDGE('',*,*,#504,.F.);
#255=ORIENTED_EDGE('',*,*,#505,.T.);
#256=ORIENTED_EDGE('',*,*,#502,.T.);
#257=ORIENTED_EDGE('',*,*,#441,.F.);
#258=ORIENTED_EDGE('',*,*,#506,.F.);
#259=ORIENTED_EDGE('',*,*,#507,.T.);
#260=ORIENTED_EDGE('',*,*,#504,.T.);
#261=ORIENTED_EDGE('',*,*,#440,.F.);
#262=ORIENTED_EDGE('',*,*,#508,.F.);
#263=ORIENTED_EDGE('',*,*,#509,.T.);
#264=ORIENTED_EDGE('',*,*,#506,.T.);
#265=ORIENTED_EDGE('',*,*,#439,.F.);
#266=ORIENTED_EDGE('',*,*,#510,.F.);
#267=ORIENTED_EDGE('',*,*,#511,.T.);
#268=ORIENTED_EDGE('',*,*,#508,.T.);
#269=ORIENTED_EDGE('',*,*,#438,.F.);
#270=ORIENTED_EDGE('',*,*,#512,.F.);
#271=ORIENTED_EDGE('',*,*,#513,.T.);
#272=ORIENTED_EDGE('',*,*,#510,.T.);
#273=ORIENTED_EDGE('',*,*,#437,.F.);
#274=ORIENTED_EDGE('',*,*,#514,.F.);
#275=ORIENTED_EDGE('',*,*,#515,.T.);
#276=ORIENTED_EDGE('',*,*,#512,.T.);
#277=ORIENTED_EDGE('',*,*,#436,.F.);
#278=ORIENTED_EDGE('',*,*,#516,.F.);
#279=ORIENTED_EDGE('',*,*,#517,.T.);
#280=ORIENTED_EDGE('',*,*,#514,.T.);
#281=ORIENTED_EDGE('',*,*,#435,.F.);
#282=ORIENTED_EDGE('',*,*,#518,.F.);
#283=ORIENTED_EDGE('',*,*,#519,.T.);
#284=ORIENTED_EDGE('',*,*,#516,.T.);
#285=ORIENTED_EDGE('',*,*,#434,.F.);
#286=ORIENTED_EDGE('',*,*,#520,.F.);
#287=ORIENTED_EDGE('',*,*,#521,.T.);
#288=ORIENTED_EDGE('',*,*,#518,.T.);
#289=ORIENTED_EDGE('',*,*,#433,.F.);
#290=ORIENTED_EDGE('',*,*,#522,.F.);
#291=ORIENTED_EDGE('',*,*,#523,.T.);
#292=ORIENTED_EDGE('',*,*,#520,.T.);
#293=ORIENTED_EDGE('',*,*,#432,.F.);
#294=ORIENTED_EDGE('',*,*,#524,.F.);
#295=ORIENTED_EDGE('',*,*,#525,.T.);
#296=ORIENTED_EDGE('',*,*,#522,.T.);
#297=ORIENTED_EDGE('',*,*,#431,.F.);
#298=ORIENTED_EDGE('',*,*,#526,.F.);
#299=ORIENTED_EDGE('',*,*,#527,.T.);
#300=ORIENTED_EDGE('',*,*,#524,.T.);
#301=ORIENTED_EDGE('',*,*,#430,.F.);
#302=ORIENTED_EDGE('',*,*,#528,.F.);
#303=ORIENTED_EDGE('',*,*,#529,.T.);
#304=ORIENTED_EDGE('',*,*,#526,.T.);
#305=ORIENTED_EDGE('',*,*,#429,.F.);
#306=ORIENTED_EDGE('',*,*,#530,.F.);
#307=ORIENTED_EDGE('',*,*,#531,.T.);
#308=ORIENTED_EDGE('',*,*,#528,.T.);
#309=ORIENTED_EDGE('',*,*,#428,.F.);
#310=ORIENTED_EDGE('',*,*,#532,.F.);
#311=ORIENTED_EDGE('',*,*,#533,.T.);
#312=ORIENTED_EDGE('',*,*,#530,.T.);
#313=ORIENTED_EDGE('',*,*,#427,.F.);
#314=ORIENTED_EDGE('',*,*,#534,.F.);
#315=ORIENTED_EDGE('',*,*,#535,.T.);
#316=ORIENTED_EDGE('',*,*,#532,.T.);
#317=ORIENTED_EDGE('',*,*,#426,.F.);
#318=ORIENTED_EDGE('',*,*,#536,.F.);
#319=ORIENTED_EDGE('',*,*,#537,.T.);
#320=ORIENTED_EDGE('',*,*,#534,.T.);
#321=ORIENTED_EDGE('',*,*,#425,.F.);
#322=ORIENTED_EDGE('',*,*,#538,.F.);
#323=ORIENTED_EDGE('',*,*,#539,.T.);
#324=ORIENTED_EDGE('',*,*,#536,.T.);
#325=ORIENTED_EDGE('',*,*,#424,.F.);
#326=ORIENTED_EDGE('',*,*,#477,.F.);
#327=ORIENTED_EDGE('',*,*,#540,.T.);
#328=ORIENTED_EDGE('',*,*,#538,.T.);
#329=ORIENTED_EDGE('',*,*,#476,.F.);
#330=ORIENTED_EDGE('',*,*,#479,.F.);
#331=ORIENTED_EDGE('',*,*,#481,.F.);
#332=ORIENTED_EDGE('',*,*,#483,.F.);
#333=ORIENTED_EDGE('',*,*,#485,.F.);
#334=ORIENTED_EDGE('',*,*,#487,.F.);
#335=ORIENTED_EDGE('',*,*,#489,.F.);
#336=ORIENTED_EDGE('',*,*,#491,.F.);
#337=ORIENTED_EDGE('',*,*,#493,.F.);
#338=ORIENTED_EDGE('',*,*,#495,.F.);
#339=ORIENTED_EDGE('',*,*,#497,.F.);
#340=ORIENTED_EDGE('',*,*,#499,.F.);
#341=ORIENTED_EDGE('',*,*,#501,.F.);
#342=ORIENTED_EDGE('',*,*,#503,.F.);
#343=ORIENTED_EDGE('',*,*,#505,.F.);
#344=ORIENTED_EDGE('',*,*,#507,.F.);
#345=ORIENTED_EDGE('',*,*,#509,.F.);
#346=ORIENTED_EDGE('',*,*,#511,.F.);
#347=ORIENTED_EDGE('',*,*,#513,.F.);
#348=ORIENTED_EDGE('',*,*,#515,.F.);
#349=ORIENTED_EDGE('',*,*,#517,.F.);
#350=ORIENTED_EDGE('',*,*,#519,.F.);
#351=ORIENTED_EDGE('',*,*,#521,.F.);
#352=ORIENTED_EDGE('',*,*,#523,.F.);
#353=ORIENTED_EDGE('',*,*,#525,.F.);
#354=ORIENTED_EDGE('',*,*,#527,.F.);
#355=ORIENTED_EDGE('',*,*,#529,.F.);
#356=ORIENTED_EDGE('',*,*,#531,.F.);
#357=ORIENTED_EDGE('',*,*,#533,.F.);
#358=ORIENTED_EDGE('',*,*,#535,.F.);
#359=ORIENTED_EDGE('',*,*,#537,.F.);
#360=ORIENTED_EDGE('',*,*,#539,.F.);
#361=ORIENTED_EDGE('',*,*,#540,.F.);
#362=ORIENTED_EDGE('',*,*,#417,.F.);
#363=ORIENTED_EDGE('',*,*,#473,.T.);
#364=ORIENTED_EDGE('',*,*,#471,.T.);
#365=ORIENTED_EDGE('',*,*,#463,.F.);
#366=ORIENTED_EDGE('',*,*,#419,.F.);
#367=ORIENTED_EDGE('',*,*,#462,.T.);
#368=ORIENTED_EDGE('',*,*,#470,.T.);
#369=ORIENTED_EDGE('',*,*,#460,.F.);
#370=ORIENTED_EDGE('',*,*,#415,.T.);
#371=ORIENTED_EDGE('',*,*,#541,.T.);
#372=ORIENTED_EDGE('',*,*,#457,.F.);
#373=ORIENTED_EDGE('',*,*,#474,.T.);
#374=ORIENTED_EDGE('',*,*,#541,.F.);
#375=ORIENTED_EDGE('',*,*,#414,.F.);
#376=ORIENTED_EDGE('',*,*,#458,.T.);
#377=ORIENTED_EDGE('',*,*,#465,.T.);
#378=ORIENTED_EDGE('',*,*,#542,.T.);
#379=ORIENTED_EDGE('',*,*,#410,.T.);
#380=ORIENTED_EDGE('',*,*,#543,.F.);
#381=ORIENTED_EDGE('',*,*,#468,.T.);
#382=ORIENTED_EDGE('',*,*,#544,.T.);
#383=ORIENTED_EDGE('',*,*,#411,.T.);
#384=ORIENTED_EDGE('',*,*,#542,.F.);
#385=ORIENTED_EDGE('',*,*,#467,.T.);
#386=ORIENTED_EDGE('',*,*,#545,.T.);
#387=ORIENTED_EDGE('',*,*,#412,.T.);
#388=ORIENTED_EDGE('',*,*,#544,.F.);
#389=ORIENTED_EDGE('',*,*,#466,.T.);
#390=ORIENTED_EDGE('',*,*,#543,.T.);
#391=ORIENTED_EDGE('',*,*,#409,.T.);
#392=ORIENTED_EDGE('',*,*,#545,.F.);
#393=ORIENTED_EDGE('',*,*,#404,.F.);
#394=ORIENTED_EDGE('',*,*,#397,.T.);
#395=ORIENTED_EDGE('',*,*,#401,.T.);
#396=ORIENTED_EDGE('',*,*,#407,.F.);
#397=EDGE_CURVE('',#546,#547,#646,.T.);
#398=EDGE_CURVE('',#546,#548,#647,.T.);
#399=EDGE_CURVE('',#548,#549,#648,.T.);
#400=EDGE_CURVE('',#547,#549,#649,.T.);
#401=EDGE_CURVE('',#547,#550,#650,.T.);
#402=EDGE_CURVE('',#549,#551,#651,.T.);
#403=EDGE_CURVE('',#550,#551,#652,.T.);
#404=EDGE_CURVE('',#546,#552,#653,.T.);
#405=EDGE_CURVE('',#552,#553,#654,.T.);
#406=EDGE_CURVE('',#548,#553,#655,.T.);
#407=EDGE_CURVE('',#552,#550,#656,.T.);
#408=EDGE_CURVE('',#553,#551,#657,.T.);
#409=EDGE_CURVE('',#554,#555,#658,.T.);
#410=EDGE_CURVE('',#556,#554,#659,.T.);
#411=EDGE_CURVE('',#557,#556,#660,.T.);
#412=EDGE_CURVE('',#555,#557,#661,.T.);
#413=EDGE_CURVE('',#558,#559,#662,.T.);
#414=EDGE_CURVE('',#558,#560,#663,.T.);
#415=EDGE_CURVE('',#561,#560,#664,.T.);
#416=EDGE_CURVE('',#561,#562,#665,.T.);
#417=EDGE_CURVE('',#562,#563,#666,.T.);
#418=EDGE_CURVE('',#564,#563,#667,.T.);
#419=EDGE_CURVE('',#564,#565,#668,.T.);
#420=EDGE_CURVE('',#565,#559,#669,.T.);
#421=EDGE_CURVE('',#566,#566,#51,.T.);
#422=EDGE_CURVE('',#567,#568,#52,.F.);
#423=EDGE_CURVE('',#568,#569,#41,.T.);
#424=EDGE_CURVE('',#569,#570,#53,.F.);
#425=EDGE_CURVE('',#570,#571,#54,.F.);
#426=EDGE_CURVE('',#571,#572,#55,.F.);
#427=EDGE_CURVE('',#572,#573,#56,.F.);
#428=EDGE_CURVE('',#573,#574,#57,.T.);
#429=EDGE_CURVE('',#574,#575,#670,.T.);
#430=EDGE_CURVE('',#575,#576,#671,.T.);
#431=EDGE_CURVE('',#576,#577,#672,.T.);
#432=EDGE_CURVE('',#577,#578,#673,.T.);
#433=EDGE_CURVE('',#578,#579,#58,.F.);
#434=EDGE_CURVE('',#579,#580,#59,.T.);
#435=EDGE_CURVE('',#580,#581,#60,.T.);
#436=EDGE_CURVE('',#581,#582,#61,.T.);
#437=EDGE_CURVE('',#582,#583,#62,.T.);
#438=EDGE_CURVE('',#583,#584,#42,.T.);
#439=EDGE_CURVE('',#584,#585,#43,.T.);
#440=EDGE_CURVE('',#585,#586,#63,.T.);
#441=EDGE_CURVE('',#586,#587,#64,.T.);
#442=EDGE_CURVE('',#587,#588,#65,.T.);
#443=EDGE_CURVE('',#588,#589,#66,.T.);
#444=EDGE_CURVE('',#589,#590,#67,.T.);
#445=EDGE_CURVE('',#590,#591,#68,.T.);
#446=EDGE_CURVE('',#591,#592,#69,.T.);
#447=EDGE_CURVE('',#592,#593,#674,.T.);
#448=EDGE_CURVE('',#593,#594,#70,.F.);
#449=EDGE_CURVE('',#594,#595,#71,.T.);
#450=EDGE_CURVE('',#595,#596,#72,.F.);
#451=EDGE_CURVE('',#596,#597,#73,.F.);
#452=EDGE_CURVE('',#597,#598,#44,.T.);
#453=EDGE_CURVE('',#598,#599,#45,.T.);
#454=EDGE_CURVE('',#599,#567,#74,.F.);
#455=EDGE_CURVE('',#600,#601,#675,.T.);
#456=EDGE_CURVE('',#601,#602,#676,.T.);
#457=EDGE_CURVE('',#602,#603,#677,.T.);
#458=EDGE_CURVE('',#558,#603,#678,.T.);
#459=EDGE_CURVE('',#559,#600,#679,.T.);
#460=EDGE_CURVE('',#565,#604,#680,.T.);
#461=EDGE_CURVE('',#600,#604,#681,.T.);
#462=EDGE_CURVE('',#564,#605,#682,.T.);
#463=EDGE_CURVE('',#563,#606,#683,.T.);
#464=EDGE_CURVE('',#606,#605,#684,.T.);
#465=EDGE_CURVE('',#607,#608,#685,.T.);
#466=EDGE_CURVE('',#609,#607,#686,.T.);
#467=EDGE_CURVE('',#610,#609,#687,.T.);
#468=EDGE_CURVE('',#608,#610,#688,.T.);
#469=EDGE_CURVE('',#611,#601,#689,.T.);
#470=EDGE_CURVE('',#605,#604,#690,.T.);
#471=EDGE_CURVE('',#611,#606,#691,.T.);
#472=EDGE_CURVE('',#612,#612,#75,.T.);
#473=EDGE_CURVE('',#562,#611,#692,.T.);
#474=EDGE_CURVE('',#602,#561,#693,.T.);
#475=EDGE_CURVE('',#613,#568,#694,.T.);
#476=EDGE_CURVE('',#613,#614,#46,.T.);
#477=EDGE_CURVE('',#614,#569,#695,.T.);
#478=EDGE_CURVE('',#615,#567,#696,.T.);
#479=EDGE_CURVE('',#615,#613,#76,.F.);
#480=EDGE_CURVE('',#616,#599,#697,.T.);
#481=EDGE_CURVE('',#616,#615,#77,.F.);
#482=EDGE_CURVE('',#617,#598,#698,.T.);
#483=EDGE_CURVE('',#617,#616,#47,.T.);
#484=EDGE_CURVE('',#618,#597,#699,.T.);
#485=EDGE_CURVE('',#618,#617,#48,.T.);
#486=EDGE_CURVE('',#619,#596,#700,.T.);
#487=EDGE_CURVE('',#619,#618,#78,.F.);
#488=EDGE_CURVE('',#620,#595,#701,.T.);
#489=EDGE_CURVE('',#620,#619,#79,.F.);
#490=EDGE_CURVE('',#621,#594,#702,.T.);
#491=EDGE_CURVE('',#621,#620,#80,.T.);
#492=EDGE_CURVE('',#622,#593,#703,.T.);
#493=EDGE_CURVE('',#622,#621,#81,.F.);
#494=EDGE_CURVE('',#623,#592,#704,.T.);
#495=EDGE_CURVE('',#623,#622,#705,.T.);
#496=EDGE_CURVE('',#624,#591,#706,.T.);
#497=EDGE_CURVE('',#624,#623,#82,.T.);
#498=EDGE_CURVE('',#625,#590,#707,.T.);
#499=EDGE_CURVE('',#625,#624,#83,.T.);
#500=EDGE_CURVE('',#626,#589,#708,.T.);
#501=EDGE_CURVE('',#626,#625,#84,.T.);
#502=EDGE_CURVE('',#627,#588,#709,.T.);
#503=EDGE_CURVE('',#627,#626,#85,.T.);
#504=EDGE_CURVE('',#628,#587,#710,.T.);
#505=EDGE_CURVE('',#628,#627,#86,.T.);
#506=EDGE_CURVE('',#629,#586,#711,.T.);
#507=EDGE_CURVE('',#629,#628,#87,.T.);
#508=EDGE_CURVE('',#630,#585,#712,.T.);
#509=EDGE_CURVE('',#630,#629,#88,.T.);
#510=EDGE_CURVE('',#631,#584,#713,.T.);
#511=EDGE_CURVE('',#631,#630,#49,.T.);
#512=EDGE_CURVE('',#632,#583,#714,.T.);
#513=EDGE_CURVE('',#632,#631,#50,.T.);
#514=EDGE_CURVE('',#633,#582,#715,.T.);
#515=EDGE_CURVE('',#633,#632,#89,.T.);
#516=EDGE_CURVE('',#634,#581,#716,.T.);
#517=EDGE_CURVE('',#634,#633,#90,.T.);
#518=EDGE_CURVE('',#635,#580,#717,.T.);
#519=EDGE_CURVE('',#635,#634,#91,.T.);
#520=EDGE_CURVE('',#636,#579,#718,.T.);
#521=EDGE_CURVE('',#636,#635,#92,.T.);
#522=EDGE_CURVE('',#637,#578,#719,.T.);
#523=EDGE_CURVE('',#637,#636,#93,.F.);
#524=EDGE_CURVE('',#638,#577,#720,.T.);
#525=EDGE_CURVE('',#638,#637,#721,.T.);
#526=EDGE_CURVE('',#639,#576,#722,.T.);
#527=EDGE_CURVE('',#639,#638,#723,.T.);
#528=EDGE_CURVE('',#640,#575,#724,.T.);
#529=EDGE_CURVE('',#640,#639,#725,.T.);
#530=EDGE_CURVE('',#641,#574,#726,.T.);
#531=EDGE_CURVE('',#641,#640,#727,.T.);
#532=EDGE_CURVE('',#642,#573,#728,.T.);
#533=EDGE_CURVE('',#642,#641,#94,.T.);
#534=EDGE_CURVE('',#643,#572,#729,.T.);
#535=EDGE_CURVE('',#643,#642,#95,.F.);
#536=EDGE_CURVE('',#644,#571,#730,.T.);
#537=EDGE_CURVE('',#644,#643,#96,.F.);
#538=EDGE_CURVE('',#645,#570,#731,.T.);
#539=EDGE_CURVE('',#645,#644,#97,.F.);
#540=EDGE_CURVE('',#614,#645,#98,.F.);
#541=EDGE_CURVE('',#560,#603,#732,.T.);
#542=EDGE_CURVE('',#608,#556,#733,.T.);
#543=EDGE_CURVE('',#607,#554,#734,.T.);
#544=EDGE_CURVE('',#610,#557,#735,.T.);
#545=EDGE_CURVE('',#609,#555,#736,.T.);
#546=VERTEX_POINT('',#1429);
#547=VERTEX_POINT('',#1430);
#548=VERTEX_POINT('',#1432);
#549=VERTEX_POINT('',#1434);
#550=VERTEX_POINT('',#1438);
#551=VERTEX_POINT('',#1440);
#552=VERTEX_POINT('',#1444);
#553=VERTEX_POINT('',#1446);
#554=VERTEX_POINT('',#1453);
#555=VERTEX_POINT('',#1454);
#556=VERTEX_POINT('',#1456);
#557=VERTEX_POINT('',#1458);
#558=VERTEX_POINT('',#1461);
#559=VERTEX_POINT('',#1462);
#560=VERTEX_POINT('',#1464);
#561=VERTEX_POINT('',#1466);
#562=VERTEX_POINT('',#1468);
#563=VERTEX_POINT('',#1470);
#564=VERTEX_POINT('',#1472);
#565=VERTEX_POINT('',#1474);
#566=VERTEX_POINT('',#1477);
#567=VERTEX_POINT('',#1479);
#568=VERTEX_POINT('',#1480);
#569=VERTEX_POINT('',#1484);
#570=VERTEX_POINT('',#1486);
#571=VERTEX_POINT('',#1488);
#572=VERTEX_POINT('',#1490);
#573=VERTEX_POINT('',#1492);
#574=VERTEX_POINT('',#1494);
#575=VERTEX_POINT('',#1496);
#576=VERTEX_POINT('',#1498);
#577=VERTEX_POINT('',#1500);
#578=VERTEX_POINT('',#1502);
#579=VERTEX_POINT('',#1504);
#580=VERTEX_POINT('',#1506);
#581=VERTEX_POINT('',#1508);
#582=VERTEX_POINT('',#1510);
#583=VERTEX_POINT('',#1512);
#584=VERTEX_POINT('',#1516);
#585=VERTEX_POINT('',#1520);
#586=VERTEX_POINT('',#1522);
#587=VERTEX_POINT('',#1524);
#588=VERTEX_POINT('',#1526);
#589=VERTEX_POINT('',#1528);
#590=VERTEX_POINT('',#1530);
#591=VERTEX_POINT('',#1532);
#592=VERTEX_POINT('',#1534);
#593=VERTEX_POINT('',#1536);
#594=VERTEX_POINT('',#1538);
#595=VERTEX_POINT('',#1540);
#596=VERTEX_POINT('',#1542);
#597=VERTEX_POINT('',#1544);
#598=VERTEX_POINT('',#1548);
#599=VERTEX_POINT('',#1552);
#600=VERTEX_POINT('',#1556);
#601=VERTEX_POINT('',#1557);
#602=VERTEX_POINT('',#1559);
#603=VERTEX_POINT('',#1561);
#604=VERTEX_POINT('',#1566);
#605=VERTEX_POINT('',#1570);
#606=VERTEX_POINT('',#1572);
#607=VERTEX_POINT('',#1576);
#608=VERTEX_POINT('',#1577);
#609=VERTEX_POINT('',#1579);
#610=VERTEX_POINT('',#1581);
#611=VERTEX_POINT('',#1584);
#612=VERTEX_POINT('',#1588);
#613=VERTEX_POINT('',#1602);
#614=VERTEX_POINT('',#1606);
#615=VERTEX_POINT('',#1610);
#616=VERTEX_POINT('',#1614);
#617=VERTEX_POINT('',#1625);
#618=VERTEX_POINT('',#1638);
#619=VERTEX_POINT('',#1644);
#620=VERTEX_POINT('',#1648);
#621=VERTEX_POINT('',#1652);
#622=VERTEX_POINT('',#1656);
#623=VERTEX_POINT('',#1660);
#624=VERTEX_POINT('',#1664);
#625=VERTEX_POINT('',#1668);
#626=VERTEX_POINT('',#1672);
#627=VERTEX_POINT('',#1676);
#628=VERTEX_POINT('',#1680);
#629=VERTEX_POINT('',#1684);
#630=VERTEX_POINT('',#1688);
#631=VERTEX_POINT('',#1699);
#632=VERTEX_POINT('',#1712);
#633=VERTEX_POINT('',#1718);
#634=VERTEX_POINT('',#1722);
#635=VERTEX_POINT('',#1726);
#636=VERTEX_POINT('',#1730);
#637=VERTEX_POINT('',#1734);
#638=VERTEX_POINT('',#1738);
#639=VERTEX_POINT('',#1742);
#640=VERTEX_POINT('',#1746);
#641=VERTEX_POINT('',#1750);
#642=VERTEX_POINT('',#1754);
#643=VERTEX_POINT('',#1758);
#644=VERTEX_POINT('',#1762);
#645=VERTEX_POINT('',#1766);
#646=LINE('',#1428,#737);
#647=LINE('',#1431,#738);
#648=LINE('',#1433,#739);
#649=LINE('',#1435,#740);
#650=LINE('',#1437,#741);
#651=LINE('',#1439,#742);
#652=LINE('',#1441,#743);
#653=LINE('',#1443,#744);
#654=LINE('',#1445,#745);
#655=LINE('',#1447,#746);
#656=LINE('',#1449,#747);
#657=LINE('',#1450,#748);
#658=LINE('',#1452,#749);
#659=LINE('',#1455,#750);
#660=LINE('',#1457,#751);
#661=LINE('',#1459,#752);
#662=LINE('',#1460,#753);
#663=LINE('',#1463,#754);
#664=LINE('',#1465,#755);
#665=LINE('',#1467,#756);
#666=LINE('',#1469,#757);
#667=LINE('',#1471,#758);
#668=LINE('',#1473,#759);
#669=LINE('',#1475,#760);
#670=LINE('',#1495,#761);
#671=LINE('',#1497,#762);
#672=LINE('',#1499,#763);
#673=LINE('',#1501,#764);
#674=LINE('',#1535,#765);
#675=LINE('',#1555,#766);
#676=LINE('',#1558,#767);
#677=LINE('',#1560,#768);
#678=LINE('',#1562,#769);
#679=LINE('',#1563,#770);
#680=LINE('',#1565,#771);
#681=LINE('',#1567,#772);
#682=LINE('',#1569,#773);
#683=LINE('',#1571,#774);
#684=LINE('',#1573,#775);
#685=LINE('',#1575,#776);
#686=LINE('',#1578,#777);
#687=LINE('',#1580,#778);
#688=LINE('',#1582,#779);
#689=LINE('',#1583,#780);
#690=LINE('',#1585,#781);
#691=LINE('',#1586,#782);
#692=LINE('',#1591,#783);
#693=LINE('',#1592,#784);
#694=LINE('',#1601,#785);
#695=LINE('',#1607,#786);
#696=LINE('',#1609,#787);
#697=LINE('',#1613,#788);
#698=LINE('',#1624,#789);
#699=LINE('',#1637,#790);
#700=LINE('',#1643,#791);
#701=LINE('',#1647,#792);
#702=LINE('',#1651,#793);
#703=LINE('',#1655,#794);
#704=LINE('',#1659,#795);
#705=LINE('',#1661,#796);
#706=LINE('',#1663,#797);
#707=LINE('',#1667,#798);
#708=LINE('',#1671,#799);
#709=LINE('',#1675,#800);
#710=LINE('',#1679,#801);
#711=LINE('',#1683,#802);
#712=LINE('',#1687,#803);
#713=LINE('',#1698,#804);
#714=LINE('',#1711,#805);
#715=LINE('',#1717,#806);
#716=LINE('',#1721,#807);
#717=LINE('',#1725,#808);
#718=LINE('',#1729,#809);
#719=LINE('',#1733,#810);
#720=LINE('',#1737,#811);
#721=LINE('',#1739,#812);
#722=LINE('',#1741,#813);
#723=LINE('',#1743,#814);
#724=LINE('',#1745,#815);
#725=LINE('',#1747,#816);
#726=LINE('',#1749,#817);
#727=LINE('',#1751,#818);
#728=LINE('',#1753,#819);
#729=LINE('',#1757,#820);
#730=LINE('',#1761,#821);
#731=LINE('',#1765,#822);
#732=LINE('',#1774,#823);
#733=LINE('',#1777,#824);
#734=LINE('',#1778,#825);
#735=LINE('',#1780,#826);
#736=LINE('',#1782,#827);
#737=VECTOR('',#1143,1.);
#738=VECTOR('',#1144,1.);
#739=VECTOR('',#1145,1.);
#740=VECTOR('',#1146,1.);
#741=VECTOR('',#1149,1.);
#742=VECTOR('',#1150,1.);
#743=VECTOR('',#1151,1.);
#744=VECTOR('',#1154,1.);
#745=VECTOR('',#1155,1.);
#746=VECTOR('',#1156,1.);
#747=VECTOR('',#1159,1.);
#748=VECTOR('',#1160,1.);
#749=VECTOR('',#1163,1.);
#750=VECTOR('',#1164,1.);
#751=VECTOR('',#1165,1.);
#752=VECTOR('',#1166,1.);
#753=VECTOR('',#1167,1.);
#754=VECTOR('',#1168,1.);
#755=VECTOR('',#1169,1.);
#756=VECTOR('',#1170,1.);
#757=VECTOR('',#1171,1.);
#758=VECTOR('',#1172,1.);
#759=VECTOR('',#1173,1.);
#760=VECTOR('',#1174,1.);
#761=VECTOR('',#1189,1.);
#762=VECTOR('',#1190,1.);
#763=VECTOR('',#1191,1.);
#764=VECTOR('',#1192,1.);
#765=VECTOR('',#1217,1.);
#766=VECTOR('',#1230,1.);
#767=VECTOR('',#1231,1.);
#768=VECTOR('',#1232,1.);
#769=VECTOR('',#1233,1.);
#770=VECTOR('',#1234,1.);
#771=VECTOR('',#1237,1.);
#772=VECTOR('',#1238,1.);
#773=VECTOR('',#1241,1.);
#774=VECTOR('',#1242,1.);
#775=VECTOR('',#1243,1.);
#776=VECTOR('',#1246,1.);
#777=VECTOR('',#1247,1.);
#778=VECTOR('',#1248,1.);
#779=VECTOR('',#1249,1.);
#780=VECTOR('',#1250,1.);
#781=VECTOR('',#1251,1.);
#782=VECTOR('',#1252,1.);
#783=VECTOR('',#1259,1.);
#784=VECTOR('',#1260,1.);
#785=VECTOR('',#1261,1.);
#786=VECTOR('',#1262,1.);
#787=VECTOR('',#1265,1.);
#788=VECTOR('',#1270,1.);
#789=VECTOR('',#1273,1.);
#790=VECTOR('',#1274,1.);
#791=VECTOR('',#1277,1.);
#792=VECTOR('',#1282,1.);
#793=VECTOR('',#1287,1.);
#794=VECTOR('',#1292,1.);
#795=VECTOR('',#1297,1.);
#796=VECTOR('',#1298,1.);
#797=VECTOR('',#1301,1.);
#798=VECTOR('',#1306,1.);
#799=VECTOR('',#1311,1.);
#800=VECTOR('',#1316,1.);
#801=VECTOR('',#1321,1.);
#802=VECTOR('',#1326,1.);
#803=VECTOR('',#1331,1.);
#804=VECTOR('',#1334,1.);
#805=VECTOR('',#1335,1.);
#806=VECTOR('',#1338,1.);
#807=VECTOR('',#1343,1.);
#808=VECTOR('',#1348,1.);
#809=VECTOR('',#1353,1.);
#810=VECTOR('',#1358,1.);
#811=VECTOR('',#1363,1.);
#812=VECTOR('',#1364,1.);
#813=VECTOR('',#1367,1.);
#814=VECTOR('',#1368,1.);
#815=VECTOR('',#1371,1.);
#816=VECTOR('',#1372,1.);
#817=VECTOR('',#1375,1.);
#818=VECTOR('',#1376,1.);
#819=VECTOR('',#1379,1.);
#820=VECTOR('',#1384,1.);
#821=VECTOR('',#1389,1.);
#822=VECTOR('',#1394,1.);
#823=VECTOR('',#1409,1.);
#824=VECTOR('',#1414,1.);
#825=VECTOR('',#1415,1.);
#826=VECTOR('',#1418,1.);
#827=VECTOR('',#1421,1.);
#828=EDGE_LOOP('',(#99,#100,#101,#102));
#829=EDGE_LOOP('',(#103,#104,#105,#106));
#830=EDGE_LOOP('',(#107,#108,#109,#110));
#831=EDGE_LOOP('',(#111,#112,#113,#114));
#832=EDGE_LOOP('',(#115,#116,#117,#118));
#833=EDGE_LOOP('',(#119,#120,#121,#122,#123,#124,#125,#126));
#834=EDGE_LOOP('',(#127));
#835=EDGE_LOOP('',(#128,#129,#130,#131,#132,#133,#134,#135,#136,#137,#138,
#139,#140,#141,#142,#143,#144,#145,#146,#147,#148,#149,#150,#151,#152,#153,
#154,#155,#156,#157,#158,#159,#160));
#836=EDGE_LOOP('',(#161,#162,#163,#164));
#837=EDGE_LOOP('',(#165,#166,#167,#168,#169,#170));
#838=EDGE_LOOP('',(#171,#172,#173,#174));
#839=EDGE_LOOP('',(#175,#176,#177,#178));
#840=EDGE_LOOP('',(#179,#180,#181,#182));
#841=EDGE_LOOP('',(#183,#184,#185,#186,#187,#188));
#842=EDGE_LOOP('',(#189));
#843=EDGE_LOOP('',(#190));
#844=EDGE_LOOP('',(#191));
#845=EDGE_LOOP('',(#192,#193,#194,#195,#196));
#846=EDGE_LOOP('',(#197,#198,#199,#200));
#847=EDGE_LOOP('',(#201,#202,#203,#204));
#848=EDGE_LOOP('',(#205,#206,#207,#208));
#849=EDGE_LOOP('',(#209,#210,#211,#212));
#850=EDGE_LOOP('',(#213,#214,#215,#216));
#851=EDGE_LOOP('',(#217,#218,#219,#220));
#852=EDGE_LOOP('',(#221,#222,#223,#224));
#853=EDGE_LOOP('',(#225,#226,#227,#228));
#854=EDGE_LOOP('',(#229,#230,#231,#232));
#855=EDGE_LOOP('',(#233,#234,#235,#236));
#856=EDGE_LOOP('',(#237,#238,#239,#240));
#857=EDGE_LOOP('',(#241,#242,#243,#244));
#858=EDGE_LOOP('',(#245,#246,#247,#248));
#859=EDGE_LOOP('',(#249,#250,#251,#252));
#860=EDGE_LOOP('',(#253,#254,#255,#256));
#861=EDGE_LOOP('',(#257,#258,#259,#260));
#862=EDGE_LOOP('',(#261,#262,#263,#264));
#863=EDGE_LOOP('',(#265,#266,#267,#268));
#864=EDGE_LOOP('',(#269,#270,#271,#272));
#865=EDGE_LOOP('',(#273,#274,#275,#276));
#866=EDGE_LOOP('',(#277,#278,#279,#280));
#867=EDGE_LOOP('',(#281,#282,#283,#284));
#868=EDGE_LOOP('',(#285,#286,#287,#288));
#869=EDGE_LOOP('',(#289,#290,#291,#292));
#870=EDGE_LOOP('',(#293,#294,#295,#296));
#871=EDGE_LOOP('',(#297,#298,#299,#300));
#872=EDGE_LOOP('',(#301,#302,#303,#304));
#873=EDGE_LOOP('',(#305,#306,#307,#308));
#874=EDGE_LOOP('',(#309,#310,#311,#312));
#875=EDGE_LOOP('',(#313,#314,#315,#316));
#876=EDGE_LOOP('',(#317,#318,#319,#320));
#877=EDGE_LOOP('',(#321,#322,#323,#324));
#878=EDGE_LOOP('',(#325,#326,#327,#328));
#879=EDGE_LOOP('',(#329,#330,#331,#332,#333,#334,#335,#336,#337,#338,#339,
#340,#341,#342,#343,#344,#345,#346,#347,#348,#349,#350,#351,#352,#353,#354,
#355,#356,#357,#358,#359,#360,#361));
#880=EDGE_LOOP('',(#362,#363,#364,#365));
#881=EDGE_LOOP('',(#366,#367,#368,#369));
#882=EDGE_LOOP('',(#370,#371,#372,#373));
#883=EDGE_LOOP('',(#374,#375,#376));
#884=EDGE_LOOP('',(#377,#378,#379,#380));
#885=EDGE_LOOP('',(#381,#382,#383,#384));
#886=EDGE_LOOP('',(#385,#386,#387,#388));
#887=EDGE_LOOP('',(#389,#390,#391,#392));
#888=EDGE_LOOP('',(#393,#394,#395,#396));
#889=FACE_BOUND('',#828,.T.);
#890=FACE_BOUND('',#829,.T.);
#891=FACE_BOUND('',#830,.T.);
#892=FACE_BOUND('',#831,.T.);
#893=FACE_BOUND('',#832,.T.);
#894=FACE_BOUND('',#833,.T.);
#895=FACE_BOUND('',#834,.T.);
#896=FACE_BOUND('',#835,.T.);
#897=FACE_BOUND('',#836,.T.);
#898=FACE_BOUND('',#837,.T.);
#899=FACE_BOUND('',#838,.T.);
#900=FACE_BOUND('',#839,.T.);
#901=FACE_BOUND('',#840,.T.);
#902=FACE_BOUND('',#841,.T.);
#903=FACE_BOUND('',#842,.T.);
#904=FACE_BOUND('',#843,.T.);
#905=FACE_BOUND('',#844,.T.);
#906=FACE_BOUND('',#845,.T.);
#907=FACE_BOUND('',#846,.T.);
#908=FACE_BOUND('',#847,.T.);
#909=FACE_BOUND('',#848,.T.);
#910=FACE_BOUND('',#849,.T.);
#911=FACE_BOUND('',#850,.T.);
#912=FACE_BOUND('',#851,.T.);
#913=FACE_BOUND('',#852,.T.);
#914=FACE_BOUND('',#853,.T.);
#915=FACE_BOUND('',#854,.T.);
#916=FACE_BOUND('',#855,.T.);
#917=FACE_BOUND('',#856,.T.);
#918=FACE_BOUND('',#857,.T.);
#919=FACE_BOUND('',#858,.T.);
#920=FACE_BOUND('',#859,.T.);
#921=FACE_BOUND('',#860,.T.);
#922=FACE_BOUND('',#861,.T.);
#923=FACE_BOUND('',#862,.T.);
#924=FACE_BOUND('',#863,.T.);
#925=FACE_BOUND('',#864,.T.);
#926=FACE_BOUND('',#865,.T.);
#927=FACE_BOUND('',#866,.T.);
#928=FACE_BOUND('',#867,.T.);
#929=FACE_BOUND('',#868,.T.);
#930=FACE_BOUND('',#869,.T.);
#931=FACE_BOUND('',#870,.T.);
#932=FACE_BOUND('',#871,.T.);
#933=FACE_BOUND('',#872,.T.);
#934=FACE_BOUND('',#873,.T.);
#935=FACE_BOUND('',#874,.T.);
#936=FACE_BOUND('',#875,.T.);
#937=FACE_BOUND('',#876,.T.);
#938=FACE_BOUND('',#877,.T.);
#939=FACE_BOUND('',#878,.T.);
#940=FACE_BOUND('',#879,.T.);
#941=FACE_BOUND('',#880,.T.);
#942=FACE_BOUND('',#881,.T.);
#943=FACE_BOUND('',#882,.T.);
#944=FACE_BOUND('',#883,.T.);
#945=FACE_BOUND('',#884,.T.);
#946=FACE_BOUND('',#885,.T.);
#947=FACE_BOUND('',#886,.T.);
#948=FACE_BOUND('',#887,.T.);
#949=FACE_BOUND('',#888,.T.);
#950=PLANE('',#1042);
#951=PLANE('',#1043);
#952=PLANE('',#1044);
#953=PLANE('',#1045);
#954=PLANE('',#1046);
#955=PLANE('',#1071);
#956=PLANE('',#1072);
#957=PLANE('',#1073);
#958=PLANE('',#1074);
#959=PLANE('',#1077);
#960=PLANE('',#1090);
#961=PLANE('',#1115);
#962=PLANE('',#1116);
#963=PLANE('',#1117);
#964=PLANE('',#1118);
#965=PLANE('',#1129);
#966=PLANE('',#1130);
#967=PLANE('',#1131);
#968=PLANE('',#1132);
#969=PLANE('',#1133);
#970=PLANE('',#1134);
#971=PLANE('',#1135);
#972=PLANE('',#1136);
#973=PLANE('',#1137);
#974=PLANE('',#1138);
#975=ADVANCED_FACE('',(#889),#950,.F.);
#976=ADVANCED_FACE('',(#890),#951,.F.);
#977=ADVANCED_FACE('',(#891),#952,.T.);
#978=ADVANCED_FACE('',(#892),#953,.T.);
#979=ADVANCED_FACE('',(#893,#894,#895,#896,#897),#954,.T.);
#980=ADVANCED_FACE('',(#898),#955,.F.);
#981=ADVANCED_FACE('',(#899),#956,.T.);
#982=ADVANCED_FACE('',(#900),#957,.F.);
#983=ADVANCED_FACE('',(#901,#902,#903),#958,.F.);
#984=ADVANCED_FACE('',(#904,#905),#40,.T.);
#985=ADVANCED_FACE('',(#906),#959,.T.);
#986=ADVANCED_FACE('',(#907),#35,.T.);
#987=ADVANCED_FACE('',(#908),#12,.F.);
#988=ADVANCED_FACE('',(#909),#13,.F.);
#989=ADVANCED_FACE('',(#910),#36,.T.);
#990=ADVANCED_FACE('',(#911),#37,.T.);
#991=ADVANCED_FACE('',(#912),#14,.F.);
#992=ADVANCED_FACE('',(#913),#15,.F.);
#993=ADVANCED_FACE('',(#914),#16,.F.);
#994=ADVANCED_FACE('',(#915),#17,.F.);
#995=ADVANCED_FACE('',(#916),#960,.T.);
#996=ADVANCED_FACE('',(#917),#18,.T.);
#997=ADVANCED_FACE('',(#918),#19,.T.);
#998=ADVANCED_FACE('',(#919),#20,.T.);
#999=ADVANCED_FACE('',(#920),#21,.T.);
#1000=ADVANCED_FACE('',(#921),#22,.T.);
#1001=ADVANCED_FACE('',(#922),#23,.T.);
#1002=ADVANCED_FACE('',(#923),#24,.T.);
#1003=ADVANCED_FACE('',(#924),#38,.T.);
#1004=ADVANCED_FACE('',(#925),#39,.T.);
#1005=ADVANCED_FACE('',(#926),#25,.T.);
#1006=ADVANCED_FACE('',(#927),#26,.T.);
#1007=ADVANCED_FACE('',(#928),#27,.T.);
#1008=ADVANCED_FACE('',(#929),#28,.T.);
#1009=ADVANCED_FACE('',(#930),#29,.F.);
#1010=ADVANCED_FACE('',(#931),#961,.T.);
#1011=ADVANCED_FACE('',(#932),#962,.T.);
#1012=ADVANCED_FACE('',(#933),#963,.T.);
#1013=ADVANCED_FACE('',(#934),#964,.T.);
#1014=ADVANCED_FACE('',(#935),#30,.T.);
#1015=ADVANCED_FACE('',(#936),#31,.F.);
#1016=ADVANCED_FACE('',(#937),#32,.F.);
#1017=ADVANCED_FACE('',(#938),#33,.F.);
#1018=ADVANCED_FACE('',(#939),#34,.F.);
#1019=ADVANCED_FACE('',(#940),#965,.T.);
#1020=ADVANCED_FACE('',(#941),#966,.F.);
#1021=ADVANCED_FACE('',(#942),#967,.F.);
#1022=ADVANCED_FACE('',(#943),#968,.F.);
#1023=ADVANCED_FACE('',(#944),#969,.T.);
#1024=ADVANCED_FACE('',(#945),#970,.F.);
#1025=ADVANCED_FACE('',(#946),#971,.F.);
#1026=ADVANCED_FACE('',(#947),#972,.F.);
#1027=ADVANCED_FACE('',(#948),#973,.F.);
#1028=ADVANCED_FACE('',(#949),#974,.T.);
#1029=CLOSED_SHELL('',(#975,#976,#977,#978,#979,#980,#981,#982,#983,#984,
#985,#986,#987,#988,#989,#990,#991,#992,#993,#994,#995,#996,#997,#998,#999,
#1000,#1001,#1002,#1003,#1004,#1005,#1006,#1007,#1008,#1009,#1010,#1011,
#1012,#1013,#1014,#1015,#1016,#1017,#1018,#1019,#1020,#1021,#1022,#1023,
#1024,#1025,#1026,#1027,#1028));
#1030=STYLED_ITEM('',(#1031),#1038);
#1031=PRESENTATION_STYLE_ASSIGNMENT((#1032));
#1032=SURFACE_STYLE_USAGE(.BOTH.,#1033);
#1033=SURFACE_SIDE_STYLE('',(#1034));
#1034=SURFACE_STYLE_FILL_AREA(#1035);
#1035=FILL_AREA_STYLE('',(#1036));
#1036=FILL_AREA_STYLE_COLOUR('',#1037);
#1037=COLOUR_RGB('',0.647058823529412,0.647058823529412,0.647058823529412);
#1038=MANIFOLD_SOLID_BREP('stage_2',#1029);
#1039=SHAPE_DEFINITION_REPRESENTATION(#1791,#1040);
#1040=SHAPE_REPRESENTATION('stage_2',(#1041),#1786);
#1041=AXIS2_PLACEMENT_3D('',#1426,#1139,#1140);
#1042=AXIS2_PLACEMENT_3D('',#1427,#1141,#1142);
#1043=AXIS2_PLACEMENT_3D('',#1436,#1147,#1148);
#1044=AXIS2_PLACEMENT_3D('',#1442,#1152,#1153);
#1045=AXIS2_PLACEMENT_3D('',#1448,#1157,#1158);
#1046=AXIS2_PLACEMENT_3D('',#1451,#1161,#1162);
#1047=AXIS2_PLACEMENT_3D('',#1476,#1175,#1176);
#1048=AXIS2_PLACEMENT_3D('',#1478,#1177,#1178);
#1049=AXIS2_PLACEMENT_3D('',#1485,#1179,#1180);
#1050=AXIS2_PLACEMENT_3D('',#1487,#1181,#1182);
#1051=AXIS2_PLACEMENT_3D('',#1489,#1183,#1184);
#1052=AXIS2_PLACEMENT_3D('',#1491,#1185,#1186);
#1053=AXIS2_PLACEMENT_3D('',#1493,#1187,#1188);
#1054=AXIS2_PLACEMENT_3D('',#1503,#1193,#1194);
#1055=AXIS2_PLACEMENT_3D('',#1505,#1195,#1196);
#1056=AXIS2_PLACEMENT_3D('',#1507,#1197,#1198);
#1057=AXIS2_PLACEMENT_3D('',#1509,#1199,#1200);
#1058=AXIS2_PLACEMENT_3D('',#1511,#1201,#1202);
#1059=AXIS2_PLACEMENT_3D('',#1521,#1203,#1204);
#1060=AXIS2_PLACEMENT_3D('',#1523,#1205,#1206);
#1061=AXIS2_PLACEMENT_3D('',#1525,#1207,#1208);
#1062=AXIS2_PLACEMENT_3D('',#1527,#1209,#1210);
#1063=AXIS2_PLACEMENT_3D('',#1529,#1211,#1212);
#1064=AXIS2_PLACEMENT_3D('',#1531,#1213,#1214);
#1065=AXIS2_PLACEMENT_3D('',#1533,#1215,#1216);
#1066=AXIS2_PLACEMENT_3D('',#1537,#1218,#1219);
#1067=AXIS2_PLACEMENT_3D('',#1539,#1220,#1221);
#1068=AXIS2_PLACEMENT_3D('',#1541,#1222,#1223);
#1069=AXIS2_PLACEMENT_3D('',#1543,#1224,#1225);
#1070=AXIS2_PLACEMENT_3D('',#1553,#1226,#1227);
#1071=AXIS2_PLACEMENT_3D('',#1554,#1228,#1229);
#1072=AXIS2_PLACEMENT_3D('',#1564,#1235,#1236);
#1073=AXIS2_PLACEMENT_3D('',#1568,#1239,#1240);
#1074=AXIS2_PLACEMENT_3D('',#1574,#1244,#1245);
#1075=AXIS2_PLACEMENT_3D('',#1587,#1253,#1254);
#1076=AXIS2_PLACEMENT_3D('',#1589,#1255,#1256);
#1077=AXIS2_PLACEMENT_3D('',#1590,#1257,#1258);
#1078=AXIS2_PLACEMENT_3D('',#1608,#1263,#1264);
#1079=AXIS2_PLACEMENT_3D('',#1611,#1266,#1267);
#1080=AXIS2_PLACEMENT_3D('',#1612,#1268,#1269);
#1081=AXIS2_PLACEMENT_3D('',#1615,#1271,#1272);
#1082=AXIS2_PLACEMENT_3D('',#1642,#1275,#1276);
#1083=AXIS2_PLACEMENT_3D('',#1645,#1278,#1279);
#1084=AXIS2_PLACEMENT_3D('',#1646,#1280,#1281);
#1085=AXIS2_PLACEMENT_3D('',#1649,#1283,#1284);
#1086=AXIS2_PLACEMENT_3D('',#1650,#1285,#1286);
#1087=AXIS2_PLACEMENT_3D('',#1653,#1288,#1289);
#1088=AXIS2_PLACEMENT_3D('',#1654,#1290,#1291);
#1089=AXIS2_PLACEMENT_3D('',#1657,#1293,#1294);
#1090=AXIS2_PLACEMENT_3D('',#1658,#1295,#1296);
#1091=AXIS2_PLACEMENT_3D('',#1662,#1299,#1300);
#1092=AXIS2_PLACEMENT_3D('',#1665,#1302,#1303);
#1093=AXIS2_PLACEMENT_3D('',#1666,#1304,#1305);
#1094=AXIS2_PLACEMENT_3D('',#1669,#1307,#1308);
#1095=AXIS2_PLACEMENT_3D('',#1670,#1309,#1310);
#1096=AXIS2_PLACEMENT_3D('',#1673,#1312,#1313);
#1097=AXIS2_PLACEMENT_3D('',#1674,#1314,#1315);
#1098=AXIS2_PLACEMENT_3D('',#1677,#1317,#1318);
#1099=AXIS2_PLACEMENT_3D('',#1678,#1319,#1320);
#1100=AXIS2_PLACEMENT_3D('',#1681,#1322,#1323);
#1101=AXIS2_PLACEMENT_3D('',#1682,#1324,#1325);
#1102=AXIS2_PLACEMENT_3D('',#1685,#1327,#1328);
#1103=AXIS2_PLACEMENT_3D('',#1686,#1329,#1330);
#1104=AXIS2_PLACEMENT_3D('',#1689,#1332,#1333);
#1105=AXIS2_PLACEMENT_3D('',#1716,#1336,#1337);
#1106=AXIS2_PLACEMENT_3D('',#1719,#1339,#1340);
#1107=AXIS2_PLACEMENT_3D('',#1720,#1341,#1342);
#1108=AXIS2_PLACEMENT_3D('',#1723,#1344,#1345);
#1109=AXIS2_PLACEMENT_3D('',#1724,#1346,#1347);
#1110=AXIS2_PLACEMENT_3D('',#1727,#1349,#1350);
#1111=AXIS2_PLACEMENT_3D('',#1728,#1351,#1352);
#1112=AXIS2_PLACEMENT_3D('',#1731,#1354,#1355);
#1113=AXIS2_PLACEMENT_3D('',#1732,#1356,#1357);
#1114=AXIS2_PLACEMENT_3D('',#1735,#1359,#1360);
#1115=AXIS2_PLACEMENT_3D('',#1736,#1361,#1362);
#1116=AXIS2_PLACEMENT_3D('',#1740,#1365,#1366);
#1117=AXIS2_PLACEMENT_3D('',#1744,#1369,#1370);
#1118=AXIS2_PLACEMENT_3D('',#1748,#1373,#1374);
#1119=AXIS2_PLACEMENT_3D('',#1752,#1377,#1378);
#1120=AXIS2_PLACEMENT_3D('',#1755,#1380,#1381);
#1121=AXIS2_PLACEMENT_3D('',#1756,#1382,#1383);
#1122=AXIS2_PLACEMENT_3D('',#1759,#1385,#1386);
#1123=AXIS2_PLACEMENT_3D('',#1760,#1387,#1388);
#1124=AXIS2_PLACEMENT_3D('',#1763,#1390,#1391);
#1125=AXIS2_PLACEMENT_3D('',#1764,#1392,#1393);
#1126=AXIS2_PLACEMENT_3D('',#1767,#1395,#1396);
#1127=AXIS2_PLACEMENT_3D('',#1768,#1397,#1398);
#1128=AXIS2_PLACEMENT_3D('',#1769,#1399,#1400);
#1129=AXIS2_PLACEMENT_3D('',#1770,#1401,#1402);
#1130=AXIS2_PLACEMENT_3D('',#1771,#1403,#1404);
#1131=AXIS2_PLACEMENT_3D('',#1772,#1405,#1406);
#1132=AXIS2_PLACEMENT_3D('',#1773,#1407,#1408);
#1133=AXIS2_PLACEMENT_3D('',#1775,#1410,#1411);
#1134=AXIS2_PLACEMENT_3D('',#1776,#1412,#1413);
#1135=AXIS2_PLACEMENT_3D('',#1779,#1416,#1417);
#1136=AXIS2_PLACEMENT_3D('',#1781,#1419,#1420);
#1137=AXIS2_PLACEMENT_3D('',#1783,#1422,#1423);
#1138=AXIS2_PLACEMENT_3D('',#1784,#1424,#1425);
#1139=DIRECTION('',(0.,0.,1.));
#1140=DIRECTION('',(1.,0.,0.));
#1141=DIRECTION('',(1.,-1.73472347597681E-16,0.));
#1142=DIRECTION('',(1.73472347597681E-16,1.,0.));
#1143=DIRECTION('',(-1.73472347597681E-16,-1.,0.));
#1144=DIRECTION('',(0.,0.,-1.));
#1145=DIRECTION('',(-1.73472347597681E-16,-1.,0.));
#1146=DIRECTION('',(0.,0.,-1.));
#1147=DIRECTION('',(0.,1.,0.));
#1148=DIRECTION('',(0.,0.,1.));
#1149=DIRECTION('',(1.,0.,0.));
#1150=DIRECTION('',(1.,0.,0.));
#1151=DIRECTION('',(0.,0.,-1.));
#1152=DIRECTION('',(0.,1.,0.));
#1153=DIRECTION('',(0.,0.,1.));
#1154=DIRECTION('',(1.,0.,0.));
#1155=DIRECTION('',(0.,0.,-1.));
#1156=DIRECTION('',(1.,0.,0.));
#1157=DIRECTION('',(1.,-1.7347234759768E-16,0.));
#1158=DIRECTION('',(1.7347234759768E-16,1.,0.));
#1159=DIRECTION('',(-1.7347234759768E-16,-1.,0.));
#1160=DIRECTION('',(-1.7347234759768E-16,-1.,0.));
#1161=DIRECTION('',(0.,0.,1.));
#1162=DIRECTION('',(1.,0.,0.));
#1163=DIRECTION('',(-0.708518368994752,-0.70569236980218,0.));
#1164=DIRECTION('',(-0.70569236980218,0.708518368994752,0.));
#1165=DIRECTION('',(0.708518368994752,0.70569236980218,0.));
#1166=DIRECTION('',(0.70569236980218,-0.708518368994752,0.));
#1167=DIRECTION('',(0.00399655840596656,0.999992013728564,0.));
#1168=DIRECTION('',(0.70569236980218,-0.708518368994752,0.));
#1169=DIRECTION('',(0.708518368994752,0.70569236980218,0.));
#1170=DIRECTION('',(-0.70569236980218,0.708518368994752,0.));
#1171=DIRECTION('',(-3.65204942310906E-16,1.,0.));
#1172=DIRECTION('',(-0.708518368994752,-0.70569236980218,0.));
#1173=DIRECTION('',(1.,0.,0.));
#1174=DIRECTION('',(0.70569236980218,-0.708518368994752,0.));
#1175=DIRECTION('',(0.,0.,1.));
#1176=DIRECTION('',(1.,0.,0.));
#1177=DIRECTION('',(0.,0.,1.));
#1178=DIRECTION('',(1.,0.,0.));
#1179=DIRECTION('',(0.,0.,1.));
#1180=DIRECTION('',(1.,0.,0.));
#1181=DIRECTION('',(0.,0.,1.));
#1182=DIRECTION('',(1.,0.,0.));
#1183=DIRECTION('',(0.,0.,1.));
#1184=DIRECTION('',(1.,0.,0.));
#1185=DIRECTION('',(0.,0.,1.));
#1186=DIRECTION('',(1.,0.,0.));
#1187=DIRECTION('',(0.,0.,1.));
#1188=DIRECTION('',(1.,0.,0.));
#1189=DIRECTION('',(1.,0.,0.));
#1190=DIRECTION('',(0.,-1.,0.));
#1191=DIRECTION('',(-1.,0.,0.));
#1192=DIRECTION('',(0.,1.,0.));
#1193=DIRECTION('',(0.,0.,1.));
#1194=DIRECTION('',(1.,0.,0.));
#1195=DIRECTION('',(0.,0.,1.));
#1196=DIRECTION('',(1.,0.,0.));
#1197=DIRECTION('',(0.,0.,1.));
#1198=DIRECTION('',(1.,0.,0.));
#1199=DIRECTION('',(0.,0.,1.));
#1200=DIRECTION('',(1.,0.,0.));
#1201=DIRECTION('',(0.,0.,1.));
#1202=DIRECTION('',(1.,0.,0.));
#1203=DIRECTION('',(0.,0.,1.));
#1204=DIRECTION('',(1.,0.,0.));
#1205=DIRECTION('',(0.,0.,1.));
#1206=DIRECTION('',(1.,0.,0.));
#1207=DIRECTION('',(0.,0.,1.));
#1208=DIRECTION('',(1.,0.,0.));
#1209=DIRECTION('',(0.,0.,1.));
#1210=DIRECTION('',(1.,0.,0.));
#1211=DIRECTION('',(0.,0.,1.));
#1212=DIRECTION('',(1.,0.,0.));
#1213=DIRECTION('',(0.,0.,1.));
#1214=DIRECTION('',(1.,0.,0.));
#1215=DIRECTION('',(0.,0.,1.));
#1216=DIRECTION('',(1.,0.,0.));
#1217=DIRECTION('',(-0.427582709728927,0.903976231070745,0.));
#1218=DIRECTION('',(0.,0.,1.));
#1219=DIRECTION('',(1.,0.,0.));
#1220=DIRECTION('',(1.33641842118363E-14,-3.49996113742623E-14,-1.));
#1221=DIRECTION('',(-0.440224120357126,0.897887923883485,-3.75542076315384E-14));
#1222=DIRECTION('',(0.,0.,1.));
#1223=DIRECTION('',(1.,0.,0.));
#1224=DIRECTION('',(0.,0.,1.));
#1225=DIRECTION('',(1.,0.,0.));
#1226=DIRECTION('',(0.,0.,1.));
#1227=DIRECTION('',(1.,0.,0.));
#1228=DIRECTION('',(0.999992013728564,-0.00399655840596656,0.));
#1229=DIRECTION('',(0.00399655840596656,0.999992013728564,0.));
#1230=DIRECTION('',(-0.00399655840596656,-0.999992013728564,0.));
#1231=DIRECTION('',(0.,0.,1.));
#1232=DIRECTION('',(0.00373395594061722,0.934285387811943,-0.356506481980512));
#1233=DIRECTION('',(0.,0.,-1.));
#1234=DIRECTION('',(0.,0.,-1.));
#1235=DIRECTION('',(-0.708518368994752,-0.70569236980218,0.));
#1236=DIRECTION('',(0.70569236980218,-0.708518368994752,0.));
#1237=DIRECTION('',(0.,0.,-1.));
#1238=DIRECTION('',(-0.70569236980218,0.708518368994752,0.));
#1239=DIRECTION('',(-0.70569236980218,0.708518368994752,0.));
#1240=DIRECTION('',(-0.708518368994752,-0.70569236980218,0.));
#1241=DIRECTION('',(0.,0.,-1.));
#1242=DIRECTION('',(0.,0.,-1.));
#1243=DIRECTION('',(0.708518368994752,0.70569236980218,0.));
#1244=DIRECTION('',(0.,0.,1.));
#1245=DIRECTION('',(1.,0.,0.));
#1246=DIRECTION('',(0.70569236980218,-0.708518368994752,0.));
#1247=DIRECTION('',(0.708518368994752,0.70569236980218,0.));
#1248=DIRECTION('',(-0.70569236980218,0.708518368994752,0.));
#1249=DIRECTION('',(-0.708518368994752,-0.70569236980218,0.));
#1250=DIRECTION('',(0.70569236980218,-0.708518368994752,0.));
#1251=DIRECTION('',(1.,0.,0.));
#1252=DIRECTION('',(-3.65204942310906E-16,1.,0.));
#1253=DIRECTION('',(0.,0.,1.));
#1254=DIRECTION('',(1.,0.,0.));
#1255=DIRECTION('',(0.,0.,-1.));
#1256=DIRECTION('',(1.,0.,0.));
#1257=DIRECTION('',(0.708518368994752,0.70569236980218,0.));
#1258=DIRECTION('',(-0.70569236980218,0.708518368994752,0.));
#1259=DIRECTION('',(0.,0.,-1.));
#1260=DIRECTION('',(0.620756683226531,-0.623242550951123,0.475636271654648));
#1261=DIRECTION('',(0.,0.,1.));
#1262=DIRECTION('',(0.,0.,1.));
#1263=DIRECTION('',(0.,0.,1.));
#1264=DIRECTION('',(0.983338478445521,0.181784038926545,0.));
#1265=DIRECTION('',(0.,0.,1.));
#1266=DIRECTION('',(0.,0.,1.));
#1267=DIRECTION('',(1.,0.,0.));
#1268=DIRECTION('',(0.,0.,1.));
#1269=DIRECTION('',(0.852563594213968,0.522623495282178,0.));
#1270=DIRECTION('',(0.,0.,1.));
#1271=DIRECTION('',(0.,0.,1.));
#1272=DIRECTION('',(1.,0.,0.));
#1273=DIRECTION('',(0.,0.,1.));
#1274=DIRECTION('',(0.,0.,1.));
#1275=DIRECTION('',(0.,0.,1.));
#1276=DIRECTION('',(-0.0851435064760116,0.99636869847711,0.));
#1277=DIRECTION('',(0.,0.,1.));
#1278=DIRECTION('',(0.,0.,1.));
#1279=DIRECTION('',(1.,0.,0.));
#1280=DIRECTION('',(0.,0.,1.));
#1281=DIRECTION('',(-0.216696121972896,0.976239105302542,0.));
#1282=DIRECTION('',(0.,0.,1.));
#1283=DIRECTION('',(0.,0.,1.));
#1284=DIRECTION('',(1.,0.,0.));
#1285=DIRECTION('',(0.,0.,1.));
#1286=DIRECTION('',(-0.355896119141106,0.93452552259438,0.));
#1287=DIRECTION('',(0.,0.,1.));
#1288=DIRECTION('',(-1.41207348778065E-14,3.69809503676627E-14,-1.));
#1289=DIRECTION('',(-0.440224120357126,0.897887923883485,3.75542076315384E-14));
#1290=DIRECTION('',(0.,0.,1.));
#1291=DIRECTION('',(-0.549574632878264,0.835444625870992,0.));
#1292=DIRECTION('',(0.,0.,1.));
#1293=DIRECTION('',(0.,0.,1.));
#1294=DIRECTION('',(1.,0.,0.));
#1295=DIRECTION('',(0.903976231070745,0.427582709728927,0.));
#1296=DIRECTION('',(-0.427582709728927,0.903976231070745,0.));
#1297=DIRECTION('',(0.,0.,1.));
#1298=DIRECTION('',(-0.427582709728927,0.903976231070745,0.));
#1299=DIRECTION('',(0.,0.,1.));
#1300=DIRECTION('',(-0.492361191698596,0.870390979335803,0.));
#1301=DIRECTION('',(0.,0.,1.));
#1302=DIRECTION('',(0.,0.,1.));
#1303=DIRECTION('',(1.,0.,0.));
#1304=DIRECTION('',(0.,0.,1.));
#1305=DIRECTION('',(-0.347477856678971,0.937688188641506,0.));
#1306=DIRECTION('',(0.,0.,1.));
#1307=DIRECTION('',(0.,0.,1.));
#1308=DIRECTION('',(1.,0.,0.));
#1309=DIRECTION('',(0.,0.,1.));
#1310=DIRECTION('',(-0.157217330651246,0.987564028781373,0.));
#1311=DIRECTION('',(0.,0.,1.));
#1312=DIRECTION('',(0.,0.,1.));
#1313=DIRECTION('',(1.,0.,0.));
#1314=DIRECTION('',(0.,0.,1.));
#1315=DIRECTION('',(-0.041599694895947,0.999134358024267,0.));
#1316=DIRECTION('',(0.,0.,1.));
#1317=DIRECTION('',(0.,0.,1.));
#1318=DIRECTION('',(1.,0.,0.));
#1319=DIRECTION('',(0.,0.,1.));
#1320=DIRECTION('',(0.136278586586084,0.990670554139013,0.));
#1321=DIRECTION('',(0.,0.,1.));
#1322=DIRECTION('',(0.,0.,1.));
#1323=DIRECTION('',(1.,0.,0.));
#1324=DIRECTION('',(0.,0.,1.));
#1325=DIRECTION('',(0.449579640446136,0.893240251498063,0.));
#1326=DIRECTION('',(0.,0.,1.));
#1327=DIRECTION('',(0.,0.,1.));
#1328=DIRECTION('',(1.,0.,0.));
#1329=DIRECTION('',(0.,0.,1.));
#1330=DIRECTION('',(0.77217276202498,0.635412641978985,0.));
#1331=DIRECTION('',(0.,0.,1.));
#1332=DIRECTION('',(0.,0.,1.));
#1333=DIRECTION('',(1.,0.,0.));
#1334=DIRECTION('',(0.,0.,1.));
#1335=DIRECTION('',(0.,0.,1.));
#1336=DIRECTION('',(0.,0.,1.));
#1337=DIRECTION('',(0.841663542601185,-0.540002297269209,0.));
#1338=DIRECTION('',(0.,0.,1.));
#1339=DIRECTION('',(0.,0.,1.));
#1340=DIRECTION('',(1.,0.,0.));
#1341=DIRECTION('',(0.,0.,1.));
#1342=DIRECTION('',(0.756453906519324,-0.654047006958715,0.));
#1343=DIRECTION('',(0.,0.,1.));
#1344=DIRECTION('',(0.,0.,1.));
#1345=DIRECTION('',(1.,0.,0.));
#1346=DIRECTION('',(0.,0.,1.));
#1347=DIRECTION('',(0.699511103690956,-0.714621729177794,0.));
#1348=DIRECTION('',(0.,0.,1.));
#1349=DIRECTION('',(0.,0.,1.));
#1350=DIRECTION('',(1.,0.,0.));
#1351=DIRECTION('',(0.,0.,1.));
#1352=DIRECTION('',(0.66493085949046,-0.746904915030874,0.));
#1353=DIRECTION('',(0.,0.,1.));
#1354=DIRECTION('',(0.,0.,1.));
#1355=DIRECTION('',(1.,0.,0.));
#1356=DIRECTION('',(0.,0.,1.));
#1357=DIRECTION('',(-0.657711736449779,0.753269720442961,0.));
#1358=DIRECTION('',(0.,0.,1.));
#1359=DIRECTION('',(0.,0.,1.));
#1360=DIRECTION('',(1.,0.,0.));
#1361=DIRECTION('',(1.,0.,0.));
#1362=DIRECTION('',(0.,0.,-1.));
#1363=DIRECTION('',(0.,0.,1.));
#1364=DIRECTION('',(0.,1.,0.));
#1365=DIRECTION('',(0.,1.,0.));
#1366=DIRECTION('',(0.,0.,1.));
#1367=DIRECTION('',(0.,0.,1.));
#1368=DIRECTION('',(-1.,0.,0.));
#1369=DIRECTION('',(-1.,0.,0.));
#1370=DIRECTION('',(0.,0.,1.));
#1371=DIRECTION('',(0.,0.,1.));
#1372=DIRECTION('',(0.,-1.,0.));
#1373=DIRECTION('',(0.,-1.,0.));
#1374=DIRECTION('',(0.,0.,-1.));
#1375=DIRECTION('',(0.,0.,1.));
#1376=DIRECTION('',(1.,0.,0.));
#1377=DIRECTION('',(0.,0.,1.));
#1378=DIRECTION('',(-0.692879359021638,0.721053530496706,0.));
#1379=DIRECTION('',(0.,0.,1.));
#1380=DIRECTION('',(0.,0.,1.));
#1381=DIRECTION('',(1.,0.,0.));
#1382=DIRECTION('',(0.,0.,1.));
#1383=DIRECTION('',(0.698456879116007,-0.715652141766883,0.));
#1384=DIRECTION('',(0.,0.,1.));
#1385=DIRECTION('',(0.,0.,1.));
#1386=DIRECTION('',(1.,0.,0.));
#1387=DIRECTION('',(0.,0.,1.));
#1388=DIRECTION('',(0.732086574473632,-0.681211602569615,0.));
#1389=DIRECTION('',(0.,0.,1.));
#1390=DIRECTION('',(0.,0.,1.));
#1391=DIRECTION('',(1.,0.,0.));
#1392=DIRECTION('',(0.,0.,1.));
#1393=DIRECTION('',(0.787188705402295,-0.616712203614505,0.));
#1394=DIRECTION('',(0.,0.,1.));
#1395=DIRECTION('',(0.,0.,1.));
#1396=DIRECTION('',(1.,0.,0.));
#1397=DIRECTION('',(0.,0.,1.));
#1398=DIRECTION('',(0.877284658238269,-0.479970445360716,0.));
#1399=DIRECTION('',(0.,0.,1.));
#1400=DIRECTION('',(1.,0.,0.));
#1401=DIRECTION('',(0.,0.,1.));
#1402=DIRECTION('',(1.,0.,0.));
#1403=DIRECTION('',(-1.,-3.65204942310906E-16,0.));
#1404=DIRECTION('',(3.65204942310906E-16,-1.,0.));
#1405=DIRECTION('',(0.,1.,0.));
#1406=DIRECTION('',(0.,0.,1.));
#1407=DIRECTION('',(0.335652887707842,-0.336997035427496,-0.87964205054469));
#1408=DIRECTION('',(0.,0.933816735123463,-0.357751736827868));
#1409=DIRECTION('',(-0.620756683226531,0.623242550951122,-0.475636271654648));
#1410=DIRECTION('',(-0.708518368994752,-0.70569236980218,0.));
#1411=DIRECTION('',(0.70569236980218,-0.708518368994752,0.));
#1412=DIRECTION('',(0.708518368994752,0.70569236980218,0.));
#1413=DIRECTION('',(-0.70569236980218,0.708518368994752,0.));
#1414=DIRECTION('',(0.,0.,1.));
#1415=DIRECTION('',(0.,0.,1.));
#1416=DIRECTION('',(0.70569236980218,-0.708518368994752,0.));
#1417=DIRECTION('',(0.708518368994752,0.70569236980218,0.));
#1418=DIRECTION('',(0.,0.,1.));
#1419=DIRECTION('',(-0.708518368994752,-0.70569236980218,0.));
#1420=DIRECTION('',(0.70569236980218,-0.708518368994752,0.));
#1421=DIRECTION('',(0.,0.,1.));
#1422=DIRECTION('',(-0.70569236980218,0.708518368994752,0.));
#1423=DIRECTION('',(-0.708518368994752,-0.70569236980218,0.));
#1424=DIRECTION('',(0.,0.,1.));
#1425=DIRECTION('',(1.,0.,0.));
#1426=CARTESIAN_POINT('',(0.,0.,0.));
#1427=CARTESIAN_POINT('',(-0.00479903985524669,0.0502828982884449,0.120002));
#1428=CARTESIAN_POINT('',(-0.00479903985524669,0.0502828982884449,0.1198));
#1429=CARTESIAN_POINT('',(-0.00479903985524669,0.0552828982884449,0.1198));
#1430=CARTESIAN_POINT('',(-0.00479903985524669,0.0452828982884449,0.1198));
#1431=CARTESIAN_POINT('',(-0.00479903985524669,0.0552828982884449,0.120002));
#1432=CARTESIAN_POINT('',(-0.00479903985524669,0.0552828982884449,0.09));
#1433=CARTESIAN_POINT('',(-0.00479903985524669,0.0502828982884449,0.09));
#1434=CARTESIAN_POINT('',(-0.00479903985524669,0.0452828982884449,0.09));
#1435=CARTESIAN_POINT('',(-0.00479903985524669,0.0452828982884449,0.120002));
#1436=CARTESIAN_POINT('',(0.000200960144753309,0.0452828982884449,0.120002));
#1437=CARTESIAN_POINT('',(0.000200960144753309,0.0452828982884449,0.1198));
#1438=CARTESIAN_POINT('',(0.00520096014475331,0.0452828982884449,0.1198));
#1439=CARTESIAN_POINT('',(0.000200960144753309,0.0452828982884449,0.09));
#1440=CARTESIAN_POINT('',(0.00520096014475331,0.0452828982884449,0.09));
#1441=CARTESIAN_POINT('',(0.00520096014475331,0.0452828982884449,0.120002));
#1442=CARTESIAN_POINT('',(0.000200960144753312,0.0552828982884449,0.120002));
#1443=CARTESIAN_POINT('',(0.000200960144753312,0.0552828982884449,0.1198));
#1444=CARTESIAN_POINT('',(0.00520096014475331,0.0552828982884449,0.1198));
#1445=CARTESIAN_POINT('',(0.00520096014475331,0.0552828982884449,0.120002));
#1446=CARTESIAN_POINT('',(0.00520096014475331,0.0552828982884449,0.09));
#1447=CARTESIAN_POINT('',(0.000200960144753312,0.0552828982884449,0.09));
#1448=CARTESIAN_POINT('',(0.00520096014475331,0.0502828982884449,0.120002));
#1449=CARTESIAN_POINT('',(0.00520096014475331,0.0502828982884449,0.1198));
#1450=CARTESIAN_POINT('',(0.00520096014475331,0.0502828982884449,0.09));
#1451=CARTESIAN_POINT('',(0.,0.,0.09));
#1452=CARTESIAN_POINT('',(0.0330709975137245,0.0402783496603935,0.09));
#1453=CARTESIAN_POINT('',(0.0367552930324972,0.0439479499833648,0.09));
#1454=CARTESIAN_POINT('',(0.0293867019949518,0.0366087493374221,0.09));
#1455=CARTESIAN_POINT('',(0.0404248933554686,0.0402636544645921,0.09));
#1456=CARTESIAN_POINT('',(0.0440944936784399,0.0365793589458194,0.09));
#1457=CARTESIAN_POINT('',(0.0404101981596673,0.032909758622848,0.09));
#1458=CARTESIAN_POINT('',(0.0367259026408945,0.0292401582998768,0.09));
#1459=CARTESIAN_POINT('',(0.0330563023179232,0.0329244538186495,0.09));
#1460=CARTESIAN_POINT('',(-0.0191077553378038,-0.0269238497609578,0.09));
#1461=CARTESIAN_POINT('',(-0.0190324289000217,-0.00807617419785644,0.09));
#1462=CARTESIAN_POINT('',(-0.0189693423369644,0.0077089220831651,0.09));
#1463=CARTESIAN_POINT('',(-0.000108363509735119,-0.0270760224586991,0.09));
#1464=CARTESIAN_POINT('',(0.0188157018805515,-0.0460758707195419,0.09));
#1465=CARTESIAN_POINT('',(-0.000185258723412431,-0.0650010440162535,0.09));
#1466=CARTESIAN_POINT('',(-0.00018384168667445,-0.0649996326315139,0.09));
#1467=CARTESIAN_POINT('',(-0.0325918449737585,-0.0324618490109003,0.09));
#1468=CARTESIAN_POINT('',(-0.046,-0.019,0.09));
#1469=CARTESIAN_POINT('',(-0.046,0.,0.09));
#1470=CARTESIAN_POINT('',(-0.046,0.00781652421652422,0.09));
#1471=CARTESIAN_POINT('',(-0.0459463060153412,0.00787000403714169,0.09));
#1472=CARTESIAN_POINT('',(-0.0347717391304348,0.019,0.09));
#1473=CARTESIAN_POINT('',(-0.0394634914772318,0.019,0.09));
#1474=CARTESIAN_POINT('',(-0.0302153846153846,0.019,0.09));
#1475=CARTESIAN_POINT('',(-0.0112062979410577,-8.52100191325398E-5,0.09));
#1476=CARTESIAN_POINT('',(0.,4.59242549680257E-18,0.09));
#1477=CARTESIAN_POINT('',(0.0702832998645263,4.59242549680257E-18,0.09));
#1478=CARTESIAN_POINT('',(0.00010904134944882,0.0226291956268391,0.09));
#1479=CARTESIAN_POINT('',(0.00224890226802263,0.0234444232825039,0.09));
#1480=CARTESIAN_POINT('',(0.00239731935958609,0.0226616633809748,0.09));
#1481=CARTESIAN_POINT('',(0.00239731935958609,0.0226616633809748,0.09));
#1482=CARTESIAN_POINT('',(0.00239731935958609,0.0222645279643082,0.09));
#1483=CARTESIAN_POINT('',(0.0022239795158361,0.0218421646830582,0.09));
#1484=CARTESIAN_POINT('',(0.0022239795158361,0.0218421646830582,0.09));
#1485=CARTESIAN_POINT('',(-0.00185351950598546,0.0235431979661406,0.09));
#1486=CARTESIAN_POINT('',(0.0017656706604712,0.0210081147343017,0.09));
#1487=CARTESIAN_POINT('',(-0.0053164116722366,0.0259168646683277,0.09));
#1488=CARTESIAN_POINT('',(0.00113996683442532,0.0202097026541157,0.09));
#1489=CARTESIAN_POINT('',(-0.0127108127741852,0.0324044686681794,0.09));
#1490=CARTESIAN_POINT('',(0.000458820874207168,0.0194772772171247,0.09));
#1491=CARTESIAN_POINT('',(-0.0144166998898467,0.0340513027299774,0.09));
#1492=CARTESIAN_POINT('',(-0.000181558577046198,0.0188513764278184,0.09));
#1493=CARTESIAN_POINT('',(0.0137388288118019,0.00382180423468386,0.09));
#1494=CARTESIAN_POINT('',(-0.000675597307080574,0.0183778092143082,0.09));
#1495=CARTESIAN_POINT('',(0.000916199567919426,0.0183778092143082,0.09));
#1496=CARTESIAN_POINT('',(0.00250799644291943,0.0183778092143082,0.09));
#1497=CARTESIAN_POINT('',(0.00250799644291943,0.0178846451518082,0.09));
#1498=CARTESIAN_POINT('',(0.00250799644291943,0.0173914810893082,0.09));
#1499=CARTESIAN_POINT('',(0.000178894880419425,0.0173914810893082,0.09));
#1500=CARTESIAN_POINT('',(-0.00215020668208057,0.0173914810893082,0.09));
#1501=CARTESIAN_POINT('',(-0.00215020668208057,0.0179611425476415,0.09));
#1502=CARTESIAN_POINT('',(-0.00215020668208057,0.0185310027377059,0.09));
#1503=CARTESIAN_POINT('',(0.0242178069287406,-0.0112263365169104,0.09));
#1504=CARTESIAN_POINT('',(-0.00164235522415684,0.0189734671095493,0.09));
#1505=CARTESIAN_POINT('',(-0.0208079895876071,0.0411783587612703,0.09));
#1506=CARTESIAN_POINT('',(-0.000940091071358264,0.0195993348889277,0.09));
#1507=CARTESIAN_POINT('',(-0.0122904287538082,0.0319368395623948,0.09));
#1508=CARTESIAN_POINT('',(-0.000187372358736606,0.0203366851205449,0.09));
#1509=CARTESIAN_POINT('',(-0.00725300341399602,0.0271508713209566,0.09));
#1510=CARTESIAN_POINT('',(0.000499371601944799,0.0211302163590477,0.09));
#1511=CARTESIAN_POINT('',(-0.00350644155989562,0.0242797392476682,0.09));
#1512=CARTESIAN_POINT('',(0.00100815920333609,0.0219186620788915,0.09));
#1513=CARTESIAN_POINT('',(0.00100815920333609,0.0219186620788915,0.09));
#1514=CARTESIAN_POINT('',(0.00120591310958609,0.0223052180684749,0.09));
#1515=CARTESIAN_POINT('',(0.00120591310958609,0.0226502701518082,0.09));
#1516=CARTESIAN_POINT('',(0.00120591310958609,0.0226502701518082,0.09));
#1517=CARTESIAN_POINT('',(0.00120591310958609,0.0226502701518082,0.09));
#1518=CARTESIAN_POINT('',(0.00120591310958609,0.0230067154643082,0.09));
#1519=CARTESIAN_POINT('',(0.00107895998458609,0.0232459732768082,0.09));
#1520=CARTESIAN_POINT('',(0.00107895998458609,0.0232459732768082,0.09));
#1521=CARTESIAN_POINT('',(-3.96127784844459E-6,0.0226903668049334,0.09));
#1522=CARTESIAN_POINT('',(0.000759207831444124,0.0236375006434438,0.09));
#1523=CARTESIAN_POINT('',(3.77576324928385E-5,0.0227349407059013,0.09));
#1524=CARTESIAN_POINT('',(0.000336734977477201,0.0238504986084869,0.09));
#1525=CARTESIAN_POINT('',(-0.00011669427676293,0.0222209051683058,0.09));
#1526=CARTESIAN_POINT('',(-9.61701619365791E-5,0.0239116093020336,0.09));
#1527=CARTESIAN_POINT('',(-0.000161556028286027,0.0167925779314326,0.09));
#1528=CARTESIAN_POINT('',(-0.000751290185754718,0.0238865566248023,0.09));
#1529=CARTESIAN_POINT('',(-0.00044548096839402,0.0204080478960832,0.09));
#1530=CARTESIAN_POINT('',(-0.0012045761256164,0.0238156695028189,0.09));
#1531=CARTESIAN_POINT('',(-0.000893270492173083,0.022426385448814,0.09));
#1532=CARTESIAN_POINT('',(-0.00155050246034163,0.0236888110657974,0.09));
#1533=CARTESIAN_POINT('',(0.00238635216585389,0.0163645857898876,0.09));
#1534=CARTESIAN_POINT('',(-0.00187511924954458,0.0235047151336689,0.09));
#1535=CARTESIAN_POINT('',(-0.00205336423416391,0.0238815527038915,0.09));
#1536=CARTESIAN_POINT('',(-0.00223188338124439,0.0242589698701433,0.09));
#1537=CARTESIAN_POINT('',(-0.000935968446060531,0.0227543330263227,0.09));
#1538=CARTESIAN_POINT('',(-0.00177897644227456,0.0245526482815012,0.09));
#1539=CARTESIAN_POINT('',(-0.000320392160451684,0.0215640518995607,0.0900000000000001));
#1540=CARTESIAN_POINT('',(-0.00121920900858934,0.0247661269609274,0.09));
#1541=CARTESIAN_POINT('',(0.000204213799416928,0.0197257705870728,0.09));
#1542=CARTESIAN_POINT('',(-0.000644652278313463,0.024893805592211,0.09));
#1543=CARTESIAN_POINT('',(-8.78122729284529E-5,0.0216263163605848,0.09));
#1544=CARTESIAN_POINT('',(-0.000115701473747241,0.0249403092143082,0.09));
#1545=CARTESIAN_POINT('',(-0.000115701473747241,0.0249403092143082,0.09));
#1546=CARTESIAN_POINT('',(0.000545105817919426,0.0249403092143082,0.09));
#1547=CARTESIAN_POINT('',(0.00101792482833609,0.0247262792663915,0.09));
#1548=CARTESIAN_POINT('',(0.00101792482833609,0.0247262792663915,0.09));
#1549=CARTESIAN_POINT('',(0.00101792482833609,0.0247262792663915,0.09));
#1550=CARTESIAN_POINT('',(0.00149074383875276,0.0245122493184749,0.09));
#1551=CARTESIAN_POINT('',(0.00179591962000276,0.0241818456726415,0.09));
#1552=CARTESIAN_POINT('',(0.00179591962000276,0.0241818456726415,0.09));
#1553=CARTESIAN_POINT('',(0.000207659307072929,0.0226957070039912,0.09));
#1554=CARTESIAN_POINT('',(-0.0191077553378038,-0.0269238497609578,0.059998));
#1555=CARTESIAN_POINT('',(-0.0191077553378038,-0.0269238497609578,0.06));
#1556=CARTESIAN_POINT('',(-0.0189693423369644,0.0077089220831651,0.06));
#1557=CARTESIAN_POINT('',(-0.0191836899475171,-0.0459236980218006,0.06));
#1558=CARTESIAN_POINT('',(-0.0191836899475171,-0.0459236980218006,0.059998));
#1559=CARTESIAN_POINT('',(-0.0191836899475171,-0.0459236980218006,0.0754419336384439));
#1560=CARTESIAN_POINT('',(-0.0190968477413506,-0.0241946242038138,0.0671505103061285));
#1561=CARTESIAN_POINT('',(-0.0190324289000217,-0.00807617419785641,0.061));
#1562=CARTESIAN_POINT('',(-0.0190324289000217,-0.00807617419785644,0.059998));
#1563=CARTESIAN_POINT('',(-0.0189693423369644,0.0077089220831651,0.090002));
#1564=CARTESIAN_POINT('',(-0.0112062979410577,-8.52100191325398E-5,0.059998));
#1565=CARTESIAN_POINT('',(-0.0302153846153846,0.019,0.090002));
#1566=CARTESIAN_POINT('',(-0.0302153846153846,0.019,0.06));
#1567=CARTESIAN_POINT('',(-0.0112062979410577,-8.52100191325398E-5,0.06));
#1568=CARTESIAN_POINT('',(-0.0459463060153412,0.00787000403714169,0.059998));
#1569=CARTESIAN_POINT('',(-0.0347717391304348,0.019,0.090002));
#1570=CARTESIAN_POINT('',(-0.0347717391304348,0.019,0.06));
#1571=CARTESIAN_POINT('',(-0.046,0.00781652421652422,0.090002));
#1572=CARTESIAN_POINT('',(-0.046,0.00781652421652422,0.06));
#1573=CARTESIAN_POINT('',(-0.0459463060153412,0.00787000403714169,0.06));
#1574=CARTESIAN_POINT('',(0.,0.,0.06));
#1575=CARTESIAN_POINT('',(0.0404248933554686,0.0402636544645921,0.06));
#1576=CARTESIAN_POINT('',(0.0367552930324972,0.0439479499833648,0.06));
#1577=CARTESIAN_POINT('',(0.0440944936784399,0.0365793589458194,0.06));
#1578=CARTESIAN_POINT('',(0.0330709975137245,0.0402783496603935,0.06));
#1579=CARTESIAN_POINT('',(0.0293867019949518,0.0366087493374221,0.06));
#1580=CARTESIAN_POINT('',(0.0330563023179232,0.0329244538186495,0.06));
#1581=CARTESIAN_POINT('',(0.0367259026408945,0.0292401582998768,0.06));
#1582=CARTESIAN_POINT('',(0.0404101981596673,0.032909758622848,0.06));
#1583=CARTESIAN_POINT('',(-0.0325918449737585,-0.0324618490109003,0.06));
#1584=CARTESIAN_POINT('',(-0.046,-0.019,0.06));
#1585=CARTESIAN_POINT('',(-0.0394634914772318,0.019,0.06));
#1586=CARTESIAN_POINT('',(-0.046,0.,0.06));
#1587=CARTESIAN_POINT('',(0.,4.59242549680257E-18,0.06));
#1588=CARTESIAN_POINT('',(0.0718555332430175,4.59242549680257E-18,0.06));
#1589=CARTESIAN_POINT('',(0.,4.59242549680257E-18,0.06));
#1590=CARTESIAN_POINT('',(-0.0325918449737585,-0.0324618490109003,0.059998));
#1591=CARTESIAN_POINT('',(-0.046,-0.019,0.090002));
#1592=CARTESIAN_POINT('',(-0.0191079070769611,-0.0459997843706712,0.0755));
#1593=CARTESIAN_POINT('',(0.00239731935958609,0.0226616633809748,0.089));
#1594=CARTESIAN_POINT('',(0.00239731935958609,0.0226616633809748,0.09));
#1595=CARTESIAN_POINT('',(0.00239731935958609,0.0223969064365304,0.089));
#1596=CARTESIAN_POINT('',(0.00239731935958609,0.0223969064365304,0.09));
#1597=CARTESIAN_POINT('',(0.00233953941166943,0.0221237402038915,0.089));
#1598=CARTESIAN_POINT('',(0.00233953941166943,0.0221237402038915,0.09));
#1599=CARTESIAN_POINT('',(0.0022239795158361,0.0218421646830582,0.089));
#1600=CARTESIAN_POINT('',(0.0022239795158361,0.0218421646830582,0.09));
#1601=CARTESIAN_POINT('',(0.00239731935958609,0.0226616633809748,0.089));
#1602=CARTESIAN_POINT('',(0.00239731935958609,0.0226616633809748,0.089));
#1603=CARTESIAN_POINT('',(0.00239731935958609,0.0226616633809748,0.089));
#1604=CARTESIAN_POINT('',(0.00239731935958609,0.0222645279643082,0.089));
#1605=CARTESIAN_POINT('',(0.0022239795158361,0.0218421646830582,0.089));
#1606=CARTESIAN_POINT('',(0.0022239795158361,0.0218421646830582,0.089));
#1607=CARTESIAN_POINT('',(0.0022239795158361,0.0218421646830582,0.089));
#1608=CARTESIAN_POINT('',(0.00010904134944882,0.0226291956268391,0.0889999999999997));
#1609=CARTESIAN_POINT('',(0.00224920738041942,0.0234445409851415,0.089));
#1610=CARTESIAN_POINT('',(0.00224890226802263,0.0234444232825039,0.089));
#1611=CARTESIAN_POINT('',(0.00010904134944882,0.0226291956268391,0.089));
#1612=CARTESIAN_POINT('',(0.000207659307072929,0.0226957070039912,0.0889999999999998));
#1613=CARTESIAN_POINT('',(0.00179591962000276,0.0241818456726415,0.089));
#1614=CARTESIAN_POINT('',(0.00179591962000276,0.0241818456726415,0.089));
#1615=CARTESIAN_POINT('',(0.000207659307072929,0.0226957070039912,0.089));
#1616=CARTESIAN_POINT('',(0.00101792482833609,0.0247262792663915,0.089));
#1617=CARTESIAN_POINT('',(0.00101792482833609,0.0247262792663915,0.09));
#1618=CARTESIAN_POINT('',(0.0013331375019472,0.0245835926344471,0.089));
#1619=CARTESIAN_POINT('',(0.0013331375019472,0.0245835926344471,0.09));
#1620=CARTESIAN_POINT('',(0.00159246909916943,0.0244021147698637,0.089));
#1621=CARTESIAN_POINT('',(0.00159246909916943,0.0244021147698637,0.09));
#1622=CARTESIAN_POINT('',(0.00179591962000276,0.0241818456726415,0.089));
#1623=CARTESIAN_POINT('',(0.00179591962000276,0.0241818456726415,0.09));
#1624=CARTESIAN_POINT('',(0.00101792482833609,0.0247262792663915,0.089));
#1625=CARTESIAN_POINT('',(0.00101792482833609,0.0247262792663915,0.089));
#1626=CARTESIAN_POINT('',(0.00101792482833609,0.0247262792663915,0.089));
#1627=CARTESIAN_POINT('',(0.00149074383875276,0.0245122493184749,0.089));
#1628=CARTESIAN_POINT('',(0.00179591962000276,0.0241818456726415,0.089));
#1629=CARTESIAN_POINT('',(-0.000115701473747241,0.0249403092143082,0.089));
#1630=CARTESIAN_POINT('',(-0.000115701473747241,0.0249403092143082,0.09));
#1631=CARTESIAN_POINT('',(0.000324836720697204,0.0249403092143082,0.089));
#1632=CARTESIAN_POINT('',(0.000324836720697204,0.0249403092143082,0.09));
#1633=CARTESIAN_POINT('',(0.000702712154724981,0.024868965898336,0.089));
#1634=CARTESIAN_POINT('',(0.000702712154724981,0.024868965898336,0.09));
#1635=CARTESIAN_POINT('',(0.00101792482833609,0.0247262792663915,0.089));
#1636=CARTESIAN_POINT('',(0.00101792482833609,0.0247262792663915,0.09));
#1637=CARTESIAN_POINT('',(-0.000115701473747241,0.0249403092143082,0.089));
#1638=CARTESIAN_POINT('',(-0.000115701473747241,0.0249403092143082,0.089));
#1639=CARTESIAN_POINT('',(-0.000115701473747241,0.0249403092143082,0.089));
#1640=CARTESIAN_POINT('',(0.000545105817919426,0.0249403092143082,0.089));
#1641=CARTESIAN_POINT('',(0.00101792482833609,0.0247262792663915,0.089));
#1642=CARTESIAN_POINT('',(-8.78122729284529E-5,0.0216263163605848,0.0889999999999988));
#1643=CARTESIAN_POINT('',(-0.000644672827913907,0.0248939224955582,0.089));
#1644=CARTESIAN_POINT('',(-0.000644652278313464,0.024893805592211,0.089));
#1645=CARTESIAN_POINT('',(-8.78122729284529E-5,0.0216263163605848,0.089));
#1646=CARTESIAN_POINT('',(0.000204213799416928,0.0197257705870728,0.0889999999999976));
#1647=CARTESIAN_POINT('',(-0.00121921709874724,0.0247661555684749,0.089));
#1648=CARTESIAN_POINT('',(-0.00121920900858934,0.0247661269609274,0.089));
#1649=CARTESIAN_POINT('',(0.000204213799416928,0.0197257705870728,0.089));
#1650=CARTESIAN_POINT('',(-0.00032120167844426,0.021566199163778,0.0889999999999991));
#1651=CARTESIAN_POINT('',(-0.00177911293208058,0.0245529394226415,0.089));
#1652=CARTESIAN_POINT('',(-0.00177897644227456,0.0245526482815012,0.089));
#1653=CARTESIAN_POINT('',(-0.000320392160451684,0.0215640518995607,0.0889999999999999));
#1654=CARTESIAN_POINT('',(-0.000935968446060531,0.0227543330263227,0.0889999999999996));
#1655=CARTESIAN_POINT('',(-0.00223188339490197,0.0242589698730399,0.089));
#1656=CARTESIAN_POINT('',(-0.00223188338124439,0.0242589698701433,0.089));
#1657=CARTESIAN_POINT('',(-0.000935968446060531,0.0227543330263227,0.089));
#1658=CARTESIAN_POINT('',(-0.00205336423416391,0.0238815527038915,0.089));
#1659=CARTESIAN_POINT('',(-0.00187511924954458,0.0235047151336689,0.089));
#1660=CARTESIAN_POINT('',(-0.00187511924954458,0.0235047151336689,0.089));
#1661=CARTESIAN_POINT('',(-0.00205336423416391,0.0238815527038915,0.089));
#1662=CARTESIAN_POINT('',(0.00238635216585389,0.0163645857898876,0.0889999999999847));
#1663=CARTESIAN_POINT('',(-0.0015504345466639,0.0236886816101415,0.089));
#1664=CARTESIAN_POINT('',(-0.00155050246034163,0.0236888110657974,0.089));
#1665=CARTESIAN_POINT('',(0.00238635216585389,0.0163645857898876,0.089));
#1666=CARTESIAN_POINT('',(-0.000893270492173083,0.022426385448814,0.0889999999999995));
#1667=CARTESIAN_POINT('',(-0.00120456866124724,0.0238156347351415,0.089));
#1668=CARTESIAN_POINT('',(-0.0012045761256164,0.0238156695028189,0.089));
#1669=CARTESIAN_POINT('',(-0.000893270492173083,0.022426385448814,0.089));
#1670=CARTESIAN_POINT('',(-0.00044548096839402,0.0204080478960832,0.0889999999999983));
#1671=CARTESIAN_POINT('',(-0.000751280900830574,0.0238864355163915,0.089));
#1672=CARTESIAN_POINT('',(-0.000751290185754718,0.0238865566248023,0.089));
#1673=CARTESIAN_POINT('',(-0.00044548096839402,0.0204080478960832,0.089));
#1674=CARTESIAN_POINT('',(-0.000161556028286027,0.0167925779314326,0.0889999999999966));
#1675=CARTESIAN_POINT('',(-9.61702237472408E-5,0.0239116633809748,0.089));
#1676=CARTESIAN_POINT('',(-9.61701619365789E-5,0.0239116093020336,0.089));
#1677=CARTESIAN_POINT('',(-0.000161556028286027,0.0167925779314326,0.089));
#1678=CARTESIAN_POINT('',(-0.00011669427676293,0.0222209051683058,0.0889999999999996));
#1679=CARTESIAN_POINT('',(0.000336772484586092,0.0238506282247249,0.089));
#1680=CARTESIAN_POINT('',(0.000336734977477201,0.0238504986084869,0.089));
#1681=CARTESIAN_POINT('',(-0.00011669427676293,0.0222209051683058,0.089));
#1682=CARTESIAN_POINT('',(3.77576324928385E-5,0.0227349407059013,0.0889999999999998));
#1683=CARTESIAN_POINT('',(0.000759135765836093,0.0236374120788915,0.089));
#1684=CARTESIAN_POINT('',(0.000759207831444124,0.0236375006434438,0.089));
#1685=CARTESIAN_POINT('',(3.77576324928385E-5,0.0227349407059013,0.089));
#1686=CARTESIAN_POINT('',(-3.96127784844459E-6,0.0226903668049334,0.0889999999999998));
#1687=CARTESIAN_POINT('',(0.00107895998458609,0.0232459732768082,0.089));
#1688=CARTESIAN_POINT('',(0.00107895998458609,0.0232459732768082,0.089));
#1689=CARTESIAN_POINT('',(-3.96127784844459E-6,0.0226903668049334,0.089));
#1690=CARTESIAN_POINT('',(0.00120591310958609,0.0226502701518082,0.089));
#1691=CARTESIAN_POINT('',(0.00120591310958609,0.0226502701518082,0.09));
#1692=CARTESIAN_POINT('',(0.00120591310958609,0.0228879003601415,0.089));
#1693=CARTESIAN_POINT('',(0.00120591310958609,0.0228879003601415,0.09));
#1694=CARTESIAN_POINT('',(0.00116359540125276,0.0230864680684749,0.089));
#1695=CARTESIAN_POINT('',(0.00116359540125276,0.0230864680684749,0.09));
#1696=CARTESIAN_POINT('',(0.00107895998458609,0.0232459732768082,0.089));
#1697=CARTESIAN_POINT('',(0.00107895998458609,0.0232459732768082,0.09));
#1698=CARTESIAN_POINT('',(0.00120591310958609,0.0226502701518082,0.089));
#1699=CARTESIAN_POINT('',(0.00120591310958609,0.0226502701518082,0.089));
#1700=CARTESIAN_POINT('',(0.00120591310958609,0.0226502701518082,0.089));
#1701=CARTESIAN_POINT('',(0.00120591310958609,0.0230067154643082,0.089));
#1702=CARTESIAN_POINT('',(0.00107895998458609,0.0232459732768082,0.089));
#1703=CARTESIAN_POINT('',(0.00100815920333609,0.0219186620788915,0.089));
#1704=CARTESIAN_POINT('',(0.00100815920333609,0.0219186620788915,0.09));
#1705=CARTESIAN_POINT('',(0.00113999514083609,0.0221763660719471,0.089));
#1706=CARTESIAN_POINT('',(0.00113999514083609,0.0221763660719471,0.09));
#1707=CARTESIAN_POINT('',(0.00120591310958609,0.022420235429586,0.089));
#1708=CARTESIAN_POINT('',(0.00120591310958609,0.022420235429586,0.09));
#1709=CARTESIAN_POINT('',(0.00120591310958609,0.0226502701518082,0.089));
#1710=CARTESIAN_POINT('',(0.00120591310958609,0.0226502701518082,0.09));
#1711=CARTESIAN_POINT('',(0.00100815920333609,0.0219186620788915,0.089));
#1712=CARTESIAN_POINT('',(0.00100815920333609,0.0219186620788915,0.089));
#1713=CARTESIAN_POINT('',(0.00100815920333609,0.0219186620788915,0.089));
#1714=CARTESIAN_POINT('',(0.00120591310958609,0.0223052180684749,0.089));
#1715=CARTESIAN_POINT('',(0.00120591310958609,0.0226502701518082,0.089));
#1716=CARTESIAN_POINT('',(-0.00350644155989562,0.0242797392476682,0.0889999999999991));
#1717=CARTESIAN_POINT('',(0.000499532901252759,0.0211300878601415,0.089));
#1718=CARTESIAN_POINT('',(0.000499371601944799,0.0211302163590477,0.089));
#1719=CARTESIAN_POINT('',(-0.00350644155989562,0.0242797392476682,0.089));
#1720=CARTESIAN_POINT('',(-0.00725300341399602,0.0271508713209566,0.0889999999999973));
#1721=CARTESIAN_POINT('',(-0.000187316057080574,0.0203366308288915,0.089));
#1722=CARTESIAN_POINT('',(-0.000187372358736606,0.0203366851205449,0.089));
#1723=CARTESIAN_POINT('',(-0.00725300341399602,0.0271508713209566,0.089));
#1724=CARTESIAN_POINT('',(-0.0122904287538082,0.0319368395623948,0.0889999999999923));
#1725=CARTESIAN_POINT('',(-0.000940082984163908,0.0195993261413915,0.089));
#1726=CARTESIAN_POINT('',(-0.000940091071358264,0.0195993348889277,0.089));
#1727=CARTESIAN_POINT('',(-0.0122904287538082,0.0319368395623948,0.089));
#1728=CARTESIAN_POINT('',(-0.0208079895876071,0.0411783587612703,0.0889999999999699));
#1729=CARTESIAN_POINT('',(-0.00164239418208058,0.0189735123393082,0.089));
#1730=CARTESIAN_POINT('',(-0.00164235522415684,0.0189734671095493,0.089));
#1731=CARTESIAN_POINT('',(-0.0208079895876071,0.0411783587612703,0.089));
#1732=CARTESIAN_POINT('',(0.0242178069287406,-0.0112263365169104,0.0889999999998889));
#1733=CARTESIAN_POINT('',(-0.00215020668208057,0.0185310027377058,0.089));
#1734=CARTESIAN_POINT('',(-0.00215020668208057,0.0185310027377059,0.089));
#1735=CARTESIAN_POINT('',(0.0242178069287406,-0.0112263365169104,0.089));
#1736=CARTESIAN_POINT('',(-0.00215020668208057,0.0179611425476415,0.089));
#1737=CARTESIAN_POINT('',(-0.00215020668208057,0.0173914810893082,0.089));
#1738=CARTESIAN_POINT('',(-0.00215020668208057,0.0173914810893082,0.089));
#1739=CARTESIAN_POINT('',(-0.00215020668208057,0.0179611425476415,0.089));
#1740=CARTESIAN_POINT('',(0.000178894880419425,0.0173914810893082,0.089));
#1741=CARTESIAN_POINT('',(0.00250799644291943,0.0173914810893082,0.089));
#1742=CARTESIAN_POINT('',(0.00250799644291943,0.0173914810893082,0.089));
#1743=CARTESIAN_POINT('',(0.000178894880419425,0.0173914810893082,0.089));
#1744=CARTESIAN_POINT('',(0.00250799644291943,0.0178846451518082,0.089));
#1745=CARTESIAN_POINT('',(0.00250799644291943,0.0183778092143082,0.089));
#1746=CARTESIAN_POINT('',(0.00250799644291943,0.0183778092143082,0.089));
#1747=CARTESIAN_POINT('',(0.00250799644291943,0.0178846451518082,0.089));
#1748=CARTESIAN_POINT('',(0.000916199567919426,0.0183778092143082,0.089));
#1749=CARTESIAN_POINT('',(-0.000675895554503528,0.0183778092143082,0.089));
#1750=CARTESIAN_POINT('',(-0.000675597307080574,0.0183778092143082,0.089));
#1751=CARTESIAN_POINT('',(0.000916199567919426,0.0183778092143082,0.089));
#1752=CARTESIAN_POINT('',(0.0137388288118019,0.00382180423468386,0.0889999999999743));
#1753=CARTESIAN_POINT('',(-0.000181619442497241,0.0188514420268082,0.089));
#1754=CARTESIAN_POINT('',(-0.000181558577046196,0.0188513764278184,0.089));
#1755=CARTESIAN_POINT('',(0.0137388288118019,0.00382180423468386,0.089));
#1756=CARTESIAN_POINT('',(-0.0144166998898467,0.0340513027299774,0.0889999999999839));
#1757=CARTESIAN_POINT('',(0.000458842797086093,0.0194772558288915,0.089));
#1758=CARTESIAN_POINT('',(0.000458820874207168,0.0194772772171247,0.089));
#1759=CARTESIAN_POINT('',(-0.0144166998898467,0.0340513027299774,0.089));
#1760=CARTESIAN_POINT('',(-0.0127108127741852,0.0324044686681794,0.0889999999999897));
#1761=CARTESIAN_POINT('',(0.00113999514083609,0.0202096777038915,0.089));
#1762=CARTESIAN_POINT('',(0.00113996683442532,0.0202097026541157,0.089));
#1763=CARTESIAN_POINT('',(-0.0127108127741852,0.0324044686681794,0.089));
#1764=CARTESIAN_POINT('',(-0.0053164116722366,0.0259168646683277,0.0889999999999978));
#1765=CARTESIAN_POINT('',(0.00176580894291942,0.0210080175476415,0.089));
#1766=CARTESIAN_POINT('',(0.0017656706604712,0.0210081147343017,0.089));
#1767=CARTESIAN_POINT('',(-0.0053164116722366,0.0259168646683277,0.089));
#1768=CARTESIAN_POINT('',(-0.00185351950598546,0.0235431979661406,0.0889999999999993));
#1769=CARTESIAN_POINT('',(-0.00185351950598546,0.0235431979661406,0.089));
#1770=CARTESIAN_POINT('',(0.,0.,0.089));
#1771=CARTESIAN_POINT('',(-0.046,0.,0.090002));
#1772=CARTESIAN_POINT('',(-0.0394634914772318,0.019,0.090002));
#1773=CARTESIAN_POINT('',(-0.0191093241136991,-0.0460011957554108,0.0755));
#1774=CARTESIAN_POINT('',(-0.000108363509735119,-0.0270760224586991,0.0755));
#1775=CARTESIAN_POINT('',(-0.000108363509735119,-0.0270760224586991,0.059998));
#1776=CARTESIAN_POINT('',(0.0404248933554686,0.0402636544645921,0.059998));
#1777=CARTESIAN_POINT('',(0.0440944936784399,0.0365793589458194,0.059998));
#1778=CARTESIAN_POINT('',(0.0367552930324972,0.0439479499833648,0.059998));
#1779=CARTESIAN_POINT('',(0.0404101981596673,0.032909758622848,0.059998));
#1780=CARTESIAN_POINT('',(0.0367259026408945,0.0292401582998768,0.059998));
#1781=CARTESIAN_POINT('',(0.0330563023179232,0.0329244538186495,0.059998));
#1782=CARTESIAN_POINT('',(0.0293867019949518,0.0366087493374221,0.059998));
#1783=CARTESIAN_POINT('',(0.0330709975137245,0.0402783496603935,0.059998));
#1784=CARTESIAN_POINT('',(0.,0.,0.1198));
#1785=MECHANICAL_DESIGN_GEOMETRIC_PRESENTATION_REPRESENTATION('',(#1030),
#1786);
#1786=(
GEOMETRIC_REPRESENTATION_CONTEXT(3)
GLOBAL_UNCERTAINTY_ASSIGNED_CONTEXT((#1787))
GLOBAL_UNIT_ASSIGNED_CONTEXT((#1790,#1789,#1788))
REPRESENTATION_CONTEXT('stage_2','TOP_LEVEL_ASSEMBLY_PART')
);
#1787=UNCERTAINTY_MEASURE_WITH_UNIT(LENGTH_MEASURE(2.E-5),#1790,
'DISTANCE_ACCURACY_VALUE','Maximum Tolerance applied to model');
#1788=(
NAMED_UNIT(*)
SI_UNIT($,.STERADIAN.)
SOLID_ANGLE_UNIT()
);
#1789=(
NAMED_UNIT(*)
PLANE_ANGLE_UNIT()
SI_UNIT($,.RADIAN.)
);
#1790=(
LENGTH_UNIT()
NAMED_UNIT(*)
SI_UNIT($,.METRE.)
);
#1791=PRODUCT_DEFINITION_SHAPE('','',#1792);
#1792=PRODUCT_DEFINITION('','',#1794,#1793);
#1793=PRODUCT_DEFINITION_CONTEXT('',#1800,'design');
#1794=PRODUCT_DEFINITION_FORMATION_WITH_SPECIFIED_SOURCE('','',#1796,
 .NOT_KNOWN.);
#1795=PRODUCT_RELATED_PRODUCT_CATEGORY('','',(#1796));
#1796=PRODUCT('stage_2','stage_2','stage_2',(#1798));
#1797=PRODUCT_CATEGORY('','');
#1798=PRODUCT_CONTEXT('',#1800,'mechanical');
#1799=APPLICATION_PROTOCOL_DEFINITION('international standard',
'ap242_managed_model_based_3d_engineering',2020,#1800);
#1800=APPLICATION_CONTEXT('managed model based 3d engineering');
ENDSEC;
END-ISO-10303-21;
