ISO-10303-21;
HEADER;
/* Generated by software containing ST-Developer
 * from STEP Tools, Inc. (www.steptools.com) 
 */
/* OPTION: using custom renumber hook */

FILE_DESCRIPTION(
/* description */ ('STEP AP242 Edition 2',
'CAx-IF Rec.Pracs.---Representation and Presentation of Product Manufa
cturing Information (PMI)---4.0---2014-10-13',
'CAx-IF Rec.Pracs.---3D Tessellated Geometry---0.4---2014-09-14','2;1',
'CAx-IF Rec.Pracs.---User Defined Attributes---1.5---2016-08-15'),
/* implementation_level */ '2;1');

FILE_NAME(
/* name */ 'Dice_Tower - stage_11',
/* time_stamp */ '2026-01-09T21:21:49Z',
/* author */ (''),
/* organization */ (''),
/* preprocessor_version */ 'ST-DEVELOPER v20',
/* originating_system */ 'ONSHAPE BY PTC INC, 1.209',
/* authorisation */ '  ');

FILE_SCHEMA (('AP242_MANAGED_MODEL_BASED_3D_ENGINEERING_MIM_LF { 1 0 10303 442 3 1 4 }'));
ENDSEC;

DATA;
#10=SHAPE_REPRESENTATION_RELATIONSHIP('','',#640,#11);
#11=ADVANCED_BREP_SHAPE_REPRESENTATION('',(#638),#1004);
#12=CONICAL_SURFACE('',#649,0.0671388331075438,0.0523598775598298);
#13=CIRCLE('',#646,0.0687110664860351);
#14=CIRCLE('',#648,0.0671388331075438);
#15=ORIENTED_EDGE('',*,*,#181,.F.);
#16=ORIENTED_EDGE('',*,*,#182,.F.);
#17=ORIENTED_EDGE('',*,*,#183,.T.);
#18=ORIENTED_EDGE('',*,*,#184,.T.);
#19=ORIENTED_EDGE('',*,*,#185,.F.);
#20=ORIENTED_EDGE('',*,*,#186,.F.);
#21=ORIENTED_EDGE('',*,*,#187,.F.);
#22=ORIENTED_EDGE('',*,*,#188,.T.);
#23=ORIENTED_EDGE('',*,*,#189,.F.);
#24=ORIENTED_EDGE('',*,*,#190,.T.);
#25=ORIENTED_EDGE('',*,*,#191,.F.);
#26=ORIENTED_EDGE('',*,*,#187,.T.);
#27=ORIENTED_EDGE('',*,*,#192,.F.);
#28=ORIENTED_EDGE('',*,*,#193,.T.);
#29=ORIENTED_EDGE('',*,*,#194,.T.);
#30=ORIENTED_EDGE('',*,*,#195,.F.);
#31=ORIENTED_EDGE('',*,*,#196,.T.);
#32=ORIENTED_EDGE('',*,*,#182,.T.);
#33=ORIENTED_EDGE('',*,*,#197,.T.);
#34=ORIENTED_EDGE('',*,*,#189,.T.);
#35=ORIENTED_EDGE('',*,*,#186,.T.);
#36=ORIENTED_EDGE('',*,*,#198,.F.);
#37=ORIENTED_EDGE('',*,*,#199,.T.);
#38=ORIENTED_EDGE('',*,*,#200,.F.);
#39=ORIENTED_EDGE('',*,*,#201,.F.);
#40=ORIENTED_EDGE('',*,*,#202,.T.);
#41=ORIENTED_EDGE('',*,*,#191,.T.);
#42=ORIENTED_EDGE('',*,*,#203,.F.);
#43=ORIENTED_EDGE('',*,*,#184,.F.);
#44=ORIENTED_EDGE('',*,*,#204,.T.);
#45=ORIENTED_EDGE('',*,*,#188,.F.);
#46=ORIENTED_EDGE('',*,*,#205,.T.);
#47=ORIENTED_EDGE('',*,*,#206,.T.);
#48=ORIENTED_EDGE('',*,*,#207,.T.);
#49=ORIENTED_EDGE('',*,*,#208,.T.);
#50=ORIENTED_EDGE('',*,*,#209,.T.);
#51=ORIENTED_EDGE('',*,*,#210,.T.);
#52=ORIENTED_EDGE('',*,*,#211,.T.);
#53=ORIENTED_EDGE('',*,*,#212,.F.);
#54=ORIENTED_EDGE('',*,*,#213,.T.);
#55=ORIENTED_EDGE('',*,*,#214,.T.);
#56=ORIENTED_EDGE('',*,*,#215,.T.);
#57=ORIENTED_EDGE('',*,*,#216,.T.);
#58=ORIENTED_EDGE('',*,*,#217,.T.);
#59=ORIENTED_EDGE('',*,*,#218,.T.);
#60=ORIENTED_EDGE('',*,*,#219,.T.);
#61=ORIENTED_EDGE('',*,*,#220,.T.);
#62=ORIENTED_EDGE('',*,*,#221,.T.);
#63=ORIENTED_EDGE('',*,*,#222,.T.);
#64=ORIENTED_EDGE('',*,*,#223,.T.);
#65=ORIENTED_EDGE('',*,*,#196,.F.);
#66=ORIENTED_EDGE('',*,*,#212,.T.);
#67=ORIENTED_EDGE('',*,*,#224,.T.);
#68=ORIENTED_EDGE('',*,*,#225,.T.);
#69=ORIENTED_EDGE('',*,*,#226,.T.);
#70=ORIENTED_EDGE('',*,*,#227,.T.);
#71=ORIENTED_EDGE('',*,*,#227,.F.);
#72=ORIENTED_EDGE('',*,*,#228,.T.);
#73=ORIENTED_EDGE('',*,*,#215,.F.);
#74=ORIENTED_EDGE('',*,*,#229,.F.);
#75=ORIENTED_EDGE('',*,*,#226,.F.);
#76=ORIENTED_EDGE('',*,*,#230,.T.);
#77=ORIENTED_EDGE('',*,*,#216,.F.);
#78=ORIENTED_EDGE('',*,*,#228,.F.);
#79=ORIENTED_EDGE('',*,*,#225,.F.);
#80=ORIENTED_EDGE('',*,*,#231,.T.);
#81=ORIENTED_EDGE('',*,*,#213,.F.);
#82=ORIENTED_EDGE('',*,*,#230,.F.);
#83=ORIENTED_EDGE('',*,*,#224,.F.);
#84=ORIENTED_EDGE('',*,*,#229,.T.);
#85=ORIENTED_EDGE('',*,*,#214,.F.);
#86=ORIENTED_EDGE('',*,*,#231,.F.);
#87=ORIENTED_EDGE('',*,*,#198,.T.);
#88=ORIENTED_EDGE('',*,*,#185,.T.);
#89=ORIENTED_EDGE('',*,*,#204,.F.);
#90=ORIENTED_EDGE('',*,*,#183,.F.);
#91=ORIENTED_EDGE('',*,*,#205,.F.);
#92=ORIENTED_EDGE('',*,*,#232,.F.);
#93=ORIENTED_EDGE('',*,*,#233,.T.);
#94=ORIENTED_EDGE('',*,*,#234,.T.);
#95=ORIENTED_EDGE('',*,*,#211,.F.);
#96=ORIENTED_EDGE('',*,*,#235,.F.);
#97=ORIENTED_EDGE('',*,*,#236,.T.);
#98=ORIENTED_EDGE('',*,*,#232,.T.);
#99=ORIENTED_EDGE('',*,*,#210,.F.);
#100=ORIENTED_EDGE('',*,*,#237,.F.);
#101=ORIENTED_EDGE('',*,*,#238,.T.);
#102=ORIENTED_EDGE('',*,*,#235,.T.);
#103=ORIENTED_EDGE('',*,*,#209,.F.);
#104=ORIENTED_EDGE('',*,*,#239,.F.);
#105=ORIENTED_EDGE('',*,*,#240,.T.);
#106=ORIENTED_EDGE('',*,*,#237,.T.);
#107=ORIENTED_EDGE('',*,*,#208,.F.);
#108=ORIENTED_EDGE('',*,*,#241,.F.);
#109=ORIENTED_EDGE('',*,*,#242,.T.);
#110=ORIENTED_EDGE('',*,*,#239,.T.);
#111=ORIENTED_EDGE('',*,*,#207,.F.);
#112=ORIENTED_EDGE('',*,*,#243,.F.);
#113=ORIENTED_EDGE('',*,*,#244,.T.);
#114=ORIENTED_EDGE('',*,*,#241,.T.);
#115=ORIENTED_EDGE('',*,*,#206,.F.);
#116=ORIENTED_EDGE('',*,*,#234,.F.);
#117=ORIENTED_EDGE('',*,*,#245,.T.);
#118=ORIENTED_EDGE('',*,*,#243,.T.);
#119=ORIENTED_EDGE('',*,*,#233,.F.);
#120=ORIENTED_EDGE('',*,*,#236,.F.);
#121=ORIENTED_EDGE('',*,*,#238,.F.);
#122=ORIENTED_EDGE('',*,*,#240,.F.);
#123=ORIENTED_EDGE('',*,*,#242,.F.);
#124=ORIENTED_EDGE('',*,*,#244,.F.);
#125=ORIENTED_EDGE('',*,*,#245,.F.);
#126=ORIENTED_EDGE('',*,*,#217,.F.);
#127=ORIENTED_EDGE('',*,*,#246,.F.);
#128=ORIENTED_EDGE('',*,*,#247,.T.);
#129=ORIENTED_EDGE('',*,*,#248,.T.);
#130=ORIENTED_EDGE('',*,*,#223,.F.);
#131=ORIENTED_EDGE('',*,*,#249,.F.);
#132=ORIENTED_EDGE('',*,*,#250,.T.);
#133=ORIENTED_EDGE('',*,*,#246,.T.);
#134=ORIENTED_EDGE('',*,*,#222,.F.);
#135=ORIENTED_EDGE('',*,*,#251,.F.);
#136=ORIENTED_EDGE('',*,*,#252,.T.);
#137=ORIENTED_EDGE('',*,*,#249,.T.);
#138=ORIENTED_EDGE('',*,*,#221,.F.);
#139=ORIENTED_EDGE('',*,*,#253,.F.);
#140=ORIENTED_EDGE('',*,*,#254,.T.);
#141=ORIENTED_EDGE('',*,*,#251,.T.);
#142=ORIENTED_EDGE('',*,*,#220,.F.);
#143=ORIENTED_EDGE('',*,*,#255,.F.);
#144=ORIENTED_EDGE('',*,*,#256,.T.);
#145=ORIENTED_EDGE('',*,*,#253,.T.);
#146=ORIENTED_EDGE('',*,*,#219,.F.);
#147=ORIENTED_EDGE('',*,*,#257,.F.);
#148=ORIENTED_EDGE('',*,*,#258,.T.);
#149=ORIENTED_EDGE('',*,*,#255,.T.);
#150=ORIENTED_EDGE('',*,*,#218,.F.);
#151=ORIENTED_EDGE('',*,*,#248,.F.);
#152=ORIENTED_EDGE('',*,*,#259,.T.);
#153=ORIENTED_EDGE('',*,*,#257,.T.);
#154=ORIENTED_EDGE('',*,*,#247,.F.);
#155=ORIENTED_EDGE('',*,*,#250,.F.);
#156=ORIENTED_EDGE('',*,*,#252,.F.);
#157=ORIENTED_EDGE('',*,*,#254,.F.);
#158=ORIENTED_EDGE('',*,*,#256,.F.);
#159=ORIENTED_EDGE('',*,*,#258,.F.);
#160=ORIENTED_EDGE('',*,*,#259,.F.);
#161=ORIENTED_EDGE('',*,*,#197,.F.);
#162=ORIENTED_EDGE('',*,*,#181,.T.);
#163=ORIENTED_EDGE('',*,*,#203,.T.);
#164=ORIENTED_EDGE('',*,*,#190,.F.);
#165=ORIENTED_EDGE('',*,*,#260,.T.);
#166=ORIENTED_EDGE('',*,*,#194,.F.);
#167=ORIENTED_EDGE('',*,*,#261,.F.);
#168=ORIENTED_EDGE('',*,*,#202,.F.);
#169=ORIENTED_EDGE('',*,*,#201,.T.);
#170=ORIENTED_EDGE('',*,*,#262,.T.);
#171=ORIENTED_EDGE('',*,*,#195,.T.);
#172=ORIENTED_EDGE('',*,*,#260,.F.);
#173=ORIENTED_EDGE('',*,*,#261,.T.);
#174=ORIENTED_EDGE('',*,*,#193,.F.);
#175=ORIENTED_EDGE('',*,*,#263,.F.);
#176=ORIENTED_EDGE('',*,*,#199,.F.);
#177=ORIENTED_EDGE('',*,*,#200,.T.);
#178=ORIENTED_EDGE('',*,*,#263,.T.);
#179=ORIENTED_EDGE('',*,*,#192,.T.);
#180=ORIENTED_EDGE('',*,*,#262,.F.);
#181=EDGE_CURVE('',#264,#265,#320,.T.);
#182=EDGE_CURVE('',#266,#264,#321,.T.);
#183=EDGE_CURVE('',#266,#267,#322,.T.);
#184=EDGE_CURVE('',#267,#265,#323,.T.);
#185=EDGE_CURVE('',#268,#269,#324,.T.);
#186=EDGE_CURVE('',#270,#268,#325,.T.);
#187=EDGE_CURVE('',#271,#270,#326,.T.);
#188=EDGE_CURVE('',#271,#269,#327,.T.);
#189=EDGE_CURVE('',#272,#270,#328,.T.);
#190=EDGE_CURVE('',#272,#273,#329,.T.);
#191=EDGE_CURVE('',#271,#273,#330,.T.);
#192=EDGE_CURVE('',#274,#275,#331,.T.);
#193=EDGE_CURVE('',#274,#276,#332,.T.);
#194=EDGE_CURVE('',#276,#277,#333,.T.);
#195=EDGE_CURVE('',#275,#277,#334,.T.);
#196=EDGE_CURVE('',#278,#278,#13,.T.);
#197=EDGE_CURVE('',#264,#272,#335,.T.);
#198=EDGE_CURVE('',#266,#268,#336,.T.);
#199=EDGE_CURVE('',#279,#280,#337,.T.);
#200=EDGE_CURVE('',#281,#280,#338,.T.);
#201=EDGE_CURVE('',#282,#281,#339,.T.);
#202=EDGE_CURVE('',#282,#279,#340,.T.);
#203=EDGE_CURVE('',#265,#273,#341,.T.);
#204=EDGE_CURVE('',#267,#269,#342,.T.);
#205=EDGE_CURVE('',#283,#284,#343,.T.);
#206=EDGE_CURVE('',#284,#285,#344,.T.);
#207=EDGE_CURVE('',#285,#286,#345,.T.);
#208=EDGE_CURVE('',#286,#287,#346,.T.);
#209=EDGE_CURVE('',#287,#288,#347,.T.);
#210=EDGE_CURVE('',#288,#289,#348,.T.);
#211=EDGE_CURVE('',#289,#283,#349,.T.);
#212=EDGE_CURVE('',#290,#290,#14,.T.);
#213=EDGE_CURVE('',#291,#292,#350,.T.);
#214=EDGE_CURVE('',#292,#293,#351,.T.);
#215=EDGE_CURVE('',#293,#294,#352,.T.);
#216=EDGE_CURVE('',#294,#291,#353,.T.);
#217=EDGE_CURVE('',#295,#296,#354,.T.);
#218=EDGE_CURVE('',#296,#297,#355,.T.);
#219=EDGE_CURVE('',#297,#298,#356,.T.);
#220=EDGE_CURVE('',#298,#299,#357,.T.);
#221=EDGE_CURVE('',#299,#300,#358,.T.);
#222=EDGE_CURVE('',#300,#301,#359,.T.);
#223=EDGE_CURVE('',#301,#295,#360,.T.);
#224=EDGE_CURVE('',#302,#303,#361,.T.);
#225=EDGE_CURVE('',#303,#304,#362,.T.);
#226=EDGE_CURVE('',#304,#305,#363,.T.);
#227=EDGE_CURVE('',#305,#302,#364,.T.);
#228=EDGE_CURVE('',#305,#294,#365,.T.);
#229=EDGE_CURVE('',#302,#293,#366,.T.);
#230=EDGE_CURVE('',#304,#291,#367,.T.);
#231=EDGE_CURVE('',#303,#292,#368,.T.);
#232=EDGE_CURVE('',#306,#283,#369,.T.);
#233=EDGE_CURVE('',#306,#307,#370,.T.);
#234=EDGE_CURVE('',#307,#284,#371,.T.);
#235=EDGE_CURVE('',#308,#289,#372,.T.);
#236=EDGE_CURVE('',#308,#306,#373,.T.);
#237=EDGE_CURVE('',#309,#288,#374,.T.);
#238=EDGE_CURVE('',#309,#308,#375,.T.);
#239=EDGE_CURVE('',#310,#287,#376,.T.);
#240=EDGE_CURVE('',#310,#309,#377,.T.);
#241=EDGE_CURVE('',#311,#286,#378,.T.);
#242=EDGE_CURVE('',#311,#310,#379,.T.);
#243=EDGE_CURVE('',#312,#285,#380,.T.);
#244=EDGE_CURVE('',#312,#311,#381,.T.);
#245=EDGE_CURVE('',#307,#312,#382,.T.);
#246=EDGE_CURVE('',#313,#295,#383,.T.);
#247=EDGE_CURVE('',#313,#314,#384,.T.);
#248=EDGE_CURVE('',#314,#296,#385,.T.);
#249=EDGE_CURVE('',#315,#301,#386,.T.);
#250=EDGE_CURVE('',#315,#313,#387,.T.);
#251=EDGE_CURVE('',#316,#300,#388,.T.);
#252=EDGE_CURVE('',#316,#315,#389,.T.);
#253=EDGE_CURVE('',#317,#299,#390,.T.);
#254=EDGE_CURVE('',#317,#316,#391,.T.);
#255=EDGE_CURVE('',#318,#298,#392,.T.);
#256=EDGE_CURVE('',#318,#317,#393,.T.);
#257=EDGE_CURVE('',#319,#297,#394,.T.);
#258=EDGE_CURVE('',#319,#318,#395,.T.);
#259=EDGE_CURVE('',#314,#319,#396,.T.);
#260=EDGE_CURVE('',#282,#277,#397,.T.);
#261=EDGE_CURVE('',#279,#276,#398,.T.);
#262=EDGE_CURVE('',#281,#275,#399,.T.);
#263=EDGE_CURVE('',#280,#274,#400,.T.);
#264=VERTEX_POINT('',#833);
#265=VERTEX_POINT('',#834);
#266=VERTEX_POINT('',#836);
#267=VERTEX_POINT('',#838);
#268=VERTEX_POINT('',#842);
#269=VERTEX_POINT('',#843);
#270=VERTEX_POINT('',#845);
#271=VERTEX_POINT('',#847);
#272=VERTEX_POINT('',#851);
#273=VERTEX_POINT('',#853);
#274=VERTEX_POINT('',#857);
#275=VERTEX_POINT('',#858);
#276=VERTEX_POINT('',#860);
#277=VERTEX_POINT('',#862);
#278=VERTEX_POINT('',#865);
#279=VERTEX_POINT('',#870);
#280=VERTEX_POINT('',#871);
#281=VERTEX_POINT('',#873);
#282=VERTEX_POINT('',#875);
#283=VERTEX_POINT('',#880);
#284=VERTEX_POINT('',#881);
#285=VERTEX_POINT('',#883);
#286=VERTEX_POINT('',#885);
#287=VERTEX_POINT('',#887);
#288=VERTEX_POINT('',#889);
#289=VERTEX_POINT('',#891);
#290=VERTEX_POINT('',#894);
#291=VERTEX_POINT('',#896);
#292=VERTEX_POINT('',#897);
#293=VERTEX_POINT('',#899);
#294=VERTEX_POINT('',#901);
#295=VERTEX_POINT('',#904);
#296=VERTEX_POINT('',#905);
#297=VERTEX_POINT('',#907);
#298=VERTEX_POINT('',#909);
#299=VERTEX_POINT('',#911);
#300=VERTEX_POINT('',#913);
#301=VERTEX_POINT('',#915);
#302=VERTEX_POINT('',#920);
#303=VERTEX_POINT('',#921);
#304=VERTEX_POINT('',#923);
#305=VERTEX_POINT('',#925);
#306=VERTEX_POINT('',#938);
#307=VERTEX_POINT('',#940);
#308=VERTEX_POINT('',#944);
#309=VERTEX_POINT('',#948);
#310=VERTEX_POINT('',#952);
#311=VERTEX_POINT('',#956);
#312=VERTEX_POINT('',#960);
#313=VERTEX_POINT('',#967);
#314=VERTEX_POINT('',#969);
#315=VERTEX_POINT('',#973);
#316=VERTEX_POINT('',#977);
#317=VERTEX_POINT('',#981);
#318=VERTEX_POINT('',#985);
#319=VERTEX_POINT('',#989);
#320=LINE('',#832,#401);
#321=LINE('',#835,#402);
#322=LINE('',#837,#403);
#323=LINE('',#839,#404);
#324=LINE('',#841,#405);
#325=LINE('',#844,#406);
#326=LINE('',#846,#407);
#327=LINE('',#848,#408);
#328=LINE('',#850,#409);
#329=LINE('',#852,#410);
#330=LINE('',#854,#411);
#331=LINE('',#856,#412);
#332=LINE('',#859,#413);
#333=LINE('',#861,#414);
#334=LINE('',#863,#415);
#335=LINE('',#866,#416);
#336=LINE('',#867,#417);
#337=LINE('',#869,#418);
#338=LINE('',#872,#419);
#339=LINE('',#874,#420);
#340=LINE('',#876,#421);
#341=LINE('',#877,#422);
#342=LINE('',#878,#423);
#343=LINE('',#879,#424);
#344=LINE('',#882,#425);
#345=LINE('',#884,#426);
#346=LINE('',#886,#427);
#347=LINE('',#888,#428);
#348=LINE('',#890,#429);
#349=LINE('',#892,#430);
#350=LINE('',#895,#431);
#351=LINE('',#898,#432);
#352=LINE('',#900,#433);
#353=LINE('',#902,#434);
#354=LINE('',#903,#435);
#355=LINE('',#906,#436);
#356=LINE('',#908,#437);
#357=LINE('',#910,#438);
#358=LINE('',#912,#439);
#359=LINE('',#914,#440);
#360=LINE('',#916,#441);
#361=LINE('',#919,#442);
#362=LINE('',#922,#443);
#363=LINE('',#924,#444);
#364=LINE('',#926,#445);
#365=LINE('',#928,#446);
#366=LINE('',#929,#447);
#367=LINE('',#931,#448);
#368=LINE('',#933,#449);
#369=LINE('',#937,#450);
#370=LINE('',#939,#451);
#371=LINE('',#941,#452);
#372=LINE('',#943,#453);
#373=LINE('',#945,#454);
#374=LINE('',#947,#455);
#375=LINE('',#949,#456);
#376=LINE('',#951,#457);
#377=LINE('',#953,#458);
#378=LINE('',#955,#459);
#379=LINE('',#957,#460);
#380=LINE('',#959,#461);
#381=LINE('',#961,#462);
#382=LINE('',#963,#463);
#383=LINE('',#966,#464);
#384=LINE('',#968,#465);
#385=LINE('',#970,#466);
#386=LINE('',#972,#467);
#387=LINE('',#974,#468);
#388=LINE('',#976,#469);
#389=LINE('',#978,#470);
#390=LINE('',#980,#471);
#391=LINE('',#982,#472);
#392=LINE('',#984,#473);
#393=LINE('',#986,#474);
#394=LINE('',#988,#475);
#395=LINE('',#990,#476);
#396=LINE('',#992,#477);
#397=LINE('',#996,#478);
#398=LINE('',#997,#479);
#399=LINE('',#999,#480);
#400=LINE('',#1001,#481);
#401=VECTOR('',#681,1.);
#402=VECTOR('',#682,1.);
#403=VECTOR('',#683,1.);
#404=VECTOR('',#684,1.);
#405=VECTOR('',#687,1.);
#406=VECTOR('',#688,1.);
#407=VECTOR('',#689,1.);
#408=VECTOR('',#690,1.);
#409=VECTOR('',#693,1.);
#410=VECTOR('',#694,1.);
#411=VECTOR('',#695,1.);
#412=VECTOR('',#698,1.);
#413=VECTOR('',#699,1.);
#414=VECTOR('',#700,1.);
#415=VECTOR('',#701,1.);
#416=VECTOR('',#704,1.);
#417=VECTOR('',#705,1.);
#418=VECTOR('',#708,1.);
#419=VECTOR('',#709,1.);
#420=VECTOR('',#710,1.);
#421=VECTOR('',#711,1.);
#422=VECTOR('',#712,1.);
#423=VECTOR('',#713,1.);
#424=VECTOR('',#714,1.);
#425=VECTOR('',#715,1.);
#426=VECTOR('',#716,1.);
#427=VECTOR('',#717,1.);
#428=VECTOR('',#718,1.);
#429=VECTOR('',#719,1.);
#430=VECTOR('',#720,1.);
#431=VECTOR('',#723,1.);
#432=VECTOR('',#724,1.);
#433=VECTOR('',#725,1.);
#434=VECTOR('',#726,1.);
#435=VECTOR('',#727,1.);
#436=VECTOR('',#728,1.);
#437=VECTOR('',#729,1.);
#438=VECTOR('',#730,1.);
#439=VECTOR('',#731,1.);
#440=VECTOR('',#732,1.);
#441=VECTOR('',#733,1.);
#442=VECTOR('',#738,1.);
#443=VECTOR('',#739,1.);
#444=VECTOR('',#740,1.);
#445=VECTOR('',#741,1.);
#446=VECTOR('',#744,1.);
#447=VECTOR('',#745,1.);
#448=VECTOR('',#748,1.);
#449=VECTOR('',#751,1.);
#450=VECTOR('',#758,1.);
#451=VECTOR('',#759,1.);
#452=VECTOR('',#760,1.);
#453=VECTOR('',#763,1.);
#454=VECTOR('',#764,1.);
#455=VECTOR('',#767,1.);
#456=VECTOR('',#768,1.);
#457=VECTOR('',#771,1.);
#458=VECTOR('',#772,1.);
#459=VECTOR('',#775,1.);
#460=VECTOR('',#776,1.);
#461=VECTOR('',#779,1.);
#462=VECTOR('',#780,1.);
#463=VECTOR('',#783,1.);
#464=VECTOR('',#788,1.);
#465=VECTOR('',#789,1.);
#466=VECTOR('',#790,1.);
#467=VECTOR('',#793,1.);
#468=VECTOR('',#794,1.);
#469=VECTOR('',#797,1.);
#470=VECTOR('',#798,1.);
#471=VECTOR('',#801,1.);
#472=VECTOR('',#802,1.);
#473=VECTOR('',#805,1.);
#474=VECTOR('',#806,1.);
#475=VECTOR('',#809,1.);
#476=VECTOR('',#810,1.);
#477=VECTOR('',#813,1.);
#478=VECTOR('',#820,1.);
#479=VECTOR('',#821,1.);
#480=VECTOR('',#824,1.);
#481=VECTOR('',#827,1.);
#482=EDGE_LOOP('',(#15,#16,#17,#18));
#483=EDGE_LOOP('',(#19,#20,#21,#22));
#484=EDGE_LOOP('',(#23,#24,#25,#26));
#485=EDGE_LOOP('',(#27,#28,#29,#30));
#486=EDGE_LOOP('',(#31));
#487=EDGE_LOOP('',(#32,#33,#34,#35,#36));
#488=EDGE_LOOP('',(#37,#38,#39,#40));
#489=EDGE_LOOP('',(#41,#42,#43,#44,#45));
#490=EDGE_LOOP('',(#46,#47,#48,#49,#50,#51,#52));
#491=EDGE_LOOP('',(#53));
#492=EDGE_LOOP('',(#54,#55,#56,#57));
#493=EDGE_LOOP('',(#58,#59,#60,#61,#62,#63,#64));
#494=EDGE_LOOP('',(#65));
#495=EDGE_LOOP('',(#66));
#496=EDGE_LOOP('',(#67,#68,#69,#70));
#497=EDGE_LOOP('',(#71,#72,#73,#74));
#498=EDGE_LOOP('',(#75,#76,#77,#78));
#499=EDGE_LOOP('',(#79,#80,#81,#82));
#500=EDGE_LOOP('',(#83,#84,#85,#86));
#501=EDGE_LOOP('',(#87,#88,#89,#90));
#502=EDGE_LOOP('',(#91,#92,#93,#94));
#503=EDGE_LOOP('',(#95,#96,#97,#98));
#504=EDGE_LOOP('',(#99,#100,#101,#102));
#505=EDGE_LOOP('',(#103,#104,#105,#106));
#506=EDGE_LOOP('',(#107,#108,#109,#110));
#507=EDGE_LOOP('',(#111,#112,#113,#114));
#508=EDGE_LOOP('',(#115,#116,#117,#118));
#509=EDGE_LOOP('',(#119,#120,#121,#122,#123,#124,#125));
#510=EDGE_LOOP('',(#126,#127,#128,#129));
#511=EDGE_LOOP('',(#130,#131,#132,#133));
#512=EDGE_LOOP('',(#134,#135,#136,#137));
#513=EDGE_LOOP('',(#138,#139,#140,#141));
#514=EDGE_LOOP('',(#142,#143,#144,#145));
#515=EDGE_LOOP('',(#146,#147,#148,#149));
#516=EDGE_LOOP('',(#150,#151,#152,#153));
#517=EDGE_LOOP('',(#154,#155,#156,#157,#158,#159,#160));
#518=EDGE_LOOP('',(#161,#162,#163,#164));
#519=EDGE_LOOP('',(#165,#166,#167,#168));
#520=EDGE_LOOP('',(#169,#170,#171,#172));
#521=EDGE_LOOP('',(#173,#174,#175,#176));
#522=EDGE_LOOP('',(#177,#178,#179,#180));
#523=FACE_BOUND('',#482,.T.);
#524=FACE_BOUND('',#483,.T.);
#525=FACE_BOUND('',#484,.T.);
#526=FACE_BOUND('',#485,.T.);
#527=FACE_BOUND('',#486,.T.);
#528=FACE_BOUND('',#487,.T.);
#529=FACE_BOUND('',#488,.T.);
#530=FACE_BOUND('',#489,.T.);
#531=FACE_BOUND('',#490,.T.);
#532=FACE_BOUND('',#491,.T.);
#533=FACE_BOUND('',#492,.T.);
#534=FACE_BOUND('',#493,.T.);
#535=FACE_BOUND('',#494,.T.);
#536=FACE_BOUND('',#495,.T.);
#537=FACE_BOUND('',#496,.T.);
#538=FACE_BOUND('',#497,.T.);
#539=FACE_BOUND('',#498,.T.);
#540=FACE_BOUND('',#499,.T.);
#541=FACE_BOUND('',#500,.T.);
#542=FACE_BOUND('',#501,.T.);
#543=FACE_BOUND('',#502,.T.);
#544=FACE_BOUND('',#503,.T.);
#545=FACE_BOUND('',#504,.T.);
#546=FACE_BOUND('',#505,.T.);
#547=FACE_BOUND('',#506,.T.);
#548=FACE_BOUND('',#507,.T.);
#549=FACE_BOUND('',#508,.T.);
#550=FACE_BOUND('',#509,.T.);
#551=FACE_BOUND('',#510,.T.);
#552=FACE_BOUND('',#511,.T.);
#553=FACE_BOUND('',#512,.T.);
#554=FACE_BOUND('',#513,.T.);
#555=FACE_BOUND('',#514,.T.);
#556=FACE_BOUND('',#515,.T.);
#557=FACE_BOUND('',#516,.T.);
#558=FACE_BOUND('',#517,.T.);
#559=FACE_BOUND('',#518,.T.);
#560=FACE_BOUND('',#519,.T.);
#561=FACE_BOUND('',#520,.T.);
#562=FACE_BOUND('',#521,.T.);
#563=FACE_BOUND('',#522,.T.);
#564=PLANE('',#642);
#565=PLANE('',#643);
#566=PLANE('',#644);
#567=PLANE('',#645);
#568=PLANE('',#647);
#569=PLANE('',#650);
#570=PLANE('',#651);
#571=PLANE('',#652);
#572=PLANE('',#653);
#573=PLANE('',#654);
#574=PLANE('',#655);
#575=PLANE('',#656);
#576=PLANE('',#657);
#577=PLANE('',#658);
#578=PLANE('',#659);
#579=PLANE('',#660);
#580=PLANE('',#661);
#581=PLANE('',#662);
#582=PLANE('',#663);
#583=PLANE('',#664);
#584=PLANE('',#665);
#585=PLANE('',#666);
#586=PLANE('',#667);
#587=PLANE('',#668);
#588=PLANE('',#669);
#589=PLANE('',#670);
#590=PLANE('',#671);
#591=PLANE('',#672);
#592=PLANE('',#673);
#593=PLANE('',#674);
#594=PLANE('',#675);
#595=PLANE('',#676);
#596=ADVANCED_FACE('',(#523),#564,.F.);
#597=ADVANCED_FACE('',(#524),#565,.F.);
#598=ADVANCED_FACE('',(#525),#566,.T.);
#599=ADVANCED_FACE('',(#526,#527,#528),#567,.T.);
#600=ADVANCED_FACE('',(#529,#530,#531,#532,#533,#534),#568,.F.);
#601=ADVANCED_FACE('',(#535,#536),#12,.T.);
#602=ADVANCED_FACE('',(#537),#569,.F.);
#603=ADVANCED_FACE('',(#538),#570,.T.);
#604=ADVANCED_FACE('',(#539),#571,.T.);
#605=ADVANCED_FACE('',(#540),#572,.T.);
#606=ADVANCED_FACE('',(#541),#573,.T.);
#607=ADVANCED_FACE('',(#542),#574,.T.);
#608=ADVANCED_FACE('',(#543),#575,.T.);
#609=ADVANCED_FACE('',(#544),#576,.T.);
#610=ADVANCED_FACE('',(#545),#577,.T.);
#611=ADVANCED_FACE('',(#546),#578,.T.);
#612=ADVANCED_FACE('',(#547),#579,.T.);
#613=ADVANCED_FACE('',(#548),#580,.T.);
#614=ADVANCED_FACE('',(#549),#581,.T.);
#615=ADVANCED_FACE('',(#550),#582,.T.);
#616=ADVANCED_FACE('',(#551),#583,.T.);
#617=ADVANCED_FACE('',(#552),#584,.T.);
#618=ADVANCED_FACE('',(#553),#585,.T.);
#619=ADVANCED_FACE('',(#554),#586,.T.);
#620=ADVANCED_FACE('',(#555),#587,.T.);
#621=ADVANCED_FACE('',(#556),#588,.T.);
#622=ADVANCED_FACE('',(#557),#589,.T.);
#623=ADVANCED_FACE('',(#558),#590,.T.);
#624=ADVANCED_FACE('',(#559),#591,.F.);
#625=ADVANCED_FACE('',(#560),#592,.T.);
#626=ADVANCED_FACE('',(#561),#593,.F.);
#627=ADVANCED_FACE('',(#562),#594,.T.);
#628=ADVANCED_FACE('',(#563),#595,.F.);
#629=CLOSED_SHELL('',(#596,#597,#598,#599,#600,#601,#602,#603,#604,#605,
#606,#607,#608,#609,#610,#611,#612,#613,#614,#615,#616,#617,#618,#619,#620,
#621,#622,#623,#624,#625,#626,#627,#628));
#630=STYLED_ITEM('',(#631),#638);
#631=PRESENTATION_STYLE_ASSIGNMENT((#632));
#632=SURFACE_STYLE_USAGE(.BOTH.,#633);
#633=SURFACE_SIDE_STYLE('',(#634));
#634=SURFACE_STYLE_FILL_AREA(#635);
#635=FILL_AREA_STYLE('',(#636));
#636=FILL_AREA_STYLE_COLOUR('',#637);
#637=COLOUR_RGB('',0.647058823529412,0.647058823529412,0.647058823529412);
#638=MANIFOLD_SOLID_BREP('stage_11',#629);
#639=SHAPE_DEFINITION_REPRESENTATION(#1009,#640);
#640=SHAPE_REPRESENTATION('stage_11',(#641),#1004);
#641=AXIS2_PLACEMENT_3D('',#830,#677,#678);
#642=AXIS2_PLACEMENT_3D('',#831,#679,#680);
#643=AXIS2_PLACEMENT_3D('',#840,#685,#686);
#644=AXIS2_PLACEMENT_3D('',#849,#691,#692);
#645=AXIS2_PLACEMENT_3D('',#855,#696,#697);
#646=AXIS2_PLACEMENT_3D('',#864,#702,#703);
#647=AXIS2_PLACEMENT_3D('',#868,#706,#707);
#648=AXIS2_PLACEMENT_3D('',#893,#721,#722);
#649=AXIS2_PLACEMENT_3D('',#917,#734,#735);
#650=AXIS2_PLACEMENT_3D('',#918,#736,#737);
#651=AXIS2_PLACEMENT_3D('',#927,#742,#743);
#652=AXIS2_PLACEMENT_3D('',#930,#746,#747);
#653=AXIS2_PLACEMENT_3D('',#932,#749,#750);
#654=AXIS2_PLACEMENT_3D('',#934,#752,#753);
#655=AXIS2_PLACEMENT_3D('',#935,#754,#755);
#656=AXIS2_PLACEMENT_3D('',#936,#756,#757);
#657=AXIS2_PLACEMENT_3D('',#942,#761,#762);
#658=AXIS2_PLACEMENT_3D('',#946,#765,#766);
#659=AXIS2_PLACEMENT_3D('',#950,#769,#770);
#660=AXIS2_PLACEMENT_3D('',#954,#773,#774);
#661=AXIS2_PLACEMENT_3D('',#958,#777,#778);
#662=AXIS2_PLACEMENT_3D('',#962,#781,#782);
#663=AXIS2_PLACEMENT_3D('',#964,#784,#785);
#664=AXIS2_PLACEMENT_3D('',#965,#786,#787);
#665=AXIS2_PLACEMENT_3D('',#971,#791,#792);
#666=AXIS2_PLACEMENT_3D('',#975,#795,#796);
#667=AXIS2_PLACEMENT_3D('',#979,#799,#800);
#668=AXIS2_PLACEMENT_3D('',#983,#803,#804);
#669=AXIS2_PLACEMENT_3D('',#987,#807,#808);
#670=AXIS2_PLACEMENT_3D('',#991,#811,#812);
#671=AXIS2_PLACEMENT_3D('',#993,#814,#815);
#672=AXIS2_PLACEMENT_3D('',#994,#816,#817);
#673=AXIS2_PLACEMENT_3D('',#995,#818,#819);
#674=AXIS2_PLACEMENT_3D('',#998,#822,#823);
#675=AXIS2_PLACEMENT_3D('',#1000,#825,#826);
#676=AXIS2_PLACEMENT_3D('',#1002,#828,#829);
#677=DIRECTION('',(0.,0.,1.));
#678=DIRECTION('',(1.,0.,0.));
#679=DIRECTION('',(-0.0199815153472312,-0.999800349592072,0.));
#680=DIRECTION('',(0.999800349592072,-0.0199815153472312,0.));
#681=DIRECTION('',(0.,0.,-1.));
#682=DIRECTION('',(-0.999800349592072,0.0199815153472312,0.));
#683=DIRECTION('',(0.,0.,-1.));
#684=DIRECTION('',(-0.999800349592072,0.0199815153472312,0.));
#685=DIRECTION('',(0.0199815153472311,0.999800349592072,0.));
#686=DIRECTION('',(-0.999800349592072,0.0199815153472311,0.));
#687=DIRECTION('',(0.,0.,-1.));
#688=DIRECTION('',(0.999800349592072,-0.0199815153472311,0.));
#689=DIRECTION('',(0.,0.,1.));
#690=DIRECTION('',(0.999800349592072,-0.0199815153472311,0.));
#691=DIRECTION('',(0.999800349592072,-0.0199815153472275,0.));
#692=DIRECTION('',(0.0199815153472275,0.999800349592072,0.));
#693=DIRECTION('',(0.0199815153472275,0.999800349592072,0.));
#694=DIRECTION('',(0.,0.,-1.));
#695=DIRECTION('',(-0.0199815153472275,-0.999800349592072,0.));
#696=DIRECTION('',(0.,0.,1.));
#697=DIRECTION('',(1.,0.,0.));
#698=DIRECTION('',(0.,-1.,0.));
#699=DIRECTION('',(1.,0.,0.));
#700=DIRECTION('',(0.,-1.,0.));
#701=DIRECTION('',(1.,0.,0.));
#702=DIRECTION('',(0.,0.,1.));
#703=DIRECTION('',(1.,0.,0.));
#704=DIRECTION('',(-0.694276110095731,0.719708748696541,0.));
#705=DIRECTION('',(-0.691394207368814,0.722477715930983,0.));
#706=DIRECTION('',(0.,0.,1.));
#707=DIRECTION('',(1.,0.,0.));
#708=DIRECTION('',(-1.,0.,0.));
#709=DIRECTION('',(0.,1.,0.));
#710=DIRECTION('',(-1.,0.,0.));
#711=DIRECTION('',(0.,1.,0.));
#712=DIRECTION('',(-0.694276110095731,0.719708748696541,0.));
#713=DIRECTION('',(-0.691394207368814,0.722477715930983,0.));
#714=DIRECTION('',(-1.,0.,0.));
#715=DIRECTION('',(0.,-1.,0.));
#716=DIRECTION('',(-0.707106781186548,0.707106781186548,0.));
#717=DIRECTION('',(-0.707106781186548,-0.707106781186548,0.));
#718=DIRECTION('',(0.707409286719849,-0.706804146183732,0.));
#719=DIRECTION('',(1.,0.,0.));
#720=DIRECTION('',(0.,1.,0.));
#721=DIRECTION('',(0.,0.,1.));
#722=DIRECTION('',(1.,0.,0.));
#723=DIRECTION('',(0.0199815153472317,0.999800349592072,0.));
#724=DIRECTION('',(-0.999800349592072,0.019981515347231,0.));
#725=DIRECTION('',(-0.0199815153472315,-0.999800349592072,0.));
#726=DIRECTION('',(0.999800349592072,-0.019981515347231,0.));
#727=DIRECTION('',(-1.,0.,0.));
#728=DIRECTION('',(0.,-1.,0.));
#729=DIRECTION('',(-0.707106781186549,0.707106781186546,0.));
#730=DIRECTION('',(-0.707106781186548,-0.707106781186548,0.));
#731=DIRECTION('',(0.707409286719848,-0.706804146183733,0.));
#732=DIRECTION('',(1.,0.,0.));
#733=DIRECTION('',(0.,1.,0.));
#734=DIRECTION('',(0.,0.,1.));
#735=DIRECTION('',(1.,0.,0.));
#736=DIRECTION('',(0.,0.,1.));
#737=DIRECTION('',(1.,0.,0.));
#738=DIRECTION('',(0.999800349592072,-0.019981515347231,0.));
#739=DIRECTION('',(-0.0199815153472317,-0.999800349592072,0.));
#740=DIRECTION('',(-0.999800349592072,0.019981515347231,0.));
#741=DIRECTION('',(0.0199815153472315,0.999800349592072,0.));
#742=DIRECTION('',(-0.999800349592072,0.0199815153472315,0.));
#743=DIRECTION('',(-0.0199815153472315,-0.999800349592072,0.));
#744=DIRECTION('',(0.,0.,1.));
#745=DIRECTION('',(0.,0.,1.));
#746=DIRECTION('',(-0.019981515347231,-0.999800349592072,0.));
#747=DIRECTION('',(0.999800349592072,-0.019981515347231,0.));
#748=DIRECTION('',(0.,0.,1.));
#749=DIRECTION('',(0.999800349592072,-0.0199815153472317,0.));
#750=DIRECTION('',(0.0199815153472317,0.999800349592072,0.));
#751=DIRECTION('',(0.,0.,1.));
#752=DIRECTION('',(0.019981515347231,0.999800349592071,0.));
#753=DIRECTION('',(-0.999800349592072,0.019981515347231,0.));
#754=DIRECTION('',(-0.722477715930983,-0.691394207368814,0.));
#755=DIRECTION('',(0.691394207368814,-0.722477715930983,0.));
#756=DIRECTION('',(0.,-1.,0.));
#757=DIRECTION('',(0.,0.,-1.));
#758=DIRECTION('',(0.,0.,-1.));
#759=DIRECTION('',(-1.,0.,0.));
#760=DIRECTION('',(0.,0.,-1.));
#761=DIRECTION('',(-1.,0.,0.));
#762=DIRECTION('',(0.,0.,1.));
#763=DIRECTION('',(0.,0.,-1.));
#764=DIRECTION('',(0.,1.,0.));
#765=DIRECTION('',(0.,1.,0.));
#766=DIRECTION('',(0.,0.,1.));
#767=DIRECTION('',(0.,0.,-1.));
#768=DIRECTION('',(1.,0.,0.));
#769=DIRECTION('',(0.706804146183732,0.707409286719849,0.));
#770=DIRECTION('',(-0.707409286719849,0.706804146183732,0.));
#771=DIRECTION('',(0.,0.,-1.));
#772=DIRECTION('',(0.707409286719849,-0.706804146183732,0.));
#773=DIRECTION('',(0.707106781186548,-0.707106781186548,0.));
#774=DIRECTION('',(0.707106781186548,0.707106781186548,0.));
#775=DIRECTION('',(0.,0.,-1.));
#776=DIRECTION('',(-0.707106781186548,-0.707106781186548,0.));
#777=DIRECTION('',(-0.707106781186548,-0.707106781186548,0.));
#778=DIRECTION('',(0.707106781186548,-0.707106781186548,0.));
#779=DIRECTION('',(0.,0.,-1.));
#780=DIRECTION('',(-0.707106781186548,0.707106781186548,0.));
#781=DIRECTION('',(1.,0.,0.));
#782=DIRECTION('',(0.,0.,-1.));
#783=DIRECTION('',(0.,-1.,0.));
#784=DIRECTION('',(0.,0.,-1.));
#785=DIRECTION('',(1.,0.,0.));
#786=DIRECTION('',(0.,-1.,0.));
#787=DIRECTION('',(0.,0.,-1.));
#788=DIRECTION('',(0.,0.,-1.));
#789=DIRECTION('',(-1.,0.,0.));
#790=DIRECTION('',(0.,0.,-1.));
#791=DIRECTION('',(-1.,0.,0.));
#792=DIRECTION('',(0.,0.,1.));
#793=DIRECTION('',(0.,0.,-1.));
#794=DIRECTION('',(0.,1.,0.));
#795=DIRECTION('',(0.,1.,0.));
#796=DIRECTION('',(0.,0.,1.));
#797=DIRECTION('',(0.,0.,-1.));
#798=DIRECTION('',(1.,0.,0.));
#799=DIRECTION('',(0.706804146183733,0.707409286719848,0.));
#800=DIRECTION('',(-0.707409286719848,0.706804146183733,0.));
#801=DIRECTION('',(0.,0.,-1.));
#802=DIRECTION('',(0.707409286719848,-0.706804146183733,0.));
#803=DIRECTION('',(0.707106781186548,-0.707106781186548,0.));
#804=DIRECTION('',(0.707106781186548,0.707106781186548,0.));
#805=DIRECTION('',(0.,0.,-1.));
#806=DIRECTION('',(-0.707106781186548,-0.707106781186548,0.));
#807=DIRECTION('',(-0.707106781186546,-0.707106781186549,0.));
#808=DIRECTION('',(0.707106781186549,-0.707106781186546,0.));
#809=DIRECTION('',(0.,0.,-1.));
#810=DIRECTION('',(-0.707106781186549,0.707106781186546,0.));
#811=DIRECTION('',(1.,0.,0.));
#812=DIRECTION('',(0.,0.,-1.));
#813=DIRECTION('',(0.,-1.,0.));
#814=DIRECTION('',(0.,0.,-1.));
#815=DIRECTION('',(1.,0.,0.));
#816=DIRECTION('',(-0.719708748696541,-0.694276110095731,0.));
#817=DIRECTION('',(0.694276110095731,-0.719708748696541,0.));
#818=DIRECTION('',(-1.,0.,0.));
#819=DIRECTION('',(0.,0.,1.));
#820=DIRECTION('',(0.,0.,1.));
#821=DIRECTION('',(0.,0.,1.));
#822=DIRECTION('',(0.,-1.,0.));
#823=DIRECTION('',(0.,0.,-1.));
#824=DIRECTION('',(0.,0.,1.));
#825=DIRECTION('',(0.,-1.,0.));
#826=DIRECTION('',(0.,0.,-1.));
#827=DIRECTION('',(0.,0.,1.));
#828=DIRECTION('',(-1.,0.,0.));
#829=DIRECTION('',(0.,0.,1.));
#830=CARTESIAN_POINT('',(0.,0.,0.));
#831=CARTESIAN_POINT('',(-0.000919149705972634,-0.0459908160812355,0.360002));
#832=CARTESIAN_POINT('',(-0.0199153563482221,-0.0456111672896381,0.360002));
#833=CARTESIAN_POINT('',(-0.0199153563482221,-0.0456111672896381,0.36));
#834=CARTESIAN_POINT('',(-0.0199153563482221,-0.0456111672896381,0.33));
#835=CARTESIAN_POINT('',(-0.000919149705972634,-0.0459908160812355,0.36));
#836=CARTESIAN_POINT('',(0.0180770569362769,-0.0463704648728329,0.36));
#837=CARTESIAN_POINT('',(0.0180770569362769,-0.0463704648728329,0.360002));
#838=CARTESIAN_POINT('',(0.0180770569362769,-0.0463704648728329,0.33));
#839=CARTESIAN_POINT('',(-0.000919149705972634,-0.0459908160812355,0.33));
#840=CARTESIAN_POINT('',(-0.00800611138805489,-0.00784159133933764,0.360002));
#841=CARTESIAN_POINT('',(-0.0190045220738641,-0.00762178254250804,0.360002));
#842=CARTESIAN_POINT('',(-0.0190045220738641,-0.00762178254250804,0.36));
#843=CARTESIAN_POINT('',(-0.0190045220738641,-0.00762178254250804,0.33));
#844=CARTESIAN_POINT('',(-0.00800611138805489,-0.00784159133933764,0.36));
#845=CARTESIAN_POINT('',(-0.0381522654072768,-0.00723910521354185,0.36));
#846=CARTESIAN_POINT('',(-0.0381522654072768,-0.00723910521354185,0.329998));
#847=CARTESIAN_POINT('',(-0.0381522654072768,-0.00723910521354185,0.33));
#848=CARTESIAN_POINT('',(-0.00800611138805489,-0.00784159133933764,0.33));
#849=CARTESIAN_POINT('',(-0.0385319141988742,-0.0262353118557913,0.329998));
#850=CARTESIAN_POINT('',(-0.0385319141988742,-0.0262353118557913,0.36));
#851=CARTESIAN_POINT('',(-0.0385334284675586,-0.0263110802013728,0.36));
#852=CARTESIAN_POINT('',(-0.0385334284675586,-0.0263110802013728,0.360002));
#853=CARTESIAN_POINT('',(-0.0385334284675586,-0.0263110802013728,0.33));
#854=CARTESIAN_POINT('',(-0.0385319141988742,-0.0262353118557913,0.33));
#855=CARTESIAN_POINT('',(0.,0.,0.36));
#856=CARTESIAN_POINT('',(0.0487110664860351,0.,0.36));
#857=CARTESIAN_POINT('',(0.0487110664860351,0.005,0.36));
#858=CARTESIAN_POINT('',(0.0487110664860351,-0.005,0.36));
#859=CARTESIAN_POINT('',(0.0537110664860351,0.005,0.36));
#860=CARTESIAN_POINT('',(0.0587110664860351,0.005,0.36));
#861=CARTESIAN_POINT('',(0.0587110664860351,0.,0.36));
#862=CARTESIAN_POINT('',(0.0587110664860351,-0.005,0.36));
#863=CARTESIAN_POINT('',(0.0537110664860351,-0.005,0.36));
#864=CARTESIAN_POINT('',(0.,4.59242549680257E-18,0.36));
#865=CARTESIAN_POINT('',(0.0687110664860351,4.59242549680257E-18,0.36));
#866=CARTESIAN_POINT('',(-0.033106602440041,-0.0319367010644038,0.36));
#867=CARTESIAN_POINT('',(0.00494056699626931,-0.0326433882701441,0.36));
#868=CARTESIAN_POINT('',(0.,0.,0.33));
#869=CARTESIAN_POINT('',(0.0537110664860351,0.005,0.33));
#870=CARTESIAN_POINT('',(0.0587110664860351,0.005,0.33));
#871=CARTESIAN_POINT('',(0.0487110664860351,0.005,0.33));
#872=CARTESIAN_POINT('',(0.0487110664860351,0.,0.33));
#873=CARTESIAN_POINT('',(0.0487110664860351,-0.005,0.33));
#874=CARTESIAN_POINT('',(0.0537110664860351,-0.005,0.33));
#875=CARTESIAN_POINT('',(0.0587110664860351,-0.005,0.33));
#876=CARTESIAN_POINT('',(0.0587110664860351,0.,0.33));
#877=CARTESIAN_POINT('',(-0.033106602440041,-0.0319367010644038,0.33));
#878=CARTESIAN_POINT('',(0.00494056699626931,-0.0326433882701441,0.33));
#879=CARTESIAN_POINT('',(-0.0133986226596739,0.020778378237595,0.33));
#880=CARTESIAN_POINT('',(-0.0127776916700905,0.020778378237595,0.33));
#881=CARTESIAN_POINT('',(-0.0140195536492572,0.020778378237595,0.33));
#882=CARTESIAN_POINT('',(-0.0140195536492572,0.017904843081345,0.33));
#883=CARTESIAN_POINT('',(-0.0140195536492572,0.015031307925095,0.33));
#884=CARTESIAN_POINT('',(-0.0145330627638405,0.0155448170396784,0.33));
#885=CARTESIAN_POINT('',(-0.0150465718784239,0.0160583261542617,0.33));
#886=CARTESIAN_POINT('',(-0.0154843973992572,0.0156205006334284,0.33));
#887=CARTESIAN_POINT('',(-0.0159222229200905,0.015182675112595,0.33));
#888=CARTESIAN_POINT('',(-0.0149708882846739,0.0142321542792617,0.33));
#889=CARTESIAN_POINT('',(-0.0140195536492572,0.0132816334459284,0.33));
#890=CARTESIAN_POINT('',(-0.0133986226596739,0.0132816334459284,0.33));
#891=CARTESIAN_POINT('',(-0.0127776916700905,0.0132816334459284,0.33));
#892=CARTESIAN_POINT('',(-0.0127776916700905,0.0170300058417617,0.33));
#893=CARTESIAN_POINT('',(0.,4.59242549680257E-18,0.33));
#894=CARTESIAN_POINT('',(0.0671388331075438,4.59242549680257E-18,0.33));
#895=CARTESIAN_POINT('',(0.00590941165748118,0.045453601753934,0.33));
#896=CARTESIAN_POINT('',(0.00580950408074508,0.0404546000059737,0.33));
#897=CARTESIAN_POINT('',(0.00600931923421734,0.0504526035018944,0.33));
#898=CARTESIAN_POINT('',(0.00101031748625702,0.0505525110786305,0.33));
#899=CARTESIAN_POINT('',(-0.00398868426170332,0.0506524186553667,0.33));
#900=CARTESIAN_POINT('',(-0.00408859183843948,0.0456534169074064,0.33));
#901=CARTESIAN_POINT('',(-0.00418849941517564,0.040654415159446,0.33));
#902=CARTESIAN_POINT('',(0.000810502332784722,0.0405545075827099,0.33));
#903=CARTESIAN_POINT('',(-0.0176922424513405,0.020778378237595,0.33));
#904=CARTESIAN_POINT('',(-0.0170713114617572,0.020778378237595,0.33));
#905=CARTESIAN_POINT('',(-0.0183131734409239,0.020778378237595,0.33));
#906=CARTESIAN_POINT('',(-0.0183131734409239,0.017904843081345,0.33));
#907=CARTESIAN_POINT('',(-0.0183131734409239,0.015031307925095,0.33));
#908=CARTESIAN_POINT('',(-0.0188266825555072,0.0155448170396783,0.33));
#909=CARTESIAN_POINT('',(-0.0193401916700905,0.0160583261542617,0.33));
#910=CARTESIAN_POINT('',(-0.0197780171909239,0.0156205006334284,0.33));
#911=CARTESIAN_POINT('',(-0.0202158427117572,0.015182675112595,0.33));
#912=CARTESIAN_POINT('',(-0.0192645080763405,0.0142321542792617,0.33));
#913=CARTESIAN_POINT('',(-0.0183131734409239,0.0132816334459284,0.33));
#914=CARTESIAN_POINT('',(-0.0176922424513405,0.0132816334459284,0.33));
#915=CARTESIAN_POINT('',(-0.0170713114617572,0.0132816334459284,0.33));
#916=CARTESIAN_POINT('',(-0.0170713114617572,0.0170300058417617,0.33));
#917=CARTESIAN_POINT('',(0.,4.59242549680257E-18,0.33));
#918=CARTESIAN_POINT('',(0.,0.,0.3));
#919=CARTESIAN_POINT('',(0.00101031748625702,0.0505525110786305,0.3));
#920=CARTESIAN_POINT('',(-0.00398868426170332,0.0506524186553667,0.3));
#921=CARTESIAN_POINT('',(0.00600931923421734,0.0504526035018944,0.3));
#922=CARTESIAN_POINT('',(0.00590941165748118,0.045453601753934,0.3));
#923=CARTESIAN_POINT('',(0.00580950408074508,0.0404546000059737,0.3));
#924=CARTESIAN_POINT('',(0.000810502332784722,0.0405545075827099,0.3));
#925=CARTESIAN_POINT('',(-0.00418849941517564,0.040654415159446,0.3));
#926=CARTESIAN_POINT('',(-0.00408859183843948,0.0456534169074064,0.3));
#927=CARTESIAN_POINT('',(-0.00408859183843948,0.0456534169074064,0.299998));
#928=CARTESIAN_POINT('',(-0.00418849941517564,0.040654415159446,0.299998));
#929=CARTESIAN_POINT('',(-0.00398868426170332,0.0506524186553667,0.299998));
#930=CARTESIAN_POINT('',(0.000810502332784722,0.0405545075827099,0.299998));
#931=CARTESIAN_POINT('',(0.00580950408074508,0.0404546000059737,0.299998));
#932=CARTESIAN_POINT('',(0.00590941165748118,0.045453601753934,0.299998));
#933=CARTESIAN_POINT('',(0.00600931923421734,0.0504526035018944,0.299998));
#934=CARTESIAN_POINT('',(0.00101031748625702,0.0505525110786305,0.299998));
#935=CARTESIAN_POINT('',(0.00494056699626931,-0.0326433882701441,0.360002));
#936=CARTESIAN_POINT('',(-0.0133986226596739,0.020778378237595,0.331));
#937=CARTESIAN_POINT('',(-0.0127776916700905,0.020778378237595,0.331));
#938=CARTESIAN_POINT('',(-0.0127776916700905,0.020778378237595,0.331));
#939=CARTESIAN_POINT('',(-0.0133986226596739,0.020778378237595,0.331));
#940=CARTESIAN_POINT('',(-0.0140195536492572,0.020778378237595,0.331));
#941=CARTESIAN_POINT('',(-0.0140195536492572,0.020778378237595,0.331));
#942=CARTESIAN_POINT('',(-0.0127776916700905,0.0170300058417617,0.331));
#943=CARTESIAN_POINT('',(-0.0127776916700905,0.0132816334459284,0.331));
#944=CARTESIAN_POINT('',(-0.0127776916700905,0.0132816334459284,0.331));
#945=CARTESIAN_POINT('',(-0.0127776916700905,0.0170300058417617,0.331));
#946=CARTESIAN_POINT('',(-0.0133986226596739,0.0132816334459284,0.331));
#947=CARTESIAN_POINT('',(-0.0140195536492572,0.0132816334459284,0.331));
#948=CARTESIAN_POINT('',(-0.0140195536492572,0.0132816334459284,0.331));
#949=CARTESIAN_POINT('',(-0.0133986226596739,0.0132816334459284,0.331));
#950=CARTESIAN_POINT('',(-0.0149708882846739,0.0142321542792617,0.331));
#951=CARTESIAN_POINT('',(-0.0159222229200905,0.015182675112595,0.331));
#952=CARTESIAN_POINT('',(-0.0159222229200905,0.015182675112595,0.331));
#953=CARTESIAN_POINT('',(-0.0149708882846739,0.0142321542792617,0.331));
#954=CARTESIAN_POINT('',(-0.0154843973992572,0.0156205006334284,0.331));
#955=CARTESIAN_POINT('',(-0.0150465718784239,0.0160583261542617,0.331));
#956=CARTESIAN_POINT('',(-0.0150465718784239,0.0160583261542617,0.331));
#957=CARTESIAN_POINT('',(-0.0154843973992572,0.0156205006334284,0.331));
#958=CARTESIAN_POINT('',(-0.0145330627638405,0.0155448170396784,0.331));
#959=CARTESIAN_POINT('',(-0.0140195536492572,0.015031307925095,0.331));
#960=CARTESIAN_POINT('',(-0.0140195536492572,0.015031307925095,0.331));
#961=CARTESIAN_POINT('',(-0.0145330627638405,0.0155448170396784,0.331));
#962=CARTESIAN_POINT('',(-0.0140195536492572,0.017904843081345,0.331));
#963=CARTESIAN_POINT('',(-0.0140195536492572,0.017904843081345,0.331));
#964=CARTESIAN_POINT('',(0.,0.,0.331));
#965=CARTESIAN_POINT('',(-0.0176922424513405,0.020778378237595,0.331));
#966=CARTESIAN_POINT('',(-0.0170713114617572,0.020778378237595,0.331));
#967=CARTESIAN_POINT('',(-0.0170713114617572,0.020778378237595,0.331));
#968=CARTESIAN_POINT('',(-0.0176922424513405,0.020778378237595,0.331));
#969=CARTESIAN_POINT('',(-0.0183131734409239,0.020778378237595,0.331));
#970=CARTESIAN_POINT('',(-0.0183131734409239,0.020778378237595,0.331));
#971=CARTESIAN_POINT('',(-0.0170713114617572,0.0170300058417617,0.331));
#972=CARTESIAN_POINT('',(-0.0170713114617572,0.0132816334459284,0.331));
#973=CARTESIAN_POINT('',(-0.0170713114617572,0.0132816334459284,0.331));
#974=CARTESIAN_POINT('',(-0.0170713114617572,0.0170300058417617,0.331));
#975=CARTESIAN_POINT('',(-0.0176922424513405,0.0132816334459284,0.331));
#976=CARTESIAN_POINT('',(-0.0183131734409239,0.0132816334459284,0.331));
#977=CARTESIAN_POINT('',(-0.0183131734409239,0.0132816334459284,0.331));
#978=CARTESIAN_POINT('',(-0.0176922424513405,0.0132816334459284,0.331));
#979=CARTESIAN_POINT('',(-0.0192645080763405,0.0142321542792617,0.331));
#980=CARTESIAN_POINT('',(-0.0202158427117572,0.015182675112595,0.331));
#981=CARTESIAN_POINT('',(-0.0202158427117572,0.015182675112595,0.331));
#982=CARTESIAN_POINT('',(-0.0192645080763405,0.0142321542792617,0.331));
#983=CARTESIAN_POINT('',(-0.0197780171909239,0.0156205006334284,0.331));
#984=CARTESIAN_POINT('',(-0.0193401916700905,0.0160583261542617,0.331));
#985=CARTESIAN_POINT('',(-0.0193401916700905,0.0160583261542617,0.331));
#986=CARTESIAN_POINT('',(-0.0197780171909239,0.0156205006334284,0.331));
#987=CARTESIAN_POINT('',(-0.0188266825555072,0.0155448170396783,0.331));
#988=CARTESIAN_POINT('',(-0.0183131734409239,0.015031307925095,0.331));
#989=CARTESIAN_POINT('',(-0.0183131734409239,0.015031307925095,0.331));
#990=CARTESIAN_POINT('',(-0.0188266825555072,0.0155448170396783,0.331));
#991=CARTESIAN_POINT('',(-0.0183131734409239,0.017904843081345,0.331));
#992=CARTESIAN_POINT('',(-0.0183131734409239,0.017904843081345,0.331));
#993=CARTESIAN_POINT('',(0.,0.,0.331));
#994=CARTESIAN_POINT('',(-0.033106602440041,-0.0319367010644038,0.360002));
#995=CARTESIAN_POINT('',(0.0587110664860351,0.,0.329998));
#996=CARTESIAN_POINT('',(0.0587110664860351,-0.005,0.329998));
#997=CARTESIAN_POINT('',(0.0587110664860351,0.005,0.329998));
#998=CARTESIAN_POINT('',(0.0537110664860351,-0.005,0.329998));
#999=CARTESIAN_POINT('',(0.0487110664860351,-0.005,0.329998));
#1000=CARTESIAN_POINT('',(0.0537110664860351,0.005,0.329998));
#1001=CARTESIAN_POINT('',(0.0487110664860351,0.005,0.329998));
#1002=CARTESIAN_POINT('',(0.0487110664860351,0.,0.329998));
#1003=MECHANICAL_DESIGN_GEOMETRIC_PRESENTATION_REPRESENTATION('',(#630),
#1004);
#1004=(
GEOMETRIC_REPRESENTATION_CONTEXT(3)
GLOBAL_UNCERTAINTY_ASSIGNED_CONTEXT((#1005))
GLOBAL_UNIT_ASSIGNED_CONTEXT((#1008,#1007,#1006))
REPRESENTATION_CONTEXT('stage_11','TOP_LEVEL_ASSEMBLY_PART')
);
#1005=UNCERTAINTY_MEASURE_WITH_UNIT(LENGTH_MEASURE(1.E-8),#1008,
'DISTANCE_ACCURACY_VALUE','Maximum Tolerance applied to model');
#1006=(
NAMED_UNIT(*)
SI_UNIT($,.STERADIAN.)
SOLID_ANGLE_UNIT()
);
#1007=(
NAMED_UNIT(*)
PLANE_ANGLE_UNIT()
SI_UNIT($,.RADIAN.)
);
#1008=(
LENGTH_UNIT()
NAMED_UNIT(*)
SI_UNIT($,.METRE.)
);
#1009=PRODUCT_DEFINITION_SHAPE('','',#1010);
#1010=PRODUCT_DEFINITION('','',#1012,#1011);
#1011=PRODUCT_DEFINITION_CONTEXT('',#1018,'design');
#1012=PRODUCT_DEFINITION_FORMATION_WITH_SPECIFIED_SOURCE('','',#1014,
 .NOT_KNOWN.);
#1013=PRODUCT_RELATED_PRODUCT_CATEGORY('','',(#1014));
#1014=PRODUCT('stage_11','stage_11','stage_11',(#1016));
#1015=PRODUCT_CATEGORY('','');
#1016=PRODUCT_CONTEXT('',#1018,'mechanical');
#1017=APPLICATION_PROTOCOL_DEFINITION('international standard',
'ap242_managed_model_based_3d_engineering',2020,#1018);
#1018=APPLICATION_CONTEXT('managed model based 3d engineering');
ENDSEC;
END-ISO-10303-21;
